<?xml version="1.0" standalone="no"?>
<!DOCTYPE svg PUBLIC "-//W3C//DTD SVG 1.1//EN" "http://www.w3.org/Graphics/SVG/1.1/DTD/svg11.dtd" >
<svg xmlns="http://www.w3.org/2000/svg" xmlns:xlink="http://www.w3.org/1999/xlink" version="1.1">
<metadata>
Created by FontForge 20170731 at Fri Aug 16 05:19:20 2019
 By Aleksey,,,
(c) 2017-2019 Apple Inc. All rights reserved.
</metadata>
<defs>
<font id="NewYorkSmall-SemiboldItalic" horiz-adv-x="0" >
  <font-face 
    font-family="New York Small"
    font-weight="600"
    font-style="italic"
    font-variant="small-caps"
    font-stretch="normal"
    units-per-em="2048"
    panose-1="0 0 0 0 0 0 0 0 0 0"
    ascent="1638"
    descent="-410"
    x-height="1017"
    cap-height="1444"
    bbox="-472 -513 3648.04 2003"
    underline-thickness="119"
    underline-position="-463"
    slope="-12"
    unicode-range="U+0020-1F16B"
  />
<missing-glyph horiz-adv-x="2048" 
d="M6 -494l519 2444h187l-519 -2444h-187zM416 -494l519 2444h187l-519 -2444h-187zM826 -494l519 2444h187l-519 -2444h-187zM1235 -494l519 2444h187l-519 -2444h-187zM1645 -494l519 2444h187l-519 -2444h-187z" />
    <glyph glyph-name=".notdef" horiz-adv-x="2048" 
d="M6 -494l519 2444h187l-519 -2444h-187zM416 -494l519 2444h187l-519 -2444h-187zM826 -494l519 2444h187l-519 -2444h-187zM1235 -494l519 2444h187l-519 -2444h-187zM1645 -494l519 2444h187l-519 -2444h-187z" />
    <glyph glyph-name=".null" 
 />
    <glyph glyph-name="nonmarkingreturn" 
 />
    <glyph glyph-name="space" unicode=" " horiz-adv-x="487" 
 />
    <glyph glyph-name="exclam" unicode="!" horiz-adv-x="612" 
d="M592 1475q69 0 108 -38.5t39 -103.5q0 -58 -35.5 -165t-136.5 -369l-133 -342h-68l24 366q25 386 35 459q11 91 52.5 142t114.5 51zM337 -23q-66 0 -110.5 41.5t-44.5 101.5q0 64 45 107.5t109 43.5q66 0 111 -41.5t45 -101.5q0 -64 -45.5 -107.5t-109.5 -43.5z" />
    <glyph glyph-name="quotedbl" unicode="&#x22;" horiz-adv-x="889" 
d="M558 1475q52 0 80 -32t27 -85q0 -41 -20 -100.5t-70 -180.5q-5 -10 -7 -16t-6 -15t-7 -17l-72 -177h-77l2 206q2 197 13 278q19 139 137 139zM934 1475q53 0 80.5 -32t27.5 -85q0 -11 -1.5 -22.5t-5 -26.5t-6.5 -27t-10 -32t-12 -34t-15.5 -40t-17.5 -42.5t-20.5 -50
t-22.5 -54.5l-71 -177h-77l2 206q2 205 13 278q19 139 136 139z" />
    <glyph glyph-name="numbersign" unicode="#" horiz-adv-x="1225" 
d="M243 0l107 381h-201l46 163h202l100 356h-201l46 163h201l108 381h172l-107 -381h294l107 381h171l-107 -381h202l-46 -163h-202l-101 -356h202l-46 -163h-202l-107 -381h-172l108 381h-294l-108 -381h-172zM569 544h294l101 356h-295z" />
    <glyph glyph-name="dollar" unicode="$" horiz-adv-x="1225" 
d="M544 -189l44 203q-113 7 -213 39.5t-164 79.5l49 314h85q5 -156 75 -227.5t194 -80.5l102 480l-50 30q-139 83 -207.5 174t-68.5 205q0 175 128.5 286t370.5 117l43 201h84l-43 -202q97 -6 186 -29.5t141 -52.5l-47 -311h-85q-3 241 -222 266l-94 -442l59 -36
q137 -85 203.5 -173t66.5 -200q0 -191 -139 -310.5t-370 -128.5l-43 -202h-85zM649 1097q1 -50 32 -94t97 -93l84 396q-100 -7 -157 -62t-56 -147zM919 369q-1 59 -30 106t-98 96l-92 -431q101 11 160.5 69t59.5 160z" />
    <glyph glyph-name="percent" unicode="%" horiz-adv-x="1966" 
d="M589 624q-141 0 -217.5 101t-76.5 247q-1 92 25.5 180t75.5 157.5t125 112t167 42.5q95 0 163.5 -50t99.5 -127.5t31 -171.5q1 -92 -25.5 -179.5t-75.5 -157t-125 -112t-167 -42.5zM436 0l1240 1444h160l-1241 -1444h-159zM590 715q45 0 83.5 44.5t63.5 115t38.5 155.5
t12.5 168q-5 175 -102 175q-59 0 -106 -75.5t-70 -185t-22 -222.5q5 -175 102 -175zM1583 -18q-96 0 -164.5 50t-99.5 127t-31 171q-1 92 25.5 180t75.5 157.5t125 112t167 42.5q95 0 163.5 -50t100 -127.5t31.5 -171.5q1 -92 -25.5 -179.5t-75.5 -157t-125 -112t-167 -42.5
zM1584 73q59 0 106 75.5t70 185t22 222.5q-5 175 -102 175q-60 0 -107 -76t-69.5 -185t-21.5 -222q4 -175 102 -175z" />
    <glyph glyph-name="ampersand" unicode="&#x26;" horiz-adv-x="1547" 
d="M145 340q0 313 397 447q-117 171 -114 322q4 158 121 262t310 104q184 0 290.5 -82.5t106.5 -220.5q0 -223 -381 -355l290 -347l117 144q76 97 63.5 129.5t-132.5 45.5l20 97h479l-20 -97q-94 -15 -151 -52t-163 -157l-155 -179l19 -22q73 -88 107 -127t89 -92t105 -84
l-16 -76h-332l-167 199q-119 -117 -229 -173.5t-234 -56.5q-197 0 -308.5 104.5t-111.5 266.5zM688 1168q0 -59 29.5 -124.5t101.5 -157.5q110 52 160 117.5t50 151.5q0 80 -43 134.5t-122 54.5q-80 0 -128 -47.5t-48 -128.5zM405 433q0 -122 86.5 -203.5t220.5 -81.5
q73 0 132 29.5t127 89.5l-351 418q-8 9 -22 27q-93 -52 -143 -118t-50 -161z" />
    <glyph glyph-name="quotesingle" unicode="'" horiz-adv-x="513" 
d="M558 1475q52 0 80 -32t27 -85q0 -41 -20 -100.5t-70 -180.5q-5 -10 -7 -16t-6 -15t-7 -17l-72 -177h-77l2 206q2 197 13 278q19 139 137 139z" />
    <glyph glyph-name="parenleft" unicode="(" horiz-adv-x="706" 
d="M471 370q0 -179 40 -353t106 -297h-109q-136 130 -209 329t-73 420q0 234 78.5 452t231 392.5t357.5 266.5h120q-138 -103 -243.5 -242.5t-170 -297.5t-96.5 -326t-32 -344z" />
    <glyph glyph-name="parenright" unicode=")" horiz-adv-x="706" 
d="M511 930q0 179 -40 353t-107 297h109q136 -130 209.5 -329t73.5 -420q0 -234 -78.5 -451.5t-231 -392t-357.5 -267.5h-120q138 103 243.5 242.5t170 297.5t96.5 326t32 344z" />
    <glyph glyph-name="asterisk" unicode="*" horiz-adv-x="793" 
d="M686 1473q36 0 58.5 -23t22.5 -59t-26 -85l-94 -186h-31l-17 183q-3 42 -3 65q0 49 24 77t66 28zM398 1347q65 0 122 -86l96 -141l-17 -27l-182 69q-102 33 -102 101q0 34 23.5 59t59.5 25zM914 1292q37 0 60 -22t23 -56q0 -87 -155 -100l-184 -23l-11 29l142 110
q44 35 70 48.5t55 13.5zM343 893q-37 0 -60 22t-23 56q0 87 155 100l184 22l11 -28l-141 -110q-44 -36 -70.5 -49t-55.5 -13zM942 921q0 -34 -23.5 -58.5t-60.5 -24.5q-65 0 -122 86l-96 141l18 26l183 -69q101 -33 101 -101zM571 711q-36 0 -58.5 23.5t-22.5 59.5t26 85
l94 186h30l18 -183q4 -56 4 -65q0 -49 -24.5 -77.5t-66.5 -28.5z" />
    <glyph glyph-name="plus" unicode="+" horiz-adv-x="1225" 
d="M229 502l40 185h397l84 398h186l-84 -398h397l-39 -185h-398l-84 -397h-186l84 397h-397z" />
    <glyph glyph-name="comma" unicode="," horiz-adv-x="567" 
d="M54 -258l20 94q88 5 140.5 44t52.5 98q0 51 -36 84t-98 44q2 88 51 149t129 61q71 0 119 -53.5t48 -148.5q0 -161 -118.5 -265.5t-307.5 -106.5z" />
    <glyph glyph-name="hyphen" unicode="&#x2011;" horiz-adv-x="836" 
d="M799 495h-550l41 198h549z" />
    <glyph glyph-name="hyphen" unicode="-" horiz-adv-x="836" 
d="M799 495h-550l41 198h549z" />
    <glyph glyph-name="period" unicode="." horiz-adv-x="567" 
d="M313 -20q-71 0 -119 46.5t-48 112.5q0 71 49 119.5t119 48.5q71 0 119 -46t48 -113q0 -71 -49 -119.5t-119 -48.5z" />
    <glyph glyph-name="slash" unicode="/" horiz-adv-x="706" 
d="M-49 -280l893 1860h187l-893 -1860h-187z" />
    <glyph glyph-name="zero" unicode="0" horiz-adv-x="1314" 
d="M716 -31q-95 0 -174 33t-133.5 89.5t-92 133.5t-55 164t-17.5 181q0 128 29 257.5t86.5 245.5t135.5 206.5t184.5 143.5t225.5 53q95 0 174 -33t133.5 -90t92 -134t55 -163.5t17.5 -181.5q0 -128 -29 -257.5t-86.5 -245.5t-135.5 -206t-184.5 -143t-225.5 -53zM716 99
q85 0 158 84.5t119 216.5t72 287t26 303q0 356 -186 356q-85 0 -158 -84.5t-119 -217t-72 -287t-26 -302.5q0 -356 186 -356z" />
    <glyph glyph-name="one" unicode="1" horiz-adv-x="906" 
d="M912 1444l-258 -1217q-14 -69 31 -92.5t198 -37.5l-20 -97h-781l20 97q162 15 216 38t68 92l209 978q2 9 -2.5 13.5t-14.5 2.5l-249 -57l21 98l437 182h125z" />
    <glyph glyph-name="two" unicode="2" horiz-adv-x="1083" 
d="M981 0h-891l37 170l420 359q213 183 293.5 296t81.5 242q0 102 -59.5 167.5t-172.5 65.5q-186 0 -299 -218l-82 35q62 167 188 262.5t306 95.5q110 0 198.5 -37.5t144.5 -117.5t56 -192q0 -153 -104.5 -284t-392.5 -343l-352 -271h681z" />
    <glyph glyph-name="three" unicode="3" horiz-adv-x="1112" 
d="M958 1102q0 76 -61.5 137t-169.5 61q-197 0 -305 -212l-83 34q54 159 186 256t299 97q107 0 196.5 -35.5t146.5 -109t57 -172.5q0 -61 -23.5 -115t-62.5 -94t-91.5 -71t-109.5 -50t-117 -28q137 -41 213 -138t76 -234q0 -87 -32 -162t-86 -128.5t-125 -92t-149.5 -57.5
t-159.5 -19q-110 0 -208.5 33.5t-162.5 98.5t-64 146q0 59 38.5 97.5t95.5 38.5q56 0 92.5 -38t36.5 -91q0 -64 -50 -102q71 -50 187 -50q62 0 117.5 20t100.5 59t71.5 103t26.5 144q0 47 -17.5 91.5t-53 85t-99 65.5t-146.5 25q-52 0 -98 -8l22 104q56 7 96.5 13.5
t97.5 19.5t97.5 28t85 39t72 52.5t45.5 69.5t18 89z" />
    <glyph glyph-name="four" unicode="4" horiz-adv-x="1189" 
d="M682 0l71 337h-649l27 126l916 981h179l-192 -907h216l-42 -200h-216l-72 -337h-238zM796 537l131 615l-565 -615h434z" />
    <glyph glyph-name="five" unicode="5" horiz-adv-x="1117" 
d="M544 -31q-176 0 -293.5 81t-117.5 197q0 59 38.5 97.5t95.5 38.5q56 0 92.5 -38t36.5 -91q0 -70 -57 -106q69 -49 173 -49q85 0 160.5 38.5t126 120.5t50.5 191q0 137 -76.5 214.5t-202.5 77.5q-149 1 -245 -124l-92 2l293 825h705l-52 -230h-603l-169 -424
q124 114 305 114q100 -1 180.5 -34.5t132 -91.5t79 -134.5t27.5 -164.5q0 -103 -42 -195.5t-116.5 -162.5t-186 -111t-242.5 -41z" />
    <glyph glyph-name="six" unicode="6" horiz-adv-x="1271" 
d="M1268 506q0 -156 -73 -279.5t-197.5 -190.5t-276.5 -67q-92 0 -175 29.5t-153 90.5t-111.5 167.5t-41.5 247.5q0 144 43.5 281.5t134.5 260t218.5 214t308 144.5t390.5 52l-14 -96q-317 -7 -535 -204t-268 -516q109 266 375 266q170 -1 272.5 -115t102.5 -285zM991 464
q0 126 -56 202t-158 76q-68 0 -123 -34t-87 -88t-49 -116t-17 -124q0 -123 56.5 -199t159.5 -80q70 0 124.5 32t86 85t47.5 115.5t16 130.5z" />
    <glyph glyph-name="seven" unicode="7" horiz-adv-x="990" 
d="M396 0h-251l4 19l880 1195h-738l52 230h887l-43 -206z" />
    <glyph glyph-name="eight" unicode="8" horiz-adv-x="1207" 
d="M650 -31q-89 0 -172 23t-152 66t-110.5 114.5t-41.5 160.5q2 132 98.5 227t300.5 141q-112 76 -171 160.5t-59 197.5q0 98 41.5 178.5t111.5 131.5t159 78.5t188 27.5q207 0 334.5 -95t127.5 -251q0 -64 -23.5 -118t-60.5 -91t-89 -66.5t-101.5 -47t-105.5 -29.5l14 -9
q128 -81 187.5 -168t59.5 -204q0 -119 -71 -217.5t-194 -154.5t-271 -55zM780 872l70 -45q106 49 162 128.5t56 161.5q0 102 -63 164t-163 62q-111 0 -177.5 -66t-66.5 -156q0 -75 44.5 -131t137.5 -118zM412 352q0 -112 66.5 -181.5t180.5 -69.5q115 0 191.5 66.5
t76.5 165.5q0 75 -41 131t-133 117l-108 72q-118 -50 -174.5 -129.5t-58.5 -171.5z" />
    <glyph glyph-name="nine" unicode="9" horiz-adv-x="1272" 
d="M309 940q0 156 73 279t197.5 189.5t276.5 66.5q73 0 140.5 -17.5t130.5 -58.5t109 -101.5t74 -152.5t28 -205q0 -144 -44 -281.5t-134.5 -260t-218.5 -214t-308.5 -144.5t-390.5 -52l14 96q316 7 534 204t269 515q-109 -265 -374 -265q-171 1 -273.5 115.5t-102.5 286.5z
M587 980q0 -126 55.5 -202t157.5 -76q68 0 123 34t87 88.5t49 116t17 123.5q0 123 -56.5 199.5t-159.5 79.5q-70 0 -124.5 -32t-86 -85t-47 -115.5t-15.5 -130.5z" />
    <glyph glyph-name="colon" unicode=":" horiz-adv-x="567" 
d="M457 659q-71 0 -119 46.5t-48 112.5q0 71 49.5 119.5t119.5 48.5q71 0 119 -46.5t48 -112.5q0 -71 -49.5 -119.5t-119.5 -48.5zM313 -20q-71 0 -119 46.5t-48 112.5q0 71 49 119.5t119 48.5q71 0 119 -46t48 -113q0 -71 -49 -119.5t-119 -48.5z" />
    <glyph glyph-name="semicolon" unicode=";" horiz-adv-x="567" 
d="M457 658q-71 0 -119 46.5t-48 113.5q0 71 49 119.5t120 48.5t119 -46.5t48 -113.5q0 -71 -49.5 -119.5t-119.5 -48.5zM54 -258l20 94q88 5 140.5 44t52.5 98q0 51 -36 84t-98 44q2 88 51 149t129 61q71 0 119 -53.5t48 -148.5q0 -161 -118.5 -265.5t-307.5 -106.5z" />
    <glyph glyph-name="less" unicode="&#x3c;" horiz-adv-x="1225" 
d="M1150 248l-41 -195l-871 468l28 132l1065 468l-45 -211l-778 -328z" />
    <glyph glyph-name="equal" unicode="=" horiz-adv-x="1225" 
d="M277 722l39 186h980l-40 -186h-979zM182 281l40 186h981l-40 -186h-981z" />
    <glyph glyph-name="greater" unicode="&#x3e;" horiz-adv-x="1225" 
d="M325 926l40 195l871 -468l-28 -132l-1064 -468l45 211l777 329z" />
    <glyph glyph-name="question" unicode="?" horiz-adv-x="806" 
d="M356 455l34 353q186 1 271 45.5t86 138.5q1 97 -83 166t-270 111q11 94 65 150t143 56q122 0 210.5 -111.5t88.5 -279.5q0 -208 -117.5 -337.5t-331.5 -158.5l-26 -133h-70zM355 -23q-66 0 -110.5 41.5t-44.5 101.5q0 64 45.5 107.5t110.5 43.5q66 0 110.5 -41.5
t44.5 -101.5q0 -64 -45.5 -107.5t-110.5 -43.5z" />
    <glyph glyph-name="at" unicode="@" horiz-adv-x="2046" 
d="M1474 -291q-62 -52 -187 -86t-260 -34q-169 0 -316.5 60t-255 167.5t-169.5 266t-62 347.5q0 155 43.5 303t129.5 275.5t204.5 224.5t280 152.5t344.5 55.5q190 0 348 -53t266.5 -148.5t168.5 -230t60 -294.5q0 -155 -49 -286.5t-131 -219.5t-190 -137t-226 -49
q-98 0 -166 48t-68 134q0 31 6 64q-118 -225 -298 -225q-118 0 -184.5 88.5t-66.5 249.5q0 156 57.5 298.5t164 234t235.5 91.5q86 0 144.5 -41t80.5 -113l94 125h147l-148 -693q-12 -55 4 -84.5t74 -29.5q65 0 130 36t120 100.5t89 168t34 225.5q0 285 -186 449t-507 164
q-158 0 -296.5 -49.5t-240 -134t-175 -195.5t-110 -237t-36.5 -256q0 -167 51 -303.5t141.5 -228t216.5 -141.5t275 -50q129 0 229 20t192 68zM942 381q0 -185 115 -185q69 0 129.5 72t83.5 183l63 294q2 69 -31.5 110t-92.5 41q-74 0 -137 -81.5t-96.5 -199t-33.5 -234.5z
" />
    <glyph glyph-name="A" unicode="A" horiz-adv-x="1425" 
d="M1290 292q15 -115 43 -149t117 -46l-20 -97h-627l21 97q118 16 147 50.5t17 146.5l-21 183h-464l-98 -183q-25 -47 -36.5 -76t-13 -51t14.5 -34.5t41.5 -20.5t72.5 -15l-20 -97h-470l21 97q96 12 137.5 46t108.5 154l640 1147h239zM566 596h388l-67 600z" />
    <glyph glyph-name="B" unicode="B" horiz-adv-x="1398" 
d="M1403 453q0 -142 -94.5 -244.5t-266.5 -155.5t-405 -53h-581l21 97q79 9 115 21t51.5 32.5t25.5 66.5l216 1009q14 66 -10 87t-133 34l20 97h539q279 0 419 -87.5t138 -245.5q-2 -140 -112.5 -226.5t-283.5 -107.5q161 -22 251 -111t90 -213zM1157 1097q0 224 -266 232
l-96 3l-111 -523h135q157 0 247.5 79t90.5 209zM1087 440q0 122 -76 188.5t-215 67.5l-135 2l-126 -587l98 3q454 12 454 326z" />
    <glyph glyph-name="C" unicode="C" horiz-adv-x="1432" 
d="M563 601q0 -225 106.5 -362t283.5 -137q255 0 388 313h88l-72 -329q-66 -52 -185 -84.5t-253 -32.5q-144 0 -267.5 46.5t-214 132t-141.5 215.5t-50 288q1 176 60.5 328.5t165 262t257 171.5t328.5 62q161 0 301.5 -45.5t217.5 -110.5l-57 -320l-86 5q-6 166 -88.5 252
t-238.5 86q-148 0 -272 -96t-197.5 -267t-73.5 -378z" />
    <glyph glyph-name="D" unicode="D" horiz-adv-x="1559" 
d="M1618 827q0 -180 -74.5 -334t-206.5 -262t-318 -169.5t-402 -61.5h-562l21 97q80 9 116 21t51.5 32.5t25.5 66.5l216 1010q14 66 -10.5 86.5t-132.5 33.5l20 97h516q342 0 541 -166t199 -451zM1297 855q0 204 -110.5 332.5t-319.5 140.5l-72 4l-259 -1220l94 4
q296 13 481.5 214.5t185.5 524.5z" />
    <glyph glyph-name="E" unicode="E" horiz-adv-x="1277" 
d="M1457 1444l-71 -380h-86q-2 83 -14 130.5t-45 77t-81.5 39.5t-135.5 13l-229 8l-114 -538h226q51 0 81.5 36t81.5 163h81l-108 -510h-82q4 87 -2.5 129t-23 56.5t-52.5 14.5h-226l-121 -571l236 8q72 3 115.5 7t87.5 16.5t70.5 30.5t55.5 52.5t52 79.5t51 114h87
l-102 -420h-1134l21 97q80 9 116 21t51.5 32.5t25.5 66.5l216 1010q14 66 -10 86.5t-133 33.5l20 97h1095z" />
    <glyph glyph-name="F" unicode="F" horiz-adv-x="1176" 
d="M1432 1444l-70 -380h-88q-2 83 -13.5 131t-45 77t-82.5 39.5t-136 13.5l-202 7l-116 -546h202q51 0 80.5 36t80.5 163h82l-108 -509h-81q6 125 -9.5 161.5t-68.5 36.5h-202l-97 -458q-6 -28 -6 -44t7 -29.5t27 -21t50 -13.5t82 -12l-21 -96h-642l21 97q80 9 116 21
t51.5 32.5t25.5 66.5l216 1010q14 66 -10 86.5t-133 33.5l20 97h1070z" />
    <glyph glyph-name="G" unicode="G" horiz-adv-x="1579" 
d="M250 651q1 176 61 328.5t165.5 262t257 171.5t328.5 62q161 0 301.5 -46t217.5 -110l-57 -320l-87 5q-6 166 -88 252t-238 86q-110 0 -210.5 -57t-173.5 -154.5t-116.5 -236t-43.5 -293.5q0 -225 108.5 -361.5t288.5 -136.5q126 0 196 48l71 337q5 24 6.5 38t-2.5 27
t-13 20t-29 13.5t-46 10.5t-68 8l20 96h583l-20 -96q-70 -7 -102 -19t-45 -32t-23 -67l-84 -390q-71 -53 -205 -90.5t-272 -37.5q-195 0 -348.5 79.5t-243.5 236t-89 366.5z" />
    <glyph glyph-name="H" unicode="H" horiz-adv-x="1628" 
d="M558 217q-14 -65 10 -86.5t124 -33.5l-19 -97h-620l21 97q79 9 116.5 21.5t53 34t25.5 67.5l215 1004q14 66 -11 88t-133 35l20 97h620l-21 -97q-74 -8 -109 -20t-51.5 -33.5t-25.5 -66.5l-91 -430h604l91 430q5 33 6.5 53.5t-15 33.5t-44 20t-82.5 13l21 97h618l-19 -97
q-78 -8 -115.5 -20.5t-54 -34.5t-26.5 -68l-214 -1004q-15 -66 10.5 -89t132.5 -34l-21 -97h-618l20 97q75 8 110 19.5t50.5 33t25.5 67.5l98 461h-604z" />
    <glyph glyph-name="I" unicode="I" horiz-adv-x="735" 
d="M558 217q-14 -66 9.5 -86.5t132.5 -33.5l-20 -97h-625l21 97q80 9 116.5 21t51.5 32.5t25 66.5l215 1010q5 32 6.5 53t-15 34t-46.5 20.5t-87 12.5l20 97h625l-21 -97q-80 -9 -116.5 -21t-51.5 -32.5t-25 -66.5z" />
    <glyph glyph-name="J" unicode="J" horiz-adv-x="735" 
d="M568 266q-24 -112 -65 -199t-93.5 -151t-134.5 -120t-167.5 -97.5t-212.5 -92.5l-27 81q126 76 199.5 146t127.5 179t90 278l200 938q14 66 -10 86.5t-133 33.5l20 97h624l-20 -97q-80 -9 -116.5 -21t-51.5 -32.5t-25 -66.5z" />
    <glyph glyph-name="K" unicode="&#x212a;" horiz-adv-x="1412" 
d="M558 217q-14 -66 8 -87.5t119 -32.5l-19 -97h-611l21 97q80 9 116.5 21t51.5 32.5t25 66.5l215 1010q14 66 -9.5 86.5t-132.5 33.5l20 97h611l-21 -97q-103 -11 -134 -32.5t-45 -87.5l-91 -427h138l377 373q91 92 83 128t-118 46l21 97h513l-20 -97q-97 -16 -163 -59
t-218 -180l-250 -228l197 -503q61 -156 100.5 -212t94.5 -74l-20 -91h-357l-261 685h-141z" />
    <glyph glyph-name="K" unicode="K" horiz-adv-x="1412" 
d="M558 217q-14 -66 8 -87.5t119 -32.5l-19 -97h-611l21 97q80 9 116.5 21t51.5 32.5t25 66.5l215 1010q14 66 -9.5 86.5t-132.5 33.5l20 97h611l-21 -97q-103 -11 -134 -32.5t-45 -87.5l-91 -427h138l377 373q91 92 83 128t-118 46l21 97h513l-20 -97q-97 -16 -163 -59
t-218 -180l-250 -228l197 -503q61 -156 100.5 -212t94.5 -74l-20 -91h-357l-261 685h-141z" />
    <glyph glyph-name="L" unicode="L" horiz-adv-x="1186" 
d="M1130 0h-1075l21 97q80 9 116.5 21t51.5 32.5t25 66.5l215 1010q14 67 -9.5 87.5t-132.5 32.5l20 97h636l-20 -96q-86 -9 -124.5 -21t-54.5 -32.5t-26 -66.5l-237 -1116l198 6q67 3 111 11t88 28t77.5 57.5t68.5 96.5t74 148h87z" />
    <glyph glyph-name="M" unicode="M" horiz-adv-x="1853" 
d="M854 1444l155 -1060l581 1060h506l-20 -97q-114 -10 -147 -31.5t-45 -86.5l-201 -1015q-13 -65 12 -86t131 -31l-20 -97h-618l21 97q80 7 116.5 18.5t51.5 32t24 66.5l187 964l-464 -813l-200 -365h-148l-182 1180l-197 -952q-15 -70 7 -93.5t125 -37.5l-21 -97h-465
l21 97q107 14 140 37.5t49 93.5l223 972q19 81 -2.5 108.5t-123.5 38.5l20 97h484z" />
    <glyph glyph-name="N" unicode="N" horiz-adv-x="1540" 
d="M779 1444l499 -1144l180 914q5 26 6.5 42t-1.5 31t-11.5 23t-27 15.5t-43 12t-63.5 9.5l21 97h462l-20 -97q-101 -13 -132 -36.5t-47 -96.5l-268 -1214h-264l-499 1145l-181 -915q-15 -73 8 -95.5t132 -37.5l-20 -97h-463l21 97q100 13 131.5 37t47.5 96l213 970
q14 51 9 81.5t-34.5 44.5t-100.5 21l20 97h425z" />
    <glyph glyph-name="O" unicode="O" horiz-adv-x="1612" 
d="M903 -27q-156 0 -283 53.5t-208.5 145.5t-125 213t-42.5 258q1 128 35 250t101 226.5t158.5 183t215 123.5t262.5 45q156 0 282.5 -53.5t208 -145.5t125 -212.5t43.5 -258.5q0 -161 -54.5 -310t-152 -264.5t-244.5 -184.5t-321 -69zM885 105q105 0 196 65t152.5 172.5
t96.5 245.5t35 284q0 229 -89 348t-242 119q-141 0 -252.5 -111.5t-169.5 -285t-58 -370.5q0 -229 89 -348t242 -119z" />
    <glyph glyph-name="P" unicode="P" horiz-adv-x="1357" 
d="M703 0h-651l21 97q79 7 117 20t53.5 34t25.5 67l215 1008q15 66 -10 88.5t-135 32.5l20 97h552q285 0 429 -108t144 -305q0 -119 -54 -212t-150 -152.5t-223 -90t-278 -30.5h-149l-69 -323q-11 -41 -3 -66t45 -38.5t121 -21.5zM797 1332l-144 -675l105 4q193 6 308 102
t115 280q0 136 -79.5 208t-221.5 77z" />
    <glyph glyph-name="Q" unicode="Q" horiz-adv-x="1615" 
d="M1295 -391q-92 0 -177 45t-197 161l-168 172q-161 31 -278 127t-174.5 232t-56.5 297q1 128 35 250t101 226.5t158.5 183t215 123.5t262.5 45q156 0 282.5 -53.5t208 -145.5t125 -212.5t43.5 -258.5q0 -184 -67.5 -349t-199.5 -287t-307 -167l102 -94q101 -95 171.5 -127
t171.5 -35l-19 -88q-100 -45 -232 -45zM885 105q105 0 196 65t152.5 172.5t96.5 245.5t35 284q0 229 -89 348t-242 119q-141 0 -252.5 -111.5t-169.5 -285t-58 -370.5q0 -229 89 -348t242 -119z" />
    <glyph glyph-name="R" unicode="R" horiz-adv-x="1417" 
d="M1088 0l-241 616q-41 -3 -81 -3h-122l-84 -397q-15 -66 6.5 -87t120.5 -32l-20 -97h-612l20 97q80 8 116.5 19.5t51.5 32t25 66.5l217 1014q6 28 6.5 44.5t-5.5 30t-24.5 21t-46 13t-74.5 9.5l21 97h570q262 0 405.5 -97t143.5 -275q0 -151 -99 -253.5t-266 -155.5
l123 -304q62 -152 100 -203t94 -65l-19 -91h-326zM1181 1062q0 126 -74.5 193.5t-215.5 72.5l-95 2l-128 -605l118 3q185 5 290 92.5t105 241.5z" />
    <glyph glyph-name="S" unicode="S" horiz-adv-x="1169" 
d="M612 -31q-135 0 -270.5 36t-200.5 85l53 325h86q7 -148 97.5 -230t235.5 -82q117 0 195.5 62t78.5 166q0 79 -42.5 140t-148.5 127l-78 47q-148 91 -216 186.5t-68 219.5q0 184 141.5 304t391.5 120q133 0 253 -34t181 -83l-51 -320h-86q-8 148 -85 225.5t-214 77.5
q-110 0 -180.5 -55.5t-70.5 -147.5q0 -74 46 -133.5t155 -126.5l77 -47q145 -89 210.5 -184.5t65.5 -220.5q0 -136 -75 -241t-201 -160.5t-280 -55.5z" />
    <glyph glyph-name="T" unicode="T" horiz-adv-x="1353" 
d="M1608 1444l-70 -380h-87q2 58 -1.5 97.5t-17 70t-33 47.5t-56 29t-79 16.5t-109.5 6.5l-51 1l-237 -1116q-6 -28 -6 -44t7 -29.5t27 -21t50 -13.5t82 -12l-20 -96h-661l21 96q88 9 128 21t56.5 33t26.5 66l237 1116l-52 -1q-81 -3 -131.5 -10t-95 -22.5t-74 -46
t-55.5 -74.5t-53 -114h-87l91 380h1250z" />
    <glyph glyph-name="U" unicode="U" horiz-adv-x="1522" 
d="M795 -31q-124 0 -225 40.5t-169 120t-91 197.5t9 273l130 614q16 70 -5.5 93.5t-116.5 39.5l21 97h607l-19 -97q-115 -16 -149 -39.5t-49 -93.5l-130 -606q-35 -157 -4.5 -258t103.5 -148t183 -47q148 0 261 101t156 305l135 653q7 30 7.5 47.5t-5 32.5t-24 23.5
t-45 15.5t-73.5 14l21 97h461l-20 -97q-101 -16 -132 -39.5t-46 -93.5l-149 -672q-60 -276 -229 -424.5t-413 -148.5z" />
    <glyph glyph-name="V" unicode="V" horiz-adv-x="1425" 
d="M442 1152q-15 115 -44 149t-117 46l20 97h628l-21 -97q-118 -16 -147 -50.5t-17 -145.5l100 -905l482 904q21 39 32.5 65t15 48t-1.5 34.5t-21.5 22.5t-40 15.5t-62.5 11.5l20 97h469l-20 -97q-97 -12 -138.5 -46t-107.5 -154l-641 -1147h-239z" />
    <glyph glyph-name="W" unicode="W" horiz-adv-x="2157" 
d="M438 1152q-7 80 -23 118t-44.5 53.5t-89.5 23.5l20 97h619l-21 -97q-116 -16 -143 -49t-19 -147l55 -889l429 893q23 47 32.5 75t11 51t-13 34.5t-40 19t-70.5 12.5l21 97h599l-20 -97q-42 -6 -67.5 -11.5t-46.5 -15t-29.5 -23t-16 -34t-5.5 -47.5t2 -65l55 -889l430 893
q19 39 29 64t13.5 47t-1.5 34.5t-20.5 22.5t-39 15t-61.5 9l21 97h466l-21 -97q-96 -11 -139.5 -45.5t-103.5 -153.5l-589 -1148h-239l-73 1044l-531 -1044h-235z" />
    <glyph glyph-name="X" unicode="X" horiz-adv-x="1386" 
d="M338 298l355 412l-206 478q-36 83 -71.5 112.5t-115.5 46.5l21 97h641l-21 -97q-117 -16 -138.5 -50t21.5 -129l136 -316l257 316q34 41 51 66.5t23.5 46t-6.5 32t-38 19.5t-71 15l20 97h486l-21 -97q-99 -11 -153.5 -45t-154.5 -149l-348 -405l211 -490q36 -83 72 -113
t114 -47l-20 -97h-641l20 97q117 16 139 50t-21 129l-141 329l-270 -330q-34 -41 -50.5 -66t-23.5 -45.5t6 -32.5t38 -20t71 -15l-20 -97h-487l21 97q99 11 155 46t160 155z" />
    <glyph glyph-name="Y" unicode="Y" horiz-adv-x="1357" 
d="M469 1162q-38 106 -72 139.5t-116 45.5l20 97h622l-20 -97q-114 -13 -136.5 -48.5t12.5 -135.5l141 -420l316 420q33 43 49 69.5t21.5 48t-7 33.5t-37.5 20t-70 13l21 97h456l-21 -97q-89 -12 -135.5 -44t-133.5 -141l-424 -536l-87 -410q-6 -28 -5.5 -44t7 -29.5
t27 -21.5t50.5 -13.5t82 -11.5l-21 -96h-660l20 96q89 9 129 21t56.5 32.5t26.5 66.5l85 405z" />
    <glyph glyph-name="Z" unicode="Z" horiz-adv-x="1226" 
d="M1146 0h-1078l19 91l990 1241l-282 -10q-93 -3 -147 -13t-98 -40t-72 -75.5t-63 -129.5h-87l91 380h1017l-19 -91l-990 -1241l285 10q72 3 115.5 7t90 16t75 30.5t59.5 52t55.5 79.5t52.5 113h87z" />
    <glyph glyph-name="bracketleft" unicode="[" horiz-adv-x="706" 
d="M145 -280l397 1860h472l-21 -97h-257l-356 -1666h257l-20 -97h-472z" />
    <glyph glyph-name="backslash" unicode="\" horiz-adv-x="706" 
d="M449 -280l-103 1860h187l103 -1860h-187z" />
    <glyph glyph-name="bracketright" unicode="]" horiz-adv-x="706" 
d="M837 1580l-397 -1860h-472l20 97h258l356 1666h-258l21 97h472z" />
    <glyph glyph-name="asciicircum" unicode="^" horiz-adv-x="1225" 
d="M836 1444h167l287 -600l-130 -99l-271 505l-486 -505l-110 99z" />
    <glyph glyph-name="underscore" unicode="_" horiz-adv-x="1024" 
d="M-48 -367l37 174h963l-37 -174h-963z" />
    <glyph glyph-name="grave" unicode="`" horiz-adv-x="1024" 
d="M767 1556l110 -384h-111l-282 370v14h283z" />
    <glyph glyph-name="a" unicode="a" horiz-adv-x="1191" 
d="M188 352q0 138 40 264t110 219.5t171 149t216 55.5q91 0 153.5 -34t92.5 -88l102 99h146l-165 -773q-20 -93 50 -93q68 0 119 40l-21 -99q-41 -47 -116.5 -78t-151.5 -31q-86 0 -122 50.5t-19 144.5q0 7 7 42q-52 -118 -137.5 -180.5t-194.5 -62.5q-120 0 -200 98.5
t-80 276.5zM464 369q-1 -229 133 -229q74 0 136.5 73.5t90.5 207.5l88 410q-9 33 -48 56t-95 23q-73 0 -133 -51t-96.5 -131.5t-56 -174t-19.5 -184.5z" />
    <glyph glyph-name="b" unicode="b" horiz-adv-x="1188" 
d="M1216 666q0 -138 -40 -264t-110 -220t-171 -149.5t-216 -55.5q-92 0 -154.5 34t-91.5 88l-100 -99h-147l268 1258q8 37 -2.5 53.5t-48.5 24.5l-87 15l21 93l435 55l-157 -678q53 107 135.5 163t185.5 56q120 0 200 -98t80 -276zM940 648q1 229 -133 229
q-74 0 -136.5 -73.5t-90.5 -207.5l-88 -410q9 -33 48 -56t95 -23q73 0 133 51t96.5 131.5t56 174t19.5 184.5z" />
    <glyph glyph-name="c" unicode="c" horiz-adv-x="967" 
d="M606 -23q-77 0 -148.5 28t-130 81t-93.5 140.5t-35 196.5q0 170 72.5 311.5t200.5 223.5t283 82q141 1 224.5 -68.5t83.5 -176.5q0 -61 -42 -102t-105 -41q-57 0 -96 38t-39 95q0 40 21.5 73t57.5 50q-31 12 -74 12q-131 0 -219.5 -130t-88.5 -327q0 -150 72 -235.5
t191 -85.5q137 0 234 87l-22 -102q-53 -71 -147 -110.5t-200 -39.5z" />
    <glyph glyph-name="d" unicode="d" horiz-adv-x="1195" 
d="M188 352q0 138 40 264t110 219.5t171 149t216 55.5q141 0 214 -78l63 296q8 37 -2 53.5t-48 24.5l-86 15l21 93l435 55l-267 -1255q-20 -93 50 -93q69 0 119 40l-21 -99q-40 -47 -116.5 -78t-151.5 -31q-86 0 -122.5 50.5t-19.5 144.5q0 7 7 42q-52 -118 -137.5 -180.5
t-194.5 -62.5q-120 0 -200 98.5t-80 276.5zM464 369q-1 -229 133 -229q74 0 136.5 73.5t90.5 207.5l88 410q-9 33 -48 56t-95 23q-73 0 -133 -51t-96.5 -131.5t-56 -174t-19.5 -184.5z" />
    <glyph glyph-name="e" unicode="e" horiz-adv-x="985" 
d="M606 -23q-80 0 -152 28t-129.5 81.5t-91.5 140.5t-34 196q0 132 46.5 248.5t123.5 196.5t178.5 126t209.5 46q139 0 223 -62t84 -166q0 -131 -134.5 -221.5t-397.5 -166.5l-53 -15q12 -130 81 -198.5t175 -68.5q142 0 239 87l-22 -102q-54 -71 -147.5 -110.5
t-198.5 -39.5zM740 919q-103 0 -178 -112.5t-85 -294.5l41 13q323 100 323 278q0 116 -101 116z" />
    <glyph glyph-name="f" unicode="f" horiz-adv-x="706" 
d="M377 1050q43 230 153.5 353.5t282.5 123.5q118 0 187 -52t69 -130q0 -55 -37.5 -92t-91.5 -37q-51 0 -86.5 35.5t-35.5 88.5q0 39 24 73q-68 -2 -113.5 -70.5t-71.5 -220.5l-20 -125l255 8l-28 -129h-244l-106 -600q-36 -207 -88.5 -355.5t-118 -235.5t-139.5 -127
t-163 -40q-98 0 -154 47.5t-56 120.5q0 55 35.5 91t87.5 36q49 0 83.5 -35.5t34.5 -87.5q0 -26 -12 -53q60 15 102 94t72 258l150 887h-157l18 88l157 23z" />
    <glyph glyph-name="g" unicode="g" horiz-adv-x="1093" 
d="M505 -458q-205 0 -336.5 67t-131.5 185q0 76 78 135.5t211 84.5q-110 50 -112 156q-1 71 55 123t164 80q-97 40 -148 115t-51 169q0 163 119.5 271t321.5 108q150 0 250 -54l357 13l-27 -135l-226 31q52 -74 52 -171q0 -161 -119.5 -272t-322.5 -111q-69 0 -126 12
q-41 -13 -65 -35t-23 -49t25 -45t89 -30l198 -36q297 -54 297 -278q0 -100 -74 -177.5t-193.5 -117t-261.5 -39.5zM495 632q0 -82 36.5 -135.5t104.5 -53.5q86 0 136 91t50 207q0 82 -37 136t-105 54q-58 0 -101.5 -46.5t-63.5 -113t-20 -139.5zM249 -176q0 -74 73.5 -119.5
t197.5 -45.5q116 0 196 43t80 114q0 52 -41.5 85.5t-136.5 49.5l-190 33q-8 2 -12 2q-167 -56 -167 -162z" />
    <glyph glyph-name="h" unicode="h" horiz-adv-x="1247" 
d="M773 1499l-168 -720q127 261 358 261q154 0 216.5 -97.5t26.5 -266.5l-93 -432q-20 -93 50 -93q69 0 120 40l-22 -99q-40 -47 -117 -78t-153 -31q-199 0 -151 237l97 461q20 94 -9.5 145.5t-95.5 51.5q-78 0 -152.5 -80.5t-100.5 -202.5l-125 -595h-268l268 1258
q8 37 -2.5 53.5t-48.5 24.5l-87 15l21 93z" />
    <glyph glyph-name="i" unicode="i" horiz-adv-x="625" 
d="M552 1209q-64 0 -106.5 41.5t-42.5 103.5q0 67 47.5 114t113.5 47q64 0 106.5 -41.5t42.5 -103.5q0 -67 -47 -114t-114 -47zM651 1030l-167 -786q-19 -93 50 -93t119 40l-21 -99q-40 -47 -117 -78t-153 -31q-99 0 -137.5 59.5t-13.5 177.5l121 570q8 37 -2 53.5t-48 24.5
l-86 15l21 93z" />
    <glyph glyph-name="j" unicode="j" horiz-adv-x="614" 
d="M570 1209q-64 0 -106.5 41.5t-42.5 103.5q0 67 47.5 114t113.5 47q64 0 106.5 -41.5t42.5 -103.5q0 -67 -47 -114t-114 -47zM670 1030l-204 -960q-34 -156 -92.5 -256.5t-164 -172t-275.5 -121.5l-30 87q72 32 120 73t81.5 103t54 129t43.5 177l149 701q8 37 -2.5 53.5
t-48.5 24.5l-86 15l21 93z" />
    <glyph glyph-name="k" unicode="k" horiz-adv-x="1134" 
d="M972 -17q-90 0 -148.5 66.5t-106.5 216.5l-71 222l-106 -82l-86 -406h-268l268 1258q8 37 -2.5 53.5t-48.5 24.5l-87 15l21 93l435 55l-206 -970l311 265q61 52 76.5 80t-8 42t-90.5 20l17 81h460l-16 -81q-76 -14 -146 -52.5t-194 -137.5l-119 -95l106 -310
q38 -110 73 -151t78 -41q50 0 90 37l-21 -100q-34 -47 -88.5 -75t-122.5 -28z" />
    <glyph glyph-name="l" unicode="l" horiz-adv-x="625" 
d="M751 1499l-267 -1255q-19 -93 50 -93t119 40l-21 -99q-40 -47 -116.5 -78t-153.5 -31q-99 0 -137.5 59.5t-13.5 177.5l221 1038q8 37 -2 53.5t-48 24.5l-86 15l20 93z" />
    <glyph glyph-name="m" unicode="m" horiz-adv-x="1817" 
d="M354 790q8 37 -2.5 53.5t-48.5 24.5l-85 15l20 93l421 54l-54 -251q119 261 343 261q133 0 196.5 -71t55.5 -187q50 118 137 188t198 70q152 0 215 -96t27 -265l-94 -435q-20 -93 50 -93q69 0 119 40l-21 -99q-40 -47 -117 -78t-153 -31q-201 0 -151 237l97 464
q20 92 -7.5 143t-90.5 51q-76 0 -146 -84t-97 -212l-124 -582h-267l146 694q18 85 -9.5 134.5t-90.5 49.5q-75 0 -146 -84.5t-98 -211.5l-123 -582h-268z" />
    <glyph glyph-name="n" unicode="n" horiz-adv-x="1247" 
d="M659 1030l-54 -251q127 261 358 261q154 0 216.5 -97.5t26.5 -266.5l-93 -432q-20 -93 50 -93q69 0 120 40l-22 -99q-40 -47 -117 -78t-153 -31q-199 0 -151 237l97 461q20 94 -9.5 145.5t-95.5 51.5q-79 0 -154 -84.5t-102 -213.5l-122 -580h-268l168 790
q8 37 -2.5 53.5t-48.5 24.5l-85 15l20 93z" />
    <glyph glyph-name="o" unicode="o" horiz-adv-x="1174" 
d="M626 -23q-201 0 -312.5 125t-111.5 326q0 164 70 303t200 224t292 85q201 0 312.5 -125.5t111.5 -325.5q0 -164 -70 -303t-200 -224t-292 -85zM635 102q68 0 123 53.5t87.5 138t50 180.5t17.5 189q0 123 -42.5 187.5t-116.5 64.5q-68 0 -123 -53.5t-87.5 -138t-50 -180.5
t-17.5 -189q0 -123 42.5 -187.5t116.5 -64.5z" />
    <glyph glyph-name="p" unicode="p" horiz-adv-x="1188" 
d="M1217 666q0 -138 -40 -264t-110 -220t-171 -149.5t-216 -55.5q-141 0 -215 81l-68 -325q-3 -14 -3 -23t3 -17.5t12 -14t21 -11t34 -10t47.5 -9t64.5 -10.5l-21 -98h-614l20 98q100 17 129.5 34t38.5 61l225 1057q8 37 -2.5 53.5t-48.5 24.5l-85 15l20 93l421 54l-50 -222
q52 113 136 172.5t191 59.5q120 0 200.5 -98t80.5 -276zM941 648q1 229 -133 229q-74 0 -136.5 -73.5t-90.5 -207.5l-88 -410q9 -33 47.5 -56t94.5 -23q73 0 133.5 51t96.5 131.5t56 173.5t20 185z" />
    <glyph glyph-name="q" unicode="q" horiz-adv-x="1168" 
d="M188 352q0 138 40 264t110 219.5t171 149t216 55.5q91 0 153.5 -34t92.5 -88l100 99h147l-271 -1279q-10 -44 15 -62t119 -34l-22 -102h-601l22 102q82 10 121.5 21t54 27t22.5 47l115 468q-53 -111 -136.5 -169.5t-188.5 -58.5q-120 0 -200 98.5t-80 276.5zM464 376
q-1 -236 134 -236q73 0 135.5 73.5t90.5 207.5l88 410q-9 34 -47 56.5t-92 22.5q-91 0 -163.5 -81.5t-109 -202t-36.5 -250.5z" />
    <glyph glyph-name="r" unicode="r" horiz-adv-x="877" 
d="M653 1030l-57 -281q106 159 173.5 222t139.5 63q52 0 80.5 -35t28.5 -95q0 -53 -23 -97q-36 15 -101 15q-96 0 -176.5 -40t-132.5 -116l-131 -666h-268l168 790q8 37 -2.5 53.5t-48.5 24.5l-85 15l20 93z" />
    <glyph glyph-name="s" unicode="s" horiz-adv-x="922" 
d="M130 85l46 252h86q4 -114 67 -176.5t161 -62.5q78 0 121 35.5t44 95.5q0 52 -27 89t-97 79l-75 41q-104 60 -153.5 130t-49.5 161q0 137 111 224t297 87q224 0 340 -77l-51 -253h-86q-1 99 -55.5 154.5t-147.5 55.5q-72 0 -112.5 -33t-40.5 -88q0 -48 29 -83t101 -78
l74 -41q106 -62 151.5 -132.5t45.5 -165.5q0 -135 -113 -228.5t-306 -93.5q-113 0 -210 30t-150 78z" />
    <glyph glyph-name="t" unicode="t" horiz-adv-x="772" 
d="M495 -19q-149 0 -213 93t-30 256l114 538h-157l18 87l163 27l44 201l279 39l-51 -236l284 10l-27 -128h-283l-107 -508q-44 -212 119 -212q106 0 165 53l-20 -100q-41 -52 -126 -86t-172 -34z" />
    <glyph glyph-name="u" unicode="u" horiz-adv-x="1233" 
d="M648 1031l-146 -697q-20 -92 11.5 -140.5t99.5 -48.5q87 0 154 73.5t93 194.5l81 377q8 37 -2 53t-47 25l-81 15l19 87l431 61l-169 -787q-19 -93 50 -93t121 40l-22 -99q-39 -47 -115.5 -78t-149.5 -31q-86 0 -123.5 50.5t-21.5 144.5q0 2 8 42q-61 -118 -152 -180.5
t-200 -62.5q-152 0 -219.5 101t-32.5 267l94 445q8 37 -2 54t-47 24l-86 15l20 93z" />
    <glyph glyph-name="v" unicode="v" horiz-adv-x="1024" 
d="M560 1031l41 -828q261 299 338 551q-58 1 -98.5 42.5t-40.5 98.5q0 62 44.5 103.5t110.5 41.5q69 0 112 -44t43 -115q0 -142 -172.5 -404.5t-387.5 -476.5h-193l-57 799q-3 33 -17.5 48.5t-53.5 22.5l-77 13l20 95z" />
    <glyph glyph-name="w" unicode="w" horiz-adv-x="1554" 
d="M565 1031l36 -803q113 184 181.5 334t80.5 295l-6 133l245 41l36 -829q253 286 331 552q-57 4 -96.5 45t-39.5 96q0 62 44.5 103.5t110.5 41.5q69 0 112.5 -44t43.5 -115q0 -141 -171.5 -406t-382.5 -475h-186l-26 544q-115 -272 -328 -544h-193l-52 799
q-2 33 -16.5 48.5t-54.5 22.5l-77 13l20 95z" />
    <glyph glyph-name="x" unicode="x" horiz-adv-x="1068" 
d="M71 114q0 57 39.5 97.5t96.5 40.5q38 0 69.5 -19.5t48.5 -51.5q34 41 94 130l97 147l-113 334q-14 41 -31.5 56.5t-60.5 22.5l-80 12l19 95l346 51l125 -372l66 115q88 155 149 211.5t135 56.5q61 0 99.5 -38.5t38.5 -96.5t-39.5 -98.5t-97.5 -40.5q-38 0 -69 19.5
t-48 52.5q-36 -43 -94 -131l-103 -160l72 -214q35 -107 70 -147t81 -40q51 0 97 38l-21 -99q-32 -48 -89 -76.5t-127 -28.5q-92 0 -149 59.5t-103 199.5l-36 108l-59 -100q-93 -157 -153 -213t-132 -56q-61 0 -99.5 38.5t-38.5 97.5z" />
    <glyph glyph-name="y" unicode="y" horiz-adv-x="1034" 
d="M564 1031l29 -875q289 355 363 597q-60 1 -102 42.5t-42 99.5q0 62 44.5 103.5t110.5 41.5q69 0 112.5 -44t43.5 -115q0 -107 -117.5 -313.5t-349.5 -497.5q-104 -127 -175 -208q-155 -183 -281 -322h-293v24q109 75 236.5 177t214.5 184l-51 871q-2 35 -17.5 50.5
t-56.5 23.5l-77 13l19 95z" />
    <glyph glyph-name="z" unicode="z" horiz-adv-x="961" 
d="M88 52l682 756h-313q-66 0 -93.5 -22.5t-58.5 -103.5h-87l86 335h761l-20 -94l-557 -604l61 -37q80 -48 130.5 -67t109.5 -20q94 0 169 117l65 -56q-72 -146 -163.5 -213.5t-191.5 -67.5q-71 0 -137 24.5t-163 89.5l-57 38l-1 -1l-138 -154z" />
    <glyph glyph-name="braceleft" unicode="{" horiz-adv-x="706" 
d="M707 1041q-34 -153 -117.5 -231t-236.5 -101q141 -31 190.5 -119.5t15.5 -248.5l-59 -271q-14 -74 -14.5 -130t36.5 -89.5t115 -33.5l-20 -97h-48q-186 0 -262 96.5t-41 266.5l79 370q44 213 -146 213l19 89q191 0 236 213l66 303q69 309 446 309h48l-21 -97
q-114 0 -161.5 -46.5t-73.5 -160.5z" />
    <glyph glyph-name="bar" unicode="|" horiz-adv-x="706" 
d="M200 -280l395 1860h187l-395 -1860h-187z" />
    <glyph glyph-name="braceright" unicode="}" horiz-adv-x="706" 
d="M441 1041l48 235q24 113 -4.5 160t-142.5 47l22 97h48q188 0 266.5 -77t46.5 -232l-62 -303q-44 -213 145 -213l-19 -89q-191 0 -236 -213l-79 -370q-36 -169 -154 -266t-303 -97h-48l21 97q60 0 103 18t70 55t43 78.5t29 101.5l57 271q34 160 120.5 248.5t240.5 119.5
q-142 23 -192.5 101t-19.5 231z" />
    <glyph glyph-name="asciitilde" unicode="&#x223c;" horiz-adv-x="1225" 
d="M969 576q65 0 113.5 51t66.5 154h155q-24 -197 -116 -297t-224 -100q-55 0 -109.5 21t-98.5 51t-85.5 60.5t-85.5 51.5t-83 21q-64 0 -113 -51t-67 -154h-155q24 197 116.5 297t224.5 100q55 0 109.5 -21t98.5 -51t85.5 -60.5t85 -51.5t82.5 -21z" />
    <glyph glyph-name="asciitilde" unicode="~" horiz-adv-x="1225" 
d="M969 576q65 0 113.5 51t66.5 154h155q-24 -197 -116 -297t-224 -100q-55 0 -109.5 21t-98.5 51t-85.5 60.5t-85.5 51.5t-83 21q-64 0 -113 -51t-67 -154h-155q24 197 116.5 297t224.5 100q55 0 109.5 -21t98.5 -51t85.5 -60.5t85 -51.5t82.5 -21z" />
    <glyph glyph-name="exclamdown" unicode="&#xa1;" horiz-adv-x="612" 
d="M480 986q66 0 110.5 -42t44.5 -102q0 -64 -45 -107t-110 -43q-66 0 -110.5 41.5t-44.5 101.5q0 64 45.5 107.5t109.5 43.5zM225 -513q-69 0 -108 39t-39 104q0 57 35.5 164.5t136.5 368.5l133 343h67l-23 -366q-25 -385 -36 -460q-10 -90 -52 -141.5t-114 -51.5z" />
    <glyph glyph-name="cent" unicode="&#xa2;" horiz-adv-x="1225" 
d="M699 0h-85l41 194q-147 28 -244.5 140.5t-97.5 296.5q0 169 72.5 309t203 225t292.5 94l40 185h85l-40 -186q136 -11 216.5 -78.5t80.5 -158.5q0 -59 -40.5 -98.5t-99.5 -39.5q-55 0 -92 37t-37 91q0 72 61 110q-49 20 -114 20l-164 -772q49 -18 110 -18q156 0 253 85
l-22 -102q-53 -72 -155.5 -110.5t-217.5 -38.5h-7zM595 672q0 -172 107 -260l151 714q-114 -39 -186 -164.5t-72 -289.5z" />
    <glyph glyph-name="sterling" unicode="&#xa3;" horiz-adv-x="1225" 
d="M282 679l19 84h170q-47 149 -47 252q0 146 74 252.5t188 157t250 50.5q168 0 265 -66t97 -167q0 -54 -37 -91.5t-92 -37.5q-57 0 -91 36.5t-34 89.5q0 63 48 98q-46 13 -99 13q-58 0 -109.5 -17t-94 -51.5t-67.5 -93t-25 -133.5q0 -29 2.5 -57.5t10 -64t11.5 -54
t15 -62.5t14 -54h328l-19 -84h-291q9 -52 8 -94q-3 -113 -69.5 -203.5t-178.5 -146.5h645l-59 -235h-976l36 169q69 18 128.5 47t111 70.5t81.5 100t30 126.5q0 69 -27 166h-216z" />
    <glyph glyph-name="currency" unicode="&#xa4;" horiz-adv-x="1244" 
d="M528 149q-127 0 -217 66l-181 -149l-106 134l181 149q-44 105 -16 232q27 129 116 234l-118 150l161 134l119 -151q121 67 245 67q126 0 219 -67l183 151l106 -134l-184 -151q44 -105 17 -233q-26 -125 -115 -231l118 -150l-161 -134l-119 150q-121 -67 -248 -67z
M564 321q105 0 192.5 73.5t112.5 186.5q24 115 -31.5 188t-161.5 73t-193 -73t-111 -188q-24 -113 31.5 -186.5t160.5 -73.5z" />
    <glyph glyph-name="yen" unicode="&#xa5;" horiz-adv-x="1225" 
d="M259 507h328l41 194h-329l18 85h296l-149 416q-30 84 -56.5 109.5t-104.5 36.5l20 96h575l-20 -96q-103 -10 -124.5 -38t4.5 -108l105 -358l269 358q61 78 52 106.5t-110 39.5l16 96h427l-21 -96q-57 -7 -92.5 -23.5t-59 -40t-71.5 -82.5l-330 -416h300l-19 -85h-328
l-41 -194h329l-19 -84h-328l-45 -210q-5 -22 -6 -36t5 -27t17 -20t34.5 -13.5t54 -11t78.5 -9.5l-21 -96h-680l20 96q99 10 142.5 21.5t61 31.5t27.5 64l44 210h-329z" />
    <glyph glyph-name="brokenbar" unicode="&#xa6;" horiz-adv-x="706" 
d="M427 789l168 791h187l-168 -791h-187zM200 -280l168 791h187l-168 -791h-187z" />
    <glyph glyph-name="section" unicode="&#xa7;" horiz-adv-x="1094" 
d="M431 1140q0 152 113 243.5t312 91.5q203 0 327 -72l-47 -256h-91q-3 91 -49 144.5t-140 53.5q-87 0 -131.5 -38.5t-44.5 -111.5q0 -56 36 -96t107 -77l65 -33q147 -77 206 -146.5t59 -166.5q0 -140 -106 -220.5t-278 -80.5h-15q91 -57 138 -126.5t47 -161.5
q0 -148 -113 -242t-310 -94q-253 0 -387 86l50 265h91q7 -221 240 -221q86 0 133.5 41t47.5 111q0 60 -34 98.5t-113 81.5l-64 32q-149 77 -208 147t-59 167q0 140 106 220t278 80q11 0 17 -1q-183 114 -183 282zM564 480q84 -49 169 -49q78 0 127.5 46t49.5 121
q0 96 -108 157q-84 49 -170 49q-78 0 -127.5 -46t-49.5 -121q0 -96 109 -157z" />
    <glyph glyph-name="dieresis" unicode="&#xa8;" horiz-adv-x="1024" 
d="M573 1225q-58 0 -95.5 37t-37.5 93q0 60 42.5 102t101.5 42q57 0 95 -37.5t38 -92.5q0 -60 -42 -102t-102 -42zM1019 1225q-58 0 -95.5 37t-37.5 93q0 60 42.5 102t101.5 42q57 0 95 -37.5t38 -92.5q0 -60 -42 -102t-102 -42z" />
    <glyph glyph-name="copyright" unicode="&#xa9;" horiz-adv-x="1648" 
d="M931 -31q-195 0 -354.5 93.5t-248.5 252t-89 348.5q0 172 62 324t167 259t250 169t306 62q148 0 278 -55t220 -148.5t142 -221t52 -269.5q0 -173 -61 -324.5t-166 -258.5t-250 -169t-308 -62zM930 55q111 0 214.5 34t189 99t149.5 153t99.5 202t35.5 240q0 167 -76 306.5
t-212.5 220.5t-304.5 81q-109 0 -212.5 -34t-189 -99t-150.5 -153t-101 -202t-36 -240q0 -168 77.5 -307.5t214 -220t302.5 -80.5zM827 645q1 -99 48 -156t126 -57q117 0 180 151h53l-38 -178q-78 -56 -218 -56q-151 0 -249.5 88.5t-96.5 251.5q3 181 119.5 294.5
t298.5 113.5q79 0 149 -21t110 -51l-30 -171l-52 1q-6 158 -147 158q-68 0 -127.5 -53t-92.5 -137.5t-33 -177.5z" />
    <glyph glyph-name="a.sups" unicode="&#xaa;" horiz-adv-x="768" 
d="M302 1023q-1 166 88.5 277.5t225.5 111.5q110 0 150 -77l68 63h104l-86 -405q-13 -59 29 -59q36 0 65 19l-15 -69q-27 -32 -75 -52.5t-97 -20.5q-52 0 -76.5 28.5t-17.5 81.5q0 15 5 27q-30 -67 -81 -103.5t-116 -36.5q-74 0 -122.5 56.5t-48.5 158.5zM493 1033
q3 -108 72 -108q38 0 69.5 33.5t43.5 92.5l49 231q-5 14 -25 24.5t-49 10.5q-53 0 -91 -47.5t-54 -110t-15 -126.5z" />
    <glyph glyph-name="guillemetleft" unicode="&#xab;" horiz-adv-x="1285" 
d="M170 512l9 43l518 427h158l-390 -449l199 -448h-140zM669 512l10 43l517 427h159l-390 -449l199 -448h-140z" />
    <glyph glyph-name="logicalnot" unicode="&#xac;" horiz-adv-x="1225" 
d="M229 502l40 185h980l-19 -93l-104 -490h-186l85 398h-796z" />
    <glyph glyph-name="registered" unicode="&#xae;" horiz-adv-x="1648" 
d="M931 -31q-195 0 -354.5 93.5t-248.5 252t-89 348.5q0 172 62 324t167 259t250 169t306 62q148 0 278 -55t220 -148.5t142 -221t52 -269.5q0 -173 -61 -324.5t-166 -258.5t-250 -169t-308 -62zM930 55q111 0 214.5 34t189 99t149.5 153t99.5 202t35.5 240q0 167 -76 306.5
t-212.5 220.5t-304.5 81q-109 0 -212.5 -34t-189 -99t-150.5 -153t-101 -202t-36 -240q0 -168 77.5 -307.5t214 -220t302.5 -80.5zM912 428l-12 -62h-337l13 62q55 5 71 15.5t23 42.5l102 475q7 32 -5 42.5t-65 15.5l13 62h308q143 0 219 -48.5t76 -139.5q0 -142 -172 -201
l54 -145q30 -68 47.5 -91.5t42.5 -31.5l-12 -59h-194l-110 297h-22h-63l-36 -174q-7 -32 3 -42.5t56 -17.5zM963 1008l-58 -277l49 2q85 2 132 44.5t46 106.5q0 119 -132 124h-37z" />
    <glyph glyph-name="macron" unicode="&#xaf;" horiz-adv-x="1024" 
d="M478 1266l34 161h606l-34 -161h-606z" />
    <glyph glyph-name="degree" unicode="&#xb0;" horiz-adv-x="794" 
d="M674 1402q129 0 205.5 -76.5t77.5 -197.5q0 -142 -109 -245.5t-264 -103.5q-130 0 -206.5 76.5t-76.5 197.5q0 143 108.5 246t264.5 103zM661 1271q-80 0 -142 -65t-62 -152q0 -65 38 -104t101 -39q80 0 142 65t62 152q0 65 -38 104t-101 39z" />
    <glyph glyph-name="plusminus" unicode="&#xb1;" horiz-adv-x="1225" 
d="M257 634l40 186h397l57 265h186l-57 -265h397l-39 -186h-398l-56 -264h-186l57 264h-398zM145 105l40 185h980l-40 -185h-980z" />
    <glyph glyph-name="two.sups" unicode="&#xb2;" horiz-adv-x="728" 
d="M806 822l-540 -1l27 127l238 188q121 97 163.5 151t41.5 115q-2 48 -37 79.5t-96 31.5q-109 0 -169 -117l-56 24q38 103 115.5 163t191.5 60q103 0 173 -54t70 -147q0 -90 -60.5 -157.5t-233.5 -176.5l-188 -117h397z" />
    <glyph glyph-name="three.sups" unicode="&#xb3;" horiz-adv-x="747" 
d="M757 1413q-1 40 -36.5 70t-97.5 30q-113 0 -174 -115l-56 23q33 104 115 163t188 59q100 0 172 -48.5t72 -135.5q1 -80 -67 -130t-164 -62q80 -23 125.5 -75t46.5 -123q0 -83 -50.5 -145t-125.5 -91t-160 -29q-103 0 -182 46.5t-79 122.5q0 37 24.5 62t61.5 25
q36 0 59 -23.5t23 -59.5q0 -38 -27 -62q37 -20 97 -20q72 0 123 43.5t50 122.5q0 59 -47 96.5t-133 37.5q-23 0 -58 -5l15 76q57 5 98 11.5t89 22t73.5 44t24.5 69.5z" />
    <glyph glyph-name="acute" unicode="&#xb4;" horiz-adv-x="1024" 
d="M891 1556h305v-14l-428 -370h-125z" />
    <glyph glyph-name="mugreek" unicode="&#x3bc;" horiz-adv-x="1247" 
d="M52 -460l148 693l166 784h288q-86 -305 -148 -592q-32 -151 0 -218.5t130 -67.5q68 0 129 32t96 89l155 757h290l-169 -719q-40 -176 87 -176q36 0 57 8l-19 -91q-95 -56 -223 -56q-92 0 -139.5 47.5t-39.5 141.5q-48 -84 -136.5 -139.5t-183.5 -55.5q-80 0 -131 31
q-46 -252 -64 -468h-293z" />
    <glyph glyph-name="mugreek" unicode="&#xb5;" horiz-adv-x="1247" 
d="M52 -460l148 693l166 784h288q-86 -305 -148 -592q-32 -151 0 -218.5t130 -67.5q68 0 129 32t96 89l155 757h290l-169 -719q-40 -176 87 -176q36 0 57 8l-19 -91q-95 -56 -223 -56q-92 0 -139.5 47.5t-39.5 141.5q-48 -84 -136.5 -139.5t-183.5 -55.5q-80 0 -131 31
q-46 -252 -64 -468h-293z" />
    <glyph glyph-name="paragraph" unicode="&#xb6;" horiz-adv-x="1391" 
d="M574 -220l164 771h-36q-78 0 -150 24.5t-131.5 71t-95.5 125t-36 176.5q0 147 86.5 262.5t219.5 174.5t284 59h205l-354 -1664h-156zM1298 1444h330l-21 -97q-83 -8 -120.5 -19.5t-53.5 -32t-26 -67.5l-308 -1448h-155z" />
    <glyph glyph-name="middledot" unicode="&#x2e31;" horiz-adv-x="567" 
d="M409 432q-71 0 -119 46t-48 112q0 71 49 119.5t119 48.5q71 0 119 -46.5t48 -112.5q0 -71 -49 -119t-119 -48z" />
    <glyph glyph-name="middledot" unicode="&#x2027;" horiz-adv-x="567" 
d="M409 432q-71 0 -119 46t-48 112q0 71 49 119.5t119 48.5q71 0 119 -46.5t48 -112.5q0 -71 -49 -119t-119 -48z" />
    <glyph glyph-name="middledot" unicode="&#xb7;" horiz-adv-x="567" 
d="M409 432q-71 0 -119 46t-48 112q0 71 49 119.5t119 48.5q71 0 119 -46.5t48 -112.5q0 -71 -49 -119t-119 -48z" />
    <glyph glyph-name="cedilla" unicode="&#xb8;" horiz-adv-x="1024" 
d="M408 -491q-120 0 -202 59l21 92q62 -39 141 -39q53 0 82.5 21t29.5 56q0 39 -32 60t-93 21h-26l18 85l172 185h88l-10 -49l-99 -105q90 -11 141 -60.5t51 -125.5q0 -90 -75.5 -145t-206.5 -55z" />
    <glyph glyph-name="one.sups" unicode="&#xb9;" horiz-adv-x="678" 
d="M789 1624l-139 -654q-9 -41 18 -56.5t115 -23.5l-14 -68h-486l14 68q93 8 125.5 23t40.5 56l104 489q1 5 -1.5 7.5t-7.5 1.5l-145 -25l14 68l276 114h86z" />
    <glyph glyph-name="o.sups" unicode="&#xba;" horiz-adv-x="754" 
d="M573 808q-124 0 -193.5 71t-69.5 190q0 145 97 243.5t245 98.5q124 0 193.5 -71t69.5 -189q0 -145 -97 -244t-245 -99zM581 896q47 0 82.5 53t51 122.5t14.5 135.5q-4 116 -85 116q-47 0 -82.5 -53t-51 -122.5t-14.5 -135.5q2 -58 24.5 -87t60.5 -29z" />
    <glyph glyph-name="guillemetright" unicode="&#xbb;" horiz-adv-x="1285" 
d="M778 554l-10 -43l-517 -426h-159l390 449l-198 448h139zM1278 554l-10 -43l-517 -426h-159l390 449l-198 448h139z" />
    <glyph glyph-name="onequarter" unicode="&#xbc;" horiz-adv-x="1639" 
d="M750 1445l-139 -655q-9 -41 18 -56.5t115 -23.5l-14 -68h-485l13 68q92 8 125 23t42 56l103 489q1 5 -1.5 7.5t-7.5 1.5l-145 -25l14 68l276 115h86zM326 0l1241 1444h159l-1240 -1444h-160zM1303 0l34 165h-376l22 103l523 534h130l-104 -495h121l-30 -142h-121
l-34 -165h-165zM1369 307l66 310l-303 -310h237z" />
    <glyph glyph-name="onehalf" unicode="&#xbd;" horiz-adv-x="1748" 
d="M750 1445l-139 -655q-9 -41 18 -56.5t115 -23.5l-14 -68h-485l13 68q92 8 125 23t42 56l103 489q1 5 -1.5 7.5t-7.5 1.5l-145 -25l14 68l276 115h86zM326 0l1241 1444h159l-1240 -1444h-160zM1650 0l-539 -1l27 127l238 188q121 97 163.5 151t41.5 115q-2 49 -36.5 80
t-96.5 31q-108 0 -170 -117l-55 24q38 103 115.5 163t191.5 60q103 0 173 -54t70 -147q0 -89 -60.5 -157t-233.5 -177l-188 -117h396z" />
    <glyph glyph-name="threequarters" unicode="&#xbe;" horiz-adv-x="1659" 
d="M718 1233q-1 40 -36 70t-98 30q-113 0 -174 -115l-56 24q33 103 115 162t188 59q100 0 172 -48t72 -135q1 -80 -67 -130.5t-164 -62.5q80 -23 125.5 -75t46.5 -122q0 -83 -50.5 -145t-125.5 -91.5t-160 -29.5q-103 0 -182 46.5t-79 122.5q0 37 24.5 62t61.5 25
q36 0 59 -23.5t23 -59.5t-26 -62q38 -20 97 -20q72 0 122.5 43.5t49.5 122.5q0 59 -47 96.5t-133 37.5q-30 0 -58 -4l15 76q43 3 77 7.5t75.5 15t69 25.5t46 40t17.5 58zM347 0l1241 1444h159l-1240 -1444h-160zM1324 0l34 165h-376l22 103l523 534h130l-105 -495h121
l-30 -142h-120l-34 -165h-165zM1389 307l66 310l-302 -310h236z" />
    <glyph glyph-name="questiondown" unicode="&#xbf;" horiz-adv-x="806" 
d="M654 986q66 0 111 -42t45 -102q0 -64 -45.5 -107t-109.5 -43q-66 0 -111 41.5t-45 101.5q0 64 45.5 107.5t109.5 43.5zM654 507l-33 -352q-187 -1 -272 -45.5t-86 -138.5q-1 -98 83 -167t271 -111q-12 -94 -66.5 -150t-143.5 -56q-121 0 -209 112t-88 280
q0 207 117.5 337t330.5 159l27 132h69z" />
    <glyph glyph-name="Agrave" unicode="&#xc0;" horiz-adv-x="1425" 
d="M987 1860l110 -295h-90l-247 285v10h227zM1290 292q15 -115 43 -149t117 -46l-20 -97h-627l21 97q118 16 147 50.5t17 146.5l-21 183h-464l-98 -183q-25 -47 -36.5 -76t-13 -51t14.5 -34.5t41.5 -20.5t72.5 -15l-20 -97h-470l21 97q96 12 137.5 46t108.5 154l640 1147
h239zM566 596h388l-67 600z" />
    <glyph glyph-name="Aacute" unicode="&#xc1;" horiz-adv-x="1425" 
d="M1135 1860l248 -1v-10l-364 -285h-104zM1290 292q15 -115 43 -149t117 -46l-20 -97h-627l21 97q118 16 147 50.5t17 146.5l-21 183h-464l-98 -183q-25 -47 -36.5 -76t-13 -51t14.5 -34.5t41.5 -20.5t72.5 -15l-20 -97h-470l21 97q96 12 137.5 46t108.5 154l640 1147h239z
M566 596h388l-67 600z" />
    <glyph glyph-name="Acircumflex" unicode="&#xc2;" horiz-adv-x="1425" 
d="M856 1564h-110l252 296h175l127 -296h-102l-138 145zM1290 292q15 -115 43 -149t117 -46l-20 -97h-627l21 97q118 16 147 50.5t17 146.5l-21 183h-464l-98 -183q-25 -47 -36.5 -76t-13 -51t14.5 -34.5t41.5 -20.5t72.5 -15l-20 -97h-470l21 97q96 12 137.5 46t108.5 154
l640 1147h239zM566 596h388l-67 600z" />
    <glyph glyph-name="Atilde" unicode="&#xc3;" horiz-adv-x="1425" 
d="M1158 1596q-67 0 -130 52l-25 23q-36 31 -63 31q-25 0 -41.5 -24.5t-25.5 -90.5h-94q16 143 61.5 202.5t115.5 59.5q69 0 130 -52l26 -22q34 -32 62 -32q25 0 41.5 24.5t25.5 90.5h95q-16 -143 -61.5 -202.5t-116.5 -59.5zM1290 292q15 -115 43 -149t117 -46l-20 -97
h-627l21 97q118 16 147 50.5t17 146.5l-21 183h-464l-98 -183q-25 -47 -36.5 -76t-13 -51t14.5 -34.5t41.5 -20.5t72.5 -15l-20 -97h-470l21 97q96 12 137.5 46t108.5 154l640 1147h239zM566 596h388l-67 600z" />
    <glyph glyph-name="Adieresis" unicode="&#xc4;" horiz-adv-x="1425" 
d="M877 1596q-48 0 -80 31.5t-32 78.5q0 52 35.5 88t86.5 36q49 0 80.5 -32t31.5 -79q0 -51 -36 -87t-86 -36zM1223 1596q-48 0 -80 31.5t-32 78.5q0 52 35.5 88t86.5 36q49 0 80.5 -32t31.5 -79q0 -51 -36 -87t-86 -36zM1290 292q15 -115 43 -149t117 -46l-20 -97h-627
l21 97q118 16 147 50.5t17 146.5l-21 183h-464l-98 -183q-25 -47 -36.5 -76t-13 -51t14.5 -34.5t41.5 -20.5t72.5 -15l-20 -97h-470l21 97q96 12 137.5 46t108.5 154l640 1147h239zM566 596h388l-67 600z" />
    <glyph glyph-name="Aring" unicode="&#x212b;" horiz-adv-x="1425" 
d="M815 1750q0 91 72 151t192 60q104 0 169 -52.5t65 -138.5q0 -91 -72 -151t-192 -60q-104 0 -169 52t-65 139zM973 1745q0 -43 21.5 -67.5t58.5 -24.5q43 0 73.5 34.5t30.5 88.5q0 42 -21.5 66.5t-58.5 24.5q-43 0 -73.5 -34.5t-30.5 -87.5zM1290 292q15 -115 43 -149
t117 -46l-20 -97h-627l21 97q118 16 147 50.5t17 146.5l-21 183h-464l-98 -183q-25 -47 -36.5 -76t-13 -51t14.5 -34.5t41.5 -20.5t72.5 -15l-20 -97h-470l21 97q96 12 137.5 46t108.5 154l640 1147h239zM566 596h388l-67 600z" />
    <glyph glyph-name="Aring" unicode="&#xc5;" horiz-adv-x="1425" 
d="M815 1750q0 91 72 151t192 60q104 0 169 -52.5t65 -138.5q0 -91 -72 -151t-192 -60q-104 0 -169 52t-65 139zM973 1745q0 -43 21.5 -67.5t58.5 -24.5q43 0 73.5 34.5t30.5 88.5q0 42 -21.5 66.5t-58.5 24.5q-43 0 -73.5 -34.5t-30.5 -87.5zM1290 292q15 -115 43 -149
t117 -46l-20 -97h-627l21 97q118 16 147 50.5t17 146.5l-21 183h-464l-98 -183q-25 -47 -36.5 -76t-13 -51t14.5 -34.5t41.5 -20.5t72.5 -15l-20 -97h-470l21 97q96 12 137.5 46t108.5 154l640 1147h239zM566 596h388l-67 600z" />
    <glyph glyph-name="AE" unicode="&#xc6;" horiz-adv-x="2016" 
d="M2159 1444l-69 -379h-85q-3 56 -7.5 91t-16.5 66t-29.5 47t-50 28.5t-73 17.5t-103.5 8l-224 9l-100 -535h220q51 0 81 35.5t79 160.5h83l-105 -511h-84q6 123 -9.5 159.5t-68.5 36.5h-219l-106 -566l239 10q82 4 133.5 11.5t98 25t79 51t62.5 83t62 127.5h84l-104 -420
h-1126l20 97q62 6 93 12.5t52 25t28 39.5t15 69l59 310h-451l-186 -280q-65 -98 -52 -130.5t126 -45.5l-21 -97h-489l20 97q97 10 144 41t118 135l805 1171h1078zM1130 1325l-433 -651h392l123 651h-82z" />
    <glyph glyph-name="Ccedilla" unicode="&#xc7;" horiz-adv-x="1432" 
d="M563 601q0 -225 106.5 -362t283.5 -137q255 0 388 313h88l-72 -329q-64 -50 -177.5 -82.5t-243.5 -34.5l-69 -74q90 -11 141 -60.5t51 -125.5q0 -90 -75.5 -145t-206.5 -55q-120 0 -202 59l21 92q60 -38 141 -39q53 1 82.5 21.5t29.5 55.5q0 39 -32 60t-93 21h-26l18 85
l103 111q-125 15 -230.5 67.5t-182 137t-119 205.5t-41.5 266q1 176 60.5 328.5t165 262t257 171.5t328.5 62q161 0 301.5 -45.5t217.5 -110.5l-57 -320l-86 5q-6 166 -88.5 252t-238.5 86q-148 0 -272 -96t-197.5 -267t-73.5 -378z" />
    <glyph glyph-name="Egrave" unicode="&#xc8;" horiz-adv-x="1277" 
d="M917 1860l110 -295h-90l-248 285v10h228zM1457 1444l-71 -380h-86q-2 83 -14 130.5t-45 77t-81.5 39.5t-135.5 13l-229 8l-114 -538h226q51 0 81.5 36t81.5 163h81l-108 -510h-82q4 87 -2.5 129t-23 56.5t-52.5 14.5h-226l-121 -571l236 8q72 3 115.5 7t87.5 16.5
t70.5 30.5t55.5 52.5t52 79.5t51 114h87l-102 -420h-1134l21 97q80 9 116 21t51.5 32.5t25.5 66.5l216 1010q14 66 -10 86.5t-133 33.5l20 97h1095z" />
    <glyph glyph-name="Eacute" unicode="&#xc9;" horiz-adv-x="1277" 
d="M1064 1860l248 -1v-10l-363 -285h-104zM1457 1444l-71 -380h-86q-2 83 -14 130.5t-45 77t-81.5 39.5t-135.5 13l-229 8l-114 -538h226q51 0 81.5 36t81.5 163h81l-108 -510h-82q4 87 -2.5 129t-23 56.5t-52.5 14.5h-226l-121 -571l236 8q72 3 115.5 7t87.5 16.5
t70.5 30.5t55.5 52.5t52 79.5t51 114h87l-102 -420h-1134l21 97q80 9 116 21t51.5 32.5t25.5 66.5l216 1010q14 66 -10 86.5t-133 33.5l20 97h1095z" />
    <glyph glyph-name="Ecircumflex" unicode="&#xca;" horiz-adv-x="1277" 
d="M785 1564h-109l252 296h175l127 -296h-103l-138 145zM1457 1444l-71 -380h-86q-2 83 -14 130.5t-45 77t-81.5 39.5t-135.5 13l-229 8l-114 -538h226q51 0 81.5 36t81.5 163h81l-108 -510h-82q4 87 -2.5 129t-23 56.5t-52.5 14.5h-226l-121 -571l236 8q72 3 115.5 7
t87.5 16.5t70.5 30.5t55.5 52.5t52 79.5t51 114h87l-102 -420h-1134l21 97q80 9 116 21t51.5 32.5t25.5 66.5l216 1010q14 66 -10 86.5t-133 33.5l20 97h1095z" />
    <glyph glyph-name="Edieresis" unicode="&#xcb;" horiz-adv-x="1277" 
d="M807 1596q-49 0 -81 31.5t-31 78.5q0 52 35.5 88t86.5 36q49 0 80.5 -32t31.5 -79q-1 -51 -36.5 -87t-85.5 -36zM1153 1596q-49 0 -81 31.5t-31 78.5q0 52 35.5 88t86.5 36q49 0 80.5 -32t31.5 -79q-1 -51 -36.5 -87t-85.5 -36zM1457 1444l-71 -380h-86q-2 83 -14 130.5
t-45 77t-81.5 39.5t-135.5 13l-229 8l-114 -538h226q51 0 81.5 36t81.5 163h81l-108 -510h-82q4 87 -2.5 129t-23 56.5t-52.5 14.5h-226l-121 -571l236 8q72 3 115.5 7t87.5 16.5t70.5 30.5t55.5 52.5t52 79.5t51 114h87l-102 -420h-1134l21 97q80 9 116 21t51.5 32.5
t25.5 66.5l216 1010q14 66 -10 86.5t-133 33.5l20 97h1095z" />
    <glyph glyph-name="Igrave" unicode="&#xcc;" horiz-adv-x="735" 
d="M660 1860l111 -295h-91l-247 285v10h227zM558 217q-14 -66 9.5 -86.5t132.5 -33.5l-20 -97h-625l21 97q80 9 116.5 21t51.5 32.5t25 66.5l215 1010q5 32 6.5 53t-15 34t-46.5 20.5t-87 12.5l20 97h625l-21 -97q-80 -9 -116.5 -21t-51.5 -32.5t-25 -66.5z" />
    <glyph glyph-name="Iacute" unicode="&#xcd;" horiz-adv-x="735" 
d="M808 1860l248 -1v-10l-364 -285h-104zM558 217q-14 -66 9.5 -86.5t132.5 -33.5l-20 -97h-625l21 97q80 9 116.5 21t51.5 32.5t25 66.5l215 1010q5 32 6.5 53t-15 34t-46.5 20.5t-87 12.5l20 97h625l-21 -97q-80 -9 -116.5 -21t-51.5 -32.5t-25 -66.5z" />
    <glyph glyph-name="Icircumflex" unicode="&#xce;" horiz-adv-x="735" 
d="M529 1564h-109l251 296h175l127 -296h-102l-138 145zM558 217q-14 -66 9.5 -86.5t132.5 -33.5l-20 -97h-625l21 97q80 9 116.5 21t51.5 32.5t25 66.5l215 1010q5 32 6.5 53t-15 34t-46.5 20.5t-87 12.5l20 97h625l-21 -97q-80 -9 -116.5 -21t-51.5 -32.5t-25 -66.5z" />
    <glyph glyph-name="Idieresis" unicode="&#xcf;" horiz-adv-x="735" 
d="M550 1596q-48 0 -80 31.5t-32 78.5q0 52 35.5 88t86.5 36q48 0 80 -32t32 -79q0 -51 -36 -87t-86 -36zM896 1596q-48 0 -80 31.5t-32 78.5q0 52 35.5 88t86.5 36q48 0 80 -32t32 -79q0 -51 -36 -87t-86 -36zM558 217q-14 -66 9.5 -86.5t132.5 -33.5l-20 -97h-625l21 97
q80 9 116.5 21t51.5 32.5t25 66.5l215 1010q5 32 6.5 53t-15 34t-46.5 20.5t-87 12.5l20 97h625l-21 -97q-80 -9 -116.5 -21t-51.5 -32.5t-25 -66.5z" />
    <glyph glyph-name="Dbar" unicode="&#x110;" horiz-adv-x="1559" 
d="M201 685l24 110h167l93 432q14 66 -10.5 86.5t-132.5 33.5l20 97h516q342 0 541 -166t199 -451q0 -180 -74.5 -334t-206 -262t-317.5 -169.5t-403 -61.5h-562l21 97q80 9 116 21t51.5 32.5t25.5 66.5l100 468h-168zM1297 855q0 204 -110.5 332.5t-319.5 140.5l-72 4
l-114 -537h251l-23 -110h-251l-122 -573l94 4q296 13 481.5 214.5t185.5 524.5z" />
    <glyph glyph-name="Dbar" unicode="&#xd0;" horiz-adv-x="1559" 
d="M201 685l24 110h167l93 432q14 66 -10.5 86.5t-132.5 33.5l20 97h516q342 0 541 -166t199 -451q0 -180 -74.5 -334t-206 -262t-317.5 -169.5t-403 -61.5h-562l21 97q80 9 116 21t51.5 32.5t25.5 66.5l100 468h-168zM1297 855q0 204 -110.5 332.5t-319.5 140.5l-72 4
l-114 -537h251l-23 -110h-251l-122 -573l94 4q296 13 481.5 214.5t185.5 524.5z" />
    <glyph glyph-name="Ntilde" unicode="&#xd1;" horiz-adv-x="1540" 
d="M1198 1596q-67 0 -130 52l-25 23q-36 31 -63 31q-25 0 -41 -24.5t-26 -90.5h-94q16 143 61.5 202.5t115.5 59.5q69 0 130 -52l26 -22q34 -32 62 -32q25 0 41.5 24.5t25.5 90.5h95q-16 -143 -61.5 -202.5t-116.5 -59.5zM779 1444l499 -1144l180 914q5 26 6.5 42t-1.5 31
t-11.5 23t-27 15.5t-43 12t-63.5 9.5l21 97h462l-20 -97q-101 -13 -132 -36.5t-47 -96.5l-268 -1214h-264l-499 1145l-181 -915q-15 -73 8 -95.5t132 -37.5l-20 -97h-463l21 97q100 13 131.5 37t47.5 96l213 970q14 51 9 81.5t-34.5 44.5t-100.5 21l20 97h425z" />
    <glyph glyph-name="Ograve" unicode="&#xd2;" horiz-adv-x="1612" 
d="M1046 1860l110 -295h-90l-248 285v10h228zM903 -27q-156 0 -283 53.5t-208.5 145.5t-125 213t-42.5 258q1 128 35 250t101 226.5t158.5 183t215 123.5t262.5 45q156 0 282.5 -53.5t208 -145.5t125 -212.5t43.5 -258.5q0 -161 -54.5 -310t-152 -264.5t-244.5 -184.5
t-321 -69zM885 105q105 0 196 65t152.5 172.5t96.5 245.5t35 284q0 229 -89 348t-242 119q-141 0 -252.5 -111.5t-169.5 -285t-58 -370.5q0 -229 89 -348t242 -119z" />
    <glyph glyph-name="Oacute" unicode="&#xd3;" horiz-adv-x="1612" 
d="M1193 1860l248 -1v-10l-363 -285h-104zM903 -27q-156 0 -283 53.5t-208.5 145.5t-125 213t-42.5 258q1 128 35 250t101 226.5t158.5 183t215 123.5t262.5 45q156 0 282.5 -53.5t208 -145.5t125 -212.5t43.5 -258.5q0 -161 -54.5 -310t-152 -264.5t-244.5 -184.5t-321 -69
zM885 105q105 0 196 65t152.5 172.5t96.5 245.5t35 284q0 229 -89 348t-242 119q-141 0 -252.5 -111.5t-169.5 -285t-58 -370.5q0 -229 89 -348t242 -119z" />
    <glyph glyph-name="Ocircumflex" unicode="&#xd4;" horiz-adv-x="1612" 
d="M914 1564h-109l251 296h176l126 -296h-102l-138 145zM903 -27q-156 0 -283 53.5t-208.5 145.5t-125 213t-42.5 258q1 128 35 250t101 226.5t158.5 183t215 123.5t262.5 45q156 0 282.5 -53.5t208 -145.5t125 -212.5t43.5 -258.5q0 -161 -54.5 -310t-152 -264.5
t-244.5 -184.5t-321 -69zM885 105q105 0 196 65t152.5 172.5t96.5 245.5t35 284q0 229 -89 348t-242 119q-141 0 -252.5 -111.5t-169.5 -285t-58 -370.5q0 -229 89 -348t242 -119z" />
    <glyph glyph-name="Otilde" unicode="&#xd5;" horiz-adv-x="1612" 
d="M1216 1596q-67 0 -130 52l-25 23q-34 31 -63 31q-25 0 -41 -25t-25 -90h-95q16 143 62 202.5t116 59.5q67 0 130 -52l25 -22q34 -32 63 -32q25 0 41.5 25t25.5 90h95q-17 -143 -62.5 -202.5t-116.5 -59.5zM903 -27q-156 0 -283 53.5t-208.5 145.5t-125 213t-42.5 258
q1 128 35 250t101 226.5t158.5 183t215 123.5t262.5 45q156 0 282.5 -53.5t208 -145.5t125 -212.5t43.5 -258.5q0 -161 -54.5 -310t-152 -264.5t-244.5 -184.5t-321 -69zM885 105q105 0 196 65t152.5 172.5t96.5 245.5t35 284q0 229 -89 348t-242 119q-141 0 -252.5 -111.5
t-169.5 -285t-58 -370.5q0 -229 89 -348t242 -119z" />
    <glyph glyph-name="Odieresis" unicode="&#xd6;" horiz-adv-x="1612" 
d="M936 1596q-49 0 -81 31.5t-32 78.5q1 52 37 88t86 36q49 0 80.5 -32t30.5 -79q0 -51 -35.5 -87t-85.5 -36zM1282 1596q-49 0 -81 31.5t-32 78.5q1 52 37 88t86 36q49 0 80.5 -32t30.5 -79q0 -51 -35.5 -87t-85.5 -36zM903 -27q-156 0 -283 53.5t-208.5 145.5t-125 213
t-42.5 258q1 128 35 250t101 226.5t158.5 183t215 123.5t262.5 45q156 0 282.5 -53.5t208 -145.5t125 -212.5t43.5 -258.5q0 -161 -54.5 -310t-152 -264.5t-244.5 -184.5t-321 -69zM885 105q105 0 196 65t152.5 172.5t96.5 245.5t35 284q0 229 -89 348t-242 119
q-141 0 -252.5 -111.5t-169.5 -285t-58 -370.5q0 -229 89 -348t242 -119z" />
    <glyph glyph-name="multiply" unicode="&#xd7;" horiz-adv-x="1225" 
d="M1142 237l-149 -118l-271 345l-431 -355l-114 139l433 357l-274 347l150 117l271 -343l431 355l114 -139l-434 -358z" />
    <glyph glyph-name="Oslash" unicode="&#xd8;" horiz-adv-x="1612" 
d="M903 -27q-279 0 -457 165l-164 -161l-80 82l168 165q-128 175 -126 419q0 107 25 210t70 195t113 170t152 134.5t189.5 88t222.5 31.5q280 0 457 -166l163 161l80 -82l-168 -165q127 -174 127 -418q0 -161 -54.5 -310t-152 -264.5t-244.5 -185t-321 -69.5zM554 573
q0 -90 13 -156l748 735q-84 187 -282 187q-140 0 -251.5 -111t-169.5 -284.5t-58 -370.5zM886 105q138 0 249.5 111t170.5 285.5t59 370.5q0 88 -13 156l-748 -735q84 -188 282 -188z" />
    <glyph glyph-name="Ugrave" unicode="&#xd9;" horiz-adv-x="1522" 
d="M1098 1860l110 -295h-90l-248 285v10h228zM795 -31q-124 0 -225 40.5t-169 120t-91 197.5t9 273l130 614q16 70 -5.5 93.5t-116.5 39.5l21 97h607l-19 -97q-115 -16 -149 -39.5t-49 -93.5l-130 -606q-35 -157 -4.5 -258t103.5 -148t183 -47q148 0 261 101t156 305
l135 653q7 30 7.5 47.5t-5 32.5t-24 23.5t-45 15.5t-73.5 14l21 97h461l-20 -97q-101 -16 -132 -39.5t-46 -93.5l-149 -672q-60 -276 -229 -424.5t-413 -148.5z" />
    <glyph glyph-name="Uacute" unicode="&#xda;" horiz-adv-x="1522" 
d="M1245 1860l248 -1v-10l-363 -285h-104zM795 -31q-124 0 -225 40.5t-169 120t-91 197.5t9 273l130 614q16 70 -5.5 93.5t-116.5 39.5l21 97h607l-19 -97q-115 -16 -149 -39.5t-49 -93.5l-130 -606q-35 -157 -4.5 -258t103.5 -148t183 -47q148 0 261 101t156 305l135 653
q7 30 7.5 47.5t-5 32.5t-24 23.5t-45 15.5t-73.5 14l21 97h461l-20 -97q-101 -16 -132 -39.5t-46 -93.5l-149 -672q-60 -276 -229 -424.5t-413 -148.5z" />
    <glyph glyph-name="Ucircumflex" unicode="&#xdb;" horiz-adv-x="1522" 
d="M966 1564h-109l252 296h175l127 -296h-103l-138 145zM795 -31q-124 0 -225 40.5t-169 120t-91 197.5t9 273l130 614q16 70 -5.5 93.5t-116.5 39.5l21 97h607l-19 -97q-115 -16 -149 -39.5t-49 -93.5l-130 -606q-35 -157 -4.5 -258t103.5 -148t183 -47q148 0 261 101
t156 305l135 653q7 30 7.5 47.5t-5 32.5t-24 23.5t-45 15.5t-73.5 14l21 97h461l-20 -97q-101 -16 -132 -39.5t-46 -93.5l-149 -672q-60 -276 -229 -424.5t-413 -148.5z" />
    <glyph glyph-name="Udieresis" unicode="&#xdc;" horiz-adv-x="1522" 
d="M988 1596q-49 0 -81 31.5t-31 78.5q0 52 35.5 88t86.5 36q48 0 80 -32t32 -79q-1 -51 -36.5 -87t-85.5 -36zM1334 1596q-49 0 -81 31.5t-31 78.5q0 52 35.5 88t86.5 36q48 0 80 -32t32 -79q-1 -51 -36.5 -87t-85.5 -36zM795 -31q-124 0 -225 40.5t-169 120t-91 197.5
t9 273l130 614q16 70 -5.5 93.5t-116.5 39.5l21 97h607l-19 -97q-115 -16 -149 -39.5t-49 -93.5l-130 -606q-35 -157 -4.5 -258t103.5 -148t183 -47q148 0 261 101t156 305l135 653q7 30 7.5 47.5t-5 32.5t-24 23.5t-45 15.5t-73.5 14l21 97h461l-20 -97
q-101 -16 -132 -39.5t-46 -93.5l-149 -672q-60 -276 -229 -424.5t-413 -148.5z" />
    <glyph glyph-name="Yacute" unicode="&#xdd;" horiz-adv-x="1356" 
d="M1161 1860l248 -1v-10l-363 -285h-104zM469 1162q-38 106 -72 139.5t-116 45.5l20 97h622l-20 -97q-114 -13 -136.5 -48.5t12.5 -135.5l141 -420l316 420q33 43 49 69.5t21.5 48t-7 33.5t-37.5 20t-70 13l21 97h456l-21 -97q-89 -12 -135.5 -44t-133.5 -141l-424 -536
l-87 -410q-6 -28 -5.5 -44t7 -29.5t27 -21.5t50.5 -13.5t82 -11.5l-21 -96h-660l20 96q89 9 129 21t56.5 32.5t26.5 66.5l85 405z" />
    <glyph glyph-name="Thorn" unicode="&#xde;" horiz-adv-x="1378" 
d="M276 216l215 1011q14 66 -10.5 86.5t-130.5 33.5l20 96h622l-20 -96q-79 -9 -114 -20t-52 -32.5t-26 -67.5l-20 -91h171q241 0 378 -96.5t137 -269.5q0 -107 -56 -193t-152 -140.5t-219.5 -83.5t-262.5 -29h-168l-23 -108q-13 -66 11.5 -87t129.5 -33l-20 -97h-622l20 97
q80 9 115.5 20.5t51 32t25.5 67.5zM1139 772q0 111 -77.5 178.5t-207.5 70.5l-117 3l-125 -588l117 3q113 3 196 33t128 79t65.5 104t20.5 117z" />
    <glyph glyph-name="germandbls" unicode="&#xdf;" horiz-adv-x="1330" 
d="M429 0h-273l218 1019q53 251 208 379t382 128q199 0 318.5 -79t119.5 -202q0 -50 -17.5 -91t-46.5 -68t-66 -51t-76 -40.5t-76 -35.5t-66 -37t-46.5 -45t-17.5 -59q0 -42 28 -78t96 -87l61 -48q95 -72 137 -140t42 -155q0 -149 -122.5 -242.5t-326.5 -93.5
q-96 0 -179 26.5t-134 66.5l58 264h86q-2 -237 185 -237q71 0 121 40t50 114q0 51 -29.5 93t-108.5 103l-61 48q-148 114 -148 239q0 52 22 95t57.5 73t78 57t85.5 53t78.5 54.5t57.5 68t22 87.5q0 86 -55 133t-149 47q-103 0 -177 -80t-104 -225z" />
    <glyph glyph-name="agrave" unicode="&#xe0;" horiz-adv-x="1191" 
d="M807 1556l110 -384h-111l-282 370v14h283zM188 352q0 138 40 264t110 219.5t171 149t216 55.5q91 0 153.5 -34t92.5 -88l102 99h146l-165 -773q-20 -93 50 -93q68 0 119 40l-21 -99q-41 -47 -116.5 -78t-151.5 -31q-86 0 -122 50.5t-19 144.5q0 7 7 42
q-52 -118 -137.5 -180.5t-194.5 -62.5q-120 0 -200 98.5t-80 276.5zM464 369q-1 -229 133 -229q74 0 136.5 73.5t90.5 207.5l88 410q-9 33 -48 56t-95 23q-73 0 -133 -51t-96.5 -131.5t-56 -174t-19.5 -184.5z" />
    <glyph glyph-name="aacute" unicode="&#xe1;" horiz-adv-x="1191" 
d="M931 1556h304v-14l-428 -370h-124zM188 352q0 138 40 264t110 219.5t171 149t216 55.5q91 0 153.5 -34t92.5 -88l102 99h146l-165 -773q-20 -93 50 -93q68 0 119 40l-21 -99q-41 -47 -116.5 -78t-151.5 -31q-86 0 -122 50.5t-19 144.5q0 7 7 42q-52 -118 -137.5 -180.5
t-194.5 -62.5q-120 0 -200 98.5t-80 276.5zM464 369q-1 -229 133 -229q74 0 136.5 73.5t90.5 207.5l88 410q-9 33 -48 56t-95 23q-73 0 -133 -51t-96.5 -131.5t-56 -174t-19.5 -184.5z" />
    <glyph glyph-name="acircumflex" unicode="&#xe2;" horiz-adv-x="1191" 
d="M615 1172h-123l292 384h195l129 -384h-114l-145 197zM188 352q0 138 40 264t110 219.5t171 149t216 55.5q91 0 153.5 -34t92.5 -88l102 99h146l-165 -773q-20 -93 50 -93q68 0 119 40l-21 -99q-41 -47 -116.5 -78t-151.5 -31q-86 0 -122 50.5t-19 144.5q0 7 7 42
q-52 -118 -137.5 -180.5t-194.5 -62.5q-120 0 -200 98.5t-80 276.5zM464 369q-1 -229 133 -229q74 0 136.5 73.5t90.5 207.5l88 410q-9 33 -48 56t-95 23q-73 0 -133 -51t-96.5 -131.5t-56 -174t-19.5 -184.5z" />
    <glyph glyph-name="atilde" unicode="&#xe3;" horiz-adv-x="1191" 
d="M963 1207q-79 0 -154 65l-32 29q-45 40 -79 40q-30 0 -49.5 -31t-31.5 -113h-108q20 175 74.5 248t137.5 73q80 0 154 -64l33 -30q44 -39 78 -39q31 0 50.5 30.5t31.5 112.5h108q-21 -175 -75 -248t-138 -73zM188 352q0 138 40 264t110 219.5t171 149t216 55.5
q91 0 153.5 -34t92.5 -88l102 99h146l-165 -773q-20 -93 50 -93q68 0 119 40l-21 -99q-41 -47 -116.5 -78t-151.5 -31q-86 0 -122 50.5t-19 144.5q0 7 7 42q-52 -118 -137.5 -180.5t-194.5 -62.5q-120 0 -200 98.5t-80 276.5zM464 369q-1 -229 133 -229q74 0 136.5 73.5
t90.5 207.5l88 410q-9 33 -48 56t-95 23q-73 0 -133 -51t-96.5 -131.5t-56 -174t-19.5 -184.5z" />
    <glyph glyph-name="adieresis" unicode="&#xe4;" horiz-adv-x="1191" 
d="M613 1225q-58 0 -95.5 37t-37.5 93q0 60 42.5 102t101.5 42q57 0 95 -37.5t38 -92.5q0 -60 -42 -102t-102 -42zM1059 1225q-58 0 -96 37t-38 93q0 60 42.5 102t102.5 42q57 0 95 -37.5t38 -92.5q0 -60 -42 -102t-102 -42zM188 352q0 138 40 264t110 219.5t171 149
t216 55.5q91 0 153.5 -34t92.5 -88l102 99h146l-165 -773q-20 -93 50 -93q68 0 119 40l-21 -99q-41 -47 -116.5 -78t-151.5 -31q-86 0 -122 50.5t-19 144.5q0 7 7 42q-52 -118 -137.5 -180.5t-194.5 -62.5q-120 0 -200 98.5t-80 276.5zM464 369q-1 -229 133 -229
q74 0 136.5 73.5t90.5 207.5l88 410q-9 33 -48 56t-95 23q-73 0 -133 -51t-96.5 -131.5t-56 -174t-19.5 -184.5z" />
    <glyph glyph-name="aring" unicode="&#xe5;" horiz-adv-x="1191" 
d="M565 1352q0 102 80 167.5t213 65.5q115 0 188 -57t73 -152q0 -101 -80.5 -167t-213.5 -66q-115 0 -187.5 57.5t-72.5 151.5zM739 1346q0 -47 24 -75t65 -28q47 0 82 39.5t35 99.5q0 48 -24 75.5t-65 27.5q-48 0 -82.5 -39t-34.5 -100zM188 352q0 138 40 264t110 219.5
t171 149t216 55.5q91 0 153.5 -34t92.5 -88l102 99h146l-165 -773q-20 -93 50 -93q68 0 119 40l-21 -99q-41 -47 -116.5 -78t-151.5 -31q-86 0 -122 50.5t-19 144.5q0 7 7 42q-52 -118 -137.5 -180.5t-194.5 -62.5q-120 0 -200 98.5t-80 276.5zM464 369q-1 -229 133 -229
q74 0 136.5 73.5t90.5 207.5l88 410q-9 33 -48 56t-95 23q-73 0 -133 -51t-96.5 -131.5t-56 -174t-19.5 -184.5z" />
    <glyph glyph-name="ae" unicode="&#xe6;" horiz-adv-x="1553" 
d="M265 791q0 106 110.5 177.5t274.5 71.5q234 0 332 -141q146 141 337 141q151 0 239 -66t88 -178q0 -61 -28.5 -112t-90 -94t-168.5 -70.5t-254 -35.5l-58 -4v-19q0 -153 68.5 -236.5t190.5 -83.5q134 0 235 85l-22 -101q-52 -67 -143.5 -107.5t-200.5 -40.5
q-134 0 -232 72.5t-136 208.5q-35 -127 -129.5 -204t-231.5 -77q-131 0 -214.5 69.5t-83.5 185.5q0 146 131 230.5t381 104.5l152 12l5 35q21 150 -33 223t-164 73q-68 0 -125 -22q41 -38 41 -95q0 -53 -40.5 -90.5t-97.5 -37.5q-55 0 -94 36t-39 90zM1303 917
q-93 0 -161 -92.5t-88 -244.5l43 3q166 15 243 75.5t77 146.5q0 53 -30.5 82.5t-83.5 29.5zM408 273q0 -65 39.5 -100.5t105.5 -35.5q96 0 157 76t84 246l3 19l-100 -10q-289 -26 -289 -195z" />
    <glyph glyph-name="ccedilla" unicode="&#xe7;" horiz-adv-x="967" 
d="M500 -491q-120 0 -202 59l21 92q60 -38 141 -39q53 1 82.5 21.5t29.5 55.5q0 39 -32 60t-93 21h-26l18 85l108 117q-69 10 -130.5 42t-110.5 85.5t-78 134.5t-29 180q0 170 72.5 311.5t200.5 223.5t283 82q141 1 224.5 -68.5t83.5 -176.5q0 -61 -42 -102t-105 -41
q-57 0 -96 38t-39 95q0 40 21.5 73t57.5 50q-31 12 -74 12q-131 0 -219.5 -130t-88.5 -327q0 -150 72 -235.5t191 -85.5q137 0 234 87l-22 -102q-45 -60 -120 -97.5t-163 -48.5l-80 -86q89 -11 140.5 -60.5t51.5 -125.5q0 -90 -75.5 -145t-206.5 -55z" />
    <glyph glyph-name="egrave" unicode="&#xe8;" horiz-adv-x="985" 
d="M759 1556l109 -384h-110l-282 370v14h283zM606 -23q-80 0 -152 28t-129.5 81.5t-91.5 140.5t-34 196q0 132 46.5 248.5t123.5 196.5t178.5 126t209.5 46q139 0 223 -62t84 -166q0 -131 -134.5 -221.5t-397.5 -166.5l-53 -15q12 -130 81 -198.5t175 -68.5q142 0 239 87
l-22 -102q-54 -71 -147.5 -110.5t-198.5 -39.5zM740 919q-103 0 -178 -112.5t-85 -294.5l41 13q323 100 323 278q0 116 -101 116z" />
    <glyph glyph-name="eacute" unicode="&#xe9;" horiz-adv-x="985" 
d="M882 1556h305v-14l-428 -370h-124zM606 -23q-80 0 -152 28t-129.5 81.5t-91.5 140.5t-34 196q0 132 46.5 248.5t123.5 196.5t178.5 126t209.5 46q139 0 223 -62t84 -166q0 -131 -134.5 -221.5t-397.5 -166.5l-53 -15q12 -130 81 -198.5t175 -68.5q142 0 239 87l-22 -102
q-54 -71 -147.5 -110.5t-198.5 -39.5zM740 919q-103 0 -178 -112.5t-85 -294.5l41 13q323 100 323 278q0 116 -101 116z" />
    <glyph glyph-name="ecircumflex" unicode="&#xea;" horiz-adv-x="985" 
d="M568 1172h-124l292 384h195l129 -384h-113l-146 197zM606 -23q-80 0 -152 28t-129.5 81.5t-91.5 140.5t-34 196q0 132 46.5 248.5t123.5 196.5t178.5 126t209.5 46q139 0 223 -62t84 -166q0 -131 -134.5 -221.5t-397.5 -166.5l-53 -15q12 -130 81 -198.5t175 -68.5
q142 0 239 87l-22 -102q-54 -71 -147.5 -110.5t-198.5 -39.5zM740 919q-103 0 -178 -112.5t-85 -294.5l41 13q323 100 323 278q0 116 -101 116z" />
    <glyph glyph-name="edieresis" unicode="&#xeb;" horiz-adv-x="985" 
d="M565 1225q-58 0 -96 37t-38 93q0 60 42.5 102t102.5 42q57 0 95 -37.5t38 -92.5q0 -60 -42 -102t-102 -42zM1010 1225q-58 0 -95.5 37t-37.5 93q0 60 42.5 102t101.5 42q57 0 95 -37.5t38 -92.5q0 -60 -42 -102t-102 -42zM606 -23q-80 0 -152 28t-129.5 81.5t-91.5 140.5
t-34 196q0 132 46.5 248.5t123.5 196.5t178.5 126t209.5 46q139 0 223 -62t84 -166q0 -131 -134.5 -221.5t-397.5 -166.5l-53 -15q12 -130 81 -198.5t175 -68.5q142 0 239 87l-22 -102q-54 -71 -147.5 -110.5t-198.5 -39.5zM740 919q-103 0 -178 -112.5t-85 -294.5l41 13
q323 100 323 278q0 116 -101 116z" />
    <glyph glyph-name="igrave" unicode="&#xec;" horiz-adv-x="625" 
d="M523 1556l110 -384h-111l-282 370v14h283zM651 1030l-167 -786q-19 -93 50 -93t119 40l-21 -99q-40 -47 -117 -78t-153 -31q-99 0 -137.5 59.5t-13.5 177.5l121 570q8 37 -2 53.5t-48 24.5l-86 15l21 93z" />
    <glyph glyph-name="iacute" unicode="&#xed;" horiz-adv-x="625" 
d="M647 1556h304v-14l-428 -370h-124zM651 1030l-167 -786q-19 -93 50 -93t119 40l-21 -99q-40 -47 -117 -78t-153 -31q-99 0 -137.5 59.5t-13.5 177.5l121 570q8 37 -2 53.5t-48 24.5l-86 15l21 93z" />
    <glyph glyph-name="icircumflex" unicode="&#xee;" horiz-adv-x="625" 
d="M351 1172h-111l270 384h176l108 -384h-102l-127 197zM651 1030l-167 -786q-19 -93 50 -93t119 40l-21 -99q-40 -47 -117 -78t-153 -31q-99 0 -137.5 59.5t-13.5 177.5l121 570q8 37 -2 53.5t-48 24.5l-86 15l21 93z" />
    <glyph glyph-name="idieresis" unicode="&#xef;" horiz-adv-x="625" 
d="M329 1225q-58 0 -95.5 37t-37.5 93q0 60 42.5 102t101.5 42q57 0 95 -37.5t38 -92.5q0 -60 -42 -102t-102 -42zM775 1225q-58 0 -96 37t-38 93q0 60 42.5 102t102.5 42q57 0 95 -37.5t38 -92.5q0 -60 -42 -102t-102 -42zM651 1030l-167 -786q-19 -93 50 -93t119 40
l-21 -99q-40 -47 -117 -78t-153 -31q-99 0 -137.5 59.5t-13.5 177.5l121 570q8 37 -2 53.5t-48 24.5l-86 15l21 93z" />
    <glyph glyph-name="eth" unicode="&#xf0;" horiz-adv-x="1165" 
d="M611 -23q-190 0 -302.5 115.5t-112.5 313.5q0 162 63.5 297t177.5 214.5t254 79.5q98 0 163.5 -53t92.5 -145q1 239 -171 433l-257 -152l-53 92l233 137q-76 69 -177 133l64 84q133 -66 238 -143l242 143l53 -92l-207 -122q294 -260 294 -642q0 -130 -33.5 -243.5
t-91 -194.5t-133.5 -139.5t-162 -87t-175 -28.5zM629 100q119 0 202 141t85 353q2 128 -39 202t-126 74q-78 0 -141 -79t-96 -194.5t-34 -237.5q0 -125 38.5 -192t110.5 -67z" />
    <glyph glyph-name="ntilde" unicode="&#xf1;" horiz-adv-x="1247" 
d="M1016 1207q-80 0 -155 65l-32 29q-45 40 -78 40q-31 0 -50.5 -31t-31.5 -113h-108q21 175 75 248t137 73q80 0 155 -64l32 -30q44 -39 78 -39q31 0 50.5 30.5t31.5 112.5h108q-21 -175 -74.5 -248t-137.5 -73zM659 1030l-54 -251q127 261 358 261q154 0 216.5 -97.5
t26.5 -266.5l-93 -432q-20 -93 50 -93q69 0 120 40l-22 -99q-40 -47 -117 -78t-153 -31q-199 0 -151 237l97 461q20 94 -9.5 145.5t-95.5 51.5q-79 0 -154 -84.5t-102 -213.5l-122 -580h-268l168 790q8 37 -2.5 53.5t-48.5 24.5l-85 15l20 93z" />
    <glyph glyph-name="ograve" unicode="&#xf2;" horiz-adv-x="1174" 
d="M790 1556l110 -384h-111l-282 370v14h283zM626 -23q-201 0 -312.5 125t-111.5 326q0 164 70 303t200 224t292 85q201 0 312.5 -125.5t111.5 -325.5q0 -164 -70 -303t-200 -224t-292 -85zM635 102q68 0 123 53.5t87.5 138t50 180.5t17.5 189q0 123 -42.5 187.5
t-116.5 64.5q-68 0 -123 -53.5t-87.5 -138t-50 -180.5t-17.5 -189q0 -123 42.5 -187.5t116.5 -64.5z" />
    <glyph glyph-name="oacute" unicode="&#xf3;" horiz-adv-x="1174" 
d="M914 1556h304v-14l-428 -370h-124zM626 -23q-201 0 -312.5 125t-111.5 326q0 164 70 303t200 224t292 85q201 0 312.5 -125.5t111.5 -325.5q0 -164 -70 -303t-200 -224t-292 -85zM635 102q68 0 123 53.5t87.5 138t50 180.5t17.5 189q0 123 -42.5 187.5t-116.5 64.5
q-68 0 -123 -53.5t-87.5 -138t-50 -180.5t-17.5 -189q0 -123 42.5 -187.5t116.5 -64.5z" />
    <glyph glyph-name="ocircumflex" unicode="&#xf4;" horiz-adv-x="1174" 
d="M599 1172h-123l292 384h195l129 -384h-114l-145 197zM626 -23q-201 0 -312.5 125t-111.5 326q0 164 70 303t200 224t292 85q201 0 312.5 -125.5t111.5 -325.5q0 -164 -70 -303t-200 -224t-292 -85zM635 102q68 0 123 53.5t87.5 138t50 180.5t17.5 189q0 123 -42.5 187.5
t-116.5 64.5q-68 0 -123 -53.5t-87.5 -138t-50 -180.5t-17.5 -189q0 -123 42.5 -187.5t116.5 -64.5z" />
    <glyph glyph-name="otilde" unicode="&#xf5;" horiz-adv-x="1174" 
d="M947 1207q-80 0 -155 65l-32 29q-45 40 -78 40q-31 0 -50.5 -31t-31.5 -113h-108q21 175 75 248t137 73q80 0 154 -64l33 -30q44 -39 78 -39q31 0 50.5 30.5t31.5 112.5h108q-21 -175 -74.5 -248t-137.5 -73zM626 -23q-201 0 -312.5 125t-111.5 326q0 164 70 303t200 224
t292 85q201 0 312.5 -125.5t111.5 -325.5q0 -164 -70 -303t-200 -224t-292 -85zM635 102q68 0 123 53.5t87.5 138t50 180.5t17.5 189q0 123 -42.5 187.5t-116.5 64.5q-68 0 -123 -53.5t-87.5 -138t-50 -180.5t-17.5 -189q0 -123 42.5 -187.5t116.5 -64.5z" />
    <glyph glyph-name="odieresis" unicode="&#xf6;" horiz-adv-x="1174" 
d="M596 1225q-58 0 -95.5 37t-37.5 93q0 60 42.5 102t101.5 42q57 0 95 -37.5t38 -92.5q0 -60 -42 -102t-102 -42zM1042 1225q-58 0 -95.5 37t-37.5 93q0 60 42 102t102 42q57 0 95 -37.5t38 -92.5q0 -60 -42 -102t-102 -42zM626 -23q-201 0 -312.5 125t-111.5 326
q0 164 70 303t200 224t292 85q201 0 312.5 -125.5t111.5 -325.5q0 -164 -70 -303t-200 -224t-292 -85zM635 102q68 0 123 53.5t87.5 138t50 180.5t17.5 189q0 123 -42.5 187.5t-116.5 64.5q-68 0 -123 -53.5t-87.5 -138t-50 -180.5t-17.5 -189q0 -123 42.5 -187.5
t116.5 -64.5z" />
    <glyph glyph-name="divide" unicode="&#xf7;" horiz-adv-x="1225" 
d="M819 831q-61 0 -102.5 40t-41.5 97q0 62 42 103.5t103 41.5t102.5 -40t41.5 -97q0 -62 -42 -103.5t-103 -41.5zM229 502l40 185h980l-39 -185h-981zM659 76q-61 0 -103 40t-42 97q0 62 42 103.5t103 41.5q62 0 103.5 -40t41.5 -97q0 -62 -42 -103.5t-103 -41.5z" />
    <glyph glyph-name="oslash" unicode="&#xf8;" horiz-adv-x="1167" 
d="M623 -23q-175 0 -285 99l-102 -102l-77 78l110 109q-67 109 -67 266q0 121 40.5 232.5t112.5 195t177 133.5t227 50q178 0 288 -102l107 108l77 -78l-116 -115q65 -110 65 -262q0 -122 -40.5 -233t-112.5 -195t-177 -134t-227 -50zM751 916q-69 0 -125 -53t-89 -137
t-50.5 -178.5t-17.5 -186.5l428 426q-36 129 -146 129zM631 99q68 0 123 51.5t88 134t51 176t19 187.5l-426 -425q37 -124 145 -124z" />
    <glyph glyph-name="ugrave" unicode="&#xf9;" horiz-adv-x="1233" 
d="M829 1556l109 -384h-110l-282 370v14h283zM648 1031l-146 -697q-20 -92 11.5 -140.5t99.5 -48.5q87 0 154 73.5t93 194.5l81 377q8 37 -2 53t-47 25l-81 15l19 87l431 61l-169 -787q-19 -93 50 -93t121 40l-22 -99q-39 -47 -115.5 -78t-149.5 -31q-86 0 -123.5 50.5
t-21.5 144.5q0 2 8 42q-61 -118 -152 -180.5t-200 -62.5q-152 0 -219.5 101t-32.5 267l94 445q8 37 -2 54t-47 24l-86 15l20 93z" />
    <glyph glyph-name="uacute" unicode="&#xfa;" horiz-adv-x="1233" 
d="M953 1556h304v-14l-428 -370h-124zM648 1031l-146 -697q-20 -92 11.5 -140.5t99.5 -48.5q87 0 154 73.5t93 194.5l81 377q8 37 -2 53t-47 25l-81 15l19 87l431 61l-169 -787q-19 -93 50 -93t121 40l-22 -99q-39 -47 -115.5 -78t-149.5 -31q-86 0 -123.5 50.5t-21.5 144.5
q0 2 8 42q-61 -118 -152 -180.5t-200 -62.5q-152 0 -219.5 101t-32.5 267l94 445q8 37 -2 54t-47 24l-86 15l20 93z" />
    <glyph glyph-name="ucircumflex" unicode="&#xfb;" horiz-adv-x="1233" 
d="M638 1172h-123l291 384h195l130 -384h-114l-146 197zM648 1031l-146 -697q-20 -92 11.5 -140.5t99.5 -48.5q87 0 154 73.5t93 194.5l81 377q8 37 -2 53t-47 25l-81 15l19 87l431 61l-169 -787q-19 -93 50 -93t121 40l-22 -99q-39 -47 -115.5 -78t-149.5 -31
q-86 0 -123.5 50.5t-21.5 144.5q0 2 8 42q-61 -118 -152 -180.5t-200 -62.5q-152 0 -219.5 101t-32.5 267l94 445q8 37 -2 54t-47 24l-86 15l20 93z" />
    <glyph glyph-name="udieresis" unicode="&#xfc;" horiz-adv-x="1233" 
d="M635 1225q-58 0 -95.5 37t-37.5 93q0 60 42 102t102 42q57 0 95 -37.5t38 -92.5q0 -60 -42 -102t-102 -42zM1081 1225q-58 0 -96 37t-38 93q0 60 42.5 102t102.5 42q57 0 94.5 -37.5t37.5 -92.5q0 -60 -41.5 -102t-101.5 -42zM648 1031l-146 -697q-20 -92 11.5 -140.5
t99.5 -48.5q87 0 154 73.5t93 194.5l81 377q8 37 -2 53t-47 25l-81 15l19 87l431 61l-169 -787q-19 -93 50 -93t121 40l-22 -99q-39 -47 -115.5 -78t-149.5 -31q-86 0 -123.5 50.5t-21.5 144.5q0 2 8 42q-61 -118 -152 -180.5t-200 -62.5q-152 0 -219.5 101t-32.5 267
l94 445q8 37 -2 54t-47 24l-86 15l20 93z" />
    <glyph glyph-name="yacute" unicode="&#xfd;" horiz-adv-x="1034" 
d="M884 1556h304v-14l-428 -370h-124zM564 1031l29 -875q289 355 363 597q-60 1 -102 42.5t-42 99.5q0 62 44.5 103.5t110.5 41.5q69 0 112.5 -44t43.5 -115q0 -107 -117.5 -313.5t-349.5 -497.5q-104 -127 -175 -208q-155 -183 -281 -322h-293v24q109 75 236.5 177
t214.5 184l-51 871q-2 35 -17.5 50.5t-56.5 23.5l-77 13l19 95z" />
    <glyph glyph-name="thorn" unicode="&#xfe;" horiz-adv-x="1186" 
d="M1213 666q0 -138 -40 -264t-110 -220t-171 -149.5t-216 -55.5q-141 0 -216 82l-68 -326q-10 -44 20 -60t158 -35l-21 -98h-616l20 98q100 17 129.5 34t39.5 61l325 1530q7 31 -2.5 46.5t-40.5 21.5l-95 18l22 95l438 56l-157 -679q53 107 135.5 163t185.5 56
q120 0 200 -98t80 -276zM937 648q1 229 -133 229q-73 0 -135.5 -73.5t-91.5 -207.5l-88 -410q9 -33 48 -56t95 -23q73 0 133 51t96.5 131.5t56 174t19.5 184.5z" />
    <glyph glyph-name="ydieresis" unicode="&#xff;" horiz-adv-x="1034" 
d="M566 1225q-58 0 -95.5 37t-37.5 93q0 60 42.5 102t101.5 42q57 0 95 -37.5t38 -92.5q0 -60 -42 -102t-102 -42zM1012 1225q-58 0 -95.5 37t-37.5 93q0 60 42 102t102 42q57 0 95 -37.5t38 -92.5q0 -60 -42 -102t-102 -42zM564 1031l29 -875q289 355 363 597
q-60 1 -102 42.5t-42 99.5q0 62 44.5 103.5t110.5 41.5q69 0 112.5 -44t43.5 -115q0 -107 -117.5 -313.5t-349.5 -497.5q-104 -127 -175 -208q-155 -183 -281 -322h-293v24q109 75 236.5 177t214.5 184l-51 871q-2 35 -17.5 50.5t-56.5 23.5l-77 13l19 95z" />
    <glyph glyph-name="Amacron" unicode="&#x100;" horiz-adv-x="1425" 
d="M764 1629l31 147h546l-31 -147h-546zM1290 292q15 -115 43 -149t117 -46l-20 -97h-627l21 97q118 16 147 50.5t17 146.5l-21 183h-464l-98 -183q-25 -47 -36.5 -76t-13 -51t14.5 -34.5t41.5 -20.5t72.5 -15l-20 -97h-470l21 97q96 12 137.5 46t108.5 154l640 1147h239z
M566 596h388l-67 600z" />
    <glyph glyph-name="amacron" unicode="&#x101;" horiz-adv-x="1191" 
d="M517 1266l34 161h607l-34 -161h-607zM188 352q0 138 40 264t110 219.5t171 149t216 55.5q91 0 153.5 -34t92.5 -88l102 99h146l-165 -773q-20 -93 50 -93q68 0 119 40l-21 -99q-41 -47 -116.5 -78t-151.5 -31q-86 0 -122 50.5t-19 144.5q0 7 7 42q-52 -118 -137.5 -180.5
t-194.5 -62.5q-120 0 -200 98.5t-80 276.5zM464 369q-1 -229 133 -229q74 0 136.5 73.5t90.5 207.5l88 410q-9 33 -48 56t-95 23q-73 0 -133 -51t-96.5 -131.5t-56 -174t-19.5 -184.5z" />
    <glyph glyph-name="Abreve" unicode="&#x102;" horiz-adv-x="1425" 
d="M1066 1583q-113 0 -187 63.5t-75 162.5q0 47 17 89h95q-3 -9 -3 -26q0 -53 44.5 -89.5t114.5 -36.5q80 0 130 39.5t64 112.5h95q-4 -147 -83 -231t-212 -84zM1290 292q15 -115 43 -149t117 -46l-20 -97h-627l21 97q118 16 147 50.5t17 146.5l-21 183h-464l-98 -183
q-25 -47 -36.5 -76t-13 -51t14.5 -34.5t41.5 -20.5t72.5 -15l-20 -97h-470l21 97q96 12 137.5 46t108.5 154l640 1147h239zM566 596h388l-67 600z" />
    <glyph glyph-name="abreve" unicode="&#x103;" horiz-adv-x="1191" 
d="M848 1180q-125 0 -205.5 74t-80.5 188q0 54 19 104h104q-3 -12 -3 -30q0 -62 49.5 -104t126.5 -42q90 0 146 46t70 130h104q-7 -172 -95 -269t-235 -97zM188 352q0 138 40 264t110 219.5t171 149t216 55.5q91 0 153.5 -34t92.5 -88l102 99h146l-165 -773q-20 -93 50 -93
q68 0 119 40l-21 -99q-41 -47 -116.5 -78t-151.5 -31q-86 0 -122 50.5t-19 144.5q0 7 7 42q-52 -118 -137.5 -180.5t-194.5 -62.5q-120 0 -200 98.5t-80 276.5zM464 369q-1 -229 133 -229q74 0 136.5 73.5t90.5 207.5l88 410q-9 33 -48 56t-95 23q-73 0 -133 -51
t-96.5 -131.5t-56 -174t-19.5 -184.5z" />
    <glyph glyph-name="Aogonek" unicode="&#x104;" horiz-adv-x="1425" 
d="M1072 -486q-98 0 -159.5 50.5t-61.5 129.5q0 83 61 162t170 144h-279l21 97q118 16 147 50.5t17 146.5l-21 183h-464l-98 -183q-25 -47 -36.5 -76t-13 -51t14.5 -34.5t41.5 -20.5t72.5 -15l-20 -97h-470l21 97q96 12 137.5 46t108.5 154l640 1147h239l150 -1152
q15 -115 43 -149t117 -46l-20 -97h-239q-99 -96 -99 -214q0 -63 28 -101.5t74 -38.5t81 27l-20 -95q-68 -64 -183 -64zM566 596h388l-67 600z" />
    <glyph glyph-name="aogonek" unicode="&#x105;" horiz-adv-x="1191" 
d="M188 352q0 138 40 264t110 219.5t171 149t216 55.5q91 0 153.5 -34t92.5 -88l102 99h146l-165 -773q-20 -93 50 -93q68 0 119 40l-21 -99l-3 -3q-133 -107 -196.5 -189.5t-63.5 -154.5q0 -47 23.5 -73t60.5 -26q53 0 88 27l-20 -95q-26 -27 -77.5 -45.5t-111.5 -18.5
q-88 0 -142 46t-54 122t61 149.5t194 152.5q-9 -1 -27 -1q-86 0 -122 50.5t-19 144.5q0 7 7 42q-52 -118 -137.5 -180.5t-194.5 -62.5q-120 0 -200 98.5t-80 276.5zM464 369q-1 -229 133 -229q74 0 136.5 73.5t90.5 207.5l88 410q-9 33 -48 56t-95 23q-73 0 -133 -51
t-96.5 -131.5t-56 -174t-19.5 -184.5z" />
    <glyph glyph-name="Cacute" unicode="&#x106;" horiz-adv-x="1432" 
d="M1259 1860l248 -1v-10l-363 -285h-104zM563 601q0 -225 106.5 -362t283.5 -137q255 0 388 313h88l-72 -329q-66 -52 -185 -84.5t-253 -32.5q-144 0 -267.5 46.5t-214 132t-141.5 215.5t-50 288q1 176 60.5 328.5t165 262t257 171.5t328.5 62q161 0 301.5 -45.5
t217.5 -110.5l-57 -320l-86 5q-6 166 -88.5 252t-238.5 86q-148 0 -272 -96t-197.5 -267t-73.5 -378z" />
    <glyph glyph-name="cacute" unicode="&#x107;" horiz-adv-x="967" 
d="M900 1556h304v-14l-428 -370h-124zM606 -23q-77 0 -148.5 28t-130 81t-93.5 140.5t-35 196.5q0 170 72.5 311.5t200.5 223.5t283 82q141 1 224.5 -68.5t83.5 -176.5q0 -61 -42 -102t-105 -41q-57 0 -96 38t-39 95q0 40 21.5 73t57.5 50q-31 12 -74 12q-131 0 -219.5 -130
t-88.5 -327q0 -150 72 -235.5t191 -85.5q137 0 234 87l-22 -102q-53 -71 -147 -110.5t-200 -39.5z" />
    <glyph glyph-name="Ccircumflex" unicode="&#x108;" horiz-adv-x="1432" 
d="M980 1564h-109l251 296h176l126 -296h-102l-138 145zM563 601q0 -225 106.5 -362t283.5 -137q255 0 388 313h88l-72 -329q-66 -52 -185 -84.5t-253 -32.5q-144 0 -267.5 46.5t-214 132t-141.5 215.5t-50 288q1 176 60.5 328.5t165 262t257 171.5t328.5 62
q161 0 301.5 -45.5t217.5 -110.5l-57 -320l-86 5q-6 166 -88.5 252t-238.5 86q-148 0 -272 -96t-197.5 -267t-73.5 -378z" />
    <glyph glyph-name="ccircumflex" unicode="&#x109;" horiz-adv-x="967" 
d="M584 1172h-123l292 384h195l129 -384h-114l-145 197zM606 -23q-77 0 -148.5 28t-130 81t-93.5 140.5t-35 196.5q0 170 72.5 311.5t200.5 223.5t283 82q141 1 224.5 -68.5t83.5 -176.5q0 -61 -42 -102t-105 -41q-57 0 -96 38t-39 95q0 40 21.5 73t57.5 50q-31 12 -74 12
q-131 0 -219.5 -130t-88.5 -327q0 -150 72 -235.5t191 -85.5q137 0 234 87l-22 -102q-53 -71 -147 -110.5t-200 -39.5z" />
    <glyph glyph-name="Cdotaccent" unicode="&#x10a;" horiz-adv-x="1432" 
d="M1175 1588q-52 0 -87 33.5t-35 82.5q0 55 38.5 93t92.5 38q52 0 86.5 -33.5t34.5 -83.5q0 -54 -38.5 -92t-91.5 -38zM563 601q0 -225 106.5 -362t283.5 -137q255 0 388 313h88l-72 -329q-66 -52 -185 -84.5t-253 -32.5q-144 0 -267.5 46.5t-214 132t-141.5 215.5t-50 288
q1 176 60.5 328.5t165 262t257 171.5t328.5 62q161 0 301.5 -45.5t217.5 -110.5l-57 -320l-86 5q-6 166 -88.5 252t-238.5 86q-148 0 -272 -96t-197.5 -267t-73.5 -378z" />
    <glyph glyph-name="cdotaccent" unicode="&#x10b;" horiz-adv-x="967" 
d="M805 1216q-61 0 -101.5 39.5t-40.5 98.5q0 64 45 109t109 45q61 0 101 -40t40 -99q0 -64 -44.5 -108.5t-108.5 -44.5zM606 -23q-77 0 -148.5 28t-130 81t-93.5 140.5t-35 196.5q0 170 72.5 311.5t200.5 223.5t283 82q141 1 224.5 -68.5t83.5 -176.5q0 -61 -42 -102
t-105 -41q-57 0 -96 38t-39 95q0 40 21.5 73t57.5 50q-31 12 -74 12q-131 0 -219.5 -130t-88.5 -327q0 -150 72 -235.5t191 -85.5q137 0 234 87l-22 -102q-53 -71 -147 -110.5t-200 -39.5z" />
    <glyph glyph-name="Ccaron" unicode="&#x10c;" horiz-adv-x="1432" 
d="M1389 1881h114l-252 -297h-187l-127 297h107l140 -145zM563 601q0 -225 106.5 -362t283.5 -137q255 0 388 313h88l-72 -329q-66 -52 -185 -84.5t-253 -32.5q-144 0 -267.5 46.5t-214 132t-141.5 215.5t-50 288q1 176 60.5 328.5t165 262t257 171.5t328.5 62
q161 0 301.5 -45.5t217.5 -110.5l-57 -320l-86 5q-6 166 -88.5 252t-238.5 86q-148 0 -272 -96t-197.5 -267t-73.5 -378z" />
    <glyph glyph-name="ccaron" unicode="&#x10d;" horiz-adv-x="967" 
d="M1037 1556h122l-291 -384h-194l-130 384h114l145 -197zM606 -23q-77 0 -148.5 28t-130 81t-93.5 140.5t-35 196.5q0 170 72.5 311.5t200.5 223.5t283 82q141 1 224.5 -68.5t83.5 -176.5q0 -61 -42 -102t-105 -41q-57 0 -96 38t-39 95q0 40 21.5 73t57.5 50q-31 12 -74 12
q-131 0 -219.5 -130t-88.5 -327q0 -150 72 -235.5t191 -85.5q137 0 234 87l-22 -102q-53 -71 -147 -110.5t-200 -39.5z" />
    <glyph glyph-name="Dcaron" unicode="&#x10e;" horiz-adv-x="1559" 
d="M1204 1881h114l-252 -297h-187l-127 297h107l140 -145zM1618 827q0 -180 -74.5 -334t-206.5 -262t-318 -169.5t-402 -61.5h-562l21 97q80 9 116 21t51.5 32.5t25.5 66.5l216 1010q14 66 -10.5 86.5t-132.5 33.5l20 97h516q342 0 541 -166t199 -451zM1297 855
q0 204 -110.5 332.5t-319.5 140.5l-72 4l-259 -1220l94 4q296 13 481.5 214.5t185.5 524.5z" />
    <glyph glyph-name="dcaron" unicode="&#x10f;" horiz-adv-x="1195" 
d="M1475 1118h-98l136 438h221zM188 352q0 138 40 264t110 219.5t171 149t216 55.5q141 0 214 -78l63 296q8 37 -2 53.5t-48 24.5l-86 15l21 93l435 55l-267 -1255q-20 -93 50 -93q69 0 119 40l-21 -99q-40 -47 -116.5 -78t-151.5 -31q-86 0 -122.5 50.5t-19.5 144.5
q0 7 7 42q-52 -118 -137.5 -180.5t-194.5 -62.5q-120 0 -200 98.5t-80 276.5zM464 369q-1 -229 133 -229q74 0 136.5 73.5t90.5 207.5l88 410q-9 33 -48 56t-95 23q-73 0 -133 -51t-96.5 -131.5t-56 -174t-19.5 -184.5z" />
    <glyph glyph-name="dbar" unicode="&#x111;" horiz-adv-x="1195" 
d="M188 352q0 138 40 264t110 219.5t171 149t216 55.5q141 0 214 -78l51 235h-264l23 109h264l29 138l273 22l-34 -160h161l-24 -109h-160l-203 -953q-20 -93 50 -93q69 0 119 40l-21 -99q-40 -47 -116.5 -78t-151.5 -31q-86 0 -122.5 50.5t-19.5 144.5q0 7 7 42
q-52 -118 -137.5 -180.5t-194.5 -62.5q-120 0 -200 98.5t-80 276.5zM464 369q-1 -229 133 -229q74 0 136.5 73.5t90.5 207.5l88 410q-9 33 -48 56t-95 23q-73 0 -133 -51t-96.5 -131.5t-56 -174t-19.5 -184.5z" />
    <glyph glyph-name="Emacron" unicode="&#x112;" horiz-adv-x="1277" 
d="M693 1629l32 147h546l-31 -147h-547zM1457 1444l-71 -380h-86q-2 83 -14 130.5t-45 77t-81.5 39.5t-135.5 13l-229 8l-114 -538h226q51 0 81.5 36t81.5 163h81l-108 -510h-82q4 87 -2.5 129t-23 56.5t-52.5 14.5h-226l-121 -571l236 8q72 3 115.5 7t87.5 16.5t70.5 30.5
t55.5 52.5t52 79.5t51 114h87l-102 -420h-1134l21 97q80 9 116 21t51.5 32.5t25.5 66.5l216 1010q14 66 -10 86.5t-133 33.5l20 97h1095z" />
    <glyph glyph-name="emacron" unicode="&#x113;" horiz-adv-x="985" 
d="M469 1266l34 161h607l-34 -161h-607zM606 -23q-80 0 -152 28t-129.5 81.5t-91.5 140.5t-34 196q0 132 46.5 248.5t123.5 196.5t178.5 126t209.5 46q139 0 223 -62t84 -166q0 -131 -134.5 -221.5t-397.5 -166.5l-53 -15q12 -130 81 -198.5t175 -68.5q142 0 239 87
l-22 -102q-54 -71 -147.5 -110.5t-198.5 -39.5zM740 919q-103 0 -178 -112.5t-85 -294.5l41 13q323 100 323 278q0 116 -101 116z" />
    <glyph glyph-name="Ebreve" unicode="&#x114;" horiz-adv-x="1277" 
d="M995 1583q-113 0 -186.5 63.5t-74.5 162.5q0 47 17 89h94q-2 -12 -2 -26q0 -53 44.5 -89.5t114.5 -36.5q80 0 130 39.5t64 112.5h95q-5 -148 -84 -231.5t-212 -83.5zM1457 1444l-71 -380h-86q-2 83 -14 130.5t-45 77t-81.5 39.5t-135.5 13l-229 8l-114 -538h226
q51 0 81.5 36t81.5 163h81l-108 -510h-82q4 87 -2.5 129t-23 56.5t-52.5 14.5h-226l-121 -571l236 8q72 3 115.5 7t87.5 16.5t70.5 30.5t55.5 52.5t52 79.5t51 114h87l-102 -420h-1134l21 97q80 9 116 21t51.5 32.5t25.5 66.5l216 1010q14 66 -10 86.5t-133 33.5l20 97h1095
z" />
    <glyph glyph-name="ebreve" unicode="&#x115;" horiz-adv-x="985" 
d="M799 1180q-124 0 -204.5 74t-80.5 188q0 58 19 104h103q-2 -16 -2 -30q0 -62 49 -104t126 -42q90 0 146 45.5t71 130.5h104q-7 -172 -95.5 -269t-235.5 -97zM606 -23q-80 0 -152 28t-129.5 81.5t-91.5 140.5t-34 196q0 132 46.5 248.5t123.5 196.5t178.5 126t209.5 46
q139 0 223 -62t84 -166q0 -131 -134.5 -221.5t-397.5 -166.5l-53 -15q12 -130 81 -198.5t175 -68.5q142 0 239 87l-22 -102q-54 -71 -147.5 -110.5t-198.5 -39.5zM740 919q-103 0 -178 -112.5t-85 -294.5l41 13q323 100 323 278q0 116 -101 116z" />
    <glyph glyph-name="Edotaccent" unicode="&#x116;" horiz-adv-x="1277" 
d="M980 1588q-52 0 -87 33.5t-35 82.5q0 55 38.5 93t92.5 38q52 0 86.5 -33.5t34.5 -83.5q0 -54 -38 -92t-92 -38zM1457 1444l-71 -380h-86q-2 83 -14 130.5t-45 77t-81.5 39.5t-135.5 13l-229 8l-114 -538h226q51 0 81.5 36t81.5 163h81l-108 -510h-82q4 87 -2.5 129
t-23 56.5t-52.5 14.5h-226l-121 -571l236 8q72 3 115.5 7t87.5 16.5t70.5 30.5t55.5 52.5t52 79.5t51 114h87l-102 -420h-1134l21 97q80 9 116 21t51.5 32.5t25.5 66.5l216 1010q14 66 -10 86.5t-133 33.5l20 97h1095z" />
    <glyph glyph-name="edotaccent" unicode="&#x117;" horiz-adv-x="985" 
d="M788 1216q-62 0 -102 39.5t-40 98.5q0 64 45 109t108 45q61 0 101.5 -40t40.5 -99q0 -64 -44.5 -108.5t-108.5 -44.5zM606 -23q-80 0 -152 28t-129.5 81.5t-91.5 140.5t-34 196q0 132 46.5 248.5t123.5 196.5t178.5 126t209.5 46q139 0 223 -62t84 -166
q0 -131 -134.5 -221.5t-397.5 -166.5l-53 -15q12 -130 81 -198.5t175 -68.5q142 0 239 87l-22 -102q-54 -71 -147.5 -110.5t-198.5 -39.5zM740 919q-103 0 -178 -112.5t-85 -294.5l41 13q323 100 323 278q0 116 -101 116z" />
    <glyph glyph-name="Eogonek" unicode="&#x118;" horiz-adv-x="1277" 
d="M929 -486q-98 0 -159.5 50.5t-61.5 129.5q0 83 61.5 162t170.5 144h-885l21 97q80 9 116 21t51.5 32.5t25.5 66.5l216 1010q14 66 -10 86.5t-133 33.5l20 97h1095l-71 -380h-86q-2 83 -14 130.5t-45 77t-81.5 39.5t-135.5 13l-229 8l-114 -538h226q51 0 81.5 36t81.5 163
h81l-108 -510h-82q4 87 -2.5 129t-23 56.5t-52.5 14.5h-226l-121 -571l236 8q72 3 115.5 7t87.5 16.5t70.5 30.5t55.5 52.5t52 79.5t51 114h87l-102 -420h-141q-99 -98 -99 -214q0 -63 28 -101.5t74 -38.5q47 0 81 27l-19 -95q-66 -64 -184 -64z" />
    <glyph glyph-name="eogonek" unicode="&#x119;" horiz-adv-x="974" 
d="M187 423q0 132 47 248.5t124.5 196.5t180 126t212.5 46q136 0 219 -64t83 -164q0 -131 -134.5 -221.5t-398.5 -166.5l-53 -15q13 -130 83.5 -198.5t178.5 -68.5q142 0 239 87l-22 -102q-33 -36 -114 -95q-182 -131 -182 -283q0 -51 25.5 -77t64.5 -26q54 0 95 27l-20 -95
q-28 -27 -82 -45.5t-113 -18.5q-89 0 -147.5 47.5t-58.5 126.5q0 157 243 295q-30 -6 -63 -6q-80 0 -152 28t-129.5 81t-91.5 140.5t-34 196.5zM723 919q-100 0 -174 -113t-84 -294l42 13q151 47 237 117.5t86 163.5q0 52 -28.5 82.5t-78.5 30.5z" />
    <glyph glyph-name="Ecaron" unicode="&#x11a;" horiz-adv-x="1277" 
d="M1194 1881h114l-252 -297h-187l-127 297h107l140 -145zM1457 1444l-71 -380h-86q-2 83 -14 130.5t-45 77t-81.5 39.5t-135.5 13l-229 8l-114 -538h226q51 0 81.5 36t81.5 163h81l-108 -510h-82q4 87 -2.5 129t-23 56.5t-52.5 14.5h-226l-121 -571l236 8q72 3 115.5 7
t87.5 16.5t70.5 30.5t55.5 52.5t52 79.5t51 114h87l-102 -420h-1134l21 97q80 9 116 21t51.5 32.5t25.5 66.5l216 1010q14 66 -10 86.5t-133 33.5l20 97h1095z" />
    <glyph glyph-name="ecaron" unicode="&#x11b;" horiz-adv-x="985" 
d="M1019 1556h123l-291 -384h-195l-129 384h113l146 -197zM606 -23q-80 0 -152 28t-129.5 81.5t-91.5 140.5t-34 196q0 132 46.5 248.5t123.5 196.5t178.5 126t209.5 46q139 0 223 -62t84 -166q0 -131 -134.5 -221.5t-397.5 -166.5l-53 -15q12 -130 81 -198.5t175 -68.5
q142 0 239 87l-22 -102q-54 -71 -147.5 -110.5t-198.5 -39.5zM740 919q-103 0 -178 -112.5t-85 -294.5l41 13q323 100 323 278q0 116 -101 116z" />
    <glyph glyph-name="Gcircumflex" unicode="&#x11c;" horiz-adv-x="1579" 
d="M964 1564h-109l252 296h175l127 -296h-103l-138 145zM250 651q1 176 61 328.5t165.5 262t257 171.5t328.5 62q161 0 301.5 -46t217.5 -110l-57 -320l-87 5q-6 166 -88 252t-238 86q-110 0 -210.5 -57t-173.5 -154.5t-116.5 -236t-43.5 -293.5q0 -225 108.5 -361.5
t288.5 -136.5q126 0 196 48l71 337q5 24 6.5 38t-2.5 27t-13 20t-29 13.5t-46 10.5t-68 8l20 96h583l-20 -96q-70 -7 -102 -19t-45 -32t-23 -67l-84 -390q-71 -53 -205 -90.5t-272 -37.5q-195 0 -348.5 79.5t-243.5 236t-89 366.5z" />
    <glyph glyph-name="gcircumflex" unicode="&#x11d;" horiz-adv-x="1093" 
d="M540 1172h-124l292 384h195l129 -384h-113l-146 197zM505 -458q-205 0 -336.5 67t-131.5 185q0 76 78 135.5t211 84.5q-110 50 -112 156q-1 71 55 123t164 80q-97 40 -148 115t-51 169q0 163 119.5 271t321.5 108q150 0 250 -54l357 13l-27 -135l-226 31q52 -74 52 -171
q0 -161 -119.5 -272t-322.5 -111q-69 0 -126 12q-41 -13 -65 -35t-23 -49t25 -45t89 -30l198 -36q297 -54 297 -278q0 -100 -74 -177.5t-193.5 -117t-261.5 -39.5zM495 632q0 -82 36.5 -135.5t104.5 -53.5q86 0 136 91t50 207q0 82 -37 136t-105 54q-58 0 -101.5 -46.5
t-63.5 -113t-20 -139.5zM249 -176q0 -74 73.5 -119.5t197.5 -45.5q116 0 196 43t80 114q0 52 -41.5 85.5t-136.5 49.5l-190 33q-8 2 -12 2q-167 -56 -167 -162z" />
    <glyph glyph-name="Gbreve" unicode="&#x11e;" horiz-adv-x="1579" 
d="M1174 1583q-113 0 -186.5 63.5t-74.5 162.5q0 47 17 89h94q-2 -12 -2 -26q0 -53 44.5 -89.5t114.5 -36.5q80 0 130 39.5t64 112.5h95q-5 -148 -84 -231.5t-212 -83.5zM250 651q1 176 61 328.5t165.5 262t257 171.5t328.5 62q161 0 301.5 -46t217.5 -110l-57 -320l-87 5
q-6 166 -88 252t-238 86q-110 0 -210.5 -57t-173.5 -154.5t-116.5 -236t-43.5 -293.5q0 -225 108.5 -361.5t288.5 -136.5q126 0 196 48l71 337q5 24 6.5 38t-2.5 27t-13 20t-29 13.5t-46 10.5t-68 8l20 96h583l-20 -96q-70 -7 -102 -19t-45 -32t-23 -67l-84 -390
q-71 -53 -205 -90.5t-272 -37.5q-195 0 -348.5 79.5t-243.5 236t-89 366.5z" />
    <glyph glyph-name="gbreve" unicode="&#x11f;" horiz-adv-x="1093" 
d="M771 1180q-124 0 -205 74t-81 188q0 56 20 104h103q-2 -16 -2 -30q0 -62 49 -104t126 -42q90 0 146 45.5t71 130.5h103q-7 -172 -95 -269t-235 -97zM505 -458q-205 0 -336.5 67t-131.5 185q0 76 78 135.5t211 84.5q-110 50 -112 156q-1 71 55 123t164 80q-97 40 -148 115
t-51 169q0 163 119.5 271t321.5 108q150 0 250 -54l357 13l-27 -135l-226 31q52 -74 52 -171q0 -161 -119.5 -272t-322.5 -111q-69 0 -126 12q-41 -13 -65 -35t-23 -49t25 -45t89 -30l198 -36q297 -54 297 -278q0 -100 -74 -177.5t-193.5 -117t-261.5 -39.5zM495 632
q0 -82 36.5 -135.5t104.5 -53.5q86 0 136 91t50 207q0 82 -37 136t-105 54q-58 0 -101.5 -46.5t-63.5 -113t-20 -139.5zM249 -176q0 -74 73.5 -119.5t197.5 -45.5q116 0 196 43t80 114q0 52 -41.5 85.5t-136.5 49.5l-190 33q-8 2 -12 2q-167 -56 -167 -162z" />
    <glyph glyph-name="Gdotaccent" unicode="&#x120;" horiz-adv-x="1579" 
d="M1159 1588q-52 0 -87 33.5t-35 82.5q0 55 38.5 93t92.5 38q52 0 86.5 -33.5t34.5 -83.5q0 -54 -38 -92t-92 -38zM250 651q1 176 61 328.5t165.5 262t257 171.5t328.5 62q161 0 301.5 -46t217.5 -110l-57 -320l-87 5q-6 166 -88 252t-238 86q-110 0 -210.5 -57
t-173.5 -154.5t-116.5 -236t-43.5 -293.5q0 -225 108.5 -361.5t288.5 -136.5q126 0 196 48l71 337q5 24 6.5 38t-2.5 27t-13 20t-29 13.5t-46 10.5t-68 8l20 96h583l-20 -96q-70 -7 -102 -19t-45 -32t-23 -67l-84 -390q-71 -53 -205 -90.5t-272 -37.5q-195 0 -348.5 79.5
t-243.5 236t-89 366.5z" />
    <glyph glyph-name="gdotaccent" unicode="&#x121;" horiz-adv-x="1093" 
d="M760 1216q-62 0 -102 39.5t-40 98.5q0 64 45 109t108 45q61 0 101.5 -40t40.5 -99q0 -64 -44.5 -108.5t-108.5 -44.5zM505 -458q-205 0 -336.5 67t-131.5 185q0 76 78 135.5t211 84.5q-110 50 -112 156q-1 71 55 123t164 80q-97 40 -148 115t-51 169q0 163 119.5 271
t321.5 108q150 0 250 -54l357 13l-27 -135l-226 31q52 -74 52 -171q0 -161 -119.5 -272t-322.5 -111q-69 0 -126 12q-41 -13 -65 -35t-23 -49t25 -45t89 -30l198 -36q297 -54 297 -278q0 -100 -74 -177.5t-193.5 -117t-261.5 -39.5zM495 632q0 -82 36.5 -135.5t104.5 -53.5
q86 0 136 91t50 207q0 82 -37 136t-105 54q-58 0 -101.5 -46.5t-63.5 -113t-20 -139.5zM249 -176q0 -74 73.5 -119.5t197.5 -45.5q116 0 196 43t80 114q0 52 -41.5 85.5t-136.5 49.5l-190 33q-8 2 -12 2q-167 -56 -167 -162z" />
    <glyph glyph-name="Gcommaaccent" unicode="&#x122;" horiz-adv-x="1579" 
d="M250 651q1 176 61 328.5t165.5 262t257 171.5t328.5 62q161 0 301.5 -46t217.5 -110l-57 -320l-87 5q-6 166 -88 252t-238 86q-110 0 -210.5 -57t-173.5 -154.5t-116.5 -236t-43.5 -293.5q0 -225 108.5 -361.5t288.5 -136.5q126 0 196 48l71 337q5 24 6.5 38t-2.5 27
t-13 20t-29 13.5t-46 10.5t-68 8l20 96h583l-20 -96q-70 -7 -102 -19t-45 -32t-23 -67l-84 -390q-71 -53 -205 -90.5t-272 -37.5q-195 0 -348.5 79.5t-243.5 236t-89 366.5zM802 -491q-112 0 -181 46l19 85q62 -32 122 -32q53 0 84 20.5t31 54.5q0 33 -27.5 53t-69.5 20
q-45 0 -77 -10l18 80q67 57 164 57q79 0 132 -50t53 -132q0 -91 -70 -141.5t-198 -50.5z" />
    <glyph glyph-name="gcommaaccent" unicode="&#x123;" horiz-adv-x="1093" 
d="M820 1551q111 0 183 -43l-20 -85q-71 32 -138 32q-59 0 -92.5 -21t-33.5 -58q0 -32 26.5 -52t69.5 -20q39 0 82 10l-18 -80q-66 -57 -171 -57q-83 0 -132.5 50t-49.5 125q0 93 74.5 146t219.5 53zM505 -458q-205 0 -336.5 67t-131.5 185q0 76 78 135.5t211 84.5
q-110 50 -112 156q-1 71 55 123t164 80q-97 40 -148 115t-51 169q0 163 119.5 271t321.5 108q150 0 250 -54l357 13l-27 -135l-226 31q52 -74 52 -171q0 -161 -119.5 -272t-322.5 -111q-69 0 -126 12q-41 -13 -65 -35t-23 -49t25 -45t89 -30l198 -36q297 -54 297 -278
q0 -100 -74 -177.5t-193.5 -117t-261.5 -39.5zM495 632q0 -82 36.5 -135.5t104.5 -53.5q86 0 136 91t50 207q0 82 -37 136t-105 54q-58 0 -101.5 -46.5t-63.5 -113t-20 -139.5zM249 -176q0 -74 73.5 -119.5t197.5 -45.5q116 0 196 43t80 114q0 52 -41.5 85.5t-136.5 49.5
l-190 33q-8 2 -12 2q-167 -56 -167 -162z" />
    <glyph glyph-name="Hcircumflex" unicode="&#x124;" horiz-adv-x="1628" 
d="M981 1564h-109l252 296h175l127 -296h-103l-138 145zM558 217q-14 -65 10 -86.5t124 -33.5l-19 -97h-620l21 97q79 9 116.5 21.5t53 34t25.5 67.5l215 1004q14 66 -11 88t-133 35l20 97h620l-21 -97q-74 -8 -109 -20t-51.5 -33.5t-25.5 -66.5l-91 -430h604l91 430
q5 33 6.5 53.5t-15 33.5t-44 20t-82.5 13l21 97h618l-19 -97q-78 -8 -115.5 -20.5t-54 -34.5t-26.5 -68l-214 -1004q-15 -66 10.5 -89t132.5 -34l-21 -97h-618l20 97q75 8 110 19.5t50.5 33t25.5 67.5l98 461h-604z" />
    <glyph glyph-name="hcircumflex" unicode="&#x125;" horiz-adv-x="1247" 
d="M476 1564h-110l252 296h175l127 -296h-102l-138 145zM773 1499l-168 -720q127 261 358 261q154 0 216.5 -97.5t26.5 -266.5l-93 -432q-20 -93 50 -93q69 0 120 40l-22 -99q-40 -47 -117 -78t-153 -31q-199 0 -151 237l97 461q20 94 -9.5 145.5t-95.5 51.5
q-78 0 -152.5 -80.5t-100.5 -202.5l-125 -595h-268l268 1258q8 37 -2.5 53.5t-48.5 24.5l-87 15l21 93z" />
    <glyph glyph-name="Hbar" unicode="&#x126;" horiz-adv-x="1628" 
d="M558 217q-14 -66 8.5 -87t123.5 -33l-21 -97h-614l21 97q80 9 116.5 21t51.5 32.5t25 66.5l171 807h-167l23 109h168l20 94q14 66 -9.5 86.5t-132.5 33.5l20 97h614l-20 -97q-74 -8 -108.5 -20t-49.5 -33t-25 -67l-20 -94h604l20 94q15 67 -7 88t-124 32l20 97h614
l-20 -97q-112 -11 -146 -32.5t-48 -87.5l-20 -94h168l-23 -109h-168l-172 -807q-14 -66 10 -87.5t132 -32.5l-20 -97h-614l21 97q107 11 137.5 32t44.5 88l98 461h-604zM682 797h604l48 227h-604z" />
    <glyph glyph-name="hbar" unicode="&#x127;" horiz-adv-x="1247" 
d="M965 1197h-263l-97 -418q127 261 358 261q154 0 216.5 -97.5t26.5 -266.5l-93 -432q-20 -93 50 -93q69 0 120 40l-22 -99q-40 -47 -117 -78t-153 -31q-199 0 -151 237l97 461q20 94 -9.5 145.5t-95.5 51.5q-78 0 -152.5 -80.5t-100.5 -202.5l-125 -595h-268l254 1197
h-160l22 109h161l30 138l272 22l-38 -160h260z" />
    <glyph glyph-name="Itilde" unicode="&#x128;" horiz-adv-x="735" 
d="M831 1596q-67 0 -130 52l-25 23q-36 31 -63 31q-25 0 -41 -24.5t-26 -90.5h-94q16 143 61.5 202.5t115.5 59.5q69 0 130 -52l26 -22q34 -32 62 -32q25 0 41.5 24.5t26.5 90.5h94q-16 -143 -61.5 -202.5t-116.5 -59.5zM558 217q-14 -66 9.5 -86.5t132.5 -33.5l-20 -97
h-625l21 97q80 9 116.5 21t51.5 32.5t25 66.5l215 1010q5 32 6.5 53t-15 34t-46.5 20.5t-87 12.5l20 97h625l-21 -97q-80 -9 -116.5 -21t-51.5 -32.5t-25 -66.5z" />
    <glyph glyph-name="itilde" unicode="&#x129;" horiz-adv-x="625" 
d="M664 1207q-73 0 -138 65l-28 29q-38 40 -70 40q-28 0 -46 -31t-31 -113h-97q40 321 198 321q72 0 138 -64l29 -30q37 -39 68 -39q28 0 46.5 30.5t31.5 112.5h97q-23 -175 -73 -248t-125 -73zM651 1030l-167 -786q-19 -93 50 -93t119 40l-21 -99q-40 -47 -117 -78
t-153 -31q-99 0 -137.5 59.5t-13.5 177.5l121 570q8 37 -2 53.5t-48 24.5l-86 15l21 93z" />
    <glyph glyph-name="Imacron" unicode="&#x12a;" horiz-adv-x="735" 
d="M437 1629l32 147h545l-31 -147h-546zM558 217q-14 -66 9.5 -86.5t132.5 -33.5l-20 -97h-625l21 97q80 9 116.5 21t51.5 32.5t25 66.5l215 1010q5 32 6.5 53t-15 34t-46.5 20.5t-87 12.5l20 97h625l-21 -97q-80 -9 -116.5 -21t-51.5 -32.5t-25 -66.5z" />
    <glyph glyph-name="imacron" unicode="&#x12b;" horiz-adv-x="625" 
d="M294 1266l34 161h485l-34 -161h-485zM651 1030l-167 -786q-19 -93 50 -93t119 40l-21 -99q-40 -47 -117 -78t-153 -31q-99 0 -137.5 59.5t-13.5 177.5l121 570q8 37 -2 53.5t-48 24.5l-86 15l21 93z" />
    <glyph glyph-name="Ibreve" unicode="&#x12c;" horiz-adv-x="735" 
d="M739 1583q-113 0 -187 63.5t-75 162.5q0 42 17 89h95q-2 -6 -2 -26q0 -53 44.5 -89.5t113.5 -36.5q80 0 130 39.5t64 112.5h95q-4 -147 -83 -231t-212 -84zM558 217q-14 -66 9.5 -86.5t132.5 -33.5l-20 -97h-625l21 97q80 9 116.5 21t51.5 32.5t25 66.5l215 1010
q5 32 6.5 53t-15 34t-46.5 20.5t-87 12.5l20 97h625l-21 -97q-80 -9 -116.5 -21t-51.5 -32.5t-25 -66.5z" />
    <glyph glyph-name="ibreve" unicode="&#x12d;" horiz-adv-x="625" 
d="M557 1180q-112 0 -182.5 74t-68.5 188q1 53 19 104h94q-2 -8 -4 -30q-1 -62 42.5 -104t113.5 -42q81 0 132 46t66 130h93q-10 -172 -91 -269t-214 -97zM651 1030l-167 -786q-19 -93 50 -93t119 40l-21 -99q-40 -47 -117 -78t-153 -31q-99 0 -137.5 59.5t-13.5 177.5
l121 570q8 37 -2 53.5t-48 24.5l-86 15l21 93z" />
    <glyph glyph-name="Iogonek" unicode="&#x12e;" horiz-adv-x="735" 
d="M315 -486q-98 0 -159.5 50.5t-61.5 129.5q0 83 61.5 162t170.5 144h-271l21 97q80 9 116.5 21t51.5 32.5t25 66.5l215 1010q5 32 6.5 53t-15 34t-46.5 20.5t-87 12.5l20 97h625l-21 -97q-80 -9 -116.5 -21t-51.5 -32.5t-25 -66.5l-215 -1010q-14 -66 9.5 -86.5
t132.5 -33.5l-20 -97h-246q-98 -95 -98 -214q0 -63 27.5 -101.5t73.5 -38.5q47 0 82 27l-20 -95q-68 -64 -184 -64z" />
    <glyph glyph-name="iogonek" unicode="&#x12f;" horiz-adv-x="622" 
d="M549 1211q-62 0 -103 40.5t-41 99.5q0 64 46.5 109t113.5 45q61 0 102 -40.5t41 -99.5q0 -64 -46.5 -109t-112.5 -45zM333 -486q-88 0 -142 46t-54 122t61 149.5t194 152.5q-10 -1 -30 -1q-99 0 -137.5 59.5t-13.5 177.5l121 570q8 37 -2 53.5t-48 24.5l-86 15l21 93
l434 54l-167 -786q-19 -93 50 -93t119 40l-21 -99q-134 -107 -198 -190.5t-64 -156.5q0 -47 23 -73t61 -26q51 0 88 27l-21 -95q-25 -27 -76.5 -45.5t-111.5 -18.5z" />
    <glyph glyph-name="Idotaccent" unicode="&#x130;" horiz-adv-x="735" 
d="M723 1588q-52 0 -86.5 33.5t-34.5 82.5q0 55 38.5 93t92.5 38q52 0 86.5 -33.5t34.5 -83.5q0 -54 -38.5 -92t-92.5 -38zM558 217q-14 -66 9.5 -86.5t132.5 -33.5l-20 -97h-625l21 97q80 9 116.5 21t51.5 32.5t25 66.5l215 1010q5 32 6.5 53t-15 34t-46.5 20.5t-87 12.5
l20 97h625l-21 -97q-80 -9 -116.5 -21t-51.5 -32.5t-25 -66.5z" />
    <glyph glyph-name="dotlessi" unicode="&#x131;" horiz-adv-x="625" 
d="M651 1030l-167 -786q-19 -93 50 -93t119 40l-21 -99q-40 -47 -117 -78t-153 -31q-99 0 -137.5 59.5t-13.5 177.5l121 570q8 37 -2 53.5t-48 24.5l-86 15l21 93z" />
    <glyph glyph-name="IJ" unicode="&#x132;" horiz-adv-x="1471" 
d="M1303 266q-20 -94 -50 -169t-74.5 -136t-95 -108t-124.5 -91t-148.5 -79t-180.5 -77l-27 81q95 57 156.5 107.5t113 120t86 158.5t61.5 217l200 938q14 66 -10 86.5t-133 33.5l21 97h623l-20 -97q-80 -9 -116 -21t-51 -32.5t-25 -66.5zM558 217q-14 -66 9.5 -86.5
t132.5 -33.5l-20 -97h-625l21 97q80 9 116.5 21t51.5 32.5t25 66.5l215 1010q5 32 6.5 53t-15 34t-46.5 20.5t-87 12.5l20 97h625l-21 -97q-80 -9 -116.5 -21t-51.5 -32.5t-25 -66.5z" />
    <glyph glyph-name="ij" unicode="&#x133;" horiz-adv-x="1238" 
d="M552 1209q-64 0 -106.5 41.5t-42.5 103.5q0 67 47.5 114t113.5 47q64 0 106.5 -41.5t42.5 -103.5q0 -67 -47 -114t-114 -47zM1195 1209q-65 0 -107 41.5t-42 103.5q0 67 47 114t114 47q64 0 106.5 -41.5t42.5 -103.5q0 -67 -47 -114t-114 -47zM651 1030l-167 -786
q-19 -93 50 -93t119 40l-21 -99q-40 -47 -117 -78t-153 -31q-99 0 -137.5 59.5t-13.5 177.5l121 570q8 37 -2 53.5t-48 24.5l-86 15l21 93zM1295 1030l-205 -960q-25 -117 -62.5 -200t-100 -150t-151.5 -114.5t-217 -85.5l-30 87q58 26 100.5 59t72 70.5t52.5 94t38.5 113.5
t34.5 145l149 701q8 37 -2 53.5t-48 24.5l-86 15l20 93z" />
    <glyph glyph-name="Jcircumflex" unicode="&#x134;" horiz-adv-x="735" 
d="M523 1564h-109l251 296h176l126 -296h-102l-138 145zM568 266q-24 -112 -65 -199t-93.5 -151t-134.5 -120t-167.5 -97.5t-212.5 -92.5l-27 81q126 76 199.5 146t127.5 179t90 278l200 938q14 66 -10 86.5t-133 33.5l20 97h624l-20 -97q-80 -9 -116.5 -21t-51.5 -32.5
t-25 -66.5z" />
    <glyph glyph-name="jcircumflex" unicode="&#x135;" horiz-adv-x="614" 
d="M350 1172h-123l292 384h194l130 -384h-114l-145 197zM670 1030l-204 -960q-34 -156 -92.5 -256.5t-164 -172t-275.5 -121.5l-30 87q72 32 120 73t81.5 103t54 129t43.5 177l149 701q8 37 -2.5 53.5t-48.5 24.5l-86 15l21 93z" />
    <glyph glyph-name="Kcommaaccent" unicode="&#x136;" horiz-adv-x="1412" 
d="M558 217q-14 -66 8 -87.5t119 -32.5l-19 -97h-611l21 97q80 9 116.5 21t51.5 32.5t25 66.5l215 1010q14 66 -9.5 86.5t-132.5 33.5l20 97h611l-21 -97q-103 -11 -134 -32.5t-45 -87.5l-91 -427h138l377 373q91 92 83 128t-118 46l21 97h513l-20 -97q-97 -16 -163 -59
t-218 -180l-250 -228l197 -503q61 -156 100.5 -212t94.5 -74l-20 -91h-357l-261 685h-141zM752 -491q-111 0 -180 46l19 85q62 -32 122 -32q53 0 84 20.5t31 54.5q0 33 -27.5 53t-70.5 20t-77 -10l19 80q66 57 164 57q79 0 132 -50t53 -132q0 -91 -70.5 -141.5t-198.5 -50.5
z" />
    <glyph glyph-name="kcommaaccent" unicode="&#x137;" horiz-adv-x="1134" 
d="M972 -17q-90 0 -148.5 66.5t-106.5 216.5l-71 222l-106 -82l-86 -406h-268l268 1258q8 37 -2.5 53.5t-48.5 24.5l-87 15l21 93l435 55l-206 -970l311 265q61 52 76.5 80t-8 42t-90.5 20l17 81h460l-16 -81q-76 -14 -146 -52.5t-194 -137.5l-119 -95l106 -310
q38 -110 73 -151t78 -41q50 0 90 37l-21 -100q-34 -47 -88.5 -75t-122.5 -28zM536 -491q-110 0 -181 46l19 85q64 -32 122 -32q53 0 84 20.5t31 54.5q0 33 -27 53t-70 20t-77 -10l18 80q68 57 164 57q80 0 133 -50t53 -132q0 -91 -70.5 -141.5t-198.5 -50.5z" />
    <glyph glyph-name="Lacute" unicode="&#x139;" horiz-adv-x="1186" 
d="M814 1860l248 -1v-10l-364 -285h-104zM1130 0h-1075l21 97q80 9 116.5 21t51.5 32.5t25 66.5l215 1010q14 67 -9.5 87.5t-132.5 32.5l20 97h636l-20 -96q-86 -9 -124.5 -21t-54.5 -32.5t-26 -66.5l-237 -1116l198 6q67 3 111 11t88 28t77.5 57.5t68.5 96.5t74 148h87z
" />
    <glyph glyph-name="lacute" unicode="&#x13a;" horiz-adv-x="625" 
d="M743 1860l248 -1v-10l-364 -285h-104zM751 1499l-267 -1255q-19 -93 50 -93t119 40l-21 -99q-40 -47 -116.5 -78t-153.5 -31q-99 0 -137.5 59.5t-13.5 177.5l221 1038q8 37 -2 53.5t-48 24.5l-86 15l20 93z" />
    <glyph glyph-name="Lcommaaccent" unicode="&#x13b;" horiz-adv-x="1186" 
d="M1130 0h-1075l21 97q80 9 116.5 21t51.5 32.5t25 66.5l215 1010q14 67 -9.5 87.5t-132.5 32.5l20 97h636l-20 -96q-86 -9 -124.5 -21t-54.5 -32.5t-26 -66.5l-237 -1116l198 6q67 3 111 11t88 28t77.5 57.5t68.5 96.5t74 148h87zM514 -491q-110 0 -181 46l19 85
q62 -32 122 -32q53 0 84 20.5t31 54.5q0 33 -27 53t-70 20t-77 -10l18 80q67 57 164 57q79 0 132 -50t53 -132q0 -91 -70 -141.5t-198 -50.5z" />
    <glyph glyph-name="lcommaaccent" unicode="&#x13c;" horiz-adv-x="625" 
d="M751 1499l-267 -1255q-19 -93 50 -93t119 40l-21 -99q-40 -47 -116.5 -78t-153.5 -31q-99 0 -137.5 59.5t-13.5 177.5l221 1038q8 37 -2 53.5t-48 24.5l-86 15l20 93zM276 -491q-111 0 -180 46l19 85q62 -32 122 -32q53 0 84 20.5t31 54.5q0 33 -27.5 53t-69.5 20
q-45 0 -77 -10l18 80q66 57 164 57q79 0 132 -50t53 -132q0 -92 -70.5 -142t-198.5 -50z" />
    <glyph glyph-name="Lcaron" unicode="&#x13d;" horiz-adv-x="1186" 
d="M1197 1118h-98l135 438h221zM1130 0h-1075l21 97q80 9 116.5 21t51.5 32.5t25 66.5l215 1010q14 67 -9.5 87.5t-132.5 32.5l20 97h636l-20 -96q-86 -9 -124.5 -21t-54.5 -32.5t-26 -66.5l-237 -1116l198 6q67 3 111 11t88 28t77.5 57.5t68.5 96.5t74 148h87z" />
    <glyph glyph-name="lcaron" unicode="&#x13e;" horiz-adv-x="625" 
d="M880 1118h-98l135 438h221zM751 1499l-267 -1255q-19 -93 50 -93t119 40l-21 -99q-40 -47 -116.5 -78t-153.5 -31q-99 0 -137.5 59.5t-13.5 177.5l221 1038q8 37 -2 53.5t-48 24.5l-86 15l20 93z" />
    <glyph glyph-name="Ldot" unicode="&#x13f;" horiz-adv-x="1186" 
d="M1130 0h-1075l21 97q80 9 116.5 21t51.5 32.5t25 66.5l215 1010q14 67 -9.5 87.5t-132.5 32.5l20 97h636l-20 -96q-86 -9 -124.5 -21t-54.5 -32.5t-26 -66.5l-237 -1116l198 6q67 3 111 11t88 28t77.5 57.5t68.5 96.5t74 148h87zM1135 708q-61 0 -101.5 40t-40.5 99
q0 64 45 108.5t109 44.5q61 0 101 -39.5t40 -98.5q0 -64 -44.5 -109t-108.5 -45z" />
    <glyph glyph-name="ldot" unicode="&#x140;" horiz-adv-x="795" 
d="M751 1499l-267 -1255q-19 -93 50 -93t119 40l-21 -99q-40 -47 -116.5 -78t-153.5 -31q-99 0 -137.5 59.5t-13.5 177.5l221 1038q8 37 -2 53.5t-48 24.5l-86 15l20 93zM859 584q-59 0 -97 37.5t-38 93.5q0 61 42 103.5t103 42.5q58 0 96.5 -38t38.5 -94q0 -61 -42.5 -103
t-102.5 -42z" />
    <glyph glyph-name="Lslash" unicode="&#x141;" horiz-adv-x="1186" 
d="M179 591l27 118l178 49l100 469q14 67 -9.5 87.5t-132.5 32.5l20 97h636l-20 -96q-86 -9 -124.5 -21t-54.5 -32.5t-26 -66.5l-82 -386l370 101l-27 -118l-368 -101l-130 -612l198 6q67 3 111 11t88 28t77.5 57.5t68.5 96.5t74 148h87l-110 -459h-1075l21 97
q80 9 116.5 21t51.5 32.5t25 66.5l90 423z" />
    <glyph glyph-name="lslash" unicode="&#x142;" horiz-adv-x="625" 
d="M147 662l27 118l168 54l90 424q8 37 -2 53.5t-48 24.5l-86 15l20 93l435 55l-121 -571l173 56l-27 -117l-171 -56l-121 -567q-19 -93 50 -93t119 40l-21 -99q-40 -47 -116.5 -78t-153.5 -31q-99 0 -137.5 59.5t-13.5 177.5l106 497z" />
    <glyph glyph-name="Nacute" unicode="&#x143;" horiz-adv-x="1540" 
d="M1175 1860l248 -1v-10l-364 -285h-104zM779 1444l499 -1144l180 914q5 26 6.5 42t-1.5 31t-11.5 23t-27 15.5t-43 12t-63.5 9.5l21 97h462l-20 -97q-101 -13 -132 -36.5t-47 -96.5l-268 -1214h-264l-499 1145l-181 -915q-15 -73 8 -95.5t132 -37.5l-20 -97h-463l21 97
q100 13 131.5 37t47.5 96l213 970q14 51 9 81.5t-34.5 44.5t-100.5 21l20 97h425z" />
    <glyph glyph-name="nacute" unicode="&#x144;" horiz-adv-x="1247" 
d="M983 1556h305v-14l-428 -370h-125zM659 1030l-54 -251q127 261 358 261q154 0 216.5 -97.5t26.5 -266.5l-93 -432q-20 -93 50 -93q69 0 120 40l-22 -99q-40 -47 -117 -78t-153 -31q-199 0 -151 237l97 461q20 94 -9.5 145.5t-95.5 51.5q-79 0 -154 -84.5t-102 -213.5
l-122 -580h-268l168 790q8 37 -2.5 53.5t-48.5 24.5l-85 15l20 93z" />
    <glyph glyph-name="Ncommaaccent" unicode="&#x145;" horiz-adv-x="1540" 
d="M779 1444l499 -1144l180 914q5 26 6.5 42t-1.5 31t-11.5 23t-27 15.5t-43 12t-63.5 9.5l21 97h462l-20 -97q-101 -13 -132 -36.5t-47 -96.5l-268 -1214h-264l-499 1145l-181 -915q-15 -73 8 -95.5t132 -37.5l-20 -97h-463l21 97q100 13 131.5 37t47.5 96l213 970
q14 51 9 81.5t-34.5 44.5t-100.5 21l20 97h425zM660 -491q-111 0 -180 46l19 85q62 -32 122 -32q53 0 84 20.5t31 54.5q0 33 -27.5 53t-70.5 20t-77 -10l18 80q68 57 165 57q79 0 132 -50t53 -132q0 -91 -70.5 -141.5t-198.5 -50.5z" />
    <glyph glyph-name="ncommaaccent" unicode="&#x146;" horiz-adv-x="1247" 
d="M659 1030l-54 -251q127 261 358 261q154 0 216.5 -97.5t26.5 -266.5l-93 -432q-20 -93 50 -93q69 0 120 40l-22 -99q-40 -47 -117 -78t-153 -31q-199 0 -151 237l97 461q20 94 -9.5 145.5t-95.5 51.5q-79 0 -154 -84.5t-102 -213.5l-122 -580h-268l168 790
q8 37 -2.5 53.5t-48.5 24.5l-85 15l20 93zM563 -491q-111 0 -180 46l19 85q62 -32 122 -32q53 0 84 20.5t31 54.5q0 33 -27.5 53t-70.5 20t-77 -10l19 80q67 57 164 57q79 0 132 -50t53 -132q0 -91 -70.5 -141.5t-198.5 -50.5z" />
    <glyph glyph-name="Ncaron" unicode="&#x147;" horiz-adv-x="1540" 
d="M1305 1881h114l-252 -297h-187l-128 297h108l140 -145zM779 1444l499 -1144l180 914q5 26 6.5 42t-1.5 31t-11.5 23t-27 15.5t-43 12t-63.5 9.5l21 97h462l-20 -97q-101 -13 -132 -36.5t-47 -96.5l-268 -1214h-264l-499 1145l-181 -915q-15 -73 8 -95.5t132 -37.5
l-20 -97h-463l21 97q100 13 131.5 37t47.5 96l213 970q14 51 9 81.5t-34.5 44.5t-100.5 21l20 97h425z" />
    <glyph glyph-name="ncaron" unicode="&#x148;" horiz-adv-x="1247" 
d="M1120 1556h122l-291 -384h-194l-130 384h114l146 -197zM659 1030l-54 -251q127 261 358 261q154 0 216.5 -97.5t26.5 -266.5l-93 -432q-20 -93 50 -93q69 0 120 40l-22 -99q-40 -47 -117 -78t-153 -31q-199 0 -151 237l97 461q20 94 -9.5 145.5t-95.5 51.5
q-79 0 -154 -84.5t-102 -213.5l-122 -580h-268l168 790q8 37 -2.5 53.5t-48.5 24.5l-85 15l20 93z" />
    <glyph glyph-name="Omacron" unicode="&#x14c;" horiz-adv-x="1612" 
d="M822 1629l32 147h546l-31 -147h-547zM903 -27q-156 0 -283 53.5t-208.5 145.5t-125 213t-42.5 258q1 128 35 250t101 226.5t158.5 183t215 123.5t262.5 45q156 0 282.5 -53.5t208 -145.5t125 -212.5t43.5 -258.5q0 -161 -54.5 -310t-152 -264.5t-244.5 -184.5t-321 -69z
M885 105q105 0 196 65t152.5 172.5t96.5 245.5t35 284q0 229 -89 348t-242 119q-141 0 -252.5 -111.5t-169.5 -285t-58 -370.5q0 -229 89 -348t242 -119z" />
    <glyph glyph-name="omacron" unicode="&#x14d;" horiz-adv-x="1174" 
d="M501 1266l34 161h606l-34 -161h-606zM626 -23q-201 0 -312.5 125t-111.5 326q0 164 70 303t200 224t292 85q201 0 312.5 -125.5t111.5 -325.5q0 -164 -70 -303t-200 -224t-292 -85zM635 102q68 0 123 53.5t87.5 138t50 180.5t17.5 189q0 123 -42.5 187.5t-116.5 64.5
q-68 0 -123 -53.5t-87.5 -138t-50 -180.5t-17.5 -189q0 -123 42.5 -187.5t116.5 -64.5z" />
    <glyph glyph-name="Obreve" unicode="&#x14e;" horiz-adv-x="1612" 
d="M1124 1583q-113 0 -186.5 63.5t-74.5 162.5q0 47 17 89h94q-2 -12 -2 -26q0 -53 44.5 -89.5t114.5 -36.5q80 0 129.5 39.5t63.5 112.5h96q-5 -148 -84 -231.5t-212 -83.5zM903 -27q-156 0 -283 53.5t-208.5 145.5t-125 213t-42.5 258q1 128 35 250t101 226.5t158.5 183
t215 123.5t262.5 45q156 0 282.5 -53.5t208 -145.5t125 -212.5t43.5 -258.5q0 -161 -54.5 -310t-152 -264.5t-244.5 -184.5t-321 -69zM885 105q105 0 196 65t152.5 172.5t96.5 245.5t35 284q0 229 -89 348t-242 119q-141 0 -252.5 -111.5t-169.5 -285t-58 -370.5
q0 -229 89 -348t242 -119z" />
    <glyph glyph-name="obreve" unicode="&#x14f;" horiz-adv-x="1174" 
d="M831 1180q-125 0 -205.5 74t-80.5 188q0 54 19 104h104q-3 -24 -3 -30q0 -62 49.5 -104t126.5 -42q90 0 146 45.5t71 130.5h103q-7 -172 -95 -269t-235 -97zM626 -23q-201 0 -312.5 125t-111.5 326q0 164 70 303t200 224t292 85q201 0 312.5 -125.5t111.5 -325.5
q0 -164 -70 -303t-200 -224t-292 -85zM635 102q68 0 123 53.5t87.5 138t50 180.5t17.5 189q0 123 -42.5 187.5t-116.5 64.5q-68 0 -123 -53.5t-87.5 -138t-50 -180.5t-17.5 -189q0 -123 42.5 -187.5t116.5 -64.5z" />
    <glyph glyph-name="Ohungarumlaut" unicode="&#x150;" horiz-adv-x="1612" 
d="M1016 1861h187v-7l-203 -290h-100zM1332 1861h209v-7l-292 -290h-106zM903 -27q-156 0 -283 53.5t-208.5 145.5t-125 213t-42.5 258q1 128 35 250t101 226.5t158.5 183t215 123.5t262.5 45q156 0 282.5 -53.5t208 -145.5t125 -212.5t43.5 -258.5q0 -161 -54.5 -310
t-152 -264.5t-244.5 -184.5t-321 -69zM885 105q105 0 196 65t152.5 172.5t96.5 245.5t35 284q0 229 -89 348t-242 119q-141 0 -252.5 -111.5t-169.5 -285t-58 -370.5q0 -229 89 -348t242 -119z" />
    <glyph glyph-name="ohungarumlaut" unicode="&#x151;" horiz-adv-x="1174" 
d="M706 1556h233v-10l-256 -374h-125zM1101 1556h263v-10l-369 -374h-132zM626 -23q-201 0 -312.5 125t-111.5 326q0 164 70 303t200 224t292 85q201 0 312.5 -125.5t111.5 -325.5q0 -164 -70 -303t-200 -224t-292 -85zM635 102q68 0 123 53.5t87.5 138t50 180.5t17.5 189
q0 123 -42.5 187.5t-116.5 64.5q-68 0 -123 -53.5t-87.5 -138t-50 -180.5t-17.5 -189q0 -123 42.5 -187.5t116.5 -64.5z" />
    <glyph glyph-name="OE" unicode="&#x152;" horiz-adv-x="2069" 
d="M255 658q0 170 59.5 319.5t167 259.5t267 174t348.5 64q83 0 199 -15.5t178 -15.5h767l-69 -379h-85q-2 56 -6.5 91t-16.5 66t-29.5 47t-49.5 29t-73 18t-103 7l-228 9l-113 -535h243q51 0 81 35.5t80 160.5h83l-109 -512h-83q7 124 -8.5 160.5t-68.5 36.5h-243
l-121 -566l243 9q102 4 160.5 15t110.5 43.5t87.5 88t76.5 152.5h83l-102 -420h-661q-78 0 -196.5 -15.5t-188.5 -15.5q-206 0 -362.5 93t-237 248.5t-80.5 347.5zM563 631q0 -239 107 -386t304 -147q32 0 59 4l259 1222q-57 22 -155 22q-138 0 -249 -59.5t-181 -160
t-107 -227.5t-37 -268z" />
    <glyph glyph-name="oe" unicode="&#x153;" horiz-adv-x="1674" 
d="M638 -23q-206 0 -324.5 128.5t-118.5 329.5q0 161 64 297.5t188 222t284 85.5q113 0 201 -45.5t142 -127.5q75 84 174.5 130t206.5 46q132 0 212.5 -64t80.5 -165q0 -68 -35.5 -124.5t-106.5 -103t-161.5 -84t-216.5 -75.5l-51 -15q12 -131 78.5 -200.5t170.5 -69.5
q138 0 231 87l-21 -102q-52 -71 -142 -110.5t-191 -39.5q-94 0 -176 39.5t-136 116.5q-143 -156 -353 -156zM1429 921q-98 0 -170.5 -112.5t-82.5 -293.5l40 13q318 101 318 280q0 52 -27.5 82.5t-77.5 30.5zM642 99q62 0 114.5 52t84.5 134t49.5 178.5t17.5 191.5
q-1 129 -43 196t-118 67q-62 0 -114.5 -52t-84.5 -134t-49.5 -178.5t-17.5 -191.5q1 -129 43 -196t118 -67z" />
    <glyph glyph-name="Racute" unicode="&#x154;" horiz-adv-x="1417" 
d="M1090 1860l248 -1v-10l-363 -285h-104zM1088 0l-241 616q-41 -3 -81 -3h-122l-84 -397q-15 -66 6.5 -87t120.5 -32l-20 -97h-612l20 97q80 8 116.5 19.5t51.5 32t25 66.5l217 1014q6 28 6.5 44.5t-5.5 30t-24.5 21t-46 13t-74.5 9.5l21 97h570q262 0 405.5 -97
t143.5 -275q0 -151 -99 -253.5t-266 -155.5l123 -304q62 -152 100 -203t94 -65l-19 -91h-326zM1181 1062q0 126 -74.5 193.5t-215.5 72.5l-95 2l-128 -605l118 3q185 5 290 92.5t105 241.5z" />
    <glyph glyph-name="racute" unicode="&#x155;" horiz-adv-x="877" 
d="M813 1556h305v-14l-428 -370h-124zM653 1030l-57 -281q106 159 173.5 222t139.5 63q52 0 80.5 -35t28.5 -95q0 -53 -23 -97q-36 15 -101 15q-96 0 -176.5 -40t-132.5 -116l-131 -666h-268l168 790q8 37 -2.5 53.5t-48.5 24.5l-85 15l20 93z" />
    <glyph glyph-name="Rcommaaccent" unicode="&#x156;" horiz-adv-x="1417" 
d="M1088 0l-241 616q-41 -3 -81 -3h-122l-84 -397q-15 -66 6.5 -87t120.5 -32l-20 -97h-612l20 97q80 8 116.5 19.5t51.5 32t25 66.5l217 1014q6 28 6.5 44.5t-5.5 30t-24.5 21t-46 13t-74.5 9.5l21 97h570q262 0 405.5 -97t143.5 -275q0 -151 -99 -253.5t-266 -155.5
l123 -304q62 -152 100 -203t94 -65l-19 -91h-326zM1181 1062q0 126 -74.5 193.5t-215.5 72.5l-95 2l-128 -605l118 3q185 5 290 92.5t105 241.5zM697 -491q-112 0 -181 46l19 85q62 -32 122 -32q53 0 84 20.5t31 54.5q0 33 -27.5 53t-69.5 20q-45 0 -77 -10l18 80
q66 57 164 57q79 0 132 -50t53 -132q0 -91 -70 -141.5t-198 -50.5z" />
    <glyph glyph-name="rcommaaccent" unicode="&#x157;" horiz-adv-x="877" 
d="M653 1030l-57 -281q106 159 173.5 222t139.5 63q52 0 80.5 -35t28.5 -95q0 -53 -23 -97q-36 15 -101 15q-96 0 -176.5 -40t-132.5 -116l-131 -666h-268l168 790q8 37 -2.5 53.5t-48.5 24.5l-85 15l20 93zM230 -491q-112 0 -181 46l19 85q62 -32 122 -32q53 0 84 20.5
t31 54.5q0 33 -27.5 53t-69.5 20q-45 0 -77 -10l18 80q67 57 164 57q79 0 132 -50t53 -132q0 -91 -70 -141.5t-198 -50.5z" />
    <glyph glyph-name="Rcaron" unicode="&#x158;" horiz-adv-x="1417" 
d="M1220 1881h114l-252 -297h-187l-127 297h107l140 -145zM1088 0l-241 616q-41 -3 -81 -3h-122l-84 -397q-15 -66 6.5 -87t120.5 -32l-20 -97h-612l20 97q80 8 116.5 19.5t51.5 32t25 66.5l217 1014q6 28 6.5 44.5t-5.5 30t-24.5 21t-46 13t-74.5 9.5l21 97h570
q262 0 405.5 -97t143.5 -275q0 -151 -99 -253.5t-266 -155.5l123 -304q62 -152 100 -203t94 -65l-19 -91h-326zM1181 1062q0 126 -74.5 193.5t-215.5 72.5l-95 2l-128 -605l118 3q185 5 290 92.5t105 241.5z" />
    <glyph glyph-name="rcaron" unicode="&#x159;" horiz-adv-x="877" 
d="M950 1556h123l-291 -384h-195l-130 384h114l146 -197zM653 1030l-57 -281q106 159 173.5 222t139.5 63q52 0 80.5 -35t28.5 -95q0 -53 -23 -97q-36 15 -101 15q-96 0 -176.5 -40t-132.5 -116l-131 -666h-268l168 790q8 37 -2.5 53.5t-48.5 24.5l-85 15l20 93z" />
    <glyph glyph-name="Sacute" unicode="&#x15a;" horiz-adv-x="1169" 
d="M1008 1860l248 -1v-10l-364 -285h-104zM612 -31q-135 0 -270.5 36t-200.5 85l53 325h86q7 -148 97.5 -230t235.5 -82q117 0 195.5 62t78.5 166q0 79 -42.5 140t-148.5 127l-78 47q-148 91 -216 186.5t-68 219.5q0 184 141.5 304t391.5 120q133 0 253 -34t181 -83
l-51 -320h-86q-8 148 -85 225.5t-214 77.5q-110 0 -180.5 -55.5t-70.5 -147.5q0 -74 46 -133.5t155 -126.5l77 -47q145 -89 210.5 -184.5t65.5 -220.5q0 -136 -75 -241t-201 -160.5t-280 -55.5z" />
    <glyph glyph-name="sacute" unicode="&#x15b;" horiz-adv-x="922" 
d="M822 1556h305v-14l-428 -370h-125zM130 85l46 252h86q4 -114 67 -176.5t161 -62.5q78 0 121 35.5t44 95.5q0 52 -27 89t-97 79l-75 41q-104 60 -153.5 130t-49.5 161q0 137 111 224t297 87q224 0 340 -77l-51 -253h-86q-1 99 -55.5 154.5t-147.5 55.5q-72 0 -112.5 -33
t-40.5 -88q0 -48 29 -83t101 -78l74 -41q106 -62 151.5 -132.5t45.5 -165.5q0 -135 -113 -228.5t-306 -93.5q-113 0 -210 30t-150 78z" />
    <glyph glyph-name="Scircumflex" unicode="&#x15c;" horiz-adv-x="1169" 
d="M729 1564h-110l252 296h175l127 -296h-102l-138 145zM612 -31q-135 0 -270.5 36t-200.5 85l53 325h86q7 -148 97.5 -230t235.5 -82q117 0 195.5 62t78.5 166q0 79 -42.5 140t-148.5 127l-78 47q-148 91 -216 186.5t-68 219.5q0 184 141.5 304t391.5 120q133 0 253 -34
t181 -83l-51 -320h-86q-8 148 -85 225.5t-214 77.5q-110 0 -180.5 -55.5t-70.5 -147.5q0 -74 46 -133.5t155 -126.5l77 -47q145 -89 210.5 -184.5t65.5 -220.5q0 -136 -75 -241t-201 -160.5t-280 -55.5z" />
    <glyph glyph-name="scircumflex" unicode="&#x15d;" horiz-adv-x="922" 
d="M507 1172h-123l292 384h195l129 -384h-114l-145 197zM130 85l46 252h86q4 -114 67 -176.5t161 -62.5q78 0 121 35.5t44 95.5q0 52 -27 89t-97 79l-75 41q-104 60 -153.5 130t-49.5 161q0 137 111 224t297 87q224 0 340 -77l-51 -253h-86q-1 99 -55.5 154.5t-147.5 55.5
q-72 0 -112.5 -33t-40.5 -88q0 -48 29 -83t101 -78l74 -41q106 -62 151.5 -132.5t45.5 -165.5q0 -135 -113 -228.5t-306 -93.5q-113 0 -210 30t-150 78z" />
    <glyph glyph-name="Scedilla" unicode="&#x15e;" horiz-adv-x="1169" 
d="M482 -491q-121 0 -201 59l20 92q62 -38 142 -39q53 1 82.5 21.5t29.5 55.5q0 39 -32.5 60t-92.5 21h-26l17 85l102 109q-116 10 -222 43t-160 74l53 325h86q7 -148 97.5 -230t235.5 -82q117 0 195.5 62t78.5 166q0 79 -42.5 140t-148.5 127l-78 47q-148 91 -216 186.5
t-68 219.5q0 184 141.5 304t391.5 120q133 0 253 -34t181 -83l-51 -320h-86q-8 148 -85 225.5t-214 77.5q-110 0 -180.5 -55.5t-70.5 -147.5q0 -74 46 -133.5t155 -126.5l77 -47q145 -89 210.5 -184.5t65.5 -220.5q0 -197 -149.5 -322.5t-376.5 -134.5l-69 -74
q89 -11 140.5 -60.5t51.5 -125.5q0 -90 -76 -145t-207 -55z" />
    <glyph glyph-name="scedilla" unicode="&#x15f;" horiz-adv-x="922" 
d="M130 85l46 252h86q4 -114 67 -176.5t161 -62.5q78 0 121 35.5t44 95.5q0 52 -27 89t-97 79l-75 41q-104 60 -153.5 130t-49.5 161q0 137 111 224t297 87q224 0 340 -77l-51 -253h-86q-1 99 -55.5 154.5t-147.5 55.5q-72 0 -112.5 -33t-40.5 -88q0 -48 29 -83t101 -78
l74 -41q106 -62 151.5 -132.5t45.5 -165.5q0 -126 -100 -217t-272 -103l-78 -84q89 -11 140.5 -60.5t51.5 -125.5q0 -90 -76 -145t-207 -55q-120 0 -202 59l21 92q62 -38 142 -39q53 1 82.5 21.5t29.5 55.5q0 39 -32.5 60t-92.5 21h-27l18 85l109 116q-192 19 -286 105z" />
    <glyph glyph-name="Scaron" unicode="&#x160;" horiz-adv-x="1169" 
d="M1138 1881h114l-252 -297h-187l-128 297h108l140 -145zM612 -31q-135 0 -270.5 36t-200.5 85l53 325h86q7 -148 97.5 -230t235.5 -82q117 0 195.5 62t78.5 166q0 79 -42.5 140t-148.5 127l-78 47q-148 91 -216 186.5t-68 219.5q0 184 141.5 304t391.5 120q133 0 253 -34
t181 -83l-51 -320h-86q-8 148 -85 225.5t-214 77.5q-110 0 -180.5 -55.5t-70.5 -147.5q0 -74 46 -133.5t155 -126.5l77 -47q145 -89 210.5 -184.5t65.5 -220.5q0 -136 -75 -241t-201 -160.5t-280 -55.5z" />
    <glyph glyph-name="scaron" unicode="&#x161;" horiz-adv-x="922" 
d="M959 1556h123l-292 -384h-194l-130 384h114l146 -197zM130 85l46 252h86q4 -114 67 -176.5t161 -62.5q78 0 121 35.5t44 95.5q0 52 -27 89t-97 79l-75 41q-104 60 -153.5 130t-49.5 161q0 137 111 224t297 87q224 0 340 -77l-51 -253h-86q-1 99 -55.5 154.5t-147.5 55.5
q-72 0 -112.5 -33t-40.5 -88q0 -48 29 -83t101 -78l74 -41q106 -62 151.5 -132.5t45.5 -165.5q0 -135 -113 -228.5t-306 -93.5q-113 0 -210 30t-150 78z" />
    <glyph glyph-name="Tcedilla" unicode="&#x162;" horiz-adv-x="1353" 
d="M575 -491q-120 0 -202 59l21 92q62 -39 141 -39q53 0 82.5 21t29.5 56q0 39 -32 60t-94 21h-25l18 85l126 136h-294l21 96q88 9 128 21t56.5 33t26.5 66l237 1116l-52 -1q-81 -3 -131.5 -10t-95 -22.5t-74 -46t-55.5 -74.5t-53 -114h-87l91 380h1250l-70 -380h-87
q2 58 -1.5 97.5t-17 70t-33 47.5t-56 29t-79 16.5t-109.5 6.5l-51 1l-237 -1116q-6 -28 -6 -44t7 -29.5t27 -21t50 -13.5t82 -12l-20 -96h-243l-99 -105q90 -11 141 -60.5t51 -125.5q0 -90 -75.5 -145t-206.5 -55z" />
    <glyph glyph-name="tcedilla" unicode="&#x163;" horiz-adv-x="772" 
d="M397 -491q-120 0 -202 59l21 92q60 -38 141 -39q53 1 82.5 21.5t29.5 55.5q0 39 -32 60t-93 21h-26l18 85l111 120q-124 15 -175.5 106t-19.5 240l114 538h-157l18 87l163 27l44 201l279 39l-51 -236l284 10l-27 -128h-283l-107 -508q-44 -212 119 -212q106 0 165 53
l-20 -100q-32 -39 -91 -69t-127 -43l-88 -94q90 -11 141 -60.5t51 -125.5q0 -90 -75.5 -145t-206.5 -55z" />
    <glyph glyph-name="Tcaron" unicode="&#x164;" horiz-adv-x="1353" 
d="M1249 1881h114l-252 -297h-187l-127 297h108l139 -145zM1608 1444l-70 -380h-87q2 58 -1.5 97.5t-17 70t-33 47.5t-56 29t-79 16.5t-109.5 6.5l-51 1l-237 -1116q-6 -28 -6 -44t7 -29.5t27 -21t50 -13.5t82 -12l-20 -96h-661l21 96q88 9 128 21t56.5 33t26.5 66l237 1116
l-52 -1q-81 -3 -131.5 -10t-95 -22.5t-74 -46t-55.5 -74.5t-53 -114h-87l91 380h1250z" />
    <glyph glyph-name="tcaron" unicode="&#x165;" horiz-adv-x="772" 
d="M908 1118h-98l136 438h220zM495 -19q-149 0 -213 93t-30 256l114 538h-157l18 87l163 27l44 201l279 39l-51 -236l284 10l-27 -128h-283l-107 -508q-44 -212 119 -212q106 0 165 53l-20 -100q-41 -52 -126 -86t-172 -34z" />
    <glyph glyph-name="Tbar" unicode="&#x166;" horiz-adv-x="1353" 
d="M418 685l23 110h260l114 537l-52 -1q-81 -3 -131.5 -10t-95 -22.5t-74 -46t-55.5 -74.5t-53 -114h-87l91 380h1250l-70 -380h-87q2 58 -1.5 97.5t-17 70t-33 47.5t-56 29t-79 16.5t-109.5 6.5l-51 1l-114 -537h259l-22 -110h-261l-99 -469q-6 -28 -6 -44t7 -30t27 -21.5
t50.5 -13.5t81.5 -11l-20 -96h-661l21 96q88 9 128 21t56.5 33t26.5 66l99 469h-259z" />
    <glyph glyph-name="tbar" unicode="&#x167;" horiz-adv-x="772" 
d="M495 -19q-149 0 -213 93t-30 256l40 189h-120l24 110h119l51 239h-157l18 87l163 27l44 201l279 39l-51 -236l284 10l-27 -128h-283l-50 -239h319l-24 -110h-319l-33 -159q-44 -212 119 -212q104 0 165 53l-20 -100q-41 -52 -126 -86t-172 -34z" />
    <glyph glyph-name="Utilde" unicode="&#x168;" horiz-adv-x="1522" 
d="M1268 1596q-68 0 -129 52l-26 23q-34 31 -63 31q-25 0 -41 -25t-25 -90h-95q16 143 62 202.5t116 59.5q69 0 130 -52l26 -22q32 -32 62 -32q25 0 41.5 25t25.5 90h95q-17 -143 -62.5 -202.5t-116.5 -59.5zM795 -31q-124 0 -225 40.5t-169 120t-91 197.5t9 273l130 614
q16 70 -5.5 93.5t-116.5 39.5l21 97h607l-19 -97q-115 -16 -149 -39.5t-49 -93.5l-130 -606q-35 -157 -4.5 -258t103.5 -148t183 -47q148 0 261 101t156 305l135 653q7 30 7.5 47.5t-5 32.5t-24 23.5t-45 15.5t-73.5 14l21 97h461l-20 -97q-101 -16 -132 -39.5t-46 -93.5
l-149 -672q-60 -276 -229 -424.5t-413 -148.5z" />
    <glyph glyph-name="utilde" unicode="&#x169;" horiz-adv-x="1233" 
d="M985 1207q-81 0 -154 65l-33 29q-43 40 -78 40q-30 0 -50 -31t-32 -113h-107q20 174 74 247.5t137 73.5q81 0 155 -64l33 -30q44 -39 77 -39q31 0 51 30.5t32 112.5h108q-21 -175 -75 -248t-138 -73zM648 1031l-146 -697q-20 -92 11.5 -140.5t99.5 -48.5q87 0 154 73.5
t93 194.5l81 377q8 37 -2 53t-47 25l-81 15l19 87l431 61l-169 -787q-19 -93 50 -93t121 40l-22 -99q-39 -47 -115.5 -78t-149.5 -31q-86 0 -123.5 50.5t-21.5 144.5q0 2 8 42q-61 -118 -152 -180.5t-200 -62.5q-152 0 -219.5 101t-32.5 267l94 445q8 37 -2 54t-47 24
l-86 15l20 93z" />
    <glyph glyph-name="Umacron" unicode="&#x16a;" horiz-adv-x="1522" 
d="M874 1629l32 147h546l-31 -147h-547zM795 -31q-124 0 -225 40.5t-169 120t-91 197.5t9 273l130 614q16 70 -5.5 93.5t-116.5 39.5l21 97h607l-19 -97q-115 -16 -149 -39.5t-49 -93.5l-130 -606q-35 -157 -4.5 -258t103.5 -148t183 -47q148 0 261 101t156 305l135 653
q7 30 7.5 47.5t-5 32.5t-24 23.5t-45 15.5t-73.5 14l21 97h461l-20 -97q-101 -16 -132 -39.5t-46 -93.5l-149 -672q-60 -276 -229 -424.5t-413 -148.5z" />
    <glyph glyph-name="umacron" unicode="&#x16b;" horiz-adv-x="1233" 
d="M539 1266l34 161h607l-34 -161h-607zM648 1031l-146 -697q-20 -92 11.5 -140.5t99.5 -48.5q87 0 154 73.5t93 194.5l81 377q8 37 -2 53t-47 25l-81 15l19 87l431 61l-169 -787q-19 -93 50 -93t121 40l-22 -99q-39 -47 -115.5 -78t-149.5 -31q-86 0 -123.5 50.5
t-21.5 144.5q0 2 8 42q-61 -118 -152 -180.5t-200 -62.5q-152 0 -219.5 101t-32.5 267l94 445q8 37 -2 54t-47 24l-86 15l20 93z" />
    <glyph glyph-name="Ubreve" unicode="&#x16c;" horiz-adv-x="1522" 
d="M1176 1583q-113 0 -186.5 63.5t-74.5 162.5q0 47 17 89h94q-2 -12 -2 -26q0 -53 44.5 -89.5t114.5 -36.5q80 0 130 39.5t64 112.5h95q-5 -148 -84 -231.5t-212 -83.5zM795 -31q-124 0 -225 40.5t-169 120t-91 197.5t9 273l130 614q16 70 -5.5 93.5t-116.5 39.5l21 97h607
l-19 -97q-115 -16 -149 -39.5t-49 -93.5l-130 -606q-35 -157 -4.5 -258t103.5 -148t183 -47q148 0 261 101t156 305l135 653q7 30 7.5 47.5t-5 32.5t-24 23.5t-45 15.5t-73.5 14l21 97h461l-20 -97q-101 -16 -132 -39.5t-46 -93.5l-149 -672q-60 -276 -229 -424.5
t-413 -148.5z" />
    <glyph glyph-name="ubreve" unicode="&#x16d;" horiz-adv-x="1233" 
d="M869 1180q-124 0 -204.5 74t-80.5 188q0 54 19 104h104q-3 -12 -3 -30q0 -62 49 -104t127 -42q90 0 146 46t70 130h104q-7 -172 -95.5 -269t-235.5 -97zM648 1031l-146 -697q-20 -92 11.5 -140.5t99.5 -48.5q87 0 154 73.5t93 194.5l81 377q8 37 -2 53t-47 25l-81 15
l19 87l431 61l-169 -787q-19 -93 50 -93t121 40l-22 -99q-39 -47 -115.5 -78t-149.5 -31q-86 0 -123.5 50.5t-21.5 144.5q0 2 8 42q-61 -118 -152 -180.5t-200 -62.5q-152 0 -219.5 101t-32.5 267l94 445q8 37 -2 54t-47 24l-86 15l20 93z" />
    <glyph glyph-name="Uring" unicode="&#x16e;" horiz-adv-x="1522" 
d="M926 1750q0 91 72 151t192 60q104 0 169 -52.5t65 -138.5q0 -91 -72 -151t-192 -60q-104 0 -169 52t-65 139zM1083 1745q0 -43 21.5 -67.5t59.5 -24.5q43 0 73.5 34.5t30.5 88.5q0 42 -22 66.5t-59 24.5q-43 0 -73.5 -34.5t-30.5 -87.5zM795 -31q-124 0 -225 40.5
t-169 120t-91 197.5t9 273l130 614q16 70 -5.5 93.5t-116.5 39.5l21 97h607l-19 -97q-115 -16 -149 -39.5t-49 -93.5l-130 -606q-35 -157 -4.5 -258t103.5 -148t183 -47q148 0 261 101t156 305l135 653q7 30 7.5 47.5t-5 32.5t-24 23.5t-45 15.5t-73.5 14l21 97h461l-20 -97
q-101 -16 -132 -39.5t-46 -93.5l-149 -672q-60 -276 -229 -424.5t-413 -148.5z" />
    <glyph glyph-name="uring" unicode="&#x16f;" horiz-adv-x="1233" 
d="M587 1352q0 102 80 167.5t213 65.5q115 0 188 -57t73 -152q0 -101 -80.5 -167t-214.5 -66q-114 0 -186.5 57.5t-72.5 151.5zM761 1346q0 -48 23.5 -75.5t65.5 -27.5q47 0 81.5 39.5t34.5 99.5q0 48 -24 75.5t-65 27.5q-47 0 -81.5 -39t-34.5 -100zM648 1031l-146 -697
q-20 -92 11.5 -140.5t99.5 -48.5q87 0 154 73.5t93 194.5l81 377q8 37 -2 53t-47 25l-81 15l19 87l431 61l-169 -787q-19 -93 50 -93t121 40l-22 -99q-39 -47 -115.5 -78t-149.5 -31q-86 0 -123.5 50.5t-21.5 144.5q0 2 8 42q-61 -118 -152 -180.5t-200 -62.5
q-152 0 -219.5 101t-32.5 267l94 445q8 37 -2 54t-47 24l-86 15l20 93z" />
    <glyph glyph-name="Uhungarumlaut" unicode="&#x170;" horiz-adv-x="1522" 
d="M1068 1861h187v-7l-203 -290h-100zM1384 1861h209v-7l-292 -290h-105zM795 -31q-124 0 -225 40.5t-169 120t-91 197.5t9 273l130 614q16 70 -5.5 93.5t-116.5 39.5l21 97h607l-19 -97q-115 -16 -149 -39.5t-49 -93.5l-130 -606q-35 -157 -4.5 -258t103.5 -148t183 -47
q148 0 261 101t156 305l135 653q7 30 7.5 47.5t-5 32.5t-24 23.5t-45 15.5t-73.5 14l21 97h461l-20 -97q-101 -16 -132 -39.5t-46 -93.5l-149 -672q-60 -276 -229 -424.5t-413 -148.5z" />
    <glyph glyph-name="uhungarumlaut" unicode="&#x171;" horiz-adv-x="1233" 
d="M745 1556h233v-10l-257 -374h-124zM1140 1556h262v-10l-368 -374h-132zM648 1031l-146 -697q-20 -92 11.5 -140.5t99.5 -48.5q87 0 154 73.5t93 194.5l81 377q8 37 -2 53t-47 25l-81 15l19 87l431 61l-169 -787q-19 -93 50 -93t121 40l-22 -99q-39 -47 -115.5 -78
t-149.5 -31q-86 0 -123.5 50.5t-21.5 144.5q0 2 8 42q-61 -118 -152 -180.5t-200 -62.5q-152 0 -219.5 101t-32.5 267l94 445q8 37 -2 54t-47 24l-86 15l20 93z" />
    <glyph glyph-name="Uogonek" unicode="&#x172;" horiz-adv-x="1522" 
d="M750 -486q-98 0 -159.5 50.5t-61.5 129.5q0 148 207 277q-113 10 -202 54.5t-149 123.5t-78 192t12 259l130 614q16 70 -5.5 93.5t-116.5 39.5l21 97h607l-19 -97q-115 -16 -149 -39.5t-49 -93.5l-130 -606q-35 -157 -4.5 -258t103.5 -148t183 -47q148 0 261 101t156 305
l135 653q7 30 7.5 47.5t-5 32.5t-24 23.5t-45 15.5t-73.5 14l21 97h461l-20 -97q-101 -16 -132 -39.5t-46 -93.5l-149 -672q-56 -258 -209 -405.5t-374 -165.5q-84 -87 -84 -190q0 -60 28 -97.5t74 -37.5q47 0 81 27l-20 -95q-66 -64 -183 -64z" />
    <glyph glyph-name="uogonek" unicode="&#x173;" horiz-adv-x="1233" 
d="M943 -486q-88 0 -142.5 46t-54.5 122t61 149.5t194 152.5q-8 -1 -25 -1q-86 0 -123.5 50.5t-21.5 144.5q0 2 8 42q-61 -118 -152 -180.5t-200 -62.5q-152 0 -219.5 101t-32.5 267l94 445q8 37 -2 54t-47 24l-86 15l20 93l434 55l-146 -697q-20 -92 11.5 -140.5
t99.5 -48.5q87 0 154 73.5t93 194.5l81 377q8 37 -2 53t-47 25l-81 15l19 87l431 61l-169 -787q-19 -93 50 -93t121 40l-22 -99q-4 -4 -7 -6q-130 -105 -192 -187t-62 -154q0 -47 23 -73t60 -26q53 0 88 27l-20 -95q-26 -27 -77.5 -45.5t-110.5 -18.5z" />
    <glyph glyph-name="Wcircumflex" unicode="&#x174;" horiz-adv-x="2157" 
d="M1328 1564h-109l251 296h176l126 -296h-102l-138 145zM438 1152q-7 80 -23 118t-44.5 53.5t-89.5 23.5l20 97h619l-21 -97q-116 -16 -143 -49t-19 -147l55 -889l429 893q23 47 32.5 75t11 51t-13 34.5t-40 19t-70.5 12.5l21 97h599l-20 -97q-42 -6 -67.5 -11.5t-46.5 -15
t-29.5 -23t-16 -34t-5.5 -47.5t2 -65l55 -889l430 893q19 39 29 64t13.5 47t-1.5 34.5t-20.5 22.5t-39 15t-61.5 9l21 97h466l-21 -97q-96 -11 -139.5 -45.5t-103.5 -153.5l-589 -1148h-239l-73 1044l-531 -1044h-235z" />
    <glyph glyph-name="wcircumflex" unicode="&#x175;" horiz-adv-x="1554" 
d="M857 1172h-123l292 384h194l130 -384h-114l-146 197zM565 1031l36 -803q113 184 181.5 334t80.5 295l-6 133l245 41l36 -829q253 286 331 552q-57 4 -96.5 45t-39.5 96q0 62 44.5 103.5t110.5 41.5q69 0 112.5 -44t43.5 -115q0 -141 -171.5 -406t-382.5 -475h-186
l-26 544q-115 -272 -328 -544h-193l-52 799q-2 33 -16.5 48.5t-54.5 22.5l-77 13l20 95z" />
    <glyph glyph-name="Ycircumflex" unicode="&#x176;" horiz-adv-x="1356" 
d="M882 1564h-109l251 296h176l126 -296h-102l-138 145zM469 1162q-38 106 -72 139.5t-116 45.5l20 97h622l-20 -97q-114 -13 -136.5 -48.5t12.5 -135.5l141 -420l316 420q33 43 49 69.5t21.5 48t-7 33.5t-37.5 20t-70 13l21 97h456l-21 -97q-89 -12 -135.5 -44t-133.5 -141
l-424 -536l-87 -410q-6 -28 -5.5 -44t7 -29.5t27 -21.5t50.5 -13.5t82 -11.5l-21 -96h-660l20 96q89 9 129 21t56.5 32.5t26.5 66.5l85 405z" />
    <glyph glyph-name="ycircumflex" unicode="&#x177;" horiz-adv-x="1034" 
d="M569 1172h-123l292 384h194l130 -384h-114l-145 197zM564 1031l29 -875q289 355 363 597q-60 1 -102 42.5t-42 99.5q0 62 44.5 103.5t110.5 41.5q69 0 112.5 -44t43.5 -115q0 -107 -117.5 -313.5t-349.5 -497.5q-104 -127 -175 -208q-155 -183 -281 -322h-293v24
q109 75 236.5 177t214.5 184l-51 871q-2 35 -17.5 50.5t-56.5 23.5l-77 13l19 95z" />
    <glyph glyph-name="Ydieresis" unicode="&#x178;" horiz-adv-x="1356" 
d="M904 1596q-49 0 -81 31.5t-32 78.5q1 52 37 88t86 36q49 0 80.5 -32t30.5 -79q0 -51 -35.5 -87t-85.5 -36zM1250 1596q-49 0 -81 31.5t-32 78.5q1 52 37 88t86 36q49 0 80.5 -32t30.5 -79q0 -51 -35.5 -87t-85.5 -36zM469 1162q-38 106 -72 139.5t-116 45.5l20 97h622
l-20 -97q-114 -13 -136.5 -48.5t12.5 -135.5l141 -420l316 420q33 43 49 69.5t21.5 48t-7 33.5t-37.5 20t-70 13l21 97h456l-21 -97q-89 -12 -135.5 -44t-133.5 -141l-424 -536l-87 -410q-6 -28 -5.5 -44t7 -29.5t27 -21.5t50.5 -13.5t82 -11.5l-21 -96h-660l20 96
q89 9 129 21t56.5 32.5t26.5 66.5l85 405z" />
    <glyph glyph-name="Zacute" unicode="&#x179;" horiz-adv-x="1226" 
d="M1036 1860l248 -1v-10l-363 -285h-104zM1146 0h-1078l19 91l990 1241l-282 -10q-93 -3 -147 -13t-98 -40t-72 -75.5t-63 -129.5h-87l91 380h1017l-19 -91l-990 -1241l285 10q72 3 115.5 7t90 16t75 30.5t59.5 52t55.5 79.5t52.5 113h87z" />
    <glyph glyph-name="zacute" unicode="&#x17a;" horiz-adv-x="961" 
d="M815 1556h305v-14l-428 -370h-124zM88 52l682 756h-313q-66 0 -93.5 -22.5t-58.5 -103.5h-87l86 335h761l-20 -94l-557 -604l61 -37q80 -48 130.5 -67t109.5 -20q94 0 169 117l65 -56q-72 -146 -163.5 -213.5t-191.5 -67.5q-71 0 -137 24.5t-163 89.5l-57 38l-1 -1
l-138 -154z" />
    <glyph glyph-name="Zdotaccent" unicode="&#x17b;" horiz-adv-x="1226" 
d="M952 1588q-52 0 -87 33.5t-35 82.5q0 55 38.5 93t92.5 38q52 0 86.5 -33.5t34.5 -83.5q0 -54 -38.5 -92t-91.5 -38zM1146 0h-1078l19 91l990 1241l-282 -10q-93 -3 -147 -13t-98 -40t-72 -75.5t-63 -129.5h-87l91 380h1017l-19 -91l-990 -1241l285 10q72 3 115.5 7t90 16
t75 30.5t59.5 52t55.5 79.5t52.5 113h87z" />
    <glyph glyph-name="zdotaccent" unicode="&#x17c;" horiz-adv-x="961" 
d="M720 1216q-61 0 -101 39.5t-40 98.5q0 64 45 109t108 45q61 0 101 -40t40 -99q0 -64 -44.5 -108.5t-108.5 -44.5zM88 52l682 756h-313q-66 0 -93.5 -22.5t-58.5 -103.5h-87l86 335h761l-20 -94l-557 -604l61 -37q80 -48 130.5 -67t109.5 -20q94 0 169 117l65 -56
q-72 -146 -163.5 -213.5t-191.5 -67.5q-71 0 -137 24.5t-163 89.5l-57 38l-1 -1l-138 -154z" />
    <glyph glyph-name="Zcaron" unicode="&#x17d;" horiz-adv-x="1226" 
d="M1166 1881h114l-252 -297h-187l-127 297h107l140 -145zM1146 0h-1078l19 91l990 1241l-282 -10q-93 -3 -147 -13t-98 -40t-72 -75.5t-63 -129.5h-87l91 380h1017l-19 -91l-990 -1241l285 10q72 3 115.5 7t90 16t75 30.5t59.5 52t55.5 79.5t52.5 113h87z" />
    <glyph glyph-name="zcaron" unicode="&#x17e;" horiz-adv-x="961" 
d="M952 1556h123l-291 -384h-195l-130 384h114l146 -197zM88 52l682 756h-313q-66 0 -93.5 -22.5t-58.5 -103.5h-87l86 335h761l-20 -94l-557 -604l61 -37q80 -48 130.5 -67t109.5 -20q94 0 169 117l65 -56q-72 -146 -163.5 -213.5t-191.5 -67.5q-71 0 -137 24.5t-163 89.5
l-57 38l-1 -1l-138 -154z" />
    <glyph glyph-name="Schwa" unicode="&#x18f;" horiz-adv-x="1525" 
d="M794 -31q-144 0 -256.5 40t-182.5 111t-105.5 164t-35.5 204q0 101 35 220h992q4 49 4 113q0 246 -89.5 382.5t-274.5 136.5q-140 0 -242.5 -71.5t-173.5 -234.5h-88l75 329q80 51 200 81.5t247 30.5q312 0 487 -186.5t175 -502.5q0 -227 -93.5 -412t-270 -295
t-403.5 -110zM484 448q0 -162 80 -256.5t232 -94.5q171 0 282 132.5t149 359.5h-728q-15 -77 -15 -141z" />
    <glyph glyph-name="florin" unicode="&#x192;" horiz-adv-x="1225" 
d="M392 848h290l99 237q74 182 207.5 285t291.5 104q110 0 165.5 -46.5t55.5 -119.5q0 -49 -33 -81.5t-81 -32.5q-49 0 -80.5 33t-30.5 82q0 29 14 54q-61 -2 -103 -42t-81 -135l-142 -338h305l-18 -85h-323l-170 -405q-74 -183 -207.5 -286t-291.5 -103q-113 0 -170 47
t-48 118q6 50 43 83t84 33q48 0 76 -33.5t22 -82.5q-5 -31 -22 -55q64 1 107 40t84 137l212 507h-273z" />
    <glyph glyph-name="Ohorn" unicode="&#x1a0;" horiz-adv-x="1633" 
d="M244 642q1 129 35 251t101 226.5t158.5 183t215 123.5t262.5 45q85 0 200.5 -13.5t174.5 -13.5q125 0 198 83.5t73 202.5q0 51 -11 74h91q47 -38 76 -95.5t29 -120.5q0 -111 -94 -171.5t-237 -60.5q-59 0 -119 10q134 -88 206 -237t72 -327q0 -129 -34 -251t-101 -226.5
t-159 -183t-215.5 -123.5t-262.5 -45q-156 0 -283 53.5t-208.5 145t-125 212.5t-42.5 258zM554 573q0 -230 89 -349t243 -119q138 0 249.5 111t170.5 285.5t59 370.5q0 229 -89 348t-243 119q-140 0 -251.5 -111t-169.5 -284.5t-58 -370.5z" />
    <glyph glyph-name="ohorn" unicode="&#x1a1;" horiz-adv-x="1308" 
d="M202 428q0 172 73 312t204.5 220.5t296.5 80.5q59 0 139.5 -11.5t116.5 -11.5q118 0 197.5 78t79.5 194q0 39 -9 68h84q43 -34 69 -87t26 -115q0 -109 -84 -167.5t-227 -58.5q-72 0 -144 18q81 -58 122.5 -152.5t41.5 -211.5q0 -162 -70 -300t-200 -222.5t-292 -84.5
q-201 0 -312.5 125.5t-111.5 325.5zM476 354q0 -123 42.5 -187.5t116.5 -64.5q68 0 123 53.5t87.5 138t50 180.5t17.5 189q0 123 -42.5 187.5t-116.5 64.5q-68 0 -123 -53.5t-87.5 -138t-50 -180.5t-17.5 -189z" />
    <glyph glyph-name="Uhorn" unicode="&#x1af;" horiz-adv-x="1620" 
d="M319 600l130 614q16 70 -5.5 93.5t-116.5 39.5l21 97h607l-19 -97q-115 -16 -149 -39.5t-49 -93.5l-130 -606q-35 -157 -4.5 -258t103.5 -148t183 -47q148 0 261 101t156 305l135 653q7 30 7.5 47.5t-5 32.5t-24 23.5t-45 15.5t-73.5 14l21 97h117q152 0 235 82t83 204
q0 51 -11 74h91q41 -36 67.5 -92.5t26.5 -117.5q0 -104 -74 -162.5t-200 -58.5q-12 0 -34 2l-187 -833q-61 -276 -229.5 -424.5t-412.5 -148.5q-124 0 -225 40.5t-169 120t-91 197.5t9 273z" />
    <glyph glyph-name="uhorn" unicode="&#x1b0;" horiz-adv-x="1349" 
d="M649 1034l-147 -697q-19 -92 12 -141t100 -49q86 0 153.5 74t93.5 195l81 377q8 37 -2.5 53t-47.5 25l-80 15l18 87l137 19q199 27 285 101.5t86 195.5q0 45 -9 69h84q43 -34 69.5 -86t26.5 -112q0 -96 -62.5 -148.5t-164.5 -52.5q-13 0 -37 2l-152 -715q-19 -93 50 -93
t120 41l-21 -99q-39 -47 -115.5 -78t-149.5 -31q-87 0 -124 50.5t-21 144.5q0 2 8 42q-61 -118 -152 -180.5t-200 -62.5q-153 0 -220 100.5t-32 267.5l94 445q8 37 -2 53.5t-47 24.5l-87 15l20 92z" />
    <glyph glyph-name="uni01C4" unicode="&#x1c4;" horiz-adv-x="2785" 
d="M2725 1881h114l-252 -297h-187l-127 297h108l139 -145zM1618 827q0 -180 -74.5 -334t-206.5 -262t-318 -169.5t-402 -61.5h-562l21 97q80 9 116 21t51.5 32.5t25.5 66.5l216 1010q14 66 -10.5 86.5t-132.5 33.5l20 97h516q342 0 541 -166t199 -451zM2705 0h-1078l20 91
l989 1241l-282 -10q-93 -3 -146.5 -13t-98 -40t-72.5 -75.5t-63 -129.5h-87l91 380h1018l-20 -91l-990 -1241l285 10q61 2 100.5 5.5t81 11.5t69 21.5t56 34.5t51 52.5t44.5 73t46 99.5h88zM1297 855q0 204 -110.5 332.5t-319.5 140.5l-72 4l-259 -1220l94 4
q296 13 481.5 214.5t185.5 524.5z" />
    <glyph glyph-name="uni01C5" unicode="&#x1c5;" horiz-adv-x="2519" 
d="M2511 1556h123l-291 -384h-195l-129 384h113l146 -197zM1618 827q0 -180 -74.5 -334t-206.5 -262t-318 -169.5t-402 -61.5h-562l21 97q80 9 116 21t51.5 32.5t25.5 66.5l216 1010q14 66 -10.5 86.5t-132.5 33.5l20 97h516q342 0 541 -166t199 -451zM1297 855
q0 204 -110.5 332.5t-319.5 140.5l-72 4l-259 -1220l94 4q296 13 481.5 214.5t185.5 524.5zM1647 52l682 756h-312q-66 0 -93.5 -22.5t-59.5 -103.5h-87l86 335h762l-21 -94l-557 -604l61 -37q80 -48 131 -67t109 -20q94 0 169 117l66 -56q-140 -281 -356 -281
q-71 0 -137 25t-163 89l-57 38l-1 -1l-138 -154z" />
    <glyph glyph-name="uni01C6" unicode="&#x1c6;" horiz-adv-x="2155" 
d="M2147 1556h123l-291 -384h-195l-129 384h113l146 -197zM188 352q0 138 40 264t110 219.5t171 149t216 55.5q141 0 214 -78l63 296q8 37 -2 53.5t-48 24.5l-86 15l21 93l435 55l-267 -1255q-20 -93 50 -93q69 0 119 40l-21 -99q-40 -47 -116.5 -78t-151.5 -31
q-86 0 -122.5 50.5t-19.5 144.5q0 7 7 42q-52 -118 -137.5 -180.5t-194.5 -62.5q-120 0 -200 98.5t-80 276.5zM1283 52l682 756h-312q-66 0 -93.5 -22.5t-59.5 -103.5h-87l86 335h762l-21 -94l-557 -604l61 -37q81 -48 131 -67t109 -20q94 0 169 117l65 -56
q-72 -146 -163.5 -213.5t-191.5 -67.5q-71 0 -137 25t-163 89l-57 38l-1 -1l-138 -154zM464 369q-1 -229 133 -229q74 0 136.5 73.5t90.5 207.5l88 410q-9 33 -48 56t-95 23q-73 0 -133 -51t-96.5 -131.5t-56 -174t-19.5 -184.5z" />
    <glyph glyph-name="uni01C7" unicode="&#x1c7;" horiz-adv-x="1921" 
d="M1754 266q-24 -112 -65 -199t-93.5 -151t-134.5 -120t-167.5 -97.5t-212.5 -92.5l-27 81q126 76 199.5 146t127.5 179t90 278l200 938q14 66 -10 86.5t-133 33.5l20 97h624l-20 -97q-80 -9 -116.5 -21t-51.5 -32.5t-25 -66.5zM1130 0h-1075l21 97q80 9 116.5 21
t51.5 32.5t25 66.5l215 1010q14 67 -9.5 87.5t-132.5 32.5l20 97h636l-20 -96q-86 -9 -124.5 -21t-54.5 -32.5t-26 -66.5l-237 -1116l198 6q67 3 111 11t88 28t77.5 57.5t68.5 96.5t74 148h87z" />
    <glyph glyph-name="uni01C8" unicode="&#x1c8;" horiz-adv-x="1800" 
d="M1756 1209q-64 0 -106.5 41.5t-42.5 103.5q0 67 47.5 114t113.5 47q64 0 106.5 -41.5t42.5 -103.5q0 -67 -47 -114t-114 -47zM1130 0h-1075l21 97q80 9 116.5 21t51.5 32.5t25 66.5l215 1010q14 67 -9.5 87.5t-132.5 32.5l20 97h636l-20 -96q-86 -9 -124.5 -21
t-54.5 -32.5t-26 -66.5l-237 -1116l198 6q67 3 111 11t88 28t77.5 57.5t68.5 96.5t74 148h87zM1856 1030l-204 -960q-34 -156 -92.5 -256.5t-164 -172t-275.5 -121.5l-30 87q72 32 120 73t81.5 103t54 129t43.5 177l148 701q8 37 -2 53.5t-48 24.5l-86 15l21 93z" />
    <glyph glyph-name="uni01C9" unicode="&#x1c9;" horiz-adv-x="1238" 
d="M1195 1209q-65 0 -107 41.5t-42 103.5q0 67 47 114t114 47q64 0 106.5 -41.5t42.5 -103.5q0 -67 -47 -114t-114 -47zM751 1499l-267 -1255q-19 -93 50 -93t119 40l-21 -99q-40 -47 -116.5 -78t-153.5 -31q-99 0 -137.5 59.5t-13.5 177.5l221 1038q8 37 -2 53.5t-48 24.5
l-86 15l20 93zM1295 1030l-205 -960q-25 -117 -62.5 -200t-100 -150t-151.5 -114.5t-217 -85.5l-30 87q58 26 100.5 59t72 70.5t52.5 94t38.5 113.5t34.5 145l149 701q8 37 -2 53.5t-48 24.5l-86 15l20 93z" />
    <glyph glyph-name="uni01CA" unicode="&#x1ca;" horiz-adv-x="2275" 
d="M2108 266q-24 -112 -65 -199t-93.5 -151t-134.5 -120t-167.5 -97.5t-212.5 -92.5l-27 81q126 76 199.5 146t127.5 179t90 278l199 938q14 66 -10 86.5t-132 33.5l20 97h624l-20 -97q-80 -9 -116.5 -21t-51.5 -32.5t-25 -66.5zM779 1444l499 -1144l180 914q5 26 6.5 42
t-1.5 31t-11.5 23t-27 15.5t-43 12t-63.5 9.5l21 97h462l-20 -97q-101 -13 -132 -36.5t-47 -96.5l-268 -1214h-264l-499 1145l-181 -915q-15 -73 8 -95.5t132 -37.5l-20 -97h-463l21 97q100 13 131.5 37t47.5 96l213 970q14 51 9 81.5t-34.5 44.5t-100.5 21l20 97h425z" />
    <glyph glyph-name="uni01CB" unicode="&#x1cb;" horiz-adv-x="2154" 
d="M2110 1209q-64 0 -106.5 41.5t-42.5 103.5q0 67 47 114t114 47q64 0 106.5 -41.5t42.5 -103.5q0 -67 -47 -114t-114 -47zM779 1444l499 -1144l180 914q5 26 6.5 42t-1.5 31t-11.5 23t-27 15.5t-43 12t-63.5 9.5l21 97h462l-20 -97q-101 -13 -132 -36.5t-47 -96.5
l-268 -1214h-264l-499 1145l-181 -915q-15 -73 8 -95.5t132 -37.5l-20 -97h-463l21 97q100 13 131.5 37t47.5 96l213 970q14 51 9 81.5t-34.5 44.5t-100.5 21l20 97h425zM2210 1030l-205 -960q-25 -117 -62.5 -200t-100 -150t-151.5 -114.5t-217 -85.5l-30 87q72 32 120 73
t81.5 103t53.5 129t43 177l149 701q8 37 -2 53.5t-48 24.5l-86 15l21 93z" />
    <glyph glyph-name="uni01CC" unicode="&#x1cc;" horiz-adv-x="1861" 
d="M1817 1209q-64 0 -106.5 41.5t-42.5 103.5q0 67 47.5 114t114.5 47q64 0 106 -41.5t42 -103.5q0 -67 -47 -114t-114 -47zM659 1030l-54 -251q127 261 358 261q154 0 216.5 -97.5t26.5 -266.5l-93 -432q-20 -93 50 -93q69 0 120 40l-22 -99q-40 -47 -117 -78t-153 -31
q-199 0 -151 237l97 461q20 94 -9.5 145.5t-95.5 51.5q-79 0 -154 -84.5t-102 -213.5l-122 -580h-268l168 790q8 37 -2.5 53.5t-48.5 24.5l-85 15l20 93zM1917 1030l-204 -960q-33 -155 -92 -256t-164.5 -172.5t-275.5 -121.5l-30 87q72 32 120 73t81.5 103t54 129t43.5 177
l149 701q8 37 -2.5 53.5t-48.5 24.5l-86 15l21 93z" />
    <glyph glyph-name="Acaron" unicode="&#x1cd;" horiz-adv-x="1425" 
d="M1264 1881h115l-253 -297h-187l-127 297h108l140 -145zM1290 292q15 -115 43 -149t117 -46l-20 -97h-627l21 97q118 16 147 50.5t17 146.5l-21 183h-464l-98 -183q-25 -47 -36.5 -76t-13 -51t14.5 -34.5t41.5 -20.5t72.5 -15l-20 -97h-470l21 97q96 12 137.5 46
t108.5 154l640 1147h239zM566 596h388l-67 600z" />
    <glyph glyph-name="acaron" unicode="&#x1ce;" horiz-adv-x="1191" 
d="M1068 1556h122l-291 -384h-195l-129 384h114l145 -197zM188 352q0 138 40 264t110 219.5t171 149t216 55.5q91 0 153.5 -34t92.5 -88l102 99h146l-165 -773q-20 -93 50 -93q68 0 119 40l-21 -99q-41 -47 -116.5 -78t-151.5 -31q-86 0 -122 50.5t-19 144.5q0 7 7 42
q-52 -118 -137.5 -180.5t-194.5 -62.5q-120 0 -200 98.5t-80 276.5zM464 369q-1 -229 133 -229q74 0 136.5 73.5t90.5 207.5l88 410q-9 33 -48 56t-95 23q-73 0 -133 -51t-96.5 -131.5t-56 -174t-19.5 -184.5z" />
    <glyph glyph-name="Icaron" unicode="&#x1cf;" horiz-adv-x="735" 
d="M938 1881h114l-252 -297h-187l-128 297h108l140 -145zM558 217q-14 -66 9.5 -86.5t132.5 -33.5l-20 -97h-625l21 97q80 9 116.5 21t51.5 32.5t25 66.5l215 1010q5 32 6.5 53t-15 34t-46.5 20.5t-87 12.5l20 97h625l-21 -97q-80 -9 -116.5 -21t-51.5 -32.5t-25 -66.5z" />
    <glyph glyph-name="icaron" unicode="&#x1d0;" horiz-adv-x="625" 
d="M765 1556h110l-270 -384h-175l-108 384h102l127 -197zM651 1030l-167 -786q-19 -93 50 -93t119 40l-21 -99q-40 -47 -117 -78t-153 -31q-99 0 -137.5 59.5t-13.5 177.5l121 570q8 37 -2 53.5t-48 24.5l-86 15l21 93z" />
    <glyph glyph-name="Ocaron" unicode="&#x1d1;" horiz-adv-x="1612" 
d="M1323 1881h114l-252 -297h-187l-127 297h107l140 -145zM903 -27q-156 0 -283 53.5t-208.5 145.5t-125 213t-42.5 258q1 128 35 250t101 226.5t158.5 183t215 123.5t262.5 45q156 0 282.5 -53.5t208 -145.5t125 -212.5t43.5 -258.5q0 -161 -54.5 -310t-152 -264.5
t-244.5 -184.5t-321 -69zM885 105q105 0 196 65t152.5 172.5t96.5 245.5t35 284q0 229 -89 348t-242 119q-141 0 -252.5 -111.5t-169.5 -285t-58 -370.5q0 -229 89 -348t242 -119z" />
    <glyph glyph-name="ocaron" unicode="&#x1d2;" horiz-adv-x="1174" 
d="M1051 1556h122l-291 -384h-194l-130 384h114l146 -197zM626 -23q-201 0 -312.5 125t-111.5 326q0 164 70 303t200 224t292 85q201 0 312.5 -125.5t111.5 -325.5q0 -164 -70 -303t-200 -224t-292 -85zM635 102q68 0 123 53.5t87.5 138t50 180.5t17.5 189
q0 123 -42.5 187.5t-116.5 64.5q-68 0 -123 -53.5t-87.5 -138t-50 -180.5t-17.5 -189q0 -123 42.5 -187.5t116.5 -64.5z" />
    <glyph glyph-name="Ucaron" unicode="&#x1d3;" horiz-adv-x="1522" 
d="M1375 1881h114l-252 -297h-187l-127 297h107l140 -145zM795 -31q-124 0 -225 40.5t-169 120t-91 197.5t9 273l130 614q16 70 -5.5 93.5t-116.5 39.5l21 97h607l-19 -97q-115 -16 -149 -39.5t-49 -93.5l-130 -606q-35 -157 -4.5 -258t103.5 -148t183 -47q148 0 261 101
t156 305l135 653q7 30 7.5 47.5t-5 32.5t-24 23.5t-45 15.5t-73.5 14l21 97h461l-20 -97q-101 -16 -132 -39.5t-46 -93.5l-149 -672q-60 -276 -229 -424.5t-413 -148.5z" />
    <glyph glyph-name="ucaron" unicode="&#x1d4;" horiz-adv-x="1233" 
d="M1090 1556h122l-291 -384h-195l-129 384h114l145 -197zM648 1031l-146 -697q-20 -92 11.5 -140.5t99.5 -48.5q87 0 154 73.5t93 194.5l81 377q8 37 -2 53t-47 25l-81 15l19 87l431 61l-169 -787q-19 -93 50 -93t121 40l-22 -99q-39 -47 -115.5 -78t-149.5 -31
q-86 0 -123.5 50.5t-21.5 144.5q0 2 8 42q-61 -118 -152 -180.5t-200 -62.5q-152 0 -219.5 101t-32.5 267l94 445q8 37 -2 54t-47 24l-86 15l20 93z" />
    <glyph glyph-name="Udieresismacron" unicode="&#x1d5;" horiz-adv-x="1522" 
d="M879 1835l24 111h624l-24 -111h-624zM954 1549h-13q-44 0 -67.5 25t-15.5 63t43 63t78 25h13q43 0 67 -25.5t15 -62.5q-7 -38 -42 -63t-78 -25zM1296 1549h-13q-43 0 -66.5 25t-16.5 63q9 38 43.5 63t77.5 25h13q44 0 67.5 -25.5t15.5 -62.5q-7 -38 -42 -63t-79 -25z
M795 -31q-124 0 -225 40.5t-169 120t-91 197.5t9 273l130 614q16 70 -5.5 93.5t-116.5 39.5l21 97h607l-19 -97q-115 -16 -149 -39.5t-49 -93.5l-130 -606q-35 -157 -4.5 -258t103.5 -148t183 -47q148 0 261 101t156 305l135 653q7 30 7.5 47.5t-5 32.5t-24 23.5t-45 15.5
t-73.5 14l21 97h461l-20 -97q-101 -16 -132 -39.5t-46 -93.5l-149 -672q-60 -276 -229 -424.5t-413 -148.5z" />
    <glyph glyph-name="udieresismacron" unicode="&#x1d6;" horiz-adv-x="1233" 
d="M589 1503l27 131h609l-28 -131h-608zM634 1157h-12q-45 0 -70.5 30t-15.5 74q10 45 47.5 74.5t82.5 29.5h13q45 0 70 -29.5t15 -74.5q-10 -44 -47.5 -74t-82.5 -30zM995 1157h-13q-45 0 -70 30t-15 74q10 45 47 74.5t82 29.5h14q45 0 69.5 -30t14.5 -74q-9 -44 -46.5 -74
t-82.5 -30zM648 1031l-146 -697q-20 -92 11.5 -140.5t99.5 -48.5q87 0 154 73.5t93 194.5l81 377q8 37 -2 53t-47 25l-81 15l19 87l431 61l-169 -787q-19 -93 50 -93t121 40l-22 -99q-39 -47 -115.5 -78t-149.5 -31q-86 0 -123.5 50.5t-21.5 144.5q0 2 8 42
q-61 -118 -152 -180.5t-200 -62.5q-152 0 -219.5 101t-32.5 267l94 445q8 37 -2 54t-47 24l-86 15l20 93z" />
    <glyph glyph-name="Udieresisacute" unicode="&#x1d7;" horiz-adv-x="1522" 
d="M1507 1859l-639 -79l17 82l653 140zM954 1549h-13q-44 0 -67.5 25t-15.5 63t43 63t78 25h13q43 0 67 -25.5t15 -62.5q-7 -38 -42 -63t-78 -25zM1296 1549h-13q-43 0 -66.5 25t-16.5 63q9 38 43.5 63t77.5 25h13q44 0 67.5 -25.5t15.5 -62.5q-7 -38 -42 -63t-79 -25z
M795 -31q-124 0 -225 40.5t-169 120t-91 197.5t9 273l130 614q16 70 -5.5 93.5t-116.5 39.5l21 97h607l-19 -97q-115 -16 -149 -39.5t-49 -93.5l-130 -606q-35 -157 -4.5 -258t103.5 -148t183 -47q148 0 261 101t156 305l135 653q7 30 7.5 47.5t-5 32.5t-24 23.5t-45 15.5
t-73.5 14l21 97h461l-20 -97q-101 -16 -132 -39.5t-46 -93.5l-149 -672q-60 -276 -229 -424.5t-413 -148.5z" />
    <glyph glyph-name="udieresisacute" unicode="&#x1d8;" horiz-adv-x="1233" 
d="M1205 1545l-628 -94l20 98l644 164zM634 1157h-12q-45 0 -70.5 30t-15.5 74q10 45 47.5 74.5t82.5 29.5h13q45 0 70 -29.5t15 -74.5q-10 -44 -47.5 -74t-82.5 -30zM995 1157h-13q-45 0 -70 30t-15 74q10 45 47 74.5t82 29.5h14q45 0 69.5 -30t14.5 -74q-9 -44 -46.5 -74
t-82.5 -30zM648 1031l-146 -697q-20 -92 11.5 -140.5t99.5 -48.5q87 0 154 73.5t93 194.5l81 377q8 37 -2 53t-47 25l-81 15l19 87l431 61l-169 -787q-19 -93 50 -93t121 40l-22 -99q-39 -47 -115.5 -78t-149.5 -31q-86 0 -123.5 50.5t-21.5 144.5q0 2 8 42
q-61 -118 -152 -180.5t-200 -62.5q-152 0 -219.5 101t-32.5 267l94 445q8 37 -2 54t-47 24l-86 15l20 93z" />
    <glyph glyph-name="Udieresiscaron" unicode="&#x1d9;" horiz-adv-x="1522" 
d="M1539 2002l-18 -83l-309 -139h-63l-251 139l18 83l293 -88zM954 1549h-13q-44 0 -67.5 25t-15.5 63t43 63t78 25h13q43 0 67 -25.5t15 -62.5q-7 -38 -42 -63t-78 -25zM1296 1549h-13q-43 0 -66.5 25t-16.5 63q9 38 43.5 63t77.5 25h13q44 0 67.5 -25.5t15.5 -62.5
q-7 -38 -42 -63t-79 -25zM795 -31q-124 0 -225 40.5t-169 120t-91 197.5t9 273l130 614q16 70 -5.5 93.5t-116.5 39.5l21 97h607l-19 -97q-115 -16 -149 -39.5t-49 -93.5l-130 -606q-35 -157 -4.5 -258t103.5 -148t183 -47q148 0 261 101t156 305l135 653q7 30 7.5 47.5
t-5 32.5t-24 23.5t-45 15.5t-73.5 14l21 97h461l-20 -97q-101 -16 -132 -39.5t-46 -93.5l-149 -672q-60 -276 -229 -424.5t-413 -148.5z" />
    <glyph glyph-name="udieresiscaron" unicode="&#x1da;" horiz-adv-x="1233" 
d="M1243 1721l-21 -100l-308 -171h-62l-238 171l22 100l281 -107zM634 1157h-12q-45 0 -70.5 30t-15.5 74q10 45 47.5 74.5t82.5 29.5h13q45 0 70 -29.5t15 -74.5q-10 -44 -47.5 -74t-82.5 -30zM995 1157h-13q-45 0 -70 30t-15 74q10 45 47 74.5t82 29.5h14q45 0 69.5 -30
t14.5 -74q-9 -44 -46.5 -74t-82.5 -30zM648 1031l-146 -697q-20 -92 11.5 -140.5t99.5 -48.5q87 0 154 73.5t93 194.5l81 377q8 37 -2 53t-47 25l-81 15l19 87l431 61l-169 -787q-19 -93 50 -93t121 40l-22 -99q-39 -47 -115.5 -78t-149.5 -31q-86 0 -123.5 50.5
t-21.5 144.5q0 2 8 42q-61 -118 -152 -180.5t-200 -62.5q-152 0 -219.5 101t-32.5 267l94 445q8 37 -2 54t-47 24l-86 15l20 93z" />
    <glyph glyph-name="Udieresisgrave" unicode="&#x1db;" horiz-adv-x="1522" 
d="M885 1859l29 143l595 -140l-18 -82zM954 1549h-13q-44 0 -67.5 25t-15.5 63t43 63t78 25h13q43 0 67 -25.5t15 -62.5q-7 -38 -42 -63t-78 -25zM1296 1549h-13q-43 0 -66.5 25t-16.5 63q9 38 43.5 63t77.5 25h13q44 0 67.5 -25.5t15.5 -62.5q-7 -38 -42 -63t-79 -25z
M795 -31q-124 0 -225 40.5t-169 120t-91 197.5t9 273l130 614q16 70 -5.5 93.5t-116.5 39.5l21 97h607l-19 -97q-115 -16 -149 -39.5t-49 -93.5l-130 -606q-35 -157 -4.5 -258t103.5 -148t183 -47q148 0 261 101t156 305l135 653q7 30 7.5 47.5t-5 32.5t-24 23.5t-45 15.5
t-73.5 14l21 97h461l-20 -97q-101 -16 -132 -39.5t-46 -93.5l-149 -672q-60 -276 -229 -424.5t-413 -148.5z" />
    <glyph glyph-name="udieresisgrave" unicode="&#x1dc;" horiz-adv-x="1233" 
d="M597 1545l36 168l573 -164l-20 -98zM634 1157h-12q-45 0 -70.5 30t-15.5 74q10 45 47.5 74.5t82.5 29.5h13q45 0 70 -29.5t15 -74.5q-10 -44 -47.5 -74t-82.5 -30zM995 1157h-13q-45 0 -70 30t-15 74q10 45 47 74.5t82 29.5h14q45 0 69.5 -30t14.5 -74q-9 -44 -46.5 -74
t-82.5 -30zM648 1031l-146 -697q-20 -92 11.5 -140.5t99.5 -48.5q87 0 154 73.5t93 194.5l81 377q8 37 -2 53t-47 25l-81 15l19 87l431 61l-169 -787q-19 -93 50 -93t121 40l-22 -99q-39 -47 -115.5 -78t-149.5 -31q-86 0 -123.5 50.5t-21.5 144.5q0 2 8 42
q-61 -118 -152 -180.5t-200 -62.5q-152 0 -219.5 101t-32.5 267l94 445q8 37 -2 54t-47 24l-86 15l20 93z" />
    <glyph glyph-name="Adieresismacron" unicode="&#x1de;" horiz-adv-x="1425" 
d="M769 1835l23 111h624l-24 -111h-623zM843 1549h-13q-43 0 -67 25t-16 63q8 37 43 62.5t78 25.5h13q43 0 67 -25.5t15 -62.5q-7 -38 -42 -63t-78 -25zM1186 1549h-13q-44 0 -67.5 25t-15.5 63q8 37 43 62.5t78 25.5h12q44 0 68 -25.5t16 -62.5q-8 -38 -43 -63t-78 -25z
M1290 292q15 -115 43 -149t117 -46l-20 -97h-627l21 97q118 16 147 50.5t17 146.5l-21 183h-464l-98 -183q-25 -47 -36.5 -76t-13 -51t14.5 -34.5t41.5 -20.5t72.5 -15l-20 -97h-470l21 97q96 12 137.5 46t108.5 154l640 1147h239zM566 596h388l-67 600z" />
    <glyph glyph-name="adieresismacron" unicode="&#x1df;" horiz-adv-x="1191" 
d="M567 1503l27 131h609l-28 -131h-608zM612 1157h-12q-45 0 -70 30t-16 74q10 45 47.5 74.5t82.5 29.5h13q45 0 70 -29.5t15 -74.5q-9 -44 -47 -74t-83 -30zM973 1157h-13q-45 0 -70 30t-15 74q10 45 47.5 74.5t82.5 29.5h13q45 0 70 -30t15 -74t-47.5 -74t-82.5 -30z
M188 352q0 138 40 264t110 219.5t171 149t216 55.5q91 0 153.5 -34t92.5 -88l102 99h146l-165 -773q-20 -93 50 -93q68 0 119 40l-21 -99q-41 -47 -116.5 -78t-151.5 -31q-86 0 -122 50.5t-19 144.5q0 7 7 42q-52 -118 -137.5 -180.5t-194.5 -62.5q-120 0 -200 98.5
t-80 276.5zM464 369q-1 -229 133 -229q74 0 136.5 73.5t90.5 207.5l88 410q-9 33 -48 56t-95 23q-73 0 -133 -51t-96.5 -131.5t-56 -174t-19.5 -184.5z" />
    <glyph glyph-name="Adotmacron" unicode="&#x1e0;" horiz-adv-x="1425" 
d="M763 1810l24 111h623l-23 -111h-624zM1041 1541q-47 0 -79.5 27.5t-33.5 68.5q0 40 31 67.5t77 27.5t79 -27.5t34 -67.5q0 -41 -31 -68.5t-77 -27.5zM1290 292q15 -115 43 -149t117 -46l-20 -97h-627l21 97q118 16 147 50.5t17 146.5l-21 183h-464l-98 -183
q-25 -47 -36.5 -76t-13 -51t14.5 -34.5t41.5 -20.5t72.5 -15l-20 -97h-470l21 97q96 12 137.5 46t108.5 154l640 1147h239zM566 596h388l-67 600z" />
    <glyph glyph-name="adotmacron" unicode="&#x1e1;" horiz-adv-x="1191" 
d="M564 1491l28 131h609l-28 -131h-609zM822 1157q-49 0 -82.5 32.5t-33.5 80.5t33.5 80t82.5 32t82.5 -32t33.5 -80t-33.5 -80.5t-82.5 -32.5zM188 352q0 138 40 264t110 219.5t171 149t216 55.5q91 0 153.5 -34t92.5 -88l102 99h146l-165 -773q-20 -93 50 -93q68 0 119 40
l-21 -99q-41 -47 -116.5 -78t-151.5 -31q-86 0 -122 50.5t-19 144.5q0 7 7 42q-52 -118 -137.5 -180.5t-194.5 -62.5q-120 0 -200 98.5t-80 276.5zM464 369q-1 -229 133 -229q74 0 136.5 73.5t90.5 207.5l88 410q-9 33 -48 56t-95 23q-73 0 -133 -51t-96.5 -131.5t-56 -174
t-19.5 -184.5z" />
    <glyph glyph-name="AEmacron" unicode="&#x1e2;" horiz-adv-x="2016" 
d="M1250 1629l32 147h546l-31 -147h-547zM2159 1444l-69 -379h-85q-3 56 -7.5 91t-16.5 66t-29.5 47t-50 28.5t-73 17.5t-103.5 8l-224 9l-100 -535h220q51 0 81 35.5t79 160.5h83l-105 -511h-84q6 123 -9.5 159.5t-68.5 36.5h-219l-106 -566l239 10q82 4 133.5 11.5t98 25
t79 51t62.5 83t62 127.5h84l-104 -420h-1126l20 97q62 6 93 12.5t52 25t28 39.5t15 69l59 310h-451l-186 -280q-65 -98 -52 -130.5t126 -45.5l-21 -97h-489l20 97q97 10 144 41t118 135l805 1171h1078zM1130 1325l-433 -651h392l123 651h-82z" />
    <glyph glyph-name="aemacron" unicode="&#x1e3;" horiz-adv-x="1553" 
d="M746 1266l34 161h607l-34 -161h-607zM265 791q0 106 110.5 177.5t274.5 71.5q234 0 332 -141q146 141 337 141q151 0 239 -66t88 -178q0 -61 -28.5 -112t-90 -94t-168.5 -70.5t-254 -35.5l-58 -4v-19q0 -153 68.5 -236.5t190.5 -83.5q134 0 235 85l-22 -101
q-52 -67 -143.5 -107.5t-200.5 -40.5q-134 0 -232 72.5t-136 208.5q-35 -127 -129.5 -204t-231.5 -77q-131 0 -214.5 69.5t-83.5 185.5q0 146 131 230.5t381 104.5l152 12l5 35q21 150 -33 223t-164 73q-68 0 -125 -22q41 -38 41 -95q0 -53 -40.5 -90.5t-97.5 -37.5
q-55 0 -94 36t-39 90zM1303 917q-93 0 -161 -92.5t-88 -244.5l43 3q166 15 243 75.5t77 146.5q0 53 -30.5 82.5t-83.5 29.5zM408 273q0 -65 39.5 -100.5t105.5 -35.5q96 0 157 76t84 246l3 19l-100 -10q-289 -26 -289 -195z" />
    <glyph glyph-name="Gcaron" unicode="&#x1e6;" horiz-adv-x="1579" 
d="M1373 1881h114l-252 -297h-187l-127 297h107l140 -145zM250 651q1 176 61 328.5t165.5 262t257 171.5t328.5 62q161 0 301.5 -46t217.5 -110l-57 -320l-87 5q-6 166 -88 252t-238 86q-110 0 -210.5 -57t-173.5 -154.5t-116.5 -236t-43.5 -293.5q0 -225 108.5 -361.5
t288.5 -136.5q126 0 196 48l71 337q5 24 6.5 38t-2.5 27t-13 20t-29 13.5t-46 10.5t-68 8l20 96h583l-20 -96q-70 -7 -102 -19t-45 -32t-23 -67l-84 -390q-71 -53 -205 -90.5t-272 -37.5q-195 0 -348.5 79.5t-243.5 236t-89 366.5z" />
    <glyph glyph-name="gcaron" unicode="&#x1e7;" horiz-adv-x="1093" 
d="M991 1556h123l-291 -384h-195l-129 384h113l146 -197zM505 -458q-205 0 -336.5 67t-131.5 185q0 76 78 135.5t211 84.5q-110 50 -112 156q-1 71 55 123t164 80q-97 40 -148 115t-51 169q0 163 119.5 271t321.5 108q150 0 250 -54l357 13l-27 -135l-226 31q52 -74 52 -171
q0 -161 -119.5 -272t-322.5 -111q-69 0 -126 12q-41 -13 -65 -35t-23 -49t25 -45t89 -30l198 -36q297 -54 297 -278q0 -100 -74 -177.5t-193.5 -117t-261.5 -39.5zM495 632q0 -82 36.5 -135.5t104.5 -53.5q86 0 136 91t50 207q0 82 -37 136t-105 54q-58 0 -101.5 -46.5
t-63.5 -113t-20 -139.5zM249 -176q0 -74 73.5 -119.5t197.5 -45.5q116 0 196 43t80 114q0 52 -41.5 85.5t-136.5 49.5l-190 33q-8 2 -12 2q-167 -56 -167 -162z" />
    <glyph glyph-name="Kcaron" unicode="&#x1e8;" horiz-adv-x="1412" 
d="M1381 1881h114l-252 -297h-187l-128 297h108l140 -145zM558 217q-14 -66 8 -87.5t119 -32.5l-19 -97h-611l21 97q80 9 116.5 21t51.5 32.5t25 66.5l215 1010q14 66 -9.5 86.5t-132.5 33.5l20 97h611l-21 -97q-103 -11 -134 -32.5t-45 -87.5l-91 -427h138l377 373
q91 92 83 128t-118 46l21 97h513l-20 -97q-97 -16 -163 -59t-218 -180l-250 -228l197 -503q61 -156 100.5 -212t94.5 -74l-20 -91h-357l-261 685h-141z" />
    <glyph glyph-name="kcaron" unicode="&#x1e9;" horiz-adv-x="1134" 
d="M896 1881h114l-253 -297h-186l-128 297h108l140 -145zM972 -17q-90 0 -148.5 66.5t-106.5 216.5l-71 222l-106 -82l-86 -406h-268l268 1258q8 37 -2.5 53.5t-48.5 24.5l-87 15l21 93l435 55l-206 -970l311 265q61 52 76.5 80t-8 42t-90.5 20l17 81h460l-16 -81
q-76 -14 -146 -52.5t-194 -137.5l-119 -95l106 -310q38 -110 73 -151t78 -41q50 0 90 37l-21 -100q-34 -47 -88.5 -75t-122.5 -28z" />
    <glyph glyph-name="Oogonek" unicode="&#x1ea;" horiz-adv-x="1612" 
d="M819 -486q-97 0 -159 50.5t-62 129.5q0 76 57.5 149t160.5 135q-181 18 -312.5 113.5t-196 238t-63.5 313.5q0 107 25 210t70 195t113 170t152 134.5t189.5 88t222.5 31.5q156 0 282.5 -53.5t208 -145.5t125 -213t43.5 -258q0 -159 -53 -306t-147.5 -261.5t-237.5 -185.5
t-312 -75q-85 -89 -85 -193q0 -60 27.5 -97.5t73.5 -37.5q47 0 82 27l-20 -95q-68 -64 -184 -64zM886 105q138 0 249.5 111t170.5 285.5t59 370.5q0 229 -89 348t-243 119q-140 0 -251.5 -111t-169.5 -284.5t-58 -370.5q0 -230 89 -349t243 -119z" />
    <glyph glyph-name="oogonek" unicode="&#x1eb;" horiz-adv-x="1169" 
d="M580 -486q-96 0 -155.5 51.5t-59.5 131.5q0 78 50.5 151.5t144.5 132.5q-171 21 -264.5 142.5t-93.5 304.5q0 164 69.5 303t199.5 224t293 85q201 0 312.5 -125.5t111.5 -325.5q0 -154 -62.5 -287t-179 -220t-264.5 -102q-75 -95 -75 -201q0 -63 29 -98t76 -35
q48 0 83 27l-20 -95q-30 -28 -83.5 -46t-111.5 -18zM635 102q68 0 123 53.5t87.5 138t50 180.5t17.5 189q0 123 -42.5 187.5t-116.5 64.5q-68 0 -123 -53.5t-87.5 -138t-50 -180.5t-17.5 -189q0 -123 42.5 -187.5t116.5 -64.5z" />
    <glyph glyph-name="Oogonekmacron" unicode="&#x1ec;" horiz-adv-x="1612" 
d="M822 1629l32 147h546l-31 -147h-547zM819 -486q-97 0 -159 50.5t-62 129.5q0 76 57.5 149t160.5 135q-181 18 -312.5 113.5t-196 238t-63.5 313.5q0 107 25 210t70 195t113 170t152 134.5t189.5 88t222.5 31.5q156 0 282.5 -53.5t208 -145.5t125 -213t43.5 -258
q0 -159 -53 -306t-147.5 -261.5t-237.5 -185.5t-312 -75q-85 -89 -85 -193q0 -60 27.5 -97.5t73.5 -37.5q47 0 82 27l-20 -95q-68 -64 -184 -64zM886 105q138 0 249.5 111t170.5 285.5t59 370.5q0 229 -89 348t-243 119q-140 0 -251.5 -111t-169.5 -284.5t-58 -370.5
q0 -230 89 -349t243 -119z" />
    <glyph glyph-name="oogonekmacron" unicode="&#x1ed;" horiz-adv-x="1169" 
d="M498 1266l34 161h607l-34 -161h-607zM580 -486q-96 0 -155.5 51.5t-59.5 131.5q0 78 50.5 151.5t144.5 132.5q-171 21 -264.5 142.5t-93.5 304.5q0 164 69.5 303t199.5 224t293 85q201 0 312.5 -125.5t111.5 -325.5q0 -154 -62.5 -287t-179 -220t-264.5 -102
q-75 -95 -75 -201q0 -63 29 -98t76 -35q48 0 83 27l-20 -95q-30 -28 -83.5 -46t-111.5 -18zM635 102q68 0 123 53.5t87.5 138t50 180.5t17.5 189q0 123 -42.5 187.5t-116.5 64.5q-68 0 -123 -53.5t-87.5 -138t-50 -180.5t-17.5 -189q0 -123 42.5 -187.5t116.5 -64.5z" />
    <glyph glyph-name="uni01F1" unicode="&#x1f1;" horiz-adv-x="2785" 
d="M1618 827q0 -180 -74.5 -334t-206.5 -262t-318 -169.5t-402 -61.5h-562l21 97q80 9 116 21t51.5 32.5t25.5 66.5l216 1010q14 66 -10.5 86.5t-132.5 33.5l20 97h516q342 0 541 -166t199 -451zM2705 0h-1078l20 91l989 1241l-282 -10q-93 -3 -146.5 -13t-98 -40
t-72.5 -75.5t-63 -129.5h-87l91 380h1018l-20 -91l-990 -1241l285 10q61 2 100.5 5.5t81 11.5t69 21.5t56 34.5t51 52.5t44.5 73t46 99.5h88zM1297 855q0 204 -110.5 332.5t-319.5 140.5l-72 4l-259 -1220l94 4q296 13 481.5 214.5t185.5 524.5z" />
    <glyph glyph-name="uni01F2" unicode="&#x1f2;" horiz-adv-x="2519" 
d="M1618 827q0 -180 -74.5 -334t-206.5 -262t-318 -169.5t-402 -61.5h-562l21 97q80 9 116 21t51.5 32.5t25.5 66.5l216 1010q14 66 -10.5 86.5t-132.5 33.5l20 97h516q342 0 541 -166t199 -451zM1297 855q0 204 -110.5 332.5t-319.5 140.5l-72 4l-259 -1220l94 4
q296 13 481.5 214.5t185.5 524.5zM1647 52l682 756h-312q-66 0 -93.5 -22.5t-59.5 -103.5h-87l86 335h762l-21 -94l-557 -604l61 -37q80 -48 131 -67t109 -20q94 0 169 117l66 -56q-140 -281 -356 -281q-71 0 -137 25t-163 89l-57 38l-1 -1l-138 -154z" />
    <glyph glyph-name="uni01F3" unicode="&#x1f3;" horiz-adv-x="2155" 
d="M188 352q0 138 40 264t110 219.5t171 149t216 55.5q141 0 214 -78l63 296q8 37 -2 53.5t-48 24.5l-86 15l21 93l435 55l-267 -1255q-20 -93 50 -93q69 0 119 40l-21 -99q-40 -47 -116.5 -78t-151.5 -31q-86 0 -122.5 50.5t-19.5 144.5q0 7 7 42q-52 -118 -137.5 -180.5
t-194.5 -62.5q-120 0 -200 98.5t-80 276.5zM1283 52l682 756h-312q-66 0 -93.5 -22.5t-59.5 -103.5h-87l86 335h762l-21 -94l-557 -604l61 -37q81 -48 131 -67t109 -20q94 0 169 117l65 -56q-72 -146 -163.5 -213.5t-191.5 -67.5q-71 0 -137 25t-163 89l-57 38l-1 -1
l-138 -154zM464 369q-1 -229 133 -229q74 0 136.5 73.5t90.5 207.5l88 410q-9 33 -48 56t-95 23q-73 0 -133 -51t-96.5 -131.5t-56 -174t-19.5 -184.5z" />
    <glyph glyph-name="Gacute" unicode="&#x1f4;" horiz-adv-x="1579" 
d="M1243 1860l248 -1v-10l-363 -285h-104zM250 651q1 176 61 328.5t165.5 262t257 171.5t328.5 62q161 0 301.5 -46t217.5 -110l-57 -320l-87 5q-6 166 -88 252t-238 86q-110 0 -210.5 -57t-173.5 -154.5t-116.5 -236t-43.5 -293.5q0 -225 108.5 -361.5t288.5 -136.5
q126 0 196 48l71 337q5 24 6.5 38t-2.5 27t-13 20t-29 13.5t-46 10.5t-68 8l20 96h583l-20 -96q-70 -7 -102 -19t-45 -32t-23 -67l-84 -390q-71 -53 -205 -90.5t-272 -37.5q-195 0 -348.5 79.5t-243.5 236t-89 366.5z" />
    <glyph glyph-name="gacute" unicode="&#x1f5;" horiz-adv-x="1093" 
d="M854 1556h305v-14l-428 -370h-124zM505 -458q-205 0 -336.5 67t-131.5 185q0 76 78 135.5t211 84.5q-110 50 -112 156q-1 71 55 123t164 80q-97 40 -148 115t-51 169q0 163 119.5 271t321.5 108q150 0 250 -54l357 13l-27 -135l-226 31q52 -74 52 -171
q0 -161 -119.5 -272t-322.5 -111q-69 0 -126 12q-41 -13 -65 -35t-23 -49t25 -45t89 -30l198 -36q297 -54 297 -278q0 -100 -74 -177.5t-193.5 -117t-261.5 -39.5zM495 632q0 -82 36.5 -135.5t104.5 -53.5q86 0 136 91t50 207q0 82 -37 136t-105 54q-58 0 -101.5 -46.5
t-63.5 -113t-20 -139.5zM249 -176q0 -74 73.5 -119.5t197.5 -45.5q116 0 196 43t80 114q0 52 -41.5 85.5t-136.5 49.5l-190 33q-8 2 -12 2q-167 -56 -167 -162z" />
    <glyph glyph-name="Ngrave" unicode="&#x1f8;" horiz-adv-x="1540" 
d="M1027 1860l110 -295h-90l-247 285v10h227zM779 1444l499 -1144l180 914q5 26 6.5 42t-1.5 31t-11.5 23t-27 15.5t-43 12t-63.5 9.5l21 97h462l-20 -97q-101 -13 -132 -36.5t-47 -96.5l-268 -1214h-264l-499 1145l-181 -915q-15 -73 8 -95.5t132 -37.5l-20 -97h-463l21 97
q100 13 131.5 37t47.5 96l213 970q14 51 9 81.5t-34.5 44.5t-100.5 21l20 97h425z" />
    <glyph glyph-name="ngrave" unicode="&#x1f9;" horiz-adv-x="1247" 
d="M859 1556l110 -384h-111l-282 370v14h283zM659 1030l-54 -251q127 261 358 261q154 0 216.5 -97.5t26.5 -266.5l-93 -432q-20 -93 50 -93q69 0 120 40l-22 -99q-40 -47 -117 -78t-153 -31q-199 0 -151 237l97 461q20 94 -9.5 145.5t-95.5 51.5q-79 0 -154 -84.5
t-102 -213.5l-122 -580h-268l168 790q8 37 -2.5 53.5t-48.5 24.5l-85 15l20 93z" />
    <glyph glyph-name="Aringacute" unicode="&#x1fa;" horiz-adv-x="1425" 
d="M1393 1843l-640 -80l17 83l653 140zM1052 1506h-84q-95 0 -146.5 31.5t-40.5 83.5q10 52 75 83t161 31h83q97 0 148.5 -31t39.5 -83q-11 -52 -75 -83.5t-161 -31.5zM1055 1578q32 0 52 11.5t24 31.5q4 19 -11 30.5t-47 11.5h-58q-32 0 -52 -11.5t-24 -30.5
q-4 -20 10.5 -31.5t46.5 -11.5h59zM1290 292q15 -115 43 -149t117 -46l-20 -97h-627l21 97q118 16 147 50.5t17 146.5l-21 183h-464l-98 -183q-25 -47 -36.5 -76t-13 -51t14.5 -34.5t41.5 -20.5t72.5 -15l-20 -97h-470l21 97q96 12 137.5 46t108.5 154l640 1147h239z
M566 596h388l-67 600z" />
    <glyph glyph-name="aringacute" unicode="&#x1fb;" horiz-adv-x="1191" 
d="M1184 1548l-628 -93l20 98l644 163zM833 1113h-89q-101 0 -153 42t-37 111q14 70 84 111.5t171 41.5h89q102 0 153.5 -41.5t37.5 -111.5q-15 -69 -84.5 -111t-171.5 -42zM840 1210q33 0 55 15.5t27 40.5q5 26 -9.5 41.5t-47.5 15.5h-63q-33 0 -55 -15.5t-27 -41.5
q-5 -25 10 -40.5t47 -15.5h63zM188 352q0 138 40 264t110 219.5t171 149t216 55.5q91 0 153.5 -34t92.5 -88l102 99h146l-165 -773q-20 -93 50 -93q68 0 119 40l-21 -99q-41 -47 -116.5 -78t-151.5 -31q-86 0 -122 50.5t-19 144.5q0 7 7 42q-52 -118 -137.5 -180.5
t-194.5 -62.5q-120 0 -200 98.5t-80 276.5zM464 369q-1 -229 133 -229q74 0 136.5 73.5t90.5 207.5l88 410q-9 33 -48 56t-95 23q-73 0 -133 -51t-96.5 -131.5t-56 -174t-19.5 -184.5z" />
    <glyph glyph-name="AEacute" unicode="&#x1fc;" horiz-adv-x="2016" 
d="M1621 1860l248 -1v-10l-363 -285h-104zM2159 1444l-69 -379h-85q-3 56 -7.5 91t-16.5 66t-29.5 47t-50 28.5t-73 17.5t-103.5 8l-224 9l-100 -535h220q51 0 81 35.5t79 160.5h83l-105 -511h-84q6 123 -9.5 159.5t-68.5 36.5h-219l-106 -566l239 10q82 4 133.5 11.5t98 25
t79 51t62.5 83t62 127.5h84l-104 -420h-1126l20 97q62 6 93 12.5t52 25t28 39.5t15 69l59 310h-451l-186 -280q-65 -98 -52 -130.5t126 -45.5l-21 -97h-489l20 97q97 10 144 41t118 135l805 1171h1078zM1130 1325l-433 -651h392l123 651h-82z" />
    <glyph glyph-name="aeacute" unicode="&#x1fd;" horiz-adv-x="1553" 
d="M1159 1556h305v-14l-428 -370h-124zM265 791q0 106 110.5 177.5t274.5 71.5q234 0 332 -141q146 141 337 141q151 0 239 -66t88 -178q0 -61 -28.5 -112t-90 -94t-168.5 -70.5t-254 -35.5l-58 -4v-19q0 -153 68.5 -236.5t190.5 -83.5q134 0 235 85l-22 -101
q-52 -67 -143.5 -107.5t-200.5 -40.5q-134 0 -232 72.5t-136 208.5q-35 -127 -129.5 -204t-231.5 -77q-131 0 -214.5 69.5t-83.5 185.5q0 146 131 230.5t381 104.5l152 12l5 35q21 150 -33 223t-164 73q-68 0 -125 -22q41 -38 41 -95q0 -53 -40.5 -90.5t-97.5 -37.5
q-55 0 -94 36t-39 90zM1303 917q-93 0 -161 -92.5t-88 -244.5l43 3q166 15 243 75.5t77 146.5q0 53 -30.5 82.5t-83.5 29.5zM408 273q0 -65 39.5 -100.5t105.5 -35.5q96 0 157 76t84 246l3 19l-100 -10q-289 -26 -289 -195z" />
    <glyph glyph-name="Oslashacute" unicode="&#x1fe;" horiz-adv-x="1612" 
d="M1193 1860l248 -1v-10l-363 -285h-104zM903 -27q-279 0 -457 165l-164 -161l-80 82l168 165q-128 175 -126 419q0 107 25 210t70 195t113 170t152 134.5t189.5 88t222.5 31.5q280 0 457 -166l163 161l80 -82l-168 -165q127 -174 127 -418q0 -161 -54.5 -310t-152 -264.5
t-244.5 -185t-321 -69.5zM554 573q0 -90 13 -156l748 735q-84 187 -282 187q-140 0 -251.5 -111t-169.5 -284.5t-58 -370.5zM886 105q138 0 249.5 111t170.5 285.5t59 370.5q0 88 -13 156l-748 -735q84 -188 282 -188z" />
    <glyph glyph-name="oslashacute" unicode="&#x1ff;" horiz-adv-x="1167" 
d="M910 1554h304v-13l-428 -371h-124zM623 -23q-175 0 -285 99l-102 -102l-77 78l110 109q-67 109 -67 266q0 121 40.5 232.5t112.5 195t177 133.5t227 50q178 0 288 -102l107 108l77 -78l-116 -115q65 -110 65 -262q0 -122 -40.5 -233t-112.5 -195t-177 -134t-227 -50z
M751 916q-69 0 -125 -53t-89 -137t-50.5 -178.5t-17.5 -186.5l428 426q-36 129 -146 129zM631 99q68 0 123 51.5t88 134t51 176t19 187.5l-426 -425q37 -124 145 -124z" />
    <glyph glyph-name="Adblgrave" unicode="&#x200;" horiz-adv-x="1425" 
d="M867 1861l93 -297h-95l-191 290v7h193zM1176 1861l15 -297h-88l-109 290v7h182zM1290 292q15 -115 43 -149t117 -46l-20 -97h-627l21 97q118 16 147 50.5t17 146.5l-21 183h-464l-98 -183q-25 -47 -36.5 -76t-13 -51t14.5 -34.5t41.5 -20.5t72.5 -15l-20 -97h-470l21 97
q96 12 137.5 46t108.5 154l640 1147h239zM566 596h388l-67 600z" />
    <glyph glyph-name="adblgrave" unicode="&#x201;" horiz-adv-x="1191" 
d="M611 1556l114 -384h-118l-237 374v10h241zM998 1556l16 -384h-110l-134 374v10h228zM188 352q0 138 40 264t110 219.5t171 149t216 55.5q91 0 153.5 -34t92.5 -88l102 99h146l-165 -773q-20 -93 50 -93q68 0 119 40l-21 -99q-41 -47 -116.5 -78t-151.5 -31
q-86 0 -122 50.5t-19 144.5q0 7 7 42q-52 -118 -137.5 -180.5t-194.5 -62.5q-120 0 -200 98.5t-80 276.5zM464 369q-1 -229 133 -229q74 0 136.5 73.5t90.5 207.5l88 410q-9 33 -48 56t-95 23q-73 0 -133 -51t-96.5 -131.5t-56 -174t-19.5 -184.5z" />
    <glyph glyph-name="Ainvertedbreve" unicode="&#x202;" horiz-adv-x="1425" 
d="M1053 1898q113 0 187 -63.5t75 -160.5q0 -48 -17 -91h-95q2 14 2 27q0 53 -44.5 89.5t-113.5 36.5q-81 0 -131 -39.5t-63 -113.5h-95q4 148 83 231.5t212 83.5zM1290 292q15 -115 43 -149t117 -46l-20 -97h-627l21 97q118 16 147 50.5t17 146.5l-21 183h-464l-98 -183
q-25 -47 -36.5 -76t-13 -51t14.5 -34.5t41.5 -20.5t72.5 -15l-20 -97h-470l21 97q96 12 137.5 46t108.5 154l640 1147h239zM566 596h388l-67 600z" />
    <glyph glyph-name="ainvertedbreve" unicode="&#x203;" horiz-adv-x="1191" 
d="M840 1546q124 0 204.5 -74t80.5 -189q0 -55 -19 -103h-104q2 6 2 29q0 61 -48.5 103t-126.5 42q-89 0 -145.5 -45.5t-71.5 -128.5h-104q7 171 96 268.5t236 97.5zM188 352q0 138 40 264t110 219.5t171 149t216 55.5q91 0 153.5 -34t92.5 -88l102 99h146l-165 -773
q-20 -93 50 -93q68 0 119 40l-21 -99q-41 -47 -116.5 -78t-151.5 -31q-86 0 -122 50.5t-19 144.5q0 7 7 42q-52 -118 -137.5 -180.5t-194.5 -62.5q-120 0 -200 98.5t-80 276.5zM464 369q-1 -229 133 -229q74 0 136.5 73.5t90.5 207.5l88 410q-9 33 -48 56t-95 23
q-73 0 -133 -51t-96.5 -131.5t-56 -174t-19.5 -184.5z" />
    <glyph glyph-name="Edblgrave" unicode="&#x204;" horiz-adv-x="1277" 
d="M796 1861l94 -297h-95l-192 290v7h193zM1106 1861l15 -297h-88l-109 290v7h182zM1457 1444l-71 -380h-86q-2 83 -14 130.5t-45 77t-81.5 39.5t-135.5 13l-229 8l-114 -538h226q51 0 81.5 36t81.5 163h81l-108 -510h-82q4 87 -2.5 129t-23 56.5t-52.5 14.5h-226l-121 -571
l236 8q72 3 115.5 7t87.5 16.5t70.5 30.5t55.5 52.5t52 79.5t51 114h87l-102 -420h-1134l21 97q80 9 116 21t51.5 32.5t25.5 66.5l216 1010q14 66 -10 86.5t-133 33.5l20 97h1095z" />
    <glyph glyph-name="edblgrave" unicode="&#x205;" horiz-adv-x="985" 
d="M563 1556l115 -384h-119l-237 374v10h241zM950 1556l17 -384h-111l-133 374v10h227zM606 -23q-80 0 -152 28t-129.5 81.5t-91.5 140.5t-34 196q0 132 46.5 248.5t123.5 196.5t178.5 126t209.5 46q139 0 223 -62t84 -166q0 -131 -134.5 -221.5t-397.5 -166.5l-53 -15
q12 -130 81 -198.5t175 -68.5q142 0 239 87l-22 -102q-54 -71 -147.5 -110.5t-198.5 -39.5zM740 919q-103 0 -178 -112.5t-85 -294.5l41 13q323 100 323 278q0 116 -101 116z" />
    <glyph glyph-name="Einvertedbreve" unicode="&#x206;" horiz-adv-x="1277" 
d="M983 1898q113 0 186.5 -63.5t74.5 -160.5q0 -47 -16 -91h-96q3 10 3 27q0 53 -44.5 89.5t-114.5 36.5q-80 0 -130 -39.5t-63 -113.5h-95q4 148 82.5 231.5t212.5 83.5zM1457 1444l-71 -380h-86q-2 83 -14 130.5t-45 77t-81.5 39.5t-135.5 13l-229 8l-114 -538h226
q51 0 81.5 36t81.5 163h81l-108 -510h-82q4 87 -2.5 129t-23 56.5t-52.5 14.5h-226l-121 -571l236 8q72 3 115.5 7t87.5 16.5t70.5 30.5t55.5 52.5t52 79.5t51 114h87l-102 -420h-1134l21 97q80 9 116 21t51.5 32.5t25.5 66.5l216 1010q14 66 -10 86.5t-133 33.5l20 97h1095
z" />
    <glyph glyph-name="einvertedbreve" unicode="&#x207;" horiz-adv-x="985" 
d="M791 1546q125 0 205.5 -74t80.5 -189q0 -56 -20 -103h-103q2 12 2 29q0 61 -49 103t-126 42q-90 0 -146 -45.5t-71 -128.5h-104q7 171 95.5 268.5t235.5 97.5zM606 -23q-80 0 -152 28t-129.5 81.5t-91.5 140.5t-34 196q0 132 46.5 248.5t123.5 196.5t178.5 126t209.5 46
q139 0 223 -62t84 -166q0 -131 -134.5 -221.5t-397.5 -166.5l-53 -15q12 -130 81 -198.5t175 -68.5q142 0 239 87l-22 -102q-54 -71 -147.5 -110.5t-198.5 -39.5zM740 919q-103 0 -178 -112.5t-85 -294.5l41 13q323 100 323 278q0 116 -101 116z" />
    <glyph glyph-name="Idblgrave" unicode="&#x208;" horiz-adv-x="735" 
d="M540 1861l93 -297h-94l-192 290v7h193zM849 1861l15 -297h-88l-108 290v7h181zM558 217q-14 -66 9.5 -86.5t132.5 -33.5l-20 -97h-625l21 97q80 9 116.5 21t51.5 32.5t25 66.5l215 1010q5 32 6.5 53t-15 34t-46.5 20.5t-87 12.5l20 97h625l-21 -97q-80 -9 -116.5 -21
t-51.5 -32.5t-25 -66.5z" />
    <glyph glyph-name="idblgrave" unicode="&#x209;" horiz-adv-x="625" 
d="M328 1556l114 -384h-118l-237 374v10h241zM715 1556l16 -384h-110l-134 374v10h228zM651 1030l-167 -786q-19 -93 50 -93t119 40l-21 -99q-40 -47 -117 -78t-153 -31q-99 0 -137.5 59.5t-13.5 177.5l121 570q8 37 -2 53.5t-48 24.5l-86 15l21 93z" />
    <glyph glyph-name="Iinvertedbreve" unicode="&#x20a;" horiz-adv-x="735" 
d="M727 1898q112 0 185.5 -63t75.5 -161q0 -48 -17 -91h-95q2 14 2 27q0 53 -44.5 89.5t-113.5 36.5q-81 0 -131 -39.5t-63 -113.5h-95q4 148 83 231.5t213 83.5zM558 217q-14 -66 9.5 -86.5t132.5 -33.5l-20 -97h-625l21 97q80 9 116.5 21t51.5 32.5t25 66.5l215 1010
q5 32 6.5 53t-15 34t-46.5 20.5t-87 12.5l20 97h625l-21 -97q-80 -9 -116.5 -21t-51.5 -32.5t-25 -66.5z" />
    <glyph glyph-name="iinvertedbreve" unicode="&#x20b;" horiz-adv-x="625" 
d="M558 1546q112 0 183 -74t68 -189q-2 -59 -19 -103h-94q3 9 3 29q2 61 -41.5 103t-113.5 42q-80 0 -131.5 -45.5t-67.5 -128.5h-93q10 171 92 268.5t214 97.5zM651 1030l-167 -786q-19 -93 50 -93t119 40l-21 -99q-40 -47 -117 -78t-153 -31q-99 0 -137.5 59.5
t-13.5 177.5l121 570q8 37 -2 53.5t-48 24.5l-86 15l21 93z" />
    <glyph glyph-name="Odblgrave" unicode="&#x20c;" horiz-adv-x="1612" 
d="M925 1861l94 -297h-95l-192 290v7h193zM1235 1861l14 -297h-88l-108 290v7h182zM903 -27q-156 0 -283 53.5t-208.5 145.5t-125 213t-42.5 258q1 128 35 250t101 226.5t158.5 183t215 123.5t262.5 45q156 0 282.5 -53.5t208 -145.5t125 -212.5t43.5 -258.5
q0 -161 -54.5 -310t-152 -264.5t-244.5 -184.5t-321 -69zM885 105q105 0 196 65t152.5 172.5t96.5 245.5t35 284q0 229 -89 348t-242 119q-141 0 -252.5 -111.5t-169.5 -285t-58 -370.5q0 -229 89 -348t242 -119z" />
    <glyph glyph-name="odblgrave" unicode="&#x20d;" horiz-adv-x="1174" 
d="M595 1556l114 -384h-118l-237 374v10h241zM982 1556l16 -384h-110l-134 374v10h228zM626 -23q-201 0 -312.5 125t-111.5 326q0 164 70 303t200 224t292 85q201 0 312.5 -125.5t111.5 -325.5q0 -164 -70 -303t-200 -224t-292 -85zM635 102q68 0 123 53.5t87.5 138
t50 180.5t17.5 189q0 123 -42.5 187.5t-116.5 64.5q-68 0 -123 -53.5t-87.5 -138t-50 -180.5t-17.5 -189q0 -123 42.5 -187.5t116.5 -64.5z" />
    <glyph glyph-name="Oinvertedbreve" unicode="&#x20e;" horiz-adv-x="1612" 
d="M1112 1898q113 0 186.5 -63.5t74.5 -160.5q0 -48 -17 -91h-95q2 7 2 27q0 54 -44 90t-114 36q-80 0 -130 -39.5t-63 -113.5h-96q5 148 83.5 231.5t212.5 83.5zM903 -27q-156 0 -283 53.5t-208.5 145.5t-125 213t-42.5 258q1 128 35 250t101 226.5t158.5 183t215 123.5
t262.5 45q156 0 282.5 -53.5t208 -145.5t125 -212.5t43.5 -258.5q0 -161 -54.5 -310t-152 -264.5t-244.5 -184.5t-321 -69zM885 105q105 0 196 65t152.5 172.5t96.5 245.5t35 284q0 229 -89 348t-242 119q-141 0 -252.5 -111.5t-169.5 -285t-58 -370.5q0 -229 89 -348
t242 -119z" />
    <glyph glyph-name="oinvertedbreve" unicode="&#x20f;" horiz-adv-x="1174" 
d="M823 1546q124 0 204.5 -74t80.5 -189q0 -55 -19 -103h-104q3 9 3 29q0 61 -49 103t-127 42q-89 0 -145.5 -45.5t-71.5 -128.5h-103q7 171 95.5 268.5t235.5 97.5zM626 -23q-201 0 -312.5 125t-111.5 326q0 164 70 303t200 224t292 85q201 0 312.5 -125.5t111.5 -325.5
q0 -164 -70 -303t-200 -224t-292 -85zM635 102q68 0 123 53.5t87.5 138t50 180.5t17.5 189q0 123 -42.5 187.5t-116.5 64.5q-68 0 -123 -53.5t-87.5 -138t-50 -180.5t-17.5 -189q0 -123 42.5 -187.5t116.5 -64.5z" />
    <glyph glyph-name="Rdblgrave" unicode="&#x210;" horiz-adv-x="1417" 
d="M822 1861l94 -297h-95l-192 290v7h193zM1132 1861l14 -297h-87l-109 290v7h182zM1088 0l-241 616q-41 -3 -81 -3h-122l-84 -397q-15 -66 6.5 -87t120.5 -32l-20 -97h-612l20 97q80 8 116.5 19.5t51.5 32t25 66.5l217 1014q6 28 6.5 44.5t-5.5 30t-24.5 21t-46 13
t-74.5 9.5l21 97h570q262 0 405.5 -97t143.5 -275q0 -151 -99 -253.5t-266 -155.5l123 -304q62 -152 100 -203t94 -65l-19 -91h-326zM1181 1062q0 126 -74.5 193.5t-215.5 72.5l-95 2l-128 -605l118 3q185 5 290 92.5t105 241.5z" />
    <glyph glyph-name="rdblgrave" unicode="&#x211;" horiz-adv-x="877" 
d="M494 1556l114 -384h-118l-237 374v10h241zM881 1556l16 -384h-110l-134 374v10h228zM653 1030l-57 -281q106 159 173.5 222t139.5 63q52 0 80.5 -35t28.5 -95q0 -53 -23 -97q-36 15 -101 15q-96 0 -176.5 -40t-132.5 -116l-131 -666h-268l168 790q8 37 -2.5 53.5
t-48.5 24.5l-85 15l20 93z" />
    <glyph glyph-name="Rinvertedbreve" unicode="&#x212;" horiz-adv-x="1417" 
d="M1009 1898q113 0 186.5 -63.5t74.5 -160.5q0 -48 -17 -91h-95q2 7 2 27q0 54 -44 90t-114 36q-80 0 -130 -39.5t-63 -113.5h-95q4 148 82.5 231.5t212.5 83.5zM1088 0l-241 616q-41 -3 -81 -3h-122l-84 -397q-15 -66 6.5 -87t120.5 -32l-20 -97h-612l20 97
q80 8 116.5 19.5t51.5 32t25 66.5l217 1014q6 28 6.5 44.5t-5.5 30t-24.5 21t-46 13t-74.5 9.5l21 97h570q262 0 405.5 -97t143.5 -275q0 -151 -99 -253.5t-266 -155.5l123 -304q62 -152 100 -203t94 -65l-19 -91h-326zM1181 1062q0 126 -74.5 193.5t-215.5 72.5l-95 2
l-128 -605l118 3q185 5 290 92.5t105 241.5z" />
    <glyph glyph-name="rinvertedbreve" unicode="&#x213;" horiz-adv-x="877" 
d="M722 1546q124 0 204.5 -74t80.5 -189q0 -59 -19 -103h-104q3 9 3 29q0 61 -49 103t-127 42q-89 0 -145 -45.5t-72 -128.5h-103q7 171 95.5 268.5t235.5 97.5zM653 1030l-57 -281q106 159 173.5 222t139.5 63q52 0 80.5 -35t28.5 -95q0 -53 -23 -97q-36 15 -101 15
q-96 0 -176.5 -40t-132.5 -116l-131 -666h-268l168 790q8 37 -2.5 53.5t-48.5 24.5l-85 15l20 93z" />
    <glyph glyph-name="Udblgrave" unicode="&#x214;" horiz-adv-x="1522" 
d="M977 1861l94 -297h-95l-192 290v7h193zM1287 1861l15 -297h-88l-109 290v7h182zM795 -31q-124 0 -225 40.5t-169 120t-91 197.5t9 273l130 614q16 70 -5.5 93.5t-116.5 39.5l21 97h607l-19 -97q-115 -16 -149 -39.5t-49 -93.5l-130 -606q-35 -157 -4.5 -258t103.5 -148
t183 -47q148 0 261 101t156 305l135 653q7 30 7.5 47.5t-5 32.5t-24 23.5t-45 15.5t-73.5 14l21 97h461l-20 -97q-101 -16 -132 -39.5t-46 -93.5l-149 -672q-60 -276 -229 -424.5t-413 -148.5z" />
    <glyph glyph-name="udblgrave" unicode="&#x215;" horiz-adv-x="1233" 
d="M633 1556l115 -384h-119l-237 374v10h241zM1020 1556l17 -384h-111l-133 374v10h227zM648 1031l-146 -697q-20 -92 11.5 -140.5t99.5 -48.5q87 0 154 73.5t93 194.5l81 377q8 37 -2 53t-47 25l-81 15l19 87l431 61l-169 -787q-19 -93 50 -93t121 40l-22 -99
q-39 -47 -115.5 -78t-149.5 -31q-86 0 -123.5 50.5t-21.5 144.5q0 2 8 42q-61 -118 -152 -180.5t-200 -62.5q-152 0 -219.5 101t-32.5 267l94 445q8 37 -2 54t-47 24l-86 15l20 93z" />
    <glyph glyph-name="Uinvertedbreve" unicode="&#x216;" horiz-adv-x="1522" 
d="M1164 1898q113 0 186.5 -63.5t74.5 -160.5q0 -47 -16 -91h-96q3 10 3 27q0 53 -44.5 89.5t-114.5 36.5q-80 0 -130 -39.5t-63 -113.5h-95q4 148 82.5 231.5t212.5 83.5zM795 -31q-124 0 -225 40.5t-169 120t-91 197.5t9 273l130 614q16 70 -5.5 93.5t-116.5 39.5l21 97
h607l-19 -97q-115 -16 -149 -39.5t-49 -93.5l-130 -606q-35 -157 -4.5 -258t103.5 -148t183 -47q148 0 261 101t156 305l135 653q7 30 7.5 47.5t-5 32.5t-24 23.5t-45 15.5t-73.5 14l21 97h461l-20 -97q-101 -16 -132 -39.5t-46 -93.5l-149 -672q-60 -276 -229 -424.5
t-413 -148.5z" />
    <glyph glyph-name="uinvertedbreve" unicode="&#x217;" horiz-adv-x="1233" 
d="M861 1546q125 0 205.5 -74t80.5 -189q0 -55 -19 -103h-104q2 12 2 29q0 61 -49 103t-126 42q-90 0 -146 -45.5t-71 -128.5h-104q7 172 95.5 269t235.5 97zM648 1031l-146 -697q-20 -92 11.5 -140.5t99.5 -48.5q87 0 154 73.5t93 194.5l81 377q8 37 -2 53t-47 25l-81 15
l19 87l431 61l-169 -787q-19 -93 50 -93t121 40l-22 -99q-39 -47 -115.5 -78t-149.5 -31q-86 0 -123.5 50.5t-21.5 144.5q0 2 8 42q-61 -118 -152 -180.5t-200 -62.5q-152 0 -219.5 101t-32.5 267l94 445q8 37 -2 54t-47 24l-86 15l20 93z" />
    <glyph glyph-name="Scommaaccent" unicode="&#x218;" horiz-adv-x="1169" 
d="M612 -31q-135 0 -270.5 36t-200.5 85l53 325h86q7 -148 97.5 -230t235.5 -82q117 0 195.5 62t78.5 166q0 79 -42.5 140t-148.5 127l-78 47q-148 91 -216 186.5t-68 219.5q0 184 141.5 304t391.5 120q133 0 253 -34t181 -83l-51 -320h-86q-8 148 -85 225.5t-214 77.5
q-110 0 -180.5 -55.5t-70.5 -147.5q0 -74 46 -133.5t155 -126.5l77 -47q145 -89 210.5 -184.5t65.5 -220.5q0 -136 -75 -241t-201 -160.5t-280 -55.5zM489 -491q-111 0 -180 46l19 85q62 -32 122 -32q53 0 84 20.5t31 54.5q0 33 -27.5 53t-70.5 20t-77 -10l19 80
q67 57 164 57q79 0 132 -50t53 -132q0 -91 -70.5 -141.5t-198.5 -50.5z" />
    <glyph glyph-name="scommaaccent" unicode="&#x219;" horiz-adv-x="922" 
d="M130 85l46 252h86q4 -114 67 -176.5t161 -62.5q78 0 121 35.5t44 95.5q0 52 -27 89t-97 79l-75 41q-104 60 -153.5 130t-49.5 161q0 137 111 224t297 87q224 0 340 -77l-51 -253h-86q-1 99 -55.5 154.5t-147.5 55.5q-72 0 -112.5 -33t-40.5 -88q0 -48 29 -83t101 -78
l74 -41q106 -62 151.5 -132.5t45.5 -165.5q0 -135 -113 -228.5t-306 -93.5q-113 0 -210 30t-150 78zM374 -491q-111 0 -180 46l19 85q62 -32 122 -32q53 0 84 20.5t31 54.5q0 33 -27.5 53t-69.5 20q-44 0 -78 -10l19 80q66 57 164 57q79 0 132 -50t53 -132
q0 -91 -70.5 -141.5t-198.5 -50.5z" />
    <glyph glyph-name="Tcommaaccent" unicode="&#x21a;" horiz-adv-x="1353" 
d="M1608 1444l-70 -380h-87q2 58 -1.5 97.5t-17 70t-33 47.5t-56 29t-79 16.5t-109.5 6.5l-51 1l-237 -1116q-6 -28 -6 -44t7 -29.5t27 -21t50 -13.5t82 -12l-20 -96h-661l21 96q88 9 128 21t56.5 33t26.5 66l237 1116l-52 -1q-81 -3 -131.5 -10t-95 -22.5t-74 -46
t-55.5 -74.5t-53 -114h-87l91 380h1250zM581 -491q-111 0 -180 46l19 85q62 -32 122 -32q53 0 84 20.5t31 54.5q0 33 -27.5 53t-69.5 20q-45 0 -77 -10l18 80q66 57 164 57q79 0 132 -50t53 -132q0 -92 -70.5 -142t-198.5 -50z" />
    <glyph glyph-name="tcommaaccent" unicode="&#x21b;" horiz-adv-x="772" 
d="M495 -19q-149 0 -213 93t-30 256l114 538h-157l18 87l163 27l44 201l279 39l-51 -236l284 10l-27 -128h-283l-107 -508q-44 -212 119 -212q106 0 165 53l-20 -100q-41 -52 -126 -86t-172 -34zM403 -491q-111 0 -180 46l19 85q62 -32 122 -32q53 0 84 20.5t31 54.5
q0 33 -27.5 53t-69.5 20q-44 0 -78 -10l19 80q67 57 164 57q79 0 132 -50t53 -132q0 -91 -70.5 -141.5t-198.5 -50.5z" />
    <glyph glyph-name="Hcaron" unicode="&#x21e;" horiz-adv-x="1628" 
d="M1390 1881h114l-252 -297h-187l-127 297h107l140 -146zM558 217q-14 -65 10 -86.5t124 -33.5l-19 -97h-620l21 97q79 9 116.5 21.5t53 34t25.5 67.5l215 1004q14 66 -11 88t-133 35l20 97h620l-21 -97q-74 -8 -109 -20t-51.5 -33.5t-25.5 -66.5l-91 -430h604l91 430
q5 33 6.5 53.5t-15 33.5t-44 20t-82.5 13l21 97h618l-19 -97q-78 -8 -115.5 -20.5t-54 -34.5t-26.5 -68l-214 -1004q-15 -66 10.5 -89t132.5 -34l-21 -97h-618l20 97q75 8 110 19.5t50.5 33t25.5 67.5l98 461h-604z" />
    <glyph glyph-name="hcaron" unicode="&#x21f;" horiz-adv-x="1247" 
d="M884 1881h115l-253 -297h-186l-128 297h108l140 -145zM773 1499l-168 -720q127 261 358 261q154 0 216.5 -97.5t26.5 -266.5l-93 -432q-20 -93 50 -93q69 0 120 40l-22 -99q-40 -47 -117 -78t-153 -31q-199 0 -151 237l97 461q20 94 -9.5 145.5t-95.5 51.5
q-78 0 -152.5 -80.5t-100.5 -202.5l-125 -595h-268l268 1258q8 37 -2.5 53.5t-48.5 24.5l-87 15l21 93z" />
    <glyph glyph-name="Adotaccent" unicode="&#x226;" horiz-adv-x="1425" 
d="M1050 1588q-52 0 -86.5 33.5t-34.5 82.5q0 55 38.5 93t92.5 38q52 0 86 -33.5t34 -83.5q0 -54 -38 -92t-92 -38zM1290 292q15 -115 43 -149t117 -46l-20 -97h-627l21 97q118 16 147 50.5t17 146.5l-21 183h-464l-98 -183q-25 -47 -36.5 -76t-13 -51t14.5 -34.5
t41.5 -20.5t72.5 -15l-20 -97h-470l21 97q96 12 137.5 46t108.5 154l640 1147h239zM566 596h388l-67 600z" />
    <glyph glyph-name="adotaccent" unicode="&#x227;" horiz-adv-x="1191" 
d="M836 1216q-61 0 -101.5 39.5t-40.5 98.5q0 64 45 109t109 45q60 0 100.5 -40t40.5 -99q0 -64 -44.5 -108.5t-108.5 -44.5zM188 352q0 138 40 264t110 219.5t171 149t216 55.5q91 0 153.5 -34t92.5 -88l102 99h146l-165 -773q-20 -93 50 -93q68 0 119 40l-21 -99
q-41 -47 -116.5 -78t-151.5 -31q-86 0 -122 50.5t-19 144.5q0 7 7 42q-52 -118 -137.5 -180.5t-194.5 -62.5q-120 0 -200 98.5t-80 276.5zM464 369q-1 -229 133 -229q74 0 136.5 73.5t90.5 207.5l88 410q-9 33 -48 56t-95 23q-73 0 -133 -51t-96.5 -131.5t-56 -174
t-19.5 -184.5z" />
    <glyph glyph-name="Ecedilla" unicode="&#x228;" horiz-adv-x="1277" 
d="M547 -491q-120 0 -202 59l21 92q62 -38 142 -39q53 1 82.5 21.5t29.5 55.5q0 39 -32.5 60t-92.5 21h-27l18 85l127 136h-558l21 97q80 9 116 21t51.5 32.5t25.5 66.5l216 1010q14 66 -10 86.5t-133 33.5l20 97h1095l-71 -380h-86q-2 83 -14 130.5t-45 77t-81.5 39.5
t-135.5 13l-229 8l-114 -538h226q51 0 81.5 36t81.5 163h81l-108 -510h-82q4 87 -2.5 129t-23 56.5t-52.5 14.5h-226l-121 -571l236 8q72 3 115.5 7t87.5 16.5t70.5 30.5t55.5 52.5t52 79.5t51 114h87l-102 -420h-453l-98 -105q89 -11 140.5 -60.5t51.5 -125.5
q0 -90 -76 -145t-207 -55z" />
    <glyph glyph-name="ecedilla" unicode="&#x229;" horiz-adv-x="985" 
d="M506 -491q-120 0 -202 59l21 92q60 -38 142 -39q53 1 82.5 21.5t29.5 55.5q0 39 -32.5 60t-93.5 21h-26l18 85l108 116q-152 18 -253 132t-101 311q0 132 46.5 248.5t123.5 196.5t178.5 126t209.5 46q139 0 223 -62t84 -166q0 -131 -134.5 -221.5t-397.5 -166.5l-53 -15
q12 -130 81 -198.5t175 -68.5q142 0 239 87l-22 -102q-92 -120 -275 -145l-81 -87q90 -11 141 -60.5t51 -125.5q0 -90 -75.5 -145t-206.5 -55zM740 919q-103 0 -178 -112.5t-85 -294.5l41 13q323 100 323 278q0 116 -101 116z" />
    <glyph glyph-name="Odieresismacron" unicode="&#x22a;" horiz-adv-x="1612" 
d="M827 1835l24 111h623l-23 -111h-624zM902 1549h-13q-44 0 -67.5 25t-15.5 63t43 63t78 25h13q42 0 66.5 -25.5t15.5 -62.5q-8 -38 -43 -63t-77 -25zM1244 1549h-13q-43 0 -67 25t-16 63q9 38 43.5 63t77.5 25h13q43 0 67 -25.5t16 -62.5q-8 -38 -42.5 -63t-78.5 -25z
M903 -27q-156 0 -283 53.5t-208.5 145.5t-125 213t-42.5 258q1 128 35 250t101 226.5t158.5 183t215 123.5t262.5 45q156 0 282.5 -53.5t208 -145.5t125 -212.5t43.5 -258.5q0 -161 -54.5 -310t-152 -264.5t-244.5 -184.5t-321 -69zM885 105q105 0 196 65t152.5 172.5
t96.5 245.5t35 284q0 229 -89 348t-242 119q-141 0 -252.5 -111.5t-169.5 -285t-58 -370.5q0 -229 89 -348t242 -119z" />
    <glyph glyph-name="odieresismacron" unicode="&#x22b;" horiz-adv-x="1174" 
d="M550 1503l28 131h608l-28 -131h-608zM596 1157h-13q-45 0 -70 30t-15 74q9 45 46.5 74.5t82.5 29.5h13q45 0 70 -29.5t16 -74.5q-10 -44 -47.5 -74t-82.5 -30zM956 1157h-13q-44 0 -69 30t-16 74q10 45 47.5 74.5t82.5 29.5h13q45 0 70 -30t15 -74q-9 -44 -47 -74
t-83 -30zM626 -23q-201 0 -312.5 125t-111.5 326q0 164 70 303t200 224t292 85q201 0 312.5 -125.5t111.5 -325.5q0 -164 -70 -303t-200 -224t-292 -85zM635 102q68 0 123 53.5t87.5 138t50 180.5t17.5 189q0 123 -42.5 187.5t-116.5 64.5q-68 0 -123 -53.5t-87.5 -138
t-50 -180.5t-17.5 -189q0 -123 42.5 -187.5t116.5 -64.5z" />
    <glyph glyph-name="Otildemacron" unicode="&#x22c;" horiz-adv-x="1612" 
d="M827 1835l24 111h623l-23 -111h-624zM1208 1549q-60 0 -135 26l-31 10q-55 20 -87 20q-67 0 -80 -62h-110q19 88 80 135.5t141 47.5q60 0 135 -26l30 -11q57 -19 89 -19q66 0 79 62h109q-18 -89 -78 -136t-142 -47zM903 -27q-156 0 -283 53.5t-208.5 145.5t-125 213
t-42.5 258q1 128 35 250t101 226.5t158.5 183t215 123.5t262.5 45q156 0 282.5 -53.5t208 -145.5t125 -212.5t43.5 -258.5q0 -161 -54.5 -310t-152 -264.5t-244.5 -184.5t-321 -69zM885 105q105 0 196 65t152.5 172.5t96.5 245.5t35 284q0 229 -89 348t-242 119
q-141 0 -252.5 -111.5t-169.5 -285t-58 -370.5q0 -229 89 -348t242 -119z" />
    <glyph glyph-name="otildemacron" unicode="&#x22d;" horiz-adv-x="1174" 
d="M550 1503l28 131h608l-28 -131h-608zM910 1165q-59 0 -130 30l-30 13q-51 22 -84 22q-65 0 -81 -71h-108q23 103 83.5 158.5t139.5 55.5q62 0 132 -30l28 -13q55 -22 86 -22q65 0 79 72h108q-22 -104 -82.5 -159.5t-140.5 -55.5zM626 -23q-201 0 -312.5 125t-111.5 326
q0 164 70 303t200 224t292 85q201 0 312.5 -125.5t111.5 -325.5q0 -164 -70 -303t-200 -224t-292 -85zM635 102q68 0 123 53.5t87.5 138t50 180.5t17.5 189q0 123 -42.5 187.5t-116.5 64.5q-68 0 -123 -53.5t-87.5 -138t-50 -180.5t-17.5 -189q0 -123 42.5 -187.5
t116.5 -64.5z" />
    <glyph glyph-name="Odotaccent" unicode="&#x22e;" horiz-adv-x="1612" 
d="M1109 1588q-52 0 -87 33.5t-35 82.5q0 55 38.5 93t92.5 38q52 0 86.5 -33.5t34.5 -83.5q0 -54 -38.5 -92t-91.5 -38zM903 -27q-156 0 -283 53.5t-208.5 145.5t-125 213t-42.5 258q1 128 35 250t101 226.5t158.5 183t215 123.5t262.5 45q156 0 282.5 -53.5t208 -145.5
t125 -212.5t43.5 -258.5q0 -161 -54.5 -310t-152 -264.5t-244.5 -184.5t-321 -69zM885 105q105 0 196 65t152.5 172.5t96.5 245.5t35 284q0 229 -89 348t-242 119q-141 0 -252.5 -111.5t-169.5 -285t-58 -370.5q0 -229 89 -348t242 -119z" />
    <glyph glyph-name="odotaccent" unicode="&#x22f;" horiz-adv-x="1174" 
d="M819 1216q-61 0 -101.5 39.5t-40.5 98.5q0 64 45 109t109 45q61 0 101 -40t40 -99q0 -64 -44.5 -108.5t-108.5 -44.5zM626 -23q-201 0 -312.5 125t-111.5 326q0 164 70 303t200 224t292 85q201 0 312.5 -125.5t111.5 -325.5q0 -164 -70 -303t-200 -224t-292 -85zM635 102
q68 0 123 53.5t87.5 138t50 180.5t17.5 189q0 123 -42.5 187.5t-116.5 64.5q-68 0 -123 -53.5t-87.5 -138t-50 -180.5t-17.5 -189q0 -123 42.5 -187.5t116.5 -64.5z" />
    <glyph glyph-name="Odotaccentmacron" unicode="&#x230;" horiz-adv-x="1612" 
d="M822 1810l23 111h624l-24 -111h-623zM1100 1541q-47 0 -79.5 27.5t-33.5 68.5q-1 40 30.5 67.5t76.5 27.5q47 0 80 -27.5t33 -67.5q1 -41 -30 -68.5t-77 -27.5zM903 -27q-156 0 -283 53.5t-208.5 145.5t-125 213t-42.5 258q1 128 35 250t101 226.5t158.5 183t215 123.5
t262.5 45q156 0 282.5 -53.5t208 -145.5t125 -212.5t43.5 -258.5q0 -161 -54.5 -310t-152 -264.5t-244.5 -184.5t-321 -69zM885 105q105 0 196 65t152.5 172.5t96.5 245.5t35 284q0 229 -89 348t-242 119q-141 0 -252.5 -111.5t-169.5 -285t-58 -370.5q0 -229 89 -348
t242 -119z" />
    <glyph glyph-name="odotaccentmacron" unicode="&#x231;" horiz-adv-x="1174" 
d="M548 1491l27 131h609l-28 -131h-608zM805 1157q-49 0 -82.5 32.5t-33.5 80.5t34 80t82 32q49 0 82.5 -32t33.5 -80t-33.5 -80.5t-82.5 -32.5zM626 -23q-201 0 -312.5 125t-111.5 326q0 164 70 303t200 224t292 85q201 0 312.5 -125.5t111.5 -325.5q0 -164 -70 -303
t-200 -224t-292 -85zM635 102q68 0 123 53.5t87.5 138t50 180.5t17.5 189q0 123 -42.5 187.5t-116.5 64.5q-68 0 -123 -53.5t-87.5 -138t-50 -180.5t-17.5 -189q0 -123 42.5 -187.5t116.5 -64.5z" />
    <glyph glyph-name="Ymacron" unicode="&#x232;" horiz-adv-x="1356" 
d="M790 1629l32 147h546l-31 -147h-547zM469 1162q-38 106 -72 139.5t-116 45.5l20 97h622l-20 -97q-114 -13 -136.5 -48.5t12.5 -135.5l141 -420l316 420q33 43 49 69.5t21.5 48t-7 33.5t-37.5 20t-70 13l21 97h456l-21 -97q-89 -12 -135.5 -44t-133.5 -141l-424 -536
l-87 -410q-6 -28 -5.5 -44t7 -29.5t27 -21.5t50.5 -13.5t82 -11.5l-21 -96h-660l20 96q89 9 129 21t56.5 32.5t26.5 66.5l85 405z" />
    <glyph glyph-name="ymacron" unicode="&#x233;" horiz-adv-x="1034" 
d="M471 1266l34 161h606l-34 -161h-606zM564 1031l29 -875q289 355 363 597q-60 1 -102 42.5t-42 99.5q0 62 44.5 103.5t110.5 41.5q69 0 112.5 -44t43.5 -115q0 -107 -117.5 -313.5t-349.5 -497.5q-104 -127 -175 -208q-155 -183 -281 -322h-293v24q109 75 236.5 177
t214.5 184l-51 871q-2 35 -17.5 50.5t-56.5 23.5l-77 13l19 95z" />
    <glyph glyph-name="dotlessj" unicode="&#x237;" horiz-adv-x="614" 
d="M670 1030l-204 -960q-34 -156 -92.5 -256.5t-164 -172t-275.5 -121.5l-30 87q72 32 120 73t81.5 103t54 129t43.5 177l149 701q8 37 -2.5 53.5t-48.5 24.5l-86 15l21 93z" />
    <glyph glyph-name="schwa" unicode="&#x259;" horiz-adv-x="985" 
d="M595 1040q80 0 152 -28t129 -81.5t91 -140.5t34 -196q0 -132 -46 -248.5t-123 -196.5t-178.5 -126t-210.5 -46q-139 0 -223 62t-84 166q0 67 36.5 124t109 103.5t165.5 84.5t222 75l53 16q-12 129 -81 197.5t-176 68.5q-143 0 -238 -86l22 102q54 71 147.5 110.5
t198.5 39.5zM360 214q0 -117 101 -117q103 0 178 112.5t85 295.5l-42 -14q-150 -46 -236 -115.5t-86 -161.5z" />
    <glyph glyph-name="g.1" unicode="&#x261;" horiz-adv-x="1158" 
d="M422 -361q258 0 338 368l49 224q-56 -121 -139 -187.5t-188 -66.5q-135 0 -211 98t-76 270q0 191 75 352t198.5 252t265.5 91q91 0 153.5 -34t94.5 -86l100 97h149l-209 -967q-58 -268 -216.5 -401t-369.5 -133q-150 0 -241.5 64t-91.5 158q0 54 38 92t91 38t91.5 -37.5
t38.5 -89.5q0 -51 -31 -87q42 -15 91 -15zM472 361q0 -109 38.5 -165.5t100.5 -56.5q71 0 131.5 73.5t90.5 208.5l85 400q-7 32 -42.5 58t-86.5 26q-85 0 -158.5 -76.5t-116 -202t-42.5 -265.5z" />
    <glyph glyph-name="quoteright" unicode="&#x2019;" horiz-adv-x="567" 
d="M301 901l20 94q88 5 140.5 44t52.5 97q0 51 -36.5 84.5t-98.5 44.5q2 88 51 149t130 61q71 0 118.5 -54t47.5 -148q0 -161 -118 -265.5t-307 -106.5z" />
    <glyph glyph-name="quoteright" unicode="&#x2bc;" horiz-adv-x="567" 
d="M301 901l20 94q88 5 140.5 44t52.5 97q0 51 -36.5 84.5t-98.5 44.5q2 88 51 149t130 61q71 0 118.5 -54t47.5 -148q0 -161 -118 -265.5t-307 -106.5z" />
    <glyph glyph-name="circumflex" unicode="&#x2c6;" horiz-adv-x="1024" 
d="M577 1172h-124l292 384h195l129 -384h-113l-146 197z" />
    <glyph glyph-name="caron" unicode="&#x2c7;" horiz-adv-x="1024" 
d="M1028 1556h122l-291 -384h-194l-130 384h114l146 -197z" />
    <glyph glyph-name="breve" unicode="&#x2d8;" horiz-adv-x="1024" 
d="M808 1180q-125 0 -205.5 74t-80.5 188q0 56 20 104h103q-3 -24 -3 -30q0 -62 49.5 -104t126.5 -42q90 0 146 45.5t71 130.5h103q-7 -172 -95 -269t-235 -97z" />
    <glyph glyph-name="dotaccent" unicode="&#x2d9;" horiz-adv-x="1024" 
d="M796 1216q-61 0 -101.5 39.5t-40.5 98.5q0 64 45 109t109 45q61 0 101 -40t40 -99q0 -64 -44.5 -108.5t-108.5 -44.5z" />
    <glyph glyph-name="ring" unicode="&#x2da;" horiz-adv-x="1024" 
d="M525 1352q0 102 80.5 167.5t213.5 65.5q115 0 187.5 -57t72.5 -152q0 -101 -80 -167t-214 -66q-115 0 -187.5 57.5t-72.5 151.5zM700 1346q0 -48 23.5 -75.5t64.5 -27.5q47 0 82 39.5t35 99.5q0 48 -24 75.5t-65 27.5q-47 0 -81.5 -39t-34.5 -100z" />
    <glyph glyph-name="ogonek" unicode="&#x2db;" horiz-adv-x="1024" 
d="M245 -491q-91 0 -148 44.5t-57 116.5q0 80 67 152t220 153l123 61h105l-102 -60q-196 -118 -196 -243q0 -46 27 -69.5t74 -23.5q58 0 102 28l-20 -95q-26 -28 -80.5 -46t-114.5 -18z" />
    <glyph glyph-name="tilde" unicode="&#x2dc;" horiz-adv-x="1024" 
d="M924 1207q-80 0 -155 65l-32 29q-45 40 -78 40q-31 0 -50.5 -31t-31.5 -113h-108q21 175 75 248t137 73q80 0 155 -64l32 -30q44 -39 78 -39q31 0 50.5 30.5t31.5 112.5h108q-21 -175 -74.5 -248t-137.5 -73z" />
    <glyph glyph-name="hungarumlaut" unicode="&#x2dd;" horiz-adv-x="1024" 
d="M683 1556h233v-10l-256 -374h-125zM1078 1556h263v-10l-369 -374h-132z" />
    <glyph glyph-name="gravecmb" unicode="&#x300;" 
d="M255 1556l110 -384h-111l-282 370v14h283z" />
    <glyph glyph-name="acutecmb" unicode="&#x301;" 
d="M379 1556h305v-14l-428 -370h-125z" />
    <glyph glyph-name="circumflexcmb" unicode="&#x302;" 
d="M65 1172h-124l292 384h195l129 -384h-113l-146 197z" />
    <glyph glyph-name="tildecmb" unicode="&#x303;" 
d="M412 1207q-80 0 -155 65l-32 29q-45 40 -78 40q-31 0 -50.5 -31t-31.5 -113h-108q21 175 75 248t137 73q80 0 155 -64l32 -30q44 -39 78 -39q31 0 50.5 30.5t31.5 112.5h108q-21 -175 -74.5 -248t-137.5 -73z" />
    <glyph glyph-name="macroncmb" unicode="&#x304;" 
d="M-34 1266l34 161h606l-34 -161h-606z" />
    <glyph glyph-name="brevecmb" unicode="&#x306;" 
d="M296 1180q-125 0 -205.5 74t-80.5 188q0 56 20 104h103q-3 -24 -3 -30q0 -62 49.5 -104t126.5 -42q90 0 146 45.5t71 130.5h103q-7 -172 -95 -269t-235 -97z" />
    <glyph glyph-name="dotaccentcmb" unicode="&#x307;" 
d="M284 1216q-61 0 -101.5 39.5t-40.5 98.5q0 64 45 109t109 45q61 0 101 -40t40 -99q0 -64 -44.5 -108.5t-108.5 -44.5z" />
    <glyph glyph-name="dieresiscmb" unicode="&#x308;" 
d="M61 1225q-58 0 -95.5 37t-37.5 93q0 60 42.5 102t101.5 42q57 0 95 -37.5t38 -92.5q0 -60 -42 -102t-102 -42zM507 1225q-58 0 -95.5 37t-37.5 93q0 60 42.5 102t101.5 42q57 0 95 -37.5t38 -92.5q0 -60 -42 -102t-102 -42z" />
    <glyph glyph-name="hookabovecmb" unicode="&#x309;" 
d="M327 1561q91 0 148.5 -47.5t57.5 -118.5q0 -69 -61 -121.5t-183 -104.5h-120q165 101 165 184q0 36 -29 56.5t-86 20.5q-77 0 -133 -36l19 86q34 36 93 58.5t129 22.5z" />
    <glyph glyph-name="ringcmb" unicode="&#x30a;" 
d="M13 1352q0 102 80.5 167.5t213.5 65.5q115 0 187.5 -57t72.5 -152q0 -101 -80 -167t-214 -66q-115 0 -187.5 57.5t-72.5 151.5zM188 1346q0 -48 23.5 -75.5t64.5 -27.5q47 0 82 39.5t35 99.5q0 48 -24 75.5t-65 27.5q-47 0 -81.5 -39t-34.5 -100z" />
    <glyph glyph-name="hungarumlautcmb" unicode="&#x30b;" 
d="M171 1556h233v-10l-256 -374h-125zM566 1556h263v-10l-369 -374h-132z" />
    <glyph glyph-name="caroncmb" unicode="&#x30c;" 
d="M516 1556h122l-291 -384h-194l-130 384h114l146 -197z" />
    <glyph glyph-name="dblgravecmb" unicode="&#x30f;" 
d="M60 1556l115 -384h-119l-237 374v10h241zM447 1556l17 -384h-111l-133 374v10h227z" />
    <glyph glyph-name="invertedbrevecmb" unicode="&#x311;" 
d="M288 1546q124 0 204.5 -74t80.5 -189q0 -55 -19 -103h-104q3 9 3 29q0 61 -49 103t-127 42q-89 0 -145 -45.5t-72 -128.5h-103q7 171 95.5 268.5t235.5 97.5z" />
    <glyph glyph-name="horncmb" unicode="&#x31b;" 
d="M289 1337h112q50 -25 82 -68.5t32 -95.5q0 -233 -491 -233l16 77q80 0 138.5 18.5t88.5 49.5t43.5 64.5t13.5 71.5q0 74 -35 116z" />
    <glyph glyph-name="dotbelowcmb" unicode="&#x323;" 
d="M-69 -435q-57 0 -95 35.5t-38 88.5q-1 58 41 98t101 40q57 0 94.5 -35.5t37.5 -88.5q1 -58 -40.5 -98t-100.5 -40z" />
    <glyph glyph-name="dieresisbelowcmb" unicode="&#x324;" 
d="M-276 -428q-54 0 -89 33.5t-36 83.5q0 54 39 92t95 38q53 0 88.5 -33.5t35.5 -83.5q1 -55 -38 -92.5t-95 -37.5zM139 -428q-54 0 -89.5 33.5t-35.5 83.5q-1 54 38 92t95 38q54 0 89 -33.5t36 -83.5q0 -55 -38.5 -92.5t-94.5 -37.5z" />
    <glyph glyph-name="ringbelowcmb" unicode="&#x325;" 
d="M-344 -313q-4 86 75 144.5t212 58.5q115 0 189 -51t76 -134q4 -85 -75.5 -144t-212.5 -59q-114 0 -188 51t-76 134zM-170 -318q1 -38 26.5 -60.5t66.5 -22.5q47 0 79.5 30.5t30.5 79.5q-2 38 -27 60.5t-65 22.5q-47 0 -80 -30.5t-31 -79.5z" />
    <glyph glyph-name="commaaccentcmb" unicode="&#x326;" 
d="M-98 -491q-111 0 -180 46l19 85q62 -32 122 -32q52 0 83.5 20.5t31.5 54.5q0 33 -27.5 53t-70.5 20t-77 -10l18 80q68 57 165 57q79 0 132 -50t53 -132q0 -91 -70.5 -141.5t-198.5 -50.5z" />
    <glyph glyph-name="cedillacmb" unicode="&#x327;" 
d="M-104 -491q-120 0 -202 59l21 92q60 -38 141 -39q53 1 82.5 21.5t29.5 55.5q0 39 -32 60t-93 21h-26l18 85l172 185h88l-10 -49l-99 -105q90 -11 141 -60.5t51 -125.5q0 -90 -75.5 -145t-206.5 -55z" />
    <glyph glyph-name="ogonekcmb" unicode="&#x328;" 
d="M-267 -491q-91 0 -148 44.5t-57 116.5q0 80 67 152t220 153l123 61h105l-102 -60q-196 -118 -196 -243q0 -46 27 -69.5t74 -23.5q58 0 102 28l-20 -95q-26 -28 -80.5 -46t-114.5 -18z" />
    <glyph glyph-name="circumflexbelowcmb" unicode="&#x32d;" 
d="M-273 -477h-115l269 345h181l123 -345h-106l-136 177z" />
    <glyph glyph-name="brevebelowcmb" unicode="&#x32e;" 
d="M-60 -469q-115 0 -190.5 66.5t-76.5 169.5q0 52 18 93h96q-3 -18 -3 -26q1 -56 47 -93.5t118 -37.5q84 0 135.5 41t64.5 116h96q-5 -155 -86 -242t-219 -87z" />
    <glyph glyph-name="tildebelowcmb" unicode="&#x330;" 
d="M50 -444q-76 0 -144 57l-30 27q-41 35 -73 35q-28 0 -46.5 -27.5t-29.5 -101.5h-100q18 157 68 223t127 66q75 0 144 -58l31 -26q41 -36 72 -36q29 0 47 27.5t29 101.5h101q-18 -157 -68 -222.5t-128 -65.5z" />
    <glyph glyph-name="macronbelowcmb" unicode="&#x332;" 
d="M-362 -376l31 145h564l-31 -145h-564z" />
    <glyph glyph-name="macronbelowcmb" unicode="&#x331;" 
d="M-362 -376l31 145h564l-31 -145h-564z" />
    <glyph glyph-name="numeralsigngreek" unicode="&#x374;" horiz-adv-x="283" 
d="M321 1007h-98l136 437h221z" />
    <glyph glyph-name="lownumeralsigngreek" unicode="&#x375;" horiz-adv-x="283" 
d="M182 32h98l-136 -437h-220z" />
    <glyph glyph-name="tonosgreek" unicode="&#x384;" horiz-adv-x="1024" 
d="M825 1556h270v-14l-292 -384h-149z" />
    <glyph glyph-name="dieresistonosgreek" unicode="&#x385;" horiz-adv-x="1024" 
d="M788 1556h257v-14l-256 -384h-141zM476 1210q-52 0 -86 34t-34 84q0 54 38.5 92t92.5 38q52 0 86 -33.5t34 -83.5q0 -55 -38 -93t-93 -38zM1136 1210q-52 0 -86 34t-34 84q0 55 38 92.5t92 37.5q52 0 86.5 -33.5t34.5 -83.5q0 -55 -38 -93t-93 -38z" />
    </font>
</defs>
</svg>
