<?xml version="1.0" standalone="no"?>
<!DOCTYPE svg PUBLIC "-//W3C//DTD SVG 1.1//EN" "http://www.w3.org/Graphics/SVG/1.1/DTD/svg11.dtd" >
<svg xmlns="http://www.w3.org/2000/svg" xmlns:xlink="http://www.w3.org/1999/xlink" version="1.1">
<metadata>
Created by FontForge 20170731 at Fri Aug 16 05:19:18 2019
 By Aleksey,,,
(c) 2017-2019 Apple Inc. All rights reserved.
</metadata>
<defs>
<font id="NewYorkSmall-MediumItalic" horiz-adv-x="0" >
  <font-face 
    font-family="New York Small"
    font-weight="500"
    font-style="italic"
    font-variant="small-caps"
    font-stretch="normal"
    units-per-em="2048"
    panose-1="0 0 0 0 0 0 0 0 0 0"
    ascent="1638"
    descent="-410"
    x-height="1010"
    cap-height="1444"
    bbox="-446 -519 3543.02 1983"
    underline-thickness="109"
    underline-position="-448"
    slope="-12"
    unicode-range="U+0020-1F16B"
  />
<missing-glyph horiz-adv-x="2048" 
d="M16 -494l519 2444h167l-519 -2444h-167zM426 -494l519 2444h167l-519 -2444h-167zM836 -494l519 2444h167l-519 -2444h-167zM1245 -494l519 2444h167l-519 -2444h-167zM1655 -494l519 2444h167l-519 -2444h-167z" />
    <glyph glyph-name=".notdef" horiz-adv-x="2048" 
d="M16 -494l519 2444h167l-519 -2444h-167zM426 -494l519 2444h167l-519 -2444h-167zM836 -494l519 2444h167l-519 -2444h-167zM1245 -494l519 2444h167l-519 -2444h-167zM1655 -494l519 2444h167l-519 -2444h-167z" />
    <glyph glyph-name=".null" 
 />
    <glyph glyph-name="nonmarkingreturn" 
 />
    <glyph glyph-name="space" unicode=" " horiz-adv-x="485" 
 />
    <glyph glyph-name="exclam" unicode="!" horiz-adv-x="605" 
d="M593 1475q60 0 94 -35t34 -93q0 -53 -34.5 -163.5t-129.5 -374.5l-127 -350h-65l32 375q32 383 45 468q26 173 151 173zM333 -23q-61 0 -103.5 40.5t-42.5 97.5q0 60 42.5 101.5t102.5 41.5q61 0 103.5 -40.5t42.5 -97.5q0 -60 -42.5 -101.5t-102.5 -41.5z" />
    <glyph glyph-name="quotedbl" unicode="&#x22;" horiz-adv-x="858" 
d="M554 1475q48 0 72 -29t24 -78q0 -14 -2 -28t-7.5 -34.5t-10 -35.5t-16 -46t-18.5 -49.5t-23.5 -62t-26.5 -68.5l-67 -178h-76l7 204q8 210 19 277q21 128 125 128zM912 1475q47 0 71.5 -29t24.5 -78q0 -14 -2 -28t-8 -34.5t-10.5 -36t-15.5 -46t-18.5 -49t-24 -61.5
t-26.5 -69l-67 -178h-75l7 204q7 206 19 277q20 128 125 128z" />
    <glyph glyph-name="numbersign" unicode="#" horiz-adv-x="1206" 
d="M246 0l110 390h-206l41 145h207l105 374h-206l41 145h206l110 390h154l-111 -390h307l110 390h151l-110 -390h208l-41 -145h-207l-106 -374h207l-41 -145h-207l-110 -390h-152l110 390h-306l-110 -390h-154zM551 535h306l106 374h-307z" />
    <glyph glyph-name="dollar" unicode="$" horiz-adv-x="1206" 
d="M534 -189l43 202q-111 7 -209.5 39.5t-160.5 79.5l48 304h77q5 -156 75.5 -227.5t193.5 -80.5l108 507l-43 26q-136 83 -203.5 172.5t-67.5 200.5q0 176 127 285t357 114l43 200h80l-43 -202q94 -7 181.5 -30t135.5 -49l-47 -303h-77q1 240 -218 265l-99 -465l50 -31
q134 -83 199.5 -171.5t65.5 -200.5q0 -190 -136.5 -308t-356.5 -126l-43 -201h-80zM626 1096q0 -53 33.5 -100.5t105.5 -99.5l89 421q-105 -5 -167 -63t-61 -158zM916 373q0 62 -32 113.5t-104 102.5l-99 -461q107 9 171.5 71t63.5 174z" />
    <glyph glyph-name="percent" unicode="%" horiz-adv-x="1907" 
d="M579 633q-70 0 -125 28t-88.5 76t-51 108.5t-17.5 128.5q-1 90 25 177t73.5 157t121 112.5t160.5 42.5q136 0 209 -98.5t73 -242.5q1 -91 -25 -178t-73.5 -156.5t-121 -112t-160.5 -42.5zM420 0l1231 1444h142l-1230 -1444h-143zM579 718q63 0 111.5 76.5t71 184.5
t21.5 220q-4 180 -107 180q-63 0 -111.5 -76.5t-71 -185t-21.5 -220.5q5 -179 107 -179zM1534 -18q-136 0 -209 99t-73 242q-1 123 43 233.5t133.5 183.5t204.5 73q136 0 209 -99t73 -243q1 -122 -43 -232.5t-133.5 -183.5t-204.5 -73zM1535 68q62 0 110.5 76t71.5 184.5
t22 220.5q-5 179 -108 179q-62 0 -110.5 -76.5t-71.5 -185t-22 -220.5q5 -178 108 -178z" />
    <glyph glyph-name="ampersand" unicode="&#x26;" horiz-adv-x="1525" 
d="M153 336q0 162 101.5 272.5t294.5 180.5q-120 176 -115 327q5 154 117 256.5t298 102.5q178 0 281 -82t103 -219q0 -225 -384 -362l1 -2l299 -357l123 160q79 104 65.5 137t-139.5 47l19 88h475l-18 -88q-96 -17 -152.5 -54.5t-157.5 -157.5l-161 -196l15 -19
q62 -74 83 -99t66.5 -74t80.5 -76.5t73 -49.5l-15 -71h-306l-170 203q-121 -118 -230 -176t-233 -58q-193 0 -303.5 103t-110.5 264zM666 1168q0 -62 30 -130t103 -164q121 54 174.5 122.5t53.5 159.5q0 83 -45.5 141t-129.5 58t-135 -51t-51 -136zM382 419
q0 -124 87.5 -207t223.5 -83q81 0 145 34.5t139 104.5l-351 418q-9 12 -27 34q-104 -56 -160.5 -126.5t-56.5 -174.5z" />
    <glyph glyph-name="quotesingle" unicode="'" horiz-adv-x="500" 
d="M554 1475q48 0 72 -29t24 -78q0 -14 -2 -28t-7.5 -34.5t-10 -35.5t-16 -46t-18.5 -49.5t-23.5 -62t-26.5 -68.5l-67 -178h-76l7 204q8 210 19 277q21 128 125 128z" />
    <glyph glyph-name="parenleft" unicode="(" horiz-adv-x="669" 
d="M438 373q0 -184 38.5 -357.5t103.5 -295.5h-102q-125 132 -191 326.5t-66 411.5q0 232 76 451.5t223.5 397t343.5 273.5h112q-141 -107 -247 -250.5t-168 -302.5t-92.5 -322.5t-30.5 -331.5z" />
    <glyph glyph-name="parenright" unicode=")" horiz-adv-x="669" 
d="M508 927q0 184 -39 357.5t-104 295.5h102q125 -132 191 -326.5t66 -411.5q0 -232 -76 -451t-223 -396.5t-344 -274.5h-112q140 107 246 250.5t169 302.5t93.5 322.5t30.5 331.5z" />
    <glyph glyph-name="asterisk" unicode="*" horiz-adv-x="756" 
d="M668 1472q33 0 54 -22t21 -55t-23 -77l-89 -188h-31l-14 182q-3 44 -3 63q0 46 22.5 71.5t62.5 25.5zM385 1349q60 0 116 -81l99 -138l-18 -26l-183 73q-91 33 -91 95q0 31 21.5 54t55.5 23zM891 1295q34 0 56.5 -20.5t22.5 -52.5q0 -80 -137 -94l-191 -26l-11 28
l142 108q44 33 68.5 45t49.5 12zM333 912q-35 0 -57 20t-22 52q0 80 137 94l191 26l11 -29l-141 -107q-43 -32 -68 -44t-51 -12zM916 934q0 -31 -21.5 -54t-55.5 -23q-60 0 -116 81l-99 137l18 27l183 -74q91 -32 91 -94zM556 733q-33 0 -54.5 22.5t-21.5 55.5q0 27 23 77
l90 187h31l15 -181q3 -43 3 -63q0 -46 -23 -72t-63 -26z" />
    <glyph glyph-name="plus" unicode="+" horiz-adv-x="1206" 
d="M545 107l85 402h-401l34 161h401l86 403h162l-85 -403h402l-35 -161h-402l-85 -402h-162z" />
    <glyph glyph-name="comma" unicode="," horiz-adv-x="553" 
d="M59 -259l19 86q86 6 137 45t51 97q0 50 -34.5 83t-93.5 45q1 81 45.5 137.5t118.5 56.5q65 0 108.5 -50.5t43.5 -140.5q0 -154 -109.5 -255t-285.5 -104z" />
    <glyph glyph-name="hyphen" unicode="&#x2011;" horiz-adv-x="825" 
d="M788 502h-536l36 174h535z" />
    <glyph glyph-name="hyphen" unicode="-" horiz-adv-x="825" 
d="M788 502h-536l36 174h535z" />
    <glyph glyph-name="period" unicode="." horiz-adv-x="553" 
d="M303 -21q-65 0 -109 43.5t-44 104.5q0 65 44.5 109.5t108.5 44.5q65 0 109.5 -43.5t44.5 -104.5q0 -65 -45 -109.5t-109 -44.5z" />
    <glyph glyph-name="slash" unicode="/" horiz-adv-x="669" 
d="M-58 -280l893 1860h168l-893 -1860h-168z" />
    <glyph glyph-name="zero" unicode="0" horiz-adv-x="1286" 
d="M701 -31q-92 0 -168 33t-128.5 89t-88.5 132t-52.5 161.5t-16.5 178.5q0 105 20.5 213.5t58.5 210t95.5 190.5t127.5 155t159 104.5t185 38.5q92 0 168.5 -33t128.5 -89t87.5 -132t52 -161t16.5 -178q0 -127 -28.5 -256.5t-85 -247t-133 -209t-180 -146t-218.5 -54.5z
M701 89q90 0 166 85.5t123.5 220t74 289.5t26.5 302q0 370 -198 370q-72 0 -136.5 -56.5t-110 -149t-79 -210t-49.5 -241t-16 -240.5q0 -370 199 -370z" />
    <glyph glyph-name="one" unicode="1" horiz-adv-x="881" 
d="M883 1444l-262 -1230q-14 -68 31.5 -90t199.5 -36l-18 -88h-749l19 88q164 15 216.5 36.5t66.5 88.5l216 1013q2 9 -2.5 13t-13.5 2l-249 -61l19 89l415 175h111z" />
    <glyph glyph-name="two" unicode="2" horiz-adv-x="1066" 
d="M964 0h-871l33 151l423 366q146 127 225 213.5t119 169t40 174.5q0 108 -60 176.5t-178 68.5q-89 0 -167 -56t-135 -165l-74 33q60 160 182 252t292 92q78 0 147 -21.5t123.5 -62.5t86.5 -107.5t32 -151.5q0 -151 -103 -284.5t-384 -351.5l-364 -292h680z" />
    <glyph glyph-name="three" unicode="3" horiz-adv-x="1093" 
d="M967 1114q0 78 -62.5 141.5t-173.5 63.5q-98 0 -176 -56t-130 -158l-74 32q52 151 177.5 244.5t286.5 93.5q105 0 191.5 -35t141 -107.5t54.5 -169.5q0 -77 -35.5 -142t-95 -109t-129 -72t-144.5 -40q136 -40 211.5 -138.5t75.5 -238.5q0 -85 -31 -159.5t-83.5 -127.5
t-121 -91.5t-145 -57t-154.5 -18.5q-109 0 -206 33t-159.5 96t-62.5 141q0 56 36.5 92t89.5 36t88 -36.5t35 -85.5q0 -63 -51 -97q74 -56 199 -56q64 0 121.5 21t103.5 60.5t73.5 105t27.5 147.5q0 36 -9.5 72t-33 73.5t-59.5 66.5t-93 47t-129 18q-55 0 -97 -8l20 94
q58 8 98 15t99.5 20.5t100.5 29t86.5 40.5t73.5 55t46.5 72.5t18.5 92.5z" />
    <glyph glyph-name="four" unicode="4" horiz-adv-x="1171" 
d="M684 0l74 351h-653l23 106l921 987h151l-192 -912h221l-38 -181h-222l-74 -351h-211zM797 532l135 638l-585 -638h450z" />
    <glyph glyph-name="five" unicode="5" horiz-adv-x="1096" 
d="M533 -31q-170 0 -284.5 79.5t-114.5 190.5q0 56 36.5 92t90.5 36q53 0 87 -36t34 -86q0 -70 -58 -102q70 -54 183 -54q65 0 126.5 24t112 68t81 114.5t30.5 156.5q0 144 -79 223.5t-209 80.5q-152 0 -253 -126l-80 1l291 813h678l-46 -204l-584 -1l-176 -445
q119 108 294 108q131 -1 226.5 -59t142 -152t46.5 -212q0 -102 -41 -194.5t-114.5 -162.5t-182.5 -111.5t-237 -41.5z" />
    <glyph glyph-name="six" unicode="6" horiz-adv-x="1253" 
d="M1243 500q0 -232 -153.5 -381.5t-379.5 -149.5q-68 0 -131.5 16.5t-125 55.5t-107 98t-73.5 151.5t-28 207.5q0 141 41.5 277t129 260t211.5 217.5t301.5 149t385.5 54.5l-10 -88q-319 -6 -539.5 -209.5t-271.5 -526.5q113 267 374 266q172 0 274 -114t102 -284zM995 459
q0 131 -59.5 211t-168.5 80q-72 0 -129.5 -34.5t-91.5 -90t-51.5 -118.5t-17.5 -126q0 -126 61 -206t170 -84q74 0 131 32.5t90 87t49.5 117.5t16.5 131z" />
    <glyph glyph-name="seven" unicode="7" horiz-adv-x="973" 
d="M370 0h-221l3 15l875 1225h-730l46 204h868l-37 -179z" />
    <glyph glyph-name="eight" unicode="8" horiz-adv-x="1183" 
d="M634 -31q-67 0 -131.5 13.5t-125 42.5t-105.5 70.5t-72.5 103t-27.5 135.5q2 129 98 227t306 150q-111 77 -169 159.5t-58 196.5q0 97 41 176t109.5 129t153.5 76.5t177 26.5q199 0 323 -95.5t124 -249.5q0 -264 -375 -359l22 -15q120 -79 175.5 -164t55.5 -198
q0 -115 -67.5 -213t-187.5 -155t-266 -57zM763 865l72 -49q111 51 170.5 133.5t59.5 168.5q0 107 -64.5 172t-169.5 65q-118 0 -188 -69.5t-70 -163.5q0 -78 46.5 -135t143.5 -122zM385 350q0 -117 69.5 -188.5t187.5 -71.5q122 0 203.5 70.5t81.5 173.5q0 78 -40.5 136
t-132.5 120l-114 78q-130 -52 -191.5 -136t-63.5 -182z" />
    <glyph glyph-name="nine" unicode="9" horiz-adv-x="1254" 
d="M314 948q0 153 71.5 274.5t192.5 187t268 65.5q68 0 132 -16.5t125.5 -55.5t107 -98t73.5 -151.5t28 -207.5q0 -141 -41.5 -277t-129 -260t-211 -217.5t-301 -149t-385.5 -54.5l10 88q318 6 538 209t272 526q-111 -266 -374 -265q-172 0 -274 115.5t-102 286.5zM562 985
q0 -131 59.5 -211t168.5 -80q58 0 107.5 23t82.5 60.5t56 86t33.5 99t10.5 100.5q0 126 -60.5 206.5t-169.5 83.5q-74 0 -131.5 -32.5t-90.5 -87t-49.5 -117.5t-16.5 -131z" />
    <glyph glyph-name="colon" unicode=":" horiz-adv-x="553" 
d="M452 678q-64 0 -109 43t-45 104q0 65 45 109.5t108 44.5q65 0 109.5 -42.5t44.5 -103.5q0 -66 -44.5 -110.5t-108.5 -44.5zM303 -21q-65 0 -109 43.5t-44 104.5q0 65 44.5 109.5t108.5 44.5q65 0 109.5 -43.5t44.5 -104.5q0 -65 -45 -109.5t-109 -44.5z" />
    <glyph glyph-name="semicolon" unicode=";" horiz-adv-x="553" 
d="M452 678q-65 0 -109.5 43t-44.5 104q0 65 45 109.5t108 44.5q65 0 109.5 -43t44.5 -104q0 -65 -44.5 -109.5t-108.5 -44.5zM59 -259l19 86q86 6 137 45t51 97q0 50 -34.5 83t-93.5 45q1 81 45.5 137.5t118.5 56.5q65 0 108.5 -50.5t43.5 -140.5q0 -154 -109.5 -255
t-285.5 -104z" />
    <glyph glyph-name="less" unicode="&#x3c;" horiz-adv-x="1206" 
d="M1124 238l-36 -172l-844 460l25 123l1034 460l-39 -188l-789 -339z" />
    <glyph glyph-name="equal" unicode="=" horiz-adv-x="1206" 
d="M275 725l35 163h965l-35 -163h-965zM183 291l34 163h966l-35 -163h-965z" />
    <glyph glyph-name="greater" unicode="&#x3e;" horiz-adv-x="1206" 
d="M332 937l35 172l844 -460l-25 -123l-1034 -460l41 188l787 340z" />
    <glyph glyph-name="question" unicode="?" horiz-adv-x="808" 
d="M362 456l35 339q353 1 353 202q2 104 -81.5 179t-261.5 120q11 81 60 130t128 49q119 0 208 -115t89 -282q0 -204 -114.5 -329.5t-320.5 -151.5l-29 -141h-66zM357 -23q-61 0 -103.5 40.5t-42.5 97.5q0 61 42 102t103 41q62 0 104 -40.5t42 -97.5q0 -60 -42.5 -101.5
t-102.5 -41.5z" />
    <glyph glyph-name="at" unicode="@" horiz-adv-x="2022" 
d="M1460 -290q-61 -52 -185.5 -85.5t-259.5 -33.5q-167 0 -311.5 60t-249.5 167t-165.5 264t-60.5 343q0 155 43 302t128.5 274t203 222.5t276 150.5t337.5 55q247 0 434.5 -90.5t288 -253t100.5 -373.5q0 -154 -48.5 -286t-129.5 -219.5t-187 -136.5t-220 -49
q-90 0 -154.5 45.5t-64.5 128.5q0 40 6 68q-116 -221 -293 -221q-118 0 -183.5 88t-65.5 247q0 154 57.5 296.5t164 234.5t234.5 92q84 0 141 -41.5t78 -114.5l92 128h124l-152 -709q-11 -52 6 -81t75 -29q66 0 132.5 36.5t123.5 103t93 173.5t36 234q0 285 -185 448
t-500 163q-157 0 -295 -49.5t-239 -134t-174.5 -196t-110 -237.5t-36.5 -255q0 -168 50.5 -305.5t140 -230t215 -143t273.5 -50.5q129 0 228.5 20t191.5 68zM916 373q0 -197 124 -197q74 0 139 78t90 196l62 294q1 70 -35 112.5t-99 42.5q-78 0 -144.5 -81.5t-101.5 -202
t-35 -242.5z" />
    <glyph glyph-name="A" unicode="A" horiz-adv-x="1398" 
d="M1261 281q15 -114 43.5 -148t117.5 -45l-18 -88h-593l18 88q119 15 148.5 50t17.5 145l-23 204h-471l-109 -204q-25 -47 -36 -75.5t-12.5 -51t14.5 -34.5t42 -20t73 -14l-18 -88h-462l19 88q97 11 138.5 44.5t108.5 154.5l644 1157h207zM559 595h401l-70 621z" />
    <glyph glyph-name="B" unicode="B" horiz-adv-x="1358" 
d="M1360 455q0 -215 -201.5 -335t-541.5 -120h-559l18 88q61 6 94 12.5t54.5 21t29.5 32.5t16 53l220 1030q5 24 6.5 38.5t-2.5 27.5t-13 20.5t-27.5 14t-43.5 10.5t-65 8l19 88h511q269 0 404.5 -87.5t133.5 -243.5q-3 -140 -110.5 -227t-277.5 -109q155 -21 245 -109.5
t90 -212.5zM1147 1102q0 228 -274 237l-107 4l-115 -538h147q162 -1 255.5 80.5t93.5 216.5zM1082 440q0 124 -78.5 193t-226.5 69l-147 1l-128 -602l108 4q472 13 472 335z" />
    <glyph glyph-name="C" unicode="C" horiz-adv-x="1427" 
d="M528 613q0 -233 113 -377t299 -144q263 0 398 315h79l-69 -319q-65 -52 -184.5 -85.5t-253.5 -33.5q-191 0 -341 81t-236 237t-85 364q0 175 58 327t161 261.5t252 172.5t325 63q163 0 303.5 -47t214.5 -112l-56 -312l-77 5q-7 168 -93 256t-249 88q-114 0 -216 -54.5
t-178 -150.5t-120.5 -235t-44.5 -300z" />
    <glyph glyph-name="D" unicode="D" horiz-adv-x="1528" 
d="M1585 826q0 -178 -73.5 -331.5t-203.5 -262t-314 -170.5t-398 -62h-539l18 88q61 6 94 12.5t55 21t30 32.5t16 53l220 1030q14 66 -10 87t-135 32l19 88h488q340 0 536 -167.5t197 -450.5zM1302 845q0 211 -117 345.5t-341 147.5l-78 5l-263 -1242l104 5q204 9 361.5 102
t245.5 258t88 379z" />
    <glyph glyph-name="E" unicode="E" horiz-adv-x="1254" 
d="M1428 1444l-68 -371h-78q-2 82 -14 130t-45.5 77t-83 40t-136.5 14l-237 9l-118 -553h243q50 0 80.5 36t82.5 164h74l-107 -503h-74q4 87 -2 129.5t-23 57t-53 14.5h-243l-123 -587l241 9q75 3 119.5 7t90 16.5t72.5 31t56.5 53t52 80t50.5 115.5h78l-101 -413h-1105
l18 88q61 6 94 12.5t55 21t30 32.5t16 53l220 1030q6 28 6 44t-5.5 30t-24 21.5t-46.5 13t-75 10.5l19 88h1064z" />
    <glyph glyph-name="F" unicode="F" horiz-adv-x="1149" 
d="M1403 1444l-68 -371h-79q-1 83 -13.5 131t-46.5 77.5t-83 40t-136 13.5l-211 8l-119 -560h219q50 0 80 36t82 164h73l-106 -503h-73q4 87 -2 129.5t-23 57t-53 14.5h-219l-100 -475q-5 -23 -6 -37t3.5 -27.5t14 -20.5t30.5 -14t48.5 -11.5t71.5 -8.5l-18 -87h-612l18 88
q81 8 118 20t52 32t25 67l220 1030q6 28 6 44t-5.5 30t-24 21.5t-46.5 13t-75 10.5l19 88h1039z" />
    <glyph glyph-name="G" unicode="G" horiz-adv-x="1570" 
d="M253 651q1 175 59 327t161 261.5t252 172.5t325 63q162 0 303 -47t215 -112l-56 -312l-78 5q-7 168 -93 256t-249 88q-113 0 -215.5 -54.5t-178.5 -150.5t-120.5 -235.5t-44.5 -299.5q0 -233 115.5 -376.5t304.5 -143.5q62 0 122 14.5t96 39.5l72 343q6 29 6 44.5t-6 29
t-26.5 20.5t-49.5 12t-82 10l18 87h563l-18 -87q-54 -5 -83 -11t-48 -20.5t-26.5 -32.5t-15.5 -54l-84 -390q-68 -53 -200.5 -91t-266.5 -38q-296 1 -484 185.5t-187 496.5z" />
    <glyph glyph-name="H" unicode="H" horiz-adv-x="1604" 
d="M525 207q-14 -65 10.5 -87t126.5 -32l-18 -88h-590l19 88q80 8 118 20.5t54 34t26 67.5l218 1024q12 42 3.5 66.5t-40.5 36t-108 19.5l17 88h590l-18 -88q-75 -7 -111 -19t-52 -33.5t-26 -66.5l-95 -445h642l95 445q14 66 -9.5 87.5t-128.5 31.5l19 88h589l-18 -88
q-80 -8 -117.5 -20t-54 -34t-26.5 -68l-219 -1024q-13 -42 -3.5 -67t41.5 -36t108 -19l-18 -88h-589l18 88q77 7 112.5 18.5t51 33t25.5 67.5l101 476h-642z" />
    <glyph glyph-name="I" unicode="I" horiz-adv-x="707" 
d="M525 207q-6 -28 -6 -44t5.5 -30t23.5 -21.5t46 -13t75 -10.5l-19 -88h-593l18 88q62 6 95 12.5t54.5 21t30 32.5t15.5 53l219 1030q5 32 6.5 52.5t-15 34t-46.5 20.5t-89 12l19 88h593l-18 -88q-62 -6 -95 -12.5t-54.5 -21t-30 -32.5t-15.5 -53z" />
    <glyph glyph-name="J" unicode="J" horiz-adv-x="707" 
d="M535 260q-20 -93 -49 -167.5t-72 -135t-90.5 -106.5t-118.5 -90t-140.5 -78t-170.5 -77l-25 74q95 57 156 107t113.5 120t87 160.5t62.5 219.5l202 951q14 66 -10 86.5t-135 32.5l19 88h593l-19 -88q-81 -8 -117.5 -20t-51.5 -32.5t-25 -66.5z" />
    <glyph glyph-name="K" unicode="&#x212a;" horiz-adv-x="1377" 
d="M525 207q-14 -66 8 -87.5t122 -31.5l-18 -88h-580l18 88q62 6 95 12.5t54.5 21t30 32.5t15.5 53l219 1030q6 28 6 44t-5.5 30t-23.5 21.5t-46 13t-75 10.5l19 88h580l-18 -88q-73 -7 -107.5 -19t-49.5 -33t-25 -67l-94 -440h148l386 382q95 95 87 131t-122 46l18 88h500
l-19 -88q-94 -16 -157.5 -58.5t-214.5 -179.5l-280 -259l201 -493q62 -152 104.5 -209.5t98.5 -74.5l-18 -82h-327l-276 693h-151z" />
    <glyph glyph-name="K" unicode="K" horiz-adv-x="1377" 
d="M525 207q-14 -66 8 -87.5t122 -31.5l-18 -88h-580l18 88q62 6 95 12.5t54.5 21t30 32.5t15.5 53l219 1030q6 28 6 44t-5.5 30t-23.5 21.5t-46 13t-75 10.5l19 88h580l-18 -88q-73 -7 -107.5 -19t-49.5 -33t-25 -67l-94 -440h148l386 382q95 95 87 131t-122 46l18 88h500
l-19 -88q-94 -16 -157.5 -58.5t-214.5 -179.5l-280 -259l201 -493q62 -152 104.5 -209.5t98.5 -74.5l-18 -82h-327l-276 693h-151z" />
    <glyph glyph-name="L" unicode="L" horiz-adv-x="1164" 
d="M1106 0h-1049l18 88q81 8 118 20t52 32.5t25 66.5l219 1030q6 29 6 45t-5.5 30t-24 21t-46 12.5t-74.5 10.5l19 88h605l-18 -87q-66 -7 -101.5 -13.5t-58.5 -21t-31.5 -32t-15.5 -52.5l-241 -1137l209 8q57 2 96 7t79 18.5t69 36t60 60.5t59.5 90.5t60.5 127.5h78z" />
    <glyph glyph-name="M" unicode="M" horiz-adv-x="1828" 
d="M814 1444l171 -1108l617 1108h468l-18 -88q-81 -7 -118 -18.5t-52 -32.5t-24 -67l-204 -1033q-14 -65 11 -86t133 -31l-18 -88h-587l18 88q81 7 118 18.5t52 32t24 66.5l195 997l-512 -887l-176 -315h-127l-194 1205l-204 -984q-6 -35 -8 -57.5t13.5 -37t43.5 -23
t83 -15.5l-19 -88h-455l18 88q108 14 141.5 38t49.5 95l227 989q19 81 -3 108.5t-125 37.5l19 88h442z" />
    <glyph glyph-name="N" unicode="N" horiz-adv-x="1530" 
d="M744 1444l526 -1175l187 953q6 27 7.5 42.5t-2 31t-12 23.5t-27 15.5t-43 12t-64.5 9.5l19 88h455l-19 -88q-100 -13 -131.5 -36.5t-48.5 -97.5l-269 -1222h-226l-526 1174l-188 -951q-5 -37 -7.5 -59.5t14.5 -37.5t46.5 -23t88.5 -15l-19 -88h-456l19 88
q101 13 132.5 37t47.5 97l218 988q14 51 8.5 81.5t-35 44t-101.5 20.5l18 88h388z" />
    <glyph glyph-name="O" unicode="O" horiz-adv-x="1594" 
d="M893 -26q-152 0 -275.5 53t-204 144.5t-124.5 212.5t-44 258q0 159 54 307.5t150 264.5t242 186t317 70q151 0 275 -53t205 -144.5t124.5 -212.5t43.5 -258q0 -159 -54 -307.5t-150 -264.5t-242 -186t-317 -70zM877 97q146 0 263 110t179 284t62 371q0 236 -96.5 360.5
t-260.5 124.5q-112 0 -208 -64.5t-160 -171.5t-100 -244.5t-36 -284.5q0 -236 96.5 -360.5t260.5 -124.5z" />
    <glyph glyph-name="P" unicode="P" horiz-adv-x="1316" 
d="M673 0h-619l18 88q81 7 119.5 20t54 34t25.5 67l219 1026q12 41 3.5 66t-41 36.5t-110.5 18.5l19 88h525q273 0 413.5 -107t140.5 -300q0 -121 -55 -215t-151.5 -152.5t-221.5 -88.5t-271 -30h-142l-72 -336q-11 -41 -3 -67t45 -39.5t122 -20.5zM767 1342l-147 -689
l111 3q99 3 178.5 28t139.5 71.5t92.5 120t32.5 169.5q0 140 -83 214t-232 80z" />
    <glyph glyph-name="Q" unicode="Q" horiz-adv-x="1597" 
d="M1279 -382q-84 0 -163.5 42.5t-191.5 154.5l-173 172q-238 45 -371.5 226t-134.5 429q0 159 54 307.5t150 264.5t242 186t317 70q151 0 275 -53t205 -144.5t124.5 -212.5t43.5 -258q0 -185 -69.5 -352.5t-205.5 -290.5t-315 -165l109 -97q101 -91 171 -122t170 -35
l-16 -80q-99 -42 -221 -42zM877 97q146 0 263 110t179 284t62 371q0 236 -96.5 360.5t-260.5 124.5q-112 0 -208 -64.5t-160 -171.5t-100 -244.5t-36 -284.5q0 -236 96.5 -360.5t260.5 -124.5z" />
    <glyph glyph-name="R" unicode="R" horiz-adv-x="1384" 
d="M1081 0l-248 623q-44 -4 -100 -4h-120l-88 -413q-14 -66 8 -87t123 -31l-18 -88h-582l19 88q81 8 117.5 19t52 31.5t25.5 67.5l221 1032q14 67 -10.5 87.5t-135.5 30.5l18 88h547q250 0 389 -97.5t139 -272.5q0 -152 -100.5 -255t-269.5 -154l126 -308q64 -157 103 -209
t98 -66l-18 -82h-296zM1173 1067q0 128 -77.5 197t-224.5 74l-104 3l-132 -621l127 4q190 5 300.5 93.5t110.5 249.5z" />
    <glyph glyph-name="S" unicode="S" horiz-adv-x="1148" 
d="M604 -31q-129 0 -264.5 37t-198.5 86l52 315h78q8 -149 99.5 -231.5t239.5 -82.5q121 0 204 65.5t83 175.5q0 83 -44 146.5t-153 131.5l-77 48q-146 90 -214 185.5t-68 217.5q0 182 138 297t375 115q128 0 246 -32.5t177 -79.5l-47 -315h-78q-8 148 -86.5 225.5
t-216.5 77.5q-114 0 -187.5 -57.5t-73.5 -153.5q0 -77 46.5 -139t158.5 -132l78 -48q143 -89 207.5 -184.5t64.5 -219.5q0 -134 -73.5 -237t-195.5 -157t-270 -54z" />
    <glyph glyph-name="T" unicode="T" horiz-adv-x="1333" 
d="M1586 1444l-68 -371h-78q3 58 -0.5 97.5t-17.5 70t-34.5 48t-58.5 29t-82 16.5t-113 7l-55 2l-242 -1137q-6 -28 -6 -44t7 -29.5t27.5 -21t51.5 -13.5t84 -11l-19 -87h-631l18 87q69 7 105.5 13.5t60 21t32.5 32t16 52.5l242 1137l-55 -2q-85 -3 -137.5 -10t-98.5 -23
t-76.5 -46.5t-56.5 -74.5t-52 -114h-79l90 371h1226z" />
    <glyph glyph-name="U" unicode="U" horiz-adv-x="1509" 
d="M787 -31q-123 0 -222 40.5t-165.5 119t-89 194t8.5 266.5l135 633q15 71 -6.5 95t-116.5 39l19 88h575l-18 -88q-115 -16 -149.5 -39.5t-49.5 -94.5l-134 -621q-50 -231 34.5 -347.5t259.5 -116.5q152 0 270.5 104t163.5 314l137 667q5 26 7 41.5t-1.5 30t-12 23
t-27 16.5t-43.5 13t-64 10l18 88h455l-19 -88q-101 -15 -132 -39t-47 -95l-152 -685q-59 -272 -227 -420t-407 -148z" />
    <glyph glyph-name="V" unicode="V" horiz-adv-x="1398" 
d="M444 1163q-15 114 -44 148t-117 45l17 88h594l-18 -88q-119 -15 -148.5 -49.5t-17.5 -144.5l104 -937l499 936q25 47 36 76t12.5 51t-15 34t-42.5 20t-73 14l19 88h461l-18 -88q-98 -11 -139.5 -44.5t-108.5 -154.5l-644 -1157h-207z" />
    <glyph glyph-name="W" unicode="W" horiz-adv-x="2121" 
d="M441 1163q-7 79 -23 117t-44.5 53t-90.5 23l17 88h586l-18 -88q-42 -5 -68 -11t-47.5 -15.5t-30 -22.5t-16 -33.5t-5.5 -47.5t2 -64l60 -925l446 928q55 110 41.5 144t-123.5 47l19 88h569l-19 -88q-42 -5 -68 -11t-47 -15.5t-29.5 -22.5t-16 -33.5t-5.5 -47.5t2 -64
l58 -925l448 928q55 110 41.5 144t-122.5 47l18 88h459l-18 -88q-99 -11 -142 -45t-104 -153l-594 -1158h-208l-75 1075l-545 -1075h-205z" />
    <glyph glyph-name="X" unicode="X" horiz-adv-x="1355" 
d="M332 287l363 428l-209 486q-34 82 -69.5 110.5t-115.5 44.5l18 88h606l-19 -88q-120 -16 -142.5 -49.5t20.5 -127.5l145 -339l274 339q79 95 71.5 128.5t-119.5 48.5l19 88h477l-19 -88q-98 -10 -152.5 -43.5t-151.5 -147.5l-358 -420l215 -502q36 -80 72 -109t114 -45
l-19 -88h-605l18 88q120 16 142.5 49.5t-18.5 127.5l-153 354l-287 -355q-79 -94 -72 -128t119 -49l-17 -88h-478l19 88q98 10 153.5 44.5t158.5 154.5z" />
    <glyph glyph-name="Y" unicode="Y" horiz-adv-x="1331" 
d="M473 1169q-40 108 -74 141.5t-116 45.5l17 88h588l-19 -88q-115 -13 -137.5 -49.5t13.5 -136.5l147 -432l327 432q80 101 73 137t-116 49l18 88h450l-19 -88q-90 -12 -138.5 -45.5t-138.5 -146.5l-421 -527l-91 -431q-5 -23 -6 -37t3.5 -27.5t14 -20.5t30.5 -14t49 -11.5
t72 -8.5l-18 -87h-632l19 87q69 7 105.5 13.5t60 21t32.5 32t16 52.5l90 423z" />
    <glyph glyph-name="Z" unicode="Z" horiz-adv-x="1207" 
d="M1124 0h-1055l18 82l1006 1261l-299 -11q-76 -3 -125 -10.5t-89 -23t-68 -46.5t-51.5 -71.5t-50.5 -107.5h-79l90 371h993l-18 -82l-1007 -1261l299 12q73 3 118 7t92.5 15.5t77.5 30.5t61.5 52.5t56.5 80t52 114.5h79z" />
    <glyph glyph-name="bracketleft" unicode="[" horiz-adv-x="669" 
d="M134 -280l397 1860h446l-19 -88h-254l-360 -1684h254l-18 -88h-446z" />
    <glyph glyph-name="backslash" unicode="\" horiz-adv-x="669" 
d="M440 -280l-103 1860h168l103 -1860h-168z" />
    <glyph glyph-name="bracketright" unicode="]" horiz-adv-x="669" 
d="M811 1580l-397 -1860h-446l19 88h254l360 1684h-254l18 88h446z" />
    <glyph glyph-name="asciicircum" unicode="^" horiz-adv-x="1206" 
d="M838 1444h143l285 -599l-118 -89l-266 510l-484 -510l-99 89z" />
    <glyph glyph-name="underscore" unicode="_" horiz-adv-x="1024" 
d="M-42 -357l32 154h957l-33 -154h-956z" />
    <glyph glyph-name="grave" unicode="`" horiz-adv-x="1024" 
d="M753 1544l113 -375h-99l-264 363v12h250z" />
    <glyph glyph-name="a" unicode="a" horiz-adv-x="1158" 
d="M190 348q0 182 66.5 338t190 251.5t276.5 95.5q88 0 149.5 -33t90.5 -85l91 95h127l-170 -789q-20 -88 50 -88q72 0 124 44l-19 -92q-37 -44 -109.5 -73t-141.5 -29q-83 0 -116.5 51t-14.5 144q0 3 4 20t5 19q-52 -117 -136.5 -178.5t-190.5 -61.5q-117 0 -196.5 97.5
t-79.5 273.5zM434 366q-1 -241 142 -241q78 0 145.5 78t98.5 221l87 408q-10 36 -51.5 60.5t-100.5 24.5q-76 0 -139 -51.5t-101.5 -133.5t-59.5 -177t-21 -189z" />
    <glyph glyph-name="b" unicode="b" horiz-adv-x="1155" 
d="M1180 662q0 -182 -66.5 -338t-190 -251.5t-276.5 -95.5q-88 0 -149 32.5t-91 85.5l-90 -95h-126l270 1271q8 35 -2.5 51.5t-47.5 23.5l-90 14l19 84l404 52l-159 -688q53 110 135 167.5t184 57.5q118 0 197 -97.5t79 -273.5zM936 644q1 241 -142 241q-78 0 -145.5 -78
t-98.5 -221l-87 -407q9 -36 51 -60.5t101 -24.5q76 0 139 51.5t101.5 133t59.5 176.5t21 189z" />
    <glyph glyph-name="c" unicode="c" horiz-adv-x="941" 
d="M595 -23q-75 0 -144 27.5t-125 80t-90 138t-34 192.5q0 127 41.5 241t113.5 196.5t172.5 131t213.5 49.5q134 1 213 -65.5t79 -170.5q0 -56 -39 -94.5t-97 -38.5q-53 0 -89 36t-36 88q0 39 21.5 71t56.5 46q-36 17 -85 17q-136 0 -228 -135.5t-92 -338.5
q0 -149 71.5 -236t190.5 -87q138 0 239 91l-21 -95q-53 -69 -143 -106.5t-189 -37.5z" />
    <glyph glyph-name="d" unicode="d" horiz-adv-x="1162" 
d="M190 348q0 182 66.5 338t190 251.5t276.5 95.5q140 0 210 -77l67 315q7 35 -3 51.5t-47 23.5l-90 14l19 84l404 52l-270 -1275q-20 -88 48 -88q73 0 125 44l-20 -92q-36 -44 -108.5 -73t-141.5 -29q-84 0 -117.5 51t-14.5 144q0 3 4 20t5 19q-52 -117 -136.5 -178.5
t-190.5 -61.5q-117 0 -196.5 97.5t-79.5 273.5zM434 366q-1 -241 142 -241q78 0 145.5 78t98.5 221l87 408q-10 36 -51.5 60.5t-100.5 24.5q-76 0 -139 -51.5t-101.5 -133.5t-59.5 -177t-21 -189z" />
    <glyph glyph-name="e" unicode="e" horiz-adv-x="961" 
d="M595 -23q-78 0 -147.5 27.5t-125 80t-88 138t-32.5 192.5q0 132 45.5 248.5t120.5 196.5t173.5 126.5t202.5 46.5q131 0 211.5 -60.5t80.5 -161.5q0 -128 -138 -220t-402 -168l-50 -14q10 -136 79 -210t179 -74q140 0 243 91l-20 -95q-54 -69 -143.5 -106.5t-188.5 -37.5
zM726 923q-108 0 -188 -116t-91 -303l42 13q344 103 344 284q0 122 -107 122z" />
    <glyph glyph-name="f" unicode="f" horiz-adv-x="677" 
d="M383 1052q42 228 147.5 349.5t268.5 121.5q108 0 170.5 -48t62.5 -121q0 -52 -35 -86.5t-86 -34.5q-47 0 -79.5 33t-32.5 83q0 40 22 70q-69 -1 -116 -70t-73 -225l-23 -132l251 7l-25 -116h-243l-114 -645q-35 -195 -84 -335.5t-111 -224t-131.5 -122t-151.5 -38.5
q-93 0 -145 44.5t-52 113.5q0 50 32.5 83.5t80.5 33.5q46 0 78.5 -32.5t32.5 -80.5q0 -28 -13 -54q43 9 74 41t60 110t51 206l155 900h-160l17 79l160 21z" />
    <glyph glyph-name="g" unicode="g" horiz-adv-x="1059" 
d="M493 -454q-128 0 -229.5 28.5t-162.5 87t-61 138.5q0 78 79 138t212 86q-108 50 -110 153q-3 136 210 195q-91 39 -140 113.5t-49 167.5q0 159 113.5 268t307.5 110q140 0 238 -56l346 13l-24 -122l-228 25q54 -77 54 -176q0 -159 -114 -269.5t-308 -110.5q-68 0 -121 13
q-45 -15 -71.5 -39t-25.5 -52q1 -27 24 -45t87 -31l195 -38q287 -54 287 -270q0 -97 -72.5 -173t-187.5 -115t-249 -39zM474 627q0 -85 38.5 -141t111.5 -56q61 0 106.5 47t66.5 115.5t21 145.5q0 86 -39 142t-111 56q-62 0 -107.5 -48t-66 -116.5t-20.5 -144.5zM231 -175
q0 -77 75.5 -124t202.5 -47q118 0 201 45t83 121q0 110 -178 141l-186 34q-5 1 -13 3q-185 -62 -185 -173z" />
    <glyph glyph-name="h" unicode="h" horiz-adv-x="1215" 
d="M744 1496l-167 -725q128 262 353 262q150 0 212 -96t26 -263l-97 -453q-20 -88 49 -88q73 0 125 44l-19 -92q-37 -44 -110 -73t-143 -29q-187 0 -140 228l98 468q21 99 -9 153.5t-100 54.5q-84 0 -164.5 -86.5t-107.5 -216.5l-123 -584h-236l270 1271q8 35 -2.5 51.5
t-47.5 23.5l-90 14l19 84z" />
    <glyph glyph-name="i" unicode="i" horiz-adv-x="601" 
d="M542 1215q-59 0 -97.5 38t-38.5 95q0 62 43 105t104 43q59 0 97.5 -38t38.5 -95q0 -61 -43 -104.5t-104 -43.5zM622 1023l-171 -802q-18 -88 50 -88q70 0 124 44l-19 -92q-37 -44 -110 -73t-143 -29q-189 0 -140 228l125 587q8 36 -2 52t-48 23l-90 14l19 84z" />
    <glyph glyph-name="j" unicode="j" horiz-adv-x="591" 
d="M562 1215q-59 0 -97.5 38t-38.5 95q0 62 43 105t104 43q58 0 96.5 -38t38.5 -95q0 -62 -42.5 -105t-103.5 -43zM643 1023l-206 -963q-24 -113 -58 -193t-92 -147t-143.5 -115t-210.5 -86l-28 79q49 21 87 46.5t67 59.5t50 70t39.5 88t31.5 102.5t28 123.5l151 710
q8 36 -2.5 52t-47.5 23l-90 14l19 84z" />
    <glyph glyph-name="k" unicode="k" horiz-adv-x="1100" 
d="M949 -17q-84 0 -140.5 65.5t-105.5 214.5l-76 232l-115 -90l-86 -405h-235l270 1271q8 35 -2.5 51.5t-47.5 23.5l-90 14l19 84l404 52l-207 -976l319 272q62 53 77.5 82t-7 42.5t-89.5 19.5l15 74h445l-15 -74q-74 -14 -141.5 -51.5t-192.5 -137.5l-137 -108l106 -305
q40 -117 75 -159.5t80 -42.5q53 0 92 39l-19 -91q-70 -97 -196 -97z" />
    <glyph glyph-name="l" unicode="l" horiz-adv-x="601" 
d="M723 1496l-272 -1275q-18 -88 50 -88q70 0 124 44l-19 -92q-37 -44 -110 -73t-143 -29q-189 0 -140 228l226 1060q8 35 -2.5 51.5t-47.5 23.5l-90 14l18 84z" />
    <glyph glyph-name="m" unicode="m" horiz-adv-x="1775" 
d="M361 798q7 36 -3 52t-47 23l-90 14l18 84l393 52l-55 -252q119 262 339 262q129 0 190.5 -70.5t54.5 -188.5q52 120 138 189.5t195 69.5q148 0 210 -95t26 -261l-98 -456q-20 -88 48 -88q72 0 126 44l-20 -92q-36 -44 -109.5 -73t-143.5 -29q-188 0 -140 228l100 470
q21 97 -8 151.5t-96 54.5q-82 0 -158.5 -91.5t-104.5 -226.5l-121 -569h-235l146 692q19 90 -10 142.5t-96 52.5q-81 0 -158 -91.5t-106 -226.5l-120 -569h-235z" />
    <glyph glyph-name="n" unicode="n" horiz-adv-x="1215" 
d="M632 1023l-55 -252q128 262 353 262q150 0 212 -96t26 -263l-97 -453q-20 -88 49 -88q73 0 125 44l-19 -92q-37 -44 -110 -73t-143 -29q-187 0 -140 228l98 468q21 99 -9 153.5t-100 54.5q-86 0 -166.5 -92t-110.5 -228l-119 -567h-235l170 798q7 36 -3 52t-47 23l-90 14
l18 84z" />
    <glyph glyph-name="o" unicode="o" horiz-adv-x="1144" 
d="M613 -23q-194 0 -301.5 124.5t-107.5 321.5q0 161 66 299.5t191.5 224.5t284.5 86q194 0 301.5 -124t107.5 -321q0 -161 -66 -300t-191.5 -225t-284.5 -86zM620 91q72 0 129.5 52.5t91.5 137t52 180.5t18 191q0 130 -46 198.5t-126 68.5q-72 0 -130 -52.5t-92 -136.5
t-52 -180t-18 -192q0 -130 46.5 -198.5t126.5 -68.5z" />
    <glyph glyph-name="p" unicode="p" horiz-adv-x="1157" 
d="M1181 662q0 -182 -66.5 -338t-189.5 -251.5t-277 -95.5q-139 0 -210 80l-70 -335q-9 -44 21 -59.5t156 -32.5l-19 -90h-582l19 90q101 16 131 32.5t38 59.5l229 1076q7 36 -3 52t-47 23l-90 14l18 84l393 52l-50 -223q53 114 136 173.5t187 59.5q117 0 196.5 -97.5
t79.5 -273.5zM938 644q0 241 -143 241q-78 0 -145.5 -78t-97.5 -221l-88 -407q9 -36 50.5 -60.5t102.5 -24.5q76 0 139 51.5t101.5 133t59.5 176.5t21 189z" />
    <glyph glyph-name="q" unicode="q" horiz-adv-x="1134" 
d="M190 348q0 182 66.5 338t190 251.5t276.5 95.5q88 0 149.5 -33t90.5 -85l90 95h127l-273 -1284q-10 -44 15.5 -61.5t120.5 -32.5l-19 -92h-567l20 92q81 9 119.5 20t52.5 26t22 47l116 483q-52 -113 -135 -172t-186 -59q-117 0 -196.5 97.5t-79.5 273.5zM434 370
q-1 -245 143 -245q78 0 145 78t98 221l87 408q-10 35 -51 60t-99 25q-73 0 -135.5 -49.5t-102.5 -129t-62.5 -175.5t-22.5 -193z" />
    <glyph glyph-name="r" unicode="r" horiz-adv-x="846" 
d="M625 1023l-56 -273q109 156 176 215.5t136 59.5q50 0 77 -32t27 -87q0 -51 -24 -87q-37 14 -93 14q-93 0 -174 -41.5t-135 -119.5l-133 -672h-235l170 798q7 36 -3 52t-47 23l-90 14l18 84z" />
    <glyph glyph-name="s" unicode="s" horiz-adv-x="893" 
d="M132 86l46 246h77q3 -116 65 -180t160 -64q81 0 126 38t45 102q0 54 -27.5 93.5t-99.5 82.5l-70 41q-100 60 -147.5 129.5t-47.5 157.5q0 131 103.5 216t278.5 85q218 0 329 -77l-51 -249h-78q1 101 -52.5 158t-147.5 57q-75 0 -117 -34.5t-43 -92.5q0 -50 29 -86.5
t102 -81.5l71 -41q104 -63 147.5 -132.5t43.5 -162.5q0 -132 -110 -223t-284 -91q-109 0 -203 29.5t-145 79.5z" />
    <glyph glyph-name="t" unicode="t" horiz-adv-x="745" 
d="M489 -18q-142 0 -204 92.5t-29 251.5l116 546h-159l16 80l166 26l43 200l246 36l-51 -234l287 9l-25 -117h-287l-110 -525q-47 -217 121 -217q106 0 166 54l-19 -91q-39 -50 -116.5 -80.5t-160.5 -30.5z" />
    <glyph glyph-name="u" unicode="u" horiz-adv-x="1199" 
d="M618 1024l-147 -695q-20 -97 12.5 -148.5t105.5 -51.5q95 0 167 78.5t99 206.5l82 384q8 35 -2.5 51.5t-47.5 23.5l-86 14l17 78l403 59l-172 -803q-18 -88 50 -88q72 0 124 44l-19 -92q-36 -44 -109 -73t-141 -29q-84 0 -117.5 51t-15.5 144q0 2 4.5 20t4.5 19
q-59 -117 -148.5 -178.5t-195.5 -61.5q-149 0 -215.5 99.5t-32.5 263.5l97 458q7 36 -3 52t-47 23l-90 14l18 84z" />
    <glyph glyph-name="v" unicode="v" horiz-adv-x="993" 
d="M533 1024l46 -829q271 318 346 574q-55 1 -94 39t-39 91q0 56 41.5 95t102.5 39q64 0 104 -41t40 -107q0 -140 -168 -402t-384 -483h-161l-61 805q-2 33 -16 47.5t-52 21.5l-83 13l17 86z" />
    <glyph glyph-name="w" unicode="w" horiz-adv-x="1506" 
d="M536 1024l42 -809q56 92 92 156.5t79.5 153.5t68.5 171.5t32 159.5l-7 132l214 36l43 -829q258 301 337 574q-54 2 -91.5 40t-37.5 90q0 57 41 95.5t103 38.5q64 0 104 -41t40 -107q0 -138 -166 -403.5t-378 -481.5h-156l-30 569q-112 -275 -339 -569h-160l-57 805
q-2 33 -16 47.5t-53 21.5l-83 13l18 86z" />
    <glyph glyph-name="x" unicode="x" horiz-adv-x="1031" 
d="M69 104q0 52 36 90t89 38q36 0 65.5 -20t44.5 -52q35 40 105 146l102 157l-111 337q-14 39 -30.5 53.5t-57.5 21.5l-86 12l16 86l323 49l127 -387l73 127q90 157 151 214t131 57q57 0 92 -35.5t35 -89.5q0 -53 -36 -90.5t-88 -37.5q-37 0 -66.5 20t-44.5 52
q-38 -44 -104 -147l-109 -172l67 -204q36 -115 71.5 -157.5t81.5 -42.5q53 0 97 41l-19 -91q-67 -97 -199 -97q-87 0 -141 60t-102 205l-38 114l-65 -111q-95 -159 -154 -215t-129 -56q-57 0 -92 35.5t-35 89.5z" />
    <glyph glyph-name="y" unicode="y" horiz-adv-x="1006" 
d="M538 1024l33 -866q297 368 371 611h-1q-56 0 -95 38t-39 92q0 57 41 95.5t102 38.5q64 0 104.5 -41t40.5 -107q0 -221 -464 -804q-107 -130 -160 -193q-164 -196 -302 -348h-261v20q110 81 239 189t218 195l-50 858q-2 34 -17.5 49.5t-55.5 22.5l-82 13l16 86z" />
    <glyph glyph-name="z" unicode="z" horiz-adv-x="939" 
d="M92 47l688 775h-318q-68 0 -96.5 -23.5t-62.5 -109.5h-78l81 321h740l-19 -85l-567 -626l66 -40q81 -49 131 -68t110 -19q95 0 172 119l59 -50q-132 -264 -337 -264q-69 0 -134 23.5t-160 87.5l-61 40l-1 -1l-134 -153z" />
    <glyph glyph-name="braceleft" unicode="{" horiz-adv-x="669" 
d="M666 1039q-34 -150 -114.5 -228t-225.5 -103q133 -29 180.5 -114t14.5 -240l-63 -289q-13 -60 -14.5 -102t10 -79.5t47.5 -56.5t97 -19l-18 -88h-48q-170 0 -241.5 95.5t-37.5 255.5l81 383q24 110 -16.5 163.5t-127.5 53.5l17 77q86 0 149 53.5t87 163.5l69 316
q33 148 138.5 223.5t278.5 75.5h48l-19 -88q-117 0 -165.5 -47.5t-73.5 -163.5z" />
    <glyph glyph-name="bar" unicode="|" horiz-adv-x="669" 
d="M191 -280l395 1860h168l-395 -1860h-168z" />
    <glyph glyph-name="braceright" unicode="}" horiz-adv-x="669" 
d="M445 1039l50 242q15 72 11 119t-42 69.5t-119 22.5l19 88h48q174 0 247.5 -75.5t42.5 -223.5l-66 -316q-22 -111 18 -164t126 -53l-16 -77q-87 0 -150 -53.5t-87 -163.5l-81 -383q-34 -159 -146.5 -255t-282.5 -96h-48l20 88q49 0 87.5 13.5t64 35t45 56t31 69.5t22.5 83
l60 289q32 155 115.5 240t228.5 114q-134 25 -181.5 103t-16.5 228z" />
    <glyph glyph-name="asciitilde" unicode="&#x223c;" horiz-adv-x="1206" 
d="M956 567q64 0 114 50.5t68 153.5h141q-25 -188 -115 -282t-215 -94q-54 0 -107 21t-96 50.5t-83.5 59.5t-83.5 51t-82 21q-64 0 -114.5 -50.5t-67.5 -152.5h-141q25 188 114.5 282t215.5 94q54 0 107.5 -21t96.5 -51t83.5 -60t83 -51t81.5 -21z" />
    <glyph glyph-name="asciitilde" unicode="~" horiz-adv-x="1206" 
d="M956 567q64 0 114 50.5t68 153.5h141q-25 -188 -115 -282t-215 -94q-54 0 -107 21t-96 50.5t-83.5 59.5t-83.5 51t-82 21q-64 0 -114.5 -50.5t-67.5 -152.5h-141q25 188 114.5 282t215.5 94q54 0 107.5 -21t96.5 -51t83.5 -60t83 -51t81.5 -21z" />
    <glyph glyph-name="exclamdown" unicode="&#xa1;" horiz-adv-x="605" 
d="M475 979q62 0 104 -40t42 -97q0 -60 -42 -101.5t-102 -41.5q-62 0 -104 40t-42 97q0 61 42 102t102 41zM215 -519q-60 0 -94 35.5t-34 93.5q0 53 35 165.5t129 371.5l127 351h64l-30 -375q-35 -404 -47 -469q-26 -173 -150 -173z" />
    <glyph glyph-name="cent" unicode="&#xa2;" horiz-adv-x="1206" 
d="M678 0h-80l42 199q-139 30 -231 140.5t-92 287.5q0 167 70 306.5t195.5 225t282.5 96.5l40 189h80l-40 -189q131 -10 210 -76t79 -155q0 -55 -38 -92.5t-94 -37.5q-52 0 -86.5 35t-34.5 86q0 71 61 107q-49 23 -120 23l-169 -792q45 -16 102 -16q159 0 261 88l-20 -93
q-54 -70 -153 -106.5t-208 -36.5h-17zM566 659q0 -180 115 -268l158 742q-120 -38 -196.5 -170t-76.5 -304z" />
    <glyph glyph-name="sterling" unicode="&#xa3;" horiz-adv-x="1206" 
d="M283 678l18 80h179q-51 155 -51 259q0 89 28 164.5t76 129t111.5 91t135.5 55.5t148 18q162 0 255 -64.5t93 -161.5q0 -50 -35 -84.5t-85 -34.5q-54 0 -85 34t-31 82q0 65 48 95q-48 17 -112 17q-60 0 -113 -17.5t-96.5 -52.5t-69.5 -95.5t-26 -139.5q0 -24 2.5 -51
t5.5 -48t10 -52t11 -47t13 -50.5t12 -46.5h336l-18 -80h-300q13 -65 12 -114q-4 -115 -70.5 -206t-177.5 -149h646l-53 -209h-960l32 150q69 18 130.5 48t114.5 73.5t84.5 104t31.5 129.5q0 79 -28 173h-222z" />
    <glyph glyph-name="currency" unicode="&#xa4;" horiz-adv-x="1218" 
d="M517 157q-129 0 -221 70l-174 -144l-93 118l175 144q-47 105 -20 236q28 131 121 238l-114 145l142 117l115 -146q118 70 250 70q129 0 221 -70l177 146l93 -117l-178 -147q48 -106 21 -236q-28 -128 -120 -235l114 -145l-141 -118l-115 145q-121 -71 -253 -71zM549 308
q110 0 201 77.5t117 195.5q25 119 -33 195.5t-168 76.5q-111 0 -202 -76.5t-116 -195.5q-26 -118 32.5 -195.5t168.5 -77.5z" />
    <glyph glyph-name="yen" unicode="&#xa5;" horiz-adv-x="1206" 
d="M262 508h332l42 199h-332l16 80h304l-155 423q-14 37 -22 55.5t-20 37t-27.5 27.5t-37 15.5t-55.5 11.5l18 87h545l-18 -87q-107 -11 -128.5 -38t4.5 -108l114 -370l283 370q62 77 52.5 105.5t-114.5 40.5l16 87h416l-18 -87q-58 -7 -93.5 -24t-59 -40t-71.5 -83
l-340 -423h308l-17 -80h-333l-43 -199h334l-18 -80h-333l-47 -224q-5 -23 -6 -37t5 -26.5t17 -19.5t35 -13.5t54.5 -11t79.5 -9.5l-18 -87h-652l18 87q62 6 98 11.5t62.5 13t39.5 21t20 28.5t13 43l47 224h-333z" />
    <glyph glyph-name="brokenbar" unicode="&#xa6;" horiz-adv-x="669" 
d="M418 789l168 791h168l-168 -791h-168zM191 -280l168 791h168l-168 -791h-168z" />
    <glyph glyph-name="section" unicode="&#xa7;" horiz-adv-x="1069" 
d="M436 1146q0 147 108 238t296 91q199 0 315 -74l-46 -253h-82q-2 97 -48.5 152t-143.5 55q-90 0 -136 -41.5t-46 -120.5q0 -60 38.5 -102.5t114.5 -85.5l59 -30q145 -79 201 -148t56 -162q0 -137 -102.5 -217.5t-274.5 -80.5q-11 0 -17 1q89 -57 136 -126.5t47 -161.5
q0 -142 -108.5 -235.5t-294.5 -93.5q-248 0 -375 85l49 264h82q5 -230 244 -230q88 0 136.5 45t48.5 119q0 65 -36.5 107t-119.5 88l-59 31q-145 78 -201 147.5t-56 162.5q0 137 102.5 216.5t274.5 79.5q12 0 19 -1q-88 57 -134.5 124.5t-46.5 156.5zM545 471
q87 -50 174 -50q83 0 136 49.5t53 128.5q0 100 -111 164q-85 50 -174 50q-82 0 -135 -49t-53 -128q0 -102 110 -165z" />
    <glyph glyph-name="dieresis" unicode="&#xa8;" horiz-adv-x="1024" 
d="M580 1230q-53 0 -87.5 34t-34.5 85q0 55 38.5 93.5t93.5 38.5q52 0 86.5 -34t34.5 -85q0 -55 -38 -93.5t-93 -38.5zM1011 1230q-53 0 -87.5 34t-34.5 85q0 55 38.5 93.5t93.5 38.5q52 0 86.5 -34t34.5 -85q0 -55 -38 -93.5t-93 -38.5z" />
    <glyph glyph-name="copyright" unicode="&#xa9;" horiz-adv-x="1644" 
d="M931 -31q-147 0 -276.5 55t-220 148.5t-142.5 220.5t-52 268q0 172 62 324.5t167 259.5t248.5 169.5t302.5 62.5q150 0 280 -55.5t219.5 -149t140.5 -220.5t51 -267q0 -173 -61 -325t-165 -259.5t-248.5 -169.5t-305.5 -62zM929 51q138 0 263.5 54.5t219.5 149.5
t149.5 233.5t55.5 297.5q0 167 -75 306t-212.5 221t-308.5 82q-135 0 -260.5 -54.5t-220 -150t-151 -234t-56.5 -296.5q0 -167 77 -306.5t214 -221t305 -81.5zM811 650q1 -101 51 -161t132 -60q121 0 184 152h48l-37 -172q-74 -57 -215 -57q-149 0 -244.5 88t-93.5 248
q3 179 116 292.5t292 113.5q78 0 147 -21t108 -52l-29 -166l-47 2q-6 159 -154 159q-106 0 -183 -110t-75 -256z" />
    <glyph glyph-name="a.sups" unicode="&#xaa;" horiz-adv-x="742" 
d="M304 1030q-1 162 87 272.5t222 110.5q104 0 146 -73l62 59h91l-87 -407q-12 -57 29 -57q38 0 66 19l-13 -64q-25 -29 -70.5 -48.5t-91.5 -19.5q-50 0 -72.5 28t-14.5 81l5 25q-29 -66 -79 -101.5t-113 -35.5q-72 0 -119.5 55.5t-47.5 155.5zM476 1040q3 -112 76 -112
q41 0 74.5 35t46.5 97l49 228q-6 16 -27 27t-52 11q-54 0 -94 -47.5t-57 -111t-16 -127.5z" />
    <glyph glyph-name="guillemetleft" unicode="&#xab;" horiz-adv-x="1202" 
d="M169 510l9 39l512 424h142l-398 -444l209 -444h-124zM643 510l9 39l512 424h141l-397 -444l209 -444h-125z" />
    <glyph glyph-name="logicalnot" unicode="&#xac;" horiz-adv-x="1206" 
d="M229 509l34 161h966l-18 -80h1l-103 -484h-162l86 403h-804z" />
    <glyph glyph-name="registered" unicode="&#xae;" horiz-adv-x="1644" 
d="M931 -31q-147 0 -276.5 55t-220 148.5t-142.5 220.5t-52 268q0 172 62 324.5t167 259.5t248.5 169.5t302.5 62.5q150 0 280 -55.5t219.5 -149t140.5 -220.5t51 -267q0 -173 -61 -325t-165 -259.5t-248.5 -169.5t-305.5 -62zM929 51q138 0 263.5 54.5t219.5 149.5
t149.5 233.5t55.5 297.5q0 167 -75 306t-212.5 221t-308.5 82q-135 0 -260.5 -54.5t-220 -150t-151 -234t-56.5 -296.5q0 -167 77 -306.5t214 -221t305 -81.5zM905 426l-12 -57h-318l11 57q55 5 71 15.5t23 42.5l103 479q7 32 -5 42.5t-65 15.5l13 57h293q136 0 209 -48
t73 -137q0 -74 -47 -124t-126 -77l56 -144q29 -69 47.5 -93.5t44.5 -31.5l-11 -55h-178l-113 297q-5 0 -15 -0.5t-15 -0.5h-62l-38 -178q-7 -33 3.5 -43t57.5 -17zM955 1010l-58 -281l52 2q87 2 136.5 44.5t47.5 109.5q0 120 -137 125h-41z" />
    <glyph glyph-name="macron" unicode="&#xaf;" horiz-adv-x="1024" 
d="M492 1267l31 147h578l-31 -147h-578z" />
    <glyph glyph-name="degree" unicode="&#xb0;" horiz-adv-x="757" 
d="M660 1401q121 0 193 -72t73 -190q0 -136 -105.5 -236.5t-254.5 -100.5q-123 0 -195 72t-72 189q0 137 105.5 237.5t255.5 100.5zM647 1280q-80 0 -142.5 -65t-62.5 -152q0 -64 37 -102.5t98 -38.5q80 0 142.5 65.5t62.5 152.5q0 63 -37 101.5t-98 38.5z" />
    <glyph glyph-name="plusminus" unicode="&#xb1;" horiz-adv-x="1206" 
d="M254 630l36 162h401l59 281h163l-60 -281h401l-35 -162h-401l-60 -280h-161l59 280h-402zM144 107l34 162h966l-36 -162h-964z" />
    <glyph glyph-name="two.sups" unicode="&#xb2;" horiz-adv-x="712" 
d="M792 832l-523 -1l25 117l237 189q121 98 164.5 154t42.5 118q-1 51 -36 83.5t-99 32.5q-106 0 -169 -117l-50 22q37 100 111.5 157t181.5 57q100 0 167.5 -52t67.5 -144q0 -87 -59 -156t-226 -179l-192 -125h392z" />
    <glyph glyph-name="three.sups" unicode="&#xb3;" horiz-adv-x="731" 
d="M758 1423q-1 41 -36.5 71.5t-98.5 30.5q-112 0 -173 -115l-52 23q33 98 111 154.5t179 56.5q97 0 166 -47t69 -132q1 -79 -67 -129.5t-162 -62.5q79 -23 124 -75t46 -124q0 -81 -49 -141.5t-121 -89t-154 -28.5q-101 0 -178 44.5t-77 118.5q0 35 23.5 59t58.5 24
q33 0 54.5 -23t21.5 -56q0 -39 -26 -60q39 -23 103 -23q73 0 125 44t51 125q0 58 -46.5 97.5t-136.5 39.5q-22 0 -57 -5l14 71q45 4 78 8.5t76 16t70 26.5t46 41t18 60z" />
    <glyph glyph-name="acute" unicode="&#xb4;" horiz-adv-x="1024" 
d="M901 1544h272v-12l-413 -363h-113z" />
    <glyph glyph-name="mugreek" unicode="&#x3bc;" horiz-adv-x="1209" 
d="M59 -460l150 708l162 762h252q-87 -315 -145 -587q-33 -157 0 -228.5t137 -71.5q73 0 138 35t103 98l153 754h254l-167 -714q-44 -186 87 -186q36 0 61 9l-17 -81q-90 -55 -210 -55q-84 0 -128.5 45.5t-35.5 140.5q-49 -83 -137 -137.5t-183 -54.5t-150 45
q-47 -249 -68 -482h-256z" />
    <glyph glyph-name="mugreek" unicode="&#xb5;" horiz-adv-x="1209" 
d="M59 -460l150 708l162 762h252q-87 -315 -145 -587q-33 -157 0 -228.5t137 -71.5q73 0 138 35t103 98l153 754h254l-167 -714q-44 -186 87 -186q36 0 61 9l-17 -81q-90 -55 -210 -55q-84 0 -128.5 45.5t-35.5 140.5q-49 -83 -137 -137.5t-183 -54.5t-150 45
q-47 -249 -68 -482h-256z" />
    <glyph glyph-name="paragraph" unicode="&#xb6;" horiz-adv-x="1359" 
d="M562 -220l169 793h-37q-75 0 -144.5 23.5t-127 69.5t-92.5 122t-35 172q0 107 50 199.5t131.5 154t184.5 96t210 34.5h187l-354 -1664h-142zM1272 1444h319l-19 -88q-84 -8 -122 -19t-53.5 -31.5t-25.5 -67.5l-310 -1458h-143z" />
    <glyph glyph-name="middledot" unicode="&#x2e31;" horiz-adv-x="553" 
d="M401 439q-64 0 -109 43t-45 104q0 65 45.5 110t108.5 45q65 0 109 -43t44 -104q0 -66 -44.5 -110.5t-108.5 -44.5z" />
    <glyph glyph-name="middledot" unicode="&#x2027;" horiz-adv-x="553" 
d="M401 439q-64 0 -109 43t-45 104q0 65 45.5 110t108.5 45q65 0 109 -43t44 -104q0 -66 -44.5 -110.5t-108.5 -44.5z" />
    <glyph glyph-name="middledot" unicode="&#xb7;" horiz-adv-x="553" 
d="M401 439q-64 0 -109 43t-45 104q0 65 45.5 110t108.5 45q65 0 109 -43t44 -104q0 -66 -44.5 -110.5t-108.5 -44.5z" />
    <glyph glyph-name="cedilla" unicode="&#xb8;" horiz-adv-x="1024" 
d="M409 -491q-117 0 -197 62l19 84q62 -40 144 -40q52 0 82 22t30 58q0 40 -33.5 62.5t-94.5 22.5h-24l17 81l167 183h83l-9 -44l-100 -110q87 -12 135.5 -61t48.5 -125q0 -88 -72 -141.5t-196 -53.5z" />
    <glyph glyph-name="one.sups" unicode="&#xb9;" horiz-adv-x="658" 
d="M770 1627l-139 -655q-9 -40 17.5 -54t114.5 -22l-14 -64h-462l12 64q92 8 124 22t41 53l106 501q1 5 -2 7.5t-8 1.5l-143 -28l14 64l261 110h78z" />
    <glyph glyph-name="o.sups" unicode="&#xba;" horiz-adv-x="732" 
d="M565 819q-120 0 -186.5 70t-66.5 185q0 142 92.5 240.5t235.5 98.5q120 0 186.5 -70.5t66.5 -185.5q0 -142 -92.5 -240t-235.5 -98zM572 901q49 0 86 52.5t52.5 121t14.5 134.5q-2 59 -26.5 90t-64.5 31q-50 0 -86.5 -52.5t-52 -120.5t-14.5 -135q2 -60 26 -90.5
t65 -30.5z" />
    <glyph glyph-name="guillemetright" unicode="&#xbb;" horiz-adv-x="1202" 
d="M743 548l-9 -39l-511 -424h-142l397 444l-208 444h124zM1216 548l-9 -39l-511 -424h-142l398 444l-209 444h124z" />
    <glyph glyph-name="onequarter" unicode="&#xbc;" horiz-adv-x="1592" 
d="M731 1445l-139 -655q-9 -39 17.5 -53.5t113.5 -22.5l-13 -64h-463l13 64q92 8 124 22t40 54l106 500q1 5 -1.5 7.5t-7.5 1.5l-143 -28l13 64l261 110h79zM314 0l1230 1444h142l-1230 -1444h-142zM1271 0l34 170h-373l20 93l519 532h115l-104 -494h122l-28 -131h-122
l-35 -170h-148zM1335 301l68 318l-310 -318h242z" />
    <glyph glyph-name="onehalf" unicode="&#xbd;" horiz-adv-x="1699" 
d="M731 1445l-139 -655q-9 -39 17.5 -53.5t113.5 -22.5l-13 -64h-463l13 64q92 8 124 22t40 54l106 500q1 5 -1.5 7.5t-7.5 1.5l-143 -28l13 64l261 110h79zM314 0l1230 1444h142l-1230 -1444h-142zM1602 0l-523 -1l25 117l237 189q121 98 164.5 154t42.5 118
q-1 50 -36.5 83t-98.5 33q-107 0 -169 -117l-50 22q36 100 110.5 157t182.5 57q99 0 167 -52t68 -144q0 -87 -59 -156t-226 -179l-192 -125h392z" />
    <glyph glyph-name="threequarters" unicode="&#xbe;" horiz-adv-x="1615" 
d="M719 1241q-1 40 -36.5 71t-98.5 31q-114 0 -173 -115l-52 23q33 98 111 154.5t178 56.5q98 0 167 -47t69 -132q1 -79 -67 -129.5t-162 -62.5q79 -23 124 -75t46 -124q0 -81 -49 -141.5t-121.5 -89t-153.5 -28.5q-101 0 -178 44.5t-77 118.5q0 36 23 59.5t58 23.5
q34 0 55.5 -22.5t21.5 -56.5q0 -39 -26 -60q39 -23 102 -23q73 0 125 44.5t51 124.5q0 59 -46 98t-136 39q-24 0 -57 -5l14 71q44 4 77.5 8.5t76 16t70 26.5t46.5 41t18 60zM337 0l1230 1444h143l-1231 -1444h-142zM1293 0l35 170h-373l20 93l519 532h114l-103 -494h122
l-28 -131h-122l-35 -170h-149zM1358 301l68 318l-310 -318h242z" />
    <glyph glyph-name="questiondown" unicode="&#xbf;" horiz-adv-x="808" 
d="M654 979q62 0 104 -40t42 -97q0 -60 -42 -101.5t-102 -41.5q-62 0 -104 40t-42 97q0 61 42 102t102 41zM649 500l-35 -338q-353 -1 -353 -202q-2 -213 343 -300q-11 -81 -59.5 -130t-128.5 -49q-119 0 -207.5 115.5t-88.5 282.5q0 204 114 329.5t320 151.5l29 140h66z
" />
    <glyph glyph-name="Agrave" unicode="&#xc0;" horiz-adv-x="1398" 
d="M970 1855l113 -288h-81l-233 279v9h201zM1261 281q15 -114 43.5 -148t117.5 -45l-18 -88h-593l18 88q119 15 148.5 50t17.5 145l-23 204h-471l-109 -204q-25 -47 -36 -75.5t-12.5 -51t14.5 -34.5t42 -20t73 -14l-18 -88h-462l19 88q97 11 138.5 44.5t108.5 154.5
l644 1157h207zM559 595h401l-70 621z" />
    <glyph glyph-name="Aacute" unicode="&#xc1;" horiz-adv-x="1398" 
d="M1135 1855l222 -1v-9l-351 -279h-96zM1261 281q15 -114 43.5 -148t117.5 -45l-18 -88h-593l18 88q119 15 148.5 50t17.5 145l-23 204h-471l-109 -204q-25 -47 -36 -75.5t-12.5 -51t14.5 -34.5t42 -20t73 -14l-18 -88h-462l19 88q97 11 138.5 44.5t108.5 154.5l644 1157
h207zM559 595h401l-70 621z" />
    <glyph glyph-name="Acircumflex" unicode="&#xc2;" horiz-adv-x="1398" 
d="M850 1566h-99l249 289h152l126 -289h-92l-134 148zM1261 281q15 -114 43.5 -148t117.5 -45l-18 -88h-593l18 88q119 15 148.5 50t17.5 145l-23 204h-471l-109 -204q-25 -47 -36 -75.5t-12.5 -51t14.5 -34.5t42 -20t73 -14l-18 -88h-462l19 88q97 11 138.5 44.5
t108.5 154.5l644 1157h207zM559 595h401l-70 621z" />
    <glyph glyph-name="Atilde" unicode="&#xc3;" horiz-adv-x="1398" 
d="M1146 1603q-64 0 -122 49l-26 24q-34 33 -64 33q-25 0 -40.5 -24.5t-25.5 -91.5h-85q26 249 167 249q64 0 122 -49l26 -23q34 -34 64 -34q24 0 40.5 25t25.5 91h85q-16 -135 -58 -192t-109 -57zM1261 281q15 -114 43.5 -148t117.5 -45l-18 -88h-593l18 88
q119 15 148.5 50t17.5 145l-23 204h-471l-109 -204q-25 -47 -36 -75.5t-12.5 -51t14.5 -34.5t42 -20t73 -14l-18 -88h-462l19 88q97 11 138.5 44.5t108.5 154.5l644 1157h207zM559 595h401l-70 621z" />
    <glyph glyph-name="Adieresis" unicode="&#xc4;" horiz-adv-x="1398" 
d="M873 1603q-46 0 -75.5 29t-28.5 73q0 48 33 81.5t80 33.5q45 0 74.5 -29.5t28.5 -73.5q0 -47 -33.5 -80.5t-78.5 -33.5zM1210 1603q-46 0 -75.5 29t-28.5 73q0 48 33 81.5t80 33.5q45 0 74.5 -29.5t28.5 -73.5q0 -47 -33 -80.5t-79 -33.5zM1261 281q15 -114 43.5 -148
t117.5 -45l-18 -88h-593l18 88q119 15 148.5 50t17.5 145l-23 204h-471l-109 -204q-25 -47 -36 -75.5t-12.5 -51t14.5 -34.5t42 -20t73 -14l-18 -88h-462l19 88q97 11 138.5 44.5t108.5 154.5l644 1157h207zM559 595h401l-70 621z" />
    <glyph glyph-name="Aring" unicode="&#x212b;" horiz-adv-x="1398" 
d="M816 1749q0 90 70 149t183 59q99 0 161.5 -51t62.5 -136q0 -91 -69 -149.5t-183 -58.5q-100 0 -162.5 51t-62.5 136zM961 1744q0 -44 22 -69.5t61 -25.5q43 0 74.5 36t31.5 91q0 43 -22.5 68t-60.5 25q-43 0 -74.5 -35t-31.5 -90zM1261 281q15 -114 43.5 -148t117.5 -45
l-18 -88h-593l18 88q119 15 148.5 50t17.5 145l-23 204h-471l-109 -204q-25 -47 -36 -75.5t-12.5 -51t14.5 -34.5t42 -20t73 -14l-18 -88h-462l19 88q97 11 138.5 44.5t108.5 154.5l644 1157h207zM559 595h401l-70 621z" />
    <glyph glyph-name="Aring" unicode="&#xc5;" horiz-adv-x="1398" 
d="M816 1749q0 90 70 149t183 59q99 0 161.5 -51t62.5 -136q0 -91 -69 -149.5t-183 -58.5q-100 0 -162.5 51t-62.5 136zM961 1744q0 -44 22 -69.5t61 -25.5q43 0 74.5 36t31.5 91q0 43 -22.5 68t-60.5 25q-43 0 -74.5 -35t-31.5 -90zM1261 281q15 -114 43.5 -148t117.5 -45
l-18 -88h-593l18 88q119 15 148.5 50t17.5 145l-23 204h-471l-109 -204q-25 -47 -36 -75.5t-12.5 -51t14.5 -34.5t42 -20t73 -14l-18 -88h-462l19 88q97 11 138.5 44.5t108.5 154.5l644 1157h207zM559 595h401l-70 621z" />
    <glyph glyph-name="AE" unicode="&#xc6;" horiz-adv-x="1999" 
d="M2131 1444l-67 -371h-76q-2 56 -7 91t-17 66t-30 47.5t-50.5 29t-74.5 17.5t-105 8l-232 11l-102 -550h239q50 0 80 35.5t80 161.5h76l-106 -505h-75q4 85 -2 127t-23 56.5t-53 14.5h-237l-108 -582l245 11q84 4 138 12t102.5 26t82 52t64 84t61.5 127h75l-103 -413
h-1098l19 88q42 4 67 8t46 12t31 15.5t19 26t13 35t10 49.5l60 324h-454l-203 -305q-26 -40 -37.5 -64t-14 -42.5t14 -29t43 -17t76.5 -12.5l-19 -88h-484l17 88q100 10 146 39t112 126l819 1191h1042zM1135 1334l-442 -664h401l124 664h-83z" />
    <glyph glyph-name="Ccedilla" unicode="&#xc7;" horiz-adv-x="1427" 
d="M528 613q0 -233 113 -377t299 -144q263 0 398 315h79l-69 -319q-61 -50 -174 -83t-242 -36l-72 -79q87 -12 135.5 -61t48.5 -125q0 -88 -72 -141.5t-196 -53.5q-117 0 -197 62l19 84q62 -40 144 -40q53 0 82.5 22t29.5 58q0 40 -33.5 62.5t-95.5 22.5h-23l17 81l103 113
q-259 28 -417.5 209t-156.5 468q0 175 58 327t161 261.5t252 172.5t325 63q163 0 303.5 -47t214.5 -112l-56 -312l-77 5q-7 168 -93 256t-249 88q-114 0 -216 -54.5t-178 -150.5t-120.5 -235t-44.5 -300z" />
    <glyph glyph-name="Egrave" unicode="&#xc8;" horiz-adv-x="1254" 
d="M896 1855l114 -288h-81l-233 279v9h200zM1428 1444l-68 -371h-78q-2 82 -14 130t-45.5 77t-83 40t-136.5 14l-237 9l-118 -553h243q50 0 80.5 36t82.5 164h74l-107 -503h-74q4 87 -2 129.5t-23 57t-53 14.5h-243l-123 -587l241 9q75 3 119.5 7t90 16.5t72.5 31t56.5 53
t52 80t50.5 115.5h78l-101 -413h-1105l18 88q61 6 94 12.5t55 21t30 32.5t16 53l220 1030q6 28 6 44t-5.5 30t-24 21.5t-46.5 13t-75 10.5l19 88h1064z" />
    <glyph glyph-name="Eacute" unicode="&#xc9;" horiz-adv-x="1254" 
d="M1062 1855l222 -1v-9l-351 -279h-96zM1428 1444l-68 -371h-78q-2 82 -14 130t-45.5 77t-83 40t-136.5 14l-237 9l-118 -553h243q50 0 80.5 36t82.5 164h74l-107 -503h-74q4 87 -2 129.5t-23 57t-53 14.5h-243l-123 -587l241 9q75 3 119.5 7t90 16.5t72.5 31t56.5 53
t52 80t50.5 115.5h78l-101 -413h-1105l18 88q61 6 94 12.5t55 21t30 32.5t16 53l220 1030q6 28 6 44t-5.5 30t-24 21.5t-46.5 13t-75 10.5l19 88h1064z" />
    <glyph glyph-name="Ecircumflex" unicode="&#xca;" horiz-adv-x="1254" 
d="M777 1566h-99l249 289h151l127 -289h-92l-134 148zM1428 1444l-68 -371h-78q-2 82 -14 130t-45.5 77t-83 40t-136.5 14l-237 9l-118 -553h243q50 0 80.5 36t82.5 164h74l-107 -503h-74q4 87 -2 129.5t-23 57t-53 14.5h-243l-123 -587l241 9q75 3 119.5 7t90 16.5t72.5 31
t56.5 53t52 80t50.5 115.5h78l-101 -413h-1105l18 88q61 6 94 12.5t55 21t30 32.5t16 53l220 1030q6 28 6 44t-5.5 30t-24 21.5t-46.5 13t-75 10.5l19 88h1064z" />
    <glyph glyph-name="Edieresis" unicode="&#xcb;" horiz-adv-x="1254" 
d="M800 1603q-46 0 -75.5 29t-28.5 73q0 48 33 81.5t79 33.5q45 0 74.5 -29.5t29.5 -73.5q0 -47 -33 -80.5t-79 -33.5zM1137 1603q-46 0 -75.5 29t-28.5 73q0 48 33 81.5t79 33.5q45 0 74.5 -29.5t29.5 -73.5q0 -47 -33.5 -80.5t-78.5 -33.5zM1428 1444l-68 -371h-78
q-2 82 -14 130t-45.5 77t-83 40t-136.5 14l-237 9l-118 -553h243q50 0 80.5 36t82.5 164h74l-107 -503h-74q4 87 -2 129.5t-23 57t-53 14.5h-243l-123 -587l241 9q75 3 119.5 7t90 16.5t72.5 31t56.5 53t52 80t50.5 115.5h78l-101 -413h-1105l18 88q61 6 94 12.5t55 21
t30 32.5t16 53l220 1030q6 28 6 44t-5.5 30t-24 21.5t-46.5 13t-75 10.5l19 88h1064z" />
    <glyph glyph-name="Igrave" unicode="&#xcc;" horiz-adv-x="707" 
d="M638 1855l113 -288h-80l-234 279v9h201zM525 207q-6 -28 -6 -44t5.5 -30t23.5 -21.5t46 -13t75 -10.5l-19 -88h-593l18 88q62 6 95 12.5t54.5 21t30 32.5t15.5 53l219 1030q5 32 6.5 52.5t-15 34t-46.5 20.5t-89 12l19 88h593l-18 -88q-62 -6 -95 -12.5t-54.5 -21
t-30 -32.5t-15.5 -53z" />
    <glyph glyph-name="Iacute" unicode="&#xcd;" horiz-adv-x="707" 
d="M803 1855l222 -1v-9l-351 -279h-96zM525 207q-6 -28 -6 -44t5.5 -30t23.5 -21.5t46 -13t75 -10.5l-19 -88h-593l18 88q62 6 95 12.5t54.5 21t30 32.5t15.5 53l219 1030q5 32 6.5 52.5t-15 34t-46.5 20.5t-89 12l19 88h593l-18 -88q-62 -6 -95 -12.5t-54.5 -21t-30 -32.5
t-15.5 -53z" />
    <glyph glyph-name="Icircumflex" unicode="&#xce;" horiz-adv-x="707" 
d="M519 1566h-100l250 289h151l127 -289h-92l-134 148zM525 207q-6 -28 -6 -44t5.5 -30t23.5 -21.5t46 -13t75 -10.5l-19 -88h-593l18 88q62 6 95 12.5t54.5 21t30 32.5t15.5 53l219 1030q5 32 6.5 52.5t-15 34t-46.5 20.5t-89 12l19 88h593l-18 -88q-62 -6 -95 -12.5
t-54.5 -21t-30 -32.5t-15.5 -53z" />
    <glyph glyph-name="Idieresis" unicode="&#xcf;" horiz-adv-x="707" 
d="M541 1603q-45 0 -74.5 29t-29.5 73q0 48 33 81.5t80 33.5q45 0 74.5 -29.5t29.5 -73.5q-1 -48 -34 -81t-79 -33zM878 1603q-45 0 -74.5 29t-29.5 73q0 48 33 81.5t80 33.5q45 0 74.5 -29.5t29.5 -73.5q-1 -48 -34 -81t-79 -33zM525 207q-6 -28 -6 -44t5.5 -30t23.5 -21.5
t46 -13t75 -10.5l-19 -88h-593l18 88q62 6 95 12.5t54.5 21t30 32.5t15.5 53l219 1030q5 32 6.5 52.5t-15 34t-46.5 20.5t-89 12l19 88h593l-18 -88q-62 -6 -95 -12.5t-54.5 -21t-30 -32.5t-15.5 -53z" />
    <glyph glyph-name="Dbar" unicode="&#x110;" horiz-adv-x="1528" 
d="M204 689l22 102h169l95 446q14 66 -10 87t-135 32l19 88h488q340 0 536.5 -167.5t196.5 -450.5q0 -178 -73.5 -331.5t-203.5 -262t-314 -170.5t-398 -62h-539l18 88q61 6 94 12.5t55 21t30 32.5t16 53l103 482h-169zM1302 845q0 211 -117 345.5t-341 147.5l-78 5
l-117 -552h264l-23 -102h-263l-124 -588l104 5q204 9 361.5 102t245.5 258t88 379z" />
    <glyph glyph-name="Dbar" unicode="&#xd0;" horiz-adv-x="1528" 
d="M204 689l22 102h169l95 446q14 66 -10 87t-135 32l19 88h488q340 0 536.5 -167.5t196.5 -450.5q0 -178 -73.5 -331.5t-203.5 -262t-314 -170.5t-398 -62h-539l18 88q61 6 94 12.5t55 21t30 32.5t16 53l103 482h-169zM1302 845q0 211 -117 345.5t-341 147.5l-78 5
l-117 -552h264l-23 -102h-263l-124 -588l104 5q204 9 361.5 102t245.5 258t88 379z" />
    <glyph glyph-name="Ntilde" unicode="&#xd1;" horiz-adv-x="1530" 
d="M1185 1603q-62 0 -122 49l-25 24q-36 33 -65 33q-24 0 -40 -24.5t-25 -91.5h-85q26 249 166 249q65 0 123 -49l26 -23q34 -34 63 -34q25 0 41 24.5t26 91.5h85q-16 -135 -58.5 -192t-109.5 -57zM744 1444l526 -1175l187 953q6 27 7.5 42.5t-2 31t-12 23.5t-27 15.5
t-43 12t-64.5 9.5l19 88h455l-19 -88q-100 -13 -131.5 -36.5t-48.5 -97.5l-269 -1222h-226l-526 1174l-188 -951q-5 -37 -7.5 -59.5t14.5 -37.5t46.5 -23t88.5 -15l-19 -88h-456l19 88q101 13 132.5 37t47.5 97l218 988q14 51 8.5 81.5t-35 44t-101.5 20.5l18 88h388z" />
    <glyph glyph-name="Ograve" unicode="&#xd2;" horiz-adv-x="1594" 
d="M1027 1855l113 -288h-80l-234 279v9h201zM893 -26q-152 0 -275.5 53t-204 144.5t-124.5 212.5t-44 258q0 159 54 307.5t150 264.5t242 186t317 70q151 0 275 -53t205 -144.5t124.5 -212.5t43.5 -258q0 -159 -54 -307.5t-150 -264.5t-242 -186t-317 -70zM877 97
q146 0 263 110t179 284t62 371q0 236 -96.5 360.5t-260.5 124.5q-112 0 -208 -64.5t-160 -171.5t-100 -244.5t-36 -284.5q0 -236 96.5 -360.5t260.5 -124.5z" />
    <glyph glyph-name="Oacute" unicode="&#xd3;" horiz-adv-x="1594" 
d="M1192 1855l223 -1v-9l-352 -279h-96zM893 -26q-152 0 -275.5 53t-204 144.5t-124.5 212.5t-44 258q0 159 54 307.5t150 264.5t242 186t317 70q151 0 275 -53t205 -144.5t124.5 -212.5t43.5 -258q0 -159 -54 -307.5t-150 -264.5t-242 -186t-317 -70zM877 97q146 0 263 110
t179 284t62 371q0 236 -96.5 360.5t-260.5 124.5q-112 0 -208 -64.5t-160 -171.5t-100 -244.5t-36 -284.5q0 -236 96.5 -360.5t260.5 -124.5z" />
    <glyph glyph-name="Ocircumflex" unicode="&#xd4;" horiz-adv-x="1594" 
d="M908 1566h-100l250 289h151l127 -289h-92l-134 148zM893 -26q-152 0 -275.5 53t-204 144.5t-124.5 212.5t-44 258q0 159 54 307.5t150 264.5t242 186t317 70q151 0 275 -53t205 -144.5t124.5 -212.5t43.5 -258q0 -159 -54 -307.5t-150 -264.5t-242 -186t-317 -70zM877 97
q146 0 263 110t179 284t62 371q0 236 -96.5 360.5t-260.5 124.5q-112 0 -208 -64.5t-160 -171.5t-100 -244.5t-36 -284.5q0 -236 96.5 -360.5t260.5 -124.5z" />
    <glyph glyph-name="Otilde" unicode="&#xd5;" horiz-adv-x="1594" 
d="M1203 1603q-64 0 -122 49l-25 24q-36 33 -65 33q-25 0 -40.5 -24.5t-24.5 -91.5h-85q26 249 166 249q65 0 122 -49l27 -23q33 -34 63 -34q25 0 41 24.5t25 91.5h85q-15 -135 -57 -192t-110 -57zM893 -26q-152 0 -275.5 53t-204 144.5t-124.5 212.5t-44 258
q0 159 54 307.5t150 264.5t242 186t317 70q151 0 275 -53t205 -144.5t124.5 -212.5t43.5 -258q0 -159 -54 -307.5t-150 -264.5t-242 -186t-317 -70zM877 97q146 0 263 110t179 284t62 371q0 236 -96.5 360.5t-260.5 124.5q-112 0 -208 -64.5t-160 -171.5t-100 -244.5
t-36 -284.5q0 -236 96.5 -360.5t260.5 -124.5z" />
    <glyph glyph-name="Odieresis" unicode="&#xd6;" horiz-adv-x="1594" 
d="M930 1603q-45 0 -74.5 29t-29.5 73q0 48 33 81.5t80 33.5q45 0 74.5 -29.5t29.5 -73.5q-1 -48 -34 -81t-79 -33zM1267 1603q-45 0 -74.5 29t-29.5 73q0 48 33 81.5t80 33.5q45 0 74.5 -29.5t29.5 -73.5q-1 -48 -34 -81t-79 -33zM893 -26q-152 0 -275.5 53t-204 144.5
t-124.5 212.5t-44 258q0 159 54 307.5t150 264.5t242 186t317 70q151 0 275 -53t205 -144.5t124.5 -212.5t43.5 -258q0 -159 -54 -307.5t-150 -264.5t-242 -186t-317 -70zM877 97q146 0 263 110t179 284t62 371q0 236 -96.5 360.5t-260.5 124.5q-112 0 -208 -64.5
t-160 -171.5t-100 -244.5t-36 -284.5q0 -236 96.5 -360.5t260.5 -124.5z" />
    <glyph glyph-name="multiply" unicode="&#xd7;" horiz-adv-x="1206" 
d="M1117 231l-130 -103l-274 347l-432 -356l-99 122l434 358l-275 349l130 102l273 -346l433 357l99 -122l-435 -358z" />
    <glyph glyph-name="Oslash" unicode="&#xd8;" horiz-adv-x="1594" 
d="M893 -26q-276 0 -450 168l-163 -162l-75 75l168 168q-126 173 -128 419q0 159 54 307.5t150 264.5t242 186t317 70q275 0 450 -167l162 160l74 -75l-166 -166q128 -175 128 -419q0 -127 -33.5 -248.5t-100 -226t-157 -184t-212.5 -125t-260 -45.5zM520 583
q0 -109 21 -193l779 775q-46 90 -122 136t-175 46q-111 0 -207 -64.5t-160 -171t-100 -244t-36 -284.5zM878 97q145 0 262 110t179 284t62 371q0 109 -21 193l-779 -776q92 -182 297 -182z" />
    <glyph glyph-name="Ugrave" unicode="&#xd9;" horiz-adv-x="1509" 
d="M1078 1855l114 -288h-81l-233 279v9h200zM787 -31q-123 0 -222 40.5t-165.5 119t-89 194t8.5 266.5l135 633q15 71 -6.5 95t-116.5 39l19 88h575l-18 -88q-115 -16 -149.5 -39.5t-49.5 -94.5l-134 -621q-50 -231 34.5 -347.5t259.5 -116.5q152 0 270.5 104t163.5 314
l137 667q5 26 7 41.5t-1.5 30t-12 23t-27 16.5t-43.5 13t-64 10l18 88h455l-19 -88q-101 -15 -132 -39t-47 -95l-152 -685q-59 -272 -227 -420t-407 -148z" />
    <glyph glyph-name="Uacute" unicode="&#xda;" horiz-adv-x="1509" 
d="M1244 1855l222 -1v-9l-352 -279h-95zM787 -31q-123 0 -222 40.5t-165.5 119t-89 194t8.5 266.5l135 633q15 71 -6.5 95t-116.5 39l19 88h575l-18 -88q-115 -16 -149.5 -39.5t-49.5 -94.5l-134 -621q-50 -231 34.5 -347.5t259.5 -116.5q152 0 270.5 104t163.5 314l137 667
q5 26 7 41.5t-1.5 30t-12 23t-27 16.5t-43.5 13t-64 10l18 88h455l-19 -88q-101 -15 -132 -39t-47 -95l-152 -685q-59 -272 -227 -420t-407 -148z" />
    <glyph glyph-name="Ucircumflex" unicode="&#xdb;" horiz-adv-x="1509" 
d="M959 1566h-99l249 289h151l127 -289h-92l-134 148zM787 -31q-123 0 -222 40.5t-165.5 119t-89 194t8.5 266.5l135 633q15 71 -6.5 95t-116.5 39l19 88h575l-18 -88q-115 -16 -149.5 -39.5t-49.5 -94.5l-134 -621q-50 -231 34.5 -347.5t259.5 -116.5q152 0 270.5 104
t163.5 314l137 667q5 26 7 41.5t-1.5 30t-12 23t-27 16.5t-43.5 13t-64 10l18 88h455l-19 -88q-101 -15 -132 -39t-47 -95l-152 -685q-59 -272 -227 -420t-407 -148z" />
    <glyph glyph-name="Udieresis" unicode="&#xdc;" horiz-adv-x="1509" 
d="M981 1603q-45 0 -74.5 29t-29.5 73q1 48 34 81.5t79 33.5q45 0 74.5 -29.5t29.5 -73.5q0 -48 -33.5 -81t-79.5 -33zM1318 1603q-45 0 -74.5 29t-29.5 73q1 48 34 81.5t79 33.5q45 0 74.5 -29.5t29.5 -73.5q0 -48 -33.5 -81t-79.5 -33zM787 -31q-123 0 -222 40.5
t-165.5 119t-89 194t8.5 266.5l135 633q15 71 -6.5 95t-116.5 39l19 88h575l-18 -88q-115 -16 -149.5 -39.5t-49.5 -94.5l-134 -621q-50 -231 34.5 -347.5t259.5 -116.5q152 0 270.5 104t163.5 314l137 667q5 26 7 41.5t-1.5 30t-12 23t-27 16.5t-43.5 13t-64 10l18 88h455
l-19 -88q-101 -15 -132 -39t-47 -95l-152 -685q-59 -272 -227 -420t-407 -148z" />
    <glyph glyph-name="Yacute" unicode="&#xdd;" horiz-adv-x="1330" 
d="M1158 1855l222 -1v-9l-351 -279h-96zM473 1169q-40 108 -74 141.5t-116 45.5l17 88h588l-19 -88q-115 -13 -137.5 -49.5t13.5 -136.5l147 -432l327 432q80 101 73 137t-116 49l18 88h450l-19 -88q-90 -12 -138.5 -45.5t-138.5 -146.5l-421 -527l-91 -431q-5 -23 -6 -37
t3.5 -27.5t14 -20.5t30.5 -14t49 -11.5t72 -8.5l-18 -87h-632l19 87q69 7 105.5 13.5t60 21t32.5 32t16 52.5l90 423z" />
    <glyph glyph-name="Thorn" unicode="&#xde;" horiz-adv-x="1345" 
d="M286 206l218 1031q14 67 -10 87t-133 32l19 88h591l-18 -88q-115 -12 -148 -32t-47 -87l-22 -103h168q237 0 373.5 -96t136.5 -270q0 -103 -54.5 -187.5t-148 -139.5t-217.5 -85t-264 -30h-165l-25 -120q-14 -66 11 -86.5t132 -31.5l-19 -88h-590l18 88q81 8 116.5 19
t51.5 31.5t26 67.5zM1143 772q0 116 -82 185t-218 72l-128 3l-128 -604l126 3q97 3 173 24t123.5 53.5t78.5 77t43 90t12 96.5z" />
    <glyph glyph-name="germandbls" unicode="&#xdf;" horiz-adv-x="1286" 
d="M398 0h-238l218 1023q53 247 201.5 373t362.5 126q188 0 301 -76.5t113 -198.5q0 -58 -23 -103.5t-59.5 -75.5t-81 -54t-89 -45t-81 -42.5t-59.5 -52.5t-23 -69q0 -44 28 -81.5t98 -89.5l59 -44q95 -72 137.5 -139.5t42.5 -151.5q0 -144 -117 -234t-306 -90
q-98 0 -179 26.5t-132 66.5l56 258h78q-2 -244 193 -244q73 0 125.5 41.5t52.5 118.5q0 52 -30 94.5t-113 105.5l-60 45q-151 117 -151 243q0 53 23 96.5t59.5 73.5t80.5 56.5t88 52t80.5 53.5t59.5 68.5t23 89.5q0 89 -57.5 137t-155.5 48q-106 0 -184.5 -83.5
t-109.5 -232.5z" />
    <glyph glyph-name="agrave" unicode="&#xe0;" horiz-adv-x="1158" 
d="M775 1544l114 -375h-99l-264 363v12h249zM190 348q0 182 66.5 338t190 251.5t276.5 95.5q88 0 149.5 -33t90.5 -85l91 95h127l-170 -789q-20 -88 50 -88q72 0 124 44l-19 -92q-37 -44 -109.5 -73t-141.5 -29q-83 0 -116.5 51t-14.5 144q0 3 4 20t5 19
q-52 -117 -136.5 -178.5t-190.5 -61.5q-117 0 -196.5 97.5t-79.5 273.5zM434 366q-1 -241 142 -241q78 0 145.5 78t98.5 221l87 408q-10 36 -51.5 60.5t-100.5 24.5q-76 0 -139 -51.5t-101.5 -133.5t-59.5 -177t-21 -189z" />
    <glyph glyph-name="aacute" unicode="&#xe1;" horiz-adv-x="1158" 
d="M924 1544h272v-12l-413 -363h-114zM190 348q0 182 66.5 338t190 251.5t276.5 95.5q88 0 149.5 -33t90.5 -85l91 95h127l-170 -789q-20 -88 50 -88q72 0 124 44l-19 -92q-37 -44 -109.5 -73t-141.5 -29q-83 0 -116.5 51t-14.5 144q0 3 4 20t5 19q-52 -117 -136.5 -178.5
t-190.5 -61.5q-117 0 -196.5 97.5t-79.5 273.5zM434 366q-1 -241 142 -241q78 0 145.5 78t98.5 221l87 408q-10 36 -51.5 60.5t-100.5 24.5q-76 0 -139 -51.5t-101.5 -133.5t-59.5 -177t-21 -189z" />
    <glyph glyph-name="acircumflex" unicode="&#xe2;" horiz-adv-x="1158" 
d="M601 1169h-112l289 375h168l130 -375h-103l-141 200zM190 348q0 182 66.5 338t190 251.5t276.5 95.5q88 0 149.5 -33t90.5 -85l91 95h127l-170 -789q-20 -88 50 -88q72 0 124 44l-19 -92q-37 -44 -109.5 -73t-141.5 -29q-83 0 -116.5 51t-14.5 144q0 3 4 20t5 19
q-52 -117 -136.5 -178.5t-190.5 -61.5q-117 0 -196.5 97.5t-79.5 273.5zM434 366q-1 -241 142 -241q78 0 145.5 78t98.5 221l87 408q-10 36 -51.5 60.5t-100.5 24.5q-76 0 -139 -51.5t-101.5 -133.5t-59.5 -177t-21 -189z" />
    <glyph glyph-name="atilde" unicode="&#xe3;" horiz-adv-x="1158" 
d="M942 1209q-77 0 -146 62l-33 31q-44 41 -79 41q-30 0 -49.5 -31t-31.5 -114h-97q18 165 69.5 235t129.5 70q76 0 146 -62l34 -31q43 -41 78 -41q31 0 50.5 31t31.5 114h97q-19 -165 -70 -235t-130 -70zM190 348q0 182 66.5 338t190 251.5t276.5 95.5q88 0 149.5 -33
t90.5 -85l91 95h127l-170 -789q-20 -88 50 -88q72 0 124 44l-19 -92q-37 -44 -109.5 -73t-141.5 -29q-83 0 -116.5 51t-14.5 144q0 3 4 20t5 19q-52 -117 -136.5 -178.5t-190.5 -61.5q-117 0 -196.5 97.5t-79.5 273.5zM434 366q-1 -241 142 -241q78 0 145.5 78t98.5 221
l87 408q-10 36 -51.5 60.5t-100.5 24.5q-76 0 -139 -51.5t-101.5 -133.5t-59.5 -177t-21 -189z" />
    <glyph glyph-name="adieresis" unicode="&#xe4;" horiz-adv-x="1158" 
d="M602 1230q-52 0 -86.5 34t-34.5 85q0 55 38.5 93.5t92.5 38.5q53 0 87.5 -34t34.5 -85q0 -55 -38.5 -93.5t-93.5 -38.5zM1034 1230q-53 0 -87.5 34t-34.5 85q0 55 38.5 93.5t93.5 38.5q52 0 86.5 -34t34.5 -85q0 -55 -38 -93.5t-93 -38.5zM190 348q0 182 66.5 338
t190 251.5t276.5 95.5q88 0 149.5 -33t90.5 -85l91 95h127l-170 -789q-20 -88 50 -88q72 0 124 44l-19 -92q-37 -44 -109.5 -73t-141.5 -29q-83 0 -116.5 51t-14.5 144q0 3 4 20t5 19q-52 -117 -136.5 -178.5t-190.5 -61.5q-117 0 -196.5 97.5t-79.5 273.5zM434 366
q-1 -241 142 -241q78 0 145.5 78t98.5 221l87 408q-10 36 -51.5 60.5t-100.5 24.5q-76 0 -139 -51.5t-101.5 -133.5t-59.5 -177t-21 -189z" />
    <glyph glyph-name="aring" unicode="&#xe5;" horiz-adv-x="1158" 
d="M558 1345q0 101 77.5 165.5t203.5 64.5q110 0 179.5 -56.5t69.5 -149.5q0 -101 -77 -165.5t-204 -64.5q-110 0 -179.5 56.5t-69.5 149.5zM718 1339q0 -50 24.5 -78.5t67.5 -28.5q47 0 82.5 41t35.5 102q0 50 -24 78t-67 28q-48 0 -83.5 -40.5t-35.5 -101.5zM190 348
q0 182 66.5 338t190 251.5t276.5 95.5q88 0 149.5 -33t90.5 -85l91 95h127l-170 -789q-20 -88 50 -88q72 0 124 44l-19 -92q-37 -44 -109.5 -73t-141.5 -29q-83 0 -116.5 51t-14.5 144q0 3 4 20t5 19q-52 -117 -136.5 -178.5t-190.5 -61.5q-117 0 -196.5 97.5t-79.5 273.5z
M434 366q-1 -241 142 -241q78 0 145.5 78t98.5 221l87 408q-10 36 -51.5 60.5t-100.5 24.5q-76 0 -139 -51.5t-101.5 -133.5t-59.5 -177t-21 -189z" />
    <glyph glyph-name="ae" unicode="&#xe6;" horiz-adv-x="1524" 
d="M269 790q0 102 107.5 172.5t261.5 70.5q235 0 327 -150q145 150 335 150q145 0 230 -64t85 -174q0 -61 -29 -112t-90 -93t-166.5 -69.5t-249.5 -35.5l-69 -4q0 -6 -0.5 -18t-0.5 -19q0 -152 68.5 -236t192.5 -84q132 0 239 89l-20 -92q-52 -66 -139 -105t-191 -39
q-133 0 -227.5 72.5t-130.5 207.5q-37 -126 -128.5 -203t-227.5 -77q-130 0 -213 69t-83 184q0 145 130 229t377 103l150 12l6 42q20 150 -34.5 223.5t-166.5 73.5q-79 0 -142 -29q46 -35 46 -93q0 -49 -36.5 -84t-88.5 -35q-51 0 -86.5 33.5t-35.5 84.5zM1284 920
q-98 0 -170 -95.5t-95 -251.5l56 5q173 16 252.5 76.5t79.5 148.5q0 55 -33.5 86t-89.5 31zM382 265q0 -69 42 -105.5t113 -36.5q101 0 165.5 80.5t89.5 260.5l2 15l-109 -9q-303 -28 -303 -205z" />
    <glyph glyph-name="ccedilla" unicode="&#xe7;" horiz-adv-x="941" 
d="M489 -491q-117 0 -197 62l19 84q62 -40 144 -40q53 0 82.5 22t29.5 58q0 40 -33.5 62.5t-94.5 22.5h-24l17 81l110 120q-68 9 -128 40.5t-108 84t-76 132.5t-28 177q0 127 41.5 241t113.5 196.5t172.5 131t213.5 49.5q134 1 213 -65.5t79 -170.5q0 -56 -39 -94.5
t-97 -38.5q-53 0 -89 36t-36 88q0 39 21.5 71t56.5 46q-36 17 -85 17q-136 0 -228 -135.5t-92 -338.5q0 -149 71.5 -236t190.5 -87q138 0 239 91l-21 -95q-45 -58 -116.5 -94t-154.5 -46l-83 -91q87 -12 136 -61t49 -125q0 -88 -72 -141.5t-197 -53.5z" />
    <glyph glyph-name="egrave" unicode="&#xe8;" horiz-adv-x="961" 
d="M733 1544l113 -375h-99l-264 363v12h250zM595 -23q-78 0 -147.5 27.5t-125 80t-88 138t-32.5 192.5q0 132 45.5 248.5t120.5 196.5t173.5 126.5t202.5 46.5q131 0 211.5 -60.5t80.5 -161.5q0 -128 -138 -220t-402 -168l-50 -14q10 -136 79 -210t179 -74q140 0 243 91
l-20 -95q-54 -69 -143.5 -106.5t-188.5 -37.5zM726 923q-108 0 -188 -116t-91 -303l42 13q344 103 344 284q0 122 -107 122z" />
    <glyph glyph-name="eacute" unicode="&#xe9;" horiz-adv-x="961" 
d="M881 1544h272v-12l-413 -363h-113zM595 -23q-78 0 -147.5 27.5t-125 80t-88 138t-32.5 192.5q0 132 45.5 248.5t120.5 196.5t173.5 126.5t202.5 46.5q131 0 211.5 -60.5t80.5 -161.5q0 -128 -138 -220t-402 -168l-50 -14q10 -136 79 -210t179 -74q140 0 243 91l-20 -95
q-54 -69 -143.5 -106.5t-188.5 -37.5zM726 923q-108 0 -188 -116t-91 -303l42 13q344 103 344 284q0 122 -107 122z" />
    <glyph glyph-name="ecircumflex" unicode="&#xea;" horiz-adv-x="961" 
d="M559 1169h-112l290 375h167l130 -375h-103l-141 200zM595 -23q-78 0 -147.5 27.5t-125 80t-88 138t-32.5 192.5q0 132 45.5 248.5t120.5 196.5t173.5 126.5t202.5 46.5q131 0 211.5 -60.5t80.5 -161.5q0 -128 -138 -220t-402 -168l-50 -14q10 -136 79 -210t179 -74
q140 0 243 91l-20 -95q-54 -69 -143.5 -106.5t-188.5 -37.5zM726 923q-108 0 -188 -116t-91 -303l42 13q344 103 344 284q0 122 -107 122z" />
    <glyph glyph-name="edieresis" unicode="&#xeb;" horiz-adv-x="961" 
d="M560 1230q-53 0 -87.5 34t-34.5 85q0 55 38.5 93.5t93.5 38.5q52 0 86.5 -34t34.5 -85q0 -55 -38 -93.5t-93 -38.5zM991 1230q-53 0 -87.5 34t-34.5 85q0 55 38.5 93.5t93.5 38.5q52 0 86.5 -34t34.5 -85q0 -55 -38 -93.5t-93 -38.5zM595 -23q-78 0 -147.5 27.5t-125 80
t-88 138t-32.5 192.5q0 132 45.5 248.5t120.5 196.5t173.5 126.5t202.5 46.5q131 0 211.5 -60.5t80.5 -161.5q0 -128 -138 -220t-402 -168l-50 -14q10 -136 79 -210t179 -74q140 0 243 91l-20 -95q-54 -69 -143.5 -106.5t-188.5 -37.5zM726 923q-108 0 -188 -116t-91 -303
l42 13q344 103 344 284q0 122 -107 122z" />
    <glyph glyph-name="igrave" unicode="&#xec;" horiz-adv-x="601" 
d="M499 1544l114 -375h-99l-264 363v12h249zM622 1023l-171 -802q-18 -88 50 -88q70 0 124 44l-19 -92q-37 -44 -110 -73t-143 -29q-189 0 -140 228l125 587q8 36 -2 52t-48 23l-90 14l19 84z" />
    <glyph glyph-name="iacute" unicode="&#xed;" horiz-adv-x="601" 
d="M647 1544h273v-12l-413 -363h-114zM622 1023l-171 -802q-18 -88 50 -88q70 0 124 44l-19 -92q-37 -44 -110 -73t-143 -29q-189 0 -140 228l125 587q8 36 -2 52t-48 23l-90 14l19 84z" />
    <glyph glyph-name="icircumflex" unicode="&#xee;" horiz-adv-x="601" 
d="M344 1169h-101l268 375h151l109 -375h-92l-123 200zM622 1023l-171 -802q-18 -88 50 -88q70 0 124 44l-19 -92q-37 -44 -110 -73t-143 -29q-189 0 -140 228l125 587q8 36 -2 52t-48 23l-90 14l19 84z" />
    <glyph glyph-name="idieresis" unicode="&#xef;" horiz-adv-x="601" 
d="M326 1230q-53 0 -87.5 34t-34.5 85q0 55 39 93.5t93 38.5q53 0 87.5 -34t34.5 -85q0 -55 -38.5 -93.5t-93.5 -38.5zM757 1230q-52 0 -86.5 34t-34.5 85q0 55 38.5 93.5t92.5 38.5q53 0 87.5 -34t34.5 -85q0 -55 -38.5 -93.5t-93.5 -38.5zM622 1023l-171 -802
q-18 -88 50 -88q70 0 124 44l-19 -92q-37 -44 -110 -73t-143 -29q-189 0 -140 228l125 587q8 36 -2 52t-48 23l-90 14l19 84z" />
    <glyph glyph-name="eth" unicode="&#xf0;" horiz-adv-x="1131" 
d="M600 -23q-183 0 -291 115t-108 310q0 162 62.5 298t175.5 217t253 81q94 0 157.5 -52.5t90.5 -143.5q-3 236 -176 435l-250 -155l-51 83l231 144q-79 72 -174 137l62 77q126 -69 223 -145l232 145l51 -85l-204 -127q285 -262 285 -642q0 -162 -49.5 -296t-130.5 -219
t-181.5 -131t-207.5 -46zM613 91q127 0 212.5 139.5t86.5 360.5q2 134 -42.5 212.5t-135.5 78.5q-81 0 -147 -77t-100.5 -194.5t-35.5 -245.5q0 -133 42 -203.5t120 -70.5z" />
    <glyph glyph-name="ntilde" unicode="&#xf1;" horiz-adv-x="1215" 
d="M993 1209q-76 0 -146 62l-33 31q-44 41 -79 41q-30 0 -49.5 -31t-31.5 -114h-97q34 305 199 305q78 0 146 -62l34 -31q44 -41 78 -41q31 0 50.5 31t31.5 114h97q-19 -165 -70 -235t-130 -70zM632 1023l-55 -252q128 262 353 262q150 0 212 -96t26 -263l-97 -453
q-20 -88 49 -88q73 0 125 44l-19 -92q-37 -44 -110 -73t-143 -29q-187 0 -140 228l98 468q21 99 -9 153.5t-100 54.5q-86 0 -166.5 -92t-110.5 -228l-119 -567h-235l170 798q7 36 -3 52t-47 23l-90 14l18 84z" />
    <glyph glyph-name="ograve" unicode="&#xf2;" horiz-adv-x="1144" 
d="M760 1544l113 -375h-98l-265 363v12h250zM613 -23q-194 0 -301.5 124.5t-107.5 321.5q0 161 66 299.5t191.5 224.5t284.5 86q194 0 301.5 -124t107.5 -321q0 -161 -66 -300t-191.5 -225t-284.5 -86zM620 91q72 0 129.5 52.5t91.5 137t52 180.5t18 191q0 130 -46 198.5
t-126 68.5q-72 0 -130 -52.5t-92 -136.5t-52 -180t-18 -192q0 -130 46.5 -198.5t126.5 -68.5z" />
    <glyph glyph-name="oacute" unicode="&#xf3;" horiz-adv-x="1144" 
d="M908 1544h273v-12l-413 -363h-114zM613 -23q-194 0 -301.5 124.5t-107.5 321.5q0 161 66 299.5t191.5 224.5t284.5 86q194 0 301.5 -124t107.5 -321q0 -161 -66 -300t-191.5 -225t-284.5 -86zM620 91q72 0 129.5 52.5t91.5 137t52 180.5t18 191q0 130 -46 198.5
t-126 68.5q-72 0 -130 -52.5t-92 -136.5t-52 -180t-18 -192q0 -130 46.5 -198.5t126.5 -68.5z" />
    <glyph glyph-name="ocircumflex" unicode="&#xf4;" horiz-adv-x="1144" 
d="M586 1169h-112l290 375h167l130 -375h-103l-140 200zM613 -23q-194 0 -301.5 124.5t-107.5 321.5q0 161 66 299.5t191.5 224.5t284.5 86q194 0 301.5 -124t107.5 -321q0 -161 -66 -300t-191.5 -225t-284.5 -86zM620 91q72 0 129.5 52.5t91.5 137t52 180.5t18 191
q0 130 -46 198.5t-126 68.5q-72 0 -130 -52.5t-92 -136.5t-52 -180t-18 -192q0 -130 46.5 -198.5t126.5 -68.5z" />
    <glyph glyph-name="otilde" unicode="&#xf5;" horiz-adv-x="1144" 
d="M926 1209q-76 0 -146 62l-33 31q-44 41 -79 41q-30 0 -49.5 -31t-31.5 -114h-97q34 305 199 305q77 0 147 -62l33 -31q44 -41 78 -41q31 0 50.5 31t31.5 114h97q-19 -165 -70 -235t-130 -70zM613 -23q-194 0 -301.5 124.5t-107.5 321.5q0 161 66 299.5t191.5 224.5
t284.5 86q194 0 301.5 -124t107.5 -321q0 -161 -66 -300t-191.5 -225t-284.5 -86zM620 91q72 0 129.5 52.5t91.5 137t52 180.5t18 191q0 130 -46 198.5t-126 68.5q-72 0 -130 -52.5t-92 -136.5t-52 -180t-18 -192q0 -130 46.5 -198.5t126.5 -68.5z" />
    <glyph glyph-name="odieresis" unicode="&#xf6;" horiz-adv-x="1144" 
d="M587 1230q-53 0 -87.5 34t-34.5 85q0 55 38.5 93.5t93.5 38.5q52 0 86.5 -34t34.5 -85q0 -55 -38 -93.5t-93 -38.5zM1018 1230q-53 0 -87.5 34t-34.5 85q0 55 39 93.5t93 38.5q52 0 86.5 -34t34.5 -85q0 -55 -38 -93.5t-93 -38.5zM613 -23q-194 0 -301.5 124.5
t-107.5 321.5q0 161 66 299.5t191.5 224.5t284.5 86q194 0 301.5 -124t107.5 -321q0 -161 -66 -300t-191.5 -225t-284.5 -86zM620 91q72 0 129.5 52.5t91.5 137t52 180.5t18 191q0 130 -46 198.5t-126 68.5q-72 0 -130 -52.5t-92 -136.5t-52 -180t-18 -192
q0 -130 46.5 -198.5t126.5 -68.5z" />
    <glyph glyph-name="divide" unicode="&#xf7;" horiz-adv-x="1206" 
d="M809 840q-55 0 -93 36.5t-38 89.5q0 56 38.5 94.5t92.5 38.5q55 0 93.5 -37t38.5 -89q0 -57 -38.5 -95t-93.5 -38zM229 509l34 161h966l-35 -161h-965zM649 81q-56 0 -94.5 36.5t-38.5 89.5q0 56 38.5 94t92.5 38q56 0 94.5 -36.5t38.5 -89.5q0 -56 -38.5 -94t-92.5 -38z
" />
    <glyph glyph-name="oslash" unicode="&#xf8;" horiz-adv-x="1138" 
d="M610 -23q-170 0 -277 102l-99 -101l-72 70l107 110q-65 110 -65 263q0 120 38.5 230.5t107 194.5t171 134.5t221.5 50.5q172 0 280 -103l103 105l72 -71l-112 -115q63 -108 63 -260q0 -120 -38.5 -230t-107 -194.5t-171 -135t-221.5 -50.5zM442 359v-24l448 458
q-41 127 -155 127q-72 0 -130.5 -52.5t-92.5 -136.5t-52 -180t-18 -192zM617 89q72 0 130.5 52.5t92.5 136.5t52 180t18 192q0 3 -0.5 9t-0.5 9l-446 -456q42 -123 154 -123z" />
    <glyph glyph-name="ugrave" unicode="&#xf9;" horiz-adv-x="1199" 
d="M796 1544l114 -375h-99l-265 363v12h250zM618 1024l-147 -695q-20 -97 12.5 -148.5t105.5 -51.5q95 0 167 78.5t99 206.5l82 384q8 35 -2.5 51.5t-47.5 23.5l-86 14l17 78l403 59l-172 -803q-18 -88 50 -88q72 0 124 44l-19 -92q-36 -44 -109 -73t-141 -29
q-84 0 -117.5 51t-15.5 144q0 2 4.5 20t4.5 19q-59 -117 -148.5 -178.5t-195.5 -61.5q-149 0 -215.5 99.5t-32.5 263.5l97 458q7 36 -3 52t-47 23l-90 14l18 84z" />
    <glyph glyph-name="uacute" unicode="&#xfa;" horiz-adv-x="1199" 
d="M944 1544h273v-12l-413 -363h-114zM618 1024l-147 -695q-20 -97 12.5 -148.5t105.5 -51.5q95 0 167 78.5t99 206.5l82 384q8 35 -2.5 51.5t-47.5 23.5l-86 14l17 78l403 59l-172 -803q-18 -88 50 -88q72 0 124 44l-19 -92q-36 -44 -109 -73t-141 -29q-84 0 -117.5 51
t-15.5 144q0 2 4.5 20t4.5 19q-59 -117 -148.5 -178.5t-195.5 -61.5q-149 0 -215.5 99.5t-32.5 263.5l97 458q7 36 -3 52t-47 23l-90 14l18 84z" />
    <glyph glyph-name="ucircumflex" unicode="&#xfb;" horiz-adv-x="1199" 
d="M622 1169h-112l290 375h168l129 -375h-102l-141 200zM618 1024l-147 -695q-20 -97 12.5 -148.5t105.5 -51.5q95 0 167 78.5t99 206.5l82 384q8 35 -2.5 51.5t-47.5 23.5l-86 14l17 78l403 59l-172 -803q-18 -88 50 -88q72 0 124 44l-19 -92q-36 -44 -109 -73t-141 -29
q-84 0 -117.5 51t-15.5 144q0 2 4.5 20t4.5 19q-59 -117 -148.5 -178.5t-195.5 -61.5q-149 0 -215.5 99.5t-32.5 263.5l97 458q7 36 -3 52t-47 23l-90 14l18 84z" />
    <glyph glyph-name="udieresis" unicode="&#xfc;" horiz-adv-x="1199" 
d="M623 1230q-53 0 -87.5 34t-34.5 85q0 55 39 93.5t93 38.5q52 0 86.5 -34t34.5 -85q0 -55 -38 -93.5t-93 -38.5zM1054 1230q-53 0 -87.5 34t-34.5 85q0 55 39 93.5t93 38.5q53 0 87.5 -34t34.5 -85q0 -55 -38.5 -93.5t-93.5 -38.5zM618 1024l-147 -695
q-20 -97 12.5 -148.5t105.5 -51.5q95 0 167 78.5t99 206.5l82 384q8 35 -2.5 51.5t-47.5 23.5l-86 14l17 78l403 59l-172 -803q-18 -88 50 -88q72 0 124 44l-19 -92q-36 -44 -109 -73t-141 -29q-84 0 -117.5 51t-15.5 144q0 2 4.5 20t4.5 19q-59 -117 -148.5 -178.5
t-195.5 -61.5q-149 0 -215.5 99.5t-32.5 263.5l97 458q7 36 -3 52t-47 23l-90 14l18 84z" />
    <glyph glyph-name="yacute" unicode="&#xfd;" horiz-adv-x="1006" 
d="M876 1544h273v-12l-413 -363h-114zM538 1024l33 -866q297 368 371 611h-1q-56 0 -95 38t-39 92q0 57 41 95.5t102 38.5q64 0 104.5 -41t40.5 -107q0 -221 -464 -804q-107 -130 -160 -193q-164 -196 -302 -348h-261v20q110 81 239 189t218 195l-50 858q-2 34 -17.5 49.5
t-55.5 22.5l-82 13l16 86z" />
    <glyph glyph-name="thorn" unicode="&#xfe;" horiz-adv-x="1155" 
d="M1179 662q0 -182 -66.5 -338t-190 -251.5t-277.5 -95.5q-135 0 -210 80l-72 -335q-9 -43 21.5 -59t155.5 -33l-18 -90h-583l18 90q101 16 130.5 32.5t39.5 59.5l331 1552q6 31 -4 47t-42 21l-96 17l19 85l407 52l-158 -688q53 110 135 167.5t184 57.5q117 0 196.5 -97.5
t79.5 -273.5zM935 644q1 241 -142 241q-78 0 -146 -78t-98 -221l-87 -407q10 -36 51.5 -60.5t101.5 -24.5q76 0 138.5 51.5t101 133t59.5 176.5t21 189z" />
    <glyph glyph-name="ydieresis" unicode="&#xff;" horiz-adv-x="1006" 
d="M555 1230q-53 0 -87.5 34t-34.5 85q0 55 39 93.5t93 38.5q52 0 86.5 -34t34.5 -85q0 -55 -38 -93.5t-93 -38.5zM986 1230q-53 0 -87 34t-34 85q0 55 38.5 93.5t92.5 38.5q53 0 87.5 -34t34.5 -85q0 -55 -38.5 -93.5t-93.5 -38.5zM538 1024l33 -866q297 368 371 611h-1
q-56 0 -95 38t-39 92q0 57 41 95.5t102 38.5q64 0 104.5 -41t40.5 -107q0 -221 -464 -804q-107 -130 -160 -193q-164 -196 -302 -348h-261v20q110 81 239 189t218 195l-50 858q-2 34 -17.5 49.5t-55.5 22.5l-82 13l16 86z" />
    <glyph glyph-name="Amacron" unicode="&#x100;" horiz-adv-x="1398" 
d="M768 1637l30 134h520l-28 -134h-522zM1261 281q15 -114 43.5 -148t117.5 -45l-18 -88h-593l18 88q119 15 148.5 50t17.5 145l-23 204h-471l-109 -204q-25 -47 -36 -75.5t-12.5 -51t14.5 -34.5t42 -20t73 -14l-18 -88h-462l19 88q97 11 138.5 44.5t108.5 154.5l644 1157
h207zM559 595h401l-70 621z" />
    <glyph glyph-name="amacron" unicode="&#x101;" horiz-adv-x="1158" 
d="M515 1267l31 147h578l-31 -147h-578zM190 348q0 182 66.5 338t190 251.5t276.5 95.5q88 0 149.5 -33t90.5 -85l91 95h127l-170 -789q-20 -88 50 -88q72 0 124 44l-19 -92q-37 -44 -109.5 -73t-141.5 -29q-83 0 -116.5 51t-14.5 144q0 3 4 20t5 19q-52 -117 -136.5 -178.5
t-190.5 -61.5q-117 0 -196.5 97.5t-79.5 273.5zM434 366q-1 -241 142 -241q78 0 145.5 78t98.5 221l87 408q-10 36 -51.5 60.5t-100.5 24.5q-76 0 -139 -51.5t-101.5 -133.5t-59.5 -177t-21 -189z" />
    <glyph glyph-name="Abreve" unicode="&#x102;" horiz-adv-x="1398" 
d="M1056 1587q-109 0 -180 60.5t-72 154.5q0 44 18 89h85q-2 -14 -2 -30q0 -53 44 -89.5t113 -36.5q80 0 128.5 40.5t62.5 115.5h87q-5 -141 -80.5 -222.5t-203.5 -81.5zM1261 281q15 -114 43.5 -148t117.5 -45l-18 -88h-593l18 88q119 15 148.5 50t17.5 145l-23 204h-471
l-109 -204q-25 -47 -36 -75.5t-12.5 -51t14.5 -34.5t42 -20t73 -14l-18 -88h-462l19 88q97 11 138.5 44.5t108.5 154.5l644 1157h207zM559 595h401l-70 621z" />
    <glyph glyph-name="abreve" unicode="&#x103;" horiz-adv-x="1158" 
d="M828 1178q-119 0 -196 71t-77 181q0 55 20 102h92q-3 -24 -3 -34q0 -62 48.5 -104t125.5 -42q90 0 144.5 46.5t69.5 133.5h92q-8 -166 -91.5 -260t-224.5 -94zM190 348q0 182 66.5 338t190 251.5t276.5 95.5q88 0 149.5 -33t90.5 -85l91 95h127l-170 -789q-20 -88 50 -88
q72 0 124 44l-19 -92q-37 -44 -109.5 -73t-141.5 -29q-83 0 -116.5 51t-14.5 144q0 3 4 20t5 19q-52 -117 -136.5 -178.5t-190.5 -61.5q-117 0 -196.5 97.5t-79.5 273.5zM434 366q-1 -241 142 -241q78 0 145.5 78t98.5 221l87 408q-10 36 -51.5 60.5t-100.5 24.5
q-76 0 -139 -51.5t-101.5 -133.5t-59.5 -177t-21 -189z" />
    <glyph glyph-name="Aogonek" unicode="&#x104;" horiz-adv-x="1398" 
d="M1055 -485q-91 0 -148.5 49t-57.5 126q0 84 61.5 164t168.5 146h-268l18 88q119 15 148.5 50t17.5 145l-23 204h-471l-109 -204q-25 -47 -36 -75.5t-12.5 -51t14.5 -34.5t42 -20t73 -14l-18 -88h-462l19 88q97 11 138.5 44.5t108.5 154.5l644 1157h207l151 -1163
q15 -114 43.5 -148t117.5 -45l-18 -88h-232q-111 -108 -111 -228q0 -61 27.5 -99t73.5 -38q50 0 85 30l-18 -86q-62 -64 -174 -64zM559 595h401l-70 621z" />
    <glyph glyph-name="aogonek" unicode="&#x105;" horiz-adv-x="1158" 
d="M190 348q0 182 66.5 338t190 251.5t276.5 95.5q88 0 149.5 -33t90.5 -85l91 95h127l-170 -789q-20 -88 50 -88q72 0 124 44l-19 -92h-1q-136 -108 -201 -191.5t-65 -157.5q0 -48 23.5 -74.5t61.5 -26.5q53 0 91 30l-19 -86q-25 -27 -72.5 -45.5t-104.5 -18.5
q-83 0 -134.5 45.5t-51.5 120.5q0 150 249 304q-18 -2 -27 -2q-83 0 -116.5 51t-14.5 144q0 3 4 20t5 19q-52 -117 -136.5 -178.5t-190.5 -61.5q-117 0 -196.5 97.5t-79.5 273.5zM434 366q-1 -241 142 -241q78 0 145.5 78t98.5 221l87 408q-10 36 -51.5 60.5t-100.5 24.5
q-76 0 -139 -51.5t-101.5 -133.5t-59.5 -177t-21 -189z" />
    <glyph glyph-name="Cacute" unicode="&#x106;" horiz-adv-x="1427" 
d="M1264 1855l223 -1v-9l-352 -279h-96zM528 613q0 -233 113 -377t299 -144q263 0 398 315h79l-69 -319q-65 -52 -184.5 -85.5t-253.5 -33.5q-191 0 -341 81t-236 237t-85 364q0 175 58 327t161 261.5t252 172.5t325 63q163 0 303.5 -47t214.5 -112l-56 -312l-77 5
q-7 168 -93 256t-249 88q-114 0 -216 -54.5t-178 -150.5t-120.5 -235t-44.5 -300z" />
    <glyph glyph-name="cacute" unicode="&#x107;" horiz-adv-x="941" 
d="M899 1544h273v-12l-413 -363h-114zM595 -23q-75 0 -144 27.5t-125 80t-90 138t-34 192.5q0 127 41.5 241t113.5 196.5t172.5 131t213.5 49.5q134 1 213 -65.5t79 -170.5q0 -56 -39 -94.5t-97 -38.5q-53 0 -89 36t-36 88q0 39 21.5 71t56.5 46q-36 17 -85 17
q-136 0 -228 -135.5t-92 -338.5q0 -149 71.5 -236t190.5 -87q138 0 239 91l-21 -95q-53 -69 -143 -106.5t-189 -37.5z" />
    <glyph glyph-name="Ccircumflex" unicode="&#x108;" horiz-adv-x="1427" 
d="M980 1566h-100l250 289h151l127 -289h-92l-134 148zM528 613q0 -233 113 -377t299 -144q263 0 398 315h79l-69 -319q-65 -52 -184.5 -85.5t-253.5 -33.5q-191 0 -341 81t-236 237t-85 364q0 175 58 327t161 261.5t252 172.5t325 63q163 0 303.5 -47t214.5 -112l-56 -312
l-77 5q-7 168 -93 256t-249 88q-114 0 -216 -54.5t-178 -150.5t-120.5 -235t-44.5 -300z" />
    <glyph glyph-name="ccircumflex" unicode="&#x109;" horiz-adv-x="941" 
d="M577 1169h-112l289 375h168l130 -375h-103l-141 200zM595 -23q-75 0 -144 27.5t-125 80t-90 138t-34 192.5q0 127 41.5 241t113.5 196.5t172.5 131t213.5 49.5q134 1 213 -65.5t79 -170.5q0 -56 -39 -94.5t-97 -38.5q-53 0 -89 36t-36 88q0 39 21.5 71t56.5 46
q-36 17 -85 17q-136 0 -228 -135.5t-92 -338.5q0 -149 71.5 -236t190.5 -87q138 0 239 91l-21 -95q-53 -69 -143 -106.5t-189 -37.5z" />
    <glyph glyph-name="Cdotaccent" unicode="&#x10a;" horiz-adv-x="1427" 
d="M1170 1597q-48 0 -79 31t-31 76q0 51 34.5 85.5t84.5 34.5q48 0 79 -31t31 -76q0 -51 -35 -85.5t-84 -34.5zM528 613q0 -233 113 -377t299 -144q263 0 398 315h79l-69 -319q-65 -52 -184.5 -85.5t-253.5 -33.5q-191 0 -341 81t-236 237t-85 364q0 175 58 327t161 261.5
t252 172.5t325 63q163 0 303.5 -47t214.5 -112l-56 -312l-77 5q-7 168 -93 256t-249 88q-114 0 -216 -54.5t-178 -150.5t-120.5 -235t-44.5 -300z" />
    <glyph glyph-name="cdotaccent" unicode="&#x10b;" horiz-adv-x="941" 
d="M794 1222q-56 0 -93 36t-37 91q0 58 41 99t99 41q56 0 93 -36t37 -90q0 -59 -40.5 -100t-99.5 -41zM595 -23q-75 0 -144 27.5t-125 80t-90 138t-34 192.5q0 127 41.5 241t113.5 196.5t172.5 131t213.5 49.5q134 1 213 -65.5t79 -170.5q0 -56 -39 -94.5t-97 -38.5
q-53 0 -89 36t-36 88q0 39 21.5 71t56.5 46q-36 17 -85 17q-136 0 -228 -135.5t-92 -338.5q0 -149 71.5 -236t190.5 -87q138 0 239 91l-21 -95q-53 -69 -143 -106.5t-189 -37.5z" />
    <glyph glyph-name="Ccaron" unicode="&#x10c;" horiz-adv-x="1427" 
d="M1379 1880h103l-251 -290h-158l-127 290h96l135 -148zM528 613q0 -233 113 -377t299 -144q263 0 398 315h79l-69 -319q-65 -52 -184.5 -85.5t-253.5 -33.5q-191 0 -341 81t-236 237t-85 364q0 175 58 327t161 261.5t252 172.5t325 63q163 0 303.5 -47t214.5 -112
l-56 -312l-77 5q-7 168 -93 256t-249 88q-114 0 -216 -54.5t-178 -150.5t-120.5 -235t-44.5 -300z" />
    <glyph glyph-name="ccaron" unicode="&#x10d;" horiz-adv-x="941" 
d="M1021 1544h111l-289 -375h-168l-129 375h102l141 -199zM595 -23q-75 0 -144 27.5t-125 80t-90 138t-34 192.5q0 127 41.5 241t113.5 196.5t172.5 131t213.5 49.5q134 1 213 -65.5t79 -170.5q0 -56 -39 -94.5t-97 -38.5q-53 0 -89 36t-36 88q0 39 21.5 71t56.5 46
q-36 17 -85 17q-136 0 -228 -135.5t-92 -338.5q0 -149 71.5 -236t190.5 -87q138 0 239 91l-21 -95q-53 -69 -143 -106.5t-189 -37.5z" />
    <glyph glyph-name="Dcaron" unicode="&#x10e;" horiz-adv-x="1528" 
d="M1178 1880h103l-251 -290h-158l-127 290h96l135 -148zM1585 826q0 -178 -73.5 -331.5t-203.5 -262t-314 -170.5t-398 -62h-539l18 88q61 6 94 12.5t55 21t30 32.5t16 53l220 1030q14 66 -10 87t-135 32l19 88h488q340 0 536 -167.5t197 -450.5zM1302 845
q0 211 -117 345.5t-341 147.5l-78 5l-263 -1242l104 5q204 9 361.5 102t245.5 258t88 379z" />
    <glyph glyph-name="dcaron" unicode="&#x10f;" horiz-adv-x="1162" 
d="M1429 1113h-87l134 431h203zM190 348q0 182 66.5 338t190 251.5t276.5 95.5q140 0 210 -77l67 315q7 35 -3 51.5t-47 23.5l-90 14l19 84l404 52l-270 -1275q-20 -88 48 -88q73 0 125 44l-20 -92q-36 -44 -108.5 -73t-141.5 -29q-84 0 -117.5 51t-14.5 144q0 3 4 20t5 19
q-52 -117 -136.5 -178.5t-190.5 -61.5q-117 0 -196.5 97.5t-79.5 273.5zM434 366q-1 -241 142 -241q78 0 145.5 78t98.5 221l87 408q-10 36 -51.5 60.5t-100.5 24.5q-76 0 -139 -51.5t-101.5 -133.5t-59.5 -177t-21 -189z" />
    <glyph glyph-name="dbar" unicode="&#x111;" horiz-adv-x="1162" 
d="M190 348q0 182 66.5 338t190 251.5t276.5 95.5q140 0 210 -77l52 244h-264l21 101h264l31 143l240 20l-35 -163h164l-22 -101h-163l-208 -979q-20 -88 48 -88q73 0 125 44l-20 -92q-36 -44 -108.5 -73t-141.5 -29q-84 0 -117.5 51t-14.5 144q0 3 4 20t5 19
q-52 -117 -136.5 -178.5t-190.5 -61.5q-117 0 -196.5 97.5t-79.5 273.5zM434 366q-1 -241 142 -241q78 0 145.5 78t98.5 221l87 408q-10 36 -51.5 60.5t-100.5 24.5q-76 0 -139 -51.5t-101.5 -133.5t-59.5 -177t-21 -189z" />
    <glyph glyph-name="Emacron" unicode="&#x112;" horiz-adv-x="1254" 
d="M695 1637l30 134h520l-28 -134h-522zM1428 1444l-68 -371h-78q-2 82 -14 130t-45.5 77t-83 40t-136.5 14l-237 9l-118 -553h243q50 0 80.5 36t82.5 164h74l-107 -503h-74q4 87 -2 129.5t-23 57t-53 14.5h-243l-123 -587l241 9q75 3 119.5 7t90 16.5t72.5 31t56.5 53
t52 80t50.5 115.5h78l-101 -413h-1105l18 88q61 6 94 12.5t55 21t30 32.5t16 53l220 1030q6 28 6 44t-5.5 30t-24 21.5t-46.5 13t-75 10.5l19 88h1064z" />
    <glyph glyph-name="emacron" unicode="&#x113;" horiz-adv-x="961" 
d="M472 1267l31 147h578l-31 -147h-578zM595 -23q-78 0 -147.5 27.5t-125 80t-88 138t-32.5 192.5q0 132 45.5 248.5t120.5 196.5t173.5 126.5t202.5 46.5q131 0 211.5 -60.5t80.5 -161.5q0 -128 -138 -220t-402 -168l-50 -14q10 -136 79 -210t179 -74q140 0 243 91l-20 -95
q-54 -69 -143.5 -106.5t-188.5 -37.5zM726 923q-108 0 -188 -116t-91 -303l42 13q344 103 344 284q0 122 -107 122z" />
    <glyph glyph-name="Ebreve" unicode="&#x114;" horiz-adv-x="1254" 
d="M983 1587q-109 0 -179.5 60t-72.5 155q0 42 17 89h86q-2 -7 -2 -30q0 -53 44 -89.5t113 -36.5q80 0 128.5 40.5t62.5 115.5h87q-5 -141 -80.5 -222.5t-203.5 -81.5zM1428 1444l-68 -371h-78q-2 82 -14 130t-45.5 77t-83 40t-136.5 14l-237 9l-118 -553h243q50 0 80.5 36
t82.5 164h74l-107 -503h-74q4 87 -2 129.5t-23 57t-53 14.5h-243l-123 -587l241 9q75 3 119.5 7t90 16.5t72.5 31t56.5 53t52 80t50.5 115.5h78l-101 -413h-1105l18 88q61 6 94 12.5t55 21t30 32.5t16 53l220 1030q6 28 6 44t-5.5 30t-24 21.5t-46.5 13t-75 10.5l19 88h1064
z" />
    <glyph glyph-name="ebreve" unicode="&#x115;" horiz-adv-x="961" 
d="M786 1178q-120 0 -197 71t-77 181q0 51 20 102h93q-4 -16 -4 -34q0 -62 49 -104t126 -42q89 0 143.5 47t69.5 133h92q-7 -165 -90.5 -259.5t-224.5 -94.5zM595 -23q-78 0 -147.5 27.5t-125 80t-88 138t-32.5 192.5q0 132 45.5 248.5t120.5 196.5t173.5 126.5t202.5 46.5
q131 0 211.5 -60.5t80.5 -161.5q0 -128 -138 -220t-402 -168l-50 -14q10 -136 79 -210t179 -74q140 0 243 91l-20 -95q-54 -69 -143.5 -106.5t-188.5 -37.5zM726 923q-108 0 -188 -116t-91 -303l42 13q344 103 344 284q0 122 -107 122z" />
    <glyph glyph-name="Edotaccent" unicode="&#x116;" horiz-adv-x="1254" 
d="M968 1597q-48 0 -79.5 31t-31.5 76q0 51 35 85.5t84 34.5q48 0 79.5 -31t31.5 -76q0 -50 -35 -85t-84 -35zM1428 1444l-68 -371h-78q-2 82 -14 130t-45.5 77t-83 40t-136.5 14l-237 9l-118 -553h243q50 0 80.5 36t82.5 164h74l-107 -503h-74q4 87 -2 129.5t-23 57
t-53 14.5h-243l-123 -587l241 9q75 3 119.5 7t90 16.5t72.5 31t56.5 53t52 80t50.5 115.5h78l-101 -413h-1105l18 88q61 6 94 12.5t55 21t30 32.5t16 53l220 1030q6 28 6 44t-5.5 30t-24 21.5t-46.5 13t-75 10.5l19 88h1064z" />
    <glyph glyph-name="edotaccent" unicode="&#x117;" horiz-adv-x="961" 
d="M775 1222q-56 0 -92.5 36t-36.5 91q0 58 41 99t99 41q56 0 92.5 -36t36.5 -90q0 -59 -40.5 -100t-99.5 -41zM595 -23q-78 0 -147.5 27.5t-125 80t-88 138t-32.5 192.5q0 132 45.5 248.5t120.5 196.5t173.5 126.5t202.5 46.5q131 0 211.5 -60.5t80.5 -161.5
q0 -128 -138 -220t-402 -168l-50 -14q10 -136 79 -210t179 -74q140 0 243 91l-20 -95q-54 -69 -143.5 -106.5t-188.5 -37.5zM726 923q-108 0 -188 -116t-91 -303l42 13q344 103 344 284q0 122 -107 122z" />
    <glyph glyph-name="Eogonek" unicode="&#x118;" horiz-adv-x="1254" 
d="M913 -485q-91 0 -149 49t-58 126q0 84 61.5 164t169.5 146h-880l18 88q61 6 94 12.5t55 21t30 32.5t16 53l220 1030q6 28 6 44t-5.5 30t-24 21.5t-46.5 13t-75 10.5l19 88h1064l-68 -371h-78q-1 82 -13 130t-46 77t-83.5 40t-136.5 14l-237 9l-118 -553h243q50 0 80.5 36
t82.5 164h74l-107 -503h-74q4 87 -2 129.5t-23 57t-53 14.5h-243l-123 -587l241 9q75 3 119.5 7t90 16.5t72.5 31t56.5 53t52 80t50.5 115.5h78l-101 -413h-132q-111 -107 -111 -228q0 -61 27.5 -99t73.5 -38q49 0 84 30l-17 -86q-62 -64 -174 -64z" />
    <glyph glyph-name="eogonek" unicode="&#x119;" horiz-adv-x="951" 
d="M191 415q0 132 46 248.5t122 196.5t175.5 126.5t205.5 46.5q129 0 207 -62.5t78 -159.5q0 -128 -138 -220t-402 -168l-49 -14q10 -136 81 -210t183 -74q142 0 243 91l-20 -95q-38 -41 -123 -102q-182 -131 -182 -280q0 -52 26 -78t66 -26q56 0 99 30l-18 -86
q-26 -27 -77 -45.5t-108 -18.5q-83 0 -138.5 46.5t-55.5 123.5q0 80 58.5 153t182.5 147q-35 -8 -69 -8q-77 0 -146.5 27.5t-125.5 80t-88.5 138t-32.5 192.5zM710 922q-105 0 -183.5 -116t-90.5 -302l43 13q161 48 252.5 120.5t91.5 167.5q0 54 -30 85.5t-83 31.5z" />
    <glyph glyph-name="Ecaron" unicode="&#x11a;" horiz-adv-x="1254" 
d="M1177 1880h102l-250 -290h-159l-127 290h96l135 -148zM1428 1444l-68 -371h-78q-2 82 -14 130t-45.5 77t-83 40t-136.5 14l-237 9l-118 -553h243q50 0 80.5 36t82.5 164h74l-107 -503h-74q4 87 -2 129.5t-23 57t-53 14.5h-243l-123 -587l241 9q75 3 119.5 7t90 16.5
t72.5 31t56.5 53t52 80t50.5 115.5h78l-101 -413h-1105l18 88q61 6 94 12.5t55 21t30 32.5t16 53l220 1030q6 28 6 44t-5.5 30t-24 21.5t-46.5 13t-75 10.5l19 88h1064z" />
    <glyph glyph-name="ecaron" unicode="&#x11b;" horiz-adv-x="961" 
d="M1002 1544h112l-289 -375h-168l-130 375h103l141 -199zM595 -23q-78 0 -147.5 27.5t-125 80t-88 138t-32.5 192.5q0 132 45.5 248.5t120.5 196.5t173.5 126.5t202.5 46.5q131 0 211.5 -60.5t80.5 -161.5q0 -128 -138 -220t-402 -168l-50 -14q10 -136 79 -210t179 -74
q140 0 243 91l-20 -95q-54 -69 -143.5 -106.5t-188.5 -37.5zM726 923q-108 0 -188 -116t-91 -303l42 13q344 103 344 284q0 122 -107 122z" />
    <glyph glyph-name="Gcircumflex" unicode="&#x11c;" horiz-adv-x="1570" 
d="M961 1566h-99l249 289h152l126 -289h-92l-134 148zM253 651q1 175 59 327t161 261.5t252 172.5t325 63q162 0 303 -47t215 -112l-56 -312l-78 5q-7 168 -93 256t-249 88q-113 0 -215.5 -54.5t-178.5 -150.5t-120.5 -235.5t-44.5 -299.5q0 -233 115.5 -376.5t304.5 -143.5
q62 0 122 14.5t96 39.5l72 343q6 29 6 44.5t-6 29t-26.5 20.5t-49.5 12t-82 10l18 87h563l-18 -87q-54 -5 -83 -11t-48 -20.5t-26.5 -32.5t-15.5 -54l-84 -390q-68 -53 -200.5 -91t-266.5 -38q-296 1 -484 185.5t-187 496.5z" />
    <glyph glyph-name="gcircumflex" unicode="&#x11d;" horiz-adv-x="1059" 
d="M533 1169h-112l290 375h167l130 -375h-103l-140 200zM493 -454q-128 0 -229.5 28.5t-162.5 87t-61 138.5q0 78 79 138t212 86q-108 50 -110 153q-3 136 210 195q-91 39 -140 113.5t-49 167.5q0 159 113.5 268t307.5 110q140 0 238 -56l346 13l-24 -122l-228 25
q54 -77 54 -176q0 -159 -114 -269.5t-308 -110.5q-68 0 -121 13q-45 -15 -71.5 -39t-25.5 -52q1 -27 24 -45t87 -31l195 -38q287 -54 287 -270q0 -97 -72.5 -173t-187.5 -115t-249 -39zM474 627q0 -85 38.5 -141t111.5 -56q61 0 106.5 47t66.5 115.5t21 145.5q0 86 -39 142
t-111 56q-62 0 -107.5 -48t-66 -116.5t-20.5 -144.5zM231 -175q0 -77 75.5 -124t202.5 -47q118 0 201 45t83 121q0 110 -178 141l-186 34q-5 1 -13 3q-185 -62 -185 -173z" />
    <glyph glyph-name="Gbreve" unicode="&#x11e;" horiz-adv-x="1570" 
d="M1167 1587q-109 0 -180 60.5t-72 154.5q0 42 17 89h86q-2 -7 -2 -30q0 -53 44 -89.5t113 -36.5q80 0 128.5 40.5t62.5 115.5h87q-5 -141 -80.5 -222.5t-203.5 -81.5zM253 651q1 175 59 327t161 261.5t252 172.5t325 63q162 0 303 -47t215 -112l-56 -312l-78 5
q-7 168 -93 256t-249 88q-113 0 -215.5 -54.5t-178.5 -150.5t-120.5 -235.5t-44.5 -299.5q0 -233 115.5 -376.5t304.5 -143.5q62 0 122 14.5t96 39.5l72 343q6 29 6 44.5t-6 29t-26.5 20.5t-49.5 12t-82 10l18 87h563l-18 -87q-54 -5 -83 -11t-48 -20.5t-26.5 -32.5
t-15.5 -54l-84 -390q-68 -53 -200.5 -91t-266.5 -38q-296 1 -484 185.5t-187 496.5z" />
    <glyph glyph-name="gbreve" unicode="&#x11f;" horiz-adv-x="1059" 
d="M760 1178q-120 0 -196.5 71t-76.5 181q0 55 20 102h92q-4 -16 -4 -34q0 -62 49 -104t126 -42q89 0 143.5 47t69.5 133h93q-8 -165 -91.5 -259.5t-224.5 -94.5zM493 -454q-128 0 -229.5 28.5t-162.5 87t-61 138.5q0 78 79 138t212 86q-108 50 -110 153q-3 136 210 195
q-91 39 -140 113.5t-49 167.5q0 159 113.5 268t307.5 110q140 0 238 -56l346 13l-24 -122l-228 25q54 -77 54 -176q0 -159 -114 -269.5t-308 -110.5q-68 0 -121 13q-45 -15 -71.5 -39t-25.5 -52q1 -27 24 -45t87 -31l195 -38q287 -54 287 -270q0 -97 -72.5 -173t-187.5 -115
t-249 -39zM474 627q0 -85 38.5 -141t111.5 -56q61 0 106.5 47t66.5 115.5t21 145.5q0 86 -39 142t-111 56q-62 0 -107.5 -48t-66 -116.5t-20.5 -144.5zM231 -175q0 -77 75.5 -124t202.5 -47q118 0 201 45t83 121q0 110 -178 141l-186 34q-5 1 -13 3q-185 -62 -185 -173z" />
    <glyph glyph-name="Gdotaccent" unicode="&#x120;" horiz-adv-x="1570" 
d="M1152 1597q-48 0 -79.5 31t-31.5 76q0 51 35 85.5t84 34.5q48 0 79.5 -31t31.5 -76q0 -50 -35 -85t-84 -35zM253 651q1 175 59 327t161 261.5t252 172.5t325 63q162 0 303 -47t215 -112l-56 -312l-78 5q-7 168 -93 256t-249 88q-113 0 -215.5 -54.5t-178.5 -150.5
t-120.5 -235.5t-44.5 -299.5q0 -233 115.5 -376.5t304.5 -143.5q62 0 122 14.5t96 39.5l72 343q6 29 6 44.5t-6 29t-26.5 20.5t-49.5 12t-82 10l18 87h563l-18 -87q-54 -5 -83 -11t-48 -20.5t-26.5 -32.5t-15.5 -54l-84 -390q-68 -53 -200.5 -91t-266.5 -38
q-296 1 -484 185.5t-187 496.5z" />
    <glyph glyph-name="gdotaccent" unicode="&#x121;" horiz-adv-x="1059" 
d="M749 1222q-56 0 -92.5 36t-36.5 91q0 58 41 99t99 41q56 0 92.5 -36t36.5 -90q0 -59 -40.5 -100t-99.5 -41zM493 -454q-128 0 -229.5 28.5t-162.5 87t-61 138.5q0 78 79 138t212 86q-108 50 -110 153q-3 136 210 195q-91 39 -140 113.5t-49 167.5q0 159 113.5 268
t307.5 110q140 0 238 -56l346 13l-24 -122l-228 25q54 -77 54 -176q0 -159 -114 -269.5t-308 -110.5q-68 0 -121 13q-45 -15 -71.5 -39t-25.5 -52q1 -27 24 -45t87 -31l195 -38q287 -54 287 -270q0 -97 -72.5 -173t-187.5 -115t-249 -39zM474 627q0 -85 38.5 -141t111.5 -56
q61 0 106.5 47t66.5 115.5t21 145.5q0 86 -39 142t-111 56q-62 0 -107.5 -48t-66 -116.5t-20.5 -144.5zM231 -175q0 -77 75.5 -124t202.5 -47q118 0 201 45t83 121q0 110 -178 141l-186 34q-5 1 -13 3q-185 -62 -185 -173z" />
    <glyph glyph-name="Gcommaaccent" unicode="&#x122;" horiz-adv-x="1570" 
d="M253 651q1 175 59 327t161 261.5t252 172.5t325 63q162 0 303 -47t215 -112l-56 -312l-78 5q-7 168 -93 256t-249 88q-113 0 -215.5 -54.5t-178.5 -150.5t-120.5 -235.5t-44.5 -299.5q0 -233 115.5 -376.5t304.5 -143.5q62 0 122 14.5t96 39.5l72 343q6 29 6 44.5t-6 29
t-26.5 20.5t-49.5 12t-82 10l18 87h563l-18 -87q-54 -5 -83 -11t-48 -20.5t-26.5 -32.5t-15.5 -54l-84 -390q-68 -53 -200.5 -91t-266.5 -38q-296 1 -484 185.5t-187 496.5zM796 -491q-102 0 -173 47l18 79q60 -32 121 -32q53 0 84.5 21t31.5 58q0 33 -27.5 54.5t-71.5 21.5
q-46 0 -75 -11l17 76q65 54 155 54q77 0 128 -49t51 -129q0 -90 -69.5 -140t-189.5 -50z" />
    <glyph glyph-name="gcommaaccent" unicode="&#x123;" horiz-adv-x="1059" 
d="M803 1541q108 0 177 -44l-18 -79q-71 33 -138 33q-58 0 -91.5 -22.5t-33.5 -60.5q0 -34 26 -55t70 -21q46 0 81 11l-17 -75q-64 -55 -162 -55q-81 0 -128.5 49.5t-47.5 121.5q0 91 73 144t209 53zM493 -454q-128 0 -229.5 28.5t-162.5 87t-61 138.5q0 78 79 138t212 86
q-108 50 -110 153q-3 136 210 195q-91 39 -140 113.5t-49 167.5q0 159 113.5 268t307.5 110q140 0 238 -56l346 13l-24 -122l-228 25q54 -77 54 -176q0 -159 -114 -269.5t-308 -110.5q-68 0 -121 13q-45 -15 -71.5 -39t-25.5 -52q1 -27 24 -45t87 -31l195 -38
q287 -54 287 -270q0 -97 -72.5 -173t-187.5 -115t-249 -39zM474 627q0 -85 38.5 -141t111.5 -56q61 0 106.5 47t66.5 115.5t21 145.5q0 86 -39 142t-111 56q-62 0 -107.5 -48t-66 -116.5t-20.5 -144.5zM231 -175q0 -77 75.5 -124t202.5 -47q118 0 201 45t83 121
q0 110 -178 141l-186 34q-5 1 -13 3q-185 -62 -185 -173z" />
    <glyph glyph-name="Hcircumflex" unicode="&#x124;" horiz-adv-x="1604" 
d="M972 1566h-99l249 289h152l126 -289h-92l-134 148zM525 207q-14 -65 10.5 -87t126.5 -32l-18 -88h-590l19 88q80 8 118 20.5t54 34t26 67.5l218 1024q12 42 3.5 66.5t-40.5 36t-108 19.5l17 88h590l-18 -88q-75 -7 -111 -19t-52 -33.5t-26 -66.5l-95 -445h642l95 445
q14 66 -9.5 87.5t-128.5 31.5l19 88h589l-18 -88q-80 -8 -117.5 -20t-54 -34t-26.5 -68l-219 -1024q-13 -42 -3.5 -67t41.5 -36t108 -19l-18 -88h-589l18 88q77 7 112.5 18.5t51 33t25.5 67.5l101 476h-642z" />
    <glyph glyph-name="hcircumflex" unicode="&#x125;" horiz-adv-x="1215" 
d="M471 1566h-99l249 289h152l126 -289h-92l-134 148zM744 1496l-167 -725q128 262 353 262q150 0 212 -96t26 -263l-97 -453q-20 -88 49 -88q73 0 125 44l-19 -92q-37 -44 -110 -73t-143 -29q-187 0 -140 228l98 468q21 99 -9 153.5t-100 54.5q-84 0 -164.5 -86.5
t-107.5 -216.5l-123 -584h-236l270 1271q8 35 -2.5 51.5t-47.5 23.5l-90 14l19 84z" />
    <glyph glyph-name="Hbar" unicode="&#x126;" horiz-adv-x="1604" 
d="M525 207q-14 -66 8.5 -87.5t124.5 -31.5l-18 -88h-583l18 88q62 6 95 12.5t54.5 21t30 32.5t15.5 53l176 824h-169l21 102h169l22 104q6 28 6 44t-5.5 30t-23.5 21.5t-46 13t-75 10.5l19 88h583l-19 -88q-107 -10 -138.5 -31.5t-45.5 -87.5l-22 -104h642l22 104
q6 29 6.5 45t-4.5 30t-22.5 21.5t-43.5 13t-70 9.5l19 88h583l-19 -88q-114 -11 -147.5 -32t-47.5 -87l-22 -104h170l-21 -102h-171l-175 -824q-6 -28 -6 -44.5t5.5 -30t24.5 -21.5t46 -13t74 -10l-18 -88h-583l18 88q77 7 111.5 19t49 32.5t24.5 67.5l101 476h-642z
M649 792h642l51 239h-642z" />
    <glyph glyph-name="hbar" unicode="&#x127;" horiz-adv-x="1215" 
d="M941 1200h-265l-99 -429q128 262 353 262q150 0 212 -96t26 -263l-97 -453q-20 -88 49 -88q73 0 125 44l-19 -92q-37 -44 -110 -73t-143 -29q-187 0 -140 228l98 468q21 99 -9 153.5t-100 54.5q-84 0 -164.5 -86.5t-107.5 -216.5l-123 -584h-236l255 1200h-163l21 101
h163l31 143l239 20l-38 -163h263z" />
    <glyph glyph-name="Itilde" unicode="&#x128;" horiz-adv-x="707" 
d="M814 1603q-64 0 -122 49l-26 24q-35 33 -64 33q-25 0 -40.5 -24.5t-24.5 -91.5h-85q26 249 166 249q65 0 122 -49l27 -23q33 -34 63 -34q25 0 41 24.5t25 91.5h85q-15 -135 -57 -192t-110 -57zM525 207q-6 -28 -6 -44t5.5 -30t23.5 -21.5t46 -13t75 -10.5l-19 -88h-593
l18 88q62 6 95 12.5t54.5 21t30 32.5t15.5 53l219 1030q5 32 6.5 52.5t-15 34t-46.5 20.5t-89 12l19 88h593l-18 -88q-62 -6 -95 -12.5t-54.5 -21t-30 -32.5t-15.5 -53z" />
    <glyph glyph-name="itilde" unicode="&#x129;" horiz-adv-x="601" 
d="M650 1209q-68 0 -130 62l-28 31q-41 41 -71 41q-27 0 -45 -31t-31 -114h-87q37 305 185 305q69 0 131 -62l29 -31q38 -41 70 -41q28 0 46 31t30 114h88q-21 -165 -68 -235t-119 -70zM622 1023l-171 -802q-18 -88 50 -88q70 0 124 44l-19 -92q-37 -44 -110 -73t-143 -29
q-189 0 -140 228l125 587q8 36 -2 52t-48 23l-90 14l19 84z" />
    <glyph glyph-name="Imacron" unicode="&#x12a;" horiz-adv-x="707" 
d="M437 1637l29 134h521l-29 -134h-521zM525 207q-6 -28 -6 -44t5.5 -30t23.5 -21.5t46 -13t75 -10.5l-19 -88h-593l18 88q62 6 95 12.5t54.5 21t30 32.5t15.5 53l219 1030q5 32 6.5 52.5t-15 34t-46.5 20.5t-89 12l19 88h593l-18 -88q-62 -6 -95 -12.5t-54.5 -21t-30 -32.5
t-15.5 -53z" />
    <glyph glyph-name="imacron" unicode="&#x12b;" horiz-adv-x="601" 
d="M296 1267l31 147h463l-31 -147h-463zM622 1023l-171 -802q-18 -88 50 -88q70 0 124 44l-19 -92q-37 -44 -110 -73t-143 -29q-189 0 -140 228l125 587q8 36 -2 52t-48 23l-90 14l19 84z" />
    <glyph glyph-name="Ibreve" unicode="&#x12c;" horiz-adv-x="707" 
d="M725 1587q-110 0 -180.5 60.5t-71.5 154.5q0 47 17 89h86q-3 -11 -3 -30q0 -53 44.5 -89.5t113.5 -36.5q80 0 128.5 40.5t62.5 115.5h86q-5 -141 -80 -222.5t-203 -81.5zM525 207q-6 -28 -6 -44t5.5 -30t23.5 -21.5t46 -13t75 -10.5l-19 -88h-593l18 88q62 6 95 12.5
t54.5 21t30 32.5t15.5 53l219 1030q5 32 6.5 52.5t-15 34t-46.5 20.5t-89 12l19 88h593l-18 -88q-62 -6 -95 -12.5t-54.5 -21t-30 -32.5t-15.5 -53z" />
    <glyph glyph-name="ibreve" unicode="&#x12d;" horiz-adv-x="601" 
d="M546 1178q-107 0 -174.5 71t-65.5 181q0 51 20 102h83q-4 -16 -4 -34q-2 -62 41.5 -104t112.5 -42q81 0 130.5 46.5t65.5 133.5h83q-10 -165 -87.5 -259.5t-204.5 -94.5zM622 1023l-171 -802q-18 -88 50 -88q70 0 124 44l-19 -92q-37 -44 -110 -73t-143 -29
q-189 0 -140 228l125 587q8 36 -2 52t-48 23l-90 14l19 84z" />
    <glyph glyph-name="Iogonek" unicode="&#x12e;" horiz-adv-x="707" 
d="M525 207q-6 -28 -6 -44t5.5 -30t23.5 -21.5t46 -13t75 -10.5l-19 -88h-237q-111 -107 -111 -228q0 -61 27.5 -99t72.5 -38q48 0 85 30l-18 -86q-62 -64 -173 -64q-91 0 -149 49t-58 126q0 84 61.5 164t169.5 146h-263l18 88q62 6 95 12.5t54.5 21t30 32.5t15.5 53
l219 1030q5 32 6.5 52.5t-15 34t-46.5 20.5t-89 12l19 88h593l-18 -88q-62 -6 -95 -12.5t-54.5 -21t-30 -32.5t-15.5 -53z" />
    <glyph glyph-name="iogonek" unicode="&#x12f;" horiz-adv-x="597" 
d="M539 1217q-57 0 -94.5 37.5t-37.5 92.5q0 60 42.5 101t104.5 41q56 0 94 -37.5t38 -91.5q0 -60 -43 -101.5t-104 -41.5zM319 -485q-83 0 -134.5 45.5t-51.5 120.5q0 151 249 304q-20 -2 -29 -2q-189 0 -140 228l125 587q8 36 -2 52t-48 23l-90 14l19 84l405 52l-171 -802
q-18 -88 50 -88q70 0 124 44l-19 -92q-137 -108 -202.5 -191.5t-65.5 -157.5q0 -48 23.5 -74.5t61.5 -26.5q55 0 91 30l-18 -86q-26 -27 -73 -45.5t-104 -18.5z" />
    <glyph glyph-name="Idotaccent" unicode="&#x130;" horiz-adv-x="707" 
d="M709 1597q-48 0 -79.5 31t-31.5 76q0 51 35 85.5t85 34.5q48 0 79 -31t31 -76q0 -51 -35 -85.5t-84 -34.5zM525 207q-6 -28 -6 -44t5.5 -30t23.5 -21.5t46 -13t75 -10.5l-19 -88h-593l18 88q62 6 95 12.5t54.5 21t30 32.5t15.5 53l219 1030q5 32 6.5 52.5t-15 34
t-46.5 20.5t-89 12l19 88h593l-18 -88q-62 -6 -95 -12.5t-54.5 -21t-30 -32.5t-15.5 -53z" />
    <glyph glyph-name="dotlessi" unicode="&#x131;" horiz-adv-x="601" 
d="M622 1023l-171 -802q-18 -88 50 -88q70 0 124 44l-19 -92q-37 -44 -110 -73t-143 -29q-189 0 -140 228l125 587q8 36 -2 52t-48 23l-90 14l19 84z" />
    <glyph glyph-name="IJ" unicode="&#x132;" horiz-adv-x="1415" 
d="M1243 260q-20 -93 -49 -167.5t-72 -135t-91 -106.5t-118.5 -90t-140.5 -78t-171 -77l-24 74q95 57 156 107t113.5 120t87 160.5t61.5 219.5l203 951q14 66 -10 86.5t-135 32.5l18 88h593l-19 -88q-81 -8 -117.5 -20t-51.5 -32.5t-25 -66.5zM525 207q-6 -28 -6 -44
t5.5 -30t23.5 -21.5t46 -13t75 -10.5l-19 -88h-593l18 88q62 6 95 12.5t54.5 21t30 32.5t15.5 53l219 1030q5 32 6.5 52.5t-15 34t-46.5 20.5t-89 12l19 88h593l-18 -88q-62 -6 -95 -12.5t-54.5 -21t-30 -32.5t-15.5 -53z" />
    <glyph glyph-name="ij" unicode="&#x133;" horiz-adv-x="1192" 
d="M542 1215q-59 0 -97.5 38t-38.5 95q0 62 43 105t104 43q59 0 97.5 -38t38.5 -95q0 -61 -43 -104.5t-104 -43.5zM1162 1215q-59 0 -97.5 38t-38.5 95q0 62 43.5 105t103.5 43q59 0 97.5 -38t38.5 -95q0 -62 -43 -105t-104 -43zM622 1023l-171 -802q-18 -88 50 -88
q70 0 124 44l-19 -92q-37 -44 -110 -73t-143 -29q-189 0 -140 228l125 587q8 36 -2 52t-48 23l-90 14l19 84zM1244 1023l-206 -963q-25 -114 -59 -193t-91.5 -146.5t-143 -115.5t-210.5 -86l-28 79q49 21 87 46.5t67 59.5t50 70t39.5 88t31.5 102.5t28 123.5l151 710
q8 36 -2.5 52t-47.5 23l-90 14l19 84z" />
    <glyph glyph-name="Jcircumflex" unicode="&#x134;" horiz-adv-x="707" 
d="M514 1566h-100l250 289h151l127 -289h-92l-134 148zM535 260q-20 -93 -49 -167.5t-72 -135t-90.5 -106.5t-118.5 -90t-140.5 -78t-170.5 -77l-25 74q95 57 156 107t113.5 120t87 160.5t62.5 219.5l202 951q14 66 -10 86.5t-135 32.5l19 88h593l-19 -88q-81 -8 -117.5 -20
t-51.5 -32.5t-25 -66.5z" />
    <glyph glyph-name="jcircumflex" unicode="&#x135;" horiz-adv-x="591" 
d="M345 1169h-112l290 375h168l129 -375h-102l-141 200zM643 1023l-206 -963q-24 -113 -58 -193t-92 -147t-143.5 -115t-210.5 -86l-28 79q49 21 87 46.5t67 59.5t50 70t39.5 88t31.5 102.5t28 123.5l151 710q8 36 -2.5 52t-47.5 23l-90 14l19 84z" />
    <glyph glyph-name="Kcommaaccent" unicode="&#x136;" horiz-adv-x="1377" 
d="M525 207q-14 -66 8 -87.5t122 -31.5l-18 -88h-580l18 88q62 6 95 12.5t54.5 21t30 32.5t15.5 53l219 1030q6 28 6 44t-5.5 30t-23.5 21.5t-46 13t-75 10.5l19 88h580l-18 -88q-73 -7 -107.5 -19t-49.5 -33t-25 -67l-94 -440h148l386 382q95 95 87 131t-122 46l18 88h500
l-19 -88q-94 -16 -157.5 -58.5t-214.5 -179.5l-280 -259l201 -493q62 -152 104.5 -209.5t98.5 -74.5l-18 -82h-327l-276 693h-151zM740 -491q-102 0 -173 47l17 79q62 -32 122 -32q52 0 83.5 21t31.5 58q0 33 -27 54.5t-71 21.5q-46 0 -75 -11l17 76q65 54 155 54
q77 0 128 -49t51 -129q0 -90 -69.5 -140t-189.5 -50z" />
    <glyph glyph-name="kcommaaccent" unicode="&#x137;" horiz-adv-x="1100" 
d="M949 -17q-84 0 -140.5 65.5t-105.5 214.5l-76 232l-115 -90l-86 -405h-235l270 1271q8 35 -2.5 51.5t-47.5 23.5l-90 14l19 84l404 52l-207 -976l319 272q62 53 77.5 82t-7 42.5t-89.5 19.5l15 74h445l-15 -74q-74 -14 -141.5 -51.5t-192.5 -137.5l-137 -108l106 -305
q40 -117 75 -159.5t80 -42.5q53 0 92 39l-19 -91q-70 -97 -196 -97zM521 -491q-103 0 -173 47l17 79q60 -32 122 -32q52 0 83.5 21t31.5 58q0 33 -27.5 54.5t-70.5 21.5q-47 0 -75 -11l17 76q63 54 155 54q76 0 127 -49.5t51 -128.5q0 -90 -69 -140t-189 -50z" />
    <glyph glyph-name="Lacute" unicode="&#x139;" horiz-adv-x="1164" 
d="M810 1855l223 -1v-9l-352 -279h-95zM1106 0h-1049l18 88q81 8 118 20t52 32.5t25 66.5l219 1030q6 29 6 45t-5.5 30t-24 21t-46 12.5t-74.5 10.5l19 88h605l-18 -87q-66 -7 -101.5 -13.5t-58.5 -21t-31.5 -32t-15.5 -52.5l-241 -1137l209 8q57 2 96 7t79 18.5t69 36
t60 60.5t59.5 90.5t60.5 127.5h78z" />
    <glyph glyph-name="lacute" unicode="&#x13a;" horiz-adv-x="601" 
d="M742 1855l223 -1v-9l-352 -279h-95zM723 1496l-272 -1275q-18 -88 50 -88q70 0 124 44l-19 -92q-37 -44 -110 -73t-143 -29q-189 0 -140 228l226 1060q8 35 -2.5 51.5t-47.5 23.5l-90 14l18 84z" />
    <glyph glyph-name="Lcommaaccent" unicode="&#x13b;" horiz-adv-x="1164" 
d="M1106 0h-1049l18 88q81 8 118 20t52 32.5t25 66.5l219 1030q6 29 6 45t-5.5 30t-24 21t-46 12.5t-74.5 10.5l19 88h605l-18 -87q-66 -7 -101.5 -13.5t-58.5 -21t-31.5 -32t-15.5 -52.5l-241 -1137l209 8q57 2 96 7t79 18.5t69 36t60 60.5t59.5 90.5t60.5 127.5h78z
M504 -491q-103 0 -173 47l17 79q62 -32 122 -32q52 0 83.5 21t31.5 58q0 33 -27.5 54.5t-70.5 21.5q-47 0 -75 -11l17 76q65 54 155 54q77 0 128 -49t51 -129q0 -90 -69.5 -140t-189.5 -50z" />
    <glyph glyph-name="lcommaaccent" unicode="&#x13c;" horiz-adv-x="601" 
d="M723 1496l-272 -1275q-18 -88 50 -88q70 0 124 44l-19 -92q-37 -44 -110 -73t-143 -29q-189 0 -140 228l226 1060q8 35 -2.5 51.5t-47.5 23.5l-90 14l18 84zM272 -491q-103 0 -174 47l18 79q60 -32 122 -32q52 0 83.5 21t31.5 58q0 33 -27.5 54.5t-71.5 21.5
q-46 0 -75 -11l17 76q65 54 156 54q76 0 127 -49.5t51 -128.5q0 -90 -69 -140t-189 -50z" />
    <glyph glyph-name="Lcaron" unicode="&#x13d;" horiz-adv-x="1164" 
d="M1170 1113h-87l135 431h203zM1106 0h-1049l18 88q81 8 118 20t52 32.5t25 66.5l219 1030q6 29 6 45t-5.5 30t-24 21t-46 12.5t-74.5 10.5l19 88h605l-18 -87q-66 -7 -101.5 -13.5t-58.5 -21t-31.5 -32t-15.5 -52.5l-241 -1137l209 8q57 2 96 7t79 18.5t69 36t60 60.5
t59.5 90.5t60.5 127.5h78z" />
    <glyph glyph-name="lcaron" unicode="&#x13e;" horiz-adv-x="601" 
d="M847 1113h-87l135 431h202zM723 1496l-272 -1275q-18 -88 50 -88q70 0 124 44l-19 -92q-37 -44 -110 -73t-143 -29q-189 0 -140 228l226 1060q8 35 -2.5 51.5t-47.5 23.5l-90 14l18 84z" />
    <glyph glyph-name="Ldot" unicode="&#x13f;" horiz-adv-x="1164" 
d="M1106 0h-1049l18 88q81 8 118 20t52 32.5t25 66.5l219 1030q6 29 6 45t-5.5 30t-24 21t-46 12.5t-74.5 10.5l19 88h605l-18 -87q-66 -7 -101.5 -13.5t-58.5 -21t-31.5 -32t-15.5 -52.5l-241 -1137l209 8q57 2 96 7t79 18.5t69 36t60 60.5t59.5 90.5t60.5 127.5h78z
M1118 716q-56 0 -92.5 36t-36.5 90q0 59 41 100t99 41q56 0 92.5 -36.5t36.5 -90.5q0 -58 -41 -99t-99 -41z" />
    <glyph glyph-name="ldot" unicode="&#x140;" horiz-adv-x="757" 
d="M723 1496l-272 -1275q-18 -88 50 -88q70 0 124 44l-19 -92q-37 -44 -110 -73t-143 -29q-189 0 -140 228l226 1060q8 35 -2.5 51.5t-47.5 23.5l-90 14l18 84zM828 595q-54 0 -89 34.5t-35 85.5q0 56 39 95t95 39q53 0 88 -34.5t35 -86.5q0 -55 -39 -94t-94 -39z" />
    <glyph glyph-name="Lslash" unicode="&#x141;" horiz-adv-x="1164" 
d="M181 593l26 110l180 51l102 483q6 29 6 45t-5.5 30t-24 21t-46 12.5t-74.5 10.5l19 88h605l-18 -87q-66 -7 -101.5 -13.5t-58.5 -21t-31.5 -32t-15.5 -52.5l-86 -407l382 108l-26 -109l-380 -108l-131 -621l209 8q57 2 96 7t79 18.5t69 36t60 60.5t59.5 90.5t60.5 127.5
h78l-108 -449h-1049l18 88q81 8 118 20t52 32.5t25 66.5l93 438z" />
    <glyph glyph-name="lslash" unicode="&#x142;" horiz-adv-x="601" 
d="M148 661l25 110l172 58l94 442q8 35 -2.5 51.5t-47.5 23.5l-90 14l18 84l406 52l-124 -581l182 62l-25 -110l-180 -61l-125 -585q-18 -88 50 -88q70 0 124 44l-19 -92q-37 -44 -110 -73t-143 -29q-189 0 -140 228l109 509z" />
    <glyph glyph-name="Nacute" unicode="&#x143;" horiz-adv-x="1530" 
d="M1174 1855l223 -1v-9l-352 -279h-95zM744 1444l526 -1175l187 953q6 27 7.5 42.5t-2 31t-12 23.5t-27 15.5t-43 12t-64.5 9.5l19 88h455l-19 -88q-100 -13 -131.5 -36.5t-48.5 -97.5l-269 -1222h-226l-526 1174l-188 -951q-5 -37 -7.5 -59.5t14.5 -37.5t46.5 -23
t88.5 -15l-19 -88h-456l19 88q101 13 132.5 37t47.5 97l218 988q14 51 8.5 81.5t-35 44t-101.5 20.5l18 88h388z" />
    <glyph glyph-name="nacute" unicode="&#x144;" horiz-adv-x="1215" 
d="M975 1544h272v-12l-413 -363h-113zM632 1023l-55 -252q128 262 353 262q150 0 212 -96t26 -263l-97 -453q-20 -88 49 -88q73 0 125 44l-19 -92q-37 -44 -110 -73t-143 -29q-187 0 -140 228l98 468q21 99 -9 153.5t-100 54.5q-86 0 -166.5 -92t-110.5 -228l-119 -567h-235
l170 798q7 36 -3 52t-47 23l-90 14l18 84z" />
    <glyph glyph-name="Ncommaaccent" unicode="&#x145;" horiz-adv-x="1530" 
d="M744 1444l526 -1175l187 953q6 27 7.5 42.5t-2 31t-12 23.5t-27 15.5t-43 12t-64.5 9.5l19 88h455l-19 -88q-100 -13 -131.5 -36.5t-48.5 -97.5l-269 -1222h-226l-526 1174l-188 -951q-5 -37 -7.5 -59.5t14.5 -37.5t46.5 -23t88.5 -15l-19 -88h-456l19 88
q101 13 132.5 37t47.5 97l218 988q14 51 8.5 81.5t-35 44t-101.5 20.5l18 88h388zM665 -491q-103 0 -174 47l18 79q60 -32 122 -32q52 0 83.5 21t31.5 58q0 33 -27.5 54.5t-70.5 21.5q-48 0 -75 -11l17 76q63 54 155 54q76 0 127 -49.5t51 -128.5q0 -90 -69 -140t-189 -50z
" />
    <glyph glyph-name="ncommaaccent" unicode="&#x146;" horiz-adv-x="1215" 
d="M632 1023l-55 -252q128 262 353 262q150 0 212 -96t26 -263l-97 -453q-20 -88 49 -88q73 0 125 44l-19 -92q-37 -44 -110 -73t-143 -29q-187 0 -140 228l98 468q21 99 -9 153.5t-100 54.5q-86 0 -166.5 -92t-110.5 -228l-119 -567h-235l170 798q7 36 -3 52t-47 23l-90 14
l18 84zM552 -491q-103 0 -174 47l18 79q60 -32 121 -32q53 0 84.5 21t31.5 58q0 33 -27.5 54.5t-71.5 21.5q-46 0 -75 -11l17 76q65 54 155 54q77 0 128 -49t51 -129q0 -90 -69 -140t-189 -50z" />
    <glyph glyph-name="Ncaron" unicode="&#x147;" horiz-adv-x="1530" 
d="M1289 1880h103l-251 -290h-158l-127 290h96l135 -148zM744 1444l526 -1175l187 953q6 27 7.5 42.5t-2 31t-12 23.5t-27 15.5t-43 12t-64.5 9.5l19 88h455l-19 -88q-100 -13 -131.5 -36.5t-48.5 -97.5l-269 -1222h-226l-526 1174l-188 -951q-5 -37 -7.5 -59.5t14.5 -37.5
t46.5 -23t88.5 -15l-19 -88h-456l19 88q101 13 132.5 37t47.5 97l218 988q14 51 8.5 81.5t-35 44t-101.5 20.5l18 88h388z" />
    <glyph glyph-name="ncaron" unicode="&#x148;" horiz-adv-x="1215" 
d="M1096 1544h112l-289 -375h-168l-130 375h103l141 -199zM632 1023l-55 -252q128 262 353 262q150 0 212 -96t26 -263l-97 -453q-20 -88 49 -88q73 0 125 44l-19 -92q-37 -44 -110 -73t-143 -29q-187 0 -140 228l98 468q21 99 -9 153.5t-100 54.5q-86 0 -166.5 -92
t-110.5 -228l-119 -567h-235l170 798q7 36 -3 52t-47 23l-90 14l18 84z" />
    <glyph glyph-name="Omacron" unicode="&#x14c;" horiz-adv-x="1594" 
d="M826 1637l29 134h521l-29 -134h-521zM893 -26q-152 0 -275.5 53t-204 144.5t-124.5 212.5t-44 258q0 159 54 307.5t150 264.5t242 186t317 70q151 0 275 -53t205 -144.5t124.5 -212.5t43.5 -258q0 -159 -54 -307.5t-150 -264.5t-242 -186t-317 -70zM877 97q146 0 263 110
t179 284t62 371q0 236 -96.5 360.5t-260.5 124.5q-112 0 -208 -64.5t-160 -171.5t-100 -244.5t-36 -284.5q0 -236 96.5 -360.5t260.5 -124.5z" />
    <glyph glyph-name="omacron" unicode="&#x14d;" horiz-adv-x="1144" 
d="M499 1267l31 147h579l-31 -147h-579zM613 -23q-194 0 -301.5 124.5t-107.5 321.5q0 161 66 299.5t191.5 224.5t284.5 86q194 0 301.5 -124t107.5 -321q0 -161 -66 -300t-191.5 -225t-284.5 -86zM620 91q72 0 129.5 52.5t91.5 137t52 180.5t18 191q0 130 -46 198.5
t-126 68.5q-72 0 -130 -52.5t-92 -136.5t-52 -180t-18 -192q0 -130 46.5 -198.5t126.5 -68.5z" />
    <glyph glyph-name="Obreve" unicode="&#x14e;" horiz-adv-x="1594" 
d="M1114 1587q-110 0 -180.5 60.5t-71.5 154.5q0 47 17 89h86q-3 -11 -3 -30q0 -53 44.5 -89.5t113.5 -36.5q80 0 128.5 40.5t62.5 115.5h86q-5 -141 -80 -222.5t-203 -81.5zM893 -26q-152 0 -275.5 53t-204 144.5t-124.5 212.5t-44 258q0 159 54 307.5t150 264.5t242 186
t317 70q151 0 275 -53t205 -144.5t124.5 -212.5t43.5 -258q0 -159 -54 -307.5t-150 -264.5t-242 -186t-317 -70zM877 97q146 0 263 110t179 284t62 371q0 236 -96.5 360.5t-260.5 124.5q-112 0 -208 -64.5t-160 -171.5t-100 -244.5t-36 -284.5q0 -236 96.5 -360.5
t260.5 -124.5z" />
    <glyph glyph-name="obreve" unicode="&#x14f;" horiz-adv-x="1144" 
d="M813 1178q-120 0 -196.5 71t-76.5 181q0 55 20 102h92q-4 -16 -4 -34q0 -62 49 -104t126 -42q89 0 143.5 47t69.5 133h93q-8 -165 -91.5 -259.5t-224.5 -94.5zM613 -23q-194 0 -301.5 124.5t-107.5 321.5q0 161 66 299.5t191.5 224.5t284.5 86q194 0 301.5 -124
t107.5 -321q0 -161 -66 -300t-191.5 -225t-284.5 -86zM620 91q72 0 129.5 52.5t91.5 137t52 180.5t18 191q0 130 -46 198.5t-126 68.5q-72 0 -130 -52.5t-92 -136.5t-52 -180t-18 -192q0 -130 46.5 -198.5t126.5 -68.5z" />
    <glyph glyph-name="Ohungarumlaut" unicode="&#x150;" horiz-adv-x="1594" 
d="M1025 1856h168v-7l-206 -283h-91zM1328 1856h188v-7l-286 -283h-95zM893 -26q-152 0 -275.5 53t-204 144.5t-124.5 212.5t-44 258q0 159 54 307.5t150 264.5t242 186t317 70q151 0 275 -53t205 -144.5t124.5 -212.5t43.5 -258q0 -159 -54 -307.5t-150 -264.5t-242 -186
t-317 -70zM877 97q146 0 263 110t179 284t62 371q0 236 -96.5 360.5t-260.5 124.5q-112 0 -208 -64.5t-160 -171.5t-100 -244.5t-36 -284.5q0 -236 96.5 -360.5t260.5 -124.5z" />
    <glyph glyph-name="ohungarumlaut" unicode="&#x151;" horiz-adv-x="1144" 
d="M714 1544h209v-8l-260 -367h-115zM1093 1544h235v-8l-361 -367h-118zM613 -23q-194 0 -301.5 124.5t-107.5 321.5q0 161 66 299.5t191.5 224.5t284.5 86q194 0 301.5 -124t107.5 -321q0 -161 -66 -300t-191.5 -225t-284.5 -86zM620 91q72 0 129.5 52.5t91.5 137t52 180.5
t18 191q0 130 -46 198.5t-126 68.5q-72 0 -130 -52.5t-92 -136.5t-52 -180t-18 -192q0 -130 46.5 -198.5t126.5 -68.5z" />
    <glyph glyph-name="OE" unicode="&#x152;" horiz-adv-x="2050" 
d="M258 659q0 170 59.5 319t167 259t267 174t348.5 64q84 0 196.5 -15.5t172.5 -15.5h745l-68 -371h-75q-2 56 -6.5 91t-17 66t-30 47.5t-50.5 29.5t-74.5 18t-104.5 8l-241 10l-117 -550h268q51 0 81 36t80 162h76l-108 -506h-74q4 85 -2 127t-23 56.5t-53 14.5h-268
l-125 -582l255 11q84 3 137.5 11t102 26t82 52t64 84t62.5 128h75l-103 -413h-639q-76 0 -193.5 -15.5t-188.5 -15.5q-157 0 -286.5 55.5t-214.5 150.5t-131 219.5t-46 264.5zM532 637q0 -156 47 -278t147 -197t241 -75q37 0 62 5l264 1242q-64 23 -164 23
q-144 0 -260 -60.5t-188 -162t-110.5 -229t-38.5 -268.5z" />
    <glyph glyph-name="oe" unicode="&#x153;" horiz-adv-x="1643" 
d="M616 -23q-196 0 -306.5 125.5t-110.5 322.5q0 160 61.5 297.5t182 224t275.5 86.5q115 0 200.5 -49t136.5 -136q76 88 175 137.5t205 49.5q126 0 202 -62.5t76 -160.5q0 -128 -133.5 -218.5t-393.5 -168.5l-48 -14q8 -137 75.5 -211.5t175.5 -74.5q137 0 237 91l-20 -95
q-52 -69 -139 -106.5t-182 -37.5q-96 0 -179 43.5t-135 126.5q-141 -170 -355 -170zM1407 923q-103 0 -180 -116t-89 -302l41 13q340 107 340 288q0 54 -29.5 85.5t-82.5 31.5zM621 89q66 0 121.5 52t89.5 134.5t52.5 179.5t18.5 193q-1 133 -46 203t-126 70q-88 0 -154 -89
t-97 -214t-30 -256q0 -133 45.5 -203t125.5 -70z" />
    <glyph glyph-name="Racute" unicode="&#x154;" horiz-adv-x="1384" 
d="M1088 1855l222 -1v-9l-351 -279h-96zM1081 0l-248 623q-44 -4 -100 -4h-120l-88 -413q-14 -66 8 -87t123 -31l-18 -88h-582l19 88q81 8 117.5 19t52 31.5t25.5 67.5l221 1032q14 67 -10.5 87.5t-135.5 30.5l18 88h547q250 0 389 -97.5t139 -272.5q0 -152 -100.5 -255
t-269.5 -154l126 -308q64 -157 103 -209t98 -66l-18 -82h-296zM1173 1067q0 128 -77.5 197t-224.5 74l-104 3l-132 -621l127 4q190 5 300.5 93.5t110.5 249.5z" />
    <glyph glyph-name="racute" unicode="&#x155;" horiz-adv-x="846" 
d="M804 1544h272v-12l-413 -363h-114zM625 1023l-56 -273q109 156 176 215.5t136 59.5q50 0 77 -32t27 -87q0 -51 -24 -87q-37 14 -93 14q-93 0 -174 -41.5t-135 -119.5l-133 -672h-235l170 798q7 36 -3 52t-47 23l-90 14l18 84z" />
    <glyph glyph-name="Rcommaaccent" unicode="&#x156;" horiz-adv-x="1384" 
d="M1081 0l-248 623q-44 -4 -100 -4h-120l-88 -413q-14 -66 8 -87t123 -31l-18 -88h-582l19 88q81 8 117.5 19t52 31.5t25.5 67.5l221 1032q14 67 -10.5 87.5t-135.5 30.5l18 88h547q250 0 389 -97.5t139 -272.5q0 -152 -100.5 -255t-269.5 -154l126 -308q64 -157 103 -209
t98 -66l-18 -82h-296zM1173 1067q0 128 -77.5 197t-224.5 74l-104 3l-132 -621l127 4q190 5 300.5 93.5t110.5 249.5zM672 -491q-102 0 -173 47l18 79q60 -32 121 -32q53 0 84.5 21t31.5 58q0 33 -27.5 54.5t-71.5 21.5q-46 0 -75 -11l17 76q65 54 155 54q77 0 128 -49
t51 -129q0 -90 -69.5 -140t-189.5 -50z" />
    <glyph glyph-name="rcommaaccent" unicode="&#x157;" horiz-adv-x="846" 
d="M625 1023l-56 -273q109 156 176 215.5t136 59.5q50 0 77 -32t27 -87q0 -51 -24 -87q-37 14 -93 14q-93 0 -174 -41.5t-135 -119.5l-133 -672h-235l170 798q7 36 -3 52t-47 23l-90 14l18 84zM222 -491q-102 0 -173 47l18 79q60 -32 121 -32q53 0 84.5 21t31.5 58
q0 33 -27.5 54.5t-71.5 21.5q-46 0 -75 -11l17 76q65 54 155 54q77 0 128 -49t51 -129q0 -90 -69.5 -140t-189.5 -50z" />
    <glyph glyph-name="Rcaron" unicode="&#x158;" horiz-adv-x="1384" 
d="M1203 1880h102l-250 -290h-158l-127 290h95l135 -148zM1081 0l-248 623q-44 -4 -100 -4h-120l-88 -413q-14 -66 8 -87t123 -31l-18 -88h-582l19 88q81 8 117.5 19t52 31.5t25.5 67.5l221 1032q14 67 -10.5 87.5t-135.5 30.5l18 88h547q250 0 389 -97.5t139 -272.5
q0 -152 -100.5 -255t-269.5 -154l126 -308q64 -157 103 -209t98 -66l-18 -82h-296zM1173 1067q0 128 -77.5 197t-224.5 74l-104 3l-132 -621l127 4q190 5 300.5 93.5t110.5 249.5z" />
    <glyph glyph-name="rcaron" unicode="&#x159;" horiz-adv-x="846" 
d="M925 1544h111l-289 -375h-167l-130 375h103l140 -199zM625 1023l-56 -273q109 156 176 215.5t136 59.5q50 0 77 -32t27 -87q0 -51 -24 -87q-37 14 -93 14q-93 0 -174 -41.5t-135 -119.5l-133 -672h-235l170 798q7 36 -3 52t-47 23l-90 14l18 84z" />
    <glyph glyph-name="Sacute" unicode="&#x15a;" horiz-adv-x="1148" 
d="M1004 1855l223 -1v-9l-352 -279h-95zM604 -31q-129 0 -264.5 37t-198.5 86l52 315h78q8 -149 99.5 -231.5t239.5 -82.5q121 0 204 65.5t83 175.5q0 83 -44 146.5t-153 131.5l-77 48q-146 90 -214 185.5t-68 217.5q0 182 138 297t375 115q128 0 246 -32.5t177 -79.5
l-47 -315h-78q-8 148 -86.5 225.5t-216.5 77.5q-114 0 -187.5 -57.5t-73.5 -153.5q0 -77 46.5 -139t158.5 -132l78 -48q143 -89 207.5 -184.5t64.5 -219.5q0 -134 -73.5 -237t-195.5 -157t-270 -54z" />
    <glyph glyph-name="sacute" unicode="&#x15b;" horiz-adv-x="893" 
d="M821 1544h272v-12l-413 -363h-113zM132 86l46 246h77q3 -116 65 -180t160 -64q81 0 126 38t45 102q0 54 -27.5 93.5t-99.5 82.5l-70 41q-100 60 -147.5 129.5t-47.5 157.5q0 131 103.5 216t278.5 85q218 0 329 -77l-51 -249h-78q1 101 -52.5 158t-147.5 57
q-75 0 -117 -34.5t-43 -92.5q0 -50 29 -86.5t102 -81.5l71 -41q104 -63 147.5 -132.5t43.5 -162.5q0 -132 -110 -223t-284 -91q-109 0 -203 29.5t-145 79.5z" />
    <glyph glyph-name="Scircumflex" unicode="&#x15c;" horiz-adv-x="1148" 
d="M720 1566h-99l249 289h151l127 -289h-92l-134 148zM604 -31q-129 0 -264.5 37t-198.5 86l52 315h78q8 -149 99.5 -231.5t239.5 -82.5q121 0 204 65.5t83 175.5q0 83 -44 146.5t-153 131.5l-77 48q-146 90 -214 185.5t-68 217.5q0 182 138 297t375 115q128 0 246 -32.5
t177 -79.5l-47 -315h-78q-8 148 -86.5 225.5t-216.5 77.5q-114 0 -187.5 -57.5t-73.5 -153.5q0 -77 46.5 -139t158.5 -132l78 -48q143 -89 207.5 -184.5t64.5 -219.5q0 -134 -73.5 -237t-195.5 -157t-270 -54z" />
    <glyph glyph-name="scircumflex" unicode="&#x15d;" horiz-adv-x="893" 
d="M499 1169h-112l289 375h168l130 -375h-103l-141 200zM132 86l46 246h77q3 -116 65 -180t160 -64q81 0 126 38t45 102q0 54 -27.5 93.5t-99.5 82.5l-70 41q-100 60 -147.5 129.5t-47.5 157.5q0 131 103.5 216t278.5 85q218 0 329 -77l-51 -249h-78q1 101 -52.5 158
t-147.5 57q-75 0 -117 -34.5t-43 -92.5q0 -50 29 -86.5t102 -81.5l71 -41q104 -63 147.5 -132.5t43.5 -162.5q0 -132 -110 -223t-284 -91q-109 0 -203 29.5t-145 79.5z" />
    <glyph glyph-name="Scedilla" unicode="&#x15e;" horiz-adv-x="1148" 
d="M477 -491q-116 0 -198 62l20 84q60 -40 144 -40q52 0 81.5 22t29.5 58q0 40 -33 62.5t-95 22.5h-24l18 81l102 112q-114 10 -221 44t-160 75l52 315h78q8 -149 99.5 -231.5t239.5 -82.5q121 0 204 65.5t83 175.5q0 83 -44 146.5t-153 131.5l-77 48q-146 90 -214 185.5
t-68 217.5q0 182 138 297t375 115q128 0 246 -32.5t177 -79.5l-47 -315h-78q-8 148 -86.5 225.5t-216.5 77.5q-114 0 -187.5 -57.5t-73.5 -153.5q0 -77 46.5 -139t158.5 -132l78 -48q143 -89 207.5 -184.5t64.5 -219.5q0 -194 -146.5 -316t-363.5 -131l-72 -80
q87 -12 135.5 -61t48.5 -125q0 -88 -72 -141.5t-196 -53.5z" />
    <glyph glyph-name="scedilla" unicode="&#x15f;" horiz-adv-x="893" 
d="M132 86l46 246h77q3 -116 65 -180t160 -64q81 0 126 38t45 102q0 54 -27.5 93.5t-99.5 82.5l-70 41q-100 60 -147.5 129.5t-47.5 157.5q0 131 103.5 216t278.5 85q218 0 329 -77l-51 -249h-78q1 101 -52.5 158t-147.5 57q-75 0 -117 -34.5t-43 -92.5q0 -50 29 -86.5
t102 -81.5l71 -41q104 -63 147.5 -132.5t43.5 -162.5q0 -124 -98 -213t-257 -99l-80 -89q87 -12 135.5 -61t48.5 -125q0 -88 -72 -141.5t-196 -53.5q-117 0 -197 62l19 84q60 -40 144 -40q53 0 82.5 22t29.5 58q0 40 -33.5 62.5t-95.5 22.5h-23l17 81l109 120
q-87 8 -159.5 36t-115.5 69z" />
    <glyph glyph-name="Scaron" unicode="&#x160;" horiz-adv-x="1148" 
d="M1119 1880h103l-251 -290h-158l-127 290h96l135 -148zM604 -31q-129 0 -264.5 37t-198.5 86l52 315h78q8 -149 99.5 -231.5t239.5 -82.5q121 0 204 65.5t83 175.5q0 83 -44 146.5t-153 131.5l-77 48q-146 90 -214 185.5t-68 217.5q0 182 138 297t375 115q128 0 246 -32.5
t177 -79.5l-47 -315h-78q-8 148 -86.5 225.5t-216.5 77.5q-114 0 -187.5 -57.5t-73.5 -153.5q0 -77 46.5 -139t158.5 -132l78 -48q143 -89 207.5 -184.5t64.5 -219.5q0 -134 -73.5 -237t-195.5 -157t-270 -54z" />
    <glyph glyph-name="scaron" unicode="&#x161;" horiz-adv-x="893" 
d="M942 1544h111l-288 -375h-168l-130 375h103l141 -199zM132 86l46 246h77q3 -116 65 -180t160 -64q81 0 126 38t45 102q0 54 -27.5 93.5t-99.5 82.5l-70 41q-100 60 -147.5 129.5t-47.5 157.5q0 131 103.5 216t278.5 85q218 0 329 -77l-51 -249h-78q1 101 -52.5 158
t-147.5 57q-75 0 -117 -34.5t-43 -92.5q0 -50 29 -86.5t102 -81.5l71 -41q104 -63 147.5 -132.5t43.5 -162.5q0 -132 -110 -223t-284 -91q-109 0 -203 29.5t-145 79.5z" />
    <glyph glyph-name="Tcedilla" unicode="&#x162;" horiz-adv-x="1333" 
d="M565 -491q-117 0 -197 62l19 84q62 -40 144 -40q52 0 82 22t30 58q0 40 -33.5 62.5t-95.5 22.5h-23l17 81l127 139h-284l18 87q69 7 105.5 13.5t60 21t32.5 32t16 52.5l242 1137l-55 -2q-85 -3 -137.5 -10t-98.5 -23t-76.5 -46.5t-56.5 -74.5t-52 -114h-79l90 371h1226
l-68 -371h-78q3 58 -0.5 97.5t-17.5 70t-34.5 48t-58.5 29t-82 16.5t-113 7l-55 2l-242 -1137q-6 -28 -6 -44t7 -29.5t27.5 -21t51.5 -13.5t84 -11l-19 -87h-233l-100 -110q87 -12 135.5 -61t48.5 -125q0 -88 -72 -141.5t-196 -53.5z" />
    <glyph glyph-name="tcedilla" unicode="&#x163;" horiz-adv-x="745" 
d="M389 -491q-117 0 -197 62l19 84q62 -40 144 -40q53 0 82.5 22t29.5 58q0 40 -33.5 62.5t-94.5 22.5h-24l17 81l113 123q-119 15 -169 105.5t-20 236.5l116 546h-159l16 80l166 26l43 200l246 36l-51 -234l287 9l-25 -117h-287l-110 -525q-47 -217 121 -217q106 0 166 54
l-19 -91q-30 -38 -85 -65.5t-119 -39.5l-89 -98q87 -12 135.5 -61t48.5 -125q0 -88 -72 -141.5t-196 -53.5z" />
    <glyph glyph-name="Tcaron" unicode="&#x164;" horiz-adv-x="1333" 
d="M1232 1880h103l-251 -290h-158l-127 290h95l136 -148zM1586 1444l-68 -371h-78q3 58 -0.5 97.5t-17.5 70t-34.5 48t-58.5 29t-82 16.5t-113 7l-55 2l-242 -1137q-6 -28 -6 -44t7 -29.5t27.5 -21t51.5 -13.5t84 -11l-19 -87h-631l18 87q69 7 105.5 13.5t60 21t32.5 32
t16 52.5l242 1137l-55 -2q-85 -3 -137.5 -10t-98.5 -23t-76.5 -46.5t-56.5 -74.5t-52 -114h-79l90 371h1226z" />
    <glyph glyph-name="tcaron" unicode="&#x165;" horiz-adv-x="745" 
d="M874 1113h-87l135 431h203zM489 -18q-142 0 -204 92.5t-29 251.5l116 546h-159l16 80l166 26l43 200l246 36l-51 -234l287 9l-25 -117h-287l-110 -525q-47 -217 121 -217q106 0 166 54l-19 -91q-39 -50 -116.5 -80.5t-160.5 -30.5z" />
    <glyph glyph-name="Tbar" unicode="&#x166;" horiz-adv-x="1333" 
d="M433 689l22 102h253l117 551l-55 -1q-85 -3 -137.5 -10t-98.5 -23t-76.5 -46.5t-56.5 -74.5t-52 -114h-79l90 371h1226l-68 -371h-78q3 58 -0.5 97.5t-17.5 70t-34.5 48t-58.5 29t-82 16.5t-113 7l-55 1l-117 -551h253l-22 -102h-253l-103 -483q-5 -24 -6 -38t3.5 -27
t14 -20.5t31 -14t49.5 -11t72 -8.5l-19 -87h-631l18 87q91 9 131 20.5t56.5 32t26.5 66.5l103 483h-253z" />
    <glyph glyph-name="tbar" unicode="&#x167;" horiz-adv-x="745" 
d="M489 -18q-142 0 -204 92.5t-29 251.5l40 189h-125l22 103h125l54 254h-159l16 80l166 26l43 200l246 36l-51 -234l287 9l-25 -117h-287l-53 -254h323l-22 -103h-323l-35 -168q-47 -217 121 -217q104 0 166 54l-19 -91q-39 -50 -116.5 -80.5t-160.5 -30.5z" />
    <glyph glyph-name="Utilde" unicode="&#x168;" horiz-adv-x="1509" 
d="M1255 1603q-63 0 -123 49l-25 24q-36 33 -64 33q-25 0 -41 -24.5t-25 -91.5h-85q26 249 166 249q65 0 123 -49l26 -23q34 -34 63 -34q25 0 41 24.5t26 91.5h85q-16 -135 -58 -192t-109 -57zM787 -31q-123 0 -222 40.5t-165.5 119t-89 194t8.5 266.5l135 633
q15 71 -6.5 95t-116.5 39l19 88h575l-18 -88q-115 -16 -149.5 -39.5t-49.5 -94.5l-134 -621q-50 -231 34.5 -347.5t259.5 -116.5q152 0 270.5 104t163.5 314l137 667q5 26 7 41.5t-1.5 30t-12 23t-27 16.5t-43.5 13t-64 10l18 88h455l-19 -88q-101 -15 -132 -39t-47 -95
l-152 -685q-59 -272 -227 -420t-407 -148z" />
    <glyph glyph-name="utilde" unicode="&#x169;" horiz-adv-x="1199" 
d="M962 1209q-76 0 -146 62l-32 31q-46 41 -80 41q-30 0 -49 -31t-31 -114h-98q19 165 70.5 235t129.5 70q76 0 146 -62l33 -31q44 -41 79 -41q30 0 49.5 31t31.5 114h97q-19 -165 -69.5 -235t-130.5 -70zM618 1024l-147 -695q-20 -97 12.5 -148.5t105.5 -51.5
q95 0 167 78.5t99 206.5l82 384q8 35 -2.5 51.5t-47.5 23.5l-86 14l17 78l403 59l-172 -803q-18 -88 50 -88q72 0 124 44l-19 -92q-36 -44 -109 -73t-141 -29q-84 0 -117.5 51t-15.5 144q0 2 4.5 20t4.5 19q-59 -117 -148.5 -178.5t-195.5 -61.5q-149 0 -215.5 99.5
t-32.5 263.5l97 458q7 36 -3 52t-47 23l-90 14l18 84z" />
    <glyph glyph-name="Umacron" unicode="&#x16a;" horiz-adv-x="1509" 
d="M877 1637l30 134h520l-28 -134h-522zM787 -31q-123 0 -222 40.5t-165.5 119t-89 194t8.5 266.5l135 633q15 71 -6.5 95t-116.5 39l19 88h575l-18 -88q-115 -16 -149.5 -39.5t-49.5 -94.5l-134 -621q-50 -231 34.5 -347.5t259.5 -116.5q152 0 270.5 104t163.5 314l137 667
q5 26 7 41.5t-1.5 30t-12 23t-27 16.5t-43.5 13t-64 10l18 88h455l-19 -88q-101 -15 -132 -39t-47 -95l-152 -685q-59 -272 -227 -420t-407 -148z" />
    <glyph glyph-name="umacron" unicode="&#x16b;" horiz-adv-x="1199" 
d="M535 1267l31 147h579l-31 -147h-579zM618 1024l-147 -695q-20 -97 12.5 -148.5t105.5 -51.5q95 0 167 78.5t99 206.5l82 384q8 35 -2.5 51.5t-47.5 23.5l-86 14l17 78l403 59l-172 -803q-18 -88 50 -88q72 0 124 44l-19 -92q-36 -44 -109 -73t-141 -29q-84 0 -117.5 51
t-15.5 144q0 2 4.5 20t4.5 19q-59 -117 -148.5 -178.5t-195.5 -61.5q-149 0 -215.5 99.5t-32.5 263.5l97 458q7 36 -3 52t-47 23l-90 14l18 84z" />
    <glyph glyph-name="Ubreve" unicode="&#x16c;" horiz-adv-x="1509" 
d="M1165 1587q-109 0 -179.5 60t-72.5 155q0 47 17 89h86q-3 -11 -3 -30q0 -53 44.5 -89.5t113.5 -36.5q80 0 128.5 40.5t62.5 115.5h87q-5 -141 -80.5 -222.5t-203.5 -81.5zM787 -31q-123 0 -222 40.5t-165.5 119t-89 194t8.5 266.5l135 633q15 71 -6.5 95t-116.5 39l19 88
h575l-18 -88q-115 -16 -149.5 -39.5t-49.5 -94.5l-134 -621q-50 -231 34.5 -347.5t259.5 -116.5q152 0 270.5 104t163.5 314l137 667q5 26 7 41.5t-1.5 30t-12 23t-27 16.5t-43.5 13t-64 10l18 88h455l-19 -88q-101 -15 -132 -39t-47 -95l-152 -685q-59 -272 -227 -420
t-407 -148z" />
    <glyph glyph-name="ubreve" unicode="&#x16d;" horiz-adv-x="1199" 
d="M849 1178q-120 0 -196.5 71t-76.5 181q0 55 20 102h92q-3 -12 -3 -34q0 -62 48.5 -104t125.5 -42q90 0 144 46.5t70 133.5h92q-8 -165 -91.5 -259.5t-224.5 -94.5zM618 1024l-147 -695q-20 -97 12.5 -148.5t105.5 -51.5q95 0 167 78.5t99 206.5l82 384q8 35 -2.5 51.5
t-47.5 23.5l-86 14l17 78l403 59l-172 -803q-18 -88 50 -88q72 0 124 44l-19 -92q-36 -44 -109 -73t-141 -29q-84 0 -117.5 51t-15.5 144q0 2 4.5 20t4.5 19q-59 -117 -148.5 -178.5t-195.5 -61.5q-149 0 -215.5 99.5t-32.5 263.5l97 458q7 36 -3 52t-47 23l-90 14l18 84z
" />
    <glyph glyph-name="Uring" unicode="&#x16e;" horiz-adv-x="1509" 
d="M925 1749q0 90 69.5 149t183.5 59q99 0 161.5 -51t62.5 -136q0 -91 -69.5 -149.5t-183.5 -58.5q-99 0 -161.5 51t-62.5 136zM1070 1744q0 -44 22 -69.5t61 -25.5q43 0 74.5 36t31.5 91q0 43 -22.5 68t-60.5 25q-44 0 -75 -35t-31 -90zM787 -31q-123 0 -222 40.5
t-165.5 119t-89 194t8.5 266.5l135 633q15 71 -6.5 95t-116.5 39l19 88h575l-18 -88q-115 -16 -149.5 -39.5t-49.5 -94.5l-134 -621q-50 -231 34.5 -347.5t259.5 -116.5q152 0 270.5 104t163.5 314l137 667q5 26 7 41.5t-1.5 30t-12 23t-27 16.5t-43.5 13t-64 10l18 88h455
l-19 -88q-101 -15 -132 -39t-47 -95l-152 -685q-59 -272 -227 -420t-407 -148z" />
    <glyph glyph-name="uring" unicode="&#x16f;" horiz-adv-x="1199" 
d="M579 1345q0 101 77 165.5t203 64.5q111 0 180.5 -56.5t69.5 -149.5q0 -101 -77 -165.5t-204 -64.5q-111 0 -180 56.5t-69 149.5zM739 1339q0 -50 24 -78.5t67 -28.5q48 0 83.5 41t35.5 102q0 49 -24.5 77.5t-66.5 28.5q-48 0 -83.5 -40.5t-35.5 -101.5zM618 1024
l-147 -695q-20 -97 12.5 -148.5t105.5 -51.5q95 0 167 78.5t99 206.5l82 384q8 35 -2.5 51.5t-47.5 23.5l-86 14l17 78l403 59l-172 -803q-18 -88 50 -88q72 0 124 44l-19 -92q-36 -44 -109 -73t-141 -29q-84 0 -117.5 51t-15.5 144q0 2 4.5 20t4.5 19
q-59 -117 -148.5 -178.5t-195.5 -61.5q-149 0 -215.5 99.5t-32.5 263.5l97 458q7 36 -3 52t-47 23l-90 14l18 84z" />
    <glyph glyph-name="Uhungarumlaut" unicode="&#x170;" horiz-adv-x="1509" 
d="M1076 1856h169v-7l-206 -283h-92zM1380 1856h188v-7l-287 -283h-95zM787 -31q-123 0 -222 40.5t-165.5 119t-89 194t8.5 266.5l135 633q15 71 -6.5 95t-116.5 39l19 88h575l-18 -88q-115 -16 -149.5 -39.5t-49.5 -94.5l-134 -621q-50 -231 34.5 -347.5t259.5 -116.5
q152 0 270.5 104t163.5 314l137 667q5 26 7 41.5t-1.5 30t-12 23t-27 16.5t-43.5 13t-64 10l18 88h455l-19 -88q-101 -15 -132 -39t-47 -95l-152 -685q-59 -272 -227 -420t-407 -148z" />
    <glyph glyph-name="uhungarumlaut" unicode="&#x171;" horiz-adv-x="1199" 
d="M750 1544h209v-8l-260 -367h-115zM1129 1544h236v-8l-362 -367h-118zM618 1024l-147 -695q-20 -97 12.5 -148.5t105.5 -51.5q95 0 167 78.5t99 206.5l82 384q8 35 -2.5 51.5t-47.5 23.5l-86 14l17 78l403 59l-172 -803q-18 -88 50 -88q72 0 124 44l-19 -92
q-36 -44 -109 -73t-141 -29q-84 0 -117.5 51t-15.5 144q0 2 4.5 20t4.5 19q-59 -117 -148.5 -178.5t-195.5 -61.5q-149 0 -215.5 99.5t-32.5 263.5l97 458q7 36 -3 52t-47 23l-90 14l18 84z" />
    <glyph glyph-name="Uogonek" unicode="&#x172;" horiz-adv-x="1509" 
d="M736 -485q-91 0 -148.5 49t-57.5 126q0 74 54.5 147t151.5 134q-112 8 -201 52t-148.5 122.5t-78 189.5t10.5 254l135 633q15 71 -6.5 95t-116.5 39l19 88h575l-18 -88q-115 -16 -149.5 -39.5t-49.5 -94.5l-134 -621q-50 -231 34.5 -347.5t259.5 -116.5q152 0 270.5 104
t163.5 314l137 667q5 26 7 41.5t-1.5 30t-12 23t-27 16.5t-43.5 13t-64 10l18 88h455l-19 -88q-101 -15 -132 -39t-47 -95l-152 -685q-56 -257 -209.5 -403.5t-374.5 -162.5q-95 -96 -95 -204q0 -58 28 -95t73 -37q48 0 85 30l-18 -86q-64 -64 -174 -64z" />
    <glyph glyph-name="uogonek" unicode="&#x173;" horiz-adv-x="1199" 
d="M918 -485q-83 0 -135 45.5t-52 120.5q0 150 249 304q-18 -2 -26 -2q-84 0 -117.5 51t-15.5 144q0 2 4.5 20t4.5 19q-59 -117 -148.5 -178.5t-195.5 -61.5q-149 0 -215.5 99.5t-32.5 263.5l97 458q7 36 -3 52t-47 23l-90 14l18 84l405 53l-147 -695q-20 -97 12.5 -148.5
t105.5 -51.5q95 0 167 78.5t99 206.5l82 384q8 35 -2.5 51.5t-47.5 23.5l-86 14l17 78l403 59l-172 -803q-18 -88 50 -88q72 0 124 44l-19 -92q-2 -1 -4.5 -2.5t-3.5 -2.5q-133 -107 -196 -189t-63 -155q0 -48 24 -74.5t62 -26.5q53 0 91 30l-19 -86q-26 -27 -73.5 -45.5
t-103.5 -18.5z" />
    <glyph glyph-name="Wcircumflex" unicode="&#x174;" horiz-adv-x="2121" 
d="M1303 1566h-100l250 289h151l127 -289h-92l-134 148zM441 1163q-7 79 -23 117t-44.5 53t-90.5 23l17 88h586l-18 -88q-42 -5 -68 -11t-47.5 -15.5t-30 -22.5t-16 -33.5t-5.5 -47.5t2 -64l60 -925l446 928q55 110 41.5 144t-123.5 47l19 88h569l-19 -88q-42 -5 -68 -11
t-47 -15.5t-29.5 -22.5t-16 -33.5t-5.5 -47.5t2 -64l58 -925l448 928q55 110 41.5 144t-122.5 47l18 88h459l-18 -88q-99 -11 -142 -45t-104 -153l-594 -1158h-208l-75 1075l-545 -1075h-205z" />
    <glyph glyph-name="wcircumflex" unicode="&#x175;" horiz-adv-x="1506" 
d="M835 1169h-112l289 375h168l130 -375h-103l-141 200zM536 1024l42 -809q56 92 92 156.5t79.5 153.5t68.5 171.5t32 159.5l-7 132l214 36l43 -829q258 301 337 574q-54 2 -91.5 40t-37.5 90q0 57 41 95.5t103 38.5q64 0 104 -41t40 -107q0 -138 -166 -403.5t-378 -481.5
h-156l-30 569q-112 -275 -339 -569h-160l-57 805q-2 33 -16 47.5t-53 21.5l-83 13l18 86z" />
    <glyph glyph-name="Ycircumflex" unicode="&#x176;" horiz-adv-x="1330" 
d="M874 1566h-100l250 289h151l127 -289h-92l-135 148zM473 1169q-40 108 -74 141.5t-116 45.5l17 88h588l-19 -88q-115 -13 -137.5 -49.5t13.5 -136.5l147 -432l327 432q80 101 73 137t-116 49l18 88h450l-19 -88q-90 -12 -138.5 -45.5t-138.5 -146.5l-421 -527l-91 -431
q-5 -23 -6 -37t3.5 -27.5t14 -20.5t30.5 -14t49 -11.5t72 -8.5l-18 -87h-632l19 87q69 7 105.5 13.5t60 21t32.5 32t16 52.5l90 423z" />
    <glyph glyph-name="ycircumflex" unicode="&#x177;" horiz-adv-x="1006" 
d="M555 1169h-113l290 375h168l129 -375h-102l-141 200zM538 1024l33 -866q297 368 371 611h-1q-56 0 -95 38t-39 92q0 57 41 95.5t102 38.5q64 0 104.5 -41t40.5 -107q0 -221 -464 -804q-107 -130 -160 -193q-164 -196 -302 -348h-261v20q110 81 239 189t218 195l-50 858
q-2 34 -17.5 49.5t-55.5 22.5l-82 13l16 86z" />
    <glyph glyph-name="Ydieresis" unicode="&#x178;" horiz-adv-x="1330" 
d="M896 1603q-45 0 -74.5 29t-29.5 73q0 48 33 81.5t80 33.5q45 0 74.5 -29.5t29.5 -73.5q-1 -48 -34 -81t-79 -33zM1233 1603q-45 0 -74.5 29t-29.5 73q0 48 33 81.5t80 33.5q45 0 74.5 -29.5t29.5 -73.5q-1 -48 -34 -81t-79 -33zM473 1169q-40 108 -74 141.5t-116 45.5
l17 88h588l-19 -88q-115 -13 -137.5 -49.5t13.5 -136.5l147 -432l327 432q80 101 73 137t-116 49l18 88h450l-19 -88q-90 -12 -138.5 -45.5t-138.5 -146.5l-421 -527l-91 -431q-5 -23 -6 -37t3.5 -27.5t14 -20.5t30.5 -14t49 -11.5t72 -8.5l-18 -87h-632l19 87
q69 7 105.5 13.5t60 21t32.5 32t16 52.5l90 423z" />
    <glyph glyph-name="Zacute" unicode="&#x179;" horiz-adv-x="1207" 
d="M1038 1855l222 -1v-9l-351 -279h-96zM1124 0h-1055l18 82l1006 1261l-299 -11q-76 -3 -125 -10.5t-89 -23t-68 -46.5t-51.5 -71.5t-50.5 -107.5h-79l90 371h993l-18 -82l-1007 -1261l299 12q73 3 118 7t92.5 15.5t77.5 30.5t61.5 52.5t56.5 80t52 114.5h79z" />
    <glyph glyph-name="zacute" unicode="&#x17a;" horiz-adv-x="939" 
d="M819 1544h273v-12l-413 -363h-114zM92 47l688 775h-318q-68 0 -96.5 -23.5t-62.5 -109.5h-78l81 321h740l-19 -85l-567 -626l66 -40q81 -49 131 -68t110 -19q95 0 172 119l59 -50q-132 -264 -337 -264q-69 0 -134 23.5t-160 87.5l-61 40l-1 -1l-134 -153z" />
    <glyph glyph-name="Zdotaccent" unicode="&#x17b;" horiz-adv-x="1207" 
d="M944 1597q-48 0 -79.5 31t-31.5 76q0 51 35 85.5t85 34.5q48 0 79 -31t31 -76q0 -51 -35 -85.5t-84 -34.5zM1124 0h-1055l18 82l1006 1261l-299 -11q-76 -3 -125 -10.5t-89 -23t-68 -46.5t-51.5 -71.5t-50.5 -107.5h-79l90 371h993l-18 -82l-1007 -1261l299 12
q73 3 118 7t92.5 15.5t77.5 30.5t61.5 52.5t56.5 80t52 114.5h79z" />
    <glyph glyph-name="zdotaccent" unicode="&#x17c;" horiz-adv-x="939" 
d="M714 1222q-56 0 -93 36t-37 91q0 58 41 99t99 41q56 0 93 -36t37 -90q0 -59 -40.5 -100t-99.5 -41zM92 47l688 775h-318q-68 0 -96.5 -23.5t-62.5 -109.5h-78l81 321h740l-19 -85l-567 -626l66 -40q81 -49 131 -68t110 -19q95 0 172 119l59 -50q-132 -264 -337 -264
q-69 0 -134 23.5t-160 87.5l-61 40l-1 -1l-134 -153z" />
    <glyph glyph-name="Zcaron" unicode="&#x17d;" horiz-adv-x="1207" 
d="M1153 1880h102l-250 -290h-158l-128 290h96l135 -148zM1124 0h-1055l18 82l1006 1261l-299 -11q-76 -3 -125 -10.5t-89 -23t-68 -46.5t-51.5 -71.5t-50.5 -107.5h-79l90 371h993l-18 -82l-1007 -1261l299 12q73 3 118 7t92.5 15.5t77.5 30.5t61.5 52.5t56.5 80t52 114.5
h79z" />
    <glyph glyph-name="zcaron" unicode="&#x17e;" horiz-adv-x="939" 
d="M941 1544h111l-289 -375h-168l-129 375h102l141 -199zM92 47l688 775h-318q-68 0 -96.5 -23.5t-62.5 -109.5h-78l81 321h740l-19 -85l-567 -626l66 -40q81 -49 131 -68t110 -19q95 0 172 119l59 -50q-132 -264 -337 -264q-69 0 -134 23.5t-160 87.5l-61 40l-1 -1
l-134 -153z" />
    <glyph glyph-name="Schwa" unicode="&#x18f;" horiz-adv-x="1503" 
d="M782 -31q-141 0 -251 39.5t-178.5 110.5t-103.5 164t-35 204q0 99 33 215h1004q4 51 4 117q0 250 -93 391t-285 141q-145 0 -249.5 -71.5t-174.5 -237.5h-80l75 320q76 51 194.5 81.5t245.5 30.5q309 0 477.5 -186.5t168.5 -500.5q0 -133 -34 -256t-100 -225
t-156.5 -177.5t-209 -117.5t-252.5 -42zM453 450q0 -168 84 -265.5t245 -97.5q182 0 299 136.5t156 367.5h-770q-14 -70 -14 -141z" />
    <glyph glyph-name="florin" unicode="&#x192;" horiz-adv-x="1206" 
d="M400 850h291l107 248q75 177 200.5 276.5t274.5 99.5q106 0 157.5 -43.5t51.5 -114.5q0 -46 -30.5 -77t-76.5 -31q-45 0 -74.5 31.5t-29.5 77.5q0 28 16 54h-1q-66 -1 -111.5 -43t-88.5 -142l-146 -336h309l-18 -80h-326l-184 -424q-75 -178 -200 -277.5t-274 -99.5
q-108 0 -162 45t-43 113q7 46 42.5 77.5t79.5 31.5q46 0 71 -31.5t18 -77.5q-4 -30 -25 -55h6q65 0 111.5 42.5t89.5 142.5l222 513h-274z" />
    <glyph glyph-name="Ohorn" unicode="&#x1a0;" horiz-adv-x="1609" 
d="M245 641q0 127 33.5 248.5t100 226t157 184t212.5 125t260 45.5q85 0 199.5 -13t171.5 -13q127 0 199 83t72 201q0 45 -9 69h81q40 -37 65.5 -91.5t25.5 -112.5q0 -76 -46.5 -129.5t-119 -77.5t-163.5 -24q-62 0 -113 9q137 -88 211 -238t74 -330q0 -159 -54 -308
t-150.5 -265t-242 -186t-316.5 -70q-152 0 -276 53t-204.5 144.5t-124 212t-43.5 257.5zM520 583q0 -236 96.5 -361t261.5 -125q145 0 262 110t179 284t62 371q0 236 -97 360.5t-261 124.5q-111 0 -207 -64.5t-160 -171t-100 -244t-36 -284.5z" />
    <glyph glyph-name="ohorn" unicode="&#x1a1;" horiz-adv-x="1265" 
d="M204 423q0 172 69.5 311t197 219.5t289.5 80.5q58 0 136 -11t115 -11q116 0 194.5 77t78.5 190q0 39 -8 65h77q36 -32 57.5 -83t21.5 -108q0 -107 -81 -165t-218 -58q-73 0 -148 20q84 -56 127 -151.5t43 -214.5q0 -160 -66 -297.5t-191.5 -223.5t-284.5 -86
q-194 0 -301.5 124.5t-107.5 321.5zM447 358q0 -130 46.5 -198.5t126.5 -68.5q72 0 129.5 52.5t91.5 137t52 180.5t18 191q0 130 -46 198.5t-126 68.5q-72 0 -130 -52.5t-92 -136.5t-52 -180t-18 -192z" />
    <glyph glyph-name="Uhorn" unicode="&#x1af;" horiz-adv-x="1593" 
d="M319 589l135 633q15 71 -6.5 95t-116.5 39l19 88h575l-18 -88q-115 -16 -149.5 -39.5t-49.5 -94.5l-134 -621q-50 -231 34.5 -347.5t259.5 -116.5q152 0 270.5 104t163.5 314l137 667q5 26 7 41.5t-1.5 30t-12 23t-27 16.5t-43.5 13t-64 10l18 88h121q152 0 236 81.5
t84 202.5q0 46 -10 69h81q35 -35 58 -88t23 -108q0 -103 -72 -160t-195 -57q-5 0 -15 0.5t-14 0.5l-192 -848q-61 -272 -228 -420t-406 -148q-123 0 -222 40.5t-165.5 119t-89 194t8.5 266.5z" />
    <glyph glyph-name="uhorn" unicode="&#x1b0;" horiz-adv-x="1303" 
d="M619 1027l-147 -695q-20 -96 12.5 -147.5t105.5 -51.5q94 0 166 79t99 206l83 384q7 36 -3.5 51.5t-46.5 23.5l-86 14l17 77l134 19q190 26 271 98.5t81 192.5q0 40 -8 66h77q36 -32 58 -82t22 -106q0 -94 -59 -144.5t-156 -50.5q-22 0 -32 1l-157 -737q-20 -89 49 -89
q74 0 125 43l-19 -90q-36 -44 -109 -73t-141 -29q-84 0 -117.5 50.5t-15.5 143.5q0 4 9 40q-60 -117 -149 -178.5t-196 -61.5q-149 0 -215.5 99.5t-32.5 263.5l98 458q7 36 -3 52t-47 22l-90 14l18 85z" />
    <glyph glyph-name="uni01C4" unicode="&#x1c4;" horiz-adv-x="2734" 
d="M2681 1880h103l-251 -290h-158l-127 290h95l136 -148zM1585 826q0 -178 -73.5 -331.5t-203.5 -262t-314 -170.5t-398 -62h-539l18 88q61 6 94 12.5t55 21t30 32.5t16 53l220 1030q14 66 -10 87t-135 32l19 88h488q340 0 536 -167.5t197 -450.5zM2652 0h-1054l17 82
l1007 1261l-300 -11q-76 -3 -125 -10.5t-89 -23t-68 -46.5t-51.5 -71.5t-50.5 -107.5h-78l89 371h993l-17 -82l-1008 -1261l299 12q73 3 118.5 7t93 15.5t77 30.5t61 52.5t57 80t52.5 114.5h78zM1302 845q0 211 -117 345.5t-341 147.5l-78 5l-263 -1242l104 5
q204 9 361.5 102t245.5 258t88 379z" />
    <glyph glyph-name="uni01C5" unicode="&#x1c5;" horiz-adv-x="2467" 
d="M2469 1544h111l-289 -375h-167l-130 375h103l141 -199zM1585 826q0 -178 -73.5 -331.5t-203.5 -262t-314 -170.5t-398 -62h-539l18 88q61 6 94 12.5t55 21t30 32.5t16 53l220 1030q14 66 -10 87t-135 32l19 88h488q340 0 536 -167.5t197 -450.5zM1302 845
q0 211 -117 345.5t-341 147.5l-78 5l-263 -1242l104 5q204 9 361.5 102t245.5 258t88 379zM1621 47l687 775h-318q-68 0 -96.5 -23.5t-62.5 -109.5h-77l81 321h739l-19 -85l-566 -626l65 -40q81 -49 131 -68t110 -19q97 0 172 119l59 -50q-132 -264 -336 -264
q-70 0 -135 23.5t-160 87.5l-60 40l-1 -1l-135 -153z" />
    <glyph glyph-name="uni01C6" unicode="&#x1c6;" horiz-adv-x="2100" 
d="M2102 1544h112l-289 -375h-168l-130 375h103l141 -199zM190 348q0 182 66.5 338t190 251.5t276.5 95.5q140 0 210 -77l67 315q7 35 -3 51.5t-47 23.5l-90 14l19 84l404 52l-270 -1275q-20 -88 48 -88q73 0 125 44l-20 -92q-36 -44 -108.5 -73t-141.5 -29q-84 0 -117.5 51
t-14.5 144q0 3 4 20t5 19q-52 -117 -136.5 -178.5t-190.5 -61.5q-117 0 -196.5 97.5t-79.5 273.5zM1254 47l688 775h-319q-68 0 -96.5 -23.5t-61.5 -109.5h-78l81 321h739l-18 -85l-567 -626l66 -40q80 -49 130.5 -68t110.5 -19q96 0 171 119l60 -50q-132 -264 -337 -264
q-70 0 -135 23.5t-159 87.5l-61 40l-1 -1l-135 -153zM434 366q-1 -241 142 -241q78 0 145.5 78t98.5 221l87 408q-10 36 -51.5 60.5t-100.5 24.5q-76 0 -139 -51.5t-101.5 -133.5t-59.5 -177t-21 -189z" />
    <glyph glyph-name="uni01C7" unicode="&#x1c7;" horiz-adv-x="1872" 
d="M1699 260q-20 -93 -49 -167.5t-72 -135t-90.5 -106.5t-118.5 -90t-140.5 -78t-170.5 -77l-25 74q95 57 156 107t113.5 120t87 160.5t62.5 219.5l202 951q14 66 -10 86.5t-135 32.5l19 88h593l-19 -88q-81 -8 -117.5 -20t-51.5 -32.5t-25 -66.5zM1106 0h-1049l18 88
q81 8 118 20t52 32.5t25 66.5l219 1030q6 29 6 45t-5.5 30t-24 21t-46 12.5t-74.5 10.5l19 88h605l-18 -87q-66 -7 -101.5 -13.5t-58.5 -21t-31.5 -32t-15.5 -52.5l-241 -1137l209 8q57 2 96 7t79 18.5t69 36t60 60.5t59.5 90.5t60.5 127.5h78z" />
    <glyph glyph-name="uni01C8" unicode="&#x1c8;" horiz-adv-x="1755" 
d="M1726 1215q-59 0 -97.5 38t-38.5 95q0 62 43 105t104 43q58 0 96.5 -38t38.5 -95q0 -62 -42.5 -105t-103.5 -43zM1106 0h-1049l18 88q81 8 118 20t52 32.5t25 66.5l219 1030q6 29 6 45t-5.5 30t-24 21t-46 12.5t-74.5 10.5l19 88h605l-18 -87q-66 -7 -101.5 -13.5
t-58.5 -21t-31.5 -32t-15.5 -52.5l-241 -1137l209 8q57 2 96 7t79 18.5t69 36t60 60.5t59.5 90.5t60.5 127.5h78zM1807 1023l-206 -963q-24 -113 -58 -193t-92 -147t-143.5 -115t-210.5 -86l-28 79q49 21 87 46.5t67 59.5t50 70t39.5 88t31.5 102.5t28 123.5l152 710
q7 36 -3 52t-48 23l-90 14l19 84z" />
    <glyph glyph-name="uni01C9" unicode="&#x1c9;" horiz-adv-x="1192" 
d="M1162 1215q-59 0 -97.5 38t-38.5 95q0 62 43.5 105t103.5 43q59 0 97.5 -38t38.5 -95q0 -62 -43 -105t-104 -43zM723 1496l-272 -1275q-18 -88 50 -88q70 0 124 44l-19 -92q-37 -44 -110 -73t-143 -29q-189 0 -140 228l226 1060q8 35 -2.5 51.5t-47.5 23.5l-90 14l18 84z
M1244 1023l-206 -963q-25 -114 -59 -193t-91.5 -146.5t-143 -115.5t-210.5 -86l-28 79q49 21 87 46.5t67 59.5t50 70t39.5 88t31.5 102.5t28 123.5l151 710q8 36 -2.5 52t-47.5 23l-90 14l19 84z" />
    <glyph glyph-name="uni01CA" unicode="&#x1ca;" horiz-adv-x="2238" 
d="M2066 260q-20 -93 -49 -167.5t-72 -135t-90.5 -106.5t-118.5 -90t-140.5 -78t-170.5 -77l-25 74q95 57 156 107t113.5 120t87 160.5t61.5 219.5l203 951q14 66 -10 86.5t-135 32.5l18 88h593l-19 -88q-80 -8 -116.5 -20t-51.5 -32.5t-25 -66.5zM744 1444l526 -1175
l187 953q6 27 7.5 42.5t-2 31t-12 23.5t-27 15.5t-43 12t-64.5 9.5l19 88h455l-19 -88q-100 -13 -131.5 -36.5t-48.5 -97.5l-269 -1222h-226l-526 1174l-188 -951q-5 -37 -7.5 -59.5t14.5 -37.5t46.5 -23t88.5 -15l-19 -88h-456l19 88q101 13 132.5 37t47.5 97l218 988
q14 51 8.5 81.5t-35 44t-101.5 20.5l18 88h388z" />
    <glyph glyph-name="uni01CB" unicode="&#x1cb;" horiz-adv-x="2121" 
d="M2092 1215q-59 0 -97.5 38t-38.5 95q0 62 43 105t104 43q59 0 97.5 -38t38.5 -95q0 -62 -43 -105t-104 -43zM744 1444l526 -1175l187 953q6 27 7.5 42.5t-2 31t-12 23.5t-27 15.5t-43 12t-64.5 9.5l19 88h455l-19 -88q-100 -13 -131.5 -36.5t-48.5 -97.5l-269 -1222h-226
l-526 1174l-188 -951q-5 -37 -7.5 -59.5t14.5 -37.5t46.5 -23t88.5 -15l-19 -88h-456l19 88q101 13 132.5 37t47.5 97l218 988q14 51 8.5 81.5t-35 44t-101.5 20.5l18 88h388zM2173 1023l-205 -963q-25 -113 -59 -193t-92 -147t-143.5 -115t-209.5 -86l-28 79
q72 31 121 72.5t83 106t54.5 132.5t44.5 179l151 710q8 36 -2.5 52t-47.5 23l-91 14l19 84z" />
    <glyph glyph-name="uni01CC" unicode="&#x1cc;" horiz-adv-x="1806" 
d="M1776 1215q-59 0 -97.5 38t-38.5 95q0 62 43.5 105t104.5 43q58 0 96.5 -38t38.5 -95q0 -62 -43 -105t-104 -43zM632 1023l-55 -252q128 262 353 262q150 0 212 -96t26 -263l-97 -453q-20 -88 49 -88q73 0 125 44l-19 -92q-37 -44 -110 -73t-143 -29q-187 0 -140 228
l98 468q21 99 -9 153.5t-100 54.5q-86 0 -166.5 -92t-110.5 -228l-119 -567h-235l170 798q7 36 -3 52t-47 23l-90 14l18 84zM1858 1023l-206 -963q-25 -114 -59 -193t-91.5 -146.5t-143 -115.5t-210.5 -86l-28 79q49 21 87 46.5t67 59.5t50 70t39.5 88t31.5 102.5t28 123.5
l151 710q8 36 -2.5 52t-47.5 23l-90 14l19 84z" />
    <glyph glyph-name="Acaron" unicode="&#x1cd;" horiz-adv-x="1398" 
d="M1250 1880h102l-250 -290h-158l-128 290h96l135 -148zM1261 281q15 -114 43.5 -148t117.5 -45l-18 -88h-593l18 88q119 15 148.5 50t17.5 145l-23 204h-471l-109 -204q-25 -47 -36 -75.5t-12.5 -51t14.5 -34.5t42 -20t73 -14l-18 -88h-462l19 88q97 11 138.5 44.5
t108.5 154.5l644 1157h207zM559 595h401l-70 621z" />
    <glyph glyph-name="acaron" unicode="&#x1ce;" horiz-adv-x="1158" 
d="M1045 1544h111l-289 -375h-167l-130 375h103l140 -199zM190 348q0 182 66.5 338t190 251.5t276.5 95.5q88 0 149.5 -33t90.5 -85l91 95h127l-170 -789q-20 -88 50 -88q72 0 124 44l-19 -92q-37 -44 -109.5 -73t-141.5 -29q-83 0 -116.5 51t-14.5 144q0 3 4 20t5 19
q-52 -117 -136.5 -178.5t-190.5 -61.5q-117 0 -196.5 97.5t-79.5 273.5zM434 366q-1 -241 142 -241q78 0 145.5 78t98.5 221l87 408q-10 36 -51.5 60.5t-100.5 24.5q-76 0 -139 -51.5t-101.5 -133.5t-59.5 -177t-21 -189z" />
    <glyph glyph-name="Icaron" unicode="&#x1cf;" horiz-adv-x="707" 
d="M918 1880h103l-251 -290h-158l-127 290h95l136 -148zM525 207q-6 -28 -6 -44t5.5 -30t23.5 -21.5t46 -13t75 -10.5l-19 -88h-593l18 88q62 6 95 12.5t54.5 21t30 32.5t15.5 53l219 1030q5 32 6.5 52.5t-15 34t-46.5 20.5t-89 12l19 88h593l-18 -88q-62 -6 -95 -12.5
t-54.5 -21t-30 -32.5t-15.5 -53z" />
    <glyph glyph-name="icaron" unicode="&#x1d0;" horiz-adv-x="601" 
d="M750 1544h101l-268 -375h-151l-109 375h92l123 -199zM622 1023l-171 -802q-18 -88 50 -88q70 0 124 44l-19 -92q-37 -44 -110 -73t-143 -29q-189 0 -140 228l125 587q8 36 -2 52t-48 23l-90 14l19 84z" />
    <glyph glyph-name="Ocaron" unicode="&#x1d1;" horiz-adv-x="1594" 
d="M1307 1880h103l-251 -290h-158l-127 290h96l135 -148zM893 -26q-152 0 -275.5 53t-204 144.5t-124.5 212.5t-44 258q0 159 54 307.5t150 264.5t242 186t317 70q151 0 275 -53t205 -144.5t124.5 -212.5t43.5 -258q0 -159 -54 -307.5t-150 -264.5t-242 -186t-317 -70z
M877 97q146 0 263 110t179 284t62 371q0 236 -96.5 360.5t-260.5 124.5q-112 0 -208 -64.5t-160 -171.5t-100 -244.5t-36 -284.5q0 -236 96.5 -360.5t260.5 -124.5z" />
    <glyph glyph-name="ocaron" unicode="&#x1d2;" horiz-adv-x="1144" 
d="M1029 1544h112l-289 -375h-168l-130 375h103l141 -199zM613 -23q-194 0 -301.5 124.5t-107.5 321.5q0 161 66 299.5t191.5 224.5t284.5 86q194 0 301.5 -124t107.5 -321q0 -161 -66 -300t-191.5 -225t-284.5 -86zM620 91q72 0 129.5 52.5t91.5 137t52 180.5t18 191
q0 130 -46 198.5t-126 68.5q-72 0 -130 -52.5t-92 -136.5t-52 -180t-18 -192q0 -130 46.5 -198.5t126.5 -68.5z" />
    <glyph glyph-name="Ucaron" unicode="&#x1d3;" horiz-adv-x="1509" 
d="M1358 1880h103l-250 -290h-159l-127 290h96l135 -148zM787 -31q-123 0 -222 40.5t-165.5 119t-89 194t8.5 266.5l135 633q15 71 -6.5 95t-116.5 39l19 88h575l-18 -88q-115 -16 -149.5 -39.5t-49.5 -94.5l-134 -621q-50 -231 34.5 -347.5t259.5 -116.5q152 0 270.5 104
t163.5 314l137 667q5 26 7 41.5t-1.5 30t-12 23t-27 16.5t-43.5 13t-64 10l18 88h455l-19 -88q-101 -15 -132 -39t-47 -95l-152 -685q-59 -272 -227 -420t-407 -148z" />
    <glyph glyph-name="ucaron" unicode="&#x1d4;" horiz-adv-x="1199" 
d="M1065 1544h112l-289 -375h-168l-130 375h103l141 -199zM618 1024l-147 -695q-20 -97 12.5 -148.5t105.5 -51.5q95 0 167 78.5t99 206.5l82 384q8 35 -2.5 51.5t-47.5 23.5l-86 14l17 78l403 59l-172 -803q-18 -88 50 -88q72 0 124 44l-19 -92q-36 -44 -109 -73t-141 -29
q-84 0 -117.5 51t-15.5 144q0 2 4.5 20t4.5 19q-59 -117 -148.5 -178.5t-195.5 -61.5q-149 0 -215.5 99.5t-32.5 263.5l97 458q7 36 -3 52t-47 23l-90 14l18 84z" />
    <glyph glyph-name="Udieresismacron" unicode="&#x1d5;" horiz-adv-x="1509" 
d="M883 1826l21 101h591l-22 -101h-590zM946 1549h-11q-40 0 -62 23.5t-15 58.5q8 35 40 58.5t72 23.5h12q39 0 61 -24t14 -58q-7 -35 -39 -58.5t-72 -23.5zM1276 1549h-11q-41 0 -62.5 23.5t-14.5 58.5q8 35 40.5 58.5t71.5 23.5h11q40 0 62.5 -23.5t14.5 -58.5
q-7 -35 -39.5 -58.5t-72.5 -23.5zM787 -31q-123 0 -222 40.5t-165.5 119t-89 194t8.5 266.5l135 633q15 71 -6.5 95t-116.5 39l19 88h575l-18 -88q-115 -16 -149.5 -39.5t-49.5 -94.5l-134 -621q-50 -231 34.5 -347.5t259.5 -116.5q152 0 270.5 104t163.5 314l137 667
q5 26 7 41.5t-1.5 30t-12 23t-27 16.5t-43.5 13t-64 10l18 88h455l-19 -88q-101 -15 -132 -39t-47 -95l-152 -685q-59 -272 -227 -420t-407 -148z" />
    <glyph glyph-name="udieresismacron" unicode="&#x1d6;" horiz-adv-x="1199" 
d="M584 1495l26 119h576l-25 -119h-577zM620 1157h-11q-42 0 -65 27.5t-14 68.5t43.5 69.5t76.5 28.5h11q42 0 65 -28.5t14 -69.5t-43.5 -68.5t-76.5 -27.5zM967 1157h-11q-42 0 -64.5 27.5t-13.5 68.5q8 41 43 69.5t77 28.5h11q41 0 64 -28.5t14 -69.5q-8 -41 -43 -68.5
t-77 -27.5zM618 1024l-147 -695q-20 -97 12.5 -148.5t105.5 -51.5q95 0 167 78.5t99 206.5l82 384q8 35 -2.5 51.5t-47.5 23.5l-86 14l17 78l403 59l-172 -803q-18 -88 50 -88q72 0 124 44l-19 -92q-36 -44 -109 -73t-141 -29q-84 0 -117.5 51t-15.5 144q0 2 4.5 20t4.5 19
q-59 -117 -148.5 -178.5t-195.5 -61.5q-149 0 -215.5 99.5t-32.5 263.5l97 458q7 36 -3 52t-47 23l-90 14l18 84z" />
    <glyph glyph-name="Udieresisacute" unicode="&#x1d7;" horiz-adv-x="1509" 
d="M1478 1849l-607 -78l16 78l619 133zM946 1549h-11q-40 0 -62 23.5t-15 58.5q8 35 40 58.5t72 23.5h12q39 0 61 -24t14 -58q-7 -35 -39 -58.5t-72 -23.5zM1276 1549h-11q-41 0 -62.5 23.5t-14.5 58.5q8 35 40.5 58.5t71.5 23.5h11q40 0 62.5 -23.5t14.5 -58.5
q-7 -35 -39.5 -58.5t-72.5 -23.5zM787 -31q-123 0 -222 40.5t-165.5 119t-89 194t8.5 266.5l135 633q15 71 -6.5 95t-116.5 39l19 88h575l-18 -88q-115 -16 -149.5 -39.5t-49.5 -94.5l-134 -621q-50 -231 34.5 -347.5t259.5 -116.5q152 0 270.5 104t163.5 314l137 667
q5 26 7 41.5t-1.5 30t-12 23t-27 16.5t-43.5 13t-64 10l18 88h455l-19 -88q-101 -15 -132 -39t-47 -95l-152 -685q-59 -272 -227 -420t-407 -148z" />
    <glyph glyph-name="udieresisacute" unicode="&#x1d8;" horiz-adv-x="1199" 
d="M1169 1534l-596 -91l19 92l610 156zM620 1157h-11q-42 0 -65 27.5t-14 68.5t43.5 69.5t76.5 28.5h11q42 0 65 -28.5t14 -69.5t-43.5 -68.5t-76.5 -27.5zM967 1157h-11q-42 0 -64.5 27.5t-13.5 68.5q8 41 43 69.5t77 28.5h11q41 0 64 -28.5t14 -69.5q-8 -41 -43 -68.5
t-77 -27.5zM618 1024l-147 -695q-20 -97 12.5 -148.5t105.5 -51.5q95 0 167 78.5t99 206.5l82 384q8 35 -2.5 51.5t-47.5 23.5l-86 14l17 78l403 59l-172 -803q-18 -88 50 -88q72 0 124 44l-19 -92q-36 -44 -109 -73t-141 -29q-84 0 -117.5 51t-15.5 144q0 2 4.5 20t4.5 19
q-59 -117 -148.5 -178.5t-195.5 -61.5q-149 0 -215.5 99.5t-32.5 263.5l97 458q7 36 -3 52t-47 23l-90 14l18 84z" />
    <glyph glyph-name="Udieresiscaron" unicode="&#x1d9;" horiz-adv-x="1509" 
d="M1507 1983l-16 -76l-295 -137h-58l-237 137l17 76l275 -89zM946 1549h-11q-40 0 -62 23.5t-15 58.5q8 35 40 58.5t72 23.5h12q39 0 61 -24t14 -58q-7 -35 -39 -58.5t-72 -23.5zM1276 1549h-11q-41 0 -62.5 23.5t-14.5 58.5q8 35 40.5 58.5t71.5 23.5h11q40 0 62.5 -23.5
t14.5 -58.5q-7 -35 -39.5 -58.5t-72.5 -23.5zM787 -31q-123 0 -222 40.5t-165.5 119t-89 194t8.5 266.5l135 633q15 71 -6.5 95t-116.5 39l19 88h575l-18 -88q-115 -16 -149.5 -39.5t-49.5 -94.5l-134 -621q-50 -231 34.5 -347.5t259.5 -116.5q152 0 270.5 104t163.5 314
l137 667q5 26 7 41.5t-1.5 30t-12 23t-27 16.5t-43.5 13t-64 10l18 88h455l-19 -88q-101 -15 -132 -39t-47 -95l-152 -685q-59 -272 -227 -420t-407 -148z" />
    <glyph glyph-name="udieresiscaron" unicode="&#x1da;" horiz-adv-x="1199" 
d="M1206 1702l-21 -93l-294 -168h-57l-224 168l20 93l264 -109zM620 1157h-11q-42 0 -65 27.5t-14 68.5t43.5 69.5t76.5 28.5h11q42 0 65 -28.5t14 -69.5t-43.5 -68.5t-76.5 -27.5zM967 1157h-11q-42 0 -64.5 27.5t-13.5 68.5q8 41 43 69.5t77 28.5h11q41 0 64 -28.5
t14 -69.5q-8 -41 -43 -68.5t-77 -27.5zM618 1024l-147 -695q-20 -97 12.5 -148.5t105.5 -51.5q95 0 167 78.5t99 206.5l82 384q8 35 -2.5 51.5t-47.5 23.5l-86 14l17 78l403 59l-172 -803q-18 -88 50 -88q72 0 124 44l-19 -92q-36 -44 -109 -73t-141 -29q-84 0 -117.5 51
t-15.5 144q0 2 4.5 20t4.5 19q-59 -117 -148.5 -178.5t-195.5 -61.5q-149 0 -215.5 99.5t-32.5 263.5l97 458q7 36 -3 52t-47 23l-90 14l18 84z" />
    <glyph glyph-name="Udieresisgrave" unicode="&#x1db;" horiz-adv-x="1509" 
d="M888 1849l27 133l564 -133l-17 -78zM946 1549h-11q-40 0 -62 23.5t-15 58.5q8 35 40 58.5t72 23.5h12q39 0 61 -24t14 -58q-7 -35 -39 -58.5t-72 -23.5zM1276 1549h-11q-41 0 -62.5 23.5t-14.5 58.5q8 35 40.5 58.5t71.5 23.5h11q40 0 62.5 -23.5t14.5 -58.5
q-7 -35 -39.5 -58.5t-72.5 -23.5zM787 -31q-123 0 -222 40.5t-165.5 119t-89 194t8.5 266.5l135 633q15 71 -6.5 95t-116.5 39l19 88h575l-18 -88q-115 -16 -149.5 -39.5t-49.5 -94.5l-134 -621q-50 -231 34.5 -347.5t259.5 -116.5q152 0 270.5 104t163.5 314l137 667
q5 26 7 41.5t-1.5 30t-12 23t-27 16.5t-43.5 13t-64 10l18 88h455l-19 -88q-101 -15 -132 -39t-47 -95l-152 -685q-59 -272 -227 -420t-407 -148z" />
    <glyph glyph-name="udieresisgrave" unicode="&#x1dc;" horiz-adv-x="1199" 
d="M593 1534l32 157l544 -156l-19 -92zM620 1157h-11q-42 0 -65 27.5t-14 68.5t43.5 69.5t76.5 28.5h11q42 0 65 -28.5t14 -69.5t-43.5 -68.5t-76.5 -27.5zM967 1157h-11q-42 0 -64.5 27.5t-13.5 68.5q8 41 43 69.5t77 28.5h11q41 0 64 -28.5t14 -69.5q-8 -41 -43 -68.5
t-77 -27.5zM618 1024l-147 -695q-20 -97 12.5 -148.5t105.5 -51.5q95 0 167 78.5t99 206.5l82 384q8 35 -2.5 51.5t-47.5 23.5l-86 14l17 78l403 59l-172 -803q-18 -88 50 -88q72 0 124 44l-19 -92q-36 -44 -109 -73t-141 -29q-84 0 -117.5 51t-15.5 144q0 2 4.5 20t4.5 19
q-59 -117 -148.5 -178.5t-195.5 -61.5q-149 0 -215.5 99.5t-32.5 263.5l97 458q7 36 -3 52t-47 23l-90 14l18 84z" />
    <glyph glyph-name="Adieresismacron" unicode="&#x1de;" horiz-adv-x="1398" 
d="M774 1826l22 101h590l-21 -101h-591zM838 1549h-12q-40 0 -61.5 23.5t-14.5 58.5q8 35 40 58.5t72 23.5h11q39 0 61.5 -24t14.5 -58q-7 -35 -39.5 -58.5t-71.5 -23.5zM1167 1549h-11q-40 0 -62 23.5t-15 58.5q8 35 40.5 58.5t71.5 23.5h12q40 0 62 -23.5t14 -58.5
q-7 -35 -39 -58.5t-73 -23.5zM1261 281q15 -114 43.5 -148t117.5 -45l-18 -88h-593l18 88q119 15 148.5 50t17.5 145l-23 204h-471l-109 -204q-25 -47 -36 -75.5t-12.5 -51t14.5 -34.5t42 -20t73 -14l-18 -88h-462l19 88q97 11 138.5 44.5t108.5 154.5l644 1157h207z
M559 595h401l-70 621z" />
    <glyph glyph-name="adieresismacron" unicode="&#x1df;" horiz-adv-x="1158" 
d="M564 1495l25 119h577l-26 -119h-576zM599 1157h-11q-42 0 -65 27.5t-13 68.5q8 41 43 69.5t76 28.5h12q42 0 64.5 -28.5t14.5 -69.5q-10 -41 -44.5 -68.5t-76.5 -27.5zM947 1157h-12q-42 0 -64.5 27.5t-13.5 68.5t43.5 69.5t76.5 28.5h11q42 0 65 -28.5t13 -69.5
q-8 -41 -42.5 -68.5t-76.5 -27.5zM190 348q0 182 66.5 338t190 251.5t276.5 95.5q88 0 149.5 -33t90.5 -85l91 95h127l-170 -789q-20 -88 50 -88q72 0 124 44l-19 -92q-37 -44 -109.5 -73t-141.5 -29q-83 0 -116.5 51t-14.5 144q0 3 4 20t5 19q-52 -117 -136.5 -178.5
t-190.5 -61.5q-117 0 -196.5 97.5t-79.5 273.5zM434 366q-1 -241 142 -241q78 0 145.5 78t98.5 221l87 408q-10 36 -51.5 60.5t-100.5 24.5q-76 0 -139 -51.5t-101.5 -133.5t-59.5 -177t-21 -189z" />
    <glyph glyph-name="Adotmacron" unicode="&#x1e0;" horiz-adv-x="1398" 
d="M769 1801l21 102h591l-22 -102h-590zM1031 1542q-45 0 -75 25.5t-30 64.5q-1 37 28 62.5t72 25.5t74 -25.5t31 -62.5q0 -39 -28.5 -64.5t-71.5 -25.5zM1261 281q15 -114 43.5 -148t117.5 -45l-18 -88h-593l18 88q119 15 148.5 50t17.5 145l-23 204h-471l-109 -204
q-25 -47 -36 -75.5t-12.5 -51t14.5 -34.5t42 -20t73 -14l-18 -88h-462l19 88q97 11 138.5 44.5t108.5 154.5l644 1157h207zM559 595h401l-70 621z" />
    <glyph glyph-name="adotmacron" unicode="&#x1e1;" horiz-adv-x="1158" 
d="M562 1482l25 120h576l-25 -120h-576zM804 1158q-46 0 -77.5 30t-31.5 75q0 44 31.5 74.5t77.5 30.5q45 0 76 -30.5t31 -74.5q0 -45 -31 -75t-76 -30zM190 348q0 182 66.5 338t190 251.5t276.5 95.5q88 0 149.5 -33t90.5 -85l91 95h127l-170 -789q-20 -88 50 -88
q72 0 124 44l-19 -92q-37 -44 -109.5 -73t-141.5 -29q-83 0 -116.5 51t-14.5 144q0 3 4 20t5 19q-52 -117 -136.5 -178.5t-190.5 -61.5q-117 0 -196.5 97.5t-79.5 273.5zM434 366q-1 -241 142 -241q78 0 145.5 78t98.5 221l87 408q-10 36 -51.5 60.5t-100.5 24.5
q-76 0 -139 -51.5t-101.5 -133.5t-59.5 -177t-21 -189z" />
    <glyph glyph-name="AEmacron" unicode="&#x1e2;" horiz-adv-x="1999" 
d="M1268 1637l29 134h521l-29 -134h-521zM2131 1444l-67 -371h-76q-2 56 -7 91t-17 66t-30 47.5t-50.5 29t-74.5 17.5t-105 8l-232 11l-102 -550h239q50 0 80 35.5t80 161.5h76l-106 -505h-75q4 85 -2 127t-23 56.5t-53 14.5h-237l-108 -582l245 11q84 4 138 12t102.5 26
t82 52t64 84t61.5 127h75l-103 -413h-1098l19 88q42 4 67 8t46 12t31 15.5t19 26t13 35t10 49.5l60 324h-454l-203 -305q-26 -40 -37.5 -64t-14 -42.5t14 -29t43 -17t76.5 -12.5l-19 -88h-484l17 88q100 10 146 39t112 126l819 1191h1042zM1135 1334l-442 -664h401l124 664
h-83z" />
    <glyph glyph-name="aemacron" unicode="&#x1e3;" horiz-adv-x="1524" 
d="M746 1267l31 147h578l-31 -147h-578zM269 790q0 102 107.5 172.5t261.5 70.5q235 0 327 -150q145 150 335 150q145 0 230 -64t85 -174q0 -61 -29 -112t-90 -93t-166.5 -69.5t-249.5 -35.5l-69 -4q0 -6 -0.5 -18t-0.5 -19q0 -152 68.5 -236t192.5 -84q132 0 239 89
l-20 -92q-52 -66 -139 -105t-191 -39q-133 0 -227.5 72.5t-130.5 207.5q-37 -126 -128.5 -203t-227.5 -77q-130 0 -213 69t-83 184q0 145 130 229t377 103l150 12l6 42q20 150 -34.5 223.5t-166.5 73.5q-79 0 -142 -29q46 -35 46 -93q0 -49 -36.5 -84t-88.5 -35
q-51 0 -86.5 33.5t-35.5 84.5zM1284 920q-98 0 -170 -95.5t-95 -251.5l56 5q173 16 252.5 76.5t79.5 148.5q0 55 -33.5 86t-89.5 31zM382 265q0 -69 42 -105.5t113 -36.5q101 0 165.5 80.5t89.5 260.5l2 15l-109 -9q-303 -28 -303 -205z" />
    <glyph glyph-name="Gcaron" unicode="&#x1e6;" horiz-adv-x="1570" 
d="M1361 1880h102l-250 -290h-158l-128 290h96l135 -148zM253 651q1 175 59 327t161 261.5t252 172.5t325 63q162 0 303 -47t215 -112l-56 -312l-78 5q-7 168 -93 256t-249 88q-113 0 -215.5 -54.5t-178.5 -150.5t-120.5 -235.5t-44.5 -299.5q0 -233 115.5 -376.5
t304.5 -143.5q62 0 122 14.5t96 39.5l72 343q6 29 6 44.5t-6 29t-26.5 20.5t-49.5 12t-82 10l18 87h563l-18 -87q-54 -5 -83 -11t-48 -20.5t-26.5 -32.5t-15.5 -54l-84 -390q-68 -53 -200.5 -91t-266.5 -38q-296 1 -484 185.5t-187 496.5z" />
    <glyph glyph-name="gcaron" unicode="&#x1e7;" horiz-adv-x="1059" 
d="M976 1544h112l-289 -375h-168l-130 375h103l141 -199zM493 -454q-128 0 -229.5 28.5t-162.5 87t-61 138.5q0 78 79 138t212 86q-108 50 -110 153q-3 136 210 195q-91 39 -140 113.5t-49 167.5q0 159 113.5 268t307.5 110q140 0 238 -56l346 13l-24 -122l-228 25
q54 -77 54 -176q0 -159 -114 -269.5t-308 -110.5q-68 0 -121 13q-45 -15 -71.5 -39t-25.5 -52q1 -27 24 -45t87 -31l195 -38q287 -54 287 -270q0 -97 -72.5 -173t-187.5 -115t-249 -39zM474 627q0 -85 38.5 -141t111.5 -56q61 0 106.5 47t66.5 115.5t21 145.5q0 86 -39 142
t-111 56q-62 0 -107.5 -48t-66 -116.5t-20.5 -144.5zM231 -175q0 -77 75.5 -124t202.5 -47q118 0 201 45t83 121q0 110 -178 141l-186 34q-5 1 -13 3q-185 -62 -185 -173z" />
    <glyph glyph-name="Kcaron" unicode="&#x1e8;" horiz-adv-x="1377" 
d="M1359 1880h103l-251 -290h-158l-127 290h96l135 -148zM525 207q-14 -66 8 -87.5t122 -31.5l-18 -88h-580l18 88q62 6 95 12.5t54.5 21t30 32.5t15.5 53l219 1030q6 28 6 44t-5.5 30t-23.5 21.5t-46 13t-75 10.5l19 88h580l-18 -88q-73 -7 -107.5 -19t-49.5 -33t-25 -67
l-94 -440h148l386 382q95 95 87 131t-122 46l18 88h500l-19 -88q-94 -16 -157.5 -58.5t-214.5 -179.5l-280 -259l201 -493q62 -152 104.5 -209.5t98.5 -74.5l-18 -82h-327l-276 693h-151z" />
    <glyph glyph-name="kcaron" unicode="&#x1e9;" horiz-adv-x="1100" 
d="M876 1880h103l-250 -290h-159l-127 290h96l135 -148zM949 -17q-84 0 -140.5 65.5t-105.5 214.5l-76 232l-115 -90l-86 -405h-235l270 1271q8 35 -2.5 51.5t-47.5 23.5l-90 14l19 84l404 52l-207 -976l319 272q62 53 77.5 82t-7 42.5t-89.5 19.5l15 74h445l-15 -74
q-74 -14 -141.5 -51.5t-192.5 -137.5l-137 -108l106 -305q40 -117 75 -159.5t80 -42.5q53 0 92 39l-19 -91q-70 -97 -196 -97z" />
    <glyph glyph-name="Oogonek" unicode="&#x1ea;" horiz-adv-x="1594" 
d="M809 -485q-91 0 -149 49t-58 126q0 76 57.5 150t159.5 138q-135 12 -244.5 70t-181 147.5t-110 203.5t-38.5 243q0 159 54 307.5t150 264.5t242 186t317 70q151 0 275 -53t205 -144.5t124.5 -212t43.5 -257.5q0 -157 -52.5 -303.5t-146 -262t-235.5 -187t-309 -75.5
q-98 -98 -98 -208q0 -58 27.5 -95t72.5 -37q49 0 86 30l-18 -86q-62 -64 -174 -64zM878 97q145 0 262 110t179 284t62 371q0 236 -97 360.5t-261 124.5q-111 0 -207 -64.5t-160 -171t-100 -244t-36 -284.5q0 -236 97 -361t261 -125z" />
    <glyph glyph-name="oogonek" unicode="&#x1eb;" horiz-adv-x="1139" 
d="M566 -485q-89 0 -145 50t-56 128t50.5 152.5t140.5 134.5q-168 19 -260 140t-92 303q0 120 39 230.5t108 194.5t172 134.5t223 50.5q194 0 301.5 -124t107.5 -321q0 -153 -59.5 -286t-174 -221t-260.5 -101q-84 -104 -84 -215q0 -61 29 -95.5t75 -34.5q49 0 86 30
l-18 -86q-29 -28 -79 -46t-104 -18zM620 91q72 0 129.5 52.5t91.5 137t52 180.5t18 191q0 130 -46 198.5t-126 68.5q-72 0 -130 -52.5t-92 -136.5t-52 -180t-18 -192q0 -130 46.5 -198.5t126.5 -68.5z" />
    <glyph glyph-name="Oogonekmacron" unicode="&#x1ec;" horiz-adv-x="1594" 
d="M826 1637l29 134h521l-29 -134h-521zM809 -485q-91 0 -149 49t-58 126q0 76 57.5 150t159.5 138q-135 12 -244.5 70t-181 147.5t-110 203.5t-38.5 243q0 159 54 307.5t150 264.5t242 186t317 70q151 0 275 -53t205 -144.5t124.5 -212t43.5 -257.5q0 -157 -52.5 -303.5
t-146 -262t-235.5 -187t-309 -75.5q-98 -98 -98 -208q0 -58 27.5 -95t72.5 -37q49 0 86 30l-18 -86q-62 -64 -174 -64zM878 97q145 0 262 110t179 284t62 371q0 236 -97 360.5t-261 124.5q-111 0 -207 -64.5t-160 -171t-100 -244t-36 -284.5q0 -236 97 -361t261 -125z" />
    <glyph glyph-name="oogonekmacron" unicode="&#x1ed;" horiz-adv-x="1139" 
d="M497 1267l31 147h578l-31 -147h-578zM566 -485q-89 0 -145 50t-56 128t50.5 152.5t140.5 134.5q-168 19 -260 140t-92 303q0 120 39 230.5t108 194.5t172 134.5t223 50.5q194 0 301.5 -124t107.5 -321q0 -153 -59.5 -286t-174 -221t-260.5 -101q-84 -104 -84 -215
q0 -61 29 -95.5t75 -34.5q49 0 86 30l-18 -86q-29 -28 -79 -46t-104 -18zM620 91q72 0 129.5 52.5t91.5 137t52 180.5t18 191q0 130 -46 198.5t-126 68.5q-72 0 -130 -52.5t-92 -136.5t-52 -180t-18 -192q0 -130 46.5 -198.5t126.5 -68.5z" />
    <glyph glyph-name="uni01F1" unicode="&#x1f1;" horiz-adv-x="2734" 
d="M1585 826q0 -178 -73.5 -331.5t-203.5 -262t-314 -170.5t-398 -62h-539l18 88q61 6 94 12.5t55 21t30 32.5t16 53l220 1030q14 66 -10 87t-135 32l19 88h488q340 0 536 -167.5t197 -450.5zM2652 0h-1054l17 82l1007 1261l-300 -11q-76 -3 -125 -10.5t-89 -23t-68 -46.5
t-51.5 -71.5t-50.5 -107.5h-78l89 371h993l-17 -82l-1008 -1261l299 12q73 3 118.5 7t93 15.5t77 30.5t61 52.5t57 80t52.5 114.5h78zM1302 845q0 211 -117 345.5t-341 147.5l-78 5l-263 -1242l104 5q204 9 361.5 102t245.5 258t88 379z" />
    <glyph glyph-name="uni01F2" unicode="&#x1f2;" horiz-adv-x="2467" 
d="M1585 826q0 -178 -73.5 -331.5t-203.5 -262t-314 -170.5t-398 -62h-539l18 88q61 6 94 12.5t55 21t30 32.5t16 53l220 1030q14 66 -10 87t-135 32l19 88h488q340 0 536 -167.5t197 -450.5zM1302 845q0 211 -117 345.5t-341 147.5l-78 5l-263 -1242l104 5q204 9 361.5 102
t245.5 258t88 379zM1621 47l687 775h-318q-68 0 -96.5 -23.5t-62.5 -109.5h-77l81 321h739l-19 -85l-566 -626l65 -40q81 -49 131 -68t110 -19q97 0 172 119l59 -50q-132 -264 -336 -264q-70 0 -135 23.5t-160 87.5l-60 40l-1 -1l-135 -153z" />
    <glyph glyph-name="uni01F3" unicode="&#x1f3;" horiz-adv-x="2100" 
d="M190 348q0 182 66.5 338t190 251.5t276.5 95.5q140 0 210 -77l67 315q7 35 -3 51.5t-47 23.5l-90 14l19 84l404 52l-270 -1275q-20 -88 48 -88q73 0 125 44l-20 -92q-36 -44 -108.5 -73t-141.5 -29q-84 0 -117.5 51t-14.5 144q0 3 4 20t5 19q-52 -117 -136.5 -178.5
t-190.5 -61.5q-117 0 -196.5 97.5t-79.5 273.5zM1254 47l688 775h-319q-68 0 -96.5 -23.5t-61.5 -109.5h-78l81 321h739l-18 -85l-567 -626l66 -40q80 -49 130.5 -68t110.5 -19q96 0 171 119l60 -50q-132 -264 -337 -264q-70 0 -135 23.5t-159 87.5l-61 40l-1 -1l-135 -153z
M434 366q-1 -241 142 -241q78 0 145.5 78t98.5 221l87 408q-10 36 -51.5 60.5t-100.5 24.5q-76 0 -139 -51.5t-101.5 -133.5t-59.5 -177t-21 -189z" />
    <glyph glyph-name="Gacute" unicode="&#x1f4;" horiz-adv-x="1570" 
d="M1246 1855l222 -1v-9l-351 -279h-96zM253 651q1 175 59 327t161 261.5t252 172.5t325 63q162 0 303 -47t215 -112l-56 -312l-78 5q-7 168 -93 256t-249 88q-113 0 -215.5 -54.5t-178.5 -150.5t-120.5 -235.5t-44.5 -299.5q0 -233 115.5 -376.5t304.5 -143.5
q62 0 122 14.5t96 39.5l72 343q6 29 6 44.5t-6 29t-26.5 20.5t-49.5 12t-82 10l18 87h563l-18 -87q-54 -5 -83 -11t-48 -20.5t-26.5 -32.5t-15.5 -54l-84 -390q-68 -53 -200.5 -91t-266.5 -38q-296 1 -484 185.5t-187 496.5z" />
    <glyph glyph-name="gacute" unicode="&#x1f5;" horiz-adv-x="1059" 
d="M855 1544h273v-12l-413 -363h-114zM493 -454q-128 0 -229.5 28.5t-162.5 87t-61 138.5q0 78 79 138t212 86q-108 50 -110 153q-3 136 210 195q-91 39 -140 113.5t-49 167.5q0 159 113.5 268t307.5 110q140 0 238 -56l346 13l-24 -122l-228 25q54 -77 54 -176
q0 -159 -114 -269.5t-308 -110.5q-68 0 -121 13q-45 -15 -71.5 -39t-25.5 -52q1 -27 24 -45t87 -31l195 -38q287 -54 287 -270q0 -97 -72.5 -173t-187.5 -115t-249 -39zM474 627q0 -85 38.5 -141t111.5 -56q61 0 106.5 47t66.5 115.5t21 145.5q0 86 -39 142t-111 56
q-62 0 -107.5 -48t-66 -116.5t-20.5 -144.5zM231 -175q0 -77 75.5 -124t202.5 -47q118 0 201 45t83 121q0 110 -178 141l-186 34q-5 1 -13 3q-185 -62 -185 -173z" />
    <glyph glyph-name="Ngrave" unicode="&#x1f8;" horiz-adv-x="1530" 
d="M1009 1855l114 -288h-81l-234 279v9h201zM744 1444l526 -1175l187 953q6 27 7.5 42.5t-2 31t-12 23.5t-27 15.5t-43 12t-64.5 9.5l19 88h455l-19 -88q-100 -13 -131.5 -36.5t-48.5 -97.5l-269 -1222h-226l-526 1174l-188 -951q-5 -37 -7.5 -59.5t14.5 -37.5t46.5 -23
t88.5 -15l-19 -88h-456l19 88q101 13 132.5 37t47.5 97l218 988q14 51 8.5 81.5t-35 44t-101.5 20.5l18 88h388z" />
    <glyph glyph-name="ngrave" unicode="&#x1f9;" horiz-adv-x="1215" 
d="M827 1544l113 -375h-99l-264 363v12h250zM632 1023l-55 -252q128 262 353 262q150 0 212 -96t26 -263l-97 -453q-20 -88 49 -88q73 0 125 44l-19 -92q-37 -44 -110 -73t-143 -29q-187 0 -140 228l98 468q21 99 -9 153.5t-100 54.5q-86 0 -166.5 -92t-110.5 -228
l-119 -567h-235l170 798q7 36 -3 52t-47 23l-90 14l18 84z" />
    <glyph glyph-name="Aringacute" unicode="&#x1fa;" horiz-adv-x="1398" 
d="M1365 1833l-606 -78l15 77l620 134zM1042 1504h-83q-90 0 -138 30.5t-37 81.5q10 50 71 80t151 30h83q91 0 138.5 -30t37.5 -80q-11 -51 -71.5 -81.5t-151.5 -30.5zM1048 1573q31 0 50.5 11.5t23.5 31.5q4 19 -10.5 30.5t-45.5 11.5h-64q-31 0 -50.5 -11.5t-23.5 -30.5
q-4 -20 10 -31.5t45 -11.5h65zM1261 281q15 -114 43.5 -148t117.5 -45l-18 -88h-593l18 88q119 15 148.5 50t17.5 145l-23 204h-471l-109 -204q-25 -47 -36 -75.5t-12.5 -51t14.5 -34.5t42 -20t73 -14l-18 -88h-462l19 88q97 11 138.5 44.5t108.5 154.5l644 1157h207z
M559 595h401l-70 621z" />
    <glyph glyph-name="aringacute" unicode="&#x1fb;" horiz-adv-x="1158" 
d="M1149 1538l-596 -92l19 92l610 156zM814 1110h-87q-95 0 -143.5 40.5t-34.5 107.5q13 67 79.5 107.5t161.5 40.5h87q96 0 144.5 -40.5t34.5 -107.5t-80 -107.5t-162 -40.5zM824 1201q32 0 53.5 16t26.5 41q5 26 -9 41.5t-46 15.5h-69q-31 0 -53 -16t-27 -41t9.5 -41
t46.5 -16h68zM190 348q0 182 66.5 338t190 251.5t276.5 95.5q88 0 149.5 -33t90.5 -85l91 95h127l-170 -789q-20 -88 50 -88q72 0 124 44l-19 -92q-37 -44 -109.5 -73t-141.5 -29q-83 0 -116.5 51t-14.5 144q0 3 4 20t5 19q-52 -117 -136.5 -178.5t-190.5 -61.5
q-117 0 -196.5 97.5t-79.5 273.5zM434 366q-1 -241 142 -241q78 0 145.5 78t98.5 221l87 408q-10 36 -51.5 60.5t-100.5 24.5q-76 0 -139 -51.5t-101.5 -133.5t-59.5 -177t-21 -189z" />
    <glyph glyph-name="AEacute" unicode="&#x1fc;" horiz-adv-x="1999" 
d="M1634 1855l223 -1v-9l-352 -279h-96zM2131 1444l-67 -371h-76q-2 56 -7 91t-17 66t-30 47.5t-50.5 29t-74.5 17.5t-105 8l-232 11l-102 -550h239q50 0 80 35.5t80 161.5h76l-106 -505h-75q4 85 -2 127t-23 56.5t-53 14.5h-237l-108 -582l245 11q84 4 138 12t102.5 26
t82 52t64 84t61.5 127h75l-103 -413h-1098l19 88q42 4 67 8t46 12t31 15.5t19 26t13 35t10 49.5l60 324h-454l-203 -305q-26 -40 -37.5 -64t-14 -42.5t14 -29t43 -17t76.5 -12.5l-19 -88h-484l17 88q100 10 146 39t112 126l819 1191h1042zM1135 1334l-442 -664h401l124 664
h-83z" />
    <glyph glyph-name="aeacute" unicode="&#x1fd;" horiz-adv-x="1524" 
d="M1155 1544h272v-12l-413 -363h-114zM269 790q0 102 107.5 172.5t261.5 70.5q235 0 327 -150q145 150 335 150q145 0 230 -64t85 -174q0 -61 -29 -112t-90 -93t-166.5 -69.5t-249.5 -35.5l-69 -4q0 -6 -0.5 -18t-0.5 -19q0 -152 68.5 -236t192.5 -84q132 0 239 89l-20 -92
q-52 -66 -139 -105t-191 -39q-133 0 -227.5 72.5t-130.5 207.5q-37 -126 -128.5 -203t-227.5 -77q-130 0 -213 69t-83 184q0 145 130 229t377 103l150 12l6 42q20 150 -34.5 223.5t-166.5 73.5q-79 0 -142 -29q46 -35 46 -93q0 -49 -36.5 -84t-88.5 -35q-51 0 -86.5 33.5
t-35.5 84.5zM1284 920q-98 0 -170 -95.5t-95 -251.5l56 5q173 16 252.5 76.5t79.5 148.5q0 55 -33.5 86t-89.5 31zM382 265q0 -69 42 -105.5t113 -36.5q101 0 165.5 80.5t89.5 260.5l2 15l-109 -9q-303 -28 -303 -205z" />
    <glyph glyph-name="Oslashacute" unicode="&#x1fe;" horiz-adv-x="1594" 
d="M1192 1855l223 -1v-9l-352 -279h-96zM893 -26q-276 0 -450 168l-163 -162l-75 75l168 168q-126 173 -128 419q0 159 54 307.5t150 264.5t242 186t317 70q275 0 450 -167l162 160l74 -75l-166 -166q128 -175 128 -419q0 -127 -33.5 -248.5t-100 -226t-157 -184
t-212.5 -125t-260 -45.5zM520 583q0 -109 21 -193l779 775q-46 90 -122 136t-175 46q-111 0 -207 -64.5t-160 -171t-100 -244t-36 -284.5zM878 97q145 0 262 110t179 284t62 371q0 109 -21 193l-779 -776q92 -182 297 -182z" />
    <glyph glyph-name="oslashacute" unicode="&#x1ff;" horiz-adv-x="1138" 
d="M904 1543h273v-13l-413 -362h-114zM610 -23q-170 0 -277 102l-99 -101l-72 70l107 110q-65 110 -65 263q0 120 38.5 230.5t107 194.5t171 134.5t221.5 50.5q172 0 280 -103l103 105l72 -71l-112 -115q63 -108 63 -260q0 -120 -38.5 -230t-107 -194.5t-171 -135
t-221.5 -50.5zM442 359v-24l448 458q-41 127 -155 127q-72 0 -130.5 -52.5t-92.5 -136.5t-52 -180t-18 -192zM617 89q72 0 130.5 52.5t92.5 136.5t52 180t18 192q0 3 -0.5 9t-0.5 9l-446 -456q42 -123 154 -123z" />
    <glyph glyph-name="Adblgrave" unicode="&#x200;" horiz-adv-x="1398" 
d="M847 1856l104 -290h-85l-192 283v7h173zM1144 1856l34 -290h-80l-117 283v7h163zM1261 281q15 -114 43.5 -148t117.5 -45l-18 -88h-593l18 88q119 15 148.5 50t17.5 145l-23 204h-471l-109 -204q-25 -47 -36 -75.5t-12.5 -51t14.5 -34.5t42 -20t73 -14l-18 -88h-462
l19 88q97 11 138.5 44.5t108.5 154.5l644 1157h207zM559 595h401l-70 621z" />
    <glyph glyph-name="adblgrave" unicode="&#x201;" horiz-adv-x="1158" 
d="M579 1544l128 -375h-107l-237 367v8h216zM951 1544l40 -375h-100l-145 367v8h205zM190 348q0 182 66.5 338t190 251.5t276.5 95.5q88 0 149.5 -33t90.5 -85l91 95h127l-170 -789q-20 -88 50 -88q72 0 124 44l-19 -92q-37 -44 -109.5 -73t-141.5 -29q-83 0 -116.5 51
t-14.5 144q0 3 4 20t5 19q-52 -117 -136.5 -178.5t-190.5 -61.5q-117 0 -196.5 97.5t-79.5 273.5zM434 366q-1 -241 142 -241q78 0 145.5 78t98.5 221l87 408q-10 36 -51.5 60.5t-100.5 24.5q-76 0 -139 -51.5t-101.5 -133.5t-59.5 -177t-21 -189z" />
    <glyph glyph-name="Ainvertedbreve" unicode="&#x202;" horiz-adv-x="1398" 
d="M1044 1891q109 0 180 -60.5t72 -154.5q0 -42 -17 -89h-87q3 12 3 31q0 53 -44 89t-113 36q-80 0 -129 -40.5t-62 -115.5h-87q5 141 80 222.5t204 81.5zM1261 281q15 -114 43.5 -148t117.5 -45l-18 -88h-593l18 88q119 15 148.5 50t17.5 145l-23 204h-471l-109 -204
q-25 -47 -36 -75.5t-12.5 -51t14.5 -34.5t42 -20t73 -14l-18 -88h-462l19 88q97 11 138.5 44.5t108.5 154.5l644 1157h207zM559 595h401l-70 621z" />
    <glyph glyph-name="ainvertedbreve" unicode="&#x203;" horiz-adv-x="1158" 
d="M820 1532q120 0 197 -70.5t77 -180.5q0 -50 -20 -103h-92q2 16 2 35q0 61 -48 103t-125 42q-90 0 -144.5 -46.5t-70.5 -133.5h-92q8 165 91.5 259.5t224.5 94.5zM190 348q0 182 66.5 338t190 251.5t276.5 95.5q88 0 149.5 -33t90.5 -85l91 95h127l-170 -789
q-20 -88 50 -88q72 0 124 44l-19 -92q-37 -44 -109.5 -73t-141.5 -29q-83 0 -116.5 51t-14.5 144q0 3 4 20t5 19q-52 -117 -136.5 -178.5t-190.5 -61.5q-117 0 -196.5 97.5t-79.5 273.5zM434 366q-1 -241 142 -241q78 0 145.5 78t98.5 221l87 408q-10 36 -51.5 60.5
t-100.5 24.5q-76 0 -139 -51.5t-101.5 -133.5t-59.5 -177t-21 -189z" />
    <glyph glyph-name="Edblgrave" unicode="&#x204;" horiz-adv-x="1254" 
d="M774 1856l104 -290h-85l-192 283v7h173zM1071 1856l33 -290h-79l-117 283v7h163zM1428 1444l-68 -371h-78q-2 82 -14 130t-45.5 77t-83 40t-136.5 14l-237 9l-118 -553h243q50 0 80.5 36t82.5 164h74l-107 -503h-74q4 87 -2 129.5t-23 57t-53 14.5h-243l-123 -587l241 9
q75 3 119.5 7t90 16.5t72.5 31t56.5 53t52 80t50.5 115.5h78l-101 -413h-1105l18 88q61 6 94 12.5t55 21t30 32.5t16 53l220 1030q6 28 6 44t-5.5 30t-24 21.5t-46.5 13t-75 10.5l19 88h1064z" />
    <glyph glyph-name="edblgrave" unicode="&#x205;" horiz-adv-x="961" 
d="M537 1544l128 -375h-107l-236 367v8h215zM909 1544l40 -375h-100l-145 367v8h205zM595 -23q-78 0 -147.5 27.5t-125 80t-88 138t-32.5 192.5q0 132 45.5 248.5t120.5 196.5t173.5 126.5t202.5 46.5q131 0 211.5 -60.5t80.5 -161.5q0 -128 -138 -220t-402 -168l-50 -14
q10 -136 79 -210t179 -74q140 0 243 91l-20 -95q-54 -69 -143.5 -106.5t-188.5 -37.5zM726 923q-108 0 -188 -116t-91 -303l42 13q344 103 344 284q0 122 -107 122z" />
    <glyph glyph-name="Einvertedbreve" unicode="&#x206;" horiz-adv-x="1254" 
d="M971 1891q109 0 180 -60.5t72 -154.5q0 -44 -18 -89h-86q2 8 2 31q0 53 -43.5 89t-112.5 36q-80 0 -129 -40.5t-63 -115.5h-86q5 141 80 222.5t204 81.5zM1428 1444l-68 -371h-78q-2 82 -14 130t-45.5 77t-83 40t-136.5 14l-237 9l-118 -553h243q50 0 80.5 36t82.5 164
h74l-107 -503h-74q4 87 -2 129.5t-23 57t-53 14.5h-243l-123 -587l241 9q75 3 119.5 7t90 16.5t72.5 31t56.5 53t52 80t50.5 115.5h78l-101 -413h-1105l18 88q61 6 94 12.5t55 21t30 32.5t16 53l220 1030q6 28 6 44t-5.5 30t-24 21.5t-46.5 13t-75 10.5l19 88h1064z" />
    <glyph glyph-name="einvertedbreve" unicode="&#x207;" horiz-adv-x="961" 
d="M778 1532q119 0 196 -70.5t77 -180.5q0 -55 -20 -103h-92q2 8 2 35q0 61 -48 103t-125 42q-90 0 -144.5 -46.5t-70.5 -133.5h-92q8 165 92 259.5t225 94.5zM595 -23q-78 0 -147.5 27.5t-125 80t-88 138t-32.5 192.5q0 132 45.5 248.5t120.5 196.5t173.5 126.5t202.5 46.5
q131 0 211.5 -60.5t80.5 -161.5q0 -128 -138 -220t-402 -168l-50 -14q10 -136 79 -210t179 -74q140 0 243 91l-20 -95q-54 -69 -143.5 -106.5t-188.5 -37.5zM726 923q-108 0 -188 -116t-91 -303l42 13q344 103 344 284q0 122 -107 122z" />
    <glyph glyph-name="Idblgrave" unicode="&#x208;" horiz-adv-x="707" 
d="M515 1856l105 -290h-86l-191 283v7h172zM813 1856l33 -290h-79l-118 283v7h164zM525 207q-6 -28 -6 -44t5.5 -30t23.5 -21.5t46 -13t75 -10.5l-19 -88h-593l18 88q62 6 95 12.5t54.5 21t30 32.5t15.5 53l219 1030q5 32 6.5 52.5t-15 34t-46.5 20.5t-89 12l19 88h593
l-18 -88q-62 -6 -95 -12.5t-54.5 -21t-30 -32.5t-15.5 -53z" />
    <glyph glyph-name="idblgrave" unicode="&#x209;" horiz-adv-x="601" 
d="M304 1544l127 -375h-106l-237 367v8h216zM675 1544l40 -375h-100l-144 367v8h204zM622 1023l-171 -802q-18 -88 50 -88q70 0 124 44l-19 -92q-37 -44 -110 -73t-143 -29q-189 0 -140 228l125 587q8 36 -2 52t-48 23l-90 14l19 84z" />
    <glyph glyph-name="Iinvertedbreve" unicode="&#x20a;" horiz-adv-x="707" 
d="M712 1891q109 0 180 -60.5t72 -154.5q0 -46 -17 -89h-87q3 12 3 31q0 53 -44 89t-113 36q-80 0 -128.5 -40.5t-62.5 -115.5h-86q5 142 80 223t203 81zM525 207q-6 -28 -6 -44t5.5 -30t23.5 -21.5t46 -13t75 -10.5l-19 -88h-593l18 88q62 6 95 12.5t54.5 21t30 32.5
t15.5 53l219 1030q5 32 6.5 52.5t-15 34t-46.5 20.5t-89 12l19 88h593l-18 -88q-62 -6 -95 -12.5t-54.5 -21t-30 -32.5t-15.5 -53z" />
    <glyph glyph-name="iinvertedbreve" unicode="&#x20b;" horiz-adv-x="601" 
d="M547 1532q107 0 174.5 -70.5t65.5 -180.5q0 -50 -20 -103h-83q3 12 3 35q2 61 -40.5 103t-112.5 42q-80 0 -130 -46.5t-67 -133.5h-83q11 165 88.5 259.5t204.5 94.5zM622 1023l-171 -802q-18 -88 50 -88q70 0 124 44l-19 -92q-37 -44 -110 -73t-143 -29q-189 0 -140 228
l125 587q8 36 -2 52t-48 23l-90 14l19 84z" />
    <glyph glyph-name="Odblgrave" unicode="&#x20c;" horiz-adv-x="1594" 
d="M905 1856l104 -290h-86l-191 283v7h173zM1202 1856l33 -290h-79l-118 283v7h164zM893 -26q-152 0 -275.5 53t-204 144.5t-124.5 212.5t-44 258q0 159 54 307.5t150 264.5t242 186t317 70q151 0 275 -53t205 -144.5t124.5 -212.5t43.5 -258q0 -159 -54 -307.5t-150 -264.5
t-242 -186t-317 -70zM877 97q146 0 263 110t179 284t62 371q0 236 -96.5 360.5t-260.5 124.5q-112 0 -208 -64.5t-160 -171.5t-100 -244.5t-36 -284.5q0 -236 96.5 -360.5t260.5 -124.5z" />
    <glyph glyph-name="odblgrave" unicode="&#x20d;" horiz-adv-x="1144" 
d="M564 1544l128 -375h-107l-236 367v8h215zM936 1544l40 -375h-100l-145 367v8h205zM613 -23q-194 0 -301.5 124.5t-107.5 321.5q0 161 66 299.5t191.5 224.5t284.5 86q194 0 301.5 -124t107.5 -321q0 -161 -66 -300t-191.5 -225t-284.5 -86zM620 91q72 0 129.5 52.5
t91.5 137t52 180.5t18 191q0 130 -46 198.5t-126 68.5q-72 0 -130 -52.5t-92 -136.5t-52 -180t-18 -192q0 -130 46.5 -198.5t126.5 -68.5z" />
    <glyph glyph-name="Oinvertedbreve" unicode="&#x20e;" horiz-adv-x="1594" 
d="M1101 1891q109 0 180 -60.5t72 -154.5q0 -46 -17 -89h-86q2 16 2 31q0 53 -44 89t-113 36q-80 0 -128.5 -40.5t-62.5 -115.5h-86q5 142 80 223t203 81zM893 -26q-152 0 -275.5 53t-204 144.5t-124.5 212.5t-44 258q0 159 54 307.5t150 264.5t242 186t317 70
q151 0 275 -53t205 -144.5t124.5 -212.5t43.5 -258q0 -159 -54 -307.5t-150 -264.5t-242 -186t-317 -70zM877 97q146 0 263 110t179 284t62 371q0 236 -96.5 360.5t-260.5 124.5q-112 0 -208 -64.5t-160 -171.5t-100 -244.5t-36 -284.5q0 -236 96.5 -360.5t260.5 -124.5z
" />
    <glyph glyph-name="oinvertedbreve" unicode="&#x20f;" horiz-adv-x="1144" 
d="M805 1532q119 0 196 -70.5t77 -180.5q0 -55 -20 -103h-92q2 8 2 35q0 61 -48 103t-125 42q-90 0 -144 -46.5t-70 -133.5h-93q8 165 92 259.5t225 94.5zM613 -23q-194 0 -301.5 124.5t-107.5 321.5q0 161 66 299.5t191.5 224.5t284.5 86q194 0 301.5 -124t107.5 -321
q0 -161 -66 -300t-191.5 -225t-284.5 -86zM620 91q72 0 129.5 52.5t91.5 137t52 180.5t18 191q0 130 -46 198.5t-126 68.5q-72 0 -130 -52.5t-92 -136.5t-52 -180t-18 -192q0 -130 46.5 -198.5t126.5 -68.5z" />
    <glyph glyph-name="Rdblgrave" unicode="&#x210;" horiz-adv-x="1384" 
d="M800 1856l104 -290h-85l-192 283v7h173zM1098 1856l33 -290h-80l-117 283v7h164zM1081 0l-248 623q-44 -4 -100 -4h-120l-88 -413q-14 -66 8 -87t123 -31l-18 -88h-582l19 88q81 8 117.5 19t52 31.5t25.5 67.5l221 1032q14 67 -10.5 87.5t-135.5 30.5l18 88h547
q250 0 389 -97.5t139 -272.5q0 -152 -100.5 -255t-269.5 -154l126 -308q64 -157 103 -209t98 -66l-18 -82h-296zM1173 1067q0 128 -77.5 197t-224.5 74l-104 3l-132 -621l127 4q190 5 300.5 93.5t110.5 249.5z" />
    <glyph glyph-name="rdblgrave" unicode="&#x211;" horiz-adv-x="846" 
d="M460 1544l128 -375h-107l-237 367v8h216zM832 1544l40 -375h-101l-144 367v8h205zM625 1023l-56 -273q109 156 176 215.5t136 59.5q50 0 77 -32t27 -87q0 -51 -24 -87q-37 14 -93 14q-93 0 -174 -41.5t-135 -119.5l-133 -672h-235l170 798q7 36 -3 52t-47 23l-90 14
l18 84z" />
    <glyph glyph-name="Rinvertedbreve" unicode="&#x212;" horiz-adv-x="1384" 
d="M997 1891q109 0 180 -60.5t72 -154.5q0 -46 -17 -89h-87q3 12 3 31q0 53 -44 89t-113 36q-80 0 -129 -40.5t-62 -115.5h-87q5 141 80 222.5t204 81.5zM1081 0l-248 623q-44 -4 -100 -4h-120l-88 -413q-14 -66 8 -87t123 -31l-18 -88h-582l19 88q81 8 117.5 19t52 31.5
t25.5 67.5l221 1032q14 67 -10.5 87.5t-135.5 30.5l18 88h547q250 0 389 -97.5t139 -272.5q0 -152 -100.5 -255t-269.5 -154l126 -308q64 -157 103 -209t98 -66l-18 -82h-296zM1173 1067q0 128 -77.5 197t-224.5 74l-104 3l-132 -621l127 4q190 5 300.5 93.5t110.5 249.5z
" />
    <glyph glyph-name="rinvertedbreve" unicode="&#x213;" horiz-adv-x="846" 
d="M700 1532q120 0 197 -70.5t77 -180.5q0 -50 -20 -103h-92q2 16 2 35q0 61 -48 103t-125 42q-90 0 -144.5 -46.5t-70.5 -133.5h-92q8 165 91.5 259.5t224.5 94.5zM625 1023l-56 -273q109 156 176 215.5t136 59.5q50 0 77 -32t27 -87q0 -51 -24 -87q-37 14 -93 14
q-93 0 -174 -41.5t-135 -119.5l-133 -672h-235l170 798q7 36 -3 52t-47 23l-90 14l18 84z" />
    <glyph glyph-name="Udblgrave" unicode="&#x214;" horiz-adv-x="1509" 
d="M956 1856l104 -290h-86l-191 283v7h173zM1253 1856l33 -290h-79l-117 283v7h163zM787 -31q-123 0 -222 40.5t-165.5 119t-89 194t8.5 266.5l135 633q15 71 -6.5 95t-116.5 39l19 88h575l-18 -88q-115 -16 -149.5 -39.5t-49.5 -94.5l-134 -621q-50 -231 34.5 -347.5
t259.5 -116.5q152 0 270.5 104t163.5 314l137 667q5 26 7 41.5t-1.5 30t-12 23t-27 16.5t-43.5 13t-64 10l18 88h455l-19 -88q-101 -15 -132 -39t-47 -95l-152 -685q-59 -272 -227 -420t-407 -148z" />
    <glyph glyph-name="udblgrave" unicode="&#x215;" horiz-adv-x="1199" 
d="M601 1544l127 -375h-106l-237 367v8h216zM972 1544l40 -375h-100l-144 367v8h204zM618 1024l-147 -695q-20 -97 12.5 -148.5t105.5 -51.5q95 0 167 78.5t99 206.5l82 384q8 35 -2.5 51.5t-47.5 23.5l-86 14l17 78l403 59l-172 -803q-18 -88 50 -88q72 0 124 44l-19 -92
q-36 -44 -109 -73t-141 -29q-84 0 -117.5 51t-15.5 144q0 2 4.5 20t4.5 19q-59 -117 -148.5 -178.5t-195.5 -61.5q-149 0 -215.5 99.5t-32.5 263.5l97 458q7 36 -3 52t-47 23l-90 14l18 84z" />
    <glyph glyph-name="Uinvertedbreve" unicode="&#x216;" horiz-adv-x="1509" 
d="M1153 1891q108 0 179.5 -60.5t72.5 -154.5q0 -44 -18 -89h-86q2 16 2 31q0 53 -43.5 89t-112.5 36q-80 0 -129 -40.5t-63 -115.5h-86q5 141 80 222.5t204 81.5zM787 -31q-123 0 -222 40.5t-165.5 119t-89 194t8.5 266.5l135 633q15 71 -6.5 95t-116.5 39l19 88h575
l-18 -88q-115 -16 -149.5 -39.5t-49.5 -94.5l-134 -621q-50 -231 34.5 -347.5t259.5 -116.5q152 0 270.5 104t163.5 314l137 667q5 26 7 41.5t-1.5 30t-12 23t-27 16.5t-43.5 13t-64 10l18 88h455l-19 -88q-101 -15 -132 -39t-47 -95l-152 -685q-59 -272 -227 -420
t-407 -148z" />
    <glyph glyph-name="uinvertedbreve" unicode="&#x217;" horiz-adv-x="1199" 
d="M841 1532q119 0 196 -70.5t77 -180.5q0 -55 -20 -103h-92q3 12 3 35q0 61 -48.5 103t-125.5 42q-89 0 -143.5 -46.5t-70.5 -133.5h-92q7 165 91 259.5t225 94.5zM618 1024l-147 -695q-20 -97 12.5 -148.5t105.5 -51.5q95 0 167 78.5t99 206.5l82 384q8 35 -2.5 51.5
t-47.5 23.5l-86 14l17 78l403 59l-172 -803q-18 -88 50 -88q72 0 124 44l-19 -92q-36 -44 -109 -73t-141 -29q-84 0 -117.5 51t-15.5 144q0 2 4.5 20t4.5 19q-59 -117 -148.5 -178.5t-195.5 -61.5q-149 0 -215.5 99.5t-32.5 263.5l97 458q7 36 -3 52t-47 23l-90 14l18 84z
" />
    <glyph glyph-name="Scommaaccent" unicode="&#x218;" horiz-adv-x="1148" 
d="M604 -31q-129 0 -264.5 37t-198.5 86l52 315h78q8 -149 99.5 -231.5t239.5 -82.5q121 0 204 65.5t83 175.5q0 83 -44 146.5t-153 131.5l-77 48q-146 90 -214 185.5t-68 217.5q0 182 138 297t375 115q128 0 246 -32.5t177 -79.5l-47 -315h-78q-8 148 -86.5 225.5
t-216.5 77.5q-114 0 -187.5 -57.5t-73.5 -153.5q0 -77 46.5 -139t158.5 -132l78 -48q143 -89 207.5 -184.5t64.5 -219.5q0 -134 -73.5 -237t-195.5 -157t-270 -54zM485 -491q-102 0 -173 47l18 79q60 -32 121 -32q53 0 84.5 21t31.5 58q0 33 -27.5 54.5t-71.5 21.5
q-46 0 -75 -11l17 76q65 54 155 54q77 0 128 -49t51 -129q0 -90 -69.5 -140t-189.5 -50z" />
    <glyph glyph-name="scommaaccent" unicode="&#x219;" horiz-adv-x="893" 
d="M132 86l46 246h77q3 -116 65 -180t160 -64q81 0 126 38t45 102q0 54 -27.5 93.5t-99.5 82.5l-70 41q-100 60 -147.5 129.5t-47.5 157.5q0 131 103.5 216t278.5 85q218 0 329 -77l-51 -249h-78q1 101 -52.5 158t-147.5 57q-75 0 -117 -34.5t-43 -92.5q0 -50 29 -86.5
t102 -81.5l71 -41q104 -63 147.5 -132.5t43.5 -162.5q0 -132 -110 -223t-284 -91q-109 0 -203 29.5t-145 79.5zM363 -491q-103 0 -174 47l18 79q60 -32 122 -32q52 0 83.5 21t31.5 58q0 33 -27.5 54.5t-71.5 21.5q-47 0 -74 -11l16 76q65 54 156 54q76 0 127 -49.5
t51 -128.5q0 -90 -69 -140t-189 -50z" />
    <glyph glyph-name="Tcommaaccent" unicode="&#x21a;" horiz-adv-x="1333" 
d="M1586 1444l-68 -371h-78q3 58 -0.5 97.5t-17.5 70t-34.5 48t-58.5 29t-82 16.5t-113 7l-55 2l-242 -1137q-6 -28 -6 -44t7 -29.5t27.5 -21t51.5 -13.5t84 -11l-19 -87h-631l18 87q69 7 105.5 13.5t60 21t32.5 32t16 52.5l242 1137l-55 -2q-85 -3 -137.5 -10t-98.5 -23
t-76.5 -46.5t-56.5 -74.5t-52 -114h-79l90 371h1226zM574 -491q-103 0 -174 47l18 79q60 -32 122 -32q52 0 83.5 21t31.5 58q0 33 -27.5 54.5t-71.5 21.5q-46 0 -75 -11l17 76q65 54 156 54q76 0 127 -49.5t51 -128.5q0 -90 -69 -140t-189 -50z" />
    <glyph glyph-name="tcommaaccent" unicode="&#x21b;" horiz-adv-x="745" 
d="M489 -18q-142 0 -204 92.5t-29 251.5l116 546h-159l16 80l166 26l43 200l246 36l-51 -234l287 9l-25 -117h-287l-110 -525q-47 -217 121 -217q106 0 166 54l-19 -91q-39 -50 -116.5 -80.5t-160.5 -30.5zM398 -491q-103 0 -174 47l18 79q60 -32 122 -32q52 0 83.5 21
t31.5 58q0 33 -27.5 54.5t-71.5 21.5q-46 0 -74 -11l16 76q65 54 156 54q76 0 127 -49.5t51 -128.5q0 -90 -69 -140t-189 -50z" />
    <glyph glyph-name="Hcaron" unicode="&#x21e;" horiz-adv-x="1604" 
d="M1372 1879h102l-250 -289h-158l-128 289h96l135 -147zM525 207q-14 -65 10.5 -87t126.5 -32l-18 -88h-590l19 88q80 8 118 20.5t54 34t26 67.5l218 1024q12 42 3.5 66.5t-40.5 36t-108 19.5l17 88h590l-18 -88q-75 -7 -111 -19t-52 -33.5t-26 -66.5l-95 -445h642l95 445
q14 66 -9.5 87.5t-128.5 31.5l19 88h589l-18 -88q-80 -8 -117.5 -20t-54 -34t-26.5 -68l-219 -1024q-13 -42 -3.5 -67t41.5 -36t108 -19l-18 -88h-589l18 88q77 7 112.5 18.5t51 33t25.5 67.5l101 476h-642z" />
    <glyph glyph-name="hcaron" unicode="&#x21f;" horiz-adv-x="1215" 
d="M871 1880h102l-250 -290h-159l-127 290h96l135 -148zM744 1496l-167 -725q128 262 353 262q150 0 212 -96t26 -263l-97 -453q-20 -88 49 -88q73 0 125 44l-19 -92q-37 -44 -110 -73t-143 -29q-187 0 -140 228l98 468q21 99 -9 153.5t-100 54.5q-84 0 -164.5 -86.5
t-107.5 -216.5l-123 -584h-236l270 1271q8 35 -2.5 51.5t-47.5 23.5l-90 14l19 84z" />
    <glyph glyph-name="Adotaccent" unicode="&#x226;" horiz-adv-x="1398" 
d="M1041 1597q-48 0 -79.5 31t-31.5 76q0 51 35 85.5t84 34.5q48 0 79.5 -31t31.5 -76q0 -50 -35 -85t-84 -35zM1261 281q15 -114 43.5 -148t117.5 -45l-18 -88h-593l18 88q119 15 148.5 50t17.5 145l-23 204h-471l-109 -204q-25 -47 -36 -75.5t-12.5 -51t14.5 -34.5t42 -20
t73 -14l-18 -88h-462l19 88q97 11 138.5 44.5t108.5 154.5l644 1157h207zM559 595h401l-70 621z" />
    <glyph glyph-name="adotaccent" unicode="&#x227;" horiz-adv-x="1158" 
d="M818 1222q-56 0 -92.5 36t-36.5 91q0 58 41 99t99 41q56 0 92.5 -36t36.5 -90q0 -59 -40.5 -100t-99.5 -41zM190 348q0 182 66.5 338t190 251.5t276.5 95.5q88 0 149.5 -33t90.5 -85l91 95h127l-170 -789q-20 -88 50 -88q72 0 124 44l-19 -92q-37 -44 -109.5 -73
t-141.5 -29q-83 0 -116.5 51t-14.5 144q0 3 4 20t5 19q-52 -117 -136.5 -178.5t-190.5 -61.5q-117 0 -196.5 97.5t-79.5 273.5zM434 366q-1 -241 142 -241q78 0 145.5 78t98.5 221l87 408q-10 36 -51.5 60.5t-100.5 24.5q-76 0 -139 -51.5t-101.5 -133.5t-59.5 -177
t-21 -189z" />
    <glyph glyph-name="Ecedilla" unicode="&#x228;" horiz-adv-x="1254" 
d="M533 -491q-117 0 -197 62l19 84q62 -40 144 -40q53 0 82.5 22t29.5 58q0 40 -33.5 62.5t-95.5 22.5h-23l17 81l127 139h-546l18 88q61 6 94 12.5t55 21t30 32.5t16 53l220 1030q6 28 6 44t-5.5 30t-24 21.5t-46.5 13t-75 10.5l19 88h1064l-68 -371h-78q-2 82 -14 130
t-45.5 77t-83 40t-136.5 14l-237 9l-118 -553h243q50 0 80.5 36t82.5 164h74l-107 -503h-74q4 87 -2 129.5t-23 57t-53 14.5h-243l-123 -587l241 9q75 3 119.5 7t90 16.5t72.5 31t56.5 53t52 80t50.5 115.5h78l-101 -413h-445l-100 -110q87 -12 135.5 -61t48.5 -125
q0 -88 -72 -141.5t-196 -53.5z" />
    <glyph glyph-name="ecedilla" unicode="&#x229;" horiz-adv-x="961" 
d="M496 -491q-117 0 -197 62l19 84q62 -40 144 -40q53 0 82.5 22t29.5 58q0 40 -33.5 62.5t-94.5 22.5h-24l17 81l109 119q-71 8 -132.5 39t-109.5 83.5t-76 133t-28 179.5q0 132 45.5 248.5t120.5 196.5t173.5 126.5t202.5 46.5q131 0 211.5 -60.5t80.5 -161.5
q0 -128 -138 -220t-402 -168l-50 -14q10 -136 79 -210t179 -74q140 0 243 91l-20 -95q-89 -115 -263 -139l-84 -92q87 -12 136 -61t49 -125q0 -88 -72 -141.5t-197 -53.5zM726 923q-108 0 -188 -116t-91 -303l42 13q344 103 344 284q0 122 -107 122z" />
    <glyph glyph-name="Odieresismacron" unicode="&#x22a;" horiz-adv-x="1594" 
d="M831 1826l22 101h591l-22 -101h-591zM895 1549h-11q-41 0 -62.5 23.5t-14.5 58.5q8 35 40 58.5t72 23.5h11q40 0 62 -24t14 -58q-7 -35 -39 -58.5t-72 -23.5zM1225 1549h-11q-41 0 -62.5 23.5t-14.5 58.5q8 35 40 58.5t72 23.5h11q40 0 62.5 -23.5t14.5 -58.5
q-7 -35 -39.5 -58.5t-72.5 -23.5zM893 -26q-152 0 -275.5 53t-204 144.5t-124.5 212.5t-44 258q0 159 54 307.5t150 264.5t242 186t317 70q151 0 275 -53t205 -144.5t124.5 -212.5t43.5 -258q0 -159 -54 -307.5t-150 -264.5t-242 -186t-317 -70zM877 97q146 0 263 110
t179 284t62 371q0 236 -96.5 360.5t-260.5 124.5q-112 0 -208 -64.5t-160 -171.5t-100 -244.5t-36 -284.5q0 -236 96.5 -360.5t260.5 -124.5z" />
    <glyph glyph-name="odieresismacron" unicode="&#x22b;" horiz-adv-x="1144" 
d="M548 1495l25 119h577l-25 -119h-577zM583 1157h-10q-42 0 -65 27.5t-14 68.5q8 41 43 69.5t77 28.5h11q42 0 64.5 -28.5t14.5 -69.5q-9 -41 -44 -68.5t-77 -27.5zM931 1157h-11q-42 0 -65 27.5t-13 68.5q8 41 43 69.5t76 28.5h12q41 0 64 -28.5t14 -69.5t-43.5 -68.5
t-76.5 -27.5zM613 -23q-194 0 -301.5 124.5t-107.5 321.5q0 161 66 299.5t191.5 224.5t284.5 86q194 0 301.5 -124t107.5 -321q0 -161 -66 -300t-191.5 -225t-284.5 -86zM620 91q72 0 129.5 52.5t91.5 137t52 180.5t18 191q0 130 -46 198.5t-126 68.5q-72 0 -130 -52.5
t-92 -136.5t-52 -180t-18 -192q0 -130 46.5 -198.5t126.5 -68.5z" />
    <glyph glyph-name="Otildemacron" unicode="&#x22c;" horiz-adv-x="1594" 
d="M831 1826l22 101h591l-22 -101h-591zM1192 1548q-61 0 -128 26l-29 9q-51 20 -87 20q-65 0 -78 -62h-99q17 85 74.5 129t133.5 44q59 0 129 -24l28 -11q57 -19 88 -19q66 0 77 61h99q-18 -84 -75 -128.5t-133 -44.5zM893 -26q-152 0 -275.5 53t-204 144.5t-124.5 212.5
t-44 258q0 159 54 307.5t150 264.5t242 186t317 70q151 0 275 -53t205 -144.5t124.5 -212.5t43.5 -258q0 -159 -54 -307.5t-150 -264.5t-242 -186t-317 -70zM877 97q146 0 263 110t179 284t62 371q0 236 -96.5 360.5t-260.5 124.5q-112 0 -208 -64.5t-160 -171.5
t-100 -244.5t-36 -284.5q0 -236 96.5 -360.5t260.5 -124.5z" />
    <glyph glyph-name="otildemacron" unicode="&#x22d;" horiz-adv-x="1144" 
d="M548 1495l25 119h577l-25 -119h-577zM888 1165q-57 0 -124 29l-27 12q-53 22 -84 22q-65 0 -80 -71h-96q22 99 79.5 151t130.5 52q63 0 126 -30l26 -11q50 -23 84 -23q65 0 79 72h96q-21 -99 -78.5 -151t-131.5 -52zM613 -23q-194 0 -301.5 124.5t-107.5 321.5
q0 161 66 299.5t191.5 224.5t284.5 86q194 0 301.5 -124t107.5 -321q0 -161 -66 -300t-191.5 -225t-284.5 -86zM620 91q72 0 129.5 52.5t91.5 137t52 180.5t18 191q0 130 -46 198.5t-126 68.5q-72 0 -130 -52.5t-92 -136.5t-52 -180t-18 -192q0 -130 46.5 -198.5
t126.5 -68.5z" />
    <glyph glyph-name="Odotaccent" unicode="&#x22e;" horiz-adv-x="1594" 
d="M1098 1597q-48 0 -79 31t-31 76q0 51 34.5 85.5t84.5 34.5q48 0 79 -31t31 -76q0 -51 -35 -85.5t-84 -34.5zM893 -26q-152 0 -275.5 53t-204 144.5t-124.5 212.5t-44 258q0 159 54 307.5t150 264.5t242 186t317 70q151 0 275 -53t205 -144.5t124.5 -212.5t43.5 -258
q0 -159 -54 -307.5t-150 -264.5t-242 -186t-317 -70zM877 97q146 0 263 110t179 284t62 371q0 236 -96.5 360.5t-260.5 124.5q-112 0 -208 -64.5t-160 -171.5t-100 -244.5t-36 -284.5q0 -236 96.5 -360.5t260.5 -124.5z" />
    <glyph glyph-name="odotaccent" unicode="&#x22f;" horiz-adv-x="1144" 
d="M802 1222q-56 0 -92.5 36t-36.5 91q0 58 41 99t99 41q56 0 92.5 -36t36.5 -90q0 -59 -40.5 -100t-99.5 -41zM613 -23q-194 0 -301.5 124.5t-107.5 321.5q0 161 66 299.5t191.5 224.5t284.5 86q194 0 301.5 -124t107.5 -321q0 -161 -66 -300t-191.5 -225t-284.5 -86z
M620 91q72 0 129.5 52.5t91.5 137t52 180.5t18 191q0 130 -46 198.5t-126 68.5q-72 0 -130 -52.5t-92 -136.5t-52 -180t-18 -192q0 -130 46.5 -198.5t126.5 -68.5z" />
    <glyph glyph-name="Odotaccentmacron" unicode="&#x230;" horiz-adv-x="1594" 
d="M826 1801l22 102h590l-21 -102h-591zM1088 1542q-44 0 -74.5 25.5t-30.5 64.5q0 37 28.5 62.5t71.5 25.5t74 -25.5t31 -62.5q1 -39 -28 -64.5t-72 -25.5zM893 -26q-152 0 -275.5 53t-204 144.5t-124.5 212.5t-44 258q0 159 54 307.5t150 264.5t242 186t317 70
q151 0 275 -53t205 -144.5t124.5 -212.5t43.5 -258q0 -159 -54 -307.5t-150 -264.5t-242 -186t-317 -70zM877 97q146 0 263 110t179 284t62 371q0 236 -96.5 360.5t-260.5 124.5q-112 0 -208 -64.5t-160 -171.5t-100 -244.5t-36 -284.5q0 -236 96.5 -360.5t260.5 -124.5z
" />
    <glyph glyph-name="odotaccentmacron" unicode="&#x231;" horiz-adv-x="1144" 
d="M546 1482l25 120h577l-25 -120h-577zM788 1158q-46 0 -77.5 30t-31.5 75q0 44 31.5 74.5t77.5 30.5t77 -30.5t31 -74.5q0 -45 -31 -75t-77 -30zM613 -23q-194 0 -301.5 124.5t-107.5 321.5q0 161 66 299.5t191.5 224.5t284.5 86q194 0 301.5 -124t107.5 -321
q0 -161 -66 -300t-191.5 -225t-284.5 -86zM620 91q72 0 129.5 52.5t91.5 137t52 180.5t18 191q0 130 -46 198.5t-126 68.5q-72 0 -130 -52.5t-92 -136.5t-52 -180t-18 -192q0 -130 46.5 -198.5t126.5 -68.5z" />
    <glyph glyph-name="Ymacron" unicode="&#x232;" horiz-adv-x="1330" 
d="M792 1637l29 134h521l-29 -134h-521zM473 1169q-40 108 -74 141.5t-116 45.5l17 88h588l-19 -88q-115 -13 -137.5 -49.5t13.5 -136.5l147 -432l327 432q80 101 73 137t-116 49l18 88h450l-19 -88q-90 -12 -138.5 -45.5t-138.5 -146.5l-421 -527l-91 -431q-5 -23 -6 -37
t3.5 -27.5t14 -20.5t30.5 -14t49 -11.5t72 -8.5l-18 -87h-632l19 87q69 7 105.5 13.5t60 21t32.5 32t16 52.5l90 423z" />
    <glyph glyph-name="ymacron" unicode="&#x233;" horiz-adv-x="1006" 
d="M467 1267l31 147h579l-31 -147h-579zM538 1024l33 -866q297 368 371 611h-1q-56 0 -95 38t-39 92q0 57 41 95.5t102 38.5q64 0 104.5 -41t40.5 -107q0 -221 -464 -804q-107 -130 -160 -193q-164 -196 -302 -348h-261v20q110 81 239 189t218 195l-50 858q-2 34 -17.5 49.5
t-55.5 22.5l-82 13l16 86z" />
    <glyph glyph-name="dotlessj" unicode="&#x237;" horiz-adv-x="591" 
d="M643 1023l-206 -963q-24 -113 -58 -193t-92 -147t-143.5 -115t-210.5 -86l-28 79q49 21 87 46.5t67 59.5t50 70t39.5 88t31.5 102.5t28 123.5l151 710q8 36 -2.5 52t-47.5 23l-90 14l19 84z" />
    <glyph glyph-name="schwa" unicode="&#x259;" horiz-adv-x="961" 
d="M581 1033q77 0 146.5 -27.5t125 -80t88 -138t32.5 -192.5q0 -132 -45.5 -248.5t-120.5 -196.5t-173.5 -126.5t-202.5 -46.5q-131 0 -211.5 60.5t-80.5 161.5q0 128 138 220t402 168l50 14q-9 136 -78.5 210t-179.5 74q-140 0 -243 -91l20 95q54 69 144 106.5t189 37.5z
M342 209q0 -122 107 -122q109 0 188.5 115.5t91.5 303.5l-43 -13q-344 -103 -344 -284z" />
    <glyph glyph-name="g.1" unicode="&#x261;" horiz-adv-x="1124" 
d="M413 -371q260 0 340 371l50 230q-56 -122 -138 -187.5t-183 -65.5q-133 0 -207 97t-74 266q0 144 45 274t118.5 221t171 144.5t199.5 53.5q88 0 148.5 -32.5t91.5 -82.5l90 92h128l-209 -968q-29 -135 -85.5 -237.5t-131.5 -164.5t-162 -93t-185 -31q-140 0 -227.5 62
t-87.5 154q0 50 35 85.5t84 35.5q50 0 85.5 -35.5t35.5 -83.5q0 -52 -34 -86q44 -19 102 -19zM444 357q0 -113 41 -173t107 -60q77 0 142 78t96 222l85 397q-7 34 -46 62t-93 28q-90 0 -166.5 -76.5t-121 -204t-44.5 -273.5z" />
    <glyph glyph-name="quoteright" unicode="&#x2019;" horiz-adv-x="553" 
d="M311 925l19 85q86 6 137 45.5t51 97.5q0 50 -34.5 83t-93.5 45q1 80 45.5 137t118.5 57q65 0 108.5 -50.5t43.5 -140.5q0 -154 -109.5 -255.5t-285.5 -103.5z" />
    <glyph glyph-name="quoteright" unicode="&#x2bc;" horiz-adv-x="553" 
d="M311 925l19 85q86 6 137 45.5t51 97.5q0 50 -34.5 83t-93.5 45q1 80 45.5 137t118.5 57q65 0 108.5 -50.5t43.5 -140.5q0 -154 -109.5 -255.5t-285.5 -103.5z" />
    <glyph glyph-name="circumflex" unicode="&#x2c6;" horiz-adv-x="1024" 
d="M579 1169h-112l290 375h167l130 -375h-103l-140 200z" />
    <glyph glyph-name="caron" unicode="&#x2c7;" horiz-adv-x="1024" 
d="M1022 1544h112l-289 -375h-168l-130 375h103l141 -199z" />
    <glyph glyph-name="breve" unicode="&#x2d8;" horiz-adv-x="1024" 
d="M806 1178q-120 0 -197 71t-77 181q0 51 20 102h93q-4 -16 -4 -34q0 -62 49 -104t126 -42q89 0 143.5 47t69.5 133h92q-7 -165 -90.5 -259.5t-224.5 -94.5z" />
    <glyph glyph-name="dotaccent" unicode="&#x2d9;" horiz-adv-x="1024" 
d="M795 1222q-56 0 -92.5 36t-36.5 91q0 58 41 99t99 41q56 0 92.5 -36t36.5 -90q0 -59 -40.5 -100t-99.5 -41z" />
    <glyph glyph-name="ring" unicode="&#x2da;" horiz-adv-x="1024" 
d="M535 1345q0 101 77.5 165.5t203.5 64.5q111 0 180.5 -56.5t69.5 -149.5q0 -101 -77.5 -165.5t-204.5 -64.5q-110 0 -179.5 56.5t-69.5 149.5zM695 1339q0 -50 24.5 -78.5t67.5 -28.5q47 0 83 41t36 102q0 49 -24.5 77.5t-67.5 28.5q-48 0 -83.5 -40.5t-35.5 -101.5z" />
    <glyph glyph-name="ogonek" unicode="&#x2db;" horiz-adv-x="1024" 
d="M259 -491q-85 0 -139 43t-54 115q0 79 67 152t219 156l113 59h93l-100 -59q-200 -122 -200 -253q0 -92 98 -92q59 0 106 29l-19 -87q-25 -27 -76 -45t-108 -18z" />
    <glyph glyph-name="tilde" unicode="&#x2dc;" horiz-adv-x="1024" 
d="M919 1209q-76 0 -146 62l-33 31q-44 41 -79 41q-30 0 -49.5 -31t-31.5 -114h-97q34 305 199 305q78 0 146 -62l34 -31q44 -41 78 -41q31 0 50.5 31t31.5 114h97q-19 -165 -70 -235t-130 -70z" />
    <glyph glyph-name="hungarumlaut" unicode="&#x2dd;" horiz-adv-x="1024" 
d="M707 1544h209v-8l-260 -367h-115zM1085 1544h236v-8l-361 -367h-118z" />
    <glyph glyph-name="gravecmb" unicode="&#x300;" 
d="M241 1544l113 -375h-99l-264 363v12h250z" />
    <glyph glyph-name="acutecmb" unicode="&#x301;" 
d="M389 1544h272v-12l-413 -363h-113z" />
    <glyph glyph-name="circumflexcmb" unicode="&#x302;" 
d="M67 1169h-112l290 375h167l130 -375h-103l-140 200z" />
    <glyph glyph-name="tildecmb" unicode="&#x303;" 
d="M407 1209q-76 0 -146 62l-33 31q-44 41 -79 41q-30 0 -49.5 -31t-31.5 -114h-97q34 305 199 305q78 0 146 -62l34 -31q44 -41 78 -41q31 0 50.5 31t31.5 114h97q-19 -165 -70 -235t-130 -70z" />
    <glyph glyph-name="macroncmb" unicode="&#x304;" 
d="M-20 1267l31 147h578l-31 -147h-578z" />
    <glyph glyph-name="brevecmb" unicode="&#x306;" 
d="M294 1178q-120 0 -197 71t-77 181q0 51 20 102h93q-4 -16 -4 -34q0 -62 49 -104t126 -42q89 0 143.5 47t69.5 133h92q-7 -165 -90.5 -259.5t-224.5 -94.5z" />
    <glyph glyph-name="dotaccentcmb" unicode="&#x307;" 
d="M283 1222q-56 0 -92.5 36t-36.5 91q0 58 41 99t99 41q56 0 92.5 -36t36.5 -90q0 -59 -40.5 -100t-99.5 -41z" />
    <glyph glyph-name="dieresiscmb" unicode="&#x308;" 
d="M68 1230q-53 0 -87.5 34t-34.5 85q0 55 38.5 93.5t93.5 38.5q52 0 86.5 -34t34.5 -85q0 -55 -38 -93.5t-93 -38.5zM499 1230q-53 0 -87.5 34t-34.5 85q0 55 38.5 93.5t93.5 38.5q52 0 86.5 -34t34.5 -85q0 -55 -38 -93.5t-93 -38.5z" />
    <glyph glyph-name="hookabovecmb" unicode="&#x309;" 
d="M321 1550q89 0 143.5 -46t54.5 -115q0 -67 -60 -119.5t-175 -102.5h-111q165 103 165 184q0 76 -114 76q-79 0 -131 -37l17 80q32 35 89 57.5t122 22.5z" />
    <glyph glyph-name="ringcmb" unicode="&#x30a;" 
d="M23 1345q0 101 77.5 165.5t203.5 64.5q111 0 180.5 -56.5t69.5 -149.5q0 -101 -77.5 -165.5t-204.5 -64.5q-110 0 -179.5 56.5t-69.5 149.5zM183 1339q0 -50 24.5 -78.5t67.5 -28.5q47 0 83 41t36 102q0 49 -24.5 77.5t-67.5 28.5q-48 0 -83.5 -40.5t-35.5 -101.5z" />
    <glyph glyph-name="hungarumlautcmb" unicode="&#x30b;" 
d="M195 1544h209v-8l-260 -367h-115zM573 1544h236v-8l-361 -367h-118z" />
    <glyph glyph-name="caroncmb" unicode="&#x30c;" 
d="M510 1544h112l-289 -375h-168l-130 375h103l141 -199z" />
    <glyph glyph-name="dblgravecmb" unicode="&#x30f;" 
d="M46 1544l127 -375h-107l-236 367v8h216zM417 1544l40 -375h-100l-145 367v8h205z" />
    <glyph glyph-name="invertedbrevecmb" unicode="&#x311;" 
d="M286 1532q119 0 196 -70.5t77 -180.5q0 -55 -20 -103h-92q2 16 2 35q0 61 -48 103t-125 42q-90 0 -144.5 -46.5t-70.5 -133.5h-92q8 165 92 259.5t225 94.5z" />
    <glyph glyph-name="horncmb" unicode="&#x31b;" 
d="M266 1326h103q48 -25 77.5 -66t29.5 -91q0 -47 -22 -85.5t-73 -72.5t-147 -53t-230 -19l14 71q79 0 136.5 18.5t87.5 49.5t43.5 65t13.5 72q0 71 -33 111z" />
    <glyph glyph-name="dotbelowcmb" unicode="&#x323;" 
d="M-69 -427q-52 0 -86.5 32.5t-35.5 81.5q0 53 38 90t92 37q52 0 86 -32.5t35 -81.5q0 -53 -37.5 -90t-91.5 -37z" />
    <glyph glyph-name="dieresisbelowcmb" unicode="&#x324;" 
d="M-269 -420q-49 0 -81.5 30.5t-32.5 76.5q0 50 35.5 84.5t86.5 34.5q49 0 81 -30.5t32 -76.5q1 -50 -34.5 -84.5t-86.5 -34.5zM132 -420q-49 0 -81.5 30.5t-32.5 76.5q0 50 35.5 84.5t86.5 34.5q49 0 81 -30.5t32 -76.5q1 -50 -34.5 -84.5t-86.5 -34.5z" />
    <glyph glyph-name="ringbelowcmb" unicode="&#x325;" 
d="M-333 -316q-4 85 72.5 142t202.5 57q110 0 181 -49.5t73 -130.5q4 -85 -72.5 -142t-201.5 -57q-111 0 -182 49.5t-73 130.5zM-172 -321q2 -40 27 -63t68 -23q48 0 81.5 32t31.5 82q-2 40 -27.5 63t-68.5 23q-47 0 -80.5 -32t-31.5 -82z" />
    <glyph glyph-name="commaaccentcmb" unicode="&#x326;" 
d="M-95 -491q-103 0 -173 47l17 79q62 -32 122 -32q52 0 83.5 21t31.5 58q0 33 -27.5 54.5t-70.5 21.5q-47 0 -75 -11l17 76q65 54 155 54q77 0 128 -49t51 -129q0 -90 -69.5 -140t-189.5 -50z" />
    <glyph glyph-name="cedillacmb" unicode="&#x327;" 
d="M-103 -491q-117 0 -197 62l19 84q62 -40 144 -40q53 0 82.5 22t29.5 58q0 40 -33.5 62.5t-94.5 22.5h-24l17 81l167 183h83l-9 -44l-100 -110q87 -12 135.5 -61t48.5 -125q0 -88 -72 -141.5t-196 -53.5z" />
    <glyph glyph-name="ogonekcmb" unicode="&#x328;" 
d="M-253 -491q-85 0 -139 43t-54 115q0 79 67 152t219 156l113 59h93l-100 -59q-200 -122 -200 -253q0 -92 98 -92q59 0 106 29l-19 -87q-25 -27 -76 -45t-108 -18z" />
    </font>
</defs>
</svg>
