<?xml version="1.0" standalone="no"?>
<!DOCTYPE svg PUBLIC "-//W3C//DTD SVG 1.1//EN" "http://www.w3.org/Graphics/SVG/1.1/DTD/svg11.dtd" >
<svg xmlns="http://www.w3.org/2000/svg" xmlns:xlink="http://www.w3.org/1999/xlink" version="1.1">
<metadata>
Created by FontForge 20170731 at Fri Aug 16 05:19:16 2019
 By Aleksey,,,
(c) 2017-2019 Apple Inc. All rights reserved.
</metadata>
<defs>
<font id="NewYorkSmall-Heavy" horiz-adv-x="0" >
  <font-face 
    font-family="New York Small"
    font-weight="800"
    font-variant="small-caps"
    font-stretch="normal"
    units-per-em="2048"
    panose-1="2 2 5 2 6 4 0 0 0 4"
    ascent="1638"
    descent="-410"
    x-height="1040"
    cap-height="1444"
    bbox="-564 -505 4087 2070"
    underline-thickness="154"
    underline-position="-520"
    unicode-range="U+0020-1F16B"
  />
<missing-glyph horiz-adv-x="2048" 
d="M56 -494v2444h298v-2444h-298zM466 -494v2444h298v-2444h-298zM875 -494v2444h298v-2444h-298zM1285 -494v2444h298v-2444h-298zM1694 -494v2444h298v-2444h-298z" />
    <glyph glyph-name=".notdef" horiz-adv-x="2048" 
d="M56 -494v2444h298v-2444h-298zM466 -494v2444h298v-2444h-298zM875 -494v2444h298v-2444h-298zM1285 -494v2444h298v-2444h-298zM1694 -494v2444h298v-2444h-298z" />
    <glyph glyph-name=".null" 
 />
    <glyph glyph-name="nonmarkingreturn" 
 />
    <glyph glyph-name="space" unicode=" " horiz-adv-x="517" 
 />
    <glyph glyph-name="exclam" unicode="!" horiz-adv-x="778" 
d="M389 1473q100 0 165 -67.5t65 -174.5q0 -71 -18 -150.5t-63 -227.5l-111 -404h-80l-110 405q-43 140 -60 221.5t-17 155.5q0 107 64.5 174.5t164.5 67.5zM387 -28q-77 0 -132.5 50.5t-55.5 124.5q0 75 55 126t133 51t133 -50.5t55 -126.5q0 -74 -55 -124.5t-133 -50.5z
" />
    <glyph glyph-name="quotedbl" unicode="&#x22;" horiz-adv-x="1028" 
d="M283 1477q79 0 129 -44t51 -120q0 -19 -2 -37.5t-9 -46t-11 -41.5t-17.5 -57.5t-18.5 -60.5l-82 -264h-80l-83 264q-3 11 -12.5 40.5t-12.5 38t-9.5 31t-8.5 31l-6 25.5t-5.5 27.5t-2.5 23.5t-1 26q1 76 51.5 120t129.5 44zM745 1477q79 0 129.5 -44t51.5 -120
q0 -16 -2 -34.5t-4.5 -32t-9.5 -38.5t-11 -38t-15 -48.5t-16 -51.5l-82 -264h-81l-82 264q-3 11 -12.5 40.5t-12.5 38t-9.5 31t-8.5 31l-6 25.5t-5.5 27.5t-2.5 23.5t-1 26q1 76 51 120t129 44z" />
    <glyph glyph-name="numbersign" unicode="#" horiz-adv-x="1289" 
d="M231 0l24 349h-184l16 227h184l21 292h-185l16 227h184l25 349h237l-25 -349h253l25 349h237l-25 -349h185l-15 -227h-185l-21 -292h185l-16 -227h-185l-24 -349h-237l24 349h-253l-24 -349h-237zM508 576h253l21 292h-253z" />
    <glyph glyph-name="dollar" unicode="$" horiz-adv-x="1202" 
d="M557 11q-127 0 -254 33t-205 84l-9 357h120q35 -161 126 -237t221 -76h3v394l-113 39q-352 122 -352 414q0 174 124 282t341 128v203h100v-199q115 -1 225 -24.5t174 -55.5l8 -361h-120q-53 265 -287 279v-360l97 -33q188 -65 279 -164.5t91 -254.5q0 -185 -126 -301.5
t-341 -140.5v-206h-100v200h-2zM420 1117q0 -54 33.5 -94.5t105.5 -73.5v315q-68 -13 -103.5 -51.5t-35.5 -95.5zM800 351q0 59 -31 100t-110 77v-343q68 19 104.5 63t36.5 103z" />
    <glyph glyph-name="percent" unicode="%" horiz-adv-x="2270" 
d="M467 596q-169 0 -278 121.5t-109 312.5q0 194 110.5 314t290.5 120q170 0 278.5 -121t108.5 -313q0 -194 -111 -314t-290 -120zM532 0l952 1444h254l-953 -1444h-253zM479 709q115 0 115 320q0 321 -124 321q-114 0 -114 -320q0 -321 123 -321zM1788 -19q-170 0 -279 121
t-109 313q0 193 111 313.5t290 120.5q170 0 278.5 -121t108.5 -313q0 -194 -110.5 -314t-289.5 -120zM1799 93q115 0 115 321t-123 321q-115 0 -115 -320q0 -322 123 -322z" />
    <glyph glyph-name="ampersand" unicode="&#x26;" horiz-adv-x="1740" 
d="M558 -29q-214 0 -350 109.5t-136 286.5q0 141 92.5 244t270.5 159q-81 95 -116.5 170t-35.5 156q0 161 136 271t364 110q200 0 314.5 -88t114.5 -227q0 -208 -322 -322l310 -301l62 88q62 89 52 120.5t-103 46.5v127h487v-127q-81 -11 -136 -48t-165 -160l-114 -128
l59 -57q153 -149 224.5 -204t131.5 -76v-121h-493l-182 179q-114 -106 -221.5 -157t-243.5 -51zM649 1178q0 -54 33 -108.5t121 -143.5q110 77 115 216q2 74 -34.5 119.5t-100.5 45.5q-58 0 -96 -35t-38 -94zM436 501q0 -135 94 -220.5t233 -85.5q102 0 185 57l-304 299
q-77 75 -126 127q-82 -64 -82 -177z" />
    <glyph glyph-name="quotesingle" unicode="'" horiz-adv-x="565" 
d="M283 1477q79 0 129 -44t51 -120q0 -19 -2 -37.5t-9 -46t-11 -41.5t-17.5 -57.5t-18.5 -60.5l-82 -264h-80l-83 264q-3 11 -12.5 40.5t-12.5 38t-9.5 31t-8.5 31l-6 25.5t-5.5 27.5t-2.5 23.5t-1 26q1 76 51.5 120t129.5 44z" />
    <glyph glyph-name="parenleft" unicode="(" horiz-adv-x="808" 
d="M467 650q0 -296 79.5 -522t236.5 -408h-134q-155 68 -282 206t-203.5 329t-76.5 395t76.5 395t203.5 329t282 206h134q-157 -182 -236.5 -408t-79.5 -522z" />
    <glyph glyph-name="parenright" unicode=")" horiz-adv-x="808" 
d="M341 650q0 296 -79.5 522t-236.5 408h134q155 -68 282 -206t203.5 -329t76.5 -395t-76.5 -395t-203.5 -329t-282 -206h-134q157 182 236.5 408t79.5 522z" />
    <glyph glyph-name="asterisk" unicode="*" horiz-adv-x="943" 
d="M447 1088l-69 199q-33 83 0 137t93 54q59 0 92.5 -54.5t1.5 -136.5l-70 -199h-48zM495 1088l137 159q37 47 81 61.5t78 0t53 -46.5q13 -23 13 -51t-12.5 -53.5t-43.5 -46t-75 -26.5l-207 -40zM423 1045l-206 40q-45 7 -76.5 27t-44 45.5t-12 53t14.5 51.5
q18 31 52.5 45.5t78.5 0.5t81 -61l136 -159zM447 1002l-136 -159q-37 -47 -81 -61.5t-78 0t-53 47.5q-13 23 -13.5 50.5t12.5 53t44 46t75 26.5l206 40zM519 1045l207 -40q45 -7 76.5 -27t44 -45t12 -52.5t-14.5 -51.5q-18 -32 -52.5 -46t-79 -0.5t-80.5 60.5l-137 159z
M495 1002l70 -199q33 -83 -0.5 -137t-93.5 -54q-58 0 -91.5 54.5t-1.5 136.5l69 199h48z" />
    <glyph glyph-name="plus" unicode="+" horiz-adv-x="1331" 
d="M133 478v266h400v400h266v-400h399v-266h-399v-399h-266v399h-400z" />
    <glyph glyph-name="comma" unicode="," horiz-adv-x="625" 
d="M141 -293l-37 118q69 19 112.5 62t43.5 103q0 68 -48 109t-128 44q0 113 62.5 188t168.5 75q104 0 167.5 -73.5t63.5 -192.5q0 -163 -116 -277t-289 -156z" />
    <glyph glyph-name="hyphen" unicode="&#x2011;" horiz-adv-x="888" 
d="M756 463h-624v296h624v-296z" />
    <glyph glyph-name="hyphen" unicode="-" horiz-adv-x="888" 
d="M756 463h-624v296h624v-296z" />
    <glyph glyph-name="period" unicode="." horiz-adv-x="625" 
d="M312 -28q-90 0 -153 63.5t-63 153.5t63 153.5t153 63.5t153.5 -64t63.5 -153t-63.5 -153t-153.5 -64z" />
    <glyph glyph-name="slash" unicode="/" horiz-adv-x="808" 
d="M6 -280l498 1860h298l-498 -1860h-298z" />
    <glyph glyph-name="zero" unicode="0" horiz-adv-x="1458" 
d="M719 -33q-132 0 -246.5 53.5t-197 149.5t-129.5 238.5t-47 313.5q0 347 177 551t464 204q177 0 317 -91t221 -264t81 -400q0 -230 -81 -402t-226 -262.5t-333 -90.5zM737 137q207 0 206 574q0 297 -57.5 446.5t-162.5 149.5q-208 0 -208 -574q0 -297 58 -446.5
t164 -149.5z" />
    <glyph glyph-name="one" unicode="1" horiz-adv-x="1016" 
d="M723 1444v-1167q0 -77 47.5 -106.5t197.5 -43.5v-127h-888v127q149 14 197 43.5t48 106.5v892l-257 -57v115l474 217h181z" />
    <glyph glyph-name="two" unicode="2" horiz-adv-x="1145" 
d="M1083 0h-1027v236l316 305q164 157 227 258.5t63 207.5q0 98 -61.5 158t-165.5 60q-101 0 -176 -55t-116 -151l-118 54q64 186 207.5 295t364.5 109q210 0 335 -114t125 -289q0 -139 -103 -266.5t-335 -285.5l-318 -221h782v-301z" />
    <glyph glyph-name="three" unicode="3" horiz-adv-x="1222" 
d="M553 -33q-218 0 -357 95t-139 236q0 70 45.5 115.5t116.5 45.5q69 0 114 -43.5t45 -110.5q0 -81 -68 -126q67 -45 161 -45q116 0 191 69t75 190q0 132 -87 208t-228 76q-67 0 -117 -11v143q211 19 311 76t100 155q0 86 -57.5 136.5t-161.5 50.5q-105 0 -187 -50
t-127 -147l-115 61q63 176 210 281t357 105q205 0 333.5 -92t128.5 -240q0 -119 -84.5 -204.5t-226.5 -115.5q164 -32 256.5 -138t92.5 -252q0 -148 -79 -256t-209 -160t-294 -52z" />
    <glyph glyph-name="four" unicode="4" horiz-adv-x="1315" 
d="M723 0v291h-663v216l658 937h349v-891h205v-262h-204v-291h-345zM723 553v624l-418 -624h418z" />
    <glyph glyph-name="five" unicode="5" horiz-adv-x="1219" 
d="M543 -33q-207 0 -340.5 92.5t-133.5 227.5q0 70 46 115.5t118 45.5q69 0 114.5 -43.5t45.5 -110.5q0 -38 -18 -71.5t-49 -54.5q60 -34 140 -34q116 0 191 76t75 200q0 129 -68 207.5t-168 78.5q-82 0 -143.5 -29t-94.5 -77h-143l153 854h800v-301h-689l-85 -375
q58 65 154 102.5t212 37.5q208 0 339.5 -123t131.5 -316q0 -154 -78 -269.5t-210.5 -174t-299.5 -58.5z" />
    <glyph glyph-name="six" unicode="6" horiz-adv-x="1374" 
d="M1294 475q0 -231 -165 -369.5t-431 -138.5q-134 0 -245.5 42.5t-191.5 122t-123.5 199.5t-41.5 268q3 189 82 348t221 271.5t347 175t451 62.5l1 -125q-320 -13 -507.5 -198.5t-201.5 -489.5q40 129 142 199.5t246 70.5q179 0 298 -119.5t119 -318.5zM903 402
q0 138 -52.5 216.5t-143.5 78.5q-96 0 -153.5 -70.5t-57.5 -199.5q0 -132 56 -211t151 -79q92 0 146 70t54 195z" />
    <glyph glyph-name="seven" unicode="7" horiz-adv-x="1071" 
d="M491 0h-369v32l704 1108h-791v304h967v-266z" />
    <glyph glyph-name="eight" unicode="8" horiz-adv-x="1346" 
d="M659 -33q-264 0 -417.5 100t-153.5 256q0 120 91 204t236 105q-143 60 -221 165t-78 241q0 198 158 318.5t415 120.5q136 0 242 -28.5t170 -78t96.5 -111t32.5 -131.5q0 -115 -87.5 -189.5t-225.5 -93.5q340 -132 340 -436q0 -187 -167 -314.5t-431 -127.5zM697 919
l96 -32q88 63 88 196q0 101 -56.5 161t-147.5 60q-92 0 -145 -47t-53 -122q0 -74 53 -126.5t165 -89.5zM438 384q0 -109 66.5 -176t171.5 -67q95 0 156 48t63 128q2 81 -57 136.5t-197 100.5l-98 33q-51 -26 -78 -80t-27 -123z" />
    <glyph glyph-name="nine" unicode="9" horiz-adv-x="1374" 
d="M80 969q0 229 165.5 368.5t431.5 139.5q179 0 315 -72.5t212.5 -214.5t74.5 -337q-3 -192 -82 -352.5t-221 -273.5t-347 -176t-451 -63l-1 125q321 13 508 195.5t201 489.5q-41 -129 -142.5 -199.5t-245.5 -70.5q-178 0 -298 122t-120 319zM472 1042q0 -137 52.5 -217.5
t144.5 -80.5q94 0 152 73t58 200q0 130 -56.5 210t-150.5 80q-91 0 -145.5 -71.5t-54.5 -193.5z" />
    <glyph glyph-name="colon" unicode=":" horiz-adv-x="625" 
d="M312 579q-90 0 -153 63.5t-63 153.5t63 153.5t153 63.5t153.5 -64t63.5 -153t-63.5 -153t-153.5 -64zM312 -28q-90 0 -153 63.5t-63 153.5t63 153.5t153 63.5t153.5 -64t63.5 -153t-63.5 -153t-153.5 -64z" />
    <glyph glyph-name="semicolon" unicode=";" horiz-adv-x="625" 
d="M312 581q-90 0 -153 63.5t-63 153.5t63 153.5t153 63.5t153.5 -64t63.5 -153t-63.5 -153t-153.5 -64zM141 -293l-37 118q69 19 112.5 62t43.5 103q0 68 -48 109t-128 44q0 113 62.5 188t168.5 75q104 0 167.5 -73.5t63.5 -192.5q0 -163 -116 -277t-289 -156z" />
    <glyph glyph-name="less" unicode="&#x3c;" horiz-adv-x="1331" 
d="M1232 301v-279l-1131 490v142l1131 491v-258l-731 -294z" />
    <glyph glyph-name="equal" unicode="=" horiz-adv-x="1331" 
d="M133 717v267h1065v-267h-1065zM133 238v267h1065v-267h-1065z" />
    <glyph glyph-name="greater" unicode="&#x3e;" horiz-adv-x="1331" 
d="M100 866v279l1131 -490v-142l-1131 -491v258l730 294z" />
    <glyph glyph-name="question" unicode="?" horiz-adv-x="843" 
d="M339 1474q87 1 165 -30t137.5 -87t94.5 -141t35 -187q0 -191 -118.5 -319.5t-297.5 -162.5l2 -98h-86l-86 435q197 2 295.5 34t98.5 101q0 79 -114 114t-360 35q-18 36 -18 88q0 95 67.5 156t184.5 62zM338 -28q-78 0 -133 50.5t-55 124.5q0 76 55 126.5t133 50.5
t132.5 -50.5t54.5 -126.5q0 -74 -54.5 -124.5t-132.5 -50.5z" />
    <glyph glyph-name="at" unicode="@" horiz-adv-x="2126" 
d="M565 399q0 161 57 303t164 231.5t239 89.5q87 0 147.5 -36.5t88.5 -102.5l99 111h230l-135 -631q-17 -76 -2.5 -106.5t73.5 -30.5q131 0 231 131.5t100 341.5q0 282 -190 450.5t-533 168.5q-159 0 -298.5 -49t-241 -133.5t-175 -195t-110 -236.5t-36.5 -255
q0 -217 90 -378t247 -244t361 -83q131 0 231 20t193 68l1 -126q-62 -53 -189.5 -89.5t-266.5 -36.5q-142 0 -271.5 37.5t-235.5 111.5t-184 177.5t-121 241.5t-43 297q0 129 31.5 255.5t91 242t151 214t205 170.5t260 113t309.5 41q272 0 479.5 -95.5t319.5 -266.5t112 -393
q0 -155 -50 -287.5t-135 -222.5t-200.5 -140.5t-245.5 -50.5q-142 0 -214.5 63.5t-77.5 175.5q-53 -104 -133.5 -158t-179.5 -54q-113 0 -178 90t-65 256zM909 408q0 -145 80 -145q51 0 95.5 53t61.5 136l64 297q8 64 -14.5 100t-66.5 36q-61 0 -113.5 -80t-79.5 -189
t-27 -208z" />
    <glyph glyph-name="A" unicode="A" horiz-adv-x="1582" 
d="M1378 329q31 -84 54.5 -121.5t56.5 -54.5t98 -26v-127h-770v127q60 9 91 19.5t45.5 34t9.5 57.5t-26 94l-38 112h-469l-39 -112q-14 -40 -20.5 -67t-5.5 -49.5t9 -35.5t27 -24t44.5 -17t66.5 -12v-127h-517v127q93 13 127.5 47.5t80.5 157.5l408 1112h361zM483 598h364
l-181 531z" />
    <glyph glyph-name="B" unicode="B" horiz-adv-x="1578" 
d="M1502 432q0 -134 -89 -233.5t-237.5 -149t-334.5 -49.5h-784v127q105 14 133 37t28 90v936q0 67 -28 90t-133 37v127h784q287 0 441.5 -92.5t154.5 -259.5q0 -126 -101.5 -204t-255.5 -92q195 -17 308.5 -111.5t113.5 -252.5zM1010 1052q0 114 -71.5 176.5t-211.5 67.5
l-85 3v-475h110q124 0 191 58.5t67 169.5zM1056 415q0 125 -79 194t-225 69h-110v-533l85 3q155 5 242 71.5t87 195.5z" />
    <glyph glyph-name="C" unicode="C" horiz-adv-x="1493" 
d="M89 714q0 231 103 405t286.5 266t421.5 92q161 0 292.5 -27.5t202.5 -76.5l9 -391h-120q-38 169 -122 246.5t-217 77.5q-185 0 -287 -154t-102 -413q0 -171 46.5 -306.5t135.5 -215t207 -79.5q134 0 219 80t124 260h121l-10 -391q-74 -54 -211.5 -87t-287.5 -33
q-230 0 -413.5 91t-290.5 262t-107 394z" />
    <glyph glyph-name="D" unicode="D" horiz-adv-x="1705" 
d="M1628 743q0 -162 -64 -302t-174 -236t-260.5 -150.5t-319.5 -54.5h-753v127q105 14 133 37t28 90v936q0 67 -28 90t-133 37v127h725q255 0 444.5 -80t295.5 -239.5t106 -381.5zM1162 721q-1 257 -117.5 412t-314.5 163l-88 3v-1154l88 3q197 7 315 160t117 413z" />
    <glyph glyph-name="E" unicode="E" horiz-adv-x="1410" 
d="M1292 1444l9 -415h-120q-15 58 -28 95.5t-32.5 68.5t-40.5 47.5t-56 28t-74.5 16.5t-100.5 7l-207 7v-490h171q54 0 77 35t46 157h114v-530h-114q-15 84 -30.5 124.5t-35.5 54t-57 13.5h-171v-518l233 9q66 2 106 6.5t78.5 17.5t59.5 32t42.5 55t35.5 82t31 118h121
l-11 -465h-1281v127q105 14 133 37t28 90v936q0 67 -28 90t-133 37v127h1235z" />
    <glyph glyph-name="F" unicode="F" horiz-adv-x="1329" 
d="M1275 1444l9 -415h-121q-22 88 -43 135t-60.5 77t-90 39t-143.5 13l-184 6v-512h155q55 0 78.5 35t45.5 157h114v-530h-114q-21 123 -45 158t-79 35h-155v-373q0 -75 30.5 -101.5t140.5 -40.5v-127h-756v127q105 14 133 37t28 90v936q0 67 -28 90t-133 37v127h1218z" />
    <glyph glyph-name="G" unicode="G" horiz-adv-x="1641" 
d="M89 714q0 231 103 405t286.5 266t421.5 92q161 0 293 -27.5t204 -76.5l8 -391h-120q-42 169 -126.5 246.5t-216.5 77.5q-184 0 -285 -154t-101 -413q0 -261 107.5 -431t286.5 -170q107 0 158 39v308q0 43 -10.5 63.5t-43.5 32.5t-105 20v126h665v-126
q-94 -12 -118.5 -33.5t-24.5 -84.5v-389q-95 -58 -249 -92.5t-322 -34.5q-230 0 -413.5 91t-290.5 262.5t-107 393.5z" />
    <glyph glyph-name="H" unicode="H" horiz-adv-x="1797" 
d="M642 247q0 -63 25.5 -85t121.5 -35v-127h-732v127q105 15 133 37.5t28 89.5v936q0 67 -28 90t-133 37v127h732v-127q-95 -14 -121 -36t-26 -85v-383h514v384q0 64 -25.5 85.5t-121.5 34.5v127h731v-127q-105 -13 -133 -35.5t-28 -91.5v-936q0 -69 28 -91.5t133 -35.5
v-127h-731v127q96 13 121.5 34.5t25.5 85.5v411h-514v-411z" />
    <glyph glyph-name="I" unicode="I" horiz-adv-x="860" 
d="M642 254q0 -67 28 -90t132 -37v-127h-745v127q105 14 133 37t28 90v936q0 67 -28 90t-133 37v127h745v-127q-104 -14 -132 -37t-28 -90v-936z" />
    <glyph glyph-name="J" unicode="J" horiz-adv-x="860" 
d="M642 284q0 -91 -18 -166.5t-56.5 -138t-90.5 -113t-130 -96.5t-164.5 -84t-203.5 -80l-49 108q113 74 174 148.5t87.5 176t26.5 259.5v892q0 67 -28 90t-133 37v127h745v-127q-104 -14 -132 -37t-28 -90v-906z" />
    <glyph glyph-name="K" unicode="&#x212a;" horiz-adv-x="1590" 
d="M642 247q0 -63 25.5 -84.5t121.5 -35.5v-127h-732v127q104 14 132.5 37t28.5 90v936q0 67 -28.5 90t-132.5 37v127h732v-127q-96 -14 -121.5 -36t-25.5 -85v-388h108l283 345q66 83 50 118t-119 46v127h584v-127q-109 -17 -176 -59t-199 -179l-119 -125l307 -540
q97 -169 138.5 -221t95.5 -72v-121h-478l-362 656h-113v-409z" />
    <glyph glyph-name="K" unicode="K" horiz-adv-x="1590" 
d="M642 247q0 -63 25.5 -84.5t121.5 -35.5v-127h-732v127q104 14 132.5 37t28.5 90v936q0 67 -28.5 90t-132.5 37v127h732v-127q-96 -14 -121.5 -36t-25.5 -85v-388h108l283 345q66 83 50 118t-119 46v127h584v-127q-109 -17 -176 -59t-199 -179l-119 -125l307 -540
q97 -169 138.5 -221t95.5 -72v-121h-478l-362 656h-113v-409z" />
    <glyph glyph-name="L" unicode="L" horiz-adv-x="1308" 
d="M1254 0h-1197v127q105 15 133 37.5t28 89.5v936q0 67 -28 90t-133 37v127h756v-127q-111 -16 -141 -38.5t-30 -89.5v-1044l157 6q80 3 128 16.5t90 53t70 109t57 187.5h120z" />
    <glyph glyph-name="M" unicode="M" horiz-adv-x="1998" 
d="M722 1444l289 -914l261 917l666 -3v-127q-105 -13 -133.5 -35.5t-26.5 -91.5l18 -936q1 -48 12.5 -70.5t43.5 -35t105 -21.5v-127h-723v127q96 13 122.5 34.5t24.5 85.5l-19 923l-246 -776l-113 -394h-247l-384 1168l5 -913q0 -69 25.5 -92t121.5 -36v-127h-482v127
q66 9 95 21.5t39.5 34.5t11.5 70l19 912q2 82 -24.5 110.5t-122.5 41.5v127h662z" />
    <glyph glyph-name="N" unicode="N" horiz-adv-x="1626" 
d="M660 1444l609 -1077l-15 818q-1 71 -28 95t-129 37v127h488v-127q-50 -8 -77 -15.5t-43.5 -22.5t-21 -34t-4.5 -54l-8 -1191h-468l-606 1071l15 -812q1 -50 11.5 -73t43 -36.5t103.5 -22.5v-127h-489v127q96 15 121.5 37.5t25.5 88.5l4 912q0 81 -26 108.5t-122 43.5v127
h616z" />
    <glyph glyph-name="O" unicode="O" horiz-adv-x="1766" 
d="M89 719q0 214 97.5 386t279.5 272t418 100q227 0 407.5 -92.5t283.5 -265t103 -394.5q0 -160 -57.5 -299.5t-160 -241t-252 -159.5t-326.5 -58q-170 0 -316.5 54.5t-251.5 151.5t-165 238t-60 308zM556 737q0 -171 39 -305.5t115 -214t178 -79.5q110 0 183.5 75
t106 199.5t32.5 294.5q0 171 -39 305.5t-115 214t-178 79.5q-110 0 -183.5 -75t-106 -199.5t-32.5 -294.5z" />
    <glyph glyph-name="P" unicode="P" horiz-adv-x="1554" 
d="M1477 1000q0 -220 -177 -345.5t-477 -125.5h-181v-260q0 -75 30.5 -101.5t140.5 -40.5v-127h-756v127q105 14 133 37t28 90v936q0 67 -28 90t-133 37v127h766q315 0 484.5 -113.5t169.5 -330.5zM1032 981q0 145 -79.5 226.5t-243.5 88.5l-67 3v-625l67 3
q158 6 240.5 84.5t82.5 219.5z" />
    <glyph glyph-name="Q" unicode="Q" horiz-adv-x="1766" 
d="M89 719q0 160 57.5 299.5t160 241t252.5 159.5t328 58q170 0 316 -54.5t251 -151.5t164.5 -238t59.5 -308q0 -233 -117.5 -416t-323.5 -272l76 -65q134 -113 222.5 -154.5t182.5 -35.5v-117q-143 -67 -338 -67q-130 0 -229 43.5t-226 163.5l-176 171
q-295 39 -477.5 239.5t-182.5 503.5zM556 737q0 -171 39 -305.5t116 -214t180 -79.5q109 0 182 75t105 199.5t32 294.5q1 170 -38.5 305t-116.5 214.5t-180 79.5q-109 0 -182 -75t-105 -199.5t-32 -294.5z" />
    <glyph glyph-name="R" unicode="R" horiz-adv-x="1553" 
d="M1453 1044q1 -127 -70.5 -217.5t-205.5 -133.5l163 -326q70 -137 109.5 -184.5t85.5 -61.5v-121h-455l-288 599h-150v-352q0 -63 25.5 -84.5t121.5 -35.5v-127h-732v127q105 14 133 37t28 90v936q0 67 -28 90t-133 37v127h776q308 0 463 -106t157 -294zM1027 1020
q0 127 -79 199t-227 77l-79 3v-555l87 3q134 4 216 75t82 198z" />
    <glyph glyph-name="S" unicode="S" horiz-adv-x="1368" 
d="M637 -33q-157 0 -301 33t-225 85l-10 368h121q35 -156 139 -235.5t252 -79.5q111 0 176 50.5t65 130.5q0 77 -52 126.5t-165 83.5l-131 39q-415 124 -415 447q0 207 172.5 334.5t469.5 127.5q146 0 271 -29.5t200 -79.5l9 -363h-120q-32 148 -120.5 224.5t-223.5 76.5
q-111 0 -171 -48.5t-60 -128.5q0 -70 53 -116t164 -80l131 -39q213 -65 314 -177t101 -279q0 -115 -51 -206t-139.5 -148t-204 -87t-249.5 -30z" />
    <glyph glyph-name="T" unicode="T" horiz-adv-x="1467" 
d="M1413 1444l9 -415h-120q-12 60 -24 99t-30 70.5t-38 48t-54 28.5t-72 16t-97 6l-42 2v-1030q0 -52 12 -77t47.5 -40t111.5 -25v-127h-765v127q76 10 111.5 25t47.5 40t12 77v1030l-42 -2q-59 -2 -97 -6t-72 -16t-54 -28.5t-38 -48t-30 -70.5t-24 -99h-120l9 415h1359z
" />
    <glyph glyph-name="U" unicode="U" horiz-adv-x="1628" 
d="M186 1197q0 63 -25.5 84.5t-121.5 35.5v127h731v-127q-105 -14 -132.5 -37t-27.5 -90v-619q0 -168 89.5 -261t236.5 -93q157 0 242.5 96t84.5 294l-5 579q-1 49 -11.5 71.5t-43 36t-105.5 23.5v127h491v-127q-95 -14 -120.5 -36.5t-26.5 -88.5l-5 -620
q-2 -277 -170.5 -441t-453.5 -164q-131 0 -245 38.5t-199 110.5t-134 183t-49 248v650z" />
    <glyph glyph-name="V" unicode="V" horiz-adv-x="1565" 
d="M204 1116q-42 119 -78.5 153.5t-130.5 47.5v127h771v-127q-61 -9 -91.5 -19.5t-45 -34t-9.5 -57t25 -93.5l263 -796l266 795q20 61 25 94.5t-9.5 57t-45 34t-91.5 19.5v127h517v-127q-93 -13 -128 -47.5t-79 -157.5l-400 -1112h-362z" />
    <glyph glyph-name="W" unicode="W" horiz-adv-x="2379" 
d="M196 1116q-38 119 -73.5 154t-127.5 47v127h757v-127q-40 -6 -64 -11.5t-42 -16.5t-25 -23.5t-7.5 -35.5t4.5 -49t17 -68l215 -767l214 778q13 47 17 75t1.5 50t-20 34t-43.5 20t-72 14v127h732v-127q-112 -16 -131.5 -51.5t14.5 -152.5l217 -765l212 776q13 47 17 75
t1 50.5t-20 34t-43 19.5t-72 14v127h510v-127q-93 -12 -128.5 -47t-73.5 -156l-347 -1114h-363l-278 939l-294 -939h-352z" />
    <glyph glyph-name="X" unicode="X" horiz-adv-x="1534" 
d="M295 335l254 353l-301 453q-60 90 -105 122.5t-132 53.5v127h797v-127q-45 -7 -70.5 -15t-40 -20.5t-11.5 -33.5t16 -48t41 -69l157 -235l152 235q28 43 40.5 70t16 48t-11 33t-39.5 20t-70 15v127h536v-127q-103 -14 -155.5 -49.5t-134.5 -154.5l-244 -352l305 -458
q60 -90 105 -122.5t131 -53.5v-127h-796v127q75 11 101 29t17.5 52.5t-54.5 104.5l-161 241l-159 -241q-28 -43 -41 -69.5t-16.5 -47.5t11 -33.5t40 -20.5t70.5 -15v-127h-540v127q103 14 154.5 50t137.5 158z" />
    <glyph glyph-name="Y" unicode="Y" horiz-adv-x="1507" 
d="M222 1135q-63 106 -102.5 138t-124.5 44v127h770v-127q-46 -5 -72.5 -12.5t-42 -19t-15 -32t10.5 -46.5t32 -67l212 -382l209 382q18 34 28 57t13 42.5t-3 31.5t-22 21.5t-40.5 15t-62.5 9.5v127h500v-127q-87 -12 -124 -40.5t-94 -124.5l-324 -552v-331q0 -52 12 -77
t47.5 -40t111.5 -25v-127h-766v127q76 10 111.5 25t47.5 40t12 77v315z" />
    <glyph glyph-name="Z" unicode="Z" horiz-adv-x="1378" 
d="M1289 0h-1210v121l732 1178l-276 -10q-89 -3 -139 -12.5t-88 -40t-58 -76.5t-41 -131h-120l9 415h1194v-121l-733 -1178l251 10q69 2 109.5 6.5t81.5 17t64 31.5t45.5 54t37.5 82.5t31 118.5h120z" />
    <glyph glyph-name="bracketleft" unicode="[" horiz-adv-x="808" 
d="M184 -280v1860h577v-127h-242v-1606h242v-127h-577z" />
    <glyph glyph-name="backslash" unicode="\" horiz-adv-x="808" 
d="M504 -280l-498 1860h298l498 -1860h-298z" />
    <glyph glyph-name="bracketright" unicode="]" horiz-adv-x="808" 
d="M624 1580v-1860h-577v127h242v1606h-242v127h577z" />
    <glyph glyph-name="asciicircum" unicode="^" horiz-adv-x="1331" 
d="M596 1444h142l500 -604l-183 -165l-393 468l-392 -468l-176 165z" />
    <glyph glyph-name="underscore" unicode="_" horiz-adv-x="1024" 
d="M26 -426v292h972v-292h-972z" />
    <glyph glyph-name="grave" unicode="`" horiz-adv-x="1024" 
d="M546 1182l-405 397v15h423l142 -412h-160z" />
    <glyph glyph-name="a" unicode="a" horiz-adv-x="1302" 
d="M382 -25q-142 0 -226.5 73.5t-84.5 187.5q0 123 101.5 208t340.5 135l220 47v52q0 223 -218 223q-42 0 -84 -8q33 -43 33 -95q0 -70 -50.5 -116.5t-128.5 -46.5t-126 41.5t-48 110.5q0 117 140.5 197.5t368.5 80.5q504 0 504 -391v-403q0 -57 26.5 -84.5t68.5 -27.5
q28 0 46 6v-121q-86 -63 -230 -63q-103 0 -182.5 45.5t-103.5 121.5q-49 -78 -145.5 -125.5t-221.5 -47.5zM455 299q0 -59 38 -92.5t96 -33.5q47 0 86 19t58 49v246l-67 -15q-113 -25 -162 -66t-49 -107z" />
    <glyph glyph-name="b" unicode="b" horiz-adv-x="1370" 
d="M1294 535q0 -129 -38 -235.5t-104 -176.5t-154.5 -108.5t-189.5 -38.5q-108 0 -196.5 46t-137.5 115l-116 -137h-211v1212q0 46 -12 64t-52 29l-70 20v119l532 65l-6 -635q40 86 130 138.5t207 52.5q184 0 301 -143.5t117 -386.5zM889 506q0 165 -55 255t-148 90
q-48 0 -86 -21.5t-55 -56.5v-551q16 -29 53.5 -48.5t85.5 -19.5q94 0 149.5 91.5t55.5 260.5z" />
    <glyph glyph-name="c" unicode="c" horiz-adv-x="1163" 
d="M650 -25q-159 0 -288.5 62.5t-207.5 185.5t-78 286q0 169 82.5 297.5t216.5 193.5t296 65q202 0 313.5 -85.5t111.5 -217.5q0 -83 -51.5 -134t-127.5 -51q-75 0 -125 48t-50 121q0 94 74 145q-37 10 -74 10q-116 0 -187.5 -88t-71.5 -238q0 -181 103 -283t263 -102
q68 0 135 18t107 50v-126q-66 -73 -183 -115t-258 -42z" />
    <glyph glyph-name="d" unicode="d" horiz-adv-x="1408" 
d="M76 506q0 129 37 235.5t101 176.5t150 108.5t184 38.5q83 0 160 -29.5t118 -75.5v252q0 46 -12 64t-52 29l-71 20v119l532 65v-1233q0 -46 12 -64t53 -29l69 -20v-119l-524 -59v183q-41 -87 -131 -140t-208 -53q-184 0 -301 144t-117 387zM481 535q0 -165 55 -255
t148 -90q48 0 86.5 21.5t55.5 55.5v552q-16 30 -54 49t-87 19q-93 0 -148.5 -91.5t-55.5 -260.5z" />
    <glyph glyph-name="e" unicode="e" horiz-adv-x="1219" 
d="M76 509q0 251 159.5 403t412.5 152q231 0 363 -124.5t132 -338.5q0 -65 -7 -104h-650q29 -147 131 -227t261 -80q64 0 128.5 18t105.5 50v-126q-68 -74 -188 -115.5t-267 -41.5q-162 0 -293 62t-209.5 185t-78.5 287zM648 901q-77 0 -122.5 -68t-49.5 -193h322v22
q0 113 -38.5 176t-111.5 63z" />
    <glyph glyph-name="f" unicode="f" horiz-adv-x="901" 
d="M595 243q0 -63 27.5 -84t124.5 -32v-127h-684v127q85 10 109.5 29t24.5 72v642h-134v115l140 49v60q0 216 119.5 330t321.5 114q150 0 234 -58.5t84 -149.5q0 -59 -39 -97t-96 -38q-59 0 -98 37.5t-39 97.5q0 32 14 60q-109 -13 -109 -181v-174l264 6v-170l-264 7v-635z
" />
    <glyph glyph-name="g" unicode="g" horiz-adv-x="1318" 
d="M79 707q0 158 145 258t380 100q177 0 297 -52l387 27v-170l-240 22q45 -25 74.5 -82t29.5 -119q0 -155 -147 -240.5t-383 -85.5q-60 0 -120 7q-74 -26 -74 -82q0 -75 132 -75h225q223 0 342.5 -86t119.5 -237q0 -173 -173.5 -279t-459.5 -106q-271 0 -422.5 68
t-151.5 178q0 77 83 125t247 58q-126 5 -204.5 61.5t-78.5 146.5q0 96 80.5 162.5t222.5 95.5q-131 20 -221 101t-90 204zM468 721q0 -94 43 -148t112 -54q66 0 106 54t40 139q0 94 -42.5 146.5t-113.5 52.5q-66 0 -105.5 -53t-39.5 -137zM399 -199q0 -60 59.5 -95
t168.5 -35q115 0 182 38.5t67 98.5q0 103 -175 103h-182q-57 -7 -88.5 -36.5t-31.5 -73.5z" />
    <glyph glyph-name="h" unicode="h" horiz-adv-x="1506" 
d="M595 1511l-6 -640q42 84 141 139t238 55q165 0 262.5 -90.5t97.5 -249.5v-497q0 -53 24.5 -72t109.5 -29v-127h-635v127q66 9 84.5 26t18.5 68v452q0 85 -45.5 131t-127.5 46q-56 0 -100 -20.5t-62 -52.5v-556q0 -51 18.5 -68t84.5 -26v-127h-635v127q85 10 109.5 29
t24.5 72v984q0 46 -12 64t-52 29l-70 20v119z" />
    <glyph glyph-name="i" unicode="i" horiz-adv-x="780" 
d="M371 1184q-88 0 -149 56.5t-61 142.5t61 141.5t149 55.5t148.5 -55.5t60.5 -141.5t-60.5 -142.5t-148.5 -56.5zM595 1057v-829q0 -53 24.5 -72t109.5 -29v-127h-666v127q85 10 109.5 29t24.5 72v531q0 46 -11.5 63.5t-52.5 29.5l-70 19v120z" />
    <glyph glyph-name="j" unicode="j" horiz-adv-x="736" 
d="M353 1184q-88 0 -148.5 56.5t-60.5 142.5t60.5 141.5t148.5 55.5t148.5 -55.5t60.5 -141.5t-60.5 -142.5t-148.5 -56.5zM580 1057v-821q0 -230 -95.5 -374t-336.5 -289l-94 -55l-66 102q119 104 157 217.5t38 337.5v584q0 46 -12 63.5t-53 29.5l-69 19v120z" />
    <glyph glyph-name="k" unicode="k" horiz-adv-x="1405" 
d="M945 0l-247 466h-103v-245q0 -51 18.5 -68t84.5 -26v-127h-635v127q85 10 109.5 29t24.5 72v984q0 46 -12 64t-52 29l-70 20v119l532 67v-901h98l145 139q89 82 82 116t-119 48v127h559v-127q-101 -14 -166.5 -47t-183.5 -131l186 -353q52 -100 87.5 -153.5t61 -74.5
t60.5 -33v-121h-460z" />
    <glyph glyph-name="l" unicode="l" horiz-adv-x="780" 
d="M595 1510v-1282q0 -53 24.5 -72t109.5 -29v-127h-666v127q85 10 109.5 29t24.5 72v984q0 46 -12 64t-52 29l-70 20v119z" />
    <glyph glyph-name="m" unicode="m" horiz-adv-x="2192" 
d="M588 1057v-187q37 80 135.5 137.5t231.5 57.5q130 0 218.5 -51.5t115.5 -147.5q38 83 137 141t234 58q164 0 258.5 -91t94.5 -257v-489q0 -53 24.5 -72t109.5 -29v-127h-635v127q67 9 85.5 26t18.5 68v443q0 90 -44 138t-119 48q-52 0 -93 -19t-58 -48q2 -26 2 -42v-520
q0 -51 18.5 -68t85.5 -26v-127h-605v127q66 9 85 26t19 68v443q0 90 -43.5 138t-117.5 48q-53 0 -94.5 -20.5t-56.5 -52.5v-556q0 -51 18.5 -68t84.5 -26v-127h-635v127q85 10 109.5 29t24.5 72v531q0 46 -11.5 63.5t-52.5 29.5l-70 19v120z" />
    <glyph glyph-name="n" unicode="n" horiz-adv-x="1506" 
d="M588 1057v-187q42 84 141.5 139.5t238.5 55.5q165 0 262.5 -90.5t97.5 -249.5v-497q0 -53 24.5 -72t109.5 -29v-127h-635v127q66 9 84.5 26t18.5 68v452q0 85 -45.5 131t-127.5 46q-56 0 -100 -20.5t-62 -52.5v-556q0 -51 18.5 -68t84.5 -26v-127h-635v127
q85 10 109.5 29t24.5 72v531q0 46 -11.5 63.5t-52.5 29.5l-70 19v120z" />
    <glyph glyph-name="o" unicode="o" horiz-adv-x="1360" 
d="M673 -25q-268 0 -432.5 148t-164.5 390q0 244 170.5 398t440.5 154q269 0 433 -148t164 -390q0 -244 -171 -398t-440 -154zM687 139q90 0 138.5 97t48.5 274q0 180 -55 285.5t-146 105.5q-90 0 -138 -97t-48 -274q0 -180 54.5 -285.5t145.5 -105.5z" />
    <glyph glyph-name="p" unicode="p" horiz-adv-x="1403" 
d="M1327 534q0 -129 -37 -235.5t-101 -176.5t-150 -108.5t-185 -38.5q-82 0 -159.5 30t-117.5 75v-297q0 -63 27.5 -84t125.5 -32v-127h-684v127q85 10 109.5 29t24.5 72v991q0 46 -12 63.5t-52 29.5l-70 19v120l525 66v-186q40 87 130 140.5t208 53.5q184 0 301 -144
t117 -387zM921 505q0 166 -55 255.5t-148 89.5q-48 0 -86 -21.5t-55 -55.5v-552q16 -30 53.5 -49t86.5 -19q94 0 149 91.5t55 260.5z" />
    <glyph glyph-name="q" unicode="q" horiz-adv-x="1376" 
d="M76 507q0 129 38 235.5t104 176.5t155 108.5t190 38.5q108 0 196.5 -45.5t137.5 -114.5l115 134h211v-1272q0 -53 24.5 -72t109.5 -29v-127h-684v127q68 8 98.5 19.5t42 32t12.5 64.5l6 388q-40 -88 -130 -141t-208 -53q-184 0 -301 144t-117 386zM481 536
q0 -165 55 -255t148 -90q48 0 86.5 22t55.5 56v552q-16 29 -53.5 48t-85.5 19q-94 0 -150 -91.5t-56 -260.5z" />
    <glyph glyph-name="r" unicode="r" horiz-adv-x="1103" 
d="M591 1057l-3 -303q71 161 145.5 234t163.5 73q79 0 119 -56.5t40 -145.5q0 -90 -27 -141q-60 25 -169 25q-82 0 -157 -19.5t-108 -50.5v-430q0 -63 27.5 -84t124.5 -32v-127h-684v127q85 10 109.5 29t24.5 72v531q0 46 -11.5 63.5t-52.5 29.5l-70 19v120z" />
    <glyph glyph-name="s" unicode="s" horiz-adv-x="1112" 
d="M80 714q0 162 137 256.5t384 94.5q239 0 389 -74l5 -262h-121q-28 80 -94 126t-166 46q-78 0 -121.5 -26t-43.5 -74q0 -44 37.5 -71t119.5 -46l106 -25q172 -40 253 -119t81 -210q0 -162 -141 -257.5t-388 -95.5q-128 0 -242 25t-194 68l-5 269h121q25 -85 98.5 -141.5
t201.5 -56.5q85 0 132 29t47 78q0 43 -34 69.5t-116 46.5l-106 25q-162 39 -251 116.5t-89 208.5z" />
    <glyph glyph-name="t" unicode="t" horiz-adv-x="883" 
d="M172 339v531h-130v115l412 302h108v-254l283 7v-170l-283 7v-487q0 -217 168 -217q74 0 129 32v-127q-49 -42 -145 -72.5t-195 -30.5q-72 0 -132.5 20t-110 61t-77 113.5t-27.5 169.5z" />
    <glyph glyph-name="u" unicode="u" horiz-adv-x="1459" 
d="M564 1057v-688q0 -86 42.5 -132.5t119.5 -46.5q51 0 91 20.5t59 51.5v497q0 46 -12 63.5t-52 29.5l-70 19v120l532 66v-781q0 -46 12 -64t52 -29l70 -20v-119l-526 -59v185q-42 -85 -138 -140t-231 -55q-159 0 -252.5 91t-93.5 252v441q0 46 -12 63.5t-53 29.5l-69 19
v120z" />
    <glyph glyph-name="v" unicode="v" horiz-adv-x="1228" 
d="M183 741q-40 99 -69 128.5t-102 43.5v127h672v-127q-91 -8 -108 -36t15 -120l145 -401l143 401q33 90 16 119.5t-107 36.5v127h428v-127q-74 -13 -102 -40.5t-68 -128.5l-294 -744h-276z" />
    <glyph glyph-name="w" unicode="w" horiz-adv-x="1897" 
d="M175 741q-25 68 -45.5 100.5t-45 47t-72.5 24.5v127h644v-127q-77 -7 -91 -36t15 -120l123 -378l128 378q31 91 17.5 120.5t-88.5 35.5v127h620v-127q-74 -6 -87.5 -35.5t16.5 -120.5l122 -378l127 378q31 91 16.5 120.5t-92.5 35.5v127h403v-127q-70 -13 -96.5 -40.5
t-64.5 -128.5l-275 -744h-276l-224 618l-227 -618h-276z" />
    <glyph glyph-name="x" unicode="x" horiz-adv-x="1239" 
d="M1046 264q59 -72 94 -98t87 -39v-127h-640v127q77 12 85.5 36.5t-43.5 89.5l-94 114l-88 -111q-52 -68 -44 -93t83 -36v-127h-474v127q84 14 127.5 42.5t113.5 110.5l180 212l-233 286q-60 73 -93.5 98t-84.5 37v127h638v-127q-81 -11 -89 -35.5t45 -89.5l95 -115l91 115
q53 66 45.5 90t-86.5 35v127h454v-127q-75 -10 -115 -35t-98 -97l-190 -232z" />
    <glyph glyph-name="y" unicode="y" horiz-adv-x="1227" 
d="M181 741q-41 100 -69 129t-100 43v127h666v-127q-93 -8 -110 -36.5t16 -119.5l141 -396l146 396q34 91 17.5 120t-107.5 36v127h434v-127q-74 -13 -103.5 -40.5t-70.5 -128.5l-188 -466l-112 -278l-167 -460h-363v9q203 279 291 403z" />
    <glyph glyph-name="z" unicode="z" horiz-adv-x="1095" 
d="M73 1040h949v-113l-511 -787l161 5q57 2 91.5 10.5t63 33.5t46.5 67t36 113h121l-5 -369h-963v113l508 785l-136 -4q-62 -2 -96.5 -9.5t-63.5 -31.5t-46.5 -60.5t-40.5 -105.5h-120z" />
    <glyph glyph-name="braceleft" unicode="{" horiz-adv-x="808" 
d="M569 1030q0 -170 -85.5 -261t-249.5 -119q164 -27 249.5 -118.5t85.5 -261.5v-159q0 -42 1.5 -70t7.5 -61.5t18.5 -55t32 -40.5t51 -28t73.5 -9v-127h-48q-486 0 -486 380v287q0 111 -47 156.5t-142 45.5v122q95 0 142 46t47 157v286q0 380 486 380h48v-127
q-50 0 -85.5 -14.5t-54.5 -36t-29 -59t-12.5 -70t-2.5 -83.5v-160z" />
    <glyph glyph-name="bar" unicode="|" horiz-adv-x="808" 
d="M255 -280v1860h298v-1860h-298z" />
    <glyph glyph-name="braceright" unicode="}" horiz-adv-x="808" 
d="M239 1030v160q0 51 -2.5 83.5t-12.5 70t-29 59t-54.5 36t-85.5 14.5v127h48q486 0 486 -380v-286q0 -111 47 -157t142 -46v-122q-95 0 -142 -45.5t-47 -156.5v-287q0 -380 -486 -380h-48v127q50 0 85.5 14.5t54.5 36t29 59.5t12.5 70.5t2.5 83.5v159q0 170 85.5 261.5
t249.5 118.5q-164 28 -249.5 119t-85.5 261z" />
    <glyph glyph-name="asciitilde" unicode="&#x223c;" horiz-adv-x="1331" 
d="M924 610q62 0 93 49t32 159h231q0 -235 -90.5 -353.5t-256.5 -118.5q-68 0 -148.5 33t-141 72t-127 72t-110.5 33q-62 0 -93 -49t-32 -159h-230q0 236 90.5 354.5t256.5 118.5q68 0 148.5 -33t141 -72.5t126.5 -72.5t110 -33z" />
    <glyph glyph-name="asciitilde" unicode="~" horiz-adv-x="1331" 
d="M924 610q62 0 93 49t32 159h231q0 -235 -90.5 -353.5t-256.5 -118.5q-68 0 -148.5 33t-141 72t-127 72t-110.5 33q-62 0 -93 -49t-32 -159h-230q0 236 90.5 354.5t256.5 118.5q68 0 148.5 -33t141 -72.5t126.5 -72.5t110 -33z" />
    <glyph glyph-name="exclamdown" unicode="&#xa1;" horiz-adv-x="778" 
d="M391 1007q77 0 132.5 -50.5t55.5 -124.5q0 -75 -55 -126t-133 -51t-133 50.5t-55 126.5q0 74 55 124.5t133 50.5zM389 -494q-100 0 -164.5 67.5t-64.5 174.5q0 72 18 152.5t62 225.5l112 404h79l110 -405q43 -142 60.5 -223t17.5 -154q0 -107 -65 -174.5t-165 -67.5z" />
    <glyph glyph-name="cent" unicode="&#xa2;" horiz-adv-x="1206" 
d="M722 0h-100v177q-153 5 -276 68.5t-196.5 184.5t-73.5 280q0 160 74 284t196.5 192t275.5 79v179h100v-177q200 -7 310.5 -78.5t110.5 -193.5q0 -75 -50 -122.5t-122 -47.5q-73 0 -121 49.5t-48 120.5q0 57 36 101q-31 7 -70 7q-24 0 -46 -3v-692q55 -16 120 -16
q83 0 162.5 19.5t127.5 55.5v-126q-61 -68 -168.5 -109.5t-241.5 -51.5v-180zM469 777q0 -220 153 -323v615q-72 -37 -112.5 -112.5t-40.5 -179.5z" />
    <glyph glyph-name="sterling" unicode="&#xa3;" horiz-adv-x="1331" 
d="M115 779h152q-87 146 -87 270q0 103 44.5 185t122.5 134.5t181 80t223 27.5q124 0 227.5 -32.5t169.5 -100.5t66 -159q0 -75 -53 -124t-129 -49q-74 0 -124.5 48.5t-50.5 120.5q0 75 54 126q-42 14 -95 14q-101 0 -163 -53t-62 -152q0 -51 14.5 -104.5t42.5 -126.5
t38 -105h302v-100h-278q4 -24 4 -56q0 -95 -64 -176t-176 -133h723l-2 -314h-1065v236q109 35 183.5 101t74.5 162q0 78 -60 180h-213v100z" />
    <glyph glyph-name="currency" unicode="&#xa4;" horiz-adv-x="1331" 
d="M664 122q-118 0 -217 54l-168 -168l-189 189l168 167q-56 101 -56 219t55 220l-167 167l189 189l167 -168q102 55 218 55q117 0 220 -56l168 169l189 -189l-169 -169q54 -103 54 -218q0 -114 -54 -217l169 -169l-189 -189l-169 169q-102 -55 -219 -55zM664 362
q89 0 150 62.5t61 158.5t-61 159t-150 63t-150 -63t-61 -159t61 -158.5t150 -62.5z" />
    <glyph glyph-name="yen" unicode="&#xa5;" horiz-adv-x="1331" 
d="M150 507h318v175h-318v99h271l-207 354q-61 105 -99.5 137.5t-119.5 44.5v127h729v-127q-98 -11 -112.5 -46t36.5 -131l144 -274l142 274q51 96 36 131t-112 46v127h479v-127q-84 -12 -119.5 -40.5t-91.5 -124.5l-218 -371h276v-99h-318v-175h318v-100h-318v-138
q0 -52 12 -77t47.5 -40t111.5 -25v-127h-740v127q76 10 111.5 25t47.5 40t12 77v138h-318v100z" />
    <glyph glyph-name="brokenbar" unicode="&#xa6;" horiz-adv-x="808" 
d="M255 789v791h298v-791h-298zM255 -280v791h298v-791h-298z" />
    <glyph glyph-name="section" unicode="&#xa7;" horiz-adv-x="1180" 
d="M85 546q0 129 92.5 205.5t244.5 81.5q-128 63 -191 138.5t-63 185.5q0 150 127.5 234t341.5 84q195 0 331 -66l6 -262h-121q-57 164 -210 164q-137 0 -137 -98q0 -43 36.5 -75t115.5 -64l105 -41q177 -67 254.5 -148t77.5 -202q0 -126 -90 -198.5t-243 -80.5
q250 -119 250 -326q0 -158 -127 -241.5t-344 -83.5q-230 0 -389 86l-5 270h121q58 -190 259 -190q74 0 110.5 27.5t36.5 75.5q0 44 -32.5 75.5t-113.5 63.5l-108 41q-172 65 -253.5 141.5t-81.5 202.5zM789 577q0 86 -98 139q-104 58 -177 58q-54 0 -88.5 -33.5t-34.5 -82.5
q0 -80 107 -139q104 -57 169 -57q54 0 88 33t34 82z" />
    <glyph glyph-name="dieresis" unicode="&#xa8;" horiz-adv-x="1024" 
d="M249 1205q-79 0 -133 50.5t-54 127.5t54.5 127t132.5 50q79 0 133 -50t54 -127t-54 -127.5t-133 -50.5zM775 1205q-79 0 -133 50.5t-54 127.5t54.5 127t132.5 50q79 0 133 -50t54 -127t-54 -127.5t-133 -50.5z" />
    <glyph glyph-name="copyright" unicode="&#xa9;" horiz-adv-x="1685" 
d="M842 -31q-152 0 -291.5 60t-240.5 161t-161 241t-60 292t60 292t161 241t240.5 161t291.5 60q153 0 292.5 -60t240.5 -161t161 -241t60 -292t-60 -292t-161 -241t-240.5 -161t-292.5 -60zM842 69q173 0 321 88t234.5 239t86.5 327t-86.5 327t-234.5 239t-321 88
q-130 0 -248.5 -52t-204.5 -140t-137 -209t-51 -253t51 -253t137 -209t204.5 -140t248.5 -52zM468 717q0 177 117 283.5t308 106.5q183 0 255 -49l4 -219h-71q-36 167 -160 167q-82 0 -127 -75t-45 -202q0 -125 46 -207t126 -82q124 0 162 175h71l-5 -218
q-38 -28 -107.5 -43.5t-148.5 -15.5q-186 0 -305.5 105t-119.5 274z" />
    <glyph glyph-name="a.sups" unicode="&#xaa;" horiz-adv-x="854" 
d="M252 772q-87 0 -138 42.5t-51 108.5q0 147 275 203l130 27v23q0 125 -128 125q-18 0 -36 -3q14 -22 14 -49q0 -45 -33 -76t-83 -31q-51 0 -82 26t-31 70q0 71 87 120.5t232 49.5q321 0 321 -242v-209q0 -31 15.5 -47t39.5 -16q14 0 26 2v-81q-53 -39 -148 -39
q-65 0 -116.5 28t-66.5 74q-30 -49 -89 -77.5t-138 -28.5zM319 967q0 -29 20.5 -45t51.5 -16q53 0 77 29v127l-30 -6q-64 -12 -91.5 -33.5t-27.5 -55.5z" />
    <glyph glyph-name="guillemetleft" unicode="&#xab;" horiz-adv-x="1307" 
d="M86 519v58l389 434h215l-268 -459l268 -467h-215zM610 519v58l388 434h215l-268 -459l268 -467h-215z" />
    <glyph glyph-name="logicalnot" unicode="&#xac;" horiz-adv-x="1331" 
d="M133 478v266h1065v-665h-266v399h-799z" />
    <glyph glyph-name="registered" unicode="&#xae;" horiz-adv-x="1685" 
d="M842 -31q-152 0 -291.5 60t-240.5 161t-161 241t-60 292t60 292t161 241t240.5 161t291.5 60q153 0 292.5 -60t240.5 -161t161 -241t60 -292t-60 -292t-161 -241t-240.5 -161t-292.5 -60zM842 69q173 0 321 88t234.5 239t86.5 327t-86.5 327t-234.5 239t-321 88
q-130 0 -248.5 -52t-204.5 -140t-137 -209t-51 -253t51 -253t137 -209t204.5 -140t248.5 -52zM1223 885q1 -63 -33 -109t-101 -70l77 -161q31 -64 50 -87t41 -30v-73h-267l-134 295h-56v-157q0 -31 12.5 -42.5t57.5 -19.5v-76h-404v76q51 8 65 20t14 46v451q0 34 -14 46
t-65 20v76h431q163 0 244 -54.5t82 -150.5zM967 871q0 60 -36 94.5t-101 37.5h-31v-264h32q58 2 97 37.5t39 94.5z" />
    <glyph glyph-name="macron" unicode="&#xaf;" horiz-adv-x="1024" 
d="M139 1263v207h746v-207h-746z" />
    <glyph glyph-name="degree" unicode="&#xb0;" horiz-adv-x="943" 
d="M472 701q-155 0 -263 102t-108 252q0 149 108.5 252t262.5 103q153 0 262 -103.5t109 -251.5q0 -149 -108.5 -251.5t-262.5 -102.5zM472 870q73 0 124 52.5t51 132.5q0 79 -51.5 132t-123.5 53q-73 0 -124.5 -53t-51.5 -132q0 -80 51 -132.5t125 -52.5z" />
    <glyph glyph-name="plusminus" unicode="&#xb1;" horiz-adv-x="1331" 
d="M133 651v267h400v227h266v-227h399v-267h-399v-225h-266v225h-400zM133 79v266h1065v-266h-1065z" />
    <glyph glyph-name="two.sups" unicode="&#xb2;" horiz-adv-x="794" 
d="M716 786h-640v160l188 158q99 85 136.5 138.5t37.5 109.5q0 50 -36 80.5t-98 30.5q-59 0 -103.5 -30.5t-68.5 -83.5l-77 38q40 115 129.5 181t229.5 66q131 0 208.5 -69t77.5 -171q0 -83 -65 -154.5t-208 -149.5l-187 -101h476v-203z" />
    <glyph glyph-name="three.sups" unicode="&#xb3;" horiz-adv-x="838" 
d="M387 767q-139 0 -224.5 56.5t-85.5 143.5q0 44 29 73.5t75 29.5q44 0 73 -27.5t29 -70.5q0 -48 -39 -76q37 -20 86 -20q68 0 111 35t43 97q0 70 -52 110.5t-135 40.5q-36 0 -68 -5v96q241 14 241 116q0 44 -33 71t-94 27q-133 0 -188 -110l-76 43q41 107 133 172t224 65
q127 0 207.5 -53.5t80.5 -139.5q0 -69 -49 -118t-133 -66q97 -20 151.5 -79t54.5 -138q0 -131 -102 -202t-259 -71z" />
    <glyph glyph-name="acute" unicode="&#xb4;" horiz-adv-x="1024" 
d="M481 1182h-160l155 412h406v-15z" />
    <glyph glyph-name="mugreek" unicode="&#x3bc;" horiz-adv-x="1381" 
d="M125 -460v1500h408q-26 -311 -26 -614q0 -235 170 -235q51 0 93.5 22t60.5 60l-9 767h408l-30 -704q-4 -81 21 -114.5t86 -33.5q33 0 47 6v-122q-42 -39 -112.5 -65t-143.5 -26q-197 0 -243 201q-26 -87 -107.5 -147t-185.5 -60q-42 0 -84 11q9 -243 39 -446h-392z" />
    <glyph glyph-name="mugreek" unicode="&#xb5;" horiz-adv-x="1381" 
d="M125 -460v1500h408q-26 -311 -26 -614q0 -235 170 -235q51 0 93.5 22t60.5 60l-9 767h408l-30 -704q-4 -81 21 -114.5t86 -33.5q33 0 47 6v-122q-42 -39 -112.5 -65t-143.5 -26q-197 0 -243 201q-26 -87 -107.5 -147t-185.5 -60q-42 0 -84 11q9 -243 39 -446h-392z" />
    <glyph glyph-name="paragraph" unicode="&#xb6;" horiz-adv-x="1498" 
d="M659 -220v699h-58q-73 0 -146 20t-141.5 61.5t-121.5 99.5t-84.5 140.5t-31.5 177.5q0 114 45.5 205t121.5 146.5t167.5 85t190.5 29.5h260v-1664h-202zM1074 1444h369v-127q-110 -13 -138.5 -34.5t-28.5 -88.5v-1414h-202v1664z" />
    <glyph glyph-name="middledot" unicode="&#x2e31;" horiz-adv-x="625" 
d="M312 394q-90 0 -153 63.5t-63 153.5t63 153.5t153 63.5t153.5 -64t63.5 -153t-63.5 -153t-153.5 -64z" />
    <glyph glyph-name="middledot" unicode="&#x2027;" horiz-adv-x="625" 
d="M312 394q-90 0 -153 63.5t-63 153.5t63 153.5t153 63.5t153.5 -64t63.5 -153t-63.5 -153t-153.5 -64z" />
    <glyph glyph-name="middledot" unicode="&#xb7;" horiz-adv-x="625" 
d="M312 394q-90 0 -153 63.5t-63 153.5t63 153.5t153 63.5t153.5 -64t63.5 -153t-63.5 -153t-153.5 -64z" />
    <glyph glyph-name="cedilla" unicode="&#xb8;" horiz-adv-x="1024" 
d="M470 -493q-145 0 -232 46v122q57 -31 137 -31q49 0 78 17t29 50q0 69 -115 69q-23 0 -41 -4v97l174 193h98v-66l-85 -87q117 -2 192.5 -54.5t75.5 -149.5q0 -96 -90 -149t-221 -53z" />
    <glyph glyph-name="one.sups" unicode="&#xb9;" horiz-adv-x="766" 
d="M525 1615l1 -655q0 -45 29.5 -62.5t120.5 -25.5v-85h-566v85q91 8 120.5 25.5t29.5 62.5v472l-157 -32v78l303 137h119z" />
    <glyph glyph-name="o.sups" unicode="&#xba;" horiz-adv-x="885" 
d="M438 772q-168 0 -270 86t-102 227q0 143 106 233t274 90q169 0 271 -86t102 -228q0 -143 -106 -232.5t-275 -89.5zM446 880q49 0 74.5 53t25.5 152t-29 156.5t-78 57.5q-48 0 -73.5 -53t-25.5 -152q0 -100 28.5 -157t77.5 -57z" />
    <glyph glyph-name="guillemetright" unicode="&#xbb;" horiz-adv-x="1307" 
d="M698 577v-58l-389 -434h-215l268 459l-268 467h215zM1221 577v-58l-389 -434h-215l268 459l-268 467h215z" />
    <glyph glyph-name="onequarter" unicode="&#xbc;" horiz-adv-x="1909" 
d="M525 1444l1 -655q0 -45 29.5 -62.5t120.5 -25.5v-85h-566v85q91 8 120.5 25.5t29.5 62.5v472l-157 -32v78l303 137h119zM423 0l952 1444h253l-952 -1444h-253zM1515 0v149h-397v154l390 526h236v-504h119v-176h-118v-149h-230zM1514 325l1 337l-237 -337h236z" />
    <glyph glyph-name="onehalf" unicode="&#xbd;" horiz-adv-x="2006" 
d="M525 1444l1 -655q0 -45 29.5 -62.5t120.5 -25.5v-85h-566v85q91 8 120.5 25.5t29.5 62.5v472l-157 -32v78l303 137h119zM423 0l952 1444h253l-952 -1444h-253zM1927 0l-639 -1v161l187 158q99 86 136.5 139t37.5 109q0 49 -36 80t-97 31q-60 0 -104 -30.5t-68 -83.5
l-78 37q40 115 130 181.5t229 66.5q131 0 208.5 -69t77.5 -172q0 -82 -65 -154t-207 -149l-188 -102h476v-202z" />
    <glyph glyph-name="threequarters" unicode="&#xbe;" horiz-adv-x="1907" 
d="M387 596q-139 0 -224.5 56.5t-85.5 143.5q0 44 29 73.5t75 29.5q44 0 73 -27.5t29 -70.5q0 -48 -39 -76q37 -20 86 -20q68 0 111 35.5t43 96.5q0 70 -52 110.5t-135 40.5q-39 0 -68 -6v97q241 14 241 116q0 44 -33 71t-94 27q-133 0 -188 -110l-76 43q41 107 133 172
t224 65q127 0 207.5 -53.5t80.5 -139.5q0 -69 -49 -118t-133 -66q97 -20 151.5 -79t54.5 -138q0 -131 -102 -202t-259 -71zM421 0l952 1444h253l-952 -1444h-253zM1513 0v149h-397v154l390 526h236v-504h119v-176h-118v-149h-230zM1513 325v337l-237 -337h237z" />
    <glyph glyph-name="questiondown" unicode="&#xbf;" horiz-adv-x="843" 
d="M505 1007q77 0 132.5 -50.5t55.5 -124.5q0 -75 -55 -126t-133 -51t-133 50.5t-55 126.5q0 74 55 124.5t133 50.5zM503 -495q-117 -1 -214 51t-157 155.5t-60 238.5q0 191 118 319t298 163l-2 98h86l86 -435q-198 -2 -296 -34t-98 -102q0 -78 114 -113t360 -35
q18 -39 18 -88q0 -95 -67.5 -156t-185.5 -62z" />
    <glyph glyph-name="Agrave" unicode="&#xc0;" horiz-adv-x="1582" 
d="M839 1555l-383 309v12h422l119 -321h-158zM1378 329q31 -84 54.5 -121.5t56.5 -54.5t98 -26v-127h-770v127q60 9 91 19.5t45.5 34t9.5 57.5t-26 94l-38 112h-469l-39 -112q-14 -40 -20.5 -67t-5.5 -49.5t9 -35.5t27 -24t44.5 -17t66.5 -12v-127h-517v127
q93 13 127.5 47.5t80.5 157.5l408 1112h361zM483 598h364l-181 531z" />
    <glyph glyph-name="Aacute" unicode="&#xc1;" horiz-adv-x="1582" 
d="M775 1555h-158l132 321h406v-12zM1378 329q31 -84 54.5 -121.5t56.5 -54.5t98 -26v-127h-770v127q60 9 91 19.5t45.5 34t9.5 57.5t-26 94l-38 112h-469l-39 -112q-14 -40 -20.5 -67t-5.5 -49.5t9 -35.5t27 -24t44.5 -17t66.5 -12v-127h-517v127q93 13 127.5 47.5
t80.5 157.5l408 1112h361zM483 598h364l-181 531z" />
    <glyph glyph-name="Acircumflex" unicode="&#xc2;" horiz-adv-x="1582" 
d="M596 1555h-156l217 321h304l217 -321h-158l-212 146zM1378 329q31 -84 54.5 -121.5t56.5 -54.5t98 -26v-127h-770v127q60 9 91 19.5t45.5 34t9.5 57.5t-26 94l-38 112h-469l-39 -112q-14 -40 -20.5 -67t-5.5 -49.5t9 -35.5t27 -24t44.5 -17t66.5 -12v-127h-517v127
q93 13 127.5 47.5t80.5 157.5l408 1112h361zM483 598h364l-181 531z" />
    <glyph glyph-name="Atilde" unicode="&#xc3;" horiz-adv-x="1582" 
d="M934 1544q-86 0 -181 63l-31 22q-56 37 -87 37q-33 0 -47.5 -29.5t-15.5 -98.5h-145q0 180 59 264.5t159 84.5q86 0 181 -63l32 -22q54 -37 87 -37t47 29.5t15 98.5h146q0 -181 -59 -265t-160 -84zM1378 329q31 -84 54.5 -121.5t56.5 -54.5t98 -26v-127h-770v127
q60 9 91 19.5t45.5 34t9.5 57.5t-26 94l-38 112h-469l-39 -112q-14 -40 -20.5 -67t-5.5 -49.5t9 -35.5t27 -24t44.5 -17t66.5 -12v-127h-517v127q93 13 127.5 47.5t80.5 157.5l408 1112h361zM483 598h364l-181 531z" />
    <glyph glyph-name="Adieresis" unicode="&#xc4;" horiz-adv-x="1582" 
d="M594 1566q-66 0 -111 43t-45 108t45.5 108t110.5 43q66 0 111.5 -43t45.5 -108t-45.5 -108t-111.5 -43zM985 1566q-66 0 -111.5 43t-45.5 108t46 108t111 43q66 0 111 -43t45 -108t-45 -108t-111 -43zM1378 329q31 -84 54.5 -121.5t56.5 -54.5t98 -26v-127h-770v127
q60 9 91 19.5t45.5 34t9.5 57.5t-26 94l-38 112h-469l-39 -112q-14 -40 -20.5 -67t-5.5 -49.5t9 -35.5t27 -24t44.5 -17t66.5 -12v-127h-517v127q93 13 127.5 47.5t80.5 157.5l408 1112h361zM483 598h364l-181 531z" />
    <glyph glyph-name="Aring" unicode="&#x212b;" horiz-adv-x="1582" 
d="M485 1762q0 95 86 154.5t218 59.5q133 0 219 -59.5t86 -154.5t-86 -154t-219 -59q-132 0 -218 59.5t-86 153.5zM698 1762q0 -43 26.5 -70.5t64.5 -27.5t64.5 27.5t26.5 70.5t-26.5 70.5t-64.5 27.5t-64.5 -27.5t-26.5 -70.5zM1378 329q31 -84 54.5 -121.5t56.5 -54.5
t98 -26v-127h-770v127q60 9 91 19.5t45.5 34t9.5 57.5t-26 94l-38 112h-469l-39 -112q-14 -40 -20.5 -67t-5.5 -49.5t9 -35.5t27 -24t44.5 -17t66.5 -12v-127h-517v127q93 13 127.5 47.5t80.5 157.5l408 1112h361zM483 598h364l-181 531z" />
    <glyph glyph-name="Aring" unicode="&#xc5;" horiz-adv-x="1582" 
d="M485 1762q0 95 86 154.5t218 59.5q133 0 219 -59.5t86 -154.5t-86 -154t-219 -59q-132 0 -218 59.5t-86 153.5zM698 1762q0 -43 26.5 -70.5t64.5 -27.5t64.5 27.5t26.5 70.5t-26.5 70.5t-64.5 27.5t-64.5 -27.5t-26.5 -70.5zM1378 329q31 -84 54.5 -121.5t56.5 -54.5
t98 -26v-127h-770v127q60 9 91 19.5t45.5 34t9.5 57.5t-26 94l-38 112h-469l-39 -112q-14 -40 -20.5 -67t-5.5 -49.5t9 -35.5t27 -24t44.5 -17t66.5 -12v-127h-517v127q93 13 127.5 47.5t80.5 157.5l408 1112h361zM483 598h364l-181 531z" />
    <glyph glyph-name="AE" unicode="&#xc6;" horiz-adv-x="2033" 
d="M1918 1444l10 -413h-120q-19 70 -36.5 111t-40 71.5t-59.5 45t-81 22t-118 11.5l-153 7l7 -490h124q55 0 77.5 35t42.5 157h114l7 -530h-114q-16 84 -31.5 124.5t-35.5 54t-57 13.5h-125l6 -518l179 9q64 3 102.5 8t75.5 18t57 31.5t40.5 54.5t33.5 81.5t29 117.5h120
l-10 -465h-1168v127q96 13 122 34t26 86l-5 288h-433l-83 -186q-52 -118 -35 -162.5t119 -59.5v-127h-521v127q89 10 136 50t109 171l522 1096h1167zM848 1299l-274 -610h361l-8 610h-79z" />
    <glyph glyph-name="Ccedilla" unicode="&#xc7;" horiz-adv-x="1493" 
d="M89 714q0 231 103 405t286.5 266t421.5 92q161 0 292.5 -27.5t202.5 -76.5l9 -391h-120q-38 169 -122 246.5t-217 77.5q-185 0 -287 -154t-102 -413q0 -171 46.5 -306.5t135.5 -215t207 -79.5q134 0 219 80t124 260h121l-10 -391q-69 -50 -192.5 -82t-262.5 -37l-54 -55
q117 -2 192.5 -54.5t75.5 -149.5q0 -96 -90 -149t-221 -53q-145 0 -232 46v122q58 -31 137 -31q49 0 78 17t29 50q0 34 -30 51.5t-84 17.5q-25 0 -41 -4v97l89 100q-203 21 -362 116t-250.5 257.5t-91.5 367.5z" />
    <glyph glyph-name="Egrave" unicode="&#xc8;" horiz-adv-x="1410" 
d="M790 1555l-383 309v12h422l119 -321h-158zM1292 1444l9 -415h-120q-15 58 -28 95.5t-32.5 68.5t-40.5 47.5t-56 28t-74.5 16.5t-100.5 7l-207 7v-490h171q54 0 77 35t46 157h114v-530h-114q-15 84 -30.5 124.5t-35.5 54t-57 13.5h-171v-518l233 9q66 2 106 6.5t78.5 17.5
t59.5 32t42.5 55t35.5 82t31 118h121l-11 -465h-1281v127q105 14 133 37t28 90v936q0 67 -28 90t-133 37v127h1235z" />
    <glyph glyph-name="Eacute" unicode="&#xc9;" horiz-adv-x="1410" 
d="M726 1555h-158l132 321h406v-12zM1292 1444l9 -415h-120q-15 58 -28 95.5t-32.5 68.5t-40.5 47.5t-56 28t-74.5 16.5t-100.5 7l-207 7v-490h171q54 0 77 35t46 157h114v-530h-114q-15 84 -30.5 124.5t-35.5 54t-57 13.5h-171v-518l233 9q66 2 106 6.5t78.5 17.5t59.5 32
t42.5 55t35.5 82t31 118h121l-11 -465h-1281v127q105 14 133 37t28 90v936q0 67 -28 90t-133 37v127h1235z" />
    <glyph glyph-name="Ecircumflex" unicode="&#xca;" horiz-adv-x="1410" 
d="M547 1555h-155l216 321h304l217 -321h-158l-211 146zM1292 1444l9 -415h-120q-15 58 -28 95.5t-32.5 68.5t-40.5 47.5t-56 28t-74.5 16.5t-100.5 7l-207 7v-490h171q54 0 77 35t46 157h114v-530h-114q-15 84 -30.5 124.5t-35.5 54t-57 13.5h-171v-518l233 9q66 2 106 6.5
t78.5 17.5t59.5 32t42.5 55t35.5 82t31 118h121l-11 -465h-1281v127q105 14 133 37t28 90v936q0 67 -28 90t-133 37v127h1235z" />
    <glyph glyph-name="Edieresis" unicode="&#xcb;" horiz-adv-x="1410" 
d="M545 1566q-66 0 -111 43t-45 108t45.5 108t110.5 43q66 0 111.5 -43t45.5 -108t-45.5 -108t-111.5 -43zM936 1566q-66 0 -111.5 43t-45.5 108t46 108t111 43q66 0 111 -43t45 -108t-45 -108t-111 -43zM1292 1444l9 -415h-120q-15 58 -28 95.5t-32.5 68.5t-40.5 47.5
t-56 28t-74.5 16.5t-100.5 7l-207 7v-490h171q54 0 77 35t46 157h114v-530h-114q-15 84 -30.5 124.5t-35.5 54t-57 13.5h-171v-518l233 9q66 2 106 6.5t78.5 17.5t59.5 32t42.5 55t35.5 82t31 118h121l-11 -465h-1281v127q105 14 133 37t28 90v936q0 67 -28 90t-133 37v127
h1235z" />
    <glyph glyph-name="Igrave" unicode="&#xcc;" horiz-adv-x="860" 
d="M479 1555l-383 309v12h423l118 -321h-158zM642 254q0 -67 28 -90t132 -37v-127h-745v127q105 14 133 37t28 90v936q0 67 -28 90t-133 37v127h745v-127q-104 -14 -132 -37t-28 -90v-936z" />
    <glyph glyph-name="Iacute" unicode="&#xcd;" horiz-adv-x="860" 
d="M415 1555h-158l133 321h405v-12zM642 254q0 -67 28 -90t132 -37v-127h-745v127q105 14 133 37t28 90v936q0 67 -28 90t-133 37v127h745v-127q-104 -14 -132 -37t-28 -90v-936z" />
    <glyph glyph-name="Icircumflex" unicode="&#xce;" horiz-adv-x="860" 
d="M237 1555h-156l217 321h304l216 -321h-158l-211 146zM642 254q0 -67 28 -90t132 -37v-127h-745v127q105 14 133 37t28 90v936q0 67 -28 90t-133 37v127h745v-127q-104 -14 -132 -37t-28 -90v-936z" />
    <glyph glyph-name="Idieresis" unicode="&#xcf;" horiz-adv-x="860" 
d="M235 1566q-66 0 -111.5 43t-45.5 108t45.5 108t111.5 43t111 -43t45 -108t-45 -108t-111 -43zM625 1566q-65 0 -110.5 43t-45.5 108t45.5 108t110.5 43q66 0 111.5 -43t45.5 -108t-45.5 -108t-111.5 -43zM642 254q0 -67 28 -90t132 -37v-127h-745v127q105 14 133 37
t28 90v936q0 67 -28 90t-133 37v127h745v-127q-104 -14 -132 -37t-28 -90v-936z" />
    <glyph glyph-name="Dbar" unicode="&#x110;" horiz-adv-x="1705" 
d="M57 669v142h161v379q0 67 -28 90t-133 37v127h725q255 0 444.5 -80t295.5 -239.5t106 -381.5q0 -162 -64 -302t-174 -236t-260.5 -150.5t-319.5 -54.5h-753v127q105 14 133 37t28 90v415h-161zM1162 721q-1 257 -117.5 412t-314.5 163l-88 3v-488h267v-142h-267v-524
l88 3q197 7 314.5 159.5t117.5 413.5z" />
    <glyph glyph-name="Dbar" unicode="&#xd0;" horiz-adv-x="1705" 
d="M57 669v142h161v379q0 67 -28 90t-133 37v127h725q255 0 444.5 -80t295.5 -239.5t106 -381.5q0 -162 -64 -302t-174 -236t-260.5 -150.5t-319.5 -54.5h-753v127q105 14 133 37t28 90v415h-161zM1162 721q-1 257 -117.5 412t-314.5 163l-88 3v-488h267v-142h-267v-524
l88 3q197 7 314.5 159.5t117.5 413.5z" />
    <glyph glyph-name="Ntilde" unicode="&#xd1;" horiz-adv-x="1626" 
d="M997 1544q-87 0 -181 63l-32 22q-56 37 -87 37q-32 0 -46.5 -29.5t-15.5 -98.5h-145q0 180 59 264.5t159 84.5q84 0 181 -63l32 -22q54 -37 86 -37q33 0 47.5 29.5t15.5 98.5h145q0 -180 -59 -264.5t-159 -84.5zM660 1444l609 -1077l-15 818q-1 71 -28 95t-129 37v127
h488v-127q-50 -8 -77 -15.5t-43.5 -22.5t-21 -34t-4.5 -54l-8 -1191h-468l-606 1071l15 -812q1 -50 11.5 -73t43 -36.5t103.5 -22.5v-127h-489v127q96 15 121.5 37.5t25.5 88.5l4 912q0 81 -26 108.5t-122 43.5v127h616z" />
    <glyph glyph-name="Ograve" unicode="&#xd2;" horiz-adv-x="1766" 
d="M933 1555l-383 309v12h422l119 -321h-158zM89 719q0 214 97.5 386t279.5 272t418 100q227 0 407.5 -92.5t283.5 -265t103 -394.5q0 -160 -57.5 -299.5t-160 -241t-252 -159.5t-326.5 -58q-170 0 -316.5 54.5t-251.5 151.5t-165 238t-60 308zM556 737q0 -171 39 -305.5
t115 -214t178 -79.5q110 0 183.5 75t106 199.5t32.5 294.5q0 171 -39 305.5t-115 214t-178 79.5q-110 0 -183.5 -75t-106 -199.5t-32.5 -294.5z" />
    <glyph glyph-name="Oacute" unicode="&#xd3;" horiz-adv-x="1766" 
d="M869 1555h-158l132 321h406v-12zM89 719q0 214 97.5 386t279.5 272t418 100q227 0 407.5 -92.5t283.5 -265t103 -394.5q0 -160 -57.5 -299.5t-160 -241t-252 -159.5t-326.5 -58q-170 0 -316.5 54.5t-251.5 151.5t-165 238t-60 308zM556 737q0 -171 39 -305.5t115 -214
t178 -79.5q110 0 183.5 75t106 199.5t32.5 294.5q0 171 -39 305.5t-115 214t-178 79.5q-110 0 -183.5 -75t-106 -199.5t-32.5 -294.5z" />
    <glyph glyph-name="Ocircumflex" unicode="&#xd4;" horiz-adv-x="1766" 
d="M690 1555h-155l216 321h304l217 -321h-158l-211 146zM89 719q0 214 97.5 386t279.5 272t418 100q227 0 407.5 -92.5t283.5 -265t103 -394.5q0 -160 -57.5 -299.5t-160 -241t-252 -159.5t-326.5 -58q-170 0 -316.5 54.5t-251.5 151.5t-165 238t-60 308zM556 737
q0 -171 39 -305.5t115 -214t178 -79.5q110 0 183.5 75t106 199.5t32.5 294.5q0 171 -39 305.5t-115 214t-178 79.5q-110 0 -183.5 -75t-106 -199.5t-32.5 -294.5z" />
    <glyph glyph-name="Otilde" unicode="&#xd5;" horiz-adv-x="1766" 
d="M1028 1544q-87 0 -180 63l-32 22q-56 37 -87 37q-33 0 -47 -29.5t-16 -98.5h-145q0 180 59 264.5t159 84.5q86 0 181 -63l32 -22q54 -37 87 -37t47 29.5t16 98.5h145q0 -181 -59 -265t-160 -84zM89 719q0 214 97.5 386t279.5 272t418 100q227 0 407.5 -92.5t283.5 -265
t103 -394.5q0 -160 -57.5 -299.5t-160 -241t-252 -159.5t-326.5 -58q-170 0 -316.5 54.5t-251.5 151.5t-165 238t-60 308zM556 737q0 -171 39 -305.5t115 -214t178 -79.5q110 0 183.5 75t106 199.5t32.5 294.5q0 171 -39 305.5t-115 214t-178 79.5q-110 0 -183.5 -75
t-106 -199.5t-32.5 -294.5z" />
    <glyph glyph-name="Odieresis" unicode="&#xd6;" horiz-adv-x="1766" 
d="M688 1566q-66 0 -111 43t-45 108t45.5 108t110.5 43q66 0 111.5 -43t45.5 -108t-45.5 -108t-111.5 -43zM1079 1566q-66 0 -111.5 43t-45.5 108t46 108t111 43q66 0 111 -43t45 -108t-45 -108t-111 -43zM89 719q0 214 97.5 386t279.5 272t418 100q227 0 407.5 -92.5
t283.5 -265t103 -394.5q0 -160 -57.5 -299.5t-160 -241t-252 -159.5t-326.5 -58q-170 0 -316.5 54.5t-251.5 151.5t-165 238t-60 308zM556 737q0 -171 39 -305.5t115 -214t178 -79.5q110 0 183.5 75t106 199.5t32.5 294.5q0 171 -39 305.5t-115 214t-178 79.5
q-110 0 -183.5 -75t-106 -199.5t-32.5 -294.5z" />
    <glyph glyph-name="multiply" unicode="&#xd7;" horiz-adv-x="1331" 
d="M1214 254l-192 -192l-361 361l-356 -356l-183 183l356 356l-362 361l193 193l361 -362l357 357l183 -183l-357 -357z" />
    <glyph glyph-name="Oslash" unicode="&#xd8;" horiz-adv-x="1766" 
d="M89 719q0 214 97.5 386t279.5 272t418 100q281 0 485 -140l136 141l107 -104l-129 -134q195 -205 195 -515q0 -160 -57.5 -299.5t-160 -241t-252 -159.5t-326.5 -58q-281 0 -486 140l-135 -141l-107 104l128 134q-193 204 -193 515zM556 737q0 -119 20 -227l564 588
q-93 208 -262 208q-110 0 -183.5 -75t-106 -199.5t-32.5 -294.5zM1210 707q0 121 -20 227l-564 -587q44 -99 110.5 -154t151.5 -55q110 0 183.5 75t106 199.5t32.5 294.5z" />
    <glyph glyph-name="Ugrave" unicode="&#xd9;" horiz-adv-x="1628" 
d="M934 1555l-383 309v12h423l118 -321h-158zM186 1197q0 63 -25.5 84.5t-121.5 35.5v127h731v-127q-105 -14 -132.5 -37t-27.5 -90v-619q0 -168 89.5 -261t236.5 -93q157 0 242.5 96t84.5 294l-5 579q-1 49 -11.5 71.5t-43 36t-105.5 23.5v127h491v-127
q-95 -14 -120.5 -36.5t-26.5 -88.5l-5 -620q-2 -277 -170.5 -441t-453.5 -164q-131 0 -245 38.5t-199 110.5t-134 183t-49 248v650z" />
    <glyph glyph-name="Uacute" unicode="&#xda;" horiz-adv-x="1628" 
d="M870 1555h-158l133 321h405v-12zM186 1197q0 63 -25.5 84.5t-121.5 35.5v127h731v-127q-105 -14 -132.5 -37t-27.5 -90v-619q0 -168 89.5 -261t236.5 -93q157 0 242.5 96t84.5 294l-5 579q-1 49 -11.5 71.5t-43 36t-105.5 23.5v127h491v-127q-95 -14 -120.5 -36.5
t-26.5 -88.5l-5 -620q-2 -277 -170.5 -441t-453.5 -164q-131 0 -245 38.5t-199 110.5t-134 183t-49 248v650z" />
    <glyph glyph-name="Ucircumflex" unicode="&#xdb;" horiz-adv-x="1628" 
d="M692 1555h-156l217 321h304l216 -321h-158l-211 146zM186 1197q0 63 -25.5 84.5t-121.5 35.5v127h731v-127q-105 -14 -132.5 -37t-27.5 -90v-619q0 -168 89.5 -261t236.5 -93q157 0 242.5 96t84.5 294l-5 579q-1 49 -11.5 71.5t-43 36t-105.5 23.5v127h491v-127
q-95 -14 -120.5 -36.5t-26.5 -88.5l-5 -620q-2 -277 -170.5 -441t-453.5 -164q-131 0 -245 38.5t-199 110.5t-134 183t-49 248v650z" />
    <glyph glyph-name="Udieresis" unicode="&#xdc;" horiz-adv-x="1628" 
d="M690 1566q-66 0 -111.5 43t-45.5 108t45.5 108t111.5 43t111 -43t45 -108t-45 -108t-111 -43zM1080 1566q-65 0 -110.5 43t-45.5 108t45.5 108t110.5 43q66 0 111.5 -43t45.5 -108t-45.5 -108t-111.5 -43zM186 1197q0 63 -25.5 84.5t-121.5 35.5v127h731v-127
q-105 -14 -132.5 -37t-27.5 -90v-619q0 -168 89.5 -261t236.5 -93q157 0 242.5 96t84.5 294l-5 579q-1 49 -11.5 71.5t-43 36t-105.5 23.5v127h491v-127q-95 -14 -120.5 -36.5t-26.5 -88.5l-5 -620q-2 -277 -170.5 -441t-453.5 -164q-131 0 -245 38.5t-199 110.5t-134 183
t-49 248v650z" />
    <glyph glyph-name="Yacute" unicode="&#xdd;" horiz-adv-x="1507" 
d="M837 1555h-158l132 321h406v-12zM222 1135q-63 106 -102.5 138t-124.5 44v127h770v-127q-46 -5 -72.5 -12.5t-42 -19t-15 -32t10.5 -46.5t32 -67l212 -382l209 382q18 34 28 57t13 42.5t-3 31.5t-22 21.5t-40.5 15t-62.5 9.5v127h500v-127q-87 -12 -124 -40.5t-94 -124.5
l-324 -552v-331q0 -52 12 -77t47.5 -40t111.5 -25v-127h-766v127q76 10 111.5 25t47.5 40t12 77v315z" />
    <glyph glyph-name="Thorn" unicode="&#xde;" horiz-adv-x="1525" 
d="M1466 741q0 -203 -174.5 -314t-467.5 -112l-182 -1v-45q0 -75 30.5 -101.5t140.5 -40.5v-127h-756v127q105 14 133 37t28 89v938q0 66 -28 89t-133 37v127h756v-127q-110 -14 -140.5 -40.5t-30.5 -101.5v-36h182q308 0 475 -97t167 -301zM1021 719q0 125 -79 196.5
t-232 75.5l-68 3v-534l68 2q151 5 231 70t80 187z" />
    <glyph glyph-name="germandbls" unicode="&#xdf;" horiz-adv-x="1574" 
d="M590 0h-532v127q85 10 109.5 29t24.5 72l1 775q0 132 47 236.5t131 171.5t196.5 101.5t246.5 34.5q252 0 399.5 -84.5t147.5 -217.5q0 -50 -22.5 -92t-56 -68t-73 -52.5t-73 -47t-56 -49t-22.5 -61.5q0 -35 25.5 -61t97.5 -62l80 -39q256 -127 256 -368
q0 -172 -126.5 -270.5t-324.5 -98.5q-106 0 -204.5 23.5t-156.5 61.5v286h120q17 -93 74.5 -149t139.5 -56q61 0 95 32.5t34 90.5q0 53 -37.5 94.5t-124.5 85.5l-80 40q-106 53 -152.5 111.5t-46.5 141.5q0 53 21 99t52.5 78t68 67t68 66t52.5 75t21 93q0 75 -53 121
t-143 46q-224 0 -224 -298v-1085z" />
    <glyph glyph-name="agrave" unicode="&#xe0;" horiz-adv-x="1302" 
d="M637 1182l-406 397v15h423l143 -412h-160zM382 -25q-142 0 -226.5 73.5t-84.5 187.5q0 123 101.5 208t340.5 135l220 47v52q0 223 -218 223q-42 0 -84 -8q33 -43 33 -95q0 -70 -50.5 -116.5t-128.5 -46.5t-126 41.5t-48 110.5q0 117 140.5 197.5t368.5 80.5
q504 0 504 -391v-403q0 -57 26.5 -84.5t68.5 -27.5q28 0 46 6v-121q-86 -63 -230 -63q-103 0 -182.5 45.5t-103.5 121.5q-49 -78 -145.5 -125.5t-221.5 -47.5zM455 299q0 -59 38 -92.5t96 -33.5q47 0 86 19t58 49v246l-67 -15q-113 -25 -162 -66t-49 -107z" />
    <glyph glyph-name="aacute" unicode="&#xe1;" horiz-adv-x="1302" 
d="M571 1182h-160l155 412h407v-15zM382 -25q-142 0 -226.5 73.5t-84.5 187.5q0 123 101.5 208t340.5 135l220 47v52q0 223 -218 223q-42 0 -84 -8q33 -43 33 -95q0 -70 -50.5 -116.5t-128.5 -46.5t-126 41.5t-48 110.5q0 117 140.5 197.5t368.5 80.5q504 0 504 -391v-403
q0 -57 26.5 -84.5t68.5 -27.5q28 0 46 6v-121q-86 -63 -230 -63q-103 0 -182.5 45.5t-103.5 121.5q-49 -78 -145.5 -125.5t-221.5 -47.5zM455 299q0 -59 38 -92.5t96 -33.5q47 0 86 19t58 49v246l-67 -15q-113 -25 -162 -66t-49 -107z" />
    <glyph glyph-name="acircumflex" unicode="&#xe2;" horiz-adv-x="1302" 
d="M373 1182h-160l241 412h298l240 -412h-161l-228 195zM382 -25q-142 0 -226.5 73.5t-84.5 187.5q0 123 101.5 208t340.5 135l220 47v52q0 223 -218 223q-42 0 -84 -8q33 -43 33 -95q0 -70 -50.5 -116.5t-128.5 -46.5t-126 41.5t-48 110.5q0 117 140.5 197.5t368.5 80.5
q504 0 504 -391v-403q0 -57 26.5 -84.5t68.5 -27.5q28 0 46 6v-121q-86 -63 -230 -63q-103 0 -182.5 45.5t-103.5 121.5q-49 -78 -145.5 -125.5t-221.5 -47.5zM455 299q0 -59 38 -92.5t96 -33.5q47 0 86 19t58 49v246l-67 -15q-113 -25 -162 -66t-49 -107z" />
    <glyph glyph-name="atilde" unicode="&#xe3;" horiz-adv-x="1302" 
d="M752 1203q-90 0 -187 68l-33 24q-58 40 -91 40q-34 0 -49 -32t-16 -106h-147q0 191 61 280.5t164 89.5q90 0 187 -68l32 -23q57 -40 91 -40q35 0 50 32t16 106h146q0 -191 -60.5 -281t-163.5 -90zM382 -25q-142 0 -226.5 73.5t-84.5 187.5q0 123 101.5 208t340.5 135
l220 47v52q0 223 -218 223q-42 0 -84 -8q33 -43 33 -95q0 -70 -50.5 -116.5t-128.5 -46.5t-126 41.5t-48 110.5q0 117 140.5 197.5t368.5 80.5q504 0 504 -391v-403q0 -57 26.5 -84.5t68.5 -27.5q28 0 46 6v-121q-86 -63 -230 -63q-103 0 -182.5 45.5t-103.5 121.5
q-49 -78 -145.5 -125.5t-221.5 -47.5zM455 299q0 -59 38 -92.5t96 -33.5q47 0 86 19t58 49v246l-67 -15q-113 -25 -162 -66t-49 -107z" />
    <glyph glyph-name="adieresis" unicode="&#xe4;" horiz-adv-x="1302" 
d="M340 1205q-79 0 -133.5 50.5t-54.5 127.5t54.5 127t133.5 50q78 0 132.5 -50t54.5 -127t-54.5 -127.5t-132.5 -50.5zM866 1205q-79 0 -133 50.5t-54 127.5t54.5 127t132.5 50q79 0 133 -50t54 -127t-54 -127.5t-133 -50.5zM382 -25q-142 0 -226.5 73.5t-84.5 187.5
q0 123 101.5 208t340.5 135l220 47v52q0 223 -218 223q-42 0 -84 -8q33 -43 33 -95q0 -70 -50.5 -116.5t-128.5 -46.5t-126 41.5t-48 110.5q0 117 140.5 197.5t368.5 80.5q504 0 504 -391v-403q0 -57 26.5 -84.5t68.5 -27.5q28 0 46 6v-121q-86 -63 -230 -63
q-103 0 -182.5 45.5t-103.5 121.5q-49 -78 -145.5 -125.5t-221.5 -47.5zM455 299q0 -59 38 -92.5t96 -33.5q47 0 86 19t58 49v246l-67 -15q-113 -25 -162 -66t-49 -107z" />
    <glyph glyph-name="aring" unicode="&#xe5;" horiz-adv-x="1302" 
d="M265 1388q0 104 95 169t243 65q147 0 242.5 -65t95.5 -169t-95.5 -169t-242.5 -65q-148 0 -243 65t-95 169zM502 1388q0 -49 29 -80.5t72 -31.5q42 0 71 31.5t29 80.5t-29 80.5t-71 31.5q-43 0 -72 -31.5t-29 -80.5zM382 -25q-142 0 -226.5 73.5t-84.5 187.5
q0 123 101.5 208t340.5 135l220 47v52q0 223 -218 223q-42 0 -84 -8q33 -43 33 -95q0 -70 -50.5 -116.5t-128.5 -46.5t-126 41.5t-48 110.5q0 117 140.5 197.5t368.5 80.5q504 0 504 -391v-403q0 -57 26.5 -84.5t68.5 -27.5q28 0 46 6v-121q-86 -63 -230 -63
q-103 0 -182.5 45.5t-103.5 121.5q-49 -78 -145.5 -125.5t-221.5 -47.5zM455 299q0 -59 38 -92.5t96 -33.5q47 0 86 19t58 49v246l-67 -15q-113 -25 -162 -66t-49 -107z" />
    <glyph glyph-name="ae" unicode="&#xe6;" horiz-adv-x="1794" 
d="M397 -25q-145 0 -235.5 72t-90.5 201q0 131 107.5 215t331.5 123l222 40v44q0 231 -221 231q-37 0 -70 -6q28 -37 28 -85q0 -68 -54.5 -115t-137.5 -47q-74 0 -120.5 43.5t-46.5 110.5q0 112 133.5 187.5t331.5 75.5q260 0 352 -111q52 51 135.5 81t178.5 30
q219 0 348 -125t129 -337q0 -63 -7 -103h-634q28 -148 127 -229t254 -81q64 0 127.5 18t103.5 50v-126q-67 -74 -184.5 -115.5t-261.5 -41.5t-269.5 73.5t-190.5 195.5q-33 -131 -138.5 -200t-247.5 -69zM1232 901q-73 0 -116.5 -67t-48.5 -191h306v21q0 113 -35.5 175
t-105.5 62zM571 173q72 0 116.5 50t44.5 153v112l-52 -9q-118 -21 -173.5 -65t-55.5 -116q0 -59 32.5 -92t87.5 -33z" />
    <glyph glyph-name="ccedilla" unicode="&#xe7;" horiz-adv-x="1163" 
d="M591 -493q-145 0 -232 46v122q57 -31 137 -31q49 0 78 17t29 50q0 69 -115 69q-23 0 -41 -4v97l99 110q-207 30 -338.5 169.5t-131.5 356.5q0 169 82.5 297.5t216.5 193.5t296 65q202 0 313.5 -85.5t111.5 -217.5q0 -83 -51.5 -134t-127.5 -51q-75 0 -125 48t-50 121
q0 94 74 145q-37 10 -74 10q-116 0 -187.5 -88t-71.5 -238q0 -181 103 -283t263 -102q68 0 135 18t107 50v-126q-61 -67 -164.5 -108t-230.5 -48l-62 -63q117 -2 192.5 -54.5t75.5 -149.5q0 -96 -90 -149t-221 -53z" />
    <glyph glyph-name="egrave" unicode="&#xe8;" horiz-adv-x="1219" 
d="M684 1182l-406 397v15h424l142 -412h-160zM76 509q0 251 159.5 403t412.5 152q231 0 363 -124.5t132 -338.5q0 -65 -7 -104h-650q29 -147 131 -227t261 -80q64 0 128.5 18t105.5 50v-126q-68 -74 -188 -115.5t-267 -41.5q-162 0 -293 62t-209.5 185t-78.5 287zM648 901
q-77 0 -122.5 -68t-49.5 -193h322v22q0 113 -38.5 176t-111.5 63z" />
    <glyph glyph-name="eacute" unicode="&#xe9;" horiz-adv-x="1219" 
d="M618 1182h-160l155 412h407v-15zM76 509q0 251 159.5 403t412.5 152q231 0 363 -124.5t132 -338.5q0 -65 -7 -104h-650q29 -147 131 -227t261 -80q64 0 128.5 18t105.5 50v-126q-68 -74 -188 -115.5t-267 -41.5q-162 0 -293 62t-209.5 185t-78.5 287zM648 901
q-77 0 -122.5 -68t-49.5 -193h322v22q0 113 -38.5 176t-111.5 63z" />
    <glyph glyph-name="ecircumflex" unicode="&#xea;" horiz-adv-x="1219" 
d="M420 1182h-160l241 412h298l241 -412h-162l-228 195zM76 509q0 251 159.5 403t412.5 152q231 0 363 -124.5t132 -338.5q0 -65 -7 -104h-650q29 -147 131 -227t261 -80q64 0 128.5 18t105.5 50v-126q-68 -74 -188 -115.5t-267 -41.5q-162 0 -293 62t-209.5 185t-78.5 287z
M648 901q-77 0 -122.5 -68t-49.5 -193h322v22q0 113 -38.5 176t-111.5 63z" />
    <glyph glyph-name="edieresis" unicode="&#xeb;" horiz-adv-x="1219" 
d="M387 1205q-79 0 -133.5 50.5t-54.5 127.5t54.5 127t133.5 50q78 0 132.5 -50t54.5 -127t-54.5 -127.5t-132.5 -50.5zM913 1205q-79 0 -133 50.5t-54 127.5t54.5 127t132.5 50q79 0 133 -50t54 -127t-54 -127.5t-133 -50.5zM76 509q0 251 159.5 403t412.5 152
q231 0 363 -124.5t132 -338.5q0 -65 -7 -104h-650q29 -147 131 -227t261 -80q64 0 128.5 18t105.5 50v-126q-68 -74 -188 -115.5t-267 -41.5q-162 0 -293 62t-209.5 185t-78.5 287zM648 901q-77 0 -122.5 -68t-49.5 -193h322v22q0 113 -38.5 176t-111.5 63z" />
    <glyph glyph-name="igrave" unicode="&#xec;" horiz-adv-x="780" 
d="M405 1182l-406 397v15h423l143 -412h-160zM595 1057v-829q0 -53 24.5 -72t109.5 -29v-127h-666v127q85 10 109.5 29t24.5 72v531q0 46 -11.5 63.5t-52.5 29.5l-70 19v120z" />
    <glyph glyph-name="iacute" unicode="&#xed;" horiz-adv-x="780" 
d="M339 1182h-160l155 412h407v-15zM595 1057v-829q0 -53 24.5 -72t109.5 -29v-127h-666v127q85 10 109.5 29t24.5 72v531q0 46 -11.5 63.5t-52.5 29.5l-70 19v120z" />
    <glyph glyph-name="icircumflex" unicode="&#xee;" horiz-adv-x="780" 
d="M164 1182h-144l216 412h269l216 -412h-145l-205 195zM595 1057v-829q0 -53 24.5 -72t109.5 -29v-127h-666v127q85 10 109.5 29t24.5 72v531q0 46 -11.5 63.5t-52.5 29.5l-70 19v120z" />
    <glyph glyph-name="idieresis" unicode="&#xef;" horiz-adv-x="780" 
d="M107 1205q-78 0 -132.5 50.5t-54.5 127.5t54.5 127t132.5 50q79 0 133.5 -50t54.5 -127t-54.5 -127.5t-133.5 -50.5zM634 1205q-79 0 -133 50.5t-54 127.5t54.5 127t132.5 50q79 0 133 -50t54 -127t-54 -127.5t-133 -50.5zM595 1057v-829q0 -53 24.5 -72t109.5 -29v-127
h-666v127q85 10 109.5 29t24.5 72v531q0 46 -11.5 63.5t-52.5 29.5l-70 19v120z" />
    <glyph glyph-name="eth" unicode="&#xf0;" horiz-adv-x="1370" 
d="M666 -25q-173 0 -305.5 62.5t-208.5 185.5t-76 290q0 148 63 262t166 173.5t226 59.5q129 0 218 -51t133 -140q-65 240 -263 404l-288 -159l-63 119l230 126q-98 62 -229 121l62 116q194 -66 342 -141l261 144l62 -119l-183 -101q481 -290 481 -736q0 -144 -48.5 -261.5
t-133.5 -194.5t-199 -118.5t-247 -41.5zM684 139q91 0 143.5 94.5t52.5 270.5q0 169 -51 258.5t-139 89.5q-89 0 -140 -90t-51 -251q0 -171 50 -271.5t135 -100.5z" />
    <glyph glyph-name="ntilde" unicode="&#xf1;" horiz-adv-x="1506" 
d="M911 1203q-89 0 -186 68l-33 24q-58 40 -91 40q-34 0 -49 -31.5t-17 -106.5h-146q0 191 60.5 280.5t163.5 89.5q92 0 187 -68l33 -23q55 -40 91 -40q34 0 49 31.5t17 106.5h146q0 -191 -61 -281t-164 -90zM588 1057v-187q42 84 141.5 139.5t238.5 55.5q165 0 262.5 -90.5
t97.5 -249.5v-497q0 -53 24.5 -72t109.5 -29v-127h-635v127q66 9 84.5 26t18.5 68v452q0 85 -45.5 131t-127.5 46q-56 0 -100 -20.5t-62 -52.5v-556q0 -51 18.5 -68t84.5 -26v-127h-635v127q85 10 109.5 29t24.5 72v531q0 46 -11.5 63.5t-52.5 29.5l-70 19v120z" />
    <glyph glyph-name="ograve" unicode="&#xf2;" horiz-adv-x="1360" 
d="M713 1182l-406 397v15h423l143 -412h-160zM673 -25q-268 0 -432.5 148t-164.5 390q0 244 170.5 398t440.5 154q269 0 433 -148t164 -390q0 -244 -171 -398t-440 -154zM687 139q90 0 138.5 97t48.5 274q0 180 -55 285.5t-146 105.5q-90 0 -138 -97t-48 -274
q0 -180 54.5 -285.5t145.5 -105.5z" />
    <glyph glyph-name="oacute" unicode="&#xf3;" horiz-adv-x="1360" 
d="M647 1182h-160l155 412h407v-15zM673 -25q-268 0 -432.5 148t-164.5 390q0 244 170.5 398t440.5 154q269 0 433 -148t164 -390q0 -244 -171 -398t-440 -154zM687 139q90 0 138.5 97t48.5 274q0 180 -55 285.5t-146 105.5q-90 0 -138 -97t-48 -274q0 -180 54.5 -285.5
t145.5 -105.5z" />
    <glyph glyph-name="ocircumflex" unicode="&#xf4;" horiz-adv-x="1360" 
d="M449 1182h-160l241 412h298l240 -412h-161l-228 195zM673 -25q-268 0 -432.5 148t-164.5 390q0 244 170.5 398t440.5 154q269 0 433 -148t164 -390q0 -244 -171 -398t-440 -154zM687 139q90 0 138.5 97t48.5 274q0 180 -55 285.5t-146 105.5q-90 0 -138 -97t-48 -274
q0 -180 54.5 -285.5t145.5 -105.5z" />
    <glyph glyph-name="otilde" unicode="&#xf5;" horiz-adv-x="1360" 
d="M828 1203q-90 0 -187 68l-33 24q-58 40 -91 40q-34 0 -49 -32t-16 -106h-147q0 191 61 280.5t164 89.5q90 0 187 -68l32 -23q57 -40 91 -40q35 0 50 32t16 106h146q0 -191 -60.5 -281t-163.5 -90zM673 -25q-268 0 -432.5 148t-164.5 390q0 244 170.5 398t440.5 154
q269 0 433 -148t164 -390q0 -244 -171 -398t-440 -154zM687 139q90 0 138.5 97t48.5 274q0 180 -55 285.5t-146 105.5q-90 0 -138 -97t-48 -274q0 -180 54.5 -285.5t145.5 -105.5z" />
    <glyph glyph-name="odieresis" unicode="&#xf6;" horiz-adv-x="1360" 
d="M416 1205q-79 0 -133.5 50.5t-54.5 127.5t54.5 127t133.5 50q78 0 132.5 -50t54.5 -127t-54.5 -127.5t-132.5 -50.5zM942 1205q-79 0 -133 50.5t-54 127.5t54.5 127t132.5 50q79 0 133 -50t54 -127t-54 -127.5t-133 -50.5zM673 -25q-268 0 -432.5 148t-164.5 390
q0 244 170.5 398t440.5 154q269 0 433 -148t164 -390q0 -244 -171 -398t-440 -154zM687 139q90 0 138.5 97t48.5 274q0 180 -55 285.5t-146 105.5q-90 0 -138 -97t-48 -274q0 -180 54.5 -285.5t145.5 -105.5z" />
    <glyph glyph-name="divide" unicode="&#xf7;" horiz-adv-x="1331" 
d="M666 815q-76 0 -129 53.5t-53 128.5q0 76 53 129.5t129 53.5q75 0 128.5 -53.5t53.5 -129.5q0 -75 -53.5 -128.5t-128.5 -53.5zM133 478v266h1065v-266h-1065zM666 42q-76 0 -129 53.5t-53 129.5q0 75 53 128.5t129 53.5q75 0 128.5 -53.5t53.5 -128.5
q0 -76 -53.5 -129.5t-128.5 -53.5z" />
    <glyph glyph-name="oslash" unicode="&#xf8;" horiz-adv-x="1350" 
d="M669 -25q-202 0 -350 89l-103 -102l-99 102l91 90q-132 143 -132 358q0 243 169.5 396.5t436.5 153.5q203 0 354 -91l108 107l99 -102l-97 -96q129 -143 129 -355q0 -160 -77 -285.5t-215 -195t-314 -69.5zM476 529q0 -55 6 -105l349 344q-56 133 -162 133
q-93 0 -143 -97t-50 -275zM682 136q92 0 142.5 97t50.5 275q0 52 -6 99l-347 -343q56 -128 160 -128z" />
    <glyph glyph-name="ugrave" unicode="&#xf9;" horiz-adv-x="1459" 
d="M755 1182l-405 397v15h423l142 -412h-160zM564 1057v-688q0 -86 42.5 -132.5t119.5 -46.5q51 0 91 20.5t59 51.5v497q0 46 -12 63.5t-52 29.5l-70 19v120l532 66v-781q0 -46 12 -64t52 -29l70 -20v-119l-526 -59v185q-42 -85 -138 -140t-231 -55q-159 0 -252.5 91
t-93.5 252v441q0 46 -12 63.5t-53 29.5l-69 19v120z" />
    <glyph glyph-name="uacute" unicode="&#xfa;" horiz-adv-x="1459" 
d="M690 1182h-160l155 412h407v-15zM564 1057v-688q0 -86 42.5 -132.5t119.5 -46.5q51 0 91 20.5t59 51.5v497q0 46 -12 63.5t-52 29.5l-70 19v120l532 66v-781q0 -46 12 -64t52 -29l70 -20v-119l-526 -59v185q-42 -85 -138 -140t-231 -55q-159 0 -252.5 91t-93.5 252v441
q0 46 -12 63.5t-53 29.5l-69 19v120z" />
    <glyph glyph-name="ucircumflex" unicode="&#xfb;" horiz-adv-x="1459" 
d="M491 1182h-159l240 412h298l241 -412h-161l-229 195zM564 1057v-688q0 -86 42.5 -132.5t119.5 -46.5q51 0 91 20.5t59 51.5v497q0 46 -12 63.5t-52 29.5l-70 19v120l532 66v-781q0 -46 12 -64t52 -29l70 -20v-119l-526 -59v185q-42 -85 -138 -140t-231 -55
q-159 0 -252.5 91t-93.5 252v441q0 46 -12 63.5t-53 29.5l-69 19v120z" />
    <glyph glyph-name="udieresis" unicode="&#xfc;" horiz-adv-x="1459" 
d="M458 1205q-79 0 -133 50.5t-54 127.5t54.5 127t132.5 50q79 0 133 -50t54 -127t-54 -127.5t-133 -50.5zM984 1205q-78 0 -132.5 50.5t-54.5 127.5t54.5 127t132.5 50q79 0 133.5 -50t54.5 -127t-54.5 -127.5t-133.5 -50.5zM564 1057v-688q0 -86 42.5 -132.5t119.5 -46.5
q51 0 91 20.5t59 51.5v497q0 46 -12 63.5t-52 29.5l-70 19v120l532 66v-781q0 -46 12 -64t52 -29l70 -20v-119l-526 -59v185q-42 -85 -138 -140t-231 -55q-159 0 -252.5 91t-93.5 252v441q0 46 -12 63.5t-53 29.5l-69 19v120z" />
    <glyph glyph-name="yacute" unicode="&#xfd;" horiz-adv-x="1227" 
d="M634 1182h-159l154 412h407v-15zM181 741q-41 100 -69 129t-100 43v127h666v-127q-93 -8 -110 -36.5t16 -119.5l141 -396l146 396q34 91 17.5 120t-107.5 36v127h434v-127q-74 -13 -103.5 -40.5t-70.5 -128.5l-188 -466l-112 -278l-167 -460h-363v9q203 279 291 403z" />
    <glyph glyph-name="thorn" unicode="&#xfe;" horiz-adv-x="1370" 
d="M1294 534q0 -257 -134.5 -408t-337.5 -151q-82 0 -160 30t-117 75v-297q0 -63 27.5 -84t124.5 -32v-127h-684v127q85 10 109.5 29t24.5 72v1444q0 46 -12 64t-52 29l-70 20v119l532 65l-7 -638q40 87 130 140.5t208 53.5q184 0 301 -144t117 -387zM889 505q0 165 -55 255
t-148 90q-49 0 -87 -21.5t-54 -55.5v-552q15 -29 52.5 -48.5t86.5 -19.5q94 0 149.5 91.5t55.5 260.5z" />
    <glyph glyph-name="ydieresis" unicode="&#xff;" horiz-adv-x="1227" 
d="M403 1205q-79 0 -133.5 50.5t-54.5 127.5t54.5 127t133.5 50q78 0 132.5 -50t54.5 -127t-54.5 -127.5t-132.5 -50.5zM929 1205q-79 0 -133 50.5t-54 127.5t54.5 127t132.5 50q79 0 133 -50t54 -127t-54 -127.5t-133 -50.5zM181 741q-41 100 -69 129t-100 43v127h666v-127
q-93 -8 -110 -36.5t16 -119.5l141 -396l146 396q34 91 17.5 120t-107.5 36v127h434v-127q-74 -13 -103.5 -40.5t-70.5 -128.5l-188 -466l-112 -278l-167 -460h-363v9q203 279 291 403z" />
    <glyph glyph-name="Amacron" unicode="&#x100;" horiz-adv-x="1582" 
d="M453 1595v187h672v-187h-672zM1378 329q31 -84 54.5 -121.5t56.5 -54.5t98 -26v-127h-770v127q60 9 91 19.5t45.5 34t9.5 57.5t-26 94l-38 112h-469l-39 -112q-14 -40 -20.5 -67t-5.5 -49.5t9 -35.5t27 -24t44.5 -17t66.5 -12v-127h-517v127q93 13 127.5 47.5t80.5 157.5
l408 1112h361zM483 598h364l-181 531z" />
    <glyph glyph-name="amacron" unicode="&#x101;" horiz-adv-x="1302" 
d="M229 1263v207h747v-207h-747zM382 -25q-142 0 -226.5 73.5t-84.5 187.5q0 123 101.5 208t340.5 135l220 47v52q0 223 -218 223q-42 0 -84 -8q33 -43 33 -95q0 -70 -50.5 -116.5t-128.5 -46.5t-126 41.5t-48 110.5q0 117 140.5 197.5t368.5 80.5q504 0 504 -391v-403
q0 -57 26.5 -84.5t68.5 -27.5q28 0 46 6v-121q-86 -63 -230 -63q-103 0 -182.5 45.5t-103.5 121.5q-49 -78 -145.5 -125.5t-221.5 -47.5zM455 299q0 -59 38 -92.5t96 -33.5q47 0 86 19t58 49v246l-67 -15q-113 -25 -162 -66t-49 -107z" />
    <glyph glyph-name="Abreve" unicode="&#x102;" horiz-adv-x="1582" 
d="M789 1570q-163 0 -258.5 82.5t-95.5 204.5q0 35 6 60h141v-3q0 -62 57.5 -102t149.5 -40q94 0 151 39.5t57 102.5v3h141q5 -20 5 -60q0 -122 -95 -204.5t-259 -82.5zM1378 329q31 -84 54.5 -121.5t56.5 -54.5t98 -26v-127h-770v127q60 9 91 19.5t45.5 34t9.5 57.5t-26 94
l-38 112h-469l-39 -112q-14 -40 -20.5 -67t-5.5 -49.5t9 -35.5t27 -24t44.5 -17t66.5 -12v-127h-517v127q93 13 127.5 47.5t80.5 157.5l408 1112h361zM483 598h364l-181 531z" />
    <glyph glyph-name="abreve" unicode="&#x103;" horiz-adv-x="1302" 
d="M603 1186q-176 0 -277.5 95t-101.5 238q0 38 5 70h147v-4q0 -71 62.5 -117t164.5 -46q103 0 165 45.5t62 117.5v4h146q5 -24 5 -70q0 -143 -101.5 -238t-276.5 -95zM382 -25q-142 0 -226.5 73.5t-84.5 187.5q0 123 101.5 208t340.5 135l220 47v52q0 223 -218 223
q-42 0 -84 -8q33 -43 33 -95q0 -70 -50.5 -116.5t-128.5 -46.5t-126 41.5t-48 110.5q0 117 140.5 197.5t368.5 80.5q504 0 504 -391v-403q0 -57 26.5 -84.5t68.5 -27.5q28 0 46 6v-121q-86 -63 -230 -63q-103 0 -182.5 45.5t-103.5 121.5q-49 -78 -145.5 -125.5
t-221.5 -47.5zM455 299q0 -59 38 -92.5t96 -33.5q47 0 86 19t58 49v246l-67 -15q-113 -25 -162 -66t-49 -107z" />
    <glyph glyph-name="Aogonek" unicode="&#x104;" horiz-adv-x="1582" 
d="M1218 -493q-107 0 -176 57.5t-69 152.5q0 79 49.5 155.5t125.5 127.5h-331v127q60 9 91 19.5t45.5 34t9.5 57.5t-26 94l-38 112h-469l-39 -112q-14 -40 -20.5 -67t-5.5 -49.5t9 -35.5t27 -24t44.5 -17t66.5 -12v-127h-517v127q93 13 127.5 47.5t80.5 157.5l408 1112h361
l406 -1115q31 -84 54.5 -121.5t56.5 -54.5t98 -26v-127h-280q-25 -47 -25 -113q0 -79 37 -130t84 -51q45 0 67 19v-122q-36 -44 -104 -70t-148 -26zM483 598h364l-181 531z" />
    <glyph glyph-name="aogonek" unicode="&#x105;" horiz-adv-x="1301" 
d="M382 -25q-142 0 -226.5 73.5t-84.5 187.5q0 123 101.5 208t340.5 135l220 47v52q0 223 -218 223q-42 0 -84 -8q33 -43 33 -95q0 -70 -50.5 -116.5t-128.5 -46.5t-126 41.5t-48 110.5q0 117 140.5 197.5t368.5 80.5q504 0 504 -391v-403q0 -57 26.5 -84.5t68.5 -27.5
q28 0 46 6v-121q-89 -76 -129.5 -132.5t-40.5 -114.5q0 -44 26.5 -67.5t67.5 -23.5q50 0 77 20v-122q-39 -45 -110.5 -71t-146.5 -26q-107 0 -175.5 51t-68.5 137q0 79 58.5 150t198.5 145q-97 3 -173 46.5t-100 111.5q-49 -78 -145.5 -125.5t-221.5 -47.5zM455 299
q0 -59 38 -92.5t96 -33.5q47 0 86 19t58 49v246l-67 -15q-113 -25 -162 -66t-49 -107z" />
    <glyph glyph-name="Cacute" unicode="&#x106;" horiz-adv-x="1493" 
d="M865 1555h-158l132 321h406v-12zM89 714q0 231 103 405t286.5 266t421.5 92q161 0 292.5 -27.5t202.5 -76.5l9 -391h-120q-38 169 -122 246.5t-217 77.5q-185 0 -287 -154t-102 -413q0 -171 46.5 -306.5t135.5 -215t207 -79.5q134 0 219 80t124 260h121l-10 -391
q-74 -54 -211.5 -87t-287.5 -33q-230 0 -413.5 91t-290.5 262t-107 394z" />
    <glyph glyph-name="cacute" unicode="&#x107;" horiz-adv-x="1163" 
d="M628 1182h-160l155 412h407v-15zM650 -25q-159 0 -288.5 62.5t-207.5 185.5t-78 286q0 169 82.5 297.5t216.5 193.5t296 65q202 0 313.5 -85.5t111.5 -217.5q0 -83 -51.5 -134t-127.5 -51q-75 0 -125 48t-50 121q0 94 74 145q-37 10 -74 10q-116 0 -187.5 -88t-71.5 -238
q0 -181 103 -283t263 -102q68 0 135 18t107 50v-126q-66 -73 -183 -115t-258 -42z" />
    <glyph glyph-name="Ccircumflex" unicode="&#x108;" horiz-adv-x="1493" 
d="M687 1555h-156l217 321h303l217 -321h-158l-211 146zM89 714q0 231 103 405t286.5 266t421.5 92q161 0 292.5 -27.5t202.5 -76.5l9 -391h-120q-38 169 -122 246.5t-217 77.5q-185 0 -287 -154t-102 -413q0 -171 46.5 -306.5t135.5 -215t207 -79.5q134 0 219 80t124 260
h121l-10 -391q-74 -54 -211.5 -87t-287.5 -33q-230 0 -413.5 91t-290.5 262t-107 394z" />
    <glyph glyph-name="ccircumflex" unicode="&#x109;" horiz-adv-x="1163" 
d="M429 1182h-159l240 412h298l241 -412h-161l-229 195zM650 -25q-159 0 -288.5 62.5t-207.5 185.5t-78 286q0 169 82.5 297.5t216.5 193.5t296 65q202 0 313.5 -85.5t111.5 -217.5q0 -83 -51.5 -134t-127.5 -51q-75 0 -125 48t-50 121q0 94 74 145q-37 10 -74 10
q-116 0 -187.5 -88t-71.5 -238q0 -181 103 -283t263 -102q68 0 135 18t107 50v-126q-66 -73 -183 -115t-258 -42z" />
    <glyph glyph-name="Cdotaccent" unicode="&#x10a;" horiz-adv-x="1493" 
d="M880 1555q-71 0 -120.5 45.5t-49.5 114.5q0 70 49.5 115.5t120.5 45.5t120 -45.5t49 -115.5q0 -69 -49 -114.5t-120 -45.5zM89 714q0 231 103 405t286.5 266t421.5 92q161 0 292.5 -27.5t202.5 -76.5l9 -391h-120q-38 169 -122 246.5t-217 77.5q-185 0 -287 -154
t-102 -413q0 -171 46.5 -306.5t135.5 -215t207 -79.5q134 0 219 80t124 260h121l-10 -391q-74 -54 -211.5 -87t-287.5 -33q-230 0 -413.5 91t-290.5 262t-107 394z" />
    <glyph glyph-name="cdotaccent" unicode="&#x10b;" horiz-adv-x="1163" 
d="M659 1194q-84 0 -141.5 53.5t-57.5 135.5q0 81 58 134.5t141 53.5q84 0 142 -53t58 -135t-58 -135.5t-142 -53.5zM650 -25q-159 0 -288.5 62.5t-207.5 185.5t-78 286q0 169 82.5 297.5t216.5 193.5t296 65q202 0 313.5 -85.5t111.5 -217.5q0 -83 -51.5 -134t-127.5 -51
q-75 0 -125 48t-50 121q0 94 74 145q-37 10 -74 10q-116 0 -187.5 -88t-71.5 -238q0 -181 103 -283t263 -102q68 0 135 18t107 50v-126q-66 -73 -183 -115t-258 -42z" />
    <glyph glyph-name="Ccaron" unicode="&#x10c;" horiz-adv-x="1493" 
d="M1110 1876h155l-216 -321h-304l-217 321h158l212 -146zM89 714q0 231 103 405t286.5 266t421.5 92q161 0 292.5 -27.5t202.5 -76.5l9 -391h-120q-38 169 -122 246.5t-217 77.5q-185 0 -287 -154t-102 -413q0 -171 46.5 -306.5t135.5 -215t207 -79.5q134 0 219 80t124 260
h121l-10 -391q-74 -54 -211.5 -87t-287.5 -33q-230 0 -413.5 91t-290.5 262t-107 394z" />
    <glyph glyph-name="ccaron" unicode="&#x10d;" horiz-adv-x="1163" 
d="M889 1593h160l-241 -412h-298l-240 412h161l228 -195zM650 -25q-159 0 -288.5 62.5t-207.5 185.5t-78 286q0 169 82.5 297.5t216.5 193.5t296 65q202 0 313.5 -85.5t111.5 -217.5q0 -83 -51.5 -134t-127.5 -51q-75 0 -125 48t-50 121q0 94 74 145q-37 10 -74 10
q-116 0 -187.5 -88t-71.5 -238q0 -181 103 -283t263 -102q68 0 135 18t107 50v-126q-66 -73 -183 -115t-258 -42z" />
    <glyph glyph-name="Dcaron" unicode="&#x10e;" horiz-adv-x="1705" 
d="M1037 1876h156l-217 -321h-304l-216 321h158l211 -146zM1628 743q0 -162 -64 -302t-174 -236t-260.5 -150.5t-319.5 -54.5h-753v127q105 14 133 37t28 90v936q0 67 -28 90t-133 37v127h725q255 0 444.5 -80t295.5 -239.5t106 -381.5zM1162 721q-1 257 -117.5 412
t-314.5 163l-88 3v-1154l88 3q197 7 315 160t117 413z" />
    <glyph glyph-name="dcaron" unicode="&#x10f;" horiz-adv-x="1408" 
d="M1474 1166h-131l49 427h283zM76 506q0 129 37 235.5t101 176.5t150 108.5t184 38.5q83 0 160 -29.5t118 -75.5v252q0 46 -12 64t-52 29l-71 20v119l532 65v-1233q0 -46 12 -64t53 -29l69 -20v-119l-524 -59v183q-41 -87 -131 -140t-208 -53q-184 0 -301 144t-117 387z
M481 535q0 -165 55 -255t148 -90q48 0 86.5 21.5t55.5 55.5v552q-16 30 -54 49t-87 19q-93 0 -148.5 -91.5t-55.5 -260.5z" />
    <glyph glyph-name="dbar" unicode="&#x111;" horiz-adv-x="1411" 
d="M76 506q0 129 37 235.5t101 176.5t150 108.5t184 38.5q82 0 160 -29.5t118 -75.5v239h-273v142h273v148l397 30v-178h134v-142h-134v-923q0 -46 12 -64t53 -29l69 -20v-119l-525 -58v182q-40 -87 -130 -140t-208 -53q-184 0 -301 144t-117 387zM481 535q0 -165 55 -255
t148 -90q48 0 86.5 21.5t55.5 55.5v552q-16 30 -54 49t-87 19q-93 0 -148.5 -91.5t-55.5 -260.5z" />
    <glyph glyph-name="Emacron" unicode="&#x112;" horiz-adv-x="1410" 
d="M404 1595v187h672v-187h-672zM1292 1444l9 -415h-120q-15 58 -28 95.5t-32.5 68.5t-40.5 47.5t-56 28t-74.5 16.5t-100.5 7l-207 7v-490h171q54 0 77 35t46 157h114v-530h-114q-15 84 -30.5 124.5t-35.5 54t-57 13.5h-171v-518l233 9q66 2 106 6.5t78.5 17.5t59.5 32
t42.5 55t35.5 82t31 118h121l-11 -465h-1281v127q105 14 133 37t28 90v936q0 67 -28 90t-133 37v127h1235z" />
    <glyph glyph-name="emacron" unicode="&#x113;" horiz-adv-x="1219" 
d="M276 1263v207h747v-207h-747zM76 509q0 251 159.5 403t412.5 152q231 0 363 -124.5t132 -338.5q0 -65 -7 -104h-650q29 -147 131 -227t261 -80q64 0 128.5 18t105.5 50v-126q-68 -74 -188 -115.5t-267 -41.5q-162 0 -293 62t-209.5 185t-78.5 287zM648 901
q-77 0 -122.5 -68t-49.5 -193h322v22q0 113 -38.5 176t-111.5 63z" />
    <glyph glyph-name="Ebreve" unicode="&#x114;" horiz-adv-x="1410" 
d="M740 1570q-163 0 -258.5 82.5t-95.5 204.5q0 35 6 60h141v-3q0 -62 57.5 -102t149.5 -40q94 0 151 39.5t57 102.5v3h141q6 -24 6 -60q0 -122 -95.5 -204.5t-259.5 -82.5zM1292 1444l9 -415h-120q-15 58 -28 95.5t-32.5 68.5t-40.5 47.5t-56 28t-74.5 16.5t-100.5 7
l-207 7v-490h171q54 0 77 35t46 157h114v-530h-114q-15 84 -30.5 124.5t-35.5 54t-57 13.5h-171v-518l233 9q66 2 106 6.5t78.5 17.5t59.5 32t42.5 55t35.5 82t31 118h121l-11 -465h-1281v127q105 14 133 37t28 90v936q0 67 -28 90t-133 37v127h1235z" />
    <glyph glyph-name="ebreve" unicode="&#x115;" horiz-adv-x="1219" 
d="M650 1186q-176 0 -277.5 95t-101.5 238q0 38 5 70h147v-4q0 -71 62.5 -117t164.5 -46q103 0 165 45.5t62 117.5v4h146q5 -24 5 -70q0 -143 -101.5 -238t-276.5 -95zM76 509q0 251 159.5 403t412.5 152q231 0 363 -124.5t132 -338.5q0 -65 -7 -104h-650q29 -147 131 -227
t261 -80q64 0 128.5 18t105.5 50v-126q-68 -74 -188 -115.5t-267 -41.5q-162 0 -293 62t-209.5 185t-78.5 287zM648 901q-77 0 -122.5 -68t-49.5 -193h322v22q0 113 -38.5 176t-111.5 63z" />
    <glyph glyph-name="Edotaccent" unicode="&#x116;" horiz-adv-x="1410" 
d="M740 1555q-71 0 -120 45.5t-49 114.5q0 70 49 115.5t120 45.5q72 0 121 -45.5t49 -115.5q0 -69 -49 -114.5t-121 -45.5zM1292 1444l9 -415h-120q-15 58 -28 95.5t-32.5 68.5t-40.5 47.5t-56 28t-74.5 16.5t-100.5 7l-207 7v-490h171q54 0 77 35t46 157h114v-530h-114
q-15 84 -30.5 124.5t-35.5 54t-57 13.5h-171v-518l233 9q66 2 106 6.5t78.5 17.5t59.5 32t42.5 55t35.5 82t31 118h121l-11 -465h-1281v127q105 14 133 37t28 90v936q0 67 -28 90t-133 37v127h1235z" />
    <glyph glyph-name="edotaccent" unicode="&#x117;" horiz-adv-x="1219" 
d="M650 1194q-84 0 -141.5 53.5t-57.5 135.5q0 81 57.5 134.5t141.5 53.5t141.5 -53.5t57.5 -134.5q0 -82 -57.5 -135.5t-141.5 -53.5zM76 509q0 251 159.5 403t412.5 152q231 0 363 -124.5t132 -338.5q0 -65 -7 -104h-650q29 -147 131 -227t261 -80q64 0 128.5 18t105.5 50
v-126q-68 -74 -188 -115.5t-267 -41.5q-162 0 -293 62t-209.5 185t-78.5 287zM648 901q-77 0 -122.5 -68t-49.5 -193h322v22q0 113 -38.5 176t-111.5 63z" />
    <glyph glyph-name="Eogonek" unicode="&#x118;" horiz-adv-x="1410" 
d="M1096 -493q-107 0 -176 57.5t-69 152.5q0 79 49.5 155.5t125.5 127.5h-969v127q105 14 133 37t28 90v936q0 67 -28 90t-133 37v127h1235l9 -415h-120q-15 58 -28 95.5t-32.5 68.5t-40.5 47.5t-56 28t-74.5 16.5t-100.5 7l-207 7v-490h171q54 0 77 35t46 157h114v-530
h-114q-15 84 -30.5 124.5t-35.5 54t-57 13.5h-171v-518l233 9q66 2 106 6.5t78.5 17.5t59.5 32t42.5 55t35.5 82t31 118h121l-11 -465h-152q-26 -46 -26 -113q0 -79 37 -130t85 -51q43 0 67 19v-122q-37 -44 -105 -70t-148 -26z" />
    <glyph glyph-name="eogonek" unicode="&#x119;" horiz-adv-x="1219" 
d="M76 509q0 251 159.5 403.5t412.5 152.5q231 0 363 -125t132 -339q0 -65 -7 -104h-650q29 -147 131 -227t261 -80q64 0 128.5 18t105.5 50v-126q-53 -66 -77 -102q-87 -118 -87 -209q0 -55 27.5 -86.5t69.5 -31.5q41 0 68 21v-123q-38 -44 -109.5 -69t-146.5 -25
q-102 0 -170 54t-68 142q0 165 235 299q-97 -27 -197 -27q-162 0 -293 62t-209.5 185t-78.5 287zM648 901q-77 0 -122.5 -68t-49.5 -193h322v22q0 113 -38.5 176t-111.5 63z" />
    <glyph glyph-name="Ecaron" unicode="&#x11a;" horiz-adv-x="1410" 
d="M970 1876h156l-217 -321h-303l-217 321h158l211 -146zM1292 1444l9 -415h-120q-15 58 -28 95.5t-32.5 68.5t-40.5 47.5t-56 28t-74.5 16.5t-100.5 7l-207 7v-490h171q54 0 77 35t46 157h114v-530h-114q-15 84 -30.5 124.5t-35.5 54t-57 13.5h-171v-518l233 9
q66 2 106 6.5t78.5 17.5t59.5 32t42.5 55t35.5 82t31 118h121l-11 -465h-1281v127q105 14 133 37t28 90v936q0 67 -28 90t-133 37v127h1235z" />
    <glyph glyph-name="ecaron" unicode="&#x11b;" horiz-adv-x="1219" 
d="M880 1593h160l-241 -412h-298l-241 412h161l229 -195zM76 509q0 251 159.5 403t412.5 152q231 0 363 -124.5t132 -338.5q0 -65 -7 -104h-650q29 -147 131 -227t261 -80q64 0 128.5 18t105.5 50v-126q-68 -74 -188 -115.5t-267 -41.5q-162 0 -293 62t-209.5 185t-78.5 287
zM648 901q-77 0 -122.5 -68t-49.5 -193h322v22q0 113 -38.5 176t-111.5 63z" />
    <glyph glyph-name="Gcircumflex" unicode="&#x11c;" horiz-adv-x="1641" 
d="M684 1555h-156l217 321h304l217 -321h-158l-212 146zM89 714q0 231 103 405t286.5 266t421.5 92q161 0 293 -27.5t204 -76.5l8 -391h-120q-42 169 -126.5 246.5t-216.5 77.5q-184 0 -285 -154t-101 -413q0 -261 107.5 -431t286.5 -170q107 0 158 39v308q0 43 -10.5 63.5
t-43.5 32.5t-105 20v126h665v-126q-94 -12 -118.5 -33.5t-24.5 -84.5v-389q-95 -58 -249 -92.5t-322 -34.5q-230 0 -413.5 91t-290.5 262.5t-107 393.5z" />
    <glyph glyph-name="gcircumflex" unicode="&#x11d;" horiz-adv-x="1318" 
d="M398 1182h-160l241 412h298l241 -412h-161l-229 195zM79 707q0 158 145 258t380 100q177 0 297 -52l387 27v-170l-240 22q45 -25 74.5 -82t29.5 -119q0 -155 -147 -240.5t-383 -85.5q-60 0 -120 7q-74 -26 -74 -82q0 -75 132 -75h225q223 0 342.5 -86t119.5 -237
q0 -173 -173.5 -279t-459.5 -106q-271 0 -422.5 68t-151.5 178q0 77 83 125t247 58q-126 5 -204.5 61.5t-78.5 146.5q0 96 80.5 162.5t222.5 95.5q-131 20 -221 101t-90 204zM468 721q0 -94 43 -148t112 -54q66 0 106 54t40 139q0 94 -42.5 146.5t-113.5 52.5
q-66 0 -105.5 -53t-39.5 -137zM399 -199q0 -60 59.5 -95t168.5 -35q115 0 182 38.5t67 98.5q0 103 -175 103h-182q-57 -7 -88.5 -36.5t-31.5 -73.5z" />
    <glyph glyph-name="Gbreve" unicode="&#x11e;" horiz-adv-x="1641" 
d="M877 1570q-163 0 -258.5 82.5t-95.5 204.5q0 32 5 60h142v-3q0 -62 57.5 -102t149.5 -40q94 0 150.5 39.5t56.5 102.5v3h142q5 -20 5 -60q0 -122 -95 -204.5t-259 -82.5zM89 714q0 231 103 405t286.5 266t421.5 92q161 0 293 -27.5t204 -76.5l8 -391h-120
q-42 169 -126.5 246.5t-216.5 77.5q-184 0 -285 -154t-101 -413q0 -261 107.5 -431t286.5 -170q107 0 158 39v308q0 43 -10.5 63.5t-43.5 32.5t-105 20v126h665v-126q-94 -12 -118.5 -33.5t-24.5 -84.5v-389q-95 -58 -249 -92.5t-322 -34.5q-230 0 -413.5 91t-290.5 262.5
t-107 393.5z" />
    <glyph glyph-name="gbreve" unicode="&#x11f;" horiz-adv-x="1318" 
d="M628 1186q-176 0 -277.5 95t-101.5 238q0 41 6 70h146v-4q0 -71 62.5 -117t164.5 -46q103 0 165 45.5t62 117.5v4h146q6 -28 6 -70q0 -143 -101.5 -238t-277.5 -95zM79 707q0 158 145 258t380 100q177 0 297 -52l387 27v-170l-240 22q45 -25 74.5 -82t29.5 -119
q0 -155 -147 -240.5t-383 -85.5q-60 0 -120 7q-74 -26 -74 -82q0 -75 132 -75h225q223 0 342.5 -86t119.5 -237q0 -173 -173.5 -279t-459.5 -106q-271 0 -422.5 68t-151.5 178q0 77 83 125t247 58q-126 5 -204.5 61.5t-78.5 146.5q0 96 80.5 162.5t222.5 95.5
q-131 20 -221 101t-90 204zM468 721q0 -94 43 -148t112 -54q66 0 106 54t40 139q0 94 -42.5 146.5t-113.5 52.5q-66 0 -105.5 -53t-39.5 -137zM399 -199q0 -60 59.5 -95t168.5 -35q115 0 182 38.5t67 98.5q0 103 -175 103h-182q-57 -7 -88.5 -36.5t-31.5 -73.5z" />
    <glyph glyph-name="Gdotaccent" unicode="&#x120;" horiz-adv-x="1641" 
d="M877 1555q-71 0 -120 45.5t-49 114.5q0 70 49 115.5t120 45.5t120.5 -45.5t49.5 -115.5q0 -69 -49.5 -114.5t-120.5 -45.5zM89 714q0 231 103 405t286.5 266t421.5 92q161 0 293 -27.5t204 -76.5l8 -391h-120q-42 169 -126.5 246.5t-216.5 77.5q-184 0 -285 -154
t-101 -413q0 -261 107.5 -431t286.5 -170q107 0 158 39v308q0 43 -10.5 63.5t-43.5 32.5t-105 20v126h665v-126q-94 -12 -118.5 -33.5t-24.5 -84.5v-389q-95 -58 -249 -92.5t-322 -34.5q-230 0 -413.5 91t-290.5 262.5t-107 393.5z" />
    <glyph glyph-name="gdotaccent" unicode="&#x121;" horiz-adv-x="1318" 
d="M628 1194q-84 0 -141.5 53.5t-57.5 135.5q0 81 57.5 134.5t141.5 53.5t141.5 -53.5t57.5 -134.5q0 -82 -57.5 -135.5t-141.5 -53.5zM79 707q0 158 145 258t380 100q177 0 297 -52l387 27v-170l-240 22q45 -25 74.5 -82t29.5 -119q0 -155 -147 -240.5t-383 -85.5
q-60 0 -120 7q-74 -26 -74 -82q0 -75 132 -75h225q223 0 342.5 -86t119.5 -237q0 -173 -173.5 -279t-459.5 -106q-271 0 -422.5 68t-151.5 178q0 77 83 125t247 58q-126 5 -204.5 61.5t-78.5 146.5q0 96 80.5 162.5t222.5 95.5q-131 20 -221 101t-90 204zM468 721
q0 -94 43 -148t112 -54q66 0 106 54t40 139q0 94 -42.5 146.5t-113.5 52.5q-66 0 -105.5 -53t-39.5 -137zM399 -199q0 -60 59.5 -95t168.5 -35q115 0 182 38.5t67 98.5q0 103 -175 103h-182q-57 -7 -88.5 -36.5t-31.5 -73.5z" />
    <glyph glyph-name="Gcommaaccent" unicode="&#x122;" horiz-adv-x="1641" 
d="M89 714q0 231 103 405t286.5 266t421.5 92q161 0 293 -27.5t204 -76.5l8 -391h-120q-42 169 -126.5 246.5t-216.5 77.5q-184 0 -285 -154t-101 -413q0 -261 107.5 -431t286.5 -170q107 0 158 39v308q0 43 -10.5 63.5t-43.5 32.5t-105 20v126h665v-126
q-94 -12 -118.5 -33.5t-24.5 -84.5v-389q-95 -58 -249 -92.5t-322 -34.5q-230 0 -413.5 91t-290.5 262.5t-107 393.5zM851 -493q-137 0 -220 47v111q57 -32 144 -32q52 0 82 16.5t30 45.5q0 28 -28.5 43.5t-73.5 16.5q-50 2 -88 -13v107q26 24 81.5 40t123.5 16
q112 0 182 -53t70 -145q0 -93 -83 -146.5t-220 -53.5z" />
    <glyph glyph-name="gcommaaccent" unicode="&#x123;" horiz-adv-x="1318" 
d="M666 1587q140 0 220 -47v-111q-60 33 -144 33q-52 0 -82 -17t-30 -46q0 -28 28.5 -43.5t73.5 -16.5q54 0 87 13v-107q-25 -24 -80.5 -40t-123.5 -16q-112 0 -182 53t-70 145q0 93 83 146.5t220 53.5zM79 707q0 158 145 258t380 100q177 0 297 -52l387 27v-170l-240 22
q45 -25 74.5 -82t29.5 -119q0 -155 -147 -240.5t-383 -85.5q-60 0 -120 7q-74 -26 -74 -82q0 -75 132 -75h225q223 0 342.5 -86t119.5 -237q0 -173 -173.5 -279t-459.5 -106q-271 0 -422.5 68t-151.5 178q0 77 83 125t247 58q-126 5 -204.5 61.5t-78.5 146.5
q0 96 80.5 162.5t222.5 95.5q-131 20 -221 101t-90 204zM468 721q0 -94 43 -148t112 -54q66 0 106 54t40 139q0 94 -42.5 146.5t-113.5 52.5q-66 0 -105.5 -53t-39.5 -137zM399 -199q0 -60 59.5 -95t168.5 -35q115 0 182 38.5t67 98.5q0 103 -175 103h-182
q-57 -7 -88.5 -36.5t-31.5 -73.5z" />
    <glyph glyph-name="Hcircumflex" unicode="&#x124;" horiz-adv-x="1797" 
d="M707 1554h-156l216 321h304l217 -321h-158l-211 146zM642 247q0 -63 25.5 -85t121.5 -35v-127h-732v127q105 15 133 37.5t28 89.5v936q0 67 -28 90t-133 37v127h732v-127q-95 -14 -121 -36t-26 -85v-383h514v384q0 64 -25.5 85.5t-121.5 34.5v127h731v-127
q-105 -13 -133 -35.5t-28 -91.5v-936q0 -69 28 -91.5t133 -35.5v-127h-731v127q96 13 121.5 34.5t25.5 85.5v411h-514v-411z" />
    <glyph glyph-name="hcircumflex" unicode="&#x125;" horiz-adv-x="1506" 
d="M192 1555h-156l217 321h304l217 -321h-158l-212 146zM595 1511l-6 -640q42 84 141 139t238 55q165 0 262.5 -90.5t97.5 -249.5v-497q0 -53 24.5 -72t109.5 -29v-127h-635v127q66 9 84.5 26t18.5 68v452q0 85 -45.5 131t-127.5 46q-56 0 -100 -20.5t-62 -52.5v-556
q0 -51 18.5 -68t84.5 -26v-127h-635v127q85 10 109.5 29t24.5 72v984q0 46 -12 64t-52 29l-70 20v119z" />
    <glyph glyph-name="Hbar" unicode="&#x126;" horiz-adv-x="1797" 
d="M642 247q0 -63 25.5 -85t121.5 -35v-127h-732v127q105 15 133 37.5t28 89.5v742h-161v142h161v52q0 67 -28 90t-133 37v127h732v-127q-95 -14 -121 -36t-26 -85v-58h514v59q0 64 -25.5 85.5t-121.5 34.5v127h731v-127q-105 -13 -133 -35.5t-28 -91.5v-52h161v-142h-161
v-742q0 -69 28 -91.5t133 -35.5v-127h-731v127q96 13 121.5 34.5t25.5 85.5v411h-514v-411zM642 813h514v183h-514v-183z" />
    <glyph glyph-name="hbar" unicode="&#x127;" horiz-adv-x="1506" 
d="M63 1199v142h134v120l398 50l-2 -170h274v-142h-275l-3 -328q42 84 141 139t238 55q165 0 262.5 -90.5t97.5 -249.5v-497q0 -53 24.5 -72t109.5 -29v-127h-635v127q66 9 84.5 26t18.5 68v452q0 85 -45.5 131t-127.5 46q-56 0 -100 -20.5t-62 -52.5v-556q0 -51 18.5 -68
t84.5 -26v-127h-635v127q85 10 109.5 29t24.5 72v971h-134z" />
    <glyph glyph-name="Itilde" unicode="&#x128;" horiz-adv-x="860" 
d="M575 1544q-88 0 -181 63l-32 22q-56 37 -87 37q-32 0 -46.5 -29.5t-15.5 -98.5h-145q0 180 59 264.5t159 84.5q84 0 181 -63l32 -22q54 -37 86 -37q33 0 47.5 29.5t15.5 98.5h145q0 -180 -59 -264.5t-159 -84.5zM642 254q0 -67 28 -90t132 -37v-127h-745v127
q105 14 133 37t28 90v936q0 67 -28 90t-133 37v127h745v-127q-104 -14 -132 -37t-28 -90v-936z" />
    <glyph glyph-name="itilde" unicode="&#x129;" horiz-adv-x="780" 
d="M505 1203q-80 0 -168 68l-30 24q-53 40 -82 40q-31 0 -44.5 -32t-14.5 -106h-131q0 191 54.5 280.5t147.5 89.5q82 0 168 -68l29 -23q51 -40 82 -40t44.5 32t14.5 106h132q0 -191 -55 -281t-147 -90zM595 1057v-829q0 -53 24.5 -72t109.5 -29v-127h-666v127
q85 10 109.5 29t24.5 72v531q0 46 -11.5 63.5t-52.5 29.5l-70 19v120z" />
    <glyph glyph-name="Imacron" unicode="&#x12a;" horiz-adv-x="860" 
d="M94 1595v187h672v-187h-672zM642 254q0 -67 28 -90t132 -37v-127h-745v127q105 14 133 37t28 90v936q0 67 -28 90t-133 37v127h745v-127q-104 -14 -132 -37t-28 -90v-936z" />
    <glyph glyph-name="imacron" unicode="&#x12b;" horiz-adv-x="780" 
d="M72 1263v207h597v-207h-597zM595 1057v-829q0 -53 24.5 -72t109.5 -29v-127h-666v127q85 10 109.5 29t24.5 72v531q0 46 -11.5 63.5t-52.5 29.5l-70 19v120z" />
    <glyph glyph-name="Ibreve" unicode="&#x12c;" horiz-adv-x="860" 
d="M430 1570q-164 0 -259 82.5t-95 204.5q0 39 5 60h142v-3q0 -62 57.5 -102t149.5 -40q94 0 150.5 39.5t56.5 102.5v3h142q5 -27 5 -60q0 -122 -95 -204.5t-259 -82.5zM642 254q0 -67 28 -90t132 -37v-127h-745v127q105 14 133 37t28 90v936q0 67 -28 90t-133 37v127h745
v-127q-104 -14 -132 -37t-28 -90v-936z" />
    <glyph glyph-name="ibreve" unicode="&#x12d;" horiz-adv-x="780" 
d="M371 1186q-158 0 -249.5 95t-91.5 238q0 46 5 70h131v-4q0 -71 56.5 -117t148.5 -46q93 0 148.5 45.5t55.5 117.5v4h132q4 -25 4 -70q0 -143 -91 -238t-249 -95zM595 1057v-829q0 -53 24.5 -72t109.5 -29v-127h-666v127q85 10 109.5 29t24.5 72v531q0 46 -11.5 63.5
t-52.5 29.5l-70 19v120z" />
    <glyph glyph-name="Iogonek" unicode="&#x12e;" horiz-adv-x="860" 
d="M436 -493q-107 0 -176 57.5t-69 152.5q0 79 49.5 155.5t125.5 127.5h-309v127q105 14 133 37t28 90v936q0 67 -28 90t-133 37v127h745v-127q-104 -14 -132 -37t-28 -90v-936q0 -67 28 -90t132 -37v-127h-276q-26 -46 -26 -113q0 -79 37 -130t85 -51q43 0 67 19v-122
q-37 -44 -105 -70t-148 -26z" />
    <glyph glyph-name="iogonek" unicode="&#x12f;" horiz-adv-x="785" 
d="M371 1190q-80 0 -136 53t-56 130t56 129.5t136 52.5t135.5 -52.5t55.5 -129.5t-55.5 -130t-135.5 -53zM400 -493q-102 0 -172.5 60t-70.5 153q0 78 48 150.5t125 129.5h-267v127q85 10 109.5 29t24.5 72v531q0 46 -11.5 63.5t-52.5 29.5l-70 19v120l532 66v-829
q0 -53 24.5 -72t109.5 -29v-127h-242q-20 -43 -20 -96q0 -91 33.5 -144.5t85.5 -53.5q42 0 66 20v-122q-36 -43 -104.5 -70t-147.5 -27z" />
    <glyph glyph-name="Idotaccent" unicode="&#x130;" horiz-adv-x="860" 
d="M430 1555q-71 0 -120.5 45.5t-49.5 114.5q0 70 49.5 115.5t120.5 45.5t120.5 -45.5t49.5 -115.5q0 -69 -49.5 -114.5t-120.5 -45.5zM642 254q0 -67 28 -90t132 -37v-127h-745v127q105 14 133 37t28 90v936q0 67 -28 90t-133 37v127h745v-127q-104 -14 -132 -37t-28 -90
v-936z" />
    <glyph glyph-name="dotlessi" unicode="&#x131;" horiz-adv-x="780" 
d="M595 1057v-829q0 -53 24.5 -72t109.5 -29v-127h-666v127q85 10 109.5 29t24.5 72v531q0 46 -11.5 63.5t-52.5 29.5l-70 19v120z" />
    <glyph glyph-name="IJ" unicode="&#x132;" horiz-adv-x="1720" 
d="M642 254q0 -67 28 -90t132 -37v-127h-745v127q105 14 133 37t28 90v936q0 67 -28 90t-133 37v127h745v-127q-104 -14 -132 -37t-28 -90v-936zM1502 284q0 -91 -18 -166.5t-56.5 -138t-91 -113t-130.5 -96.5t-164.5 -84t-202.5 -80l-49 108q113 74 173.5 148.5t87.5 176
t27 259.5v892q0 67 -28 90t-133 37v127h745v-127q-105 -14 -132.5 -37t-27.5 -90v-906z" />
    <glyph glyph-name="ij" unicode="&#x133;" horiz-adv-x="1516" 
d="M371 1184q-88 0 -149 56.5t-61 142.5t61 141.5t149 55.5t148.5 -55.5t60.5 -141.5t-60.5 -142.5t-148.5 -56.5zM1133 1184q-88 0 -148.5 56.5t-60.5 142.5t60.5 141.5t148.5 55.5t148.5 -55.5t60.5 -141.5t-60.5 -142.5t-148.5 -56.5zM595 1057v-829q0 -53 24.5 -72
t109.5 -29v-127h-666v127q85 10 109.5 29t24.5 72v531q0 46 -11.5 63.5t-52.5 29.5l-70 19v120zM1360 1057v-821q0 -230 -95.5 -374t-336.5 -289l-95 -55l-65 102q119 103 156.5 217t37.5 338v584q0 46 -11.5 63.5t-52.5 29.5l-70 19v120z" />
    <glyph glyph-name="Jcircumflex" unicode="&#x134;" horiz-adv-x="860" 
d="M237 1555h-156l216 321h304l217 -321h-158l-211 146zM642 284q0 -91 -18 -166.5t-56.5 -138t-90.5 -113t-130 -96.5t-164.5 -84t-203.5 -80l-49 108q113 74 174 148.5t87.5 176t26.5 259.5v892q0 67 -28 90t-133 37v127h745v-127q-104 -14 -132 -37t-28 -90v-906z" />
    <glyph glyph-name="jcircumflex" unicode="&#x135;" horiz-adv-x="736" 
d="M123 1182h-160l241 412h298l241 -412h-161l-229 195zM580 1057v-821q0 -230 -95.5 -374t-336.5 -289l-94 -55l-66 102q119 104 157 217.5t38 337.5v584q0 46 -12 63.5t-53 29.5l-69 19v120z" />
    <glyph glyph-name="Kcommaaccent" unicode="&#x136;" horiz-adv-x="1590" 
d="M642 247q0 -63 25.5 -84.5t121.5 -35.5v-127h-732v127q104 14 132.5 37t28.5 90v936q0 67 -28.5 90t-132.5 37v127h732v-127q-96 -14 -121.5 -36t-25.5 -85v-388h108l283 345q66 83 50 118t-119 46v127h584v-127q-109 -17 -176 -59t-199 -179l-119 -125l307 -540
q97 -169 138.5 -221t95.5 -72v-121h-478l-362 656h-113v-409zM846 -493q-137 0 -220 47v111q59 -32 144 -32q53 0 82.5 16.5t29.5 45.5q0 28 -28 43.5t-73 16.5q-52 2 -88 -13v107q25 24 80.5 40t123.5 16q112 0 182 -53t70 -145q0 -93 -83 -146.5t-220 -53.5z" />
    <glyph glyph-name="kcommaaccent" unicode="&#x137;" horiz-adv-x="1405" 
d="M945 0l-247 466h-103v-245q0 -51 18.5 -68t84.5 -26v-127h-635v127q85 10 109.5 29t24.5 72v984q0 46 -12 64t-52 29l-70 20v119l532 67v-901h98l145 139q89 82 82 116t-119 48v127h559v-127q-101 -14 -166.5 -47t-183.5 -131l186 -353q52 -100 87.5 -153.5t61 -74.5
t60.5 -33v-121h-460zM748 -493q-137 0 -220 47v111q57 -32 144 -32q52 0 82 16.5t30 45.5q0 28 -28.5 43.5t-73.5 16.5q-50 2 -88 -13v107q26 24 81.5 40t123.5 16q112 0 182 -53t70 -145q0 -93 -83 -146.5t-220 -53.5z" />
    <glyph glyph-name="Lacute" unicode="&#x139;" horiz-adv-x="1308" 
d="M415 1555h-158l132 321h406v-12zM1254 0h-1197v127q105 15 133 37.5t28 89.5v936q0 67 -28 90t-133 37v127h756v-127q-111 -16 -141 -38.5t-30 -89.5v-1044l157 6q80 3 128 16.5t90 53t70 109t57 187.5h120z" />
    <glyph glyph-name="lacute" unicode="&#x13a;" horiz-adv-x="780" 
d="M374 1555h-158l132 321h406v-12zM595 1510v-1282q0 -53 24.5 -72t109.5 -29v-127h-666v127q85 10 109.5 29t24.5 72v984q0 46 -12 64t-52 29l-70 20v119z" />
    <glyph glyph-name="Lcommaaccent" unicode="&#x13b;" horiz-adv-x="1308" 
d="M1254 0h-1197v127q105 15 133 37.5t28 89.5v936q0 67 -28 90t-133 37v127h756v-127q-111 -16 -141 -38.5t-30 -89.5v-1044l157 6q80 3 128 16.5t90 53t70 109t57 187.5h120zM645 -493q-137 0 -220 47v111q59 -32 145 -32q52 0 81.5 16.5t29.5 45.5q0 28 -28 43.5
t-73 16.5q-50 1 -88 -13v107q25 24 80.5 40t124.5 16q112 0 181.5 -53t69.5 -145q0 -93 -83 -146.5t-220 -53.5z" />
    <glyph glyph-name="lcommaaccent" unicode="&#x13c;" horiz-adv-x="780" 
d="M595 1510v-1282q0 -53 24.5 -72t109.5 -29v-127h-666v127q85 10 109.5 29t24.5 72v984q0 46 -12 64t-52 29l-70 20v119zM362 -493q-137 0 -220 47v111q59 -32 145 -32q52 0 81.5 16.5t29.5 45.5q0 28 -28 43.5t-73 16.5q-50 1 -88 -13v107q25 24 80.5 40t124.5 16
q112 0 181.5 -53t69.5 -145q0 -93 -83 -146.5t-220 -53.5z" />
    <glyph glyph-name="Lcaron" unicode="&#x13d;" horiz-adv-x="1308" 
d="M1092 1167h-131l49 427h282zM1254 0h-1197v127q105 15 133 37.5t28 89.5v936q0 67 -28 90t-133 37v127h756v-127q-111 -16 -141 -38.5t-30 -89.5v-1044l157 6q80 3 128 16.5t90 53t70 109t57 187.5h120z" />
    <glyph glyph-name="lcaron" unicode="&#x13e;" horiz-adv-x="780" 
d="M849 1166h-131l49 427h283zM595 1510v-1282q0 -53 24.5 -72t109.5 -29v-127h-666v127q85 10 109.5 29t24.5 72v984q0 46 -12 64t-52 29l-70 20v119z" />
    <glyph glyph-name="Ldot" unicode="&#x13f;" horiz-adv-x="1308" 
d="M1254 0h-1197v127q105 15 133 37.5t28 89.5v936q0 67 -28 90t-133 37v127h756v-127q-111 -16 -141 -38.5t-30 -89.5v-1044l157 6q80 3 128 16.5t90 53t70 109t57 187.5h120zM1048 684q-84 0 -141.5 53.5t-57.5 135.5t57.5 135t141.5 53t141.5 -53t57.5 -135t-57.5 -135.5
t-141.5 -53.5z" />
    <glyph glyph-name="ldot" unicode="&#x140;" horiz-adv-x="1007" 
d="M595 1510v-1282q0 -53 24.5 -72t109.5 -29v-127h-666v127q85 10 109.5 29t24.5 72v984q0 46 -12 64t-52 29l-70 20v119zM893 543q-80 0 -134.5 50.5t-54.5 128.5t55 128.5t134 50.5q80 0 134.5 -50.5t54.5 -128.5t-54.5 -128.5t-134.5 -50.5z" />
    <glyph glyph-name="Lslash" unicode="&#x141;" horiz-adv-x="1308" 
d="M57 591v153l161 38v408q0 67 -28 90t-133 37v127h756v-127q-111 -16 -141 -38.5t-30 -89.5v-305l319 77v-152l-319 -77v-587l157 6q80 3 128 16.5t90 53t70 109t57 187.5h120l-10 -517h-1197v127q105 15 133 37.5t28 89.5v376z" />
    <glyph glyph-name="lslash" unicode="&#x142;" horiz-adv-x="780" 
d="M63 651v152l134 39v370q0 46 -12 64t-52 29l-70 20v119l532 66v-555l141 41v-152l-141 -41v-575q0 -53 24.5 -72t109.5 -29v-127h-666v127q85 10 109.5 29t24.5 72v461z" />
    <glyph glyph-name="Nacute" unicode="&#x143;" horiz-adv-x="1626" 
d="M837 1555h-157l132 321h405v-12zM660 1444l609 -1077l-15 818q-1 71 -28 95t-129 37v127h488v-127q-50 -8 -77 -15.5t-43.5 -22.5t-21 -34t-4.5 -54l-8 -1191h-468l-606 1071l15 -812q1 -50 11.5 -73t43 -36.5t103.5 -22.5v-127h-489v127q96 15 121.5 37.5t25.5 88.5
l4 912q0 81 -26 108.5t-122 43.5v127h616z" />
    <glyph glyph-name="nacute" unicode="&#x144;" horiz-adv-x="1506" 
d="M731 1182h-160l155 412h407v-15zM588 1057v-187q42 84 141.5 139.5t238.5 55.5q165 0 262.5 -90.5t97.5 -249.5v-497q0 -53 24.5 -72t109.5 -29v-127h-635v127q66 9 84.5 26t18.5 68v452q0 85 -45.5 131t-127.5 46q-56 0 -100 -20.5t-62 -52.5v-556q0 -51 18.5 -68
t84.5 -26v-127h-635v127q85 10 109.5 29t24.5 72v531q0 46 -11.5 63.5t-52.5 29.5l-70 19v120z" />
    <glyph glyph-name="Ncommaaccent" unicode="&#x145;" horiz-adv-x="1626" 
d="M660 1444l609 -1077l-15 818q-1 71 -28 95t-129 37v127h488v-127q-50 -8 -77 -15.5t-43.5 -22.5t-21 -34t-4.5 -54l-8 -1191h-468l-606 1071l15 -812q1 -50 11.5 -73t43 -36.5t103.5 -22.5v-127h-489v127q96 15 121.5 37.5t25.5 88.5l4 912q0 81 -26 108.5t-122 43.5v127
h616zM741 -493q-137 0 -220 47v111q57 -32 144 -32q53 0 82.5 16.5t29.5 45.5q0 28 -28.5 43.5t-73.5 16.5q-50 2 -88 -13v107q26 24 81.5 40t123.5 16q112 0 182 -53t70 -145q0 -93 -83 -146.5t-220 -53.5z" />
    <glyph glyph-name="ncommaaccent" unicode="&#x146;" horiz-adv-x="1506" 
d="M588 1057v-187q42 84 141.5 139.5t238.5 55.5q165 0 262.5 -90.5t97.5 -249.5v-497q0 -53 24.5 -72t109.5 -29v-127h-635v127q66 9 84.5 26t18.5 68v452q0 85 -45.5 131t-127.5 46q-56 0 -100 -20.5t-62 -52.5v-556q0 -51 18.5 -68t84.5 -26v-127h-635v127
q85 10 109.5 29t24.5 72v531q0 46 -11.5 63.5t-52.5 29.5l-70 19v120zM728 -493q-137 0 -220 47v111q59 -32 144 -32q53 0 82.5 16.5t29.5 45.5q0 28 -28 43.5t-73 16.5q-52 2 -88 -13v107q25 24 80.5 40t123.5 16q112 0 182 -53t70 -145q0 -93 -83 -146.5t-220 -53.5z" />
    <glyph glyph-name="Ncaron" unicode="&#x147;" horiz-adv-x="1626" 
d="M1082 1876h156l-217 -321h-304l-217 321h159l211 -146zM660 1444l609 -1077l-15 818q-1 71 -28 95t-129 37v127h488v-127q-50 -8 -77 -15.5t-43.5 -22.5t-21 -34t-4.5 -54l-8 -1191h-468l-606 1071l15 -812q1 -50 11.5 -73t43 -36.5t103.5 -22.5v-127h-489v127
q96 15 121.5 37.5t25.5 88.5l4 912q0 81 -26 108.5t-122 43.5v127h616z" />
    <glyph glyph-name="ncaron" unicode="&#x148;" horiz-adv-x="1506" 
d="M992 1593h160l-241 -412h-298l-240 412h161l228 -195zM588 1057v-187q42 84 141.5 139.5t238.5 55.5q165 0 262.5 -90.5t97.5 -249.5v-497q0 -53 24.5 -72t109.5 -29v-127h-635v127q66 9 84.5 26t18.5 68v452q0 85 -45.5 131t-127.5 46q-56 0 -100 -20.5t-62 -52.5v-556
q0 -51 18.5 -68t84.5 -26v-127h-635v127q85 10 109.5 29t24.5 72v531q0 46 -11.5 63.5t-52.5 29.5l-70 19v120z" />
    <glyph glyph-name="Omacron" unicode="&#x14c;" horiz-adv-x="1766" 
d="M547 1595v187h672v-187h-672zM89 719q0 214 97.5 386t279.5 272t418 100q227 0 407.5 -92.5t283.5 -265t103 -394.5q0 -160 -57.5 -299.5t-160 -241t-252 -159.5t-326.5 -58q-170 0 -316.5 54.5t-251.5 151.5t-165 238t-60 308zM556 737q0 -171 39 -305.5t115 -214
t178 -79.5q110 0 183.5 75t106 199.5t32.5 294.5q0 171 -39 305.5t-115 214t-178 79.5q-110 0 -183.5 -75t-106 -199.5t-32.5 -294.5z" />
    <glyph glyph-name="omacron" unicode="&#x14d;" horiz-adv-x="1360" 
d="M305 1263v207h747v-207h-747zM673 -25q-268 0 -432.5 148t-164.5 390q0 244 170.5 398t440.5 154q269 0 433 -148t164 -390q0 -244 -171 -398t-440 -154zM687 139q90 0 138.5 97t48.5 274q0 180 -55 285.5t-146 105.5q-90 0 -138 -97t-48 -274q0 -180 54.5 -285.5
t145.5 -105.5z" />
    <glyph glyph-name="Obreve" unicode="&#x14e;" horiz-adv-x="1766" 
d="M883 1570q-163 0 -258.5 82.5t-95.5 204.5q0 35 6 60h141v-3q0 -62 57.5 -102t149.5 -40q94 0 151 39.5t57 102.5v3h141q6 -24 6 -60q0 -122 -95.5 -204.5t-259.5 -82.5zM89 719q0 214 97.5 386t279.5 272t418 100q227 0 407.5 -92.5t283.5 -265t103 -394.5
q0 -160 -57.5 -299.5t-160 -241t-252 -159.5t-326.5 -58q-170 0 -316.5 54.5t-251.5 151.5t-165 238t-60 308zM556 737q0 -171 39 -305.5t115 -214t178 -79.5q110 0 183.5 75t106 199.5t32.5 294.5q0 171 -39 305.5t-115 214t-178 79.5q-110 0 -183.5 -75t-106 -199.5
t-32.5 -294.5z" />
    <glyph glyph-name="obreve" unicode="&#x14f;" horiz-adv-x="1360" 
d="M679 1186q-176 0 -277.5 95t-101.5 238q0 38 5 70h147v-4q0 -71 62.5 -117t164.5 -46q103 0 165 45.5t62 117.5v4h146q5 -24 5 -70q0 -143 -101.5 -238t-276.5 -95zM673 -25q-268 0 -432.5 148t-164.5 390q0 244 170.5 398t440.5 154q269 0 433 -148t164 -390
q0 -244 -171 -398t-440 -154zM687 139q90 0 138.5 97t48.5 274q0 180 -55 285.5t-146 105.5q-90 0 -138 -97t-48 -274q0 -180 54.5 -285.5t145.5 -105.5z" />
    <glyph glyph-name="Ohungarumlaut" unicode="&#x150;" horiz-adv-x="1766" 
d="M660 1876h308v-12l-169 -309h-163zM1093 1876h343v-12l-309 -309h-182zM89 719q0 214 97.5 386t279.5 272t418 100q227 0 407.5 -92.5t283.5 -265t103 -394.5q0 -160 -57.5 -299.5t-160 -241t-252 -159.5t-326.5 -58q-170 0 -316.5 54.5t-251.5 151.5t-165 238t-60 308z
M556 737q0 -171 39 -305.5t115 -214t178 -79.5q110 0 183.5 75t106 199.5t32.5 294.5q0 171 -39 305.5t-115 214t-178 79.5q-110 0 -183.5 -75t-106 -199.5t-32.5 -294.5z" />
    <glyph glyph-name="ohungarumlaut" unicode="&#x151;" horiz-adv-x="1360" 
d="M441 1594h311v-15l-188 -397h-165zM901 1594h345v-15l-329 -397h-183zM673 -25q-268 0 -432.5 148t-164.5 390q0 244 170.5 398t440.5 154q269 0 433 -148t164 -390q0 -244 -171 -398t-440 -154zM687 139q90 0 138.5 97t48.5 274q0 180 -55 285.5t-146 105.5
q-90 0 -138 -97t-48 -274q0 -180 54.5 -285.5t145.5 -105.5z" />
    <glyph glyph-name="OE" unicode="&#x152;" horiz-adv-x="2212" 
d="M89 716q0 164 57.5 304.5t161.5 241.5t256.5 158t336.5 57q88 0 209.5 -16.5t181.5 -16.5h820l9 -413h-121q-23 87 -43 133t-58 76t-87.5 39.5t-140.5 12.5l-191 7v-490h163q54 0 77 35t46 158h114v-533h-114q-22 124 -45 159t-78 35h-163v-518l212 8q63 2 101.5 6.5
t75 17.5t56.5 32t40.5 55.5t34.5 82.5t31 118h120l-10 -465h-861q-66 0 -196.5 -16.5t-214.5 -16.5q-168 0 -313.5 57.5t-248 157t-160.5 238t-58 296.5zM536 718q0 -256 109 -418.5t293 -162.5q66 0 118 15v1140q-45 15 -101 15q-127 0 -223 -76.5t-146 -209.5t-50 -303z
" />
    <glyph glyph-name="oe" unicode="&#x153;" horiz-adv-x="2000" 
d="M673 -25q-272 0 -434.5 149t-162.5 395q0 241 171 393.5t440 152.5q229 0 381 -122q145 122 359 122q231 0 364 -125t133 -339q0 -69 -8 -104h-650q29 -147 129.5 -227t257.5 -80q67 0 132.5 18t106.5 50v-126q-69 -74 -186 -115.5t-259 -41.5q-229 0 -384 127
q-157 -127 -390 -127zM691 139q89 0 137 94t48 266q0 185 -56 293.5t-149 108.5q-89 0 -136.5 -93.5t-47.5 -265.5q0 -185 56 -294t148 -109zM1427 901q-77 0 -122 -68t-49 -193h323v22q0 113 -39.5 176t-112.5 63z" />
    <glyph glyph-name="Racute" unicode="&#x154;" horiz-adv-x="1553" 
d="M739 1555h-158l132 321h406v-12zM1453 1044q1 -127 -70.5 -217.5t-205.5 -133.5l163 -326q70 -137 109.5 -184.5t85.5 -61.5v-121h-455l-288 599h-150v-352q0 -63 25.5 -84.5t121.5 -35.5v-127h-732v127q105 14 133 37t28 90v936q0 67 -28 90t-133 37v127h776
q308 0 463 -106t157 -294zM1027 1020q0 127 -79 199t-227 77l-79 3v-555l87 3q134 4 216 75t82 198z" />
    <glyph glyph-name="racute" unicode="&#x155;" horiz-adv-x="1103" 
d="M571 1182h-160l154 412h407v-15zM591 1057l-3 -303q71 161 145.5 234t163.5 73q79 0 119 -56.5t40 -145.5q0 -90 -27 -141q-60 25 -169 25q-82 0 -157 -19.5t-108 -50.5v-430q0 -63 27.5 -84t124.5 -32v-127h-684v127q85 10 109.5 29t24.5 72v531q0 46 -11.5 63.5
t-52.5 29.5l-70 19v120z" />
    <glyph glyph-name="Rcommaaccent" unicode="&#x156;" horiz-adv-x="1553" 
d="M1453 1044q1 -127 -70.5 -217.5t-205.5 -133.5l163 -326q70 -137 109.5 -184.5t85.5 -61.5v-121h-455l-288 599h-150v-352q0 -63 25.5 -84.5t121.5 -35.5v-127h-732v127q105 14 133 37t28 90v936q0 67 -28 90t-133 37v127h776q308 0 463 -106t157 -294zM1027 1020
q0 127 -79 199t-227 77l-79 3v-555l87 3q134 4 216 75t82 198zM818 -493q-137 0 -220 47v111q57 -32 144 -32q53 0 82.5 16.5t29.5 45.5q0 28 -28.5 43.5t-73.5 16.5q-50 2 -88 -13v107q26 24 81.5 40t123.5 16q112 0 182 -53t70 -145q0 -93 -83 -146.5t-220 -53.5z" />
    <glyph glyph-name="rcommaaccent" unicode="&#x157;" horiz-adv-x="1103" 
d="M591 1057l-3 -303q71 161 145.5 234t163.5 73q79 0 119 -56.5t40 -145.5q0 -90 -27 -141q-60 25 -169 25q-82 0 -157 -19.5t-108 -50.5v-430q0 -63 27.5 -84t124.5 -32v-127h-684v127q85 10 109.5 29t24.5 72v531q0 46 -11.5 63.5t-52.5 29.5l-70 19v120zM367 -493
q-137 0 -220 47v111q59 -32 145 -32q52 0 81.5 16.5t29.5 45.5q0 28 -28 43.5t-73 16.5q-50 1 -88 -13v107q25 24 80.5 40t124.5 16q112 0 181.5 -53t69.5 -145q0 -93 -83 -146.5t-220 -53.5z" />
    <glyph glyph-name="Rcaron" unicode="&#x158;" horiz-adv-x="1553" 
d="M983 1876h156l-217 -321h-304l-216 321h158l211 -146zM1453 1044q1 -127 -70.5 -217.5t-205.5 -133.5l163 -326q70 -137 109.5 -184.5t85.5 -61.5v-121h-455l-288 599h-150v-352q0 -63 25.5 -84.5t121.5 -35.5v-127h-732v127q105 14 133 37t28 90v936q0 67 -28 90
t-133 37v127h776q308 0 463 -106t157 -294zM1027 1020q0 127 -79 199t-227 77l-79 3v-555l87 3q134 4 216 75t82 198z" />
    <glyph glyph-name="rcaron" unicode="&#x159;" horiz-adv-x="1103" 
d="M832 1593h160l-241 -412h-298l-241 412h161l229 -195zM591 1057l-3 -303q71 161 145.5 234t163.5 73q79 0 119 -56.5t40 -145.5q0 -90 -27 -141q-60 25 -169 25q-82 0 -157 -19.5t-108 -50.5v-430q0 -63 27.5 -84t124.5 -32v-127h-684v127q85 10 109.5 29t24.5 72v531
q0 46 -11.5 63.5t-52.5 29.5l-70 19v120z" />
    <glyph glyph-name="Sacute" unicode="&#x15a;" horiz-adv-x="1368" 
d="M710 1555h-158l132 321h406v-12zM637 -33q-157 0 -301 33t-225 85l-10 368h121q35 -156 139 -235.5t252 -79.5q111 0 176 50.5t65 130.5q0 77 -52 126.5t-165 83.5l-131 39q-415 124 -415 447q0 207 172.5 334.5t469.5 127.5q146 0 271 -29.5t200 -79.5l9 -363h-120
q-32 148 -120.5 224.5t-223.5 76.5q-111 0 -171 -48.5t-60 -128.5q0 -70 53 -116t164 -80l131 -39q213 -65 314 -177t101 -279q0 -115 -51 -206t-139.5 -148t-204 -87t-249.5 -30z" />
    <glyph glyph-name="sacute" unicode="&#x15b;" horiz-adv-x="1112" 
d="M539 1182h-160l155 412h407v-15zM80 714q0 162 137 256.5t384 94.5q239 0 389 -74l5 -262h-121q-28 80 -94 126t-166 46q-78 0 -121.5 -26t-43.5 -74q0 -44 37.5 -71t119.5 -46l106 -25q172 -40 253 -119t81 -210q0 -162 -141 -257.5t-388 -95.5q-128 0 -242 25t-194 68
l-5 269h121q25 -85 98.5 -141.5t201.5 -56.5q85 0 132 29t47 78q0 43 -34 69.5t-116 46.5l-106 25q-162 39 -251 116.5t-89 208.5z" />
    <glyph glyph-name="Scircumflex" unicode="&#x15c;" horiz-adv-x="1368" 
d="M532 1555h-156l216 321h304l217 -321h-158l-211 146zM637 -33q-157 0 -301 33t-225 85l-10 368h121q35 -156 139 -235.5t252 -79.5q111 0 176 50.5t65 130.5q0 77 -52 126.5t-165 83.5l-131 39q-415 124 -415 447q0 207 172.5 334.5t469.5 127.5q146 0 271 -29.5
t200 -79.5l9 -363h-120q-32 148 -120.5 224.5t-223.5 76.5q-111 0 -171 -48.5t-60 -128.5q0 -70 53 -116t164 -80l131 -39q213 -65 314 -177t101 -279q0 -115 -51 -206t-139.5 -148t-204 -87t-249.5 -30z" />
    <glyph glyph-name="scircumflex" unicode="&#x15d;" horiz-adv-x="1112" 
d="M341 1182h-160l240 412h299l240 -412h-161l-228 195zM80 714q0 162 137 256.5t384 94.5q239 0 389 -74l5 -262h-121q-28 80 -94 126t-166 46q-78 0 -121.5 -26t-43.5 -74q0 -44 37.5 -71t119.5 -46l106 -25q172 -40 253 -119t81 -210q0 -162 -141 -257.5t-388 -95.5
q-128 0 -242 25t-194 68l-5 269h121q25 -85 98.5 -141.5t201.5 -56.5q85 0 132 29t47 78q0 43 -34 69.5t-116 46.5l-106 25q-162 39 -251 116.5t-89 208.5z" />
    <glyph glyph-name="Scedilla" unicode="&#x15e;" horiz-adv-x="1368" 
d="M628 -493q-145 0 -232 46v122q57 -31 137 -31q48 0 77.5 17t29.5 50q0 69 -115 69q-23 0 -41 -4v97l87 96q-140 7 -264 38.5t-196 77.5l-10 368h121q35 -156 139 -235.5t252 -79.5q111 0 176 50.5t65 130.5q0 77 -52 126.5t-165 83.5l-131 39q-415 124 -415 447
q0 207 172.5 334.5t469.5 127.5q146 0 271 -29.5t200 -79.5l9 -363h-120q-32 148 -120.5 224.5t-223.5 76.5q-111 0 -171 -48.5t-60 -128.5q0 -70 53 -116t164 -80l131 -39q213 -65 314 -177t101 -279q0 -105 -42.5 -190t-118 -142t-175.5 -91t-218 -44l-56 -58
q117 -2 192.5 -54.5t75.5 -149.5q0 -96 -90 -149t-221 -53z" />
    <glyph glyph-name="scedilla" unicode="&#x15f;" horiz-adv-x="1112" 
d="M499 -493q-146 0 -233 46v122q58 -31 137 -31q49 0 78 17t29 50q0 34 -30 51.5t-84 17.5q-25 0 -41 -4v97l95 105q-224 14 -369 92l-5 269h121q25 -85 98.5 -141.5t201.5 -56.5q85 0 132 29t47 78q0 43 -34 69.5t-116 46.5l-106 25q-162 39 -251 116.5t-89 208.5
q0 162 137 256.5t384 94.5q239 0 389 -74l5 -262h-121q-28 80 -94 126t-166 46q-78 0 -121.5 -26t-43.5 -74q0 -44 37.5 -71t119.5 -46l106 -25q172 -40 253 -119t81 -210q0 -147 -116 -239.5t-323 -110.5l-66 -67q117 -2 193 -54.5t76 -149.5q0 -96 -90 -149t-221 -53z" />
    <glyph glyph-name="Scaron" unicode="&#x160;" horiz-adv-x="1368" 
d="M954 1876h156l-217 -321h-303l-217 321h158l211 -146zM637 -33q-157 0 -301 33t-225 85l-10 368h121q35 -156 139 -235.5t252 -79.5q111 0 176 50.5t65 130.5q0 77 -52 126.5t-165 83.5l-131 39q-415 124 -415 447q0 207 172.5 334.5t469.5 127.5q146 0 271 -29.5
t200 -79.5l9 -363h-120q-32 148 -120.5 224.5t-223.5 76.5q-111 0 -171 -48.5t-60 -128.5q0 -70 53 -116t164 -80l131 -39q213 -65 314 -177t101 -279q0 -115 -51 -206t-139.5 -148t-204 -87t-249.5 -30z" />
    <glyph glyph-name="scaron" unicode="&#x161;" horiz-adv-x="1112" 
d="M800 1593h160l-240 -412h-299l-240 412h161l228 -195zM80 714q0 162 137 256.5t384 94.5q239 0 389 -74l5 -262h-121q-28 80 -94 126t-166 46q-78 0 -121.5 -26t-43.5 -74q0 -44 37.5 -71t119.5 -46l106 -25q172 -40 253 -119t81 -210q0 -162 -141 -257.5t-388 -95.5
q-128 0 -242 25t-194 68l-5 269h121q25 -85 98.5 -141.5t201.5 -56.5q85 0 132 29t47 78q0 43 -34 69.5t-116 46.5l-106 25q-162 39 -251 116.5t-89 208.5z" />
    <glyph glyph-name="Tcedilla" unicode="&#x162;" horiz-adv-x="1467" 
d="M692 -493q-145 0 -232 46v122q57 -31 137 -31q49 0 78 17t29 50q0 69 -115 69q-23 0 -41 -4v97l115 127h-312v127q76 10 111.5 25t47.5 40t12 77v1030l-42 -2q-59 -2 -97 -6t-72 -16t-54 -28.5t-38 -48t-30 -70.5t-24 -99h-120l9 415h1359l9 -415h-120q-12 60 -24 99
t-30 70.5t-38 48t-54 28.5t-72 16t-97 6l-42 2v-1030q0 -52 12 -77t47.5 -40t111.5 -25v-127h-295l-86 -87q117 -2 192.5 -54.5t75.5 -149.5q0 -96 -90 -149t-221 -53z" />
    <glyph glyph-name="tcedilla" unicode="&#x163;" horiz-adv-x="883" 
d="M172 339v531h-130v115l412 302h108v-254l283 7v-170l-283 7v-487q0 -217 168 -217q74 0 129 32v-127q-40 -34 -114.5 -62t-156.5 -37l-65 -66q117 -2 192.5 -54.5t75.5 -149.5q0 -96 -90 -149t-221 -53q-145 0 -232 46v122q57 -31 137 -31q49 0 78 17t29 50q0 69 -115 69
q-23 0 -41 -4v97l99 110q-119 21 -191 108.5t-72 247.5z" />
    <glyph glyph-name="Tcaron" unicode="&#x164;" horiz-adv-x="1467" 
d="M963 1876h156l-217 -321h-303l-217 321h158l211 -146zM1413 1444l9 -415h-120q-12 60 -24 99t-30 70.5t-38 48t-54 28.5t-72 16t-97 6l-42 2v-1030q0 -52 12 -77t47.5 -40t111.5 -25v-127h-765v127q76 10 111.5 25t47.5 40t12 77v1030l-42 -2q-59 -2 -97 -6t-72 -16
t-54 -28.5t-38 -48t-30 -70.5t-24 -99h-120l9 415h1359z" />
    <glyph glyph-name="tcaron" unicode="&#x165;" horiz-adv-x="883" 
d="M814 1166h-131l48 427h283zM172 339v531h-130v115l412 302h108v-254l283 7v-170l-283 7v-487q0 -217 168 -217q74 0 129 32v-127q-49 -42 -145 -72.5t-195 -30.5q-72 0 -132.5 20t-110 61t-77 113.5t-27.5 169.5z" />
    <glyph glyph-name="Tbar" unicode="&#x166;" horiz-adv-x="1467" 
d="M224 669v142h298v487l-42 -1q-59 -2 -97 -6t-72 -16t-54 -28.5t-38 -48t-30 -70.5t-24 -99h-120l9 415h1359l9 -415h-120q-12 60 -24 99t-30 70.5t-38 48t-54 28.5t-72 16t-97 6l-42 1v-487h298v-142h-298v-401q0 -74 30.5 -100.5t140.5 -41.5v-127h-765v127
q110 15 140.5 41.5t30.5 100.5v401h-298z" />
    <glyph glyph-name="tbar" unicode="&#x167;" horiz-adv-x="883" 
d="M172 339v188h-123v142h123v201h-130v115l412 302h108v-254l283 7v-170l-283 7v-208h294v-142h-294v-137q0 -217 168 -217q74 0 129 32v-127q-49 -42 -145 -72.5t-195 -30.5q-72 0 -132.5 20t-110 61t-77 113.5t-27.5 169.5z" />
    <glyph glyph-name="Utilde" unicode="&#x168;" horiz-adv-x="1628" 
d="M1030 1544q-88 0 -181 63l-32 22q-56 37 -87 37q-32 0 -46.5 -29.5t-15.5 -98.5h-145q0 180 59 264.5t159 84.5q84 0 181 -63l32 -22q54 -37 86 -37q33 0 47.5 29.5t15.5 98.5h145q0 -180 -59 -264.5t-159 -84.5zM186 1197q0 63 -25.5 84.5t-121.5 35.5v127h731v-127
q-105 -14 -132.5 -37t-27.5 -90v-619q0 -168 89.5 -261t236.5 -93q157 0 242.5 96t84.5 294l-5 579q-1 49 -11.5 71.5t-43 36t-105.5 23.5v127h491v-127q-95 -14 -120.5 -36.5t-26.5 -88.5l-5 -620q-2 -277 -170.5 -441t-453.5 -164q-131 0 -245 38.5t-199 110.5t-134 183
t-49 248v650z" />
    <glyph glyph-name="utilde" unicode="&#x169;" horiz-adv-x="1459" 
d="M870 1203q-88 0 -187 68l-32 24q-59 40 -91 40q-35 0 -50 -32t-16 -106h-146q0 191 60.5 280.5t163.5 89.5q92 0 187 -68l33 -23q55 -40 91 -40q34 0 49 32t16 106h147q0 -191 -61 -281t-164 -90zM564 1057v-688q0 -86 42.5 -132.5t119.5 -46.5q51 0 91 20.5t59 51.5v497
q0 46 -12 63.5t-52 29.5l-70 19v120l532 66v-781q0 -46 12 -64t52 -29l70 -20v-119l-526 -59v185q-42 -85 -138 -140t-231 -55q-159 0 -252.5 91t-93.5 252v441q0 46 -12 63.5t-53 29.5l-69 19v120z" />
    <glyph glyph-name="Umacron" unicode="&#x16a;" horiz-adv-x="1628" 
d="M549 1595v187h672v-187h-672zM186 1197q0 63 -25.5 84.5t-121.5 35.5v127h731v-127q-105 -14 -132.5 -37t-27.5 -90v-619q0 -168 89.5 -261t236.5 -93q157 0 242.5 96t84.5 294l-5 579q-1 49 -11.5 71.5t-43 36t-105.5 23.5v127h491v-127q-95 -14 -120.5 -36.5
t-26.5 -88.5l-5 -620q-2 -277 -170.5 -441t-453.5 -164q-131 0 -245 38.5t-199 110.5t-134 183t-49 248v650z" />
    <glyph glyph-name="umacron" unicode="&#x16b;" horiz-adv-x="1459" 
d="M348 1263v207h747v-207h-747zM564 1057v-688q0 -86 42.5 -132.5t119.5 -46.5q51 0 91 20.5t59 51.5v497q0 46 -12 63.5t-52 29.5l-70 19v120l532 66v-781q0 -46 12 -64t52 -29l70 -20v-119l-526 -59v185q-42 -85 -138 -140t-231 -55q-159 0 -252.5 91t-93.5 252v441
q0 46 -12 63.5t-53 29.5l-69 19v120z" />
    <glyph glyph-name="Ubreve" unicode="&#x16c;" horiz-adv-x="1628" 
d="M885 1570q-164 0 -259 82.5t-95 204.5q0 39 5 60h142v-3q0 -62 57.5 -102t149.5 -40q94 0 150.5 39.5t56.5 102.5v3h142q5 -27 5 -60q0 -122 -95 -204.5t-259 -82.5zM186 1197q0 63 -25.5 84.5t-121.5 35.5v127h731v-127q-105 -14 -132.5 -37t-27.5 -90v-619
q0 -168 89.5 -261t236.5 -93q157 0 242.5 96t84.5 294l-5 579q-1 49 -11.5 71.5t-43 36t-105.5 23.5v127h491v-127q-95 -14 -120.5 -36.5t-26.5 -88.5l-5 -620q-2 -277 -170.5 -441t-453.5 -164q-131 0 -245 38.5t-199 110.5t-134 183t-49 248v650z" />
    <glyph glyph-name="ubreve" unicode="&#x16d;" horiz-adv-x="1459" 
d="M721 1186q-175 0 -276.5 95t-101.5 238q0 46 5 70h146v-4q0 -71 62.5 -117t164.5 -46q103 0 165 45.5t62 117.5v4h147q5 -32 5 -70q0 -143 -101.5 -238t-277.5 -95zM564 1057v-688q0 -86 42.5 -132.5t119.5 -46.5q51 0 91 20.5t59 51.5v497q0 46 -12 63.5t-52 29.5
l-70 19v120l532 66v-781q0 -46 12 -64t52 -29l70 -20v-119l-526 -59v185q-42 -85 -138 -140t-231 -55q-159 0 -252.5 91t-93.5 252v441q0 46 -12 63.5t-53 29.5l-69 19v120z" />
    <glyph glyph-name="Uring" unicode="&#x16e;" horiz-adv-x="1628" 
d="M580 1762q0 95 86 154.5t219 59.5t218.5 -59.5t85.5 -154.5t-85.5 -154t-218.5 -59t-219 59t-86 154zM794 1762q0 -43 26 -70.5t65 -27.5q38 0 64 27.5t26 70.5t-26 70.5t-64 27.5q-39 0 -65 -27t-26 -71zM186 1197q0 63 -25.5 84.5t-121.5 35.5v127h731v-127
q-105 -14 -132.5 -37t-27.5 -90v-619q0 -168 89.5 -261t236.5 -93q157 0 242.5 96t84.5 294l-5 579q-1 49 -11.5 71.5t-43 36t-105.5 23.5v127h491v-127q-95 -14 -120.5 -36.5t-26.5 -88.5l-5 -620q-2 -277 -170.5 -441t-453.5 -164q-131 0 -245 38.5t-199 110.5t-134 183
t-49 248v650z" />
    <glyph glyph-name="uring" unicode="&#x16f;" horiz-adv-x="1459" 
d="M383 1388q0 104 95.5 169t242.5 65q148 0 243 -65t95 -169t-95 -169t-243 -65q-147 0 -242.5 65t-95.5 169zM621 1388q0 -49 29 -80.5t71 -31.5q43 0 72 31.5t29 80.5t-29 80.5t-72 31.5q-42 0 -71 -31.5t-29 -80.5zM564 1057v-688q0 -86 42.5 -132.5t119.5 -46.5
q51 0 91 20.5t59 51.5v497q0 46 -12 63.5t-52 29.5l-70 19v120l532 66v-781q0 -46 12 -64t52 -29l70 -20v-119l-526 -59v185q-42 -85 -138 -140t-231 -55q-159 0 -252.5 91t-93.5 252v441q0 46 -12 63.5t-53 29.5l-69 19v120z" />
    <glyph glyph-name="Uhungarumlaut" unicode="&#x170;" horiz-adv-x="1628" 
d="M661 1876h308v-12l-168 -309h-164zM1095 1876h342v-12l-308 -309h-182zM186 1197q0 63 -25.5 84.5t-121.5 35.5v127h731v-127q-105 -14 -132.5 -37t-27.5 -90v-619q0 -168 89.5 -261t236.5 -93q157 0 242.5 96t84.5 294l-5 579q-1 49 -11.5 71.5t-43 36t-105.5 23.5v127
h491v-127q-95 -14 -120.5 -36.5t-26.5 -88.5l-5 -620q-2 -277 -170.5 -441t-453.5 -164q-131 0 -245 38.5t-199 110.5t-134 183t-49 248v650z" />
    <glyph glyph-name="uhungarumlaut" unicode="&#x171;" horiz-adv-x="1459" 
d="M483 1594h311v-15l-187 -397h-166zM944 1594h344v-15l-329 -397h-182zM564 1057v-688q0 -86 42.5 -132.5t119.5 -46.5q51 0 91 20.5t59 51.5v497q0 46 -12 63.5t-52 29.5l-70 19v120l532 66v-781q0 -46 12 -64t52 -29l70 -20v-119l-526 -59v185q-42 -85 -138 -140
t-231 -55q-159 0 -252.5 91t-93.5 252v441q0 46 -12 63.5t-53 29.5l-69 19v120z" />
    <glyph glyph-name="Uogonek" unicode="&#x172;" horiz-adv-x="1628" 
d="M861 -493q-107 0 -176 57.5t-69 152.5q0 69 42 135.5t110 115.5q-124 6 -229.5 47.5t-184 113t-123.5 179.5t-45 239v650q0 63 -25.5 84.5t-121.5 35.5v127h731v-127q-105 -14 -132.5 -37t-27.5 -90v-619q0 -168 89.5 -261t236.5 -93q157 0 242.5 96t84.5 294l-5 579
q0 70 -27.5 93.5t-132.5 37.5v127h491v-127q-95 -14 -121 -36.5t-26 -88.5l-5 -620q-1 -242 -131.5 -399.5t-358.5 -194.5q-22 -46 -22 -101q0 -75 37 -123t85 -48q43 0 67 19v-122q-37 -44 -105 -70t-148 -26z" />
    <glyph glyph-name="uogonek" unicode="&#x173;" horiz-adv-x="1459" 
d="M564 1057v-688q0 -86 42.5 -132.5t119.5 -46.5q51 0 91 20.5t59 51.5v497q0 46 -12 63.5t-52 29.5l-70 19v120l532 66v-781q0 -46 12 -64t52 -29l70 -20v-119q-88 -75 -128 -132t-40 -115q0 -44 26 -67.5t65 -23.5q49 0 78 20v-122q-39 -45 -109.5 -71t-145.5 -26
q-106 0 -175 51t-69 137q0 83 62 158.5t209 153.5l29 15l-328 -37v185q-42 -85 -138 -140t-231 -55q-159 0 -252.5 91t-93.5 252v441q0 46 -12 63.5t-53 29.5l-69 19v120z" />
    <glyph glyph-name="Wcircumflex" unicode="&#x174;" horiz-adv-x="2379" 
d="M1122 1555h-156l217 321h304l216 -321h-157l-212 146zM196 1116q-38 119 -73.5 154t-127.5 47v127h757v-127q-40 -6 -64 -11.5t-42 -16.5t-25 -23.5t-7.5 -35.5t4.5 -49t17 -68l215 -767l214 778q13 47 17 75t1.5 50t-20 34t-43.5 20t-72 14v127h732v-127
q-112 -16 -131.5 -51.5t14.5 -152.5l217 -765l212 776q13 47 17 75t1 50.5t-20 34t-43 19.5t-72 14v127h510v-127q-93 -12 -128.5 -47t-73.5 -156l-347 -1114h-363l-278 939l-294 -939h-352z" />
    <glyph glyph-name="wcircumflex" unicode="&#x175;" horiz-adv-x="1897" 
d="M844 1182h-160l241 412h298l240 -412h-161l-228 195zM175 741q-25 68 -45.5 100.5t-45 47t-72.5 24.5v127h644v-127q-77 -7 -91 -36t15 -120l123 -378l128 378q31 91 17.5 120.5t-88.5 35.5v127h620v-127q-74 -6 -87.5 -35.5t16.5 -120.5l122 -378l127 378
q31 91 16.5 120.5t-92.5 35.5v127h403v-127q-70 -13 -96.5 -40.5t-64.5 -128.5l-275 -744h-276l-224 618l-227 -618h-276z" />
    <glyph glyph-name="Ycircumflex" unicode="&#x176;" horiz-adv-x="1507" 
d="M659 1555h-156l217 321h303l217 -321h-158l-211 146zM222 1135q-63 106 -102.5 138t-124.5 44v127h770v-127q-46 -5 -72.5 -12.5t-42 -19t-15 -32t10.5 -46.5t32 -67l212 -382l209 382q18 34 28 57t13 42.5t-3 31.5t-22 21.5t-40.5 15t-62.5 9.5v127h500v-127
q-87 -12 -124 -40.5t-94 -124.5l-324 -552v-331q0 -52 12 -77t47.5 -40t111.5 -25v-127h-766v127q76 10 111.5 25t47.5 40t12 77v315z" />
    <glyph glyph-name="ycircumflex" unicode="&#x177;" horiz-adv-x="1227" 
d="M436 1182h-160l241 412h298l241 -412h-162l-228 195zM181 741q-41 100 -69 129t-100 43v127h666v-127q-93 -8 -110 -36.5t16 -119.5l141 -396l146 396q34 91 17.5 120t-107.5 36v127h434v-127q-74 -13 -103.5 -40.5t-70.5 -128.5l-188 -466l-112 -278l-167 -460h-363v9
q203 279 291 403z" />
    <glyph glyph-name="Ydieresis" unicode="&#x178;" horiz-adv-x="1507" 
d="M656 1566q-65 0 -110.5 43t-45.5 108t45.5 108t110.5 43q66 0 111.5 -43t45.5 -108t-45.5 -108t-111.5 -43zM1047 1566q-66 0 -111 43t-45 108t45.5 108t110.5 43q66 0 111.5 -43t45.5 -108t-45.5 -108t-111.5 -43zM222 1135q-63 106 -102.5 138t-124.5 44v127h770v-127
q-46 -5 -72.5 -12.5t-42 -19t-15 -32t10.5 -46.5t32 -67l212 -382l209 382q18 34 28 57t13 42.5t-3 31.5t-22 21.5t-40.5 15t-62.5 9.5v127h500v-127q-87 -12 -124 -40.5t-94 -124.5l-324 -552v-331q0 -52 12 -77t47.5 -40t111.5 -25v-127h-766v127q76 10 111.5 25t47.5 40
t12 77v315z" />
    <glyph glyph-name="Zacute" unicode="&#x179;" horiz-adv-x="1378" 
d="M693 1555h-157l132 321h405v-12zM1289 0h-1210v121l732 1178l-276 -10q-89 -3 -139 -12.5t-88 -40t-58 -76.5t-41 -131h-120l9 415h1194v-121l-733 -1178l251 10q69 2 109.5 6.5t81.5 17t64 31.5t45.5 54t37.5 82.5t31 118.5h120z" />
    <glyph glyph-name="zacute" unicode="&#x17a;" horiz-adv-x="1095" 
d="M532 1182h-160l155 412h406v-15zM73 1040h949v-113l-511 -787l161 5q57 2 91.5 10.5t63 33.5t46.5 67t36 113h121l-5 -369h-963v113l508 785l-136 -4q-62 -2 -96.5 -9.5t-63.5 -31.5t-46.5 -60.5t-40.5 -105.5h-120z" />
    <glyph glyph-name="Zdotaccent" unicode="&#x17b;" horiz-adv-x="1378" 
d="M708 1555q-71 0 -120.5 45.5t-49.5 114.5q0 70 49.5 115.5t120.5 45.5t120.5 -45.5t49.5 -115.5q0 -69 -49.5 -114.5t-120.5 -45.5zM1289 0h-1210v121l732 1178l-276 -10q-89 -3 -139 -12.5t-88 -40t-58 -76.5t-41 -131h-120l9 415h1194v-121l-733 -1178l251 10
q69 2 109.5 6.5t81.5 17t64 31.5t45.5 54t37.5 82.5t31 118.5h120z" />
    <glyph glyph-name="zdotaccent" unicode="&#x17c;" horiz-adv-x="1095" 
d="M563 1194q-84 0 -141.5 53.5t-57.5 135.5q0 81 57.5 134.5t141.5 53.5t141.5 -53.5t57.5 -134.5q0 -82 -57.5 -135.5t-141.5 -53.5zM73 1040h949v-113l-511 -787l161 5q57 2 91.5 10.5t63 33.5t46.5 67t36 113h121l-5 -369h-963v113l508 785l-136 -4q-62 -2 -96.5 -9.5
t-63.5 -31.5t-46.5 -60.5t-40.5 -105.5h-120z" />
    <glyph glyph-name="Zcaron" unicode="&#x17d;" horiz-adv-x="1378" 
d="M938 1876h156l-217 -321h-304l-217 321h159l211 -146zM1289 0h-1210v121l732 1178l-276 -10q-89 -3 -139 -12.5t-88 -40t-58 -76.5t-41 -131h-120l9 415h1194v-121l-733 -1178l251 10q69 2 109.5 6.5t81.5 17t64 31.5t45.5 54t37.5 82.5t31 118.5h120z" />
    <glyph glyph-name="zcaron" unicode="&#x17e;" horiz-adv-x="1095" 
d="M793 1593h160l-241 -412h-298l-241 412h161l229 -195zM73 1040h949v-113l-511 -787l161 5q57 2 91.5 10.5t63 33.5t46.5 67t36 113h121l-5 -369h-963v113l508 785l-136 -4q-62 -2 -96.5 -9.5t-63.5 -31.5t-46.5 -60.5t-40.5 -105.5h-120z" />
    <glyph glyph-name="Schwa" unicode="&#x18f;" horiz-adv-x="1575" 
d="M728 -33q-318 0 -492 170.5t-174 457.5q0 64 12 132h961q-6 287 -102 432.5t-276 145.5q-151 0 -243 -78.5t-137 -244.5h-121l9 391q74 48 217.5 75.5t313.5 27.5q366 0 578.5 -200t212.5 -566q0 -226 -94.5 -394.5t-266 -258.5t-398.5 -90zM462 557q0 -124 26.5 -215.5
t89 -147.5t155.5 -56q129 1 206.5 110.5t92.5 330.5h-570v-22z" />
    <glyph glyph-name="florin" unicode="&#x192;" horiz-adv-x="1331" 
d="M397 323l75 418h-280v100h298l17 97q44 273 180 406t353 133q136 0 212.5 -60.5t76.5 -157.5q0 -65 -41.5 -106t-101.5 -41q-63 0 -103 41t-40 102q0 43 24 80q-53 -7 -82 -53.5t-50 -164.5l-49 -276h318v-100h-336l-43 -235q-44 -273 -180 -406t-353 -133
q-135 0 -211.5 60.5t-76.5 157.5q0 65 41 106t101 41q63 0 103 -41t40 -102q0 -49 -27 -83q54 6 84 52.5t51 164.5z" />
    <glyph glyph-name="Ohorn" unicode="&#x1a0;" horiz-adv-x="1816" 
d="M89 719q0 214 97.5 386t279.5 272t418 100q78 0 199.5 -13t170.5 -13q105 0 159 64t56 165q0 42 -11 84t-29 65h125q88 -47 145 -123t56 -158q-1 -101 -80 -154t-213 -53q-52 0 -109 10q149 -96 237 -261t88 -365q0 -160 -57.5 -299.5t-160 -241t-252 -159.5t-326.5 -58
q-170 0 -316.5 54.5t-251.5 151.5t-165 238t-60 308zM556 737q0 -171 39 -305.5t115 -214t178 -79.5q110 0 183.5 75t106 199.5t32.5 294.5q0 171 -39 305.5t-115 214t-178 79.5q-110 0 -183.5 -75t-106 -199.5t-32.5 -294.5z" />
    <glyph glyph-name="ohorn" unicode="&#x1a1;" horiz-adv-x="1496" 
d="M673 -25q-272 0 -434.5 147.5t-162.5 390.5q0 157 73.5 282.5t209 197.5t309.5 72q76 0 173.5 -15.5t135.5 -15.5q107 0 164.5 63t58.5 160q1 43 -10 85t-29 65h125q84 -45 139.5 -123t54.5 -160q-1 -92 -73 -144t-192 -52q-80 0 -154 20q111 -65 167 -174t56 -247
q0 -244 -171 -398t-440 -154zM687 139q90 0 138.5 96t48.5 274q0 180 -55 286t-146 106q-90 0 -138 -96t-48 -274q0 -180 54.5 -286t145.5 -106z" />
    <glyph glyph-name="Uhorn" unicode="&#x1af;" horiz-adv-x="1779" 
d="M186 547v641q0 66 -27 89.5t-126 39.5v127h747v-127q-112 -18 -141 -40.5t-29 -88.5v-617q0 -168 92.5 -261t244.5 -93q151 0 232.5 92.5t80.5 276.5l-3 602q0 47 -11.5 68.5t-45.5 35t-114 25.5v127h130q135 0 201.5 67t68.5 167q0 99 -40 151h125q85 -46 138.5 -118
t53.5 -154q0 -96 -77.5 -149.5t-209.5 -53.5q-11 0 -35 2l-5 -784q-1 -184 -81.5 -322t-220.5 -210.5t-321 -72.5q-131 0 -245 38.5t-199 110.5t-134 183t-49 248z" />
    <glyph glyph-name="uhorn" unicode="&#x1b0;" horiz-adv-x="1571" 
d="M553 1057v-688q0 -86 42 -132.5t120 -46.5q50 0 90.5 20.5t59.5 51.5v497q0 45 -13.5 62.5t-58.5 30.5l-72 19v119l144 16q226 25 317.5 84t91.5 173q0 92 -38 143h125q85 -45 140 -121t54 -157q-1 -94 -67 -147.5t-173 -53.5q-27 0 -53 3v-654q0 -45 13.5 -62.5
t58.5 -30.5l73 -20v-119l-536 -59v185q-43 -85 -139 -140t-231 -55q-159 0 -252.5 91t-93.5 252v441q0 45 -13 62.5t-58 30.5l-73 19v120z" />
    <glyph glyph-name="uni01C4" unicode="&#x1c4;" horiz-adv-x="3082" 
d="M2642 1876h156l-217 -321h-303l-217 321h158l211 -146zM1628 743q0 -162 -64 -302t-174 -236t-260.5 -150.5t-319.5 -54.5h-753v127q105 14 133 37t28 90v936q0 67 -28 90t-133 37v127h725q255 0 444.5 -80t295.5 -239.5t106 -381.5zM2994 0h-1211v121l733 1178l-276 -10
q-89 -3 -139.5 -12.5t-88 -40t-57.5 -76.5t-41 -131h-121l9 415h1195v-121l-733 -1178l250 10q69 2 109.5 6.5t81.5 17t64 31.5t45.5 54t37.5 82.5t31 118.5h121zM1162 721q-1 257 -117.5 412t-314.5 163l-88 3v-1154l88 3q197 7 315 160t117 413z" />
    <glyph glyph-name="uni01C5" unicode="&#x1c5;" horiz-adv-x="2800" 
d="M2497 1593h160l-240 -412h-298l-241 412h161l229 -195zM1628 743q0 -162 -64 -302t-174 -236t-260.5 -150.5t-319.5 -54.5h-753v127q105 14 133 37t28 90v936q0 67 -28 90t-133 37v127h725q255 0 444.5 -80t295.5 -239.5t106 -381.5zM1162 721q-1 257 -117.5 412
t-314.5 163l-88 3v-1154l88 3q197 7 315 160t117 413zM1777 1040h950v-113l-511 -787l161 5q57 2 91 10.5t63 33.5t47 67t36 113h121l-5 -369h-963v113l507 785l-136 -4q-117 -4 -160 -40t-86 -167h-120z" />
    <glyph glyph-name="uni01C6" unicode="&#x1c6;" horiz-adv-x="2504" 
d="M2201 1593h160l-241 -412h-298l-240 412h161l228 -195zM76 506q0 129 37 235.5t101 176.5t150 108.5t184 38.5q83 0 160 -29.5t118 -75.5v252q0 46 -12 64t-52 29l-71 20v119l532 65v-1233q0 -46 12 -64t53 -29l69 -20v-119l-524 -59v183q-41 -87 -131 -140t-208 -53
q-184 0 -301 144t-117 387zM1481 1040h950v-113l-512 -787l161 5q57 2 91.5 10.5t63 33.5t46.5 67t36 113h122l-6 -369h-963v113l508 785l-136 -4q-117 -4 -160 -40t-86 -167h-120zM481 535q0 -165 55 -255t148 -90q48 0 86.5 21.5t55.5 55.5v552q-16 30 -54 49t-87 19
q-93 0 -148.5 -91.5t-55.5 -260.5z" />
    <glyph glyph-name="uni01C7" unicode="&#x1c7;" horiz-adv-x="2168" 
d="M1254 0h-1197v127q105 15 133 37.5t28 89.5v936q0 67 -28 90t-133 37v127h756v-127q-111 -16 -141 -38.5t-30 -89.5v-1044l157 6q80 3 128 16.5t90 53t70 109t57 187.5h120zM1950 284q0 -91 -18 -166.5t-56.5 -138t-90.5 -113t-130 -96.5t-164.5 -84t-202.5 -80l-50 108
q113 74 174 148.5t87.5 176t26.5 259.5v892q0 67 -27.5 90t-132.5 37v127h745v-127q-105 -14 -133 -37t-28 -90v-906z" />
    <glyph glyph-name="uni01C8" unicode="&#x1c8;" horiz-adv-x="2044" 
d="M1662 1184q-88 0 -149 56.5t-61 142.5t61 141.5t149 55.5t148.5 -55.5t60.5 -141.5t-61 -142.5t-148 -56.5zM1254 0h-1197v127q105 15 133 37.5t28 89.5v936q0 67 -28 90t-133 37v127h756v-127q-111 -16 -141 -38.5t-30 -89.5v-1044l157 6q80 3 128 16.5t90 53t70 109
t57 187.5h120zM1888 1057v-821q0 -230 -95 -374t-336 -289l-95 -55l-66 102q119 104 157 217.5t38 337.5v584q0 46 -12 63.5t-52 29.5l-70 19v120z" />
    <glyph glyph-name="uni01C9" unicode="&#x1c9;" horiz-adv-x="1516" 
d="M1133 1184q-88 0 -148.5 56.5t-60.5 142.5t60.5 141.5t148.5 55.5t148.5 -55.5t60.5 -141.5t-60.5 -142.5t-148.5 -56.5zM595 1510v-1282q0 -53 24.5 -72t109.5 -29v-127h-666v127q85 10 109.5 29t24.5 72v984q0 46 -12 64t-52 29l-70 20v119zM1360 1057v-821
q0 -230 -95.5 -374t-336.5 -289l-95 -55l-65 102q119 103 156.5 217t37.5 338v584q0 46 -11.5 63.5t-52.5 29.5l-70 19v120z" />
    <glyph glyph-name="uni01CA" unicode="&#x1ca;" horiz-adv-x="2486" 
d="M660 1444l609 -1077l-15 818q-1 71 -28 95t-129 37v127h488v-127q-50 -8 -77 -15.5t-43.5 -22.5t-21 -34t-4.5 -54l-8 -1191h-468l-606 1071l15 -812q1 -50 11.5 -73t43 -36.5t103.5 -22.5v-127h-489v127q96 15 121.5 37.5t25.5 88.5l4 912q0 81 -26 108.5t-122 43.5v127
h616zM2268 284q0 -91 -18 -166.5t-56.5 -138t-90.5 -113t-130 -96.5t-164.5 -84t-202.5 -80l-50 108q114 74 174.5 148.5t87.5 176t27 259.5v892q0 67 -28 90t-133 37v127h745v-127q-105 -14 -133 -37t-28 -90v-906z" />
    <glyph glyph-name="uni01CB" unicode="&#x1cb;" horiz-adv-x="2362" 
d="M1980 1184q-88 0 -149 56.5t-61 142.5t61 141.5t149 55.5t148.5 -55.5t60.5 -141.5t-60.5 -142.5t-148.5 -56.5zM660 1444l609 -1077l-15 818q-1 71 -28 95t-129 37v127h488v-127q-50 -8 -77 -15.5t-43.5 -22.5t-21 -34t-4.5 -54l-8 -1191h-468l-606 1071l15 -812
q1 -50 11.5 -73t43 -36.5t103.5 -22.5v-127h-489v127q96 15 121.5 37.5t25.5 88.5l4 912q0 81 -26 108.5t-122 43.5v127h616zM2206 1057v-821q0 -230 -95 -374t-336 -289l-95 -55l-66 102q119 104 157 217.5t38 337.5v584q0 46 -12 63.5t-52 29.5l-70 19v120z" />
    <glyph glyph-name="uni01CC" unicode="&#x1cc;" horiz-adv-x="2242" 
d="M1859 1184q-88 0 -148.5 56.5t-60.5 142.5t60.5 141.5t148.5 55.5t148.5 -55.5t60.5 -141.5t-60.5 -142.5t-148.5 -56.5zM588 1057v-187q42 84 141.5 139.5t238.5 55.5q165 0 262.5 -90.5t97.5 -249.5v-497q0 -53 24.5 -72t109.5 -29v-127h-635v127q66 9 84.5 26t18.5 68
v452q0 85 -45.5 131t-127.5 46q-56 0 -100 -20.5t-62 -52.5v-556q0 -51 18.5 -68t84.5 -26v-127h-635v127q85 10 109.5 29t24.5 72v531q0 46 -11.5 63.5t-52.5 29.5l-70 19v120zM2086 1057v-821q0 -230 -95.5 -374t-336.5 -289l-95 -55l-65 102q119 103 156.5 217t37.5 338
v584q0 46 -11.5 63.5t-52.5 29.5l-70 19v120z" />
    <glyph glyph-name="Acaron" unicode="&#x1cd;" horiz-adv-x="1582" 
d="M1019 1876h156l-217 -321h-304l-216 321h158l211 -146zM1378 329q31 -84 54.5 -121.5t56.5 -54.5t98 -26v-127h-770v127q60 9 91 19.5t45.5 34t9.5 57.5t-26 94l-38 112h-469l-39 -112q-14 -40 -20.5 -67t-5.5 -49.5t9 -35.5t27 -24t44.5 -17t66.5 -12v-127h-517v127
q93 13 127.5 47.5t80.5 157.5l408 1112h361zM483 598h364l-181 531z" />
    <glyph glyph-name="acaron" unicode="&#x1ce;" horiz-adv-x="1302" 
d="M833 1593h159l-240 -412h-298l-241 412h161l229 -195zM382 -25q-142 0 -226.5 73.5t-84.5 187.5q0 123 101.5 208t340.5 135l220 47v52q0 223 -218 223q-42 0 -84 -8q33 -43 33 -95q0 -70 -50.5 -116.5t-128.5 -46.5t-126 41.5t-48 110.5q0 117 140.5 197.5t368.5 80.5
q504 0 504 -391v-403q0 -57 26.5 -84.5t68.5 -27.5q28 0 46 6v-121q-86 -63 -230 -63q-103 0 -182.5 45.5t-103.5 121.5q-49 -78 -145.5 -125.5t-221.5 -47.5zM455 299q0 -59 38 -92.5t96 -33.5q47 0 86 19t58 49v246l-67 -15q-113 -25 -162 -66t-49 -107z" />
    <glyph glyph-name="Icaron" unicode="&#x1cf;" horiz-adv-x="860" 
d="M660 1876h156l-217 -321h-304l-217 321h159l211 -146zM642 254q0 -67 28 -90t132 -37v-127h-745v127q105 14 133 37t28 90v936q0 67 -28 90t-133 37v127h745v-127q-104 -14 -132 -37t-28 -90v-936z" />
    <glyph glyph-name="icaron" unicode="&#x1d0;" horiz-adv-x="780" 
d="M578 1593h143l-216 -412h-269l-216 412h145l206 -195zM595 1057v-829q0 -53 24.5 -72t109.5 -29v-127h-666v127q85 10 109.5 29t24.5 72v531q0 46 -11.5 63.5t-52.5 29.5l-70 19v120z" />
    <glyph glyph-name="Ocaron" unicode="&#x1d1;" horiz-adv-x="1766" 
d="M1113 1876h156l-217 -321h-303l-217 321h158l211 -146zM89 719q0 214 97.5 386t279.5 272t418 100q227 0 407.5 -92.5t283.5 -265t103 -394.5q0 -160 -57.5 -299.5t-160 -241t-252 -159.5t-326.5 -58q-170 0 -316.5 54.5t-251.5 151.5t-165 238t-60 308zM556 737
q0 -171 39 -305.5t115 -214t178 -79.5q110 0 183.5 75t106 199.5t32.5 294.5q0 171 -39 305.5t-115 214t-178 79.5q-110 0 -183.5 -75t-106 -199.5t-32.5 -294.5z" />
    <glyph glyph-name="ocaron" unicode="&#x1d2;" horiz-adv-x="1360" 
d="M909 1593h159l-240 -412h-298l-241 412h161l229 -195zM673 -25q-268 0 -432.5 148t-164.5 390q0 244 170.5 398t440.5 154q269 0 433 -148t164 -390q0 -244 -171 -398t-440 -154zM687 139q90 0 138.5 97t48.5 274q0 180 -55 285.5t-146 105.5q-90 0 -138 -97t-48 -274
q0 -180 54.5 -285.5t145.5 -105.5z" />
    <glyph glyph-name="Ucaron" unicode="&#x1d3;" horiz-adv-x="1628" 
d="M1115 1876h156l-217 -321h-304l-217 321h158l212 -146zM186 1197q0 63 -25.5 84.5t-121.5 35.5v127h731v-127q-105 -14 -132.5 -37t-27.5 -90v-619q0 -168 89.5 -261t236.5 -93q157 0 242.5 96t84.5 294l-5 579q-1 49 -11.5 71.5t-43 36t-105.5 23.5v127h491v-127
q-95 -14 -120.5 -36.5t-26.5 -88.5l-5 -620q-2 -277 -170.5 -441t-453.5 -164q-131 0 -245 38.5t-199 110.5t-134 183t-49 248v650z" />
    <glyph glyph-name="ucaron" unicode="&#x1d4;" horiz-adv-x="1459" 
d="M951 1593h160l-241 -412h-298l-240 412h161l228 -195zM564 1057v-688q0 -86 42.5 -132.5t119.5 -46.5q51 0 91 20.5t59 51.5v497q0 46 -12 63.5t-52 29.5l-70 19v120l532 66v-781q0 -46 12 -64t52 -29l70 -20v-119l-526 -59v185q-42 -85 -138 -140t-231 -55
q-159 0 -252.5 91t-93.5 252v441q0 46 -12 63.5t-53 29.5l-69 19v120z" />
    <glyph glyph-name="Udieresismacron" unicode="&#x1d5;" horiz-adv-x="1628" 
d="M518 1867v144h734v-144h-734zM701 1548h-18q-54 0 -91 30.5t-37 77.5t37 78t91 31h18q54 0 91 -31t37 -78t-37 -77.5t-91 -30.5zM1086 1548h-18q-54 0 -91 30.5t-37 77.5t37 78t91 31h18q54 0 91 -31t37 -78t-37 -77.5t-91 -30.5zM186 1197q0 63 -25.5 84.5t-121.5 35.5
v127h731v-127q-105 -14 -132.5 -37t-27.5 -90v-619q0 -168 89.5 -261t236.5 -93q157 0 242.5 96t84.5 294l-5 579q-1 49 -11.5 71.5t-43 36t-105.5 23.5v127h491v-127q-95 -14 -120.5 -36.5t-26.5 -88.5l-5 -620q-2 -277 -170.5 -441t-453.5 -164q-131 0 -245 38.5
t-199 110.5t-134 183t-49 248v650z" />
    <glyph glyph-name="udieresismacron" unicode="&#x1d6;" horiz-adv-x="1459" 
d="M363 1541v170h716v-170h-716zM528 1159h-19q-56 0 -95.5 36.5t-39.5 91.5t39 91t96 36h19q57 0 96 -36t39 -91q0 -56 -39 -92t-96 -36zM933 1159h-19q-56 0 -95 36t-39 92q0 55 39 91t95 36h19q57 0 96 -36t39 -91q0 -56 -39 -92t-96 -36zM564 1057v-688
q0 -86 42.5 -132.5t119.5 -46.5q51 0 91 20.5t59 51.5v497q0 46 -12 63.5t-52 29.5l-70 19v120l532 66v-781q0 -46 12 -64t52 -29l70 -20v-119l-526 -59v185q-42 -85 -138 -140t-231 -55q-159 0 -252.5 91t-93.5 252v441q0 46 -12 63.5t-53 29.5l-69 19v120z" />
    <glyph glyph-name="Udieresisacute" unicode="&#x1d7;" horiz-adv-x="1628" 
d="M1252 1892l-734 -84v101l734 161v-178zM701 1548h-18q-54 0 -91 30.5t-37 77.5t37 78t91 31h18q54 0 91 -31t37 -78t-37 -77.5t-91 -30.5zM1086 1548h-18q-54 0 -91 30.5t-37 77.5t37 78t91 31h18q54 0 91 -31t37 -78t-37 -77.5t-91 -30.5zM186 1197q0 63 -25.5 84.5
t-121.5 35.5v127h731v-127q-105 -14 -132.5 -37t-27.5 -90v-619q0 -168 89.5 -261t236.5 -93q157 0 242.5 96t84.5 294l-5 579q-1 49 -11.5 71.5t-43 36t-105.5 23.5v127h491v-127q-95 -14 -120.5 -36.5t-26.5 -88.5l-5 -620q-2 -277 -170.5 -441t-453.5 -164
q-131 0 -245 38.5t-199 110.5t-134 183t-49 248v650z" />
    <glyph glyph-name="udieresisacute" unicode="&#x1d8;" horiz-adv-x="1459" 
d="M1079 1578l-716 -99v120l716 188v-209zM528 1159h-19q-56 0 -95.5 36.5t-39.5 91.5t39 91t96 36h19q57 0 96 -36t39 -91q0 -56 -39 -92t-96 -36zM933 1159h-19q-56 0 -95 36t-39 92q0 55 39 91t95 36h19q57 0 96 -36t39 -91q0 -56 -39 -92t-96 -36zM564 1057v-688
q0 -86 42.5 -132.5t119.5 -46.5q51 0 91 20.5t59 51.5v497q0 46 -12 63.5t-52 29.5l-70 19v120l532 66v-781q0 -46 12 -64t52 -29l70 -20v-119l-526 -59v185q-42 -85 -138 -140t-231 -55q-159 0 -252.5 91t-93.5 252v441q0 46 -12 63.5t-53 29.5l-69 19v120z" />
    <glyph glyph-name="Udieresiscaron" unicode="&#x1d9;" horiz-adv-x="1628" 
d="M1250 2064v-103l-325 -147h-80l-326 147v103l366 -85zM701 1548h-18q-54 0 -91 30.5t-37 77.5t37 78t91 31h18q54 0 91 -31t37 -78t-37 -77.5t-91 -30.5zM1086 1548h-18q-54 0 -91 30.5t-37 77.5t37 78t91 31h18q54 0 91 -31t37 -78t-37 -77.5t-91 -30.5zM186 1197
q0 63 -25.5 84.5t-121.5 35.5v127h731v-127q-105 -14 -132.5 -37t-27.5 -90v-619q0 -168 89.5 -261t236.5 -93q157 0 242.5 96t84.5 294l-5 579q-1 49 -11.5 71.5t-43 36t-105.5 23.5v127h491v-127q-95 -14 -120.5 -36.5t-26.5 -88.5l-5 -620q-2 -277 -170.5 -441
t-453.5 -164q-131 0 -245 38.5t-199 110.5t-134 183t-49 248v650z" />
    <glyph glyph-name="udieresiscaron" unicode="&#x1da;" horiz-adv-x="1459" 
d="M1078 1784v-124l-317 -180h-79l-317 180v124l356 -103zM528 1159h-19q-56 0 -95.5 36.5t-39.5 91.5t39 91t96 36h19q57 0 96 -36t39 -91q0 -56 -39 -92t-96 -36zM933 1159h-19q-56 0 -95 36t-39 92q0 55 39 91t95 36h19q57 0 96 -36t39 -91q0 -56 -39 -92t-96 -36z
M564 1057v-688q0 -86 42.5 -132.5t119.5 -46.5q51 0 91 20.5t59 51.5v497q0 46 -12 63.5t-52 29.5l-70 19v120l532 66v-781q0 -46 12 -64t52 -29l70 -20v-119l-526 -59v185q-42 -85 -138 -140t-231 -55q-159 0 -252.5 91t-93.5 252v441q0 46 -12 63.5t-53 29.5l-69 19v120z
" />
    <glyph glyph-name="Udieresisgrave" unicode="&#x1db;" horiz-adv-x="1628" 
d="M518 1892v178l734 -161v-101zM701 1548h-18q-54 0 -91 30.5t-37 77.5t37 78t91 31h18q54 0 91 -31t37 -78t-37 -77.5t-91 -30.5zM1086 1548h-18q-54 0 -91 30.5t-37 77.5t37 78t91 31h18q54 0 91 -31t37 -78t-37 -77.5t-91 -30.5zM186 1197q0 63 -25.5 84.5t-121.5 35.5
v127h731v-127q-105 -14 -132.5 -37t-27.5 -90v-619q0 -168 89.5 -261t236.5 -93q157 0 242.5 96t84.5 294l-5 579q-1 49 -11.5 71.5t-43 36t-105.5 23.5v127h491v-127q-95 -14 -120.5 -36.5t-26.5 -88.5l-5 -620q-2 -277 -170.5 -441t-453.5 -164q-131 0 -245 38.5
t-199 110.5t-134 183t-49 248v650z" />
    <glyph glyph-name="udieresisgrave" unicode="&#x1dc;" horiz-adv-x="1459" 
d="M363 1578v209l716 -188v-120zM528 1159h-19q-56 0 -95.5 36.5t-39.5 91.5t39 91t96 36h19q57 0 96 -36t39 -91q0 -56 -39 -92t-96 -36zM933 1159h-19q-56 0 -95 36t-39 92q0 55 39 91t95 36h19q57 0 96 -36t39 -91q0 -56 -39 -92t-96 -36zM564 1057v-688
q0 -86 42.5 -132.5t119.5 -46.5q51 0 91 20.5t59 51.5v497q0 46 -12 63.5t-52 29.5l-70 19v120l532 66v-781q0 -46 12 -64t52 -29l70 -20v-119l-526 -59v185q-42 -85 -138 -140t-231 -55q-159 0 -252.5 91t-93.5 252v441q0 46 -12 63.5t-53 29.5l-69 19v120z" />
    <glyph glyph-name="Adieresismacron" unicode="&#x1de;" horiz-adv-x="1582" 
d="M422 1867v144h734v-144h-734zM606 1548h-19q-54 0 -91 30.5t-37 77.5t37 78t91 31h19q54 0 91 -31t37 -78t-37 -77.5t-91 -30.5zM991 1548h-19q-54 0 -91 30.5t-37 77.5t37 78t91 31h19q54 0 90.5 -31t36.5 -78t-36.5 -77.5t-90.5 -30.5zM1378 329q31 -84 54.5 -121.5
t56.5 -54.5t98 -26v-127h-770v127q60 9 91 19.5t45.5 34t9.5 57.5t-26 94l-38 112h-469l-39 -112q-14 -40 -20.5 -67t-5.5 -49.5t9 -35.5t27 -24t44.5 -17t66.5 -12v-127h-517v127q93 13 127.5 47.5t80.5 157.5l408 1112h361zM483 598h364l-181 531z" />
    <glyph glyph-name="adieresismacron" unicode="&#x1df;" horiz-adv-x="1302" 
d="M245 1541v170h716v-170h-716zM410 1159h-19q-57 0 -96 36t-39 92q0 55 39 91t96 36h19q56 0 95 -36t39 -91q0 -56 -39 -92t-95 -36zM815 1159h-19q-57 0 -96 36t-39 92q0 55 39 91t96 36h19q57 0 96 -36t39 -91t-39.5 -91.5t-95.5 -36.5zM382 -25q-142 0 -226.5 73.5
t-84.5 187.5q0 123 101.5 208t340.5 135l220 47v52q0 223 -218 223q-42 0 -84 -8q33 -43 33 -95q0 -70 -50.5 -116.5t-128.5 -46.5t-126 41.5t-48 110.5q0 117 140.5 197.5t368.5 80.5q504 0 504 -391v-403q0 -57 26.5 -84.5t68.5 -27.5q28 0 46 6v-121q-86 -63 -230 -63
q-103 0 -182.5 45.5t-103.5 121.5q-49 -78 -145.5 -125.5t-221.5 -47.5zM455 299q0 -59 38 -92.5t96 -33.5q47 0 86 19t58 49v246l-67 -15q-113 -25 -162 -66t-49 -107z" />
    <glyph glyph-name="Adotmacron" unicode="&#x1e0;" horiz-adv-x="1582" 
d="M422 1838v145h734v-145h-734zM789 1534q-59 0 -99.5 35t-40.5 87t40.5 86.5t99.5 34.5t99.5 -34t40.5 -87q0 -52 -40.5 -87t-99.5 -35zM1378 329q31 -84 54.5 -121.5t56.5 -54.5t98 -26v-127h-770v127q60 9 91 19.5t45.5 34t9.5 57.5t-26 94l-38 112h-469l-39 -112
q-14 -40 -20.5 -67t-5.5 -49.5t9 -35.5t27 -24t44.5 -17t66.5 -12v-127h-517v127q93 13 127.5 47.5t80.5 157.5l408 1112h361zM483 598h364l-181 531z" />
    <glyph glyph-name="adotmacron" unicode="&#x1e1;" horiz-adv-x="1302" 
d="M245 1527v170h716v-170h-716zM603 1151q-63 0 -105.5 40.5t-42.5 102.5t43 102.5t105 40.5t105 -40.5t43 -102.5t-43 -102.5t-105 -40.5zM382 -25q-142 0 -226.5 73.5t-84.5 187.5q0 123 101.5 208t340.5 135l220 47v52q0 223 -218 223q-42 0 -84 -8q33 -43 33 -95
q0 -70 -50.5 -116.5t-128.5 -46.5t-126 41.5t-48 110.5q0 117 140.5 197.5t368.5 80.5q504 0 504 -391v-403q0 -57 26.5 -84.5t68.5 -27.5q28 0 46 6v-121q-86 -63 -230 -63q-103 0 -182.5 45.5t-103.5 121.5q-49 -78 -145.5 -125.5t-221.5 -47.5zM455 299q0 -59 38 -92.5
t96 -33.5q47 0 86 19t58 49v246l-67 -15q-113 -25 -162 -66t-49 -107z" />
    <glyph glyph-name="AEmacron" unicode="&#x1e2;" horiz-adv-x="2033" 
d="M948 1595v187h672v-187h-672zM1918 1444l10 -413h-120q-19 70 -36.5 111t-40 71.5t-59.5 45t-81 22t-118 11.5l-153 7l7 -490h124q55 0 77.5 35t42.5 157h114l7 -530h-114q-16 84 -31.5 124.5t-35.5 54t-57 13.5h-125l6 -518l179 9q64 3 102.5 8t75.5 18t57 31.5
t40.5 54.5t33.5 81.5t29 117.5h120l-10 -465h-1168v127q96 13 122 34t26 86l-5 288h-433l-83 -186q-52 -118 -35 -162.5t119 -59.5v-127h-521v127q89 10 136 50t109 171l522 1096h1167zM848 1299l-274 -610h361l-8 610h-79z" />
    <glyph glyph-name="aemacron" unicode="&#x1e3;" horiz-adv-x="1794" 
d="M553 1263v207h747v-207h-747zM397 -25q-145 0 -235.5 72t-90.5 201q0 131 107.5 215t331.5 123l222 40v44q0 231 -221 231q-37 0 -70 -6q28 -37 28 -85q0 -68 -54.5 -115t-137.5 -47q-74 0 -120.5 43.5t-46.5 110.5q0 112 133.5 187.5t331.5 75.5q260 0 352 -111
q52 51 135.5 81t178.5 30q219 0 348 -125t129 -337q0 -63 -7 -103h-634q28 -148 127 -229t254 -81q64 0 127.5 18t103.5 50v-126q-67 -74 -184.5 -115.5t-261.5 -41.5t-269.5 73.5t-190.5 195.5q-33 -131 -138.5 -200t-247.5 -69zM1232 901q-73 0 -116.5 -67t-48.5 -191h306
v21q0 113 -35.5 175t-105.5 62zM571 173q72 0 116.5 50t44.5 153v112l-52 -9q-118 -21 -173.5 -65t-55.5 -116q0 -59 32.5 -92t87.5 -33z" />
    <glyph glyph-name="Gcaron" unicode="&#x1e6;" horiz-adv-x="1641" 
d="M1107 1876h156l-217 -321h-304l-216 321h158l211 -146zM89 714q0 231 103 405t286.5 266t421.5 92q161 0 293 -27.5t204 -76.5l8 -391h-120q-42 169 -126.5 246.5t-216.5 77.5q-184 0 -285 -154t-101 -413q0 -261 107.5 -431t286.5 -170q107 0 158 39v308
q0 43 -10.5 63.5t-43.5 32.5t-105 20v126h665v-126q-94 -12 -118.5 -33.5t-24.5 -84.5v-389q-95 -58 -249 -92.5t-322 -34.5q-230 0 -413.5 91t-290.5 262.5t-107 393.5z" />
    <glyph glyph-name="gcaron" unicode="&#x1e7;" horiz-adv-x="1318" 
d="M858 1593h160l-241 -412h-298l-241 412h161l229 -195zM79 707q0 158 145 258t380 100q177 0 297 -52l387 27v-170l-240 22q45 -25 74.5 -82t29.5 -119q0 -155 -147 -240.5t-383 -85.5q-60 0 -120 7q-74 -26 -74 -82q0 -75 132 -75h225q223 0 342.5 -86t119.5 -237
q0 -173 -173.5 -279t-459.5 -106q-271 0 -422.5 68t-151.5 178q0 77 83 125t247 58q-126 5 -204.5 61.5t-78.5 146.5q0 96 80.5 162.5t222.5 95.5q-131 20 -221 101t-90 204zM468 721q0 -94 43 -148t112 -54q66 0 106 54t40 139q0 94 -42.5 146.5t-113.5 52.5
q-66 0 -105.5 -53t-39.5 -137zM399 -199q0 -60 59.5 -95t168.5 -35q115 0 182 38.5t67 98.5q0 103 -175 103h-182q-57 -7 -88.5 -36.5t-31.5 -73.5z" />
    <glyph glyph-name="Kcaron" unicode="&#x1e8;" horiz-adv-x="1590" 
d="M1108 1876h155l-216 -321h-304l-217 321h158l212 -146zM642 247q0 -63 25.5 -84.5t121.5 -35.5v-127h-732v127q104 14 132.5 37t28.5 90v936q0 67 -28.5 90t-132.5 37v127h732v-127q-96 -14 -121.5 -36t-25.5 -85v-388h108l283 345q66 83 50 118t-119 46v127h584v-127
q-109 -17 -176 -59t-199 -179l-119 -125l307 -540q97 -169 138.5 -221t95.5 -72v-121h-478l-362 656h-113v-409z" />
    <glyph glyph-name="kcaron" unicode="&#x1e9;" horiz-adv-x="1405" 
d="M583 1910h156l-217 -321h-304l-216 321h158l211 -146zM945 0l-247 466h-103v-245q0 -51 18.5 -68t84.5 -26v-127h-635v127q85 10 109.5 29t24.5 72v984q0 46 -12 64t-52 29l-70 20v119l532 67v-901h98l145 139q89 82 82 116t-119 48v127h559v-127q-101 -14 -166.5 -47
t-183.5 -131l186 -353q52 -100 87.5 -153.5t61 -74.5t60.5 -33v-121h-460z" />
    <glyph glyph-name="Oogonek" unicode="&#x1ea;" horiz-adv-x="1766" 
d="M89 719q0 214 97.5 386t279.5 272t418 100q227 0 407.5 -92.5t283.5 -265t103 -394.5q0 -201 -86.5 -365t-248 -267t-373.5 -122q-19 -41 -19 -94q0 -75 37 -123t85 -48q43 0 67 19v-122q-37 -44 -105 -70t-148 -26q-107 0 -176 57.5t-69 152.5q0 69 43 136.5t112 117.5
q-154 13 -284.5 72t-224.5 155t-146.5 230t-52.5 291zM556 737q0 -171 39 -305.5t115 -214t178 -79.5q110 0 183.5 75t106 199.5t32.5 294.5q0 171 -39 305.5t-115 214t-178 79.5q-110 0 -183.5 -75t-106 -199.5t-32.5 -294.5z" />
    <glyph glyph-name="oogonek" unicode="&#x1eb;" horiz-adv-x="1360" 
d="M693 -493q-102 0 -172.5 60.5t-70.5 151.5q0 71 43 138t113 121q-241 19 -385.5 164.5t-144.5 370.5q0 244 170.5 398t440.5 154q269 0 433 -148t164 -390q0 -219 -140 -367.5t-369 -177.5q-16 -42 -16 -85q0 -88 33.5 -139.5t85.5 -51.5q42 0 67 20v-122
q-36 -43 -104.5 -70t-147.5 -27zM687 139q90 0 138.5 97t48.5 274q0 180 -55 285.5t-146 105.5q-90 0 -138 -97t-48 -274q0 -180 54.5 -285.5t145.5 -105.5z" />
    <glyph glyph-name="Oogonekmacron" unicode="&#x1ec;" horiz-adv-x="1766" 
d="M547 1595v187h672v-187h-672zM89 719q0 214 97.5 386t279.5 272t418 100q227 0 407.5 -92.5t283.5 -265t103 -394.5q0 -201 -86.5 -365t-248 -267t-373.5 -122q-19 -41 -19 -94q0 -75 37 -123t85 -48q43 0 67 19v-122q-37 -44 -105 -70t-148 -26q-107 0 -176 57.5
t-69 152.5q0 69 43 136.5t112 117.5q-154 13 -284.5 72t-224.5 155t-146.5 230t-52.5 291zM556 737q0 -171 39 -305.5t115 -214t178 -79.5q110 0 183.5 75t106 199.5t32.5 294.5q0 171 -39 305.5t-115 214t-178 79.5q-110 0 -183.5 -75t-106 -199.5t-32.5 -294.5z" />
    <glyph glyph-name="oogonekmacron" unicode="&#x1ed;" horiz-adv-x="1360" 
d="M305 1263v207h747v-207h-747zM693 -493q-102 0 -172.5 60.5t-70.5 151.5q0 71 43 138t113 121q-241 19 -385.5 164.5t-144.5 370.5q0 244 170.5 398t440.5 154q269 0 433 -148t164 -390q0 -219 -140 -367.5t-369 -177.5q-16 -42 -16 -85q0 -88 33.5 -139.5t85.5 -51.5
q42 0 67 20v-122q-36 -43 -104.5 -70t-147.5 -27zM687 139q90 0 138.5 97t48.5 274q0 180 -55 285.5t-146 105.5q-90 0 -138 -97t-48 -274q0 -180 54.5 -285.5t145.5 -105.5z" />
    <glyph glyph-name="uni01F1" unicode="&#x1f1;" horiz-adv-x="3082" 
d="M1628 743q0 -162 -64 -302t-174 -236t-260.5 -150.5t-319.5 -54.5h-753v127q105 14 133 37t28 90v936q0 67 -28 90t-133 37v127h725q255 0 444.5 -80t295.5 -239.5t106 -381.5zM2994 0h-1211v121l733 1178l-276 -10q-89 -3 -139.5 -12.5t-88 -40t-57.5 -76.5t-41 -131
h-121l9 415h1195v-121l-733 -1178l250 10q69 2 109.5 6.5t81.5 17t64 31.5t45.5 54t37.5 82.5t31 118.5h121zM1162 721q-1 257 -117.5 412t-314.5 163l-88 3v-1154l88 3q197 7 315 160t117 413z" />
    <glyph glyph-name="uni01F2" unicode="&#x1f2;" horiz-adv-x="2800" 
d="M1628 743q0 -162 -64 -302t-174 -236t-260.5 -150.5t-319.5 -54.5h-753v127q105 14 133 37t28 90v936q0 67 -28 90t-133 37v127h725q255 0 444.5 -80t295.5 -239.5t106 -381.5zM1162 721q-1 257 -117.5 412t-314.5 163l-88 3v-1154l88 3q197 7 315 160t117 413z
M1777 1040h950v-113l-511 -787l161 5q57 2 91 10.5t63 33.5t47 67t36 113h121l-5 -369h-963v113l507 785l-136 -4q-117 -4 -160 -40t-86 -167h-120z" />
    <glyph glyph-name="uni01F3" unicode="&#x1f3;" horiz-adv-x="2504" 
d="M76 506q0 129 37 235.5t101 176.5t150 108.5t184 38.5q83 0 160 -29.5t118 -75.5v252q0 46 -12 64t-52 29l-71 20v119l532 65v-1233q0 -46 12 -64t53 -29l69 -20v-119l-524 -59v183q-41 -87 -131 -140t-208 -53q-184 0 -301 144t-117 387zM1481 1040h950v-113l-512 -787
l161 5q57 2 91.5 10.5t63 33.5t46.5 67t36 113h122l-6 -369h-963v113l508 785l-136 -4q-117 -4 -160 -40t-86 -167h-120zM481 535q0 -165 55 -255t148 -90q48 0 86.5 21.5t55.5 55.5v552q-16 30 -54 49t-87 19q-93 0 -148.5 -91.5t-55.5 -260.5z" />
    <glyph glyph-name="Gacute" unicode="&#x1f4;" horiz-adv-x="1641" 
d="M863 1555h-158l132 321h406v-12zM89 714q0 231 103 405t286.5 266t421.5 92q161 0 293 -27.5t204 -76.5l8 -391h-120q-42 169 -126.5 246.5t-216.5 77.5q-184 0 -285 -154t-101 -413q0 -261 107.5 -431t286.5 -170q107 0 158 39v308q0 43 -10.5 63.5t-43.5 32.5t-105 20
v126h665v-126q-94 -12 -118.5 -33.5t-24.5 -84.5v-389q-95 -58 -249 -92.5t-322 -34.5q-230 0 -413.5 91t-290.5 262.5t-107 393.5z" />
    <glyph glyph-name="gacute" unicode="&#x1f5;" horiz-adv-x="1318" 
d="M597 1182h-160l155 412h406v-15zM79 707q0 158 145 258t380 100q177 0 297 -52l387 27v-170l-240 22q45 -25 74.5 -82t29.5 -119q0 -155 -147 -240.5t-383 -85.5q-60 0 -120 7q-74 -26 -74 -82q0 -75 132 -75h225q223 0 342.5 -86t119.5 -237q0 -173 -173.5 -279
t-459.5 -106q-271 0 -422.5 68t-151.5 178q0 77 83 125t247 58q-126 5 -204.5 61.5t-78.5 146.5q0 96 80.5 162.5t222.5 95.5q-131 20 -221 101t-90 204zM468 721q0 -94 43 -148t112 -54q66 0 106 54t40 139q0 94 -42.5 146.5t-113.5 52.5q-66 0 -105.5 -53t-39.5 -137z
M399 -199q0 -60 59.5 -95t168.5 -35q115 0 182 38.5t67 98.5q0 103 -175 103h-182q-57 -7 -88.5 -36.5t-31.5 -73.5z" />
    <glyph glyph-name="Ngrave" unicode="&#x1f8;" horiz-adv-x="1626" 
d="M901 1555l-382 309v12h422l118 -321h-158zM660 1444l609 -1077l-15 818q-1 71 -28 95t-129 37v127h488v-127q-50 -8 -77 -15.5t-43.5 -22.5t-21 -34t-4.5 -54l-8 -1191h-468l-606 1071l15 -812q1 -50 11.5 -73t43 -36.5t103.5 -22.5v-127h-489v127q96 15 121.5 37.5
t25.5 88.5l4 912q0 81 -26 108.5t-122 43.5v127h616z" />
    <glyph glyph-name="ngrave" unicode="&#x1f9;" horiz-adv-x="1506" 
d="M797 1182l-406 397v15h423l142 -412h-159zM588 1057v-187q42 84 141.5 139.5t238.5 55.5q165 0 262.5 -90.5t97.5 -249.5v-497q0 -53 24.5 -72t109.5 -29v-127h-635v127q66 9 84.5 26t18.5 68v452q0 85 -45.5 131t-127.5 46q-56 0 -100 -20.5t-62 -52.5v-556
q0 -51 18.5 -68t84.5 -26v-127h-635v127q85 10 109.5 29t24.5 72v531q0 46 -11.5 63.5t-52.5 29.5l-70 19v120z" />
    <glyph glyph-name="Aringacute" unicode="&#x1fa;" horiz-adv-x="1582" 
d="M1156 1875l-733 -84v102l733 160v-178zM833 1512h-87q-115 0 -185.5 35t-70.5 93t70.5 93t185.5 35h87q115 0 185.5 -35t70.5 -93t-70.5 -93t-185.5 -35zM811 1598q69 0 69 42t-69 42h-43q-69 0 -69 -42t69 -42h43zM1378 329q31 -84 54.5 -121.5t56.5 -54.5t98 -26v-127
h-770v127q60 9 91 19.5t45.5 34t9.5 57.5t-26 94l-38 112h-469l-39 -112q-14 -40 -20.5 -67t-5.5 -49.5t9 -35.5t27 -24t44.5 -17t66.5 -12v-127h-517v127q93 13 127.5 47.5t80.5 157.5l408 1112h361zM483 598h364l-181 531z" />
    <glyph glyph-name="aringacute" unicode="&#x1fb;" horiz-adv-x="1302" 
d="M961 1582l-716 -99v120l716 188v-209zM649 1126h-93q-121 0 -194.5 46.5t-73.5 123.5t73.5 123.5t194.5 46.5h93q122 0 195 -46.5t73 -123.5t-73 -123.5t-195 -46.5zM625 1240q34 0 53.5 15t19.5 41t-19.5 41t-53.5 15h-45q-34 0 -53.5 -15t-19.5 -41t19 -41t54 -15h45z
M382 -25q-142 0 -226.5 73.5t-84.5 187.5q0 123 101.5 208t340.5 135l220 47v52q0 223 -218 223q-42 0 -84 -8q33 -43 33 -95q0 -70 -50.5 -116.5t-128.5 -46.5t-126 41.5t-48 110.5q0 117 140.5 197.5t368.5 80.5q504 0 504 -391v-403q0 -57 26.5 -84.5t68.5 -27.5
q28 0 46 6v-121q-86 -63 -230 -63q-103 0 -182.5 45.5t-103.5 121.5q-49 -78 -145.5 -125.5t-221.5 -47.5zM455 299q0 -59 38 -92.5t96 -33.5q47 0 86 19t58 49v246l-67 -15q-113 -25 -162 -66t-49 -107z" />
    <glyph glyph-name="AEacute" unicode="&#x1fc;" horiz-adv-x="2033" 
d="M1270 1555h-158l132 321h406v-12zM1918 1444l10 -413h-120q-19 70 -36.5 111t-40 71.5t-59.5 45t-81 22t-118 11.5l-153 7l7 -490h124q55 0 77.5 35t42.5 157h114l7 -530h-114q-16 84 -31.5 124.5t-35.5 54t-57 13.5h-125l6 -518l179 9q64 3 102.5 8t75.5 18t57 31.5
t40.5 54.5t33.5 81.5t29 117.5h120l-10 -465h-1168v127q96 13 122 34t26 86l-5 288h-433l-83 -186q-52 -118 -35 -162.5t119 -59.5v-127h-521v127q89 10 136 50t109 171l522 1096h1167zM848 1299l-274 -610h361l-8 610h-79z" />
    <glyph glyph-name="aeacute" unicode="&#x1fd;" horiz-adv-x="1794" 
d="M895 1182h-160l155 412h407v-15zM397 -25q-145 0 -235.5 72t-90.5 201q0 131 107.5 215t331.5 123l222 40v44q0 231 -221 231q-37 0 -70 -6q28 -37 28 -85q0 -68 -54.5 -115t-137.5 -47q-74 0 -120.5 43.5t-46.5 110.5q0 112 133.5 187.5t331.5 75.5q260 0 352 -111
q52 51 135.5 81t178.5 30q219 0 348 -125t129 -337q0 -63 -7 -103h-634q28 -148 127 -229t254 -81q64 0 127.5 18t103.5 50v-126q-67 -74 -184.5 -115.5t-261.5 -41.5t-269.5 73.5t-190.5 195.5q-33 -131 -138.5 -200t-247.5 -69zM1232 901q-73 0 -116.5 -67t-48.5 -191h306
v21q0 113 -35.5 175t-105.5 62zM571 173q72 0 116.5 50t44.5 153v112l-52 -9q-118 -21 -173.5 -65t-55.5 -116q0 -59 32.5 -92t87.5 -33z" />
    <glyph glyph-name="Oslashacute" unicode="&#x1fe;" horiz-adv-x="1766" 
d="M869 1555h-158l132 321h406v-12zM89 719q0 214 97.5 386t279.5 272t418 100q281 0 485 -140l136 141l107 -104l-129 -134q195 -205 195 -515q0 -160 -57.5 -299.5t-160 -241t-252 -159.5t-326.5 -58q-281 0 -486 140l-135 -141l-107 104l128 134q-193 204 -193 515z
M556 737q0 -119 20 -227l564 588q-93 208 -262 208q-110 0 -183.5 -75t-106 -199.5t-32.5 -294.5zM1210 707q0 121 -20 227l-564 -587q44 -99 110.5 -154t151.5 -55q110 0 183.5 75t106 199.5t32.5 294.5z" />
    <glyph glyph-name="oslashacute" unicode="&#x1ff;" horiz-adv-x="1350" 
d="M643 1180h-160l154 412h407v-15zM669 -25q-202 0 -350 89l-103 -102l-99 102l91 90q-132 143 -132 358q0 243 169.5 396.5t436.5 153.5q203 0 354 -91l108 107l99 -102l-97 -96q129 -143 129 -355q0 -160 -77 -285.5t-215 -195t-314 -69.5zM476 529q0 -55 6 -105l349 344
q-56 133 -162 133q-93 0 -143 -97t-50 -275zM682 136q92 0 142.5 97t50.5 275q0 52 -6 99l-347 -343q56 -128 160 -128z" />
    <glyph glyph-name="Adblgrave" unicode="&#x200;" horiz-adv-x="1582" 
d="M624 1876l146 -321h-179l-309 309v12h342zM1058 1876l24 -321h-166l-165 309v12h307zM1378 329q31 -84 54.5 -121.5t56.5 -54.5t98 -26v-127h-770v127q60 9 91 19.5t45.5 34t9.5 57.5t-26 94l-38 112h-469l-39 -112q-14 -40 -20.5 -67t-5.5 -49.5t9 -35.5t27 -24
t44.5 -17t66.5 -12v-127h-517v127q93 13 127.5 47.5t80.5 157.5l408 1112h361zM483 598h364l-181 531z" />
    <glyph glyph-name="adblgrave" unicode="&#x201;" horiz-adv-x="1302" 
d="M383 1594l165 -412h-180l-329 397v15h344zM844 1594l42 -412h-168l-185 397v15h311zM382 -25q-142 0 -226.5 73.5t-84.5 187.5q0 123 101.5 208t340.5 135l220 47v52q0 223 -218 223q-42 0 -84 -8q33 -43 33 -95q0 -70 -50.5 -116.5t-128.5 -46.5t-126 41.5t-48 110.5
q0 117 140.5 197.5t368.5 80.5q504 0 504 -391v-403q0 -57 26.5 -84.5t68.5 -27.5q28 0 46 6v-121q-86 -63 -230 -63q-103 0 -182.5 45.5t-103.5 121.5q-49 -78 -145.5 -125.5t-221.5 -47.5zM455 299q0 -59 38 -92.5t96 -33.5q47 0 86 19t58 49v246l-67 -15
q-113 -25 -162 -66t-49 -107z" />
    <glyph glyph-name="Ainvertedbreve" unicode="&#x202;" horiz-adv-x="1582" 
d="M789 1917q164 0 259 -82t95 -204q0 -40 -5 -61h-141v4q0 62 -58 102t-150 40q-93 0 -150 -40t-57 -102v-4h-141q-6 25 -6 61q0 122 95 204t259 82zM1378 329q31 -84 54.5 -121.5t56.5 -54.5t98 -26v-127h-770v127q60 9 91 19.5t45.5 34t9.5 57.5t-26 94l-38 112h-469
l-39 -112q-14 -40 -20.5 -67t-5.5 -49.5t9 -35.5t27 -24t44.5 -17t66.5 -12v-127h-517v127q93 13 127.5 47.5t80.5 157.5l408 1112h361zM483 598h364l-181 531z" />
    <glyph glyph-name="ainvertedbreve" unicode="&#x203;" horiz-adv-x="1302" 
d="M603 1590q175 0 276.5 -95.5t101.5 -237.5q0 -46 -5 -71h-146v4q0 72 -62.5 118t-164.5 46q-103 0 -165 -46t-62 -118v-4h-147q-5 32 -5 71q0 142 101.5 237.5t277.5 95.5zM382 -25q-142 0 -226.5 73.5t-84.5 187.5q0 123 101.5 208t340.5 135l220 47v52q0 223 -218 223
q-42 0 -84 -8q33 -43 33 -95q0 -70 -50.5 -116.5t-128.5 -46.5t-126 41.5t-48 110.5q0 117 140.5 197.5t368.5 80.5q504 0 504 -391v-403q0 -57 26.5 -84.5t68.5 -27.5q28 0 46 6v-121q-86 -63 -230 -63q-103 0 -182.5 45.5t-103.5 121.5q-49 -78 -145.5 -125.5
t-221.5 -47.5zM455 299q0 -59 38 -92.5t96 -33.5q47 0 86 19t58 49v246l-67 -15q-113 -25 -162 -66t-49 -107z" />
    <glyph glyph-name="Edblgrave" unicode="&#x204;" horiz-adv-x="1410" 
d="M575 1876l146 -321h-179l-309 309v12h342zM1010 1876l23 -321h-166l-165 309v12h308zM1292 1444l9 -415h-120q-15 58 -28 95.5t-32.5 68.5t-40.5 47.5t-56 28t-74.5 16.5t-100.5 7l-207 7v-490h171q54 0 77 35t46 157h114v-530h-114q-15 84 -30.5 124.5t-35.5 54
t-57 13.5h-171v-518l233 9q66 2 106 6.5t78.5 17.5t59.5 32t42.5 55t35.5 82t31 118h121l-11 -465h-1281v127q105 14 133 37t28 90v936q0 67 -28 90t-133 37v127h1235z" />
    <glyph glyph-name="edblgrave" unicode="&#x205;" horiz-adv-x="1219" 
d="M430 1594l165 -412h-180l-329 397v15h344zM891 1594l42 -412h-168l-185 397v15h311zM76 509q0 251 159.5 403t412.5 152q231 0 363 -124.5t132 -338.5q0 -65 -7 -104h-650q29 -147 131 -227t261 -80q64 0 128.5 18t105.5 50v-126q-68 -74 -188 -115.5t-267 -41.5
q-162 0 -293 62t-209.5 185t-78.5 287zM648 901q-77 0 -122.5 -68t-49.5 -193h322v22q0 113 -38.5 176t-111.5 63z" />
    <glyph glyph-name="Einvertedbreve" unicode="&#x206;" horiz-adv-x="1410" 
d="M740 1917q164 0 259.5 -82t95.5 -204q0 -36 -6 -61h-141v4q0 62 -58 102t-150 40q-93 0 -150 -40t-57 -102v-4h-141q-6 25 -6 61q0 122 95 204t259 82zM1292 1444l9 -415h-120q-15 58 -28 95.5t-32.5 68.5t-40.5 47.5t-56 28t-74.5 16.5t-100.5 7l-207 7v-490h171
q54 0 77 35t46 157h114v-530h-114q-15 84 -30.5 124.5t-35.5 54t-57 13.5h-171v-518l233 9q66 2 106 6.5t78.5 17.5t59.5 32t42.5 55t35.5 82t31 118h121l-11 -465h-1281v127q105 14 133 37t28 90v936q0 67 -28 90t-133 37v127h1235z" />
    <glyph glyph-name="einvertedbreve" unicode="&#x207;" horiz-adv-x="1219" 
d="M650 1590q175 0 276.5 -95.5t101.5 -237.5q0 -46 -5 -71h-146v4q0 72 -62.5 118t-164.5 46q-103 0 -165 -46t-62 -118v-4h-147q-5 32 -5 71q0 142 101.5 237.5t277.5 95.5zM76 509q0 251 159.5 403t412.5 152q231 0 363 -124.5t132 -338.5q0 -65 -7 -104h-650
q29 -147 131 -227t261 -80q64 0 128.5 18t105.5 50v-126q-68 -74 -188 -115.5t-267 -41.5q-162 0 -293 62t-209.5 185t-78.5 287zM648 901q-77 0 -122.5 -68t-49.5 -193h322v22q0 113 -38.5 176t-111.5 63z" />
    <glyph glyph-name="Idblgrave" unicode="&#x208;" horiz-adv-x="860" 
d="M265 1876l145 -321h-179l-309 309v12h343zM699 1876l24 -321h-167l-164 309v12h307zM642 254q0 -67 28 -90t132 -37v-127h-745v127q105 14 133 37t28 90v936q0 67 -28 90t-133 37v127h745v-127q-104 -14 -132 -37t-28 -90v-936z" />
    <glyph glyph-name="idblgrave" unicode="&#x209;" horiz-adv-x="780" 
d="M151 1594l165 -412h-180l-330 397v15h345zM612 1594l42 -412h-168l-185 397v15h311zM595 1057v-829q0 -53 24.5 -72t109.5 -29v-127h-666v127q85 10 109.5 29t24.5 72v531q0 46 -11.5 63.5t-52.5 29.5l-70 19v120z" />
    <glyph glyph-name="Iinvertedbreve" unicode="&#x20a;" horiz-adv-x="860" 
d="M430 1917q164 0 259 -82t95 -204q0 -33 -5 -61h-142v4q0 62 -57.5 102t-149.5 40q-93 0 -150 -40t-57 -102v-4h-142q-5 21 -5 61q0 122 95 204t259 82zM642 254q0 -67 28 -90t132 -37v-127h-745v127q105 14 133 37t28 90v936q0 67 -28 90t-133 37v127h745v-127
q-104 -14 -132 -37t-28 -90v-936z" />
    <glyph glyph-name="iinvertedbreve" unicode="&#x20b;" horiz-adv-x="780" 
d="M371 1590q157 0 248.5 -95.5t91.5 -237.5q0 -44 -4 -71h-132v4q0 72 -56.5 118t-147.5 46q-93 0 -149 -46t-56 -118v-4h-131q-5 24 -5 71q0 142 91.5 237.5t249.5 95.5zM595 1057v-829q0 -53 24.5 -72t109.5 -29v-127h-666v127q85 10 109.5 29t24.5 72v531
q0 46 -11.5 63.5t-52.5 29.5l-70 19v120z" />
    <glyph glyph-name="Odblgrave" unicode="&#x20c;" horiz-adv-x="1766" 
d="M718 1876l146 -321h-179l-309 309v12h342zM1153 1876l23 -321h-166l-165 309v12h308zM89 719q0 214 97.5 386t279.5 272t418 100q227 0 407.5 -92.5t283.5 -265t103 -394.5q0 -160 -57.5 -299.5t-160 -241t-252 -159.5t-326.5 -58q-170 0 -316.5 54.5t-251.5 151.5
t-165 238t-60 308zM556 737q0 -171 39 -305.5t115 -214t178 -79.5q110 0 183.5 75t106 199.5t32.5 294.5q0 171 -39 305.5t-115 214t-178 79.5q-110 0 -183.5 -75t-106 -199.5t-32.5 -294.5z" />
    <glyph glyph-name="odblgrave" unicode="&#x20d;" horiz-adv-x="1360" 
d="M459 1594l165 -412h-180l-329 397v15h344zM920 1594l42 -412h-168l-185 397v15h311zM673 -25q-268 0 -432.5 148t-164.5 390q0 244 170.5 398t440.5 154q269 0 433 -148t164 -390q0 -244 -171 -398t-440 -154zM687 139q90 0 138.5 97t48.5 274q0 180 -55 285.5
t-146 105.5q-90 0 -138 -97t-48 -274q0 -180 54.5 -285.5t145.5 -105.5z" />
    <glyph glyph-name="Oinvertedbreve" unicode="&#x20e;" horiz-adv-x="1766" 
d="M883 1917q164 0 259.5 -82t95.5 -204q0 -36 -6 -61h-141v4q0 62 -58 102t-150 40q-93 0 -150 -40t-57 -102v-4h-141q-6 25 -6 61q0 122 95 204t259 82zM89 719q0 214 97.5 386t279.5 272t418 100q227 0 407.5 -92.5t283.5 -265t103 -394.5q0 -160 -57.5 -299.5t-160 -241
t-252 -159.5t-326.5 -58q-170 0 -316.5 54.5t-251.5 151.5t-165 238t-60 308zM556 737q0 -171 39 -305.5t115 -214t178 -79.5q110 0 183.5 75t106 199.5t32.5 294.5q0 171 -39 305.5t-115 214t-178 79.5q-110 0 -183.5 -75t-106 -199.5t-32.5 -294.5z" />
    <glyph glyph-name="oinvertedbreve" unicode="&#x20f;" horiz-adv-x="1360" 
d="M679 1590q175 0 276.5 -95.5t101.5 -237.5q0 -46 -5 -71h-146v4q0 72 -62.5 118t-164.5 46q-103 0 -165 -46t-62 -118v-4h-147q-5 32 -5 71q0 142 101.5 237.5t277.5 95.5zM673 -25q-268 0 -432.5 148t-164.5 390q0 244 170.5 398t440.5 154q269 0 433 -148t164 -390
q0 -244 -171 -398t-440 -154zM687 139q90 0 138.5 97t48.5 274q0 180 -55 285.5t-146 105.5q-90 0 -138 -97t-48 -274q0 -180 54.5 -285.5t145.5 -105.5z" />
    <glyph glyph-name="Rdblgrave" unicode="&#x210;" horiz-adv-x="1553" 
d="M588 1876l146 -321h-179l-309 309v12h342zM1022 1876l24 -321h-166l-165 309v12h307zM1453 1044q1 -127 -70.5 -217.5t-205.5 -133.5l163 -326q70 -137 109.5 -184.5t85.5 -61.5v-121h-455l-288 599h-150v-352q0 -63 25.5 -84.5t121.5 -35.5v-127h-732v127q105 14 133 37
t28 90v936q0 67 -28 90t-133 37v127h776q308 0 463 -106t157 -294zM1027 1020q0 127 -79 199t-227 77l-79 3v-555l87 3q134 4 216 75t82 198z" />
    <glyph glyph-name="rdblgrave" unicode="&#x211;" horiz-adv-x="1103" 
d="M382 1594l165 -412h-180l-329 397v15h344zM843 1594l42 -412h-168l-185 397v15h311zM591 1057l-3 -303q71 161 145.5 234t163.5 73q79 0 119 -56.5t40 -145.5q0 -90 -27 -141q-60 25 -169 25q-82 0 -157 -19.5t-108 -50.5v-430q0 -63 27.5 -84t124.5 -32v-127h-684v127
q85 10 109.5 29t24.5 72v531q0 46 -11.5 63.5t-52.5 29.5l-70 19v120z" />
    <glyph glyph-name="Rinvertedbreve" unicode="&#x212;" horiz-adv-x="1553" 
d="M753 1917q164 0 259 -82t95 -204q0 -40 -5 -61h-141v4q0 62 -58 102t-150 40q-93 0 -150 -40t-57 -102v-4h-141q-6 25 -6 61q0 122 95 204t259 82zM1453 1044q1 -127 -70.5 -217.5t-205.5 -133.5l163 -326q70 -137 109.5 -184.5t85.5 -61.5v-121h-455l-288 599h-150v-352
q0 -63 25.5 -84.5t121.5 -35.5v-127h-732v127q105 14 133 37t28 90v936q0 67 -28 90t-133 37v127h776q308 0 463 -106t157 -294zM1027 1020q0 127 -79 199t-227 77l-79 3v-555l87 3q134 4 216 75t82 198z" />
    <glyph glyph-name="rinvertedbreve" unicode="&#x213;" horiz-adv-x="1103" 
d="M602 1590q175 0 277 -95.5t102 -237.5q0 -41 -6 -71h-146v4q0 72 -62.5 118t-164.5 46q-103 0 -165 -46t-62 -118v-4h-146q-6 28 -6 71q0 142 101.5 237.5t277.5 95.5zM591 1057l-3 -303q71 161 145.5 234t163.5 73q79 0 119 -56.5t40 -145.5q0 -90 -27 -141
q-60 25 -169 25q-82 0 -157 -19.5t-108 -50.5v-430q0 -63 27.5 -84t124.5 -32v-127h-684v127q85 10 109.5 29t24.5 72v531q0 46 -11.5 63.5t-52.5 29.5l-70 19v120z" />
    <glyph glyph-name="Udblgrave" unicode="&#x214;" horiz-adv-x="1628" 
d="M720 1876l145 -321h-179l-309 309v12h343zM1154 1876l24 -321h-167l-164 309v12h307zM186 1197q0 63 -25.5 84.5t-121.5 35.5v127h731v-127q-105 -14 -132.5 -37t-27.5 -90v-619q0 -168 89.5 -261t236.5 -93q157 0 242.5 96t84.5 294l-5 579q-1 49 -11.5 71.5t-43 36
t-105.5 23.5v127h491v-127q-95 -14 -120.5 -36.5t-26.5 -88.5l-5 -620q-2 -277 -170.5 -441t-453.5 -164q-131 0 -245 38.5t-199 110.5t-134 183t-49 248v650z" />
    <glyph glyph-name="udblgrave" unicode="&#x215;" horiz-adv-x="1459" 
d="M502 1594l165 -412h-180l-330 397v15h345zM963 1594l42 -412h-169l-184 397v15h311zM564 1057v-688q0 -86 42.5 -132.5t119.5 -46.5q51 0 91 20.5t59 51.5v497q0 46 -12 63.5t-52 29.5l-70 19v120l532 66v-781q0 -46 12 -64t52 -29l70 -20v-119l-526 -59v185
q-42 -85 -138 -140t-231 -55q-159 0 -252.5 91t-93.5 252v441q0 46 -12 63.5t-53 29.5l-69 19v120z" />
    <glyph glyph-name="Uinvertedbreve" unicode="&#x216;" horiz-adv-x="1628" 
d="M885 1917q164 0 259 -82t95 -204q0 -33 -5 -61h-142v4q0 62 -57.5 102t-149.5 40q-93 0 -150 -40t-57 -102v-4h-142q-5 21 -5 61q0 122 95 204t259 82zM186 1197q0 63 -25.5 84.5t-121.5 35.5v127h731v-127q-105 -14 -132.5 -37t-27.5 -90v-619q0 -168 89.5 -261
t236.5 -93q157 0 242.5 96t84.5 294l-5 579q-1 49 -11.5 71.5t-43 36t-105.5 23.5v127h491v-127q-95 -14 -120.5 -36.5t-26.5 -88.5l-5 -620q-2 -277 -170.5 -441t-453.5 -164q-131 0 -245 38.5t-199 110.5t-134 183t-49 248v650z" />
    <glyph glyph-name="uinvertedbreve" unicode="&#x217;" horiz-adv-x="1459" 
d="M721 1590q176 0 277.5 -95.5t101.5 -237.5q0 -38 -5 -71h-147v4q0 72 -62.5 118t-164.5 46q-103 0 -165 -46t-62 -118v-4h-146q-5 24 -5 71q0 142 101.5 237.5t276.5 95.5zM564 1057v-688q0 -86 42.5 -132.5t119.5 -46.5q51 0 91 20.5t59 51.5v497q0 46 -12 63.5
t-52 29.5l-70 19v120l532 66v-781q0 -46 12 -64t52 -29l70 -20v-119l-526 -59v185q-42 -85 -138 -140t-231 -55q-159 0 -252.5 91t-93.5 252v441q0 46 -12 63.5t-53 29.5l-69 19v120z" />
    <glyph glyph-name="Scommaaccent" unicode="&#x218;" horiz-adv-x="1368" 
d="M637 -33q-157 0 -301 33t-225 85l-10 368h121q35 -156 139 -235.5t252 -79.5q111 0 176 50.5t65 130.5q0 77 -52 126.5t-165 83.5l-131 39q-415 124 -415 447q0 207 172.5 334.5t469.5 127.5q146 0 271 -29.5t200 -79.5l9 -363h-120q-32 148 -120.5 224.5t-223.5 76.5
q-111 0 -171 -48.5t-60 -128.5q0 -70 53 -116t164 -80l131 -39q213 -65 314 -177t101 -279q0 -115 -51 -206t-139.5 -148t-204 -87t-249.5 -30zM635 -493q-137 0 -220 47v111q59 -32 145 -32q52 0 81.5 16.5t29.5 45.5q0 28 -28 43.5t-73 16.5q-50 1 -88 -13v107
q25 24 80.5 40t124.5 16q112 0 181.5 -53t69.5 -145q0 -93 -83 -146.5t-220 -53.5z" />
    <glyph glyph-name="scommaaccent" unicode="&#x219;" horiz-adv-x="1112" 
d="M80 714q0 162 137 256.5t384 94.5q239 0 389 -74l5 -262h-121q-28 80 -94 126t-166 46q-78 0 -121.5 -26t-43.5 -74q0 -44 37.5 -71t119.5 -46l106 -25q172 -40 253 -119t81 -210q0 -162 -141 -257.5t-388 -95.5q-128 0 -242 25t-194 68l-5 269h121q25 -85 98.5 -141.5
t201.5 -56.5q85 0 132 29t47 78q0 43 -34 69.5t-116 46.5l-106 25q-162 39 -251 116.5t-89 208.5zM505 -493q-137 0 -220 47v111q59 -32 145 -32q52 0 82 16.5t30 45.5q0 28 -28.5 43.5t-73.5 16.5q-50 1 -88 -13v107q26 24 81 40t124 16q112 0 181.5 -53t69.5 -145
q0 -93 -83 -146.5t-220 -53.5z" />
    <glyph glyph-name="Tcommaaccent" unicode="&#x21a;" horiz-adv-x="1467" 
d="M1413 1444l9 -415h-120q-12 60 -24 99t-30 70.5t-38 48t-54 28.5t-72 16t-97 6l-42 2v-1030q0 -52 12 -77t47.5 -40t111.5 -25v-127h-765v127q76 10 111.5 25t47.5 40t12 77v1030l-42 -2q-59 -2 -97 -6t-72 -16t-54 -28.5t-38 -48t-30 -70.5t-24 -99h-120l9 415h1359z
M699 -493q-137 0 -220 47v111q59 -32 145 -32q52 0 81.5 16.5t29.5 45.5q0 28 -28 43.5t-73 16.5q-50 1 -88 -13v107q25 24 80.5 40t124.5 16q112 0 181.5 -53t69.5 -145q0 -93 -83 -146.5t-220 -53.5z" />
    <glyph glyph-name="tcommaaccent" unicode="&#x21b;" horiz-adv-x="883" 
d="M172 339v531h-130v115l412 302h108v-254l283 7v-170l-283 7v-487q0 -217 168 -217q74 0 129 32v-127q-49 -42 -145 -72.5t-195 -30.5q-72 0 -132.5 20t-110 61t-77 113.5t-27.5 169.5zM487 -493q-137 0 -220 47v111q59 -32 145 -32q52 0 81.5 16.5t29.5 45.5
q0 28 -28 43.5t-73 16.5q-50 1 -88 -13v107q25 24 80.5 40t124.5 16q112 0 181.5 -53t69.5 -145q0 -93 -83 -146.5t-220 -53.5z" />
    <glyph glyph-name="Hcaron" unicode="&#x21e;" horiz-adv-x="1797" 
d="M1129 1875h156l-216 -321h-304l-217 321h158l212 -146zM642 247q0 -63 25.5 -85t121.5 -35v-127h-732v127q105 15 133 37.5t28 89.5v936q0 67 -28 90t-133 37v127h732v-127q-95 -14 -121 -36t-26 -85v-383h514v384q0 64 -25.5 85.5t-121.5 34.5v127h731v-127
q-105 -13 -133 -35.5t-28 -91.5v-936q0 -69 28 -91.5t133 -35.5v-127h-731v127q96 13 121.5 34.5t25.5 85.5v411h-514v-411z" />
    <glyph glyph-name="hcaron" unicode="&#x21f;" horiz-adv-x="1506" 
d="M615 1876h156l-217 -321h-304l-216 321h158l211 -146zM595 1511l-6 -640q42 84 141 139t238 55q165 0 262.5 -90.5t97.5 -249.5v-497q0 -53 24.5 -72t109.5 -29v-127h-635v127q66 9 84.5 26t18.5 68v452q0 85 -45.5 131t-127.5 46q-56 0 -100 -20.5t-62 -52.5v-556
q0 -51 18.5 -68t84.5 -26v-127h-635v127q85 10 109.5 29t24.5 72v984q0 46 -12 64t-52 29l-70 20v119z" />
    <glyph glyph-name="Adotaccent" unicode="&#x226;" horiz-adv-x="1582" 
d="M789 1555q-71 0 -120 45.5t-49 114.5q0 70 49 115.5t120 45.5q72 0 121 -45.5t49 -115.5q0 -69 -49 -114.5t-121 -45.5zM1378 329q31 -84 54.5 -121.5t56.5 -54.5t98 -26v-127h-770v127q60 9 91 19.5t45.5 34t9.5 57.5t-26 94l-38 112h-469l-39 -112q-14 -40 -20.5 -67
t-5.5 -49.5t9 -35.5t27 -24t44.5 -17t66.5 -12v-127h-517v127q93 13 127.5 47.5t80.5 157.5l408 1112h361zM483 598h364l-181 531z" />
    <glyph glyph-name="adotaccent" unicode="&#x227;" horiz-adv-x="1302" 
d="M603 1194q-84 0 -142 53.5t-58 135.5q0 81 58 134.5t142 53.5t141.5 -53.5t57.5 -134.5q0 -82 -57.5 -135.5t-141.5 -53.5zM382 -25q-142 0 -226.5 73.5t-84.5 187.5q0 123 101.5 208t340.5 135l220 47v52q0 223 -218 223q-42 0 -84 -8q33 -43 33 -95q0 -70 -50.5 -116.5
t-128.5 -46.5t-126 41.5t-48 110.5q0 117 140.5 197.5t368.5 80.5q504 0 504 -391v-403q0 -57 26.5 -84.5t68.5 -27.5q28 0 46 6v-121q-86 -63 -230 -63q-103 0 -182.5 45.5t-103.5 121.5q-49 -78 -145.5 -125.5t-221.5 -47.5zM455 299q0 -59 38 -92.5t96 -33.5q47 0 86 19
t58 49v246l-67 -15q-113 -25 -162 -66t-49 -107z" />
    <glyph glyph-name="Ecedilla" unicode="&#x228;" horiz-adv-x="1410" 
d="M702 -493q-146 0 -233 46v122q58 -31 137 -31q49 0 78.5 17t29.5 50q0 34 -30.5 51.5t-84.5 17.5q-25 0 -41 -4v97l114 127h-615v127q105 14 133 37t28 90v936q0 67 -28 90t-133 37v127h1235l9 -415h-120q-15 58 -28 95.5t-32.5 68.5t-40.5 47.5t-56 28t-74.5 16.5
t-100.5 7l-207 7v-490h171q54 0 77 35t46 157h114v-530h-114q-15 84 -30.5 124.5t-35.5 54t-57 13.5h-171v-518l233 9q66 2 106 6.5t78.5 17.5t59.5 32t42.5 55t35.5 82t31 118h121l-11 -465h-508l-85 -87q117 -2 192.5 -54.5t75.5 -149.5q0 -96 -90 -149t-221 -53z" />
    <glyph glyph-name="ecedilla" unicode="&#x229;" horiz-adv-x="1219" 
d="M76 509q0 251 159.5 403t412.5 152q231 0 363 -124.5t132 -338.5q0 -65 -7 -104h-650q29 -147 131 -227t261 -80q64 0 128.5 18t105.5 50v-126q-61 -66 -162 -106t-227 -48l-63 -65q117 -2 192.5 -54.5t75.5 -149.5q0 -96 -90 -149t-221 -53q-145 0 -232 46v122
q58 -31 137 -31q49 0 78 17t29 50q0 34 -30 51.5t-84 17.5q-25 0 -41 -4v97l96 107q-218 26 -356 166t-138 363zM648 901q-77 0 -122.5 -68t-49.5 -193h322v22q0 113 -38.5 176t-111.5 63z" />
    <glyph glyph-name="Odieresismacron" unicode="&#x22a;" horiz-adv-x="1766" 
d="M516 1867v144h734v-144h-734zM700 1548h-19q-54 0 -91 30.5t-37 77.5t37 78t91 31h19q54 0 91 -31t37 -78t-37 -77.5t-91 -30.5zM1085 1548h-19q-54 0 -91 30.5t-37 77.5t37 78t91 31h19q54 0 90.5 -31t36.5 -78t-36.5 -77.5t-90.5 -30.5zM89 719q0 214 97.5 386
t279.5 272t418 100q227 0 407.5 -92.5t283.5 -265t103 -394.5q0 -160 -57.5 -299.5t-160 -241t-252 -159.5t-326.5 -58q-170 0 -316.5 54.5t-251.5 151.5t-165 238t-60 308zM556 737q0 -171 39 -305.5t115 -214t178 -79.5q110 0 183.5 75t106 199.5t32.5 294.5
q0 171 -39 305.5t-115 214t-178 79.5q-110 0 -183.5 -75t-106 -199.5t-32.5 -294.5z" />
    <glyph glyph-name="odieresismacron" unicode="&#x22b;" horiz-adv-x="1360" 
d="M321 1541v170h716v-170h-716zM486 1159h-19q-57 0 -96 36t-39 92q0 55 39 91t96 36h19q56 0 95 -36t39 -91q0 -56 -39 -92t-95 -36zM891 1159h-19q-57 0 -96 36t-39 92q0 55 39 91t96 36h19q57 0 96 -36t39 -91t-39.5 -91.5t-95.5 -36.5zM673 -25q-268 0 -432.5 148
t-164.5 390q0 244 170.5 398t440.5 154q269 0 433 -148t164 -390q0 -244 -171 -398t-440 -154zM687 139q90 0 138.5 97t48.5 274q0 180 -55 285.5t-146 105.5q-90 0 -138 -97t-48 -274q0 -180 54.5 -285.5t145.5 -105.5z" />
    <glyph glyph-name="Otildemacron" unicode="&#x22c;" horiz-adv-x="1766" 
d="M516 1866v144h734v-144h-734zM1031 1550q-68 0 -160 29l-41 12q-59 19 -94 19q-70 0 -70 -64h-149q0 102 59 160t160 58q69 0 161 -29l41 -12q62 -19 93 -19q71 0 71 64h148q0 -102 -58.5 -160t-160.5 -58zM89 719q0 214 97.5 386t279.5 272t418 100q227 0 407.5 -92.5
t283.5 -265t103 -394.5q0 -160 -57.5 -299.5t-160 -241t-252 -159.5t-326.5 -58q-170 0 -316.5 54.5t-251.5 151.5t-165 238t-60 308zM556 737q0 -171 39 -305.5t115 -214t178 -79.5q110 0 183.5 75t106 199.5t32.5 294.5q0 171 -39 305.5t-115 214t-178 79.5
q-110 0 -183.5 -75t-106 -199.5t-32.5 -294.5z" />
    <glyph glyph-name="otildemacron" unicode="&#x22d;" horiz-adv-x="1360" 
d="M321 1541v170h716v-170h-716zM823 1167q-67 0 -157 33l-40 15q-58 21 -91 21q-69 0 -69 -74h-145q0 120 57.5 188t156.5 68q68 0 156 -34l40 -14q61 -22 92 -22q68 0 68 75h146q0 -120 -57.5 -188t-156.5 -68zM673 -25q-268 0 -432.5 148t-164.5 390q0 244 170.5 398
t440.5 154q269 0 433 -148t164 -390q0 -244 -171 -398t-440 -154zM687 139q90 0 138.5 97t48.5 274q0 180 -55 285.5t-146 105.5q-90 0 -138 -97t-48 -274q0 -180 54.5 -285.5t145.5 -105.5z" />
    <glyph glyph-name="Odotaccent" unicode="&#x22e;" horiz-adv-x="1766" 
d="M883 1555q-71 0 -120 45.5t-49 114.5q0 70 49 115.5t120 45.5q72 0 121 -45.5t49 -115.5q0 -69 -49 -114.5t-121 -45.5zM89 719q0 214 97.5 386t279.5 272t418 100q227 0 407.5 -92.5t283.5 -265t103 -394.5q0 -160 -57.5 -299.5t-160 -241t-252 -159.5t-326.5 -58
q-170 0 -316.5 54.5t-251.5 151.5t-165 238t-60 308zM556 737q0 -171 39 -305.5t115 -214t178 -79.5q110 0 183.5 75t106 199.5t32.5 294.5q0 171 -39 305.5t-115 214t-178 79.5q-110 0 -183.5 -75t-106 -199.5t-32.5 -294.5z" />
    <glyph glyph-name="odotaccent" unicode="&#x22f;" horiz-adv-x="1360" 
d="M679 1194q-84 0 -142 53.5t-58 135.5q0 81 58 134.5t142 53.5t141.5 -53.5t57.5 -134.5q0 -82 -57.5 -135.5t-141.5 -53.5zM673 -25q-268 0 -432.5 148t-164.5 390q0 244 170.5 398t440.5 154q269 0 433 -148t164 -390q0 -244 -171 -398t-440 -154zM687 139
q90 0 138.5 97t48.5 274q0 180 -55 285.5t-146 105.5q-90 0 -138 -97t-48 -274q0 -180 54.5 -285.5t145.5 -105.5z" />
    <glyph glyph-name="Odotaccentmacron" unicode="&#x230;" horiz-adv-x="1766" 
d="M516 1838v145h734v-145h-734zM883 1534q-59 0 -99.5 35t-40.5 87t40.5 86.5t99.5 34.5t100 -34t41 -87q0 -52 -41 -87t-100 -35zM89 719q0 214 97.5 386t279.5 272t418 100q227 0 407.5 -92.5t283.5 -265t103 -394.5q0 -160 -57.5 -299.5t-160 -241t-252 -159.5
t-326.5 -58q-170 0 -316.5 54.5t-251.5 151.5t-165 238t-60 308zM556 737q0 -171 39 -305.5t115 -214t178 -79.5q110 0 183.5 75t106 199.5t32.5 294.5q0 171 -39 305.5t-115 214t-178 79.5q-110 0 -183.5 -75t-106 -199.5t-32.5 -294.5z" />
    <glyph glyph-name="odotaccentmacron" unicode="&#x231;" horiz-adv-x="1360" 
d="M321 1527v170h716v-170h-716zM679 1151q-63 0 -105.5 40.5t-42.5 102.5t43 102.5t105 40.5t105 -40.5t43 -102.5t-43 -102.5t-105 -40.5zM673 -25q-268 0 -432.5 148t-164.5 390q0 244 170.5 398t440.5 154q269 0 433 -148t164 -390q0 -244 -171 -398t-440 -154zM687 139
q90 0 138.5 97t48.5 274q0 180 -55 285.5t-146 105.5q-90 0 -138 -97t-48 -274q0 -180 54.5 -285.5t145.5 -105.5z" />
    <glyph glyph-name="Ymacron" unicode="&#x232;" horiz-adv-x="1507" 
d="M516 1595v187h672v-187h-672zM222 1135q-63 106 -102.5 138t-124.5 44v127h770v-127q-46 -5 -72.5 -12.5t-42 -19t-15 -32t10.5 -46.5t32 -67l212 -382l209 382q18 34 28 57t13 42.5t-3 31.5t-22 21.5t-40.5 15t-62.5 9.5v127h500v-127q-87 -12 -124 -40.5t-94 -124.5
l-324 -552v-331q0 -52 12 -77t47.5 -40t111.5 -25v-127h-766v127q76 10 111.5 25t47.5 40t12 77v315z" />
    <glyph glyph-name="ymacron" unicode="&#x233;" horiz-adv-x="1227" 
d="M293 1263v207h746v-207h-746zM181 741q-41 100 -69 129t-100 43v127h666v-127q-93 -8 -110 -36.5t16 -119.5l141 -396l146 396q34 91 17.5 120t-107.5 36v127h434v-127q-74 -13 -103.5 -40.5t-70.5 -128.5l-188 -466l-112 -278l-167 -460h-363v9q203 279 291 403z" />
    <glyph glyph-name="dotlessj" unicode="&#x237;" horiz-adv-x="736" 
d="M580 1057v-821q0 -230 -95.5 -374t-336.5 -289l-94 -55l-66 102q119 104 157 217.5t38 337.5v584q0 46 -12 63.5t-53 29.5l-69 19v120z" />
    <glyph glyph-name="schwa" unicode="&#x259;" horiz-adv-x="1219" 
d="M1143 531q0 -252 -159 -404t-413 -152q-230 0 -362.5 125t-132.5 339q0 66 7 103h650q-29 147 -131 227.5t-261 80.5q-64 0 -128 -18.5t-105 -50.5v127q68 74 187.5 115t266.5 41q163 0 293.5 -62t209 -184.5t78.5 -286.5zM421 378q0 -114 38.5 -176.5t111.5 -62.5
q77 0 122.5 67.5t50.5 193.5h-323v-22z" />
    <glyph glyph-name="g.1" unicode="&#x261;" horiz-adv-x="1378" 
d="M76 523q0 125 38 228.5t103.5 172t153.5 105.5t189 37q110 0 199.5 -44.5t137.5 -114.5l109 133h217v-943q0 -146 -47.5 -259t-135.5 -185t-209 -109t-271 -37q-194 0 -304.5 78.5t-110.5 199.5q0 72 49.5 118.5t121.5 46.5q73 0 123 -46.5t50 -118.5q0 -60 -36 -102
q33 -6 73 -6q290 0 300 347l6 180q-38 -84 -128 -136t-208 -52q-183 0 -301.5 138t-118.5 369zM481 557q0 -157 56 -244.5t146 -87.5q49 0 87.5 21.5t55.5 56.5v519q-15 30 -53 48t-88 18q-92 0 -148 -86.5t-56 -244.5z" />
    <glyph glyph-name="quoteright" unicode="&#x2019;" horiz-adv-x="625" 
d="M141 770l-37 118q69 19 112.5 62t43.5 103q0 68 -48 109t-128 44q0 113 62.5 188t168.5 75q104 0 167.5 -73.5t63.5 -192.5q0 -163 -116 -277t-289 -156z" />
    <glyph glyph-name="quoteright" unicode="&#x2bc;" horiz-adv-x="625" 
d="M141 770l-37 118q69 19 112.5 62t43.5 103q0 68 -48 109t-128 44q0 113 62.5 188t168.5 75q104 0 167.5 -73.5t63.5 -192.5q0 -163 -116 -277t-289 -156z" />
    <glyph glyph-name="circumflex" unicode="&#x2c6;" horiz-adv-x="1024" 
d="M282 1182h-160l241 412h298l241 -412h-161l-229 195z" />
    <glyph glyph-name="caron" unicode="&#x2c7;" horiz-adv-x="1024" 
d="M742 1593h160l-241 -412h-298l-241 412h161l229 -195z" />
    <glyph glyph-name="breve" unicode="&#x2d8;" horiz-adv-x="1024" 
d="M512 1186q-176 0 -277.5 95t-101.5 238q0 41 6 70h146v-4q0 -71 62.5 -117t164.5 -46q103 0 165 45.5t62 117.5v4h146q6 -28 6 -70q0 -143 -101.5 -238t-277.5 -95z" />
    <glyph glyph-name="dotaccent" unicode="&#x2d9;" horiz-adv-x="1024" 
d="M512 1194q-84 0 -141.5 53.5t-57.5 135.5q0 81 57.5 134.5t141.5 53.5t141.5 -53.5t57.5 -134.5q0 -82 -57.5 -135.5t-141.5 -53.5z" />
    <glyph glyph-name="ring" unicode="&#x2da;" horiz-adv-x="1024" 
d="M174 1388q0 104 95 169t243 65t243 -65t95 -169t-95 -169t-243 -65t-243 65t-95 169zM411 1388q0 -49 29 -80.5t72 -31.5t72 31.5t29 80.5t-29 80.5t-72 31.5t-72 -31.5t-29 -80.5z" />
    <glyph glyph-name="ogonek" unicode="&#x2db;" horiz-adv-x="1024" 
d="M274 -493q-108 0 -175.5 49t-67.5 137q0 84 78 168.5t269 181.5l150 1q-115 -86 -160.5 -144.5t-45.5 -116.5q0 -51 32 -78.5t81 -27.5q57 0 92 20v-122q-36 -30 -108 -49t-145 -19z" />
    <glyph glyph-name="tilde" unicode="&#x2dc;" horiz-adv-x="1024" 
d="M661 1203q-88 0 -187 68l-33 24q-58 40 -90 40q-35 0 -50 -32t-16 -106h-146q0 191 60.5 280.5t163.5 89.5q90 0 187 -68l33 -23q55 -40 91 -40q34 0 49 32t16 106h146q0 -191 -60.5 -281t-163.5 -90z" />
    <glyph glyph-name="hungarumlaut" unicode="&#x2dd;" horiz-adv-x="1024" 
d="M274 1594h311v-15l-188 -397h-165zM734 1594h345v-15l-329 -397h-183z" />
    <glyph glyph-name="gravecmb" unicode="&#x300;" 
d="M34 1182l-405 397v15h423l142 -412h-160z" />
    <glyph glyph-name="acutecmb" unicode="&#x301;" 
d="M-31 1182h-160l155 412h406v-15z" />
    <glyph glyph-name="circumflexcmb" unicode="&#x302;" 
d="M-230 1182h-160l241 412h298l241 -412h-161l-229 195z" />
    <glyph glyph-name="tildecmb" unicode="&#x303;" 
d="M149 1203q-88 0 -187 68l-33 24q-58 40 -90 40q-35 0 -50 -32t-16 -106h-146q0 191 60.5 280.5t163.5 89.5q90 0 187 -68l33 -23q55 -40 91 -40q34 0 49 32t16 106h146q0 -191 -60.5 -281t-163.5 -90z" />
    <glyph glyph-name="macroncmb" unicode="&#x304;" 
d="M-373 1263v207h746v-207h-746z" />
    <glyph glyph-name="brevecmb" unicode="&#x306;" 
d="M0 1186q-176 0 -277.5 95t-101.5 238q0 41 6 70h146v-4q0 -71 62.5 -117t164.5 -46q103 0 165 45.5t62 117.5v4h146q6 -29 6 -70q0 -143 -101.5 -238t-277.5 -95z" />
    <glyph glyph-name="dotaccentcmb" unicode="&#x307;" 
d="M0 1194q-84 0 -141.5 53.5t-57.5 135.5q0 81 57.5 134.5t141.5 53.5t141.5 -53.5t57.5 -134.5q0 -82 -57.5 -135.5t-141.5 -53.5z" />
    <glyph glyph-name="dieresiscmb" unicode="&#x308;" 
d="M-263 1205q-79 0 -133 50.5t-54 127.5t54.5 127t132.5 50q79 0 133 -50t54 -127t-54 -127.5t-133 -50.5zM263 1205q-79 0 -133 50.5t-54 127.5t54.5 127t132.5 50q79 0 133 -50t54 -127t-54 -127.5t-133 -50.5z" />
    <glyph glyph-name="hookabovecmb" unicode="&#x309;" 
d="M54 1602q112 0 182.5 -51t70.5 -134q0 -71 -65 -127.5t-217 -112.5h-152q85 54 118.5 92.5t33.5 75.5q0 38 -32.5 58.5t-91.5 20.5q-88 0 -147 -35v107q48 45 125.5 75.5t174.5 30.5z" />
    <glyph glyph-name="ringcmb" unicode="&#x30a;" 
d="M-338 1388q0 104 95 169t243 65t243 -65t95 -169t-95 -169t-243 -65t-243 65t-95 169zM-101 1388q0 -49 29 -80.5t72 -31.5t72 31.5t29 80.5t-29 80.5t-72 31.5t-72 -31.5t-29 -80.5z" />
    <glyph glyph-name="hungarumlautcmb" unicode="&#x30b;" 
d="M-238 1594h311v-15l-188 -397h-165zM222 1594h345v-15l-329 -397h-183z" />
    <glyph glyph-name="caroncmb" unicode="&#x30c;" 
d="M230 1593h160l-241 -412h-298l-241 412h161l229 -195z" />
    <glyph glyph-name="dblgravecmb" unicode="&#x30f;" 
d="M-220 1594l165 -412h-179l-330 397v15h344zM242 1594l41 -412h-168l-185 397v15h312z" />
    <glyph glyph-name="invertedbrevecmb" unicode="&#x311;" 
d="M0 1590q176 0 277.5 -95.5t101.5 -237.5q0 -41 -6 -71h-146v4q0 72 -62.5 118t-164.5 46q-103 0 -165 -46t-62 -118v-4h-146q-6 28 -6 71q0 142 101.5 237.5t277.5 95.5z" />
    <glyph glyph-name="horncmb" unicode="&#x31b;" 
d="M174 1374h142q68 -24 114 -77.5t46 -117.5q0 -116 -129.5 -177t-392.5 -60v98q145 0 204 47.5t59 131.5q0 88 -43 155z" />
    <glyph glyph-name="dotbelowcmb" unicode="&#x323;" 
d="M0 -464q-78 0 -131.5 48.5t-53.5 121.5q0 74 53.5 122t131.5 48t131.5 -48t53.5 -122q0 -73 -53.5 -121.5t-131.5 -48.5z" />
    <glyph glyph-name="dieresisbelowcmb" unicode="&#x324;" 
d="M-245 -453q-73 0 -123.5 45t-50.5 114q0 70 50.5 115t123.5 45q74 0 124 -45t50 -115q0 -69 -50 -114t-124 -45zM245 -453q-74 0 -124 45t-50 114q0 70 50.5 115t123.5 45t123.5 -45t50.5 -115q0 -69 -50.5 -114t-123.5 -45z" />
    <glyph glyph-name="ringbelowcmb" unicode="&#x325;" 
d="M-338 -294q0 93 95.5 150t242.5 57t242.5 -57t95.5 -150t-95.5 -150t-242.5 -57t-242.5 57t-95.5 150zM-101 -294q0 -39 29 -64t72 -25t72 25t29 64t-29 64t-72 25t-72 -25t-29 -64z" />
    <glyph glyph-name="commaaccentcmb" unicode="&#x326;" 
d="M-38 -493q-137 0 -220 47v111q59 -32 144 -32q53 0 82.5 16.5t29.5 45.5q0 28 -28 43.5t-73 16.5q-52 2 -88 -13v107q25 24 80.5 40t123.5 16q112 0 182 -53t70 -145q0 -93 -83 -146.5t-220 -53.5z" />
    <glyph glyph-name="cedillacmb" unicode="&#x327;" 
d="M-42 -493q-145 0 -232 46v122q57 -31 137 -31q49 0 78 17t29 50q0 69 -115 69q-23 0 -41 -4v97l174 193h98v-66l-85 -87q117 -2 192.5 -54.5t75.5 -149.5q0 -96 -90 -149t-221 -53z" />
    <glyph glyph-name="ogonekcmb" unicode="&#x328;" 
d="M-238 -493q-108 0 -175.5 49t-67.5 137q0 84 78 168.5t269 181.5l150 1q-115 -86 -160.5 -144.5t-45.5 -116.5q0 -51 32 -78.5t81 -27.5q57 0 92 20v-122q-36 -30 -108 -49t-145 -19z" />
    <glyph glyph-name="circumflexbelowcmb" unicode="&#x32d;" 
d="M-214 -479h-148l223 371h278l223 -371h-149l-213 175z" />
    <glyph glyph-name="brevebelowcmb" unicode="&#x32e;" 
d="M0 -475q-163 0 -257.5 85.5t-94.5 214.5q0 41 5 63h136v-4q0 -64 58.5 -105.5t152.5 -41.5q96 0 153.5 41t57.5 106v4h136q5 -21 5 -63q0 -129 -94.5 -214.5t-257.5 -85.5z" />
    <glyph glyph-name="tildebelowcmb" unicode="&#x330;" 
d="M139 -458q-84 0 -174 61l-31 21q-50 36 -84 36q-32 0 -46 -28.5t-15 -95.5h-136q0 172 56.5 253t151.5 81q84 0 174 -61l31 -22q52 -36 84 -36t46 28.5t15 95.5h136q0 -172 -56.5 -252.5t-151.5 -80.5z" />
    <glyph glyph-name="macronbelowcmb" unicode="&#x332;" 
d="M-347 -387v187h694v-187h-694z" />
    <glyph glyph-name="macronbelowcmb" unicode="&#x331;" 
d="M-347 -387v187h694v-187h-694z" />
    <glyph glyph-name="numeralsigngreek" unicode="&#x374;" horiz-adv-x="312" 
d="M121 1017h-131l49 427h283z" />
    <glyph glyph-name="lownumeralsigngreek" unicode="&#x375;" horiz-adv-x="312" 
d="M191 25h131l-48 -427h-283z" />
    <glyph glyph-name="tonosgreek" unicode="&#x384;" horiz-adv-x="1024" 
d="M581 1182h-172l62 412h338v-15z" />
    <glyph glyph-name="dieresistonosgreek" unicode="&#x385;" horiz-adv-x="1024" 
d="M568 1182h-162l31 412h321v-15zM177 1204q-71 0 -120 45t-49 115q0 69 49 114.5t120 45.5t120 -45t49 -115t-49 -115t-120 -45zM917 1204q-71 0 -120 45t-49 115q0 69 49 114.5t120 45.5t120 -45t49 -115t-49 -115t-120 -45z" />
    <glyph glyph-name="Alphatonosgreek" unicode="&#x386;" horiz-adv-x="1582" 
d="M1378 329q31 -84 54.5 -121.5t56.5 -54.5t98 -26v-127h-770v127q60 9 91 19.5t45.5 34t9.5 57.5t-26 94l-38 112h-469l-39 -112q-14 -40 -20.5 -67t-5.5 -49.5t9 -35.5t27 -24t44.5 -17t66.5 -12v-127h-517v127q93 13 127.5 47.5t80.5 157.5l408 1112h361zM230 1032h-172
l61 412h339v-15zM483 598h364l-181 531z" />
    <glyph glyph-name="anoteleiagreek" unicode="&#x387;" horiz-adv-x="625" 
d="M312 633q-90 0 -153 63.5t-63 153.5t63 153.5t153 63.5t153.5 -64t63.5 -153t-63.5 -153t-153.5 -64z" />
    <glyph glyph-name="Epsilontonosgreek" unicode="&#x388;" horiz-adv-x="1833" 
d="M1714 1444l10 -415h-121q-15 58 -28 95.5t-32.5 68.5t-40.5 47.5t-56 28t-74.5 16.5t-100.5 7l-207 7v-490h171q54 0 77.5 35t46.5 157h113v-530h-113q-22 122 -45.5 157t-78.5 35h-171v-518l233 9q66 2 106 6.5t78.5 17.5t59.5 32t42.5 55t35.5 82t31 118h121l-10 -465
h-1281v127q105 14 132.5 37t27.5 90v936q0 67 -27.5 90t-132.5 37v127h1234zM172 1032h-172l62 412h338v-15z" />
    <glyph glyph-name="Etatonosgreek" unicode="&#x389;" horiz-adv-x="2220" 
d="M1064 247q0 -63 26 -85t121 -35v-127h-731v127q104 15 132 37.5t28 89.5v936q0 67 -27.5 90t-132.5 37v127h731v-127q-95 -14 -121 -36t-26 -85v-383h514v384q0 64 -25.5 85.5t-121.5 34.5v127h731v-127q-105 -13 -132.5 -35.5t-27.5 -91.5v-936q0 -69 27.5 -91.5
t132.5 -35.5v-127h-731v127q96 13 121.5 34.5t25.5 85.5v411h-514v-411zM172 1032h-172l62 412h338v-15z" />
    <glyph glyph-name="Iotatonosgreek" unicode="&#x38a;" horiz-adv-x="1282" 
d="M1064 254q0 -67 28 -90t133 -37v-127h-745v127q105 14 132.5 37t27.5 90v936q0 67 -27.5 90t-132.5 37v127h745v-127q-105 -14 -133 -37t-28 -90v-936zM172 1032h-172l62 412h338v-15z" />
    <glyph glyph-name="Omicrontonosgreek" unicode="&#x38c;" horiz-adv-x="1959" 
d="M281 719q0 160 57.5 299.5t160 241t252 159.5t326.5 58q227 0 407.5 -92.5t283.5 -265t103 -394.5q0 -160 -57.5 -299.5t-160 -241t-252 -159.5t-326.5 -58q-227 0 -407.5 92.5t-283.5 265t-103 394.5zM172 1032h-172l62 412h338v-15zM748 737q0 -170 39 -305
t115.5 -214.5t178.5 -79.5q110 0 183.5 75t106 199.5t32.5 294.5q0 171 -39 305.5t-115 214t-178 79.5q-110 0 -183.5 -74.5t-106.5 -199.5t-33 -295z" />
    <glyph glyph-name="Upsilontonosgreek" unicode="&#x38e;" horiz-adv-x="1965" 
d="M680 1135q-63 106 -102.5 138t-124.5 44v127h770v-127q-46 -5 -72.5 -12.5t-42 -19t-15 -32t10.5 -46.5t32 -67l213 -382l208 382q18 34 28 57t13 42.5t-3 31.5t-22 21.5t-40.5 15t-62.5 9.5v127h500v-127q-87 -12 -123.5 -40.5t-94.5 -124.5l-324 -552v-331
q0 -52 12 -77t47.5 -40t111.5 -25v-127h-766v127q76 10 111.5 25t47.5 40t12 77v315zM172 1032h-172l62 412h338v-15z" />
    <glyph glyph-name="Omegatonosgreek" unicode="&#x38f;" horiz-adv-x="1902" 
d="M348 0l-50 417h101q46 -103 162.5 -147t292.5 -50v92q-107 10 -203.5 54t-170 113t-117 167.5t-43.5 210.5q0 131 51 243t146 195.5t241.5 131t327.5 47.5q180 0 326 -47t241.5 -129t146.5 -191t51 -234q0 -117 -43.5 -217.5t-117.5 -170t-169.5 -114t-202.5 -59.5v-92
q373 12 453 197h102l-50 -417h-652v403q259 102 259 454q0 214 -95 333t-255 119q-154 0 -246 -111t-92 -325q0 -190 64 -304t196 -163v-406h-654zM172 1032h-172l62 412h338v-15z" />
    <glyph glyph-name="iotadieresistonosgreek" unicode="&#x390;" horiz-adv-x="820" 
d="M386 1182h-163l31 412h322v-15zM-5 1204q-72 0 -121 45t-49 115t49 115t121 45q71 0 120 -45t49 -115t-49 -115t-120 -45zM735 1204q-72 0 -121 45t-49 115t49 115t121 45q71 0 120 -45.5t49 -114.5t-49 -114.5t-120 -45.5zM123 1040h407l-25 -637q-4 -103 43 -151.5
t133 -48.5q83 0 139 32v-121q-48 -62 -140.5 -100.5t-200.5 -38.5q-333 0 -342 361z" />
    <glyph glyph-name="Alphagreek" unicode="&#x391;" horiz-adv-x="1582" 
d="M1378 329q31 -84 54.5 -121.5t56.5 -54.5t98 -26v-127h-770v127q60 9 91 19.5t45.5 34t9.5 57.5t-26 94l-38 112h-469l-39 -112q-14 -40 -20.5 -67t-5.5 -49.5t9 -35.5t27 -24t44.5 -17t66.5 -12v-127h-517v127q93 13 127.5 47.5t80.5 157.5l408 1112h361zM483 598h364
l-181 531z" />
    <glyph glyph-name="Betagreek" unicode="&#x392;" horiz-adv-x="1578" 
d="M1502 432q0 -134 -89 -233.5t-237.5 -149t-334.5 -49.5h-784v127q105 14 133 37t28 90v936q0 67 -28 90t-133 37v127h784q287 0 441.5 -92.5t154.5 -259.5q0 -126 -101.5 -204t-255.5 -92q195 -17 308.5 -111.5t113.5 -252.5zM1010 1052q0 114 -71.5 176.5t-211.5 67.5
l-85 3v-475h110q124 0 191 58.5t67 169.5zM1056 415q0 125 -79 194t-225 69h-110v-533l85 3q155 5 242 71.5t87 195.5z" />
    <glyph glyph-name="Gammagreek" unicode="&#x393;" horiz-adv-x="1311" 
d="M1255 1444l9 -408h-121q-17 67 -34.5 109t-40 71.5t-58.5 44.5t-78.5 22t-111.5 9l-178 6v-1029q0 -75 30.5 -101.5t140.5 -40.5v-127h-756v127q105 14 133 37t28 90v936q0 67 -28 90t-133 37v127h1198z" />
    <glyph glyph-name="Deltagreek" unicode="&#x394;" horiz-adv-x="1454" 
d="M34 0v213l513 1231h361l512 -1232v-212h-1386zM256 281h697l-348 887z" />
    <glyph glyph-name="Epsilongreek" unicode="&#x395;" horiz-adv-x="1410" 
d="M1292 1444l9 -415h-120q-15 58 -28 95.5t-32.5 68.5t-40.5 47.5t-56 28t-74.5 16.5t-100.5 7l-207 7v-490h171q54 0 77 35t46 157h114v-530h-114q-15 84 -30.5 124.5t-35.5 54t-57 13.5h-171v-518l233 9q66 2 106 6.5t78.5 17.5t59.5 32t42.5 55t35.5 82t31 118h121
l-11 -465h-1281v127q105 14 133 37t28 90v936q0 67 -28 90t-133 37v127h1235z" />
    <glyph glyph-name="Zetagreek" unicode="&#x396;" horiz-adv-x="1378" 
d="M1289 0h-1210v121l732 1178l-276 -10q-89 -3 -139 -12.5t-88 -40t-58 -76.5t-41 -131h-120l9 415h1194v-121l-733 -1178l251 10q69 2 109.5 6.5t81.5 17t64 31.5t45.5 54t37.5 82.5t31 118.5h120z" />
    <glyph glyph-name="Etagreek" unicode="&#x397;" horiz-adv-x="1797" 
d="M642 247q0 -63 25.5 -85t121.5 -35v-127h-732v127q105 15 133 37.5t28 89.5v936q0 67 -28 90t-133 37v127h732v-127q-95 -14 -121 -36t-26 -85v-383h514v384q0 64 -25.5 85.5t-121.5 34.5v127h731v-127q-105 -13 -133 -35.5t-28 -91.5v-936q0 -69 28 -91.5t133 -35.5
v-127h-731v127q96 13 121.5 34.5t25.5 85.5v411h-514v-411z" />
    <glyph glyph-name="Thetagreek" unicode="&#x398;" horiz-adv-x="1780" 
d="M886 -33q-171 0 -318.5 54.5t-254 151.5t-167 238t-60.5 308q0 160 58 299.5t162 241t256 159.5t332 58q171 0 318.5 -54.5t254 -151.5t167 -238t60.5 -308q0 -160 -58 -299.5t-162 -241t-256 -159.5t-332 -58zM898 117q123 0 206 74t121 203.5t38 312.5
q0 278 -101.5 449t-278.5 171q-124 0 -206.5 -74.5t-120.5 -204.5t-38 -311q0 -277 101.5 -448.5t278.5 -171.5zM633 455v508h97q17 -102 42.5 -132.5t83.5 -30.5h66q58 0 83.5 31t42.5 132h97v-508h-97q-17 102 -42.5 132.5t-83.5 30.5h-66q-59 0 -84 -30.5t-42 -132.5h-97
z" />
    <glyph glyph-name="Iotagreek" unicode="&#x399;" horiz-adv-x="860" 
d="M642 254q0 -67 28 -90t132 -37v-127h-745v127q105 14 133 37t28 90v936q0 67 -28 90t-133 37v127h745v-127q-104 -14 -132 -37t-28 -90v-936z" />
    <glyph glyph-name="Kappagreek" unicode="&#x39a;" horiz-adv-x="1590" 
d="M642 247q0 -63 25.5 -84.5t121.5 -35.5v-127h-732v127q104 14 132.5 37t28.5 90v936q0 67 -28.5 90t-132.5 37v127h732v-127q-96 -14 -121.5 -36t-25.5 -85v-388h108l283 345q66 83 50 118t-119 46v127h584v-127q-109 -17 -176 -59t-199 -179l-119 -125l307 -540
q97 -169 138.5 -221t95.5 -72v-121h-478l-362 656h-113v-409z" />
    <glyph glyph-name="Lambdagreek" unicode="&#x39b;" horiz-adv-x="1598" 
d="M1389 304q20 -55 37.5 -87t42.5 -50.5t49.5 -26t70.5 -13.5v-127h-771v127q57 8 88 18.5t46.5 32t12.5 53.5t-20 85l-271 813l-272 -807q-36 -104 -13 -142t137 -53v-127h-517v127q89 11 125.5 45t77.5 147l406 1125h362z" />
    <glyph glyph-name="Mugreek" unicode="&#x39c;" horiz-adv-x="1998" 
d="M722 1444l289 -914l261 917l666 -3v-127q-105 -13 -133.5 -35.5t-26.5 -91.5l18 -936q1 -48 12.5 -70.5t43.5 -35t105 -21.5v-127h-723v127q96 13 122.5 34.5t24.5 85.5l-19 923l-246 -776l-113 -394h-247l-384 1168l5 -913q0 -69 25.5 -92t121.5 -36v-127h-482v127
q66 9 95 21.5t39.5 34.5t11.5 70l19 912q2 82 -24.5 110.5t-122.5 41.5v127h662z" />
    <glyph glyph-name="Nugreek" unicode="&#x39d;" horiz-adv-x="1626" 
d="M660 1444l609 -1077l-15 818q-1 71 -28 95t-129 37v127h488v-127q-50 -8 -77 -15.5t-43.5 -22.5t-21 -34t-4.5 -54l-8 -1191h-468l-606 1071l15 -812q1 -50 11.5 -73t43 -36.5t103.5 -22.5v-127h-489v127q96 15 121.5 37.5t25.5 88.5l4 912q0 81 -26 108.5t-122 43.5v127
h616z" />
    <glyph glyph-name="Xigreek" unicode="&#x39e;" horiz-adv-x="1416" 
d="M1330 1444l21 -505h-121q-12 53 -24.5 88t-32 61t-39.5 40t-56.5 22.5t-74 10.5t-99.5 2h-392q-62 0 -99.5 -2t-74 -10.5t-56.5 -22.5t-40 -40t-32 -61t-25 -88h-120l20 505h1245zM634 643q-78 0 -113 -36.5t-55 -140.5h-114v511h114q20 -104 54.5 -140t113.5 -36h147
q79 0 114 36t55 140h113v-511h-113q-20 105 -55 141t-114 36h-147zM1341 0h-1266l-22 542h121q12 -53 24 -90t26 -66t34.5 -47t42.5 -30.5t57.5 -18t71.5 -7.5t92 -2h372q66 0 105.5 2.5t78 12.5t60 26t42.5 46.5t34.5 71t27.5 102.5h121z" />
    <glyph glyph-name="Omicrongreek" unicode="&#x39f;" horiz-adv-x="1766" 
d="M89 719q0 214 97.5 386t279.5 272t418 100q227 0 407.5 -92.5t283.5 -265t103 -394.5q0 -160 -57.5 -299.5t-160 -241t-252 -159.5t-326.5 -58q-170 0 -316.5 54.5t-251.5 151.5t-165 238t-60 308zM556 737q0 -171 39 -305.5t115 -214t178 -79.5q110 0 183.5 75
t106 199.5t32.5 294.5q0 171 -39 305.5t-115 214t-178 79.5q-110 0 -183.5 -75t-106 -199.5t-32.5 -294.5z" />
    <glyph glyph-name="Pigreek" unicode="&#x3a0;" horiz-adv-x="1757" 
d="M1539 254q0 -67 28 -90t133 -37v-127h-731v127q95 14 121 35.5t26 84.5v1043h-474v-1043q0 -63 25.5 -84.5t121.5 -35.5v-127h-732v127q105 14 133 37t28 90v936q0 67 -28 90t-133 37v127h1643v-127q-105 -14 -133 -37t-28 -90v-936z" />
    <glyph glyph-name="Rhogreek" unicode="&#x3a1;" horiz-adv-x="1554" 
d="M1477 1000q0 -220 -177 -345.5t-477 -125.5h-181v-260q0 -75 30.5 -101.5t140.5 -40.5v-127h-756v127q105 14 133 37t28 90v936q0 67 -28 90t-133 37v127h766q315 0 484.5 -113.5t169.5 -330.5zM1032 981q0 145 -79.5 226.5t-243.5 88.5l-67 3v-625l67 3
q158 6 240.5 84.5t82.5 219.5z" />
    <glyph glyph-name="Sigmagreek" unicode="&#x3a3;" horiz-adv-x="1333" 
d="M1219 1444l9 -408h-122q-15 56 -26.5 90t-30 65t-39 47t-54 28.5t-75 17.5t-103.5 7l-264 8l344 -482v-36l-532 -500h451q63 0 104.5 3.5t78.5 14.5t60 29t43.5 50t34.5 73.5t28 103.5h142l-11 -555h-1214v212l467 484l-467 627v121h1176z" />
    <glyph glyph-name="Taugreek" unicode="&#x3a4;" horiz-adv-x="1467" 
d="M1413 1444l9 -415h-120q-12 60 -24 99t-30 70.5t-38 48t-54 28.5t-72 16t-97 6l-42 2v-1030q0 -52 12 -77t47.5 -40t111.5 -25v-127h-765v127q76 10 111.5 25t47.5 40t12 77v1030l-42 -2q-59 -2 -97 -6t-72 -16t-54 -28.5t-38 -48t-30 -70.5t-24 -99h-120l9 415h1359z
" />
    <glyph glyph-name="Upsilongreek" unicode="&#x3a5;" horiz-adv-x="1507" 
d="M222 1135q-63 106 -102.5 138t-124.5 44v127h770v-127q-46 -5 -72.5 -12.5t-42 -19t-15 -32t10.5 -46.5t32 -67l212 -382l209 382q18 34 28 57t13 42.5t-3 31.5t-22 21.5t-40.5 15t-62.5 9.5v127h500v-127q-87 -12 -124 -40.5t-94 -124.5l-324 -552v-331q0 -52 12 -77
t47.5 -40t111.5 -25v-127h-766v127q76 10 111.5 25t47.5 40t12 77v315z" />
    <glyph glyph-name="Phigreek" unicode="&#x3a6;" horiz-adv-x="2010" 
d="M66 716q0 118 54 210.5t153 152.5t233.5 93t300.5 38q-5 52 -38.5 73t-130.5 34v127h735v-127q-97 -13 -131 -34t-39 -73q226 -7 389.5 -61t257.5 -164t94 -267q0 -232 -193.5 -356.5t-546.5 -134.5q7 -47 41 -67.5t128 -32.5v-127h-735v127q93 12 127.5 32.5t40.5 67.5
q-358 10 -549 132.5t-191 356.5zM1518 722q0 155 -81.5 241t-234.5 100v-688q146 15 231 102t85 245zM492 724q0 -160 84.5 -247t231.5 -102v688q-149 -15 -232.5 -101.5t-83.5 -237.5z" />
    <glyph glyph-name="Chigreek" unicode="&#x3a7;" horiz-adv-x="1534" 
d="M295 335l254 353l-301 453q-60 90 -105 122.5t-132 53.5v127h797v-127q-45 -7 -70.5 -15t-40 -20.5t-11.5 -33.5t16 -48t41 -69l157 -235l152 235q28 43 40.5 70t16 48t-11 33t-39.5 20t-70 15v127h536v-127q-103 -14 -155.5 -49.5t-134.5 -154.5l-244 -352l305 -458
q60 -90 105 -122.5t131 -53.5v-127h-796v127q75 11 101 29t17.5 52.5t-54.5 104.5l-161 241l-159 -241q-28 -43 -41 -69.5t-16.5 -47.5t11 -33.5t40 -20.5t70.5 -15v-127h-540v127q103 14 154.5 50t137.5 158z" />
    <glyph glyph-name="Psigreek" unicode="&#x3a8;" horiz-adv-x="1957" 
d="M1175 269q0 -52 12 -77t47.5 -40t111.5 -25v-127h-735v127q76 10 111.5 25t47.5 40t12 77v191q-271 17 -404 133t-175 374l-29 184q-13 87 -43 118t-105 36v127q89 12 173 12q148 0 221 -64t99 -224l31 -187q27 -171 76 -249t156 -100v576q0 65 -26 86.5t-121 34.5v127
h687v-127q-95 -13 -121 -34.5t-26 -86.5v-576q107 21 155.5 99.5t76.5 249.5l30 187q26 161 99 224.5t222 63.5q83 0 172 -12v-127q-74 -5 -104 -36t-44 -118l-29 -184q-41 -258 -174 -374t-404 -133v-191z" />
    <glyph glyph-name="Omegagreek" unicode="&#x2126;" horiz-adv-x="1634" 
d="M79 0l-50 417h102q46 -103 162.5 -147t292.5 -50v92q-107 10 -203.5 54t-170 113t-117 167.5t-43.5 210.5q0 131 51 243t146 195.5t241.5 131t327.5 47.5q180 0 326 -47t241.5 -129t146.5 -191t51 -234q0 -117 -43.5 -217.5t-117.5 -170t-169.5 -114t-202.5 -59.5v-92
q373 12 453 197h101l-49 -417h-653v403q260 102 260 454q0 214 -95 333t-255 119q-154 0 -246 -111t-92 -325q0 -190 64 -304t196 -163v-406h-655z" />
    <glyph glyph-name="Omegagreek" unicode="&#x3a9;" horiz-adv-x="1634" 
d="M79 0l-50 417h102q46 -103 162.5 -147t292.5 -50v92q-107 10 -203.5 54t-170 113t-117 167.5t-43.5 210.5q0 131 51 243t146 195.5t241.5 131t327.5 47.5q180 0 326 -47t241.5 -129t146.5 -191t51 -234q0 -117 -43.5 -217.5t-117.5 -170t-169.5 -114t-202.5 -59.5v-92
q373 12 453 197h101l-49 -417h-653v403q260 102 260 454q0 214 -95 333t-255 119q-154 0 -246 -111t-92 -325q0 -190 64 -304t196 -163v-406h-655z" />
    </font>
</defs>
</svg>
