<svg xmlns="http://www.w3.org/2000/svg" xmlns:xlink="http://www.w3.org/1999/xlink" width="1092" height="1297" viewBox="0 0 1092 1297">
    <defs>
        <linearGradient id="prefix__f" x1="33.018%" x2="67.661%" y1="0%" y2="101%">
            <stop offset="0%" stop-color="#3023AE"/>
            <stop offset="100%" stop-color="#C86DD7"/>
        </linearGradient>
        <linearGradient id="prefix__g" x1="28.446%" x2="72.416%" y1="0%" y2="101%">
            <stop offset="0%" stop-color="#3023AE"/>
            <stop offset="100%" stop-color="#C86DD7"/>
        </linearGradient>
        <linearGradient id="prefix__h" x1="16.133%" x2="85.222%" y1="0%" y2="101%">
            <stop offset="0%" stop-color="#3023AE"/>
            <stop offset="100%" stop-color="#C86DD7"/>
        </linearGradient>
        <linearGradient id="prefix__i" x1="49.998%" x2="50.002%" y1="0%" y2="101%">
            <stop offset="0%" stop-color="#3023AE"/>
            <stop offset="100%" stop-color="#C86DD7"/>
        </linearGradient>
        <linearGradient id="prefix__j" x1="49.992%" x2="50.008%" y1="0%" y2="101%">
            <stop offset="0%" stop-color="#3023AE"/>
            <stop offset="100%" stop-color="#C86DD7"/>
        </linearGradient>
        <linearGradient id="prefix__k" x1="49.992%" x2="50.008%" y1="0%" y2="101%">
            <stop offset="0%" stop-color="#3023AE"/>
            <stop offset="100%" stop-color="#C86DD7"/>
        </linearGradient>
        <path id="prefix__a" d="M0 67.1L95 67.1 95 0 0 0z"/>
        <path id="prefix__c" d="M0 0L94.975 0 94.975 85.1 0 85.1z"/>
        <filter id="prefix__e" width="125.1%" height="163.2%" x="-12.5%" y="-31.6%" filterUnits="objectBoundingBox">
            <feOffset dy="7" in="SourceAlpha" result="shadowOffsetOuter1"/>
            <feGaussianBlur in="shadowOffsetOuter1" result="shadowBlurOuter1" stdDeviation="5"/>
            <feColorMatrix in="shadowBlurOuter1" result="shadowMatrixOuter1" values="0 0 0 0 0.933241367 0 0 0 0 0.93339771 0 0 0 0 0.933220804 0 0 0 1 0"/>
            <feMerge>
                <feMergeNode in="shadowMatrixOuter1"/>
                <feMergeNode in="SourceGraphic"/>
            </feMerge>
        </filter>
    </defs>
    <g fill="none" fill-rule="evenodd">
        <g transform="translate(458 607)">
            <g stroke="#001DB5" stroke-linecap="square" stroke-width="6">
                <path d="M.5 6.5L13.5 15.5M28.5.5L23.5 11.5" transform="translate(87 19)"/>
                <path d="M75.5 7.5L83.5 22.5" transform="translate(87 19) rotate(.072 79.5 15)"/>
                <path d="M88.822 11.38L112.14 11.876" transform="translate(87 19) rotate(119.744 100.423 11.174)"/>
                <path d="M54.5 52.5L76.5 37.5M23.5 31.5L28.5 45.5M9.5 91.5L21.5 79.5M57.5 68.5L70.5 71.5M92.5 78.5L106.5 82.5M85.5 88.5L93 100M67.5 97.5L74.5 86.5" transform="translate(87 19)"/>
            </g>
            <circle cx="87" cy="120" r="16" fill="#FF689A"/>
            <circle cx="123.5" cy="82.5" r="20.5" fill="#001DB5"/>
            <circle cx="160" cy="23" r="10" fill="#001DB5"/>
            <circle cx="197.5" cy="10.5" r="8.5" fill="#FCD0CE" stroke="#030EBD" stroke-width="4"/>
            <circle cx="174.5" cy="50.5" r="14.5" fill="#FF599A"/>
            <circle cx="168.5" cy="94.5" r="14.5" fill="#FF599A"/>
            <circle cx="106.5" cy="39.5" r="14.5" fill="#FF599A"/>
            <circle cx="196.5" cy="102.5" r="10.5" fill="#001DB5"/>
            <circle cx="184.5" cy="125.5" r="10.5" fill="#001DB5"/>
            <circle cx="150.5" cy="125.5" r="10.5" fill="#FCD0CE" stroke="#030EBD" stroke-width="4"/>
            <circle cx="118.5" cy="10.5" r="10.5" fill="#001DB5"/>
            <circle cx="80.5" cy="20.5" r="10.5" fill="#001DB5"/>
            <text fill="#000" font-family="Nunito-Regular, Nunito" font-size="18" letter-spacing=".169">
                <tspan x=".56" y="175">Always working, always learning</tspan>
            </text>
        </g>
        <g>
            <path fill="#030EBD" d="M12 14c3.866 0 7-3.134 7-7s-3.134-7-7-7-7 3.134-7 7 3.134 7 7 7zm8 29v18c0 .553-.448 1-1 1H5c-.552 0-1-.447-1-1V43H1c-.552 0-1-.447-1-1V31c0-6.627 5.373-12 12-12s12 5.373 12 12v11c0 .553-.448 1-1 1h-3z" transform="translate(810)"/>
            <path fill="#FF4B88" d="M45 14c3.866 0 7-3.134 7-7s-3.134-7-7-7-7 3.134-7 7 3.134 7 7 7zm7 34v13c0 .553-.447 1-1 1H39c-.553 0-1-.447-1-1V48h-6c-.707 0-1.191-.715-.929-1.371L35 36.808V29c0-5.523 4.478-10 10-10s10 4.477 10 10v7.808l3.929 9.821C59.191 47.285 58.707 48 58 48h-6z" transform="translate(810)"/>
            <g>
                <path fill="#030EBD" d="M12 14c3.866 0 7-3.134 7-7s-3.134-7-7-7-7 3.134-7 7 3.134 7 7 7zm8 29v18c0 .553-.448 1-1 1H5c-.552 0-1-.447-1-1V43H1c-.552 0-1-.447-1-1V31c0-6.627 5.373-12 12-12s12 5.373 12 12v11c0 .553-.448 1-1 1h-3z" transform="translate(810) translate(79)"/>
                <path fill="#FF4B88" d="M45 14c3.866 0 7-3.134 7-7s-3.134-7-7-7-7 3.134-7 7 3.134 7 7 7zm7 34v13c0 .553-.447 1-1 1H39c-.553 0-1-.447-1-1V48h-6c-.707 0-1.191-.715-.929-1.371L35 36.808V29c0-5.523 4.478-10 10-10s10 4.477 10 10v7.808l3.929 9.821C59.191 47.285 58.707 48 58 48h-6z" transform="translate(810) translate(79)"/>
            </g>
            <g>
                <path fill="#030EBD" d="M12 14c3.866 0 7-3.134 7-7s-3.134-7-7-7-7 3.134-7 7 3.134 7 7 7zm8 29v18c0 .553-.448 1-1 1H5c-.552 0-1-.447-1-1V43H1c-.552 0-1-.447-1-1V31c0-6.627 5.373-12 12-12s12 5.373 12 12v11c0 .553-.448 1-1 1h-3z" transform="translate(810) translate(158)"/>
                <path fill="#FF4B88" d="M45 14c3.866 0 7-3.134 7-7s-3.134-7-7-7-7 3.134-7 7 3.134 7 7 7zm7 34v13c0 .553-.447 1-1 1H39c-.553 0-1-.447-1-1V48h-6c-.707 0-1.191-.715-.929-1.371L35 36.808V29c0-5.523 4.478-10 10-10s10 4.477 10 10v7.808l3.929 9.821C59.191 47.285 58.707 48 58 48h-6z" transform="translate(810) translate(158)"/>
            </g>
            <text fill="#000" font-family="Nunito-Regular, Nunito" font-size="18" letter-spacing=".169" transform="translate(810)">
                <tspan x="22.818" y="100">Married couples data </tspan>
            </text>
        </g>
        <g transform="translate(841 327)">
            <path fill="#FF2F88" d="M13.4 22.6c2.6 0 4.7 2.1 4.7 4.7S16 32 13.4 32s-4.7-2.1-4.7-4.7c0-2.5 2.1-4.7 4.7-4.7M36.1 4.1c2.6 0 4.7 2.1 4.7 4.7s-2.1 4.8-4.7 4.8-4.7-2.1-4.7-4.7 2.1-4.8 4.7-4.8m22.8 18.5c2.6 0 4.7 2.1 4.7 4.7S61.5 32 58.9 32s-4.7-2.1-4.7-4.7c0-2.5 2.1-4.7 4.7-4.7M81.6 4.1c2.6 0 4.7 2.1 4.7 4.7s-2.1 4.8-4.7 4.8-4.7-2.1-4.7-4.7 2.1-4.8 4.7-4.8M13.4 36c4.8 0 8.7-3.9 8.7-8.7 0-1.4-.3-2.6-.9-3.8l9.7-7.9c1.5 1.1 3.3 1.8 5.3 1.8s3.8-.7 5.3-1.8l9.7 7.9c-.6 1.1-.9 2.4-.9 3.8 0 4.8 3.9 8.7 8.7 8.7 4.8 0 8.7-3.9 8.7-8.7 0-1.4-.3-2.6-.9-3.8l9.7-7.9c1.5 1.1 3.3 1.8 5.3 1.8 4.8 0 8.7-3.9 8.7-8.7 0-4.8-3.9-8.7-8.7-8.7-4.8 0-8.7 3.9-8.7 8.7 0 1.4.3 2.6.9 3.8l-9.7 7.9c-1.5-1.1-3.3-1.8-5.3-1.8s-3.8.7-5.3 1.8l-9.8-7.8c.6-1.1.9-2.4.9-3.8C44.8 4 40.9.1 36.1.1c-4.8 0-8.7 3.9-8.7 8.7 0 1.4.3 2.6.9 3.8l-9.7 7.9c-1.5-1.1-3.3-1.8-5.3-1.8-4.8 0-8.7 3.9-8.7 8.7 0 4.8 4 8.6 8.8 8.6"/>
            <mask id="prefix__b" fill="#fff">
                <use xlink:href="#prefix__a"/>
            </mask>
            <path fill="#030EBD" d="M9.4 63.5h8v-16h-8v16zm22.7 0h8V29h-8v34.5zm22.8 0h8v-16h-8v16zm22.7 0h8V29h-8v34.5zm15.4 0h-3.4V27c0-1.1-.9-2-2-2h-12c-1.1 0-2 .9-2 2v36.5h-6.8v-18c0-1.1-.9-2-2-2h-12c-1.1 0-2 .9-2 2v18H44V27c0-1.1-.9-2-2-2H30c-1.1 0-2 .9-2 2v36.5h-6.8v-18c0-1.1-.9-2-2-2h-12c-1.1 0-2 .9-2 2v18H2c-1.1 0-2 .9-2 2s.9 2 2 2h91c1.1 0 2-.9 2-2s-.9-2-2-2z" mask="url(#prefix__b)"/>
        </g>
        <text fill="#000" font-family="Nunito-Regular, Nunito" font-size="18" letter-spacing=".169">
            <tspan x="869.41" y="439">Data</tspan>
        </text>
        <g>
            <g transform="translate(406 315) translate(151 .1)">
                <mask id="prefix__d" fill="#fff">
                    <use xlink:href="#prefix__c"/>
                </mask>
                <path fill="#002CA7" d="M81.598 43.389l-3.478-3.478 3.008-3.009 3.478 3.479-3.008 3.008zM63.643 79.582H4.513V8.512h59.13v39.39L49.918 61.72c-.47.47-.846 1.128-1.034 1.786l-1.598 6.017c-.376 1.316 0 2.726 1.035 3.76.75.753 1.69 1.128 2.725 1.128.376 0 .658 0 1.035-.094l5.921-1.598c.66-.188 1.316-.563 1.786-1.033l3.949-3.95v11.846h-.094zm-2.914-15.417l-3.478-3.479 17.673-17.58 3.479 3.48-17.674 17.58zm-4.043 4.136l-4.794 1.316 1.316-4.794.846-.847 3.478 3.48-.846.845zm31.399-30.834l-4.137-4.137c-1.598-1.598-4.135-1.598-5.734 0L68.155 43.39V6.256C68.155 5.034 67.122 4 65.9 4H2.256C1.034 4 0 5.034 0 6.256v75.488C0 82.967 1.034 84 2.256 84H65.9c1.223 0 2.256-1.033 2.256-2.256V63.13l19.93-19.93c1.599-1.597 1.599-4.135 0-5.733z" mask="url(#prefix__d)"/>
            </g>
            <path fill="#002CA7" d="M177.9 22.9h27.6c1.3 0 2.4-1.1 2.4-2.4 0-1.3-1.1-2.4-2.4-2.4h-27.6c-1.3 0-2.4 1.1-2.4 2.4 0 1.3 1 2.4 2.4 2.4M177.9 37.6h27.6c1.3 0 2.4-1.1 2.4-2.4 0-1.3-1.1-2.4-2.4-2.4h-27.6c-1.3 0-2.4 1.1-2.4 2.4 0 1.4 1 2.4 2.4 2.4M177.9 52.4h27.6c1.3 0 2.4-1.1 2.4-2.4 0-1.3-1.2-2.4-2.5-2.4h-27.5c-1.4 0-2.4 1-2.4 2.4s1 2.4 2.4 2.4M192.9 62.3h-15c-1.3 0-2.4 1.1-2.4 2.4 0 1.3 1.1 2.4 2.4 2.4h15c1.3 0 2.4-1.1 2.4-2.4 0-1.3-1.1-2.4-2.4-2.4" transform="translate(406 315)"/>
            <path fill="#FF449B" d="M167.4 16.8c2.043 0 3.7 1.656 3.7 3.7 0 2.043-1.657 3.7-3.7 3.7s-3.7-1.657-3.7-3.7c0-2.044 1.657-3.7 3.7-3.7M167.4 31.5c2.043 0 3.7 1.657 3.7 3.7 0 2.044-1.657 3.7-3.7 3.7s-3.7-1.656-3.7-3.7c0-2.043 1.657-3.7 3.7-3.7M167.4 46.3c2.043 0 3.7 1.656 3.7 3.7 0 2.043-1.657 3.7-3.7 3.7s-3.7-1.657-3.7-3.7c0-2.044 1.657-3.7 3.7-3.7M167.4 61c2.043 0 3.7 1.656 3.7 3.7 0 2.043-1.657 3.7-3.7 3.7s-3.7-1.657-3.7-3.7c0-2.044 1.657-3.7 3.7-3.7" transform="translate(406 315)"/>
            <text fill="#000" font-family="Nunito-Regular, Nunito" font-size="18" letter-spacing=".169" transform="translate(406 315)">
                <tspan x=".302" y="124">Compatibility questions + Guardian Feeedback</tspan>
            </text>
        </g>
        <g>
            <path fill="#001DB5" d="M38.977 62v-8.974c0-.45-.365-.815-.816-.815-.451 0-.816.364-.816.815V62H11.37v-8.974c0-.45-.365-.815-.815-.815-.45 0-.816.364-.816.815V62H0l1.703-12.805c.341-2.84 2.321-5.24 5.044-6.114l10.772-3.464c.012.052.03.103.043.154.01.039.02.076.033.115.06.2.138.394.236.58.015.03.033.058.05.087.108.193.23.38.376.55.64.745 1.57 1.171 2.552 1.171h7.098c.114 0 .229-.009.346-.02.221-.02.435-.062.653-.127l.146-.053c.065-.024.13-.048.175-.068.204-.086.4-.193.574-.313.264-.18.513-.406.722-.659l.01-.014c.003-.005.006-.008.01-.011.12-.16.228-.32.33-.506.072-.129.132-.264.184-.404.017-.045.03-.093.046-.14.03-.095.06-.19.082-.288.004-.018.012-.034.016-.052l10.768 3.462c2.723.875 4.702 3.274 5.045 6.124L48.716 62h-9.74zm-25.99-38.689c-.009-.066-.014-.137-.02-.208-.018-.217-.03-.434-.03-.652v-6.724l5.16-4.453c1.95.96 9.21 4.225 17.682 4.412v6.765c0 .356-.019.66-.06.952-.187 1.647-.865 3.186-1.96 4.454l-4.672 5.405c0 .002-.003.003-.005.004l-.252.294-.025.03c-.01.014-.022.026-.03.038-.032.024-.062.053-.09.082-.716.777-1.753 1.222-2.842 1.222h-2.97c-1.09 0-2.127-.445-2.89-1.259l-.066-.075-.031-.038-.252-.294-.005-.004-4.672-5.405c-1.112-1.29-1.793-2.88-1.97-4.546zm-3.313-3.447v-2.422c0-.377.252-.702.613-.792l1.018-.253v5.788l-.277-.128c-.823-.415-1.354-1.275-1.354-2.193zM24.358 0c6.298 0 11.42 5.123 11.42 11.421v2.64c-9.308-.22-17.333-4.438-17.415-4.481-.297-.16-.661-.118-.917.102l-4.51 3.89v-2.15C12.937 5.122 18.06 0 24.359 0zM38.43 16.651c.36.089.612.414.612.79v2.423c0 .918-.531 1.778-1.331 2.181l-.3.14v-5.788l1.02.254zm-8.785 22.254c0 .29-.07.571-.206.822l-.016.025c-.047.085-.101.172-.162.248-.107.13-.238.249-.383.346-.086.06-.184.115-.3.163l-.137.054c-.113.033-.224.056-.34.067-.066.006-.13.013-.194.013h-7.098c-.506 0-.985-.22-1.314-.603-.082-.096-.154-.2-.213-.311-.177-.33-.245-.713-.187-1.092v-.002l.485-3.148c.015.011.032.019.048.03.205.15.422.283.647.401.044.024.09.044.135.066.21.104.425.195.646.27.035.013.066.027.1.038.245.078.495.137.75.181.058.01.116.019.175.027.261.038.525.064.792.064h2.97c.267 0 .53-.026.792-.064.058-.008.117-.016.175-.027.254-.044.505-.103.749-.181.034-.011.068-.026.102-.038.22-.075.434-.166.643-.269.046-.023.093-.043.139-.067.223-.119.44-.252.645-.401.014-.011.032-.019.048-.03l.481 3.128c.013.097.028.194.028.29z" transform="translate(569 1)"/>
            <text fill="#000" font-family="Nunito-Regular, Nunito" font-size="18" letter-spacing=".169" transform="translate(569 1)">
                <tspan x="8.477" y="99">You</tspan>
            </text>
        </g>
        <g filter="url(#prefix__e)" transform="translate(493 939)">
            <path fill="#0026AE" d="M38.977 62v-8.974c0-.45-.365-.815-.816-.815-.451 0-.816.364-.816.815V62H11.37v-8.974c0-.45-.365-.815-.815-.815-.45 0-.816.364-.816.815V62H0l1.703-12.805c.341-2.84 2.321-5.24 5.044-6.114l10.772-3.464c.012.052.03.103.043.154.01.039.02.076.033.115.06.2.138.394.236.58.015.03.033.058.05.087.108.193.23.38.376.55.64.745 1.57 1.171 2.552 1.171h7.098c.114 0 .229-.009.346-.02.221-.02.435-.062.653-.127l.146-.053c.065-.024.13-.048.175-.068.204-.086.4-.193.574-.313.264-.18.513-.406.722-.659l.01-.014c.003-.005.006-.008.01-.011.12-.16.228-.32.33-.506.072-.129.132-.264.184-.404.017-.045.03-.093.046-.14.03-.095.06-.19.082-.288.004-.018.012-.034.016-.052l10.768 3.462c2.723.875 4.702 3.274 5.045 6.124L48.716 62h-9.74zm-25.99-38.689c-.009-.066-.014-.137-.02-.208-.018-.217-.03-.434-.03-.652v-6.724l5.16-4.453c1.95.96 9.21 4.225 17.682 4.412v6.765c0 .356-.019.66-.06.952-.187 1.647-.865 3.186-1.96 4.454l-4.672 5.405c0 .002-.003.003-.005.004l-.252.294-.025.03c-.01.014-.022.026-.03.038-.032.024-.062.053-.09.082-.716.777-1.753 1.222-2.842 1.222h-2.97c-1.09 0-2.127-.445-2.89-1.259l-.066-.075-.031-.038-.252-.294-.005-.004-4.672-5.405c-1.112-1.29-1.793-2.88-1.97-4.546zm-3.313-3.447v-2.422c0-.377.252-.702.613-.792l1.018-.253v5.788l-.277-.128c-.823-.415-1.354-1.275-1.354-2.193zM24.358 0c6.298 0 11.42 5.123 11.42 11.421v2.64c-9.308-.22-17.333-4.438-17.415-4.481-.297-.16-.661-.118-.917.102l-4.51 3.89v-2.15C12.937 5.122 18.06 0 24.359 0zM38.43 16.651c.36.089.612.414.612.79v2.423c0 .918-.531 1.778-1.331 2.181l-.3.14v-5.788l1.02.254zm-8.785 22.254c0 .29-.07.571-.206.822l-.016.025c-.047.085-.101.172-.162.248-.107.13-.238.249-.383.346-.086.06-.184.115-.3.163l-.137.054c-.113.033-.224.056-.34.067-.066.006-.13.013-.194.013h-7.098c-.506 0-.985-.22-1.314-.603-.082-.096-.154-.2-.213-.311-.177-.33-.245-.713-.187-1.092v-.002l.485-3.148c.015.011.032.019.048.03.205.15.422.283.647.401.044.024.09.044.135.066.21.104.425.195.646.27.035.013.066.027.1.038.245.078.495.137.75.181.058.01.116.019.175.027.261.038.525.064.792.064h2.97c.267 0 .53-.026.792-.064.058-.008.117-.016.175-.027.254-.044.505-.103.749-.181.034-.011.068-.026.102-.038.22-.075.434-.166.643-.269.046-.023.093-.043.139-.067.223-.119.44-.252.645-.401.014-.011.032-.019.048-.03l.481 3.128c.013.097.028.194.028.29z"/>
            <path fill="#FF689A" d="M82.542 44.287c3.627 9.429 18.969 8.839 22.651 0 2.402.723 5.123 1.696 7.452 2.484 2.106.714 3.617 1.239 4.238 1.55 1.11.555 2.507 2.523 2.507 5.197.423 3.154.892 6.324 1.344 9.482H67c.438-3.158.932-6.328 1.345-9.482 0-2.646 1.506-4.499 2.597-5.243.92-.613 2.68-1.153 4.855-1.778 2.4-.767 4.838-1.49 6.745-2.21zm5.856-7.09c1.694 1.514 3.556 2.462 5.47 2.462 1.913 0 3.77-.948 5.468-2.462.497 2.89 2.39 5.344 4.558 6.451-3.103 7.682-16.983 8.342-20.053 0 2.734-1.445 4.006-4.264 4.557-6.45zm-.365-23.569c.94 1.706 2.223 3.295 4.81 4.445.68.145 1.024.06 1.115-.774-.02-.754-.277-1.528-.456-2.189 1.145 1.169 2.315 2.49 3.442 3.51.535.418 1.298.242 1.39-.296.251-.688.26-1.491.319-2.165.664 1.019 1.287 2.016 1.936 3.008.272.507.696.858 1.072 1.117 1.725.598 2.797.765 3.806.844-.12 3.447-1.599 7.648-3.783 11.01C99.368 35.7 96.33 38.2 93.867 38.2s-5.468-2.502-7.77-6.064c-2.242-3.467-3.794-7.83-3.874-11.351 2.533-2.045 4.295-4.93 5.81-7.158zM93.867 1c8.334 0 18.2 6.828 18.231 22.909.012 7.353-.717 16.106.957 21.449-2.104-.713-4.808-1.617-7.999-2.758-3.292-1.61-3.736-3.477-4.511-6.61.837-.916 1.624-1.943 2.346-3.055 1.048-1.611 1.947-3.397 2.644-5.22v.638c-.005.386.343.74.729.74.385 0 .735-.354.729-.74v-1.481c1.163-1.044 1.895-2.59 2.187-3.99 0-2.561-.5-3.337-2.37-2.871-.134-.156-.339-.25-.546-.251-1.114-.029-2.072-.174-4.033-.843-.164-.173-.315-.407-.434-.57-1.158-1.573-2.105-3.628-3.304-4.559-.597-.087-.751.144-1.07.524-.228.845-.229 1.706-.297 2.485-1.645-1.486-2.849-3.367-4.466-4.445-.695-.052-.98-.055-1.094.775.118 1.053.442 2.042.66 2.964-1.909-1.126-2.822-2.445-3.531-4.08-.475-.556-.748-.436-1.254-.16-2.257 2.982-2.898 5.273-6.426 8.07-1.732-.33-2.461 1.13-2.461 2.963.241 1.478 1.198 3.034 2.187 3.988v1.482c-.005.386.345.74.73.74s.734-.354.73-.74v-.752c.7 1.863 1.6 3.685 2.665 5.334.714 1.103 1.497 2.122 2.325 3.031-.983 6.883-7.889 8.032-13.309 9.574 1.675-7.5 1.758-15.009 1.755-22.361C75.67 7.517 86.277 1 93.867 1zM155.542 44.287c3.627 9.429 18.969 8.839 22.651 0 2.402.723 5.123 1.696 7.452 2.484 2.106.714 3.617 1.239 4.238 1.55 1.11.555 2.507 2.523 2.507 5.197.423 3.154.892 6.324 1.344 9.482H140c.438-3.158.932-6.328 1.345-9.482 0-2.646 1.506-4.499 2.597-5.243.92-.613 2.68-1.153 4.855-1.778 2.4-.767 4.838-1.49 6.745-2.21zm5.856-7.09c1.694 1.514 3.556 2.462 5.47 2.462 1.913 0 3.77-.948 5.468-2.462.497 2.89 2.39 5.344 4.558 6.451-3.103 7.682-16.983 8.342-20.053 0 2.734-1.445 4.006-4.264 4.557-6.45zm-.365-23.569c.94 1.706 2.223 3.295 4.81 4.445.68.145 1.024.06 1.115-.774-.02-.754-.277-1.528-.456-2.189 1.145 1.169 2.315 2.49 3.442 3.51.535.418 1.298.242 1.39-.296.251-.688.26-1.491.319-2.165.664 1.019 1.287 2.016 1.936 3.008.272.507.696.858 1.072 1.117 1.725.598 2.797.765 3.806.844-.12 3.447-1.599 7.648-3.783 11.01-2.316 3.562-5.354 6.063-7.817 6.063s-5.468-2.502-7.77-6.064c-2.242-3.467-3.794-7.83-3.874-11.351 2.533-2.045 4.295-4.93 5.81-7.158zM166.867 1c8.334 0 18.2 6.828 18.231 22.909.012 7.353-.717 16.106.957 21.449-2.104-.713-4.808-1.617-7.999-2.758-3.292-1.61-3.736-3.477-4.511-6.61.837-.916 1.624-1.943 2.346-3.055 1.048-1.611 1.947-3.397 2.644-5.22v.638c-.005.386.343.74.729.74.385 0 .735-.354.729-.74v-1.481c1.163-1.044 1.895-2.59 2.187-3.99 0-2.561-.5-3.337-2.37-2.871-.134-.156-.339-.25-.546-.251-1.114-.029-2.072-.174-4.033-.843-.164-.173-.315-.407-.434-.57-1.158-1.573-2.105-3.628-3.304-4.559-.597-.087-.751.144-1.07.524-.228.845-.229 1.706-.297 2.485-1.645-1.486-2.849-3.367-4.466-4.445-.695-.052-.98-.055-1.094.775.118 1.053.442 2.042.66 2.964-1.909-1.126-2.822-2.445-3.531-4.08-.475-.556-.748-.436-1.254-.16-2.257 2.982-2.898 5.273-6.426 8.07-1.732-.33-2.461 1.13-2.461 2.963.241 1.478 1.198 3.034 2.187 3.988v1.482c-.005.386.345.74.73.74s.734-.354.73-.74v-.752c.7 1.863 1.6 3.685 2.665 5.334.714 1.103 1.497 2.122 2.325 3.031-.983 6.883-7.889 8.032-13.309 9.574 1.675-7.5 1.758-15.009 1.755-22.361C148.67 7.517 159.277 1 166.867 1zM228.542 44.287c3.627 9.429 18.969 8.839 22.651 0 2.402.723 5.123 1.696 7.452 2.484 2.106.714 3.617 1.239 4.238 1.55 1.11.555 2.507 2.523 2.507 5.197.423 3.154.892 6.324 1.344 9.482H213c.438-3.158.932-6.328 1.345-9.482 0-2.646 1.506-4.499 2.597-5.243.92-.613 2.68-1.153 4.855-1.778 2.4-.767 4.838-1.49 6.745-2.21zm5.856-7.09c1.694 1.514 3.556 2.462 5.47 2.462 1.913 0 3.77-.948 5.468-2.462.497 2.89 2.39 5.344 4.558 6.451-3.103 7.682-16.983 8.342-20.053 0 2.734-1.445 4.006-4.264 4.557-6.45zm-.365-23.569c.94 1.706 2.223 3.295 4.81 4.445.68.145 1.024.06 1.115-.774-.02-.754-.277-1.528-.456-2.189 1.145 1.169 2.315 2.49 3.442 3.51.535.418 1.298.242 1.39-.296.251-.688.26-1.491.319-2.165.664 1.019 1.287 2.016 1.936 3.008.272.507.696.858 1.072 1.117 1.725.598 2.797.765 3.806.844-.12 3.447-1.599 7.648-3.783 11.01-2.316 3.562-5.354 6.063-7.817 6.063s-5.468-2.502-7.77-6.064c-2.242-3.467-3.794-7.83-3.874-11.351 2.533-2.045 4.295-4.93 5.81-7.158zM239.867 1c8.334 0 18.2 6.828 18.231 22.909.012 7.353-.717 16.106.957 21.449-2.104-.713-4.808-1.617-7.999-2.758-3.292-1.61-3.736-3.477-4.511-6.61.837-.916 1.624-1.943 2.346-3.055 1.048-1.611 1.947-3.397 2.644-5.22v.638c-.005.386.343.74.729.74.385 0 .735-.354.729-.74v-1.481c1.163-1.044 1.895-2.59 2.187-3.99 0-2.561-.5-3.337-2.37-2.871-.134-.156-.339-.25-.546-.251-1.114-.029-2.072-.174-4.033-.843-.164-.173-.315-.407-.434-.57-1.158-1.573-2.105-3.628-3.304-4.559-.597-.087-.751.144-1.07.524-.228.845-.229 1.706-.297 2.485-1.645-1.486-2.849-3.367-4.466-4.445-.695-.052-.98-.055-1.094.775.118 1.053.442 2.042.66 2.964-1.909-1.126-2.822-2.445-3.531-4.08-.475-.556-.748-.436-1.254-.16-2.257 2.982-2.898 5.273-6.426 8.07-1.732-.33-2.461 1.13-2.461 2.963.241 1.478 1.198 3.034 2.187 3.988v1.482c-.005.386.345.74.73.74s.734-.354.73-.74v-.752c.7 1.863 1.6 3.685 2.665 5.334.714 1.103 1.497 2.122 2.325 3.031-.983 6.883-7.889 8.032-13.309 9.574 1.675-7.5 1.758-15.009 1.755-22.361C221.67 7.517 232.277 1 239.867 1z"/>
            <text fill="#000" font-family="Nunito-Regular, Nunito" font-size="18" letter-spacing=".169">
                <tspan x="18.477" y="100">You</tspan>
            </text>
            <text fill="#000" font-family="Nunito-Regular, Nunito" font-size="18" letter-spacing=".169">
                <tspan x="124.232" y="100">Your matches</tspan>
            </text>
        </g>
        <g>
            <path fill="#001DB5" d="M75.977 62v-8.974c0-.45-.365-.815-.816-.815-.451 0-.816.364-.816.815V62H48.37v-8.974c0-.45-.365-.815-.815-.815-.45 0-.816.364-.816.815V62H37l1.703-12.805c.341-2.84 2.321-5.24 5.044-6.114l10.772-3.464c.012.052.03.103.043.154.01.039.02.076.033.115.06.2.138.394.236.58.015.03.033.058.05.087.108.193.23.38.376.55.64.745 1.57 1.171 2.552 1.171h7.098c.114 0 .229-.009.346-.02.221-.02.435-.062.653-.127l.146-.053c.065-.024.13-.048.175-.068.204-.086.4-.193.574-.313.264-.18.513-.406.722-.659l.01-.014c.003-.005.006-.008.01-.011.12-.16.228-.32.33-.506.072-.129.132-.264.184-.404.017-.045.03-.093.046-.14.03-.095.06-.19.082-.288.004-.018.012-.034.016-.052l10.768 3.462c2.723.875 4.702 3.274 5.045 6.124L85.716 62h-9.74zm-25.99-38.689c-.009-.066-.014-.137-.02-.208-.018-.217-.03-.434-.03-.652v-6.724l5.16-4.453c1.95.96 9.21 4.225 17.682 4.412v6.765c0 .356-.019.66-.06.952-.187 1.647-.865 3.186-1.96 4.454l-4.672 5.405c0 .002-.003.003-.005.004l-.252.294-.025.03c-.01.014-.022.026-.03.038-.032.024-.062.053-.09.082-.716.777-1.753 1.222-2.842 1.222h-2.97c-1.09 0-2.127-.445-2.89-1.259l-.066-.075-.031-.038-.252-.294-.005-.004-4.671-5.405c-1.113-1.29-1.794-2.88-1.97-4.546zm-3.313-3.447v-2.422c0-.377.252-.702.613-.792l1.018-.253v5.788l-.277-.128c-.823-.415-1.354-1.275-1.354-2.193zM61.358 0c6.298 0 11.42 5.123 11.42 11.421v2.64c-9.308-.22-17.333-4.438-17.415-4.481-.297-.16-.661-.118-.917.102l-4.51 3.89v-2.15C49.937 5.122 55.06 0 61.359 0zM75.43 16.651c.36.089.612.414.612.79v2.423c0 .918-.531 1.778-1.331 2.181l-.3.14v-5.788l1.02.254zm-8.785 22.254c0 .29-.07.571-.206.822l-.016.025c-.047.085-.101.172-.162.248-.107.13-.238.249-.383.346-.086.06-.184.115-.3.163l-.137.054c-.113.033-.224.056-.34.067-.066.006-.13.013-.194.013h-7.098c-.506 0-.985-.22-1.314-.603-.082-.096-.154-.2-.213-.311-.177-.33-.245-.713-.187-1.092v-.002l.485-3.148c.015.011.032.019.048.03.205.15.422.283.647.401.044.024.09.044.135.066.21.104.425.195.646.27.035.013.066.027.1.038.245.078.495.137.75.181.058.01.116.019.175.027.261.038.525.064.792.064h2.97c.267 0 .53-.026.792-.064.058-.008.117-.016.175-.027.254-.044.505-.103.749-.181.034-.011.068-.026.102-.038.22-.075.434-.166.643-.269.046-.023.093-.043.138-.067.224-.119.44-.252.646-.401.014-.011.032-.019.048-.03l.481 3.128c.013.097.028.194.028.29z" transform="translate(493 1191)"/>
            <path fill="#FF689A" d="M120.132 43.287c3.627 9.429 18.97 8.839 22.652 0 2.402.723 5.123 1.696 7.452 2.484 2.105.714 3.616 1.239 4.238 1.55 1.11.555 2.507 2.523 2.507 5.197.423 3.154.892 6.324 1.344 9.482H104.59c.438-3.158.932-6.328 1.345-9.482 0-2.646 1.505-4.499 2.597-5.243.92-.613 2.68-1.153 4.854-1.778 2.4-.767 4.838-1.49 6.745-2.21zm5.857-7.09c1.693 1.514 3.555 2.462 5.469 2.462 1.914 0 3.77-.948 5.469-2.462.497 2.89 2.389 5.344 4.557 6.451-3.103 7.682-16.982 8.342-20.053 0 2.735-1.445 4.006-4.264 4.558-6.45zm-.365-23.569c.939 1.706 2.222 3.295 4.809 4.445.681.145 1.025.06 1.116-.774-.02-.754-.277-1.528-.456-2.189 1.144 1.169 2.314 2.49 3.441 3.51.536.418 1.299.242 1.39-.296.252-.688.26-1.491.32-2.165.663 1.019 1.286 2.016 1.936 3.008.272.507.696.858 1.071 1.117 1.726.598 2.798.765 3.807.844-.12 3.447-1.6 7.648-3.784 11.01-2.315 3.562-5.354 6.063-7.816 6.063-2.464 0-5.469-2.502-7.77-6.064-2.243-3.467-3.794-7.83-3.875-11.351 2.534-2.045 4.296-4.93 5.81-7.158zM131.458 0c8.334 0 18.2 6.828 18.23 22.909.013 7.353-.716 16.106.958 21.449-2.104-.713-4.809-1.617-8-2.758-3.291-1.61-3.735-3.477-4.51-6.61.837-.916 1.623-1.943 2.346-3.055 1.047-1.611 1.947-3.397 2.643-5.22v.638c-.005.386.344.74.729.74.386 0 .735-.354.73-.74v-1.481c1.162-1.044 1.894-2.59 2.187-3.99 0-2.561-.5-3.337-2.37-2.871-.135-.156-.34-.25-.547-.251-1.113-.029-2.071-.174-4.033-.843-.163-.173-.314-.407-.433-.57-1.158-1.573-2.106-3.628-3.304-4.559-.598-.087-.752.144-1.071.524-.227.845-.228 1.706-.296 2.485-1.646-1.486-2.85-3.367-4.466-4.445-.696-.052-.98-.055-1.095.775.119 1.053.442 2.042.661 2.964-1.91-1.126-2.823-2.445-3.532-4.08-.474-.556-.748-.436-1.253-.16-2.258 2.982-2.898 5.273-6.427 8.07-1.731-.33-2.46 1.13-2.46 2.963.24 1.478 1.198 3.034 2.187 3.988v1.482c-.005.386.344.74.73.74.384 0 .734-.354.729-.74v-.752c.7 1.863 1.6 3.685 2.666 5.334.713 1.103 1.497 2.122 2.324 3.031-.983 6.883-7.888 8.032-13.308 9.574 1.674-7.5 1.757-15.009 1.755-22.361C113.26 6.517 123.868 0 131.458 0z" transform="translate(493 1191)"/>
            <text fill="#000" font-family="Nunito-Regular, Nunito" font-size="18" letter-spacing=".169" transform="translate(493 1191)">
                <tspan x=".145" y="100">You and your better half</tspan>
            </text>
        </g>
        <text fill="#000" font-family="Nunito-Regular, Nunito" font-size="18" letter-spacing=".169">
            <tspan x="912.201" y="209">+ Muslim divorce data</tspan>
        </text>
        <text fill="#000" font-family="Nunito-Regular, Nunito" font-size="18" letter-spacing=".169">
            <tspan x="6.63" y="439">+ Married couples compatibility </tspan> <tspan x="55.971" y="463">algorithm feedback</tspan>
        </text>
        <text fill="#000" font-family="Nunito-Regular, Nunito" font-size="18" letter-spacing=".111">
            <tspan x="75" y="816">Feedback loop</tspan>
        </text>
        <text fill="#000" font-family="Nunito-Regular, Nunito" font-size="15" letter-spacing=".141">
            <tspan x="7.777" y="847">Our advanced algorithms continuosly </tspan> <tspan x="6.455" y="867">learn from your interactions with your </tspan> <tspan x="48.899" y="887">matches and preferences</tspan>
        </text>
        <text fill="#000" font-family="Nunito-Regular, Nunito" font-size="18" letter-spacing=".169">
            <tspan x="912.37" y="559">+ Isalmic Teachings</tspan>
        </text>
        <g fill-rule="nonzero">
            <path fill="url(#prefix__f)" d="M.066-5.5c6.627.005 11.996 5.381 11.991 12.008-.004 5.946-4.331 10.879-10.007 11.827L2.035 37.84c-.018 26.245 21.03 47.584 47.173 48.027l.794.007h.166l195.746-.542c28.431-.078 51.596 22.676 52.134 50.996l.01.86V464.5c0 28.432-22.819 51.534-51.14 51.993l-.86.007h-124.26v10l-24-12 24-12v10h124.26c26.244 0 47.569-21.063 47.993-47.206l.006-.794V137.198c-.072-26.244-21.194-47.51-47.339-47.863l-.793-.004-195.746.542H50C21.567 89.853-1.52 67.019-1.958 38.696l-.007-.86.014-19.503c-5.675-.956-9.996-5.895-9.992-11.841C-11.938-.136-6.562-5.505.066-5.5z" transform="translate(296 134.5)"/>
            <path fill="url(#prefix__g)" d="M27 853.5v10h.037c1.104 0 2 .895 2 2 0 1.054-.816 1.918-1.851 1.995l-.15.005H27v10l-24-12 24-12zm20.037 10c1.104 0 2 .895 2 2 0 1.054-.816 1.918-1.851 1.995l-.15.005h-10c-1.104 0-2-.895-2-2 0-1.054.817-1.918 1.851-1.995l.15-.005h10zm20 0c1.104 0 2 .895 2 2 0 1.054-.816 1.918-1.851 1.995l-.15.005h-10c-1.104 0-2-.895-2-2 0-1.054.817-1.918 1.851-1.995l.15-.005h10zm20 0c1.104 0 2 .895 2 2 0 1.054-.816 1.918-1.851 1.995l-.15.005h-10c-1.104 0-2-.895-2-2 0-1.054.817-1.918 1.851-1.995l.15-.005h10zm20 0c1.104 0 2 .895 2 2 0 1.054-.816 1.918-1.851 1.995l-.15.005h-10c-1.104 0-2-.895-2-2 0-1.054.817-1.918 1.851-1.995l.15-.005h10zm20 0c1.104 0 2 .895 2 2 0 1.054-.816 1.918-1.851 1.995l-.15.005h-10c-1.104 0-2-.895-2-2 0-1.054.817-1.918 1.851-1.995l.15-.005h10zm20 0c1.104 0 2 .895 2 2 0 1.054-.816 1.918-1.851 1.995l-.15.005h-10c-1.104 0-2-.895-2-2 0-1.054.817-1.918 1.851-1.995l.15-.005h10zm21.469-2.34c.412 1.024-.085 2.189-1.11 2.601-3.215 1.294-6.56 2.263-9.993 2.89-1.086.2-2.128-.52-2.326-1.607-.199-1.087.521-2.129 1.608-2.327 3.167-.579 6.252-1.473 9.219-2.667 1.025-.412 2.19.085 2.602 1.11zm16.144-11.59c.778.784.774 2.05-.01 2.829-2.465 2.448-5.17 4.646-8.071 6.557-.923.607-2.163.352-2.77-.57-.608-.923-.353-2.163.57-2.77 2.678-1.765 5.176-3.795 7.453-6.056.783-.778 2.05-.774 2.828.01zm10.397-16.984c1.022.419 1.512 1.587 1.093 2.61-1.318 3.218-2.957 6.293-4.888 9.18-.614.918-1.857 1.165-2.775.55-.918-.613-1.164-1.856-.55-2.774 1.783-2.665 3.295-5.503 4.511-8.473.42-1.022 1.587-1.511 2.61-1.093zM198 812.888c1.054 0 1.918.816 1.995 1.85l.005.15v.612c0 3.288-.305 6.537-.907 9.72-.205 1.085-1.252 1.798-2.337 1.593-1.085-.205-1.799-1.252-1.593-2.337.5-2.644.778-5.339.829-8.066l.008-.91v-.612c0-1.105.895-2 2-2zm0-20c1.054 0 1.918.816 1.995 1.85l.005.15v10c0 1.104-.895 2-2 2-1.054 0-1.918-.816-1.995-1.85l-.005-.15v-10c0-1.105.895-2 2-2zm0-20c1.054 0 1.918.816 1.995 1.85l.005.15v10c0 1.104-.895 2-2 2-1.054 0-1.918-.816-1.995-1.85l-.005-.15v-10c0-1.105.895-2 2-2zm0-20c1.054 0 1.918.816 1.995 1.85l.005.15v10c0 1.104-.895 2-2 2-1.054 0-1.918-.816-1.995-1.85l-.005-.15v-10c0-1.105.895-2 2-2zm0-20c1.054 0 1.918.816 1.995 1.85l.005.15v10c0 1.104-.895 2-2 2-1.054 0-1.918-.816-1.995-1.85l-.005-.15v-10c0-1.105.895-2 2-2zm0-20c1.054 0 1.918.816 1.995 1.85l.005.15v10c0 1.104-.895 2-2 2-1.054 0-1.918-.816-1.995-1.85l-.005-.15v-10c0-1.105.895-2 2-2zm0-20c1.054 0 1.918.816 1.995 1.85l.005.15v10c0 1.104-.895 2-2 2-1.054 0-1.918-.816-1.995-1.85l-.005-.15v-10c0-1.105.895-2 2-2zm0-20c1.054 0 1.918.816 1.995 1.85l.005.15v10c0 1.104-.895 2-2 2-1.054 0-1.918-.816-1.995-1.85l-.005-.15v-10c0-1.105.895-2 2-2zm0-20c1.054 0 1.918.816 1.995 1.85l.005.15v10c0 1.104-.895 2-2 2-1.054 0-1.918-.816-1.995-1.85l-.005-.15v-10c0-1.105.895-2 2-2zm0-20c1.054 0 1.918.816 1.995 1.85l.005.15v10c0 1.104-.895 2-2 2-1.054 0-1.918-.816-1.995-1.85l-.005-.15v-10c0-1.105.895-2 2-2zm1.808-18.184c.102 1.186.163 2.379.184 3.577l.008.9v5.707c0 1.104-.895 2-2 2-1.054 0-1.918-.816-1.995-1.85l-.005-.15v-5.707c0-1.387-.06-2.766-.177-4.136-.094-1.1.721-2.069 1.822-2.163 1.1-.094 2.07.721 2.163 1.822zm-5.823-19.804c1.625 3.068 2.938 6.295 3.919 9.637.31 1.06-.297 2.17-1.356 2.482-1.06.31-2.172-.296-2.483-1.356-.904-3.083-2.116-6.06-3.615-8.891-.517-.977-.144-2.187.832-2.704.976-.517 2.186-.144 2.703.832zm-13.164-16.038c2.693 2.194 5.162 4.653 7.368 7.337.702.853.579 2.113-.275 2.815-.853.701-2.113.578-2.815-.275-2.037-2.479-4.317-4.75-6.805-6.776-.856-.698-.985-1.957-.287-2.814.697-.856 1.957-.985 2.814-.287zm-18.315-9.613c3.345.97 6.576 2.273 9.648 3.888.978.513 1.354 1.723.84 2.7-.513.978-1.722 1.354-2.7.84-2.835-1.489-5.816-2.692-8.902-3.586-1.061-.308-1.672-1.417-1.364-2.478.307-1.061 1.417-1.672 2.478-1.364zm-20.38-2.085l6.162.035c1.335.007 2.664.065 3.985.172 1.1.09 1.92 1.055 1.831 2.156-.09 1.1-1.055 1.92-2.156 1.831-.915-.075-1.835-.123-2.758-.146l-.924-.014-6.161-.034c-1.105-.006-1.995-.906-1.99-2.01.007-1.105.907-1.996 2.012-1.99zm-19.999-.11l10 .055c1.105.006 1.995.907 1.989 2.011-.006 1.054-.827 1.914-1.862 1.984l-.15.005-9.999-.055c-1.105-.007-1.995-.907-1.989-2.011.006-1.105.907-1.995 2.011-1.99zm-20-.111l10 .055c1.105.006 1.995.907 1.99 2.011-.007 1.055-.827 1.914-1.863 1.985l-.149.004-10-.055c-1.104-.006-1.995-.907-1.989-2.011.007-1.105.907-1.995 2.011-1.99zm-20-.11l10 .055c1.105.006 1.996.906 1.99 2.01-.006 1.055-.827 1.914-1.862 1.985l-.15.005-10-.056c-1.104-.006-1.994-.906-1.988-2.01.006-1.105.906-1.996 2.01-1.99zm-19.999-.112l10 .056c1.105.006 1.995.906 1.989 2.01-.006 1.055-.827 1.915-1.862 1.985l-.15.005-9.999-.056c-1.105-.006-1.995-.906-1.989-2.01.006-1.105.907-1.996 2.011-1.99zm-20-.11l10 .055c1.105.006 1.995.907 1.99 2.011-.007 1.055-.827 1.914-1.863 1.984l-.149.005-10-.055c-1.104-.006-1.995-.907-1.989-2.011.006-1.105.907-1.995 2.011-1.99zm-20-.111l10 .055c1.105.007 1.996.907 1.99 2.011-.006 1.055-.827 1.914-1.862 1.985l-.15.004-10-.055c-1.104-.006-1.994-.907-1.988-2.011.006-1.105.906-1.995 2.01-1.989z" transform="translate(296 134.5)"/>
            <path fill="url(#prefix__h)" d="M591 341.5c1.054 0 1.918.816 1.995 1.85l.005.15v176c0 28.432-22.818 51.534-51.14 51.993l-.86.007H429v10l-24-12 24-12v10h112c26.245 0 47.57-21.063 47.994-47.206l.006-.794v-176c0-1.105.895-2 2-2z" transform="translate(296 134.5)"/>
            <path fill="url(#prefix__i)" d="M588.5-2c1.054 0 1.918.816 1.995 1.85l.005.15v131.5h10l-12 24-12-24h10V0c0-1.105.895-2 2-2zM296-2c1.054 0 1.918.816 1.995 1.85L298 0v131.5h10l-12 24-12-24h10V0c0-1.105.895-2 2-2z" transform="translate(296 134.5)"/>
            <path fill="url(#prefix__j)" d="M296 341.5c1.054 0 1.918.816 1.995 1.85l.005.15v56h10l-12 24-12-24h10v-56c0-1.105.895-2 2-2zM296 689.5c1.054 0 1.918.816 1.995 1.85l.005.15v56h10l-12 24-12-24h10v-56c0-1.105.895-2 2-2z" transform="translate(296 134.5)"/>
            <path fill="url(#prefix__k)" d="M296 942.5c1.054 0 1.918.816 1.995 1.85l.005.15v57h10l-12 24-12-24h10v-57c0-1.105.895-2 2-2z" transform="translate(296 134.5)"/>
        </g>
    </g>
</svg>
