<svg xmlns="http://www.w3.org/2000/svg" width="70" height="71" viewBox="0 0 70 71">
    <defs>
        <linearGradient id="prefix__a" x1="74.118%" x2="1.399%" y1="26.478%" y2="77.242%">
            <stop offset="0%" stop-color="#FF8960"/>
            <stop offset="100%" stop-color="#FF62A5"/>
        </linearGradient>
    </defs>
    <path fill="url(#prefix__a)" fill-rule="evenodd" d="M726.902 65.154h-.188c-3.203.05-6.177 1.345-8.373 3.646-4.38 4.588-4.209 12.045.38 16.623l15.259 15.22 11.692-11.662c6.042-6.027 6.609-15.48 1.7-22.15l-1.694 1.69c-2.889 2.88-7.592 2.886-10.486.014-2.214-2.183-5.155-3.381-8.29-3.381m.004-9.963l-.187.001c-5.873.049-11.355 2.376-15.436 6.554-8.279 8.476-8.089 22.28.424 30.77l22.272 22.217 25.818-25.753c6.668-6.65 6.668-17.472 0-24.123-1.395-1.392-3.25-2.158-5.222-2.158-1.143 0-2.246.256-3.243.743 2.954 3.855 4.553 8.543 4.553 13.477 0 5.943-2.32 11.53-6.533 15.733L735.82 106.15c-1.016 1.013-2.664 1.013-3.68 0l-17.1-17.057c-6.568-6.552-6.778-17.261-.47-23.872 3.169-3.32 7.453-5.186 12.064-5.257 4.608-.052 8.955 1.664 12.222 4.884.872.866 2.279.864 3.142.002l1.82-1.815-1.56-1.551c-4.1-4.061-9.548-6.293-15.352-6.293M733.979 121c-.665 0-1.332-.254-1.84-.76l-24.112-24.052c-10.516-10.49-10.727-27.565-.472-38.064 5.058-5.178 11.848-8.063 19.12-8.124 7.29-.034 14.112 2.712 19.253 7.803l1.756 1.747c2.03-1.33 4.406-2.043 6.89-2.043 3.364 0 6.526 1.307 8.904 3.68 8.696 8.674 8.696 22.79 0 31.464L735.82 120.24c-.509.506-1.175.76-1.84.76" transform="translate(-700 -50)"/>
</svg>
