<svg xmlns="http://www.w3.org/2000/svg" width="250" height="22" viewBox="0 0 250 22">
    <defs>
        <linearGradient id="prefix__a" x1="74.813%" x2="0%" y1="49.818%" y2="50.211%">
            <stop offset="0%" stop-color="#FF8960"/>
            <stop offset="100%" stop-color="#FF62A5"/>
        </linearGradient>
    </defs>
    <path fill="url(#prefix__a)" d="M666.918 157.342v-6.889c0-2.29 1.878-4.145 4.194-4.145h2.78c1.79 0 1.764.414 2.444.414.679 0 .936-.414 2.027-.414h3.11c2.538 0 4.28 1.674 4.28 4.216v6.904c0 .868-.712 1.572-1.59 1.572-.88 0-1.592-.704-1.592-1.572v-6.042c0-1.467-.982-2.06-2.402-2.06-1.361 0-1.607.806-1.607 2.116v6.135c0 .786-.645 1.423-1.44 1.423-.795 0-1.44-.637-1.44-1.423v-6.326c0-1.31-1.004-1.719-3.093-1.719-2.09 0-2.313.656-2.313 2.033v5.777c0 .916-.751 1.658-1.678 1.658h-.002c-.927 0-1.678-.742-1.678-1.658zM596.658 159c-.916 0-1.658-.733-1.658-1.638v-14.715c0-.782.642-1.416 1.433-1.416.888 0 1.708.465 2.157 1.222l5.96 10.07c.073.123.176.225.3.297.4.231.914.098 1.148-.297l5.96-10.07c.448-.757 1.27-1.222 2.157-1.222.791 0 1.433.634 1.433 1.416v14.715c0 .905-.742 1.638-1.658 1.638-.915 0-1.657-.733-1.657-1.638v-7.203c0-.1-.082-.18-.183-.18-.113 0-.218.059-.275.155l-4.708 7.856c-.375.626-1.057 1.01-1.793 1.01s-1.418-.384-1.793-1.01l-4.708-7.856c-.057-.096-.162-.155-.275-.155-.1 0-.183.08-.183.18v7.203c0 .905-.742 1.638-1.657 1.638zm25.24-11.247v4.696c0 2.107 1.778 3.542 4.346 3.542h.775c1.978 0 3.583-1.586 3.583-3.542v-4.696c0-.798.655-1.445 1.463-1.445.807 0 1.462.647 1.462 1.445v7.1c0 2.289-1.876 4.145-4.192 4.146l-3.091.001c-2.42 0-4.583-.428-5.849-1.7-1.057-1.062-1.422-2.806-1.422-4.492v-5.055c0-.798.655-1.445 1.462-1.445.808 0 1.463.647 1.463 1.445zm16.584 8.244h5.371c1.488 0 2.596-.22 2.596-1.222 0-.53-.105-.976-.865-1.145-.986-.219-2.81-.104-4.605-.166-3.179-.109-4.027-1.555-4.027-3.575 0-2.498 1.141-3.581 4.298-3.581h5.475c.77 0 1.394.616 1.394 1.377 0 .76-.624 1.377-1.394 1.377h-3.352c-1.431 0-3.214-.183-3.214.827 0 .458 1.835.656 5.507.594 2.241-.038 4.09 1.727 4.128 3.942v.07c0 1.45-.436 3.018-1.751 3.815-1.107.671-2.953.69-4.522.69-1.025 0-2.704-.012-5.038-.037-.827-.01-1.493-.674-1.493-1.492 0-.814.668-1.474 1.492-1.474zm206.341-14.572c0 .89-.71 1.621-1.61 1.657l-2.384.093c-2.231.088-3.994 1.901-3.994 4.108v10.252c0 .81-.664 1.465-1.483 1.465h-.014c-.81-.008-1.462-.664-1.454-1.465l.139-14.103c.017-1.72 1.151-3.236 2.812-3.754l6.28-.11h.03c.927 0 1.678.742 1.678 1.658v.199zm-5.083 3.88h3.437c1.007 0 1.823.807 1.823 1.802s-.816 1.802-1.823 1.802h-3.437c-1.006 0-1.823-.807-1.823-1.802s.817-1.802 1.823-1.802zm-8.439 11.892v.283c0 .8-.655 1.447-1.464 1.447l-.072-.001-1.26-.062c-1.736-.287-3.015-1.763-3.034-3.504l-.146-13.395c-.009-.864.691-1.571 1.565-1.58h.017c.888 0 1.613.702 1.631 1.58l.257 12.434c.015.711.553 1.305 1.266 1.399.71.093 1.24.69 1.24 1.399zm-172.945 0v.283c0 .8-.655 1.447-1.464 1.447l-.072-.001-1.26-.062c-1.737-.287-3.015-1.763-3.034-3.504l-.146-13.395c-.01-.864.691-1.571 1.565-1.58h.017c.888 0 1.613.702 1.631 1.58l.257 12.434c.015.711.553 1.305 1.266 1.399.71.093 1.24.69 1.24 1.399zm2.569.145v-9.376c0-.916.75-1.658 1.678-1.658h.068c.927 0 1.678.742 1.678 1.658v9.376c0 .916-.75 1.658-1.678 1.658h-.068c-.927 0-1.678-.742-1.678-1.658zm5.993-17.767l-.002.025.002.019c0 .04-.01.07-.012.109-.124 3.466-4.303 4.887-4.303 4.887s-4.118-1.422-4.236-4.893c-.002-.036-.01-.065-.01-.103v-.02-.024h.003c.023-1.361 1.088-2.575 2.404-2.575.76 0 1.432.413 1.873 1.019.441-.606 1.112-1.019 1.873-1.019 1.316 0 2.381 1.214 2.404 2.575h.004zm26.472 1.656h9.201c1.785 0 3.231 1.43 3.231 3.193v2.305c0 .579-.173 1.144-.498 1.626-.293.435-.254 1.011.096 1.404l.572.64c.751.842 1.166 1.926 1.166 3.049v1.905c0 2.014-1.653 3.647-3.69 3.647H693.39c-1.853 0-3.356-1.485-3.356-3.316v-11.137c0-1.831 1.503-3.316 3.356-3.316zm2.306 3.41c-1.39 0-2.517 1.114-2.517 2.487v6.154c0 1.374 1.127 2.487 2.517 2.487h6.45c.112 0 .224-.01.334-.032.924-.183 1.523-1.07 1.339-1.984-.238-1.177-1.272-2.033-2.487-2.058l-5.56-.112c-.828-.017-1.49-.684-1.49-1.502s.66-1.488 1.489-1.509l4.455-.113c1.129-.028 2.082-.836 2.283-1.933.017-.094.026-.19.026-.285 0-.884-.725-1.6-1.619-1.6h-5.22zm112.744 7.025c.715-.636 1.644-.988 2.606-.988H816.6c.392 0 .71.307.71.685v1.429c0 .379-.318.686-.71.686h-4.453c-.775 0-1.406.6-1.42 1.348v.065c0 .754.632 1.365 1.412 1.365h4.597c1.176 0 2.13-.922 2.13-2.058v-3.088c0-.947-.795-1.715-1.775-1.715h-5.158c-.862 0-1.562-.691-1.562-1.544 0-.852.7-1.543 1.562-1.543h6.046c2.156 0 3.905 1.69 3.905 3.773v5.146c0 2.084-1.749 3.773-3.905 3.773h-7.1c-1.96 0-3.55-1.536-3.55-3.43v-1.439c0-.94.404-1.836 1.11-2.465zm-39.894 1.976c-.715.636-1.643.988-2.606.988H760.386c-.392 0-.71-.307-.71-.686v-1.428c0-.38.318-.686.71-.686h4.453c.775 0 1.407-.6 1.42-1.348v-.041l.001-.024c0-.754-.632-1.365-1.412-1.365h-4.598c-1.176 0-2.13.921-2.13 2.058v3.088c0 .947.795 1.715 1.775 1.715h4.53c.385 0 .7.297.71.67.032 1.302-1.01 2.384-2.328 2.416l-.06.001h-3.74c-2.156 0-3.904-1.69-3.904-3.773v-5.146c0-2.084 1.748-3.773 3.905-3.773h7.1c1.96 0 3.55 1.536 3.55 3.43v1.439c0 .94-.404 1.836-1.112 2.465zm-45.376 0c-.716.636-1.644.988-2.606.988h-5.555c-.392 0-.71-.307-.71-.686v-1.428c0-.38.318-.686.71-.686h4.454c.774 0 1.406-.6 1.42-1.348v-.041-.024c0-.754-.632-1.365-1.412-1.365h-4.598c-1.176 0-2.13.921-2.13 2.058v3.088c0 .947.795 1.715 1.775 1.715h4.53c.386 0 .7.297.71.67.033 1.302-1.01 2.384-2.328 2.416l-.059.001h-3.74c-2.157 0-3.905-1.69-3.905-3.773v-5.146c0-2.084 1.748-3.773 3.905-3.773h7.1c1.96 0 3.55 1.536 3.55 3.43v1.439c0 .94-.404 1.836-1.111 2.465zm6.988-10.205v-.663c0-.852.7-1.543 1.562-1.543.863 0 1.562.69 1.562 1.543v.59c0 1.177.966 2.131 2.158 2.131h1.957c.795 0 1.439.637 1.439 1.422 0 .785-.644 1.421-1.439 1.421h-1.338c-1.534 0-2.777 1.23-2.777 2.745v6.373c0 .853-.7 1.544-1.562 1.544-.862 0-1.562-.691-1.562-1.544v-7.06c0-1.136-.932-2.058-2.082-2.058h-.644c-.795 0-1.439-.636-1.439-1.421s.644-1.422 1.439-1.422h.644c1.15 0 2.082-.921 2.082-2.058zm14.555 0v-.663c0-.852.7-1.543 1.562-1.543.863 0 1.562.69 1.562 1.543v.59c0 1.177.966 2.131 2.157 2.131h1.958c.794 0 1.438.637 1.438 1.422 0 .785-.644 1.421-1.438 1.421h-1.338c-1.534 0-2.777 1.23-2.777 2.745v6.373c0 .853-.7 1.544-1.562 1.544-.863 0-1.562-.691-1.562-1.544v-7.06c0-1.136-.932-2.058-2.082-2.058h-.645c-.794 0-1.438-.636-1.438-1.421s.644-1.422 1.438-1.422h.645c1.15 0 2.082-.921 2.082-2.058zm33.078 2.87h4.042c.841 0 1.523.675 1.523 1.506s-.682 1.505-1.523 1.505h-2.628c-2.293 0-4.152 1.837-4.152 4.103v4.182c0 .772-.633 1.397-1.413 1.397-.781 0-1.414-.625-1.414-1.397v-5.795c0-3.038 2.492-5.5 5.565-5.5zM803.223 159c-.85 0-1.538-.68-1.538-1.52v-2.414c0-1.831-1.503-3.316-3.356-3.316h-3.911c-1.854 0-3.356 1.485-3.356 3.316v2.242c0 .934-.767 1.692-1.713 1.692-.945 0-1.712-.758-1.712-1.692v-14.385c0-.935.767-1.692 1.712-1.692.946 0 1.713.757 1.713 1.692v2.307c0 1.832 1.502 3.317 3.356 3.317h3.911c1.853 0 3.356-1.485 3.356-3.317v-2.48c0-.839.688-1.52 1.538-1.52.849 0 1.537.681 1.537 1.52v14.73c0 .84-.688 1.52-1.537 1.52z" transform="translate(-595 -137)"/>
</svg>
